%TF.GenerationSoftware,KiCad,Pcbnew,7.0.9*%
%TF.CreationDate,2024-01-13T11:23:32+07:00*%
%TF.ProjectId,Waterbox 2.1,57617465-7262-46f7-9820-322e312e6b69,rev?*%
%TF.SameCoordinates,Original*%
%TF.FileFunction,Copper,L2,Bot*%
%TF.FilePolarity,Positive*%
%FSLAX46Y46*%
G04 Gerber Fmt 4.6, Leading zero omitted, Abs format (unit mm)*
G04 Created by KiCad (PCBNEW 7.0.9) date 2024-01-13 11:23:32*
%MOMM*%
%LPD*%
G01*
G04 APERTURE LIST*
G04 Aperture macros list*
%AMRoundRect*
0 Rectangle with rounded corners*
0 $1 Rounding radius*
0 $2 $3 $4 $5 $6 $7 $8 $9 X,Y pos of 4 corners*
0 Add a 4 corners polygon primitive as box body*
4,1,4,$2,$3,$4,$5,$6,$7,$8,$9,$2,$3,0*
0 Add four circle primitives for the rounded corners*
1,1,$1+$1,$2,$3*
1,1,$1+$1,$4,$5*
1,1,$1+$1,$6,$7*
1,1,$1+$1,$8,$9*
0 Add four rect primitives between the rounded corners*
20,1,$1+$1,$2,$3,$4,$5,0*
20,1,$1+$1,$4,$5,$6,$7,0*
20,1,$1+$1,$6,$7,$8,$9,0*
20,1,$1+$1,$8,$9,$2,$3,0*%
G04 Aperture macros list end*
%TA.AperFunction,ComponentPad*%
%ADD10C,1.600000*%
%TD*%
%TA.AperFunction,ComponentPad*%
%ADD11O,1.600000X1.600000*%
%TD*%
%TA.AperFunction,ComponentPad*%
%ADD12R,3.500000X3.500000*%
%TD*%
%TA.AperFunction,ComponentPad*%
%ADD13RoundRect,0.750000X1.000000X-0.750000X1.000000X0.750000X-1.000000X0.750000X-1.000000X-0.750000X0*%
%TD*%
%TA.AperFunction,ComponentPad*%
%ADD14RoundRect,0.875000X0.875000X-0.875000X0.875000X0.875000X-0.875000X0.875000X-0.875000X-0.875000X0*%
%TD*%
%TA.AperFunction,ComponentPad*%
%ADD15RoundRect,0.250000X0.600000X0.725000X-0.600000X0.725000X-0.600000X-0.725000X0.600000X-0.725000X0*%
%TD*%
%TA.AperFunction,ComponentPad*%
%ADD16O,1.700000X1.950000*%
%TD*%
%TA.AperFunction,ComponentPad*%
%ADD17RoundRect,0.250000X0.725000X-0.600000X0.725000X0.600000X-0.725000X0.600000X-0.725000X-0.600000X0*%
%TD*%
%TA.AperFunction,ComponentPad*%
%ADD18O,1.950000X1.700000*%
%TD*%
%TA.AperFunction,ComponentPad*%
%ADD19C,0.800000*%
%TD*%
%TA.AperFunction,ComponentPad*%
%ADD20C,7.000000*%
%TD*%
%TA.AperFunction,ComponentPad*%
%ADD21R,2.000000X2.000000*%
%TD*%
%TA.AperFunction,ComponentPad*%
%ADD22C,2.000000*%
%TD*%
%TA.AperFunction,ComponentPad*%
%ADD23C,1.800000*%
%TD*%
%TA.AperFunction,ComponentPad*%
%ADD24R,1.530000X1.530000*%
%TD*%
%TA.AperFunction,ComponentPad*%
%ADD25C,1.530000*%
%TD*%
%TA.AperFunction,ComponentPad*%
%ADD26R,2.600000X2.600000*%
%TD*%
%TA.AperFunction,ComponentPad*%
%ADD27C,2.600000*%
%TD*%
%TA.AperFunction,ComponentPad*%
%ADD28R,3.000000X3.000000*%
%TD*%
%TA.AperFunction,ComponentPad*%
%ADD29C,3.000000*%
%TD*%
%TA.AperFunction,ComponentPad*%
%ADD30RoundRect,0.250000X0.600000X0.750000X-0.600000X0.750000X-0.600000X-0.750000X0.600000X-0.750000X0*%
%TD*%
%TA.AperFunction,ComponentPad*%
%ADD31O,1.700000X2.000000*%
%TD*%
%TA.AperFunction,ComponentPad*%
%ADD32C,2.400000*%
%TD*%
%TA.AperFunction,Conductor*%
%ADD33C,0.500000*%
%TD*%
%TA.AperFunction,Conductor*%
%ADD34C,2.500000*%
%TD*%
%TA.AperFunction,Conductor*%
%ADD35C,0.300000*%
%TD*%
G04 APERTURE END LIST*
D10*
%TO.P,R4,1*%
%TO.N,Net-(D2-A)*%
X156500000Y-67790000D03*
D11*
%TO.P,R4,2*%
%TO.N,/LED_TEL*%
X156500000Y-75410000D03*
%TD*%
D12*
%TO.P,J1,1*%
%TO.N,+5V*%
X125800000Y-110000000D03*
D13*
%TO.P,J1,2*%
%TO.N,GND*%
X125800000Y-116000000D03*
D14*
%TO.P,J1,3*%
%TO.N,N/C*%
X130500000Y-113000000D03*
%TD*%
D15*
%TO.P,LED NWK,1,BA*%
%TO.N,Net-(D1-BA)*%
X171500000Y-59000000D03*
D16*
%TO.P,LED NWK,2,GA*%
%TO.N,Net-(D1-GA)*%
X169000000Y-59000000D03*
%TO.P,LED NWK,3,K*%
%TO.N,GND*%
X166500000Y-59000000D03*
%TO.P,LED NWK,4,RA*%
%TO.N,Net-(D1-RA)*%
X164000000Y-59000000D03*
%TD*%
D17*
%TO.P,SENSOR,1,Pin_1*%
%TO.N,/Sensor_Data*%
X186500000Y-76700000D03*
D18*
%TO.P,SENSOR,2,Pin_2*%
%TO.N,GND*%
X186500000Y-74200000D03*
%TO.P,SENSOR,3,Pin_3*%
%TO.N,+5V*%
X186500000Y-71700000D03*
%TD*%
D19*
%TO.P,H7,1,1*%
%TO.N,GND*%
X133362000Y-127127000D03*
X134130845Y-125270845D03*
X134130845Y-128983155D03*
X135987000Y-124502000D03*
D20*
X135987000Y-127127000D03*
D19*
X135987000Y-129752000D03*
X137843155Y-125270845D03*
X137843155Y-128983155D03*
X138612000Y-127127000D03*
%TD*%
D21*
%TO.P,PS1,1,AC/L*%
%TO.N,Net-(PS1-AC{slash}L)*%
X70900000Y-111000000D03*
D22*
%TO.P,PS1,2,AC/N*%
%TO.N,Net-(PS1-AC{slash}N)*%
X70900000Y-117000000D03*
%TO.P,PS1,3,-Vout*%
%TO.N,GND*%
X104500000Y-105000000D03*
%TO.P,PS1,4,+Vout*%
%TO.N,+5V*%
X104500000Y-123000000D03*
%TD*%
D23*
%TO.P,RV1,1*%
%TO.N,Net-(VAC_IN1-Pin_2)*%
X105400000Y-83000000D03*
%TO.P,RV1,2*%
%TO.N,Net-(VAC_IN1-Pin_1)*%
X104000000Y-90500000D03*
%TD*%
D19*
%TO.P,H5,1,1*%
%TO.N,GND*%
X133362000Y-57071000D03*
X134130845Y-55214845D03*
X134130845Y-58927155D03*
X135987000Y-54446000D03*
D20*
X135987000Y-57071000D03*
D19*
X135987000Y-59696000D03*
X137843155Y-55214845D03*
X137843155Y-58927155D03*
X138612000Y-57071000D03*
%TD*%
D24*
%TO.P,ESP32-DEVKITC-32U,1,3V3*%
%TO.N,unconnected-(ESP32-DEVKITC-32U1-3V3-Pad1)*%
X185050000Y-85600000D03*
D25*
%TO.P,ESP32-DEVKITC-32U,2,EN*%
%TO.N,unconnected-(ESP32-DEVKITC-32U1-EN-Pad2)*%
X182510000Y-85600000D03*
%TO.P,ESP32-DEVKITC-32U,3,SENSOR_VP*%
%TO.N,unconnected-(ESP32-DEVKITC-32U1-SENSOR_VP-Pad3)*%
X179970000Y-85600000D03*
%TO.P,ESP32-DEVKITC-32U,4,SENSOR_VN*%
%TO.N,unconnected-(ESP32-DEVKITC-32U1-SENSOR_VN-Pad4)*%
X177430000Y-85600000D03*
%TO.P,ESP32-DEVKITC-32U,5,IO34*%
%TO.N,unconnected-(ESP32-DEVKITC-32U1-IO34-Pad5)*%
X174890000Y-85600000D03*
%TO.P,ESP32-DEVKITC-32U,6,IO35*%
%TO.N,unconnected-(ESP32-DEVKITC-32U1-IO35-Pad6)*%
X172350000Y-85600000D03*
%TO.P,ESP32-DEVKITC-32U,7,IO32*%
%TO.N,unconnected-(ESP32-DEVKITC-32U1-IO32-Pad7)*%
X169810000Y-85600000D03*
%TO.P,ESP32-DEVKITC-32U,8,IO33*%
%TO.N,unconnected-(ESP32-DEVKITC-32U1-IO33-Pad8)*%
X167270000Y-85600000D03*
%TO.P,ESP32-DEVKITC-32U,9,IO25*%
%TO.N,/RGBLED_B*%
X164730000Y-85600000D03*
%TO.P,ESP32-DEVKITC-32U,10,IO26*%
%TO.N,/RGBLED_G*%
X162190000Y-85600000D03*
%TO.P,ESP32-DEVKITC-32U,11,IO27*%
%TO.N,/RGBLED_R*%
X159650000Y-85600000D03*
%TO.P,ESP32-DEVKITC-32U,12,IO14*%
%TO.N,unconnected-(ESP32-DEVKITC-32U1-IO14-Pad12)*%
X157110000Y-85600000D03*
%TO.P,ESP32-DEVKITC-32U,13,IO12*%
%TO.N,unconnected-(ESP32-DEVKITC-32U1-IO12-Pad13)*%
X154570000Y-85600000D03*
%TO.P,ESP32-DEVKITC-32U,14,GND1*%
%TO.N,GND*%
X152030000Y-85600000D03*
%TO.P,ESP32-DEVKITC-32U,15,IO13*%
%TO.N,/LED_TEL*%
X149490000Y-85600000D03*
%TO.P,ESP32-DEVKITC-32U,16,SD2*%
%TO.N,unconnected-(ESP32-DEVKITC-32U1-SD2-Pad16)*%
X146950000Y-85600000D03*
%TO.P,ESP32-DEVKITC-32U,17,SD3*%
%TO.N,unconnected-(ESP32-DEVKITC-32U1-SD3-Pad17)*%
X144410000Y-85600000D03*
%TO.P,ESP32-DEVKITC-32U,18,CMD*%
%TO.N,unconnected-(ESP32-DEVKITC-32U1-CMD-Pad18)*%
X141870000Y-85600000D03*
%TO.P,ESP32-DEVKITC-32U,19,EXT_5V*%
%TO.N,+5V*%
X139330000Y-85600000D03*
%TO.P,ESP32-DEVKITC-32U,20,CLK*%
%TO.N,unconnected-(ESP32-DEVKITC-32U1-CLK-Pad20)*%
X139330000Y-111000000D03*
%TO.P,ESP32-DEVKITC-32U,21,SD0*%
%TO.N,unconnected-(ESP32-DEVKITC-32U1-SD0-Pad21)*%
X141870000Y-111000000D03*
%TO.P,ESP32-DEVKITC-32U,22,SD1*%
%TO.N,unconnected-(ESP32-DEVKITC-32U1-SD1-Pad22)*%
X144410000Y-111000000D03*
%TO.P,ESP32-DEVKITC-32U,23,IO15*%
%TO.N,unconnected-(ESP32-DEVKITC-32U1-IO15-Pad23)*%
X146950000Y-111000000D03*
%TO.P,ESP32-DEVKITC-32U,24,IO2*%
%TO.N,unconnected-(ESP32-DEVKITC-32U1-IO2-Pad24)*%
X149490000Y-111000000D03*
%TO.P,ESP32-DEVKITC-32U,25,IO0*%
%TO.N,unconnected-(ESP32-DEVKITC-32U1-IO0-Pad25)*%
X152030000Y-111000000D03*
%TO.P,ESP32-DEVKITC-32U,26,IO4*%
%TO.N,/Sensor_Data*%
X154570000Y-111000000D03*
%TO.P,ESP32-DEVKITC-32U,27,IO16*%
%TO.N,unconnected-(ESP32-DEVKITC-32U1-IO16-Pad27)*%
X157110000Y-111000000D03*
%TO.P,ESP32-DEVKITC-32U,28,IO17*%
%TO.N,unconnected-(ESP32-DEVKITC-32U1-IO17-Pad28)*%
X159650000Y-111000000D03*
%TO.P,ESP32-DEVKITC-32U,29,IO5*%
%TO.N,unconnected-(ESP32-DEVKITC-32U1-IO5-Pad29)*%
X162190000Y-111000000D03*
%TO.P,ESP32-DEVKITC-32U,30,IO18*%
%TO.N,unconnected-(ESP32-DEVKITC-32U1-IO18-Pad30)*%
X164730000Y-111000000D03*
%TO.P,ESP32-DEVKITC-32U,31,IO19*%
%TO.N,unconnected-(ESP32-DEVKITC-32U1-IO19-Pad31)*%
X167270000Y-111000000D03*
%TO.P,ESP32-DEVKITC-32U,32,GND2*%
%TO.N,GND*%
X169810000Y-111000000D03*
%TO.P,ESP32-DEVKITC-32U,33,IO21*%
%TO.N,unconnected-(ESP32-DEVKITC-32U1-IO21-Pad33)*%
X172350000Y-111000000D03*
%TO.P,ESP32-DEVKITC-32U,34,RXD0*%
%TO.N,unconnected-(ESP32-DEVKITC-32U1-RXD0-Pad34)*%
X174890000Y-111000000D03*
%TO.P,ESP32-DEVKITC-32U,35,TXD0*%
%TO.N,unconnected-(ESP32-DEVKITC-32U1-TXD0-Pad35)*%
X177430000Y-111000000D03*
%TO.P,ESP32-DEVKITC-32U,36,IO22*%
%TO.N,unconnected-(ESP32-DEVKITC-32U1-IO22-Pad36)*%
X179970000Y-111000000D03*
%TO.P,ESP32-DEVKITC-32U,37,IO23*%
%TO.N,unconnected-(ESP32-DEVKITC-32U1-IO23-Pad37)*%
X182510000Y-111000000D03*
%TO.P,ESP32-DEVKITC-32U,38,GND3*%
%TO.N,GND*%
X185050000Y-111000000D03*
%TD*%
D26*
%TO.P,VAC_IN1,1,Pin_1*%
%TO.N,Net-(VAC_IN1-Pin_1)*%
X91857500Y-64695000D03*
D27*
%TO.P,VAC_IN1,2,Pin_2*%
%TO.N,Net-(VAC_IN1-Pin_2)*%
X86857500Y-64695000D03*
%TD*%
D19*
%TO.P,H4,1,1*%
%TO.N,GND*%
X112469000Y-127127000D03*
X113237845Y-125270845D03*
X113237845Y-128983155D03*
X115094000Y-124502000D03*
D20*
X115094000Y-127127000D03*
D19*
X115094000Y-129752000D03*
X116950155Y-125270845D03*
X116950155Y-128983155D03*
X117719000Y-127127000D03*
%TD*%
%TO.P,H6,1,1*%
%TO.N,GND*%
X185462000Y-57071000D03*
X186230845Y-55214845D03*
X186230845Y-58927155D03*
X188087000Y-54446000D03*
D20*
X188087000Y-57071000D03*
D19*
X188087000Y-59696000D03*
X189943155Y-55214845D03*
X189943155Y-58927155D03*
X190712000Y-57071000D03*
%TD*%
D21*
%TO.P,C2,1*%
%TO.N,+5V*%
X139300000Y-75800000D03*
D22*
%TO.P,C2,2*%
%TO.N,GND*%
X144300000Y-75800000D03*
%TD*%
D28*
%TO.P,FL1,1,1*%
%TO.N,Net-(VAC_IN1-Pin_2)*%
X82250000Y-80950000D03*
D29*
%TO.P,FL1,2,2*%
%TO.N,Net-(PS1-AC{slash}L)*%
X72250000Y-80950000D03*
%TO.P,FL1,3,3*%
%TO.N,Net-(PS1-AC{slash}N)*%
X72250000Y-93550000D03*
%TO.P,FL1,4,4*%
%TO.N,Net-(VAC_IN1-Pin_1)*%
X82250000Y-93550000D03*
%TD*%
D10*
%TO.P,R2,1*%
%TO.N,Net-(D1-GA)*%
X167640000Y-67818000D03*
D11*
%TO.P,R2,2*%
%TO.N,/RGBLED_G*%
X167640000Y-75438000D03*
%TD*%
D30*
%TO.P,LED DATA,1,K*%
%TO.N,GND*%
X156000000Y-59000000D03*
D31*
%TO.P,LED DATA,2,A*%
%TO.N,Net-(D2-A)*%
X153500000Y-59000000D03*
%TD*%
D32*
%TO.P,C1,1*%
%TO.N,Net-(VAC_IN1-Pin_2)*%
X94000000Y-79500000D03*
%TO.P,C1,2*%
%TO.N,Net-(VAC_IN1-Pin_1)*%
X94000000Y-94500000D03*
%TD*%
D10*
%TO.P,R3,1*%
%TO.N,Net-(D1-RA)*%
X162560000Y-67818000D03*
D11*
%TO.P,R3,2*%
%TO.N,/RGBLED_R*%
X162560000Y-75438000D03*
%TD*%
D19*
%TO.P,H8,1,1*%
%TO.N,GND*%
X185462000Y-127127000D03*
X186230845Y-125270845D03*
X186230845Y-128983155D03*
X188087000Y-124502000D03*
D20*
X188087000Y-127127000D03*
D19*
X188087000Y-129752000D03*
X189943155Y-125270845D03*
X189943155Y-128983155D03*
X190712000Y-127127000D03*
%TD*%
D10*
%TO.P,R1,1*%
%TO.N,Net-(D1-BA)*%
X172600000Y-67790000D03*
D11*
%TO.P,R1,2*%
%TO.N,/RGBLED_B*%
X172600000Y-75410000D03*
%TD*%
D33*
%TO.N,+5V*%
X126200000Y-110000000D02*
X125800000Y-110000000D01*
X139300000Y-75800000D02*
X132300000Y-82800000D01*
X143400000Y-71700000D02*
X186500000Y-71700000D01*
X117500000Y-110000000D02*
X104500000Y-123000000D01*
X139330000Y-85600000D02*
X139330000Y-75830000D01*
X132300000Y-82800000D02*
X132300000Y-103900000D01*
X139330000Y-75830000D02*
X139300000Y-75800000D01*
X125800000Y-110000000D02*
X117500000Y-110000000D01*
X139300000Y-75800000D02*
X143400000Y-71700000D01*
X132300000Y-103900000D02*
X126200000Y-110000000D01*
D34*
%TO.N,Net-(VAC_IN1-Pin_2)*%
X105400000Y-83000000D02*
X97750000Y-83000000D01*
X101700000Y-70300000D02*
X88800000Y-70300000D01*
X97500000Y-83000000D02*
X97750000Y-83000000D01*
X88800000Y-70300000D02*
X86857500Y-68357500D01*
X94000000Y-79500000D02*
X97500000Y-83000000D01*
X94000000Y-83000000D02*
X84300000Y-83000000D01*
X84300000Y-83000000D02*
X82250000Y-80950000D01*
X97750000Y-83000000D02*
X94000000Y-83000000D01*
X107500000Y-76100000D02*
X101700000Y-70300000D01*
X86857500Y-68357500D02*
X86857500Y-64695000D01*
X105400000Y-83000000D02*
X107500000Y-80900000D01*
X107500000Y-80900000D02*
X107500000Y-76100000D01*
D35*
%TO.N,Net-(D1-BA)*%
X171500000Y-59000000D02*
X171500000Y-61500000D01*
X171500000Y-61500000D02*
X172600000Y-62600000D01*
X172600000Y-62600000D02*
X172600000Y-67790000D01*
D34*
%TO.N,Net-(PS1-AC{slash}L)*%
X64500000Y-88700000D02*
X72250000Y-80950000D01*
X70900000Y-111000000D02*
X70750000Y-111000000D01*
X64500000Y-104750000D02*
X64500000Y-88700000D01*
X70750000Y-111000000D02*
X64500000Y-104750000D01*
%TO.N,Net-(PS1-AC{slash}N)*%
X74250000Y-117000000D02*
X76500000Y-114750000D01*
X76500000Y-97800000D02*
X72250000Y-93550000D01*
X76500000Y-114750000D02*
X76500000Y-97800000D01*
X70900000Y-117000000D02*
X74250000Y-117000000D01*
D35*
%TO.N,Net-(D1-GA)*%
X167640000Y-67818000D02*
X167640000Y-62860000D01*
X169000000Y-61500000D02*
X169000000Y-59000000D01*
X167640000Y-62860000D02*
X169000000Y-61500000D01*
%TO.N,Net-(D1-RA)*%
X162500000Y-64000000D02*
X162560000Y-64060000D01*
X164000000Y-62500000D02*
X162500000Y-64000000D01*
X162560000Y-64060000D02*
X162560000Y-67818000D01*
X164000000Y-59000000D02*
X164000000Y-62500000D01*
%TO.N,Net-(D2-A)*%
X153500000Y-64790000D02*
X156500000Y-67790000D01*
X153500000Y-59000000D02*
X153500000Y-64790000D01*
D34*
%TO.N,Net-(VAC_IN1-Pin_1)*%
X105195000Y-64695000D02*
X91857500Y-64695000D01*
X104000000Y-90500000D02*
X98000000Y-90500000D01*
X98000000Y-90500000D02*
X94000000Y-90500000D01*
X104000000Y-90500000D02*
X111500000Y-90500000D01*
X111500000Y-90500000D02*
X114000000Y-88000000D01*
X114000000Y-88000000D02*
X114000000Y-73500000D01*
X85300000Y-90500000D02*
X82250000Y-93550000D01*
X114000000Y-73500000D02*
X105195000Y-64695000D01*
X94000000Y-94500000D02*
X98000000Y-90500000D01*
X94000000Y-90500000D02*
X85300000Y-90500000D01*
D35*
%TO.N,/RGBLED_B*%
X164730000Y-83280000D02*
X172600000Y-75410000D01*
X164730000Y-85600000D02*
X164730000Y-83280000D01*
%TO.N,/RGBLED_G*%
X162190000Y-85600000D02*
X162190000Y-80888000D01*
X162190000Y-80888000D02*
X167640000Y-75438000D01*
%TO.N,/RGBLED_R*%
X159650000Y-85600000D02*
X159650000Y-78348000D01*
X159650000Y-78348000D02*
X162560000Y-75438000D01*
%TO.N,/LED_TEL*%
X149490000Y-85600000D02*
X149490000Y-82420000D01*
X149490000Y-82420000D02*
X156500000Y-75410000D01*
%TO.N,/Sensor_Data*%
X189300000Y-83400000D02*
X189300000Y-101600000D01*
X160970000Y-104600000D02*
X154570000Y-111000000D01*
X189300000Y-83400000D02*
X186500000Y-80600000D01*
X186500000Y-80600000D02*
X186500000Y-76700000D01*
X186300000Y-104600000D02*
X160970000Y-104600000D01*
X189300000Y-101600000D02*
X186300000Y-104600000D01*
%TD*%
%TA.AperFunction,Conductor*%
%TO.N,GND*%
G36*
X187622146Y-52876459D02*
G01*
X187667901Y-52929263D01*
X187677845Y-52998421D01*
X187648820Y-53061977D01*
X187590042Y-53099751D01*
X187573302Y-53103432D01*
X187305691Y-53143129D01*
X186924450Y-53238625D01*
X186554440Y-53371016D01*
X186554424Y-53371023D01*
X186199135Y-53539062D01*
X185862041Y-53741109D01*
X185546368Y-53975228D01*
X185440622Y-54071069D01*
X186390209Y-55020656D01*
X186328390Y-54979350D01*
X186255469Y-54964845D01*
X186206221Y-54964845D01*
X186133300Y-54979350D01*
X186050605Y-55034605D01*
X185995350Y-55117300D01*
X185975947Y-55214845D01*
X185995350Y-55312390D01*
X186036655Y-55374208D01*
X185087069Y-54424622D01*
X184991228Y-54530368D01*
X184757109Y-54846041D01*
X184555062Y-55183135D01*
X184387023Y-55538424D01*
X184387016Y-55538440D01*
X184254625Y-55908450D01*
X184159129Y-56289691D01*
X184101461Y-56678449D01*
X184082176Y-57071000D01*
X184101461Y-57463550D01*
X184159129Y-57852308D01*
X184254625Y-58233549D01*
X184387016Y-58603559D01*
X184387023Y-58603575D01*
X184555062Y-58958864D01*
X184757109Y-59295958D01*
X184991228Y-59611632D01*
X185087068Y-59717376D01*
X185087069Y-59717376D01*
X186036658Y-58767786D01*
X185995350Y-58829610D01*
X185975947Y-58927155D01*
X185995350Y-59024700D01*
X186050605Y-59107395D01*
X186133300Y-59162650D01*
X186206221Y-59177155D01*
X186255469Y-59177155D01*
X186328390Y-59162650D01*
X186390205Y-59121346D01*
X185440622Y-60070929D01*
X185440622Y-60070930D01*
X185546367Y-60166771D01*
X185862041Y-60400890D01*
X186199135Y-60602937D01*
X186554424Y-60770976D01*
X186554440Y-60770983D01*
X186924450Y-60903374D01*
X187305691Y-60998870D01*
X187694449Y-61056538D01*
X188087000Y-61075823D01*
X188479550Y-61056538D01*
X188868308Y-60998870D01*
X189249549Y-60903374D01*
X189619559Y-60770983D01*
X189619575Y-60770976D01*
X189974864Y-60602937D01*
X190311958Y-60400890D01*
X190627632Y-60166770D01*
X190733376Y-60070929D01*
X189783790Y-59121343D01*
X189845610Y-59162650D01*
X189918531Y-59177155D01*
X189967779Y-59177155D01*
X190040700Y-59162650D01*
X190123395Y-59107395D01*
X190178650Y-59024700D01*
X190198053Y-58927155D01*
X190178650Y-58829610D01*
X190137343Y-58767790D01*
X191086929Y-59717376D01*
X191182770Y-59611632D01*
X191416890Y-59295958D01*
X191618937Y-58958864D01*
X191786976Y-58603575D01*
X191786983Y-58603559D01*
X191919374Y-58233549D01*
X192014870Y-57852308D01*
X192072538Y-57463550D01*
X192091823Y-57071000D01*
X192072538Y-56678449D01*
X192014870Y-56289691D01*
X191919374Y-55908450D01*
X191786983Y-55538440D01*
X191786976Y-55538424D01*
X191618937Y-55183135D01*
X191416890Y-54846041D01*
X191182771Y-54530367D01*
X191086930Y-54424622D01*
X191086929Y-54424622D01*
X190137346Y-55374204D01*
X190178650Y-55312390D01*
X190198053Y-55214845D01*
X190178650Y-55117300D01*
X190123395Y-55034605D01*
X190040700Y-54979350D01*
X189967779Y-54964845D01*
X189918531Y-54964845D01*
X189845610Y-54979350D01*
X189783787Y-55020658D01*
X190733376Y-54071069D01*
X190733376Y-54071068D01*
X190627632Y-53975228D01*
X190311958Y-53741109D01*
X189974864Y-53539062D01*
X189619575Y-53371023D01*
X189619559Y-53371016D01*
X189249549Y-53238625D01*
X188868308Y-53143129D01*
X188600698Y-53103432D01*
X188537273Y-53074123D01*
X188499761Y-53015177D01*
X188500073Y-52945308D01*
X188538110Y-52886699D01*
X188601794Y-52857959D01*
X188618893Y-52856774D01*
X192503500Y-52856774D01*
X192570539Y-52876459D01*
X192616294Y-52929263D01*
X192627500Y-52980774D01*
X192627500Y-131217774D01*
X192607815Y-131284813D01*
X192555011Y-131330568D01*
X192503500Y-131341774D01*
X188615198Y-131341774D01*
X188548159Y-131322089D01*
X188502404Y-131269285D01*
X188492460Y-131200127D01*
X188521485Y-131136571D01*
X188580263Y-131098797D01*
X188597003Y-131095116D01*
X188868308Y-131054870D01*
X189249549Y-130959374D01*
X189619559Y-130826983D01*
X189619575Y-130826976D01*
X189974864Y-130658937D01*
X190311958Y-130456890D01*
X190627632Y-130222770D01*
X190733376Y-130126929D01*
X189783790Y-129177343D01*
X189845610Y-129218650D01*
X189918531Y-129233155D01*
X189967779Y-129233155D01*
X190040700Y-129218650D01*
X190123395Y-129163395D01*
X190178650Y-129080700D01*
X190198053Y-128983155D01*
X190178650Y-128885610D01*
X190137343Y-128823790D01*
X191086929Y-129773376D01*
X191182770Y-129667632D01*
X191416890Y-129351958D01*
X191618937Y-129014864D01*
X191786976Y-128659575D01*
X191786983Y-128659559D01*
X191919374Y-128289549D01*
X192014870Y-127908308D01*
X192072538Y-127519550D01*
X192091823Y-127127000D01*
X192072538Y-126734449D01*
X192014870Y-126345691D01*
X191919374Y-125964450D01*
X191786983Y-125594440D01*
X191786976Y-125594424D01*
X191618937Y-125239135D01*
X191416890Y-124902041D01*
X191182771Y-124586367D01*
X191086930Y-124480622D01*
X191086929Y-124480622D01*
X190137346Y-125430204D01*
X190178650Y-125368390D01*
X190198053Y-125270845D01*
X190178650Y-125173300D01*
X190123395Y-125090605D01*
X190040700Y-125035350D01*
X189967779Y-125020845D01*
X189918531Y-125020845D01*
X189845610Y-125035350D01*
X189783787Y-125076658D01*
X190733376Y-124127069D01*
X190733376Y-124127068D01*
X190627632Y-124031228D01*
X190311958Y-123797109D01*
X189974864Y-123595062D01*
X189619575Y-123427023D01*
X189619559Y-123427016D01*
X189249549Y-123294625D01*
X188868308Y-123199129D01*
X188479550Y-123141461D01*
X188087000Y-123122176D01*
X187694449Y-123141461D01*
X187305691Y-123199129D01*
X186924450Y-123294625D01*
X186554440Y-123427016D01*
X186554424Y-123427023D01*
X186199135Y-123595062D01*
X185862041Y-123797109D01*
X185546368Y-124031228D01*
X185440622Y-124127069D01*
X186390209Y-125076656D01*
X186328390Y-125035350D01*
X186255469Y-125020845D01*
X186206221Y-125020845D01*
X186133300Y-125035350D01*
X186050605Y-125090605D01*
X185995350Y-125173300D01*
X185975947Y-125270845D01*
X185995350Y-125368390D01*
X186036655Y-125430208D01*
X185087069Y-124480622D01*
X184991228Y-124586368D01*
X184757109Y-124902041D01*
X184555062Y-125239135D01*
X184387023Y-125594424D01*
X184387016Y-125594440D01*
X184254625Y-125964450D01*
X184159129Y-126345691D01*
X184101461Y-126734449D01*
X184082176Y-127127000D01*
X184101461Y-127519550D01*
X184159129Y-127908308D01*
X184254625Y-128289549D01*
X184387016Y-128659559D01*
X184387023Y-128659575D01*
X184555062Y-129014864D01*
X184757109Y-129351958D01*
X184991228Y-129667632D01*
X185087068Y-129773376D01*
X185087069Y-129773376D01*
X186036658Y-128823786D01*
X185995350Y-128885610D01*
X185975947Y-128983155D01*
X185995350Y-129080700D01*
X186050605Y-129163395D01*
X186133300Y-129218650D01*
X186206221Y-129233155D01*
X186255469Y-129233155D01*
X186328390Y-129218650D01*
X186390205Y-129177346D01*
X185440622Y-130126929D01*
X185440622Y-130126930D01*
X185546367Y-130222771D01*
X185862041Y-130456890D01*
X186199135Y-130658937D01*
X186554424Y-130826976D01*
X186554440Y-130826983D01*
X186924450Y-130959374D01*
X187305691Y-131054870D01*
X187576997Y-131095116D01*
X187640422Y-131124425D01*
X187677934Y-131183371D01*
X187677622Y-131253240D01*
X187639585Y-131311849D01*
X187575901Y-131340589D01*
X187558802Y-131341774D01*
X136515198Y-131341774D01*
X136448159Y-131322089D01*
X136402404Y-131269285D01*
X136392460Y-131200127D01*
X136421485Y-131136571D01*
X136480263Y-131098797D01*
X136497003Y-131095116D01*
X136768308Y-131054870D01*
X137149549Y-130959374D01*
X137519559Y-130826983D01*
X137519575Y-130826976D01*
X137874864Y-130658937D01*
X138211958Y-130456890D01*
X138527632Y-130222770D01*
X138633376Y-130126929D01*
X137683790Y-129177343D01*
X137745610Y-129218650D01*
X137818531Y-129233155D01*
X137867779Y-129233155D01*
X137940700Y-129218650D01*
X138023395Y-129163395D01*
X138078650Y-129080700D01*
X138098053Y-128983155D01*
X138078650Y-128885610D01*
X138037343Y-128823790D01*
X138986929Y-129773376D01*
X139082770Y-129667632D01*
X139316890Y-129351958D01*
X139518937Y-129014864D01*
X139686976Y-128659575D01*
X139686983Y-128659559D01*
X139819374Y-128289549D01*
X139914870Y-127908308D01*
X139972538Y-127519550D01*
X139991823Y-127127000D01*
X139972538Y-126734449D01*
X139914870Y-126345691D01*
X139819374Y-125964450D01*
X139686983Y-125594440D01*
X139686976Y-125594424D01*
X139518937Y-125239135D01*
X139316890Y-124902041D01*
X139082771Y-124586367D01*
X138986930Y-124480622D01*
X138986929Y-124480622D01*
X138037346Y-125430204D01*
X138078650Y-125368390D01*
X138098053Y-125270845D01*
X138078650Y-125173300D01*
X138023395Y-125090605D01*
X137940700Y-125035350D01*
X137867779Y-125020845D01*
X137818531Y-125020845D01*
X137745610Y-125035350D01*
X137683787Y-125076658D01*
X138633376Y-124127069D01*
X138633376Y-124127068D01*
X138527632Y-124031228D01*
X138211958Y-123797109D01*
X137874864Y-123595062D01*
X137519575Y-123427023D01*
X137519559Y-123427016D01*
X137149549Y-123294625D01*
X136768308Y-123199129D01*
X136379550Y-123141461D01*
X135987000Y-123122176D01*
X135594449Y-123141461D01*
X135205691Y-123199129D01*
X134824450Y-123294625D01*
X134454440Y-123427016D01*
X134454424Y-123427023D01*
X134099135Y-123595062D01*
X133762041Y-123797109D01*
X133446368Y-124031228D01*
X133340622Y-124127069D01*
X134290209Y-125076656D01*
X134228390Y-125035350D01*
X134155469Y-125020845D01*
X134106221Y-125020845D01*
X134033300Y-125035350D01*
X133950605Y-125090605D01*
X133895350Y-125173300D01*
X133875947Y-125270845D01*
X133895350Y-125368390D01*
X133936656Y-125430209D01*
X132987069Y-124480622D01*
X132891228Y-124586368D01*
X132657109Y-124902041D01*
X132455060Y-125239140D01*
X132455056Y-125239146D01*
X132444594Y-125261268D01*
X132398136Y-125313455D01*
X132330839Y-125332240D01*
X132264070Y-125311659D01*
X132219026Y-125258247D01*
X132208500Y-125208251D01*
X132208500Y-122477033D01*
X132208528Y-122476890D01*
X132208524Y-122476890D01*
X132208539Y-122452276D01*
X132208541Y-122452274D01*
X132208462Y-122452082D01*
X132208384Y-122451892D01*
X132208382Y-122451890D01*
X132208099Y-122451774D01*
X132208000Y-122451733D01*
X132183446Y-122451733D01*
X132183240Y-122451774D01*
X118897760Y-122451774D01*
X118897554Y-122451733D01*
X118873000Y-122451733D01*
X118872901Y-122451774D01*
X118872617Y-122451890D01*
X118872615Y-122451892D01*
X118872459Y-122452273D01*
X118872476Y-122476890D01*
X118872471Y-122476890D01*
X118872500Y-122477033D01*
X118872500Y-125208251D01*
X118852815Y-125275290D01*
X118800011Y-125321045D01*
X118730853Y-125330989D01*
X118667297Y-125301964D01*
X118636406Y-125261268D01*
X118625943Y-125239146D01*
X118625939Y-125239140D01*
X118423890Y-124902041D01*
X118189771Y-124586367D01*
X118093930Y-124480622D01*
X118093929Y-124480622D01*
X117144346Y-125430204D01*
X117185650Y-125368390D01*
X117205053Y-125270845D01*
X117185650Y-125173300D01*
X117130395Y-125090605D01*
X117047700Y-125035350D01*
X116974779Y-125020845D01*
X116925531Y-125020845D01*
X116852610Y-125035350D01*
X116790787Y-125076658D01*
X117740376Y-124127069D01*
X117740376Y-124127068D01*
X117634632Y-124031228D01*
X117318958Y-123797109D01*
X116981864Y-123595062D01*
X116626575Y-123427023D01*
X116626559Y-123427016D01*
X116256549Y-123294625D01*
X115875308Y-123199129D01*
X115486550Y-123141461D01*
X115094000Y-123122176D01*
X114701449Y-123141461D01*
X114312691Y-123199129D01*
X113931450Y-123294625D01*
X113561440Y-123427016D01*
X113561424Y-123427023D01*
X113206135Y-123595062D01*
X112869041Y-123797109D01*
X112553368Y-124031228D01*
X112447622Y-124127069D01*
X113397209Y-125076656D01*
X113335390Y-125035350D01*
X113262469Y-125020845D01*
X113213221Y-125020845D01*
X113140300Y-125035350D01*
X113057605Y-125090605D01*
X113002350Y-125173300D01*
X112982947Y-125270845D01*
X113002350Y-125368390D01*
X113043656Y-125430209D01*
X112094069Y-124480622D01*
X111998228Y-124586368D01*
X111764109Y-124902041D01*
X111562062Y-125239135D01*
X111394023Y-125594424D01*
X111394016Y-125594440D01*
X111261625Y-125964450D01*
X111166129Y-126345691D01*
X111108461Y-126734449D01*
X111089176Y-127127000D01*
X111108461Y-127519550D01*
X111166129Y-127908308D01*
X111261625Y-128289549D01*
X111394016Y-128659559D01*
X111394023Y-128659575D01*
X111562062Y-129014864D01*
X111764109Y-129351958D01*
X111998228Y-129667632D01*
X112094068Y-129773376D01*
X112094069Y-129773376D01*
X113043658Y-128823786D01*
X113002350Y-128885610D01*
X112982947Y-128983155D01*
X113002350Y-129080700D01*
X113057605Y-129163395D01*
X113140300Y-129218650D01*
X113213221Y-129233155D01*
X113262469Y-129233155D01*
X113335390Y-129218650D01*
X113397205Y-129177346D01*
X112447622Y-130126929D01*
X112447622Y-130126930D01*
X112553367Y-130222771D01*
X112869041Y-130456890D01*
X113206135Y-130658937D01*
X113561424Y-130826976D01*
X113561440Y-130826983D01*
X113931450Y-130959374D01*
X114312691Y-131054870D01*
X114583997Y-131095116D01*
X114647422Y-131124425D01*
X114684934Y-131183371D01*
X114684622Y-131253240D01*
X114646585Y-131311849D01*
X114582901Y-131340589D01*
X114565802Y-131341774D01*
X100124000Y-131341774D01*
X100056961Y-131322089D01*
X100011206Y-131269285D01*
X100000000Y-131217774D01*
X100000000Y-123000002D01*
X103240708Y-123000002D01*
X103251396Y-123122176D01*
X103259839Y-123218674D01*
X103316653Y-123430703D01*
X103316654Y-123430706D01*
X103316655Y-123430708D01*
X103409419Y-123629642D01*
X103409423Y-123629650D01*
X103535322Y-123809452D01*
X103535327Y-123809458D01*
X103690541Y-123964672D01*
X103690547Y-123964677D01*
X103870349Y-124090576D01*
X103870351Y-124090577D01*
X103870354Y-124090579D01*
X104069297Y-124183347D01*
X104281326Y-124240161D01*
X104437521Y-124253826D01*
X104499998Y-124259292D01*
X104500000Y-124259292D01*
X104500002Y-124259292D01*
X104554668Y-124254509D01*
X104718674Y-124240161D01*
X104930703Y-124183347D01*
X105129646Y-124090579D01*
X105309457Y-123964674D01*
X105464674Y-123809457D01*
X105590579Y-123629646D01*
X105683347Y-123430703D01*
X105740161Y-123218674D01*
X105759292Y-123000000D01*
X105740161Y-122781326D01*
X105693597Y-122607550D01*
X105695260Y-122537703D01*
X105725689Y-122487780D01*
X112463470Y-115750000D01*
X123550000Y-115750000D01*
X124366314Y-115750000D01*
X124340507Y-115790156D01*
X124300000Y-115928111D01*
X124300000Y-116071889D01*
X124340507Y-116209844D01*
X124366314Y-116250000D01*
X123550001Y-116250000D01*
X123550001Y-116814192D01*
X123560400Y-116946332D01*
X123615377Y-117164519D01*
X123708428Y-117369374D01*
X123708431Y-117369380D01*
X123836559Y-117554323D01*
X123836569Y-117554335D01*
X123995664Y-117713430D01*
X123995676Y-117713440D01*
X124180619Y-117841568D01*
X124180625Y-117841571D01*
X124385480Y-117934622D01*
X124603667Y-117989599D01*
X124735807Y-118000000D01*
X125549999Y-117999999D01*
X125550000Y-117999998D01*
X125550000Y-116500000D01*
X126050000Y-116500000D01*
X126050000Y-117999999D01*
X126864192Y-117999999D01*
X126996332Y-117989599D01*
X127214519Y-117934622D01*
X127419374Y-117841571D01*
X127419380Y-117841568D01*
X127604323Y-117713440D01*
X127604335Y-117713430D01*
X127763430Y-117554335D01*
X127763440Y-117554323D01*
X127891568Y-117369380D01*
X127891571Y-117369374D01*
X127984622Y-117164519D01*
X128039599Y-116946332D01*
X128050000Y-116814194D01*
X128050000Y-116250000D01*
X127233686Y-116250000D01*
X127259493Y-116209844D01*
X127300000Y-116071889D01*
X127300000Y-115928111D01*
X127259493Y-115790156D01*
X127233686Y-115750000D01*
X128049999Y-115750000D01*
X128049999Y-115185808D01*
X128039599Y-115053667D01*
X127984622Y-114835480D01*
X127891571Y-114630625D01*
X127891568Y-114630619D01*
X127763440Y-114445676D01*
X127763430Y-114445664D01*
X127604335Y-114286569D01*
X127604323Y-114286559D01*
X127419380Y-114158431D01*
X127419374Y-114158428D01*
X127214519Y-114065377D01*
X126996332Y-114010400D01*
X126864194Y-114000000D01*
X126050000Y-114000000D01*
X126050000Y-115500000D01*
X125550000Y-115500000D01*
X125550000Y-114000000D01*
X125549999Y-114000000D01*
X124735808Y-114000001D01*
X124603667Y-114010400D01*
X124385480Y-114065377D01*
X124180625Y-114158428D01*
X124180619Y-114158431D01*
X123995676Y-114286559D01*
X123995664Y-114286569D01*
X123836569Y-114445664D01*
X123836559Y-114445676D01*
X123708431Y-114630619D01*
X123708428Y-114630625D01*
X123615377Y-114835480D01*
X123560400Y-115053667D01*
X123550000Y-115185806D01*
X123550000Y-115750000D01*
X112463470Y-115750000D01*
X114252221Y-113961249D01*
X128495500Y-113961249D01*
X128498386Y-114009708D01*
X128544235Y-114220472D01*
X128544238Y-114220483D01*
X128629150Y-114418771D01*
X128750052Y-114597406D01*
X128750060Y-114597415D01*
X128902584Y-114749939D01*
X128902593Y-114749947D01*
X129028970Y-114835480D01*
X129081226Y-114870848D01*
X129279518Y-114955762D01*
X129279526Y-114955763D01*
X129279527Y-114955764D01*
X129490291Y-115001613D01*
X129490292Y-115001613D01*
X129490297Y-115001614D01*
X129538746Y-115004500D01*
X129538751Y-115004500D01*
X131461249Y-115004500D01*
X131461254Y-115004500D01*
X131509703Y-115001614D01*
X131720482Y-114955762D01*
X131918774Y-114870848D01*
X132097413Y-114749942D01*
X132249942Y-114597413D01*
X132370848Y-114418774D01*
X132455762Y-114220482D01*
X132501614Y-114009703D01*
X132504500Y-113961254D01*
X132504500Y-112038746D01*
X132501614Y-111990297D01*
X132501491Y-111989733D01*
X132455764Y-111779527D01*
X132455761Y-111779516D01*
X132453855Y-111775066D01*
X132370848Y-111581226D01*
X132322641Y-111510000D01*
X132249947Y-111402593D01*
X132249939Y-111402584D01*
X132097415Y-111250060D01*
X132097406Y-111250052D01*
X131918771Y-111129150D01*
X131720483Y-111044238D01*
X131720472Y-111044235D01*
X131517127Y-111000000D01*
X138305567Y-111000000D01*
X138325250Y-111199855D01*
X138383548Y-111392038D01*
X138478210Y-111569138D01*
X138478215Y-111569144D01*
X138605615Y-111724384D01*
X138760855Y-111851784D01*
X138760861Y-111851789D01*
X138937961Y-111946451D01*
X138937963Y-111946451D01*
X138937966Y-111946453D01*
X139130143Y-112004749D01*
X139330000Y-112024433D01*
X139529857Y-112004749D01*
X139722034Y-111946453D01*
X139722038Y-111946451D01*
X139899138Y-111851789D01*
X139899140Y-111851786D01*
X139899144Y-111851785D01*
X140054384Y-111724384D01*
X140181785Y-111569144D01*
X140181786Y-111569140D01*
X140181789Y-111569138D01*
X140276451Y-111392038D01*
X140276451Y-111392037D01*
X140276453Y-111392034D01*
X140334749Y-111199857D01*
X140354433Y-111000000D01*
X140845567Y-111000000D01*
X140865250Y-111199855D01*
X140923548Y-111392038D01*
X141018210Y-111569138D01*
X141018215Y-111569144D01*
X141145615Y-111724384D01*
X141300855Y-111851784D01*
X141300861Y-111851789D01*
X141477961Y-111946451D01*
X141477963Y-111946451D01*
X141477966Y-111946453D01*
X141670143Y-112004749D01*
X141870000Y-112024433D01*
X142069857Y-112004749D01*
X142262034Y-111946453D01*
X142262038Y-111946451D01*
X142439138Y-111851789D01*
X142439140Y-111851786D01*
X142439144Y-111851785D01*
X142594384Y-111724384D01*
X142721785Y-111569144D01*
X142721786Y-111569140D01*
X142721789Y-111569138D01*
X142816451Y-111392038D01*
X142816451Y-111392037D01*
X142816453Y-111392034D01*
X142874749Y-111199857D01*
X142894433Y-111000000D01*
X143385567Y-111000000D01*
X143405250Y-111199855D01*
X143463548Y-111392038D01*
X143558210Y-111569138D01*
X143558215Y-111569144D01*
X143685615Y-111724384D01*
X143840855Y-111851784D01*
X143840861Y-111851789D01*
X144017961Y-111946451D01*
X144017963Y-111946451D01*
X144017966Y-111946453D01*
X144210143Y-112004749D01*
X144410000Y-112024433D01*
X144609857Y-112004749D01*
X144802034Y-111946453D01*
X144802038Y-111946451D01*
X144979138Y-111851789D01*
X144979140Y-111851786D01*
X144979144Y-111851785D01*
X145134384Y-111724384D01*
X145261785Y-111569144D01*
X145261786Y-111569140D01*
X145261789Y-111569138D01*
X145356451Y-111392038D01*
X145356451Y-111392037D01*
X145356453Y-111392034D01*
X145414749Y-111199857D01*
X145434433Y-111000000D01*
X145925567Y-111000000D01*
X145945250Y-111199855D01*
X146003548Y-111392038D01*
X146098210Y-111569138D01*
X146098215Y-111569144D01*
X146225615Y-111724384D01*
X146380855Y-111851784D01*
X146380861Y-111851789D01*
X146557961Y-111946451D01*
X146557963Y-111946451D01*
X146557966Y-111946453D01*
X146750143Y-112004749D01*
X146950000Y-112024433D01*
X147149857Y-112004749D01*
X147342034Y-111946453D01*
X147342038Y-111946451D01*
X147519138Y-111851789D01*
X147519140Y-111851786D01*
X147519144Y-111851785D01*
X147674384Y-111724384D01*
X147801785Y-111569144D01*
X147801786Y-111569140D01*
X147801789Y-111569138D01*
X147896451Y-111392038D01*
X147896451Y-111392037D01*
X147896453Y-111392034D01*
X147954749Y-111199857D01*
X147974433Y-111000000D01*
X148465567Y-111000000D01*
X148485250Y-111199855D01*
X148543548Y-111392038D01*
X148638210Y-111569138D01*
X148638215Y-111569144D01*
X148765615Y-111724384D01*
X148920855Y-111851784D01*
X148920861Y-111851789D01*
X149097961Y-111946451D01*
X149097963Y-111946451D01*
X149097966Y-111946453D01*
X149290143Y-112004749D01*
X149490000Y-112024433D01*
X149689857Y-112004749D01*
X149882034Y-111946453D01*
X149882038Y-111946451D01*
X150059138Y-111851789D01*
X150059140Y-111851786D01*
X150059144Y-111851785D01*
X150214384Y-111724384D01*
X150341785Y-111569144D01*
X150341786Y-111569140D01*
X150341789Y-111569138D01*
X150436451Y-111392038D01*
X150436451Y-111392037D01*
X150436453Y-111392034D01*
X150494749Y-111199857D01*
X150514433Y-111000000D01*
X151005567Y-111000000D01*
X151025250Y-111199855D01*
X151083548Y-111392038D01*
X151178210Y-111569138D01*
X151178215Y-111569144D01*
X151305615Y-111724384D01*
X151460855Y-111851784D01*
X151460861Y-111851789D01*
X151637961Y-111946451D01*
X151637963Y-111946451D01*
X151637966Y-111946453D01*
X151830143Y-112004749D01*
X152030000Y-112024433D01*
X152229857Y-112004749D01*
X152422034Y-111946453D01*
X152422038Y-111946451D01*
X152599138Y-111851789D01*
X152599140Y-111851786D01*
X152599144Y-111851785D01*
X152754384Y-111724384D01*
X152881785Y-111569144D01*
X152881786Y-111569140D01*
X152881789Y-111569138D01*
X152976451Y-111392038D01*
X152976451Y-111392037D01*
X152976453Y-111392034D01*
X153034749Y-111199857D01*
X153054433Y-111000000D01*
X153034749Y-110800143D01*
X152976453Y-110607966D01*
X152976451Y-110607963D01*
X152976451Y-110607961D01*
X152881789Y-110430861D01*
X152881784Y-110430855D01*
X152754384Y-110275615D01*
X152599144Y-110148215D01*
X152599138Y-110148210D01*
X152422038Y-110053548D01*
X152229855Y-109995250D01*
X152030000Y-109975567D01*
X151830144Y-109995250D01*
X151637961Y-110053548D01*
X151460861Y-110148210D01*
X151460855Y-110148215D01*
X151305615Y-110275615D01*
X151178215Y-110430855D01*
X151178210Y-110430861D01*
X151083548Y-110607961D01*
X151025250Y-110800144D01*
X151005567Y-111000000D01*
X150514433Y-111000000D01*
X150494749Y-110800143D01*
X150436453Y-110607966D01*
X150436451Y-110607963D01*
X150436451Y-110607961D01*
X150341789Y-110430861D01*
X150341784Y-110430855D01*
X150214384Y-110275615D01*
X150059144Y-110148215D01*
X150059138Y-110148210D01*
X149882038Y-110053548D01*
X149689855Y-109995250D01*
X149490000Y-109975567D01*
X149290144Y-109995250D01*
X149097961Y-110053548D01*
X148920861Y-110148210D01*
X148920855Y-110148215D01*
X148765615Y-110275615D01*
X148638215Y-110430855D01*
X148638210Y-110430861D01*
X148543548Y-110607961D01*
X148485250Y-110800144D01*
X148465567Y-111000000D01*
X147974433Y-111000000D01*
X147954749Y-110800143D01*
X147896453Y-110607966D01*
X147896451Y-110607963D01*
X147896451Y-110607961D01*
X147801789Y-110430861D01*
X147801784Y-110430855D01*
X147674384Y-110275615D01*
X147519144Y-110148215D01*
X147519138Y-110148210D01*
X147342038Y-110053548D01*
X147149855Y-109995250D01*
X146950000Y-109975567D01*
X146750144Y-109995250D01*
X146557961Y-110053548D01*
X146380861Y-110148210D01*
X146380855Y-110148215D01*
X146225615Y-110275615D01*
X146098215Y-110430855D01*
X146098210Y-110430861D01*
X146003548Y-110607961D01*
X145945250Y-110800144D01*
X145925567Y-111000000D01*
X145434433Y-111000000D01*
X145414749Y-110800143D01*
X145356453Y-110607966D01*
X145356451Y-110607963D01*
X145356451Y-110607961D01*
X145261789Y-110430861D01*
X145261784Y-110430855D01*
X145134384Y-110275615D01*
X144979144Y-110148215D01*
X144979138Y-110148210D01*
X144802038Y-110053548D01*
X144609855Y-109995250D01*
X144410000Y-109975567D01*
X144210144Y-109995250D01*
X144017961Y-110053548D01*
X143840861Y-110148210D01*
X143840855Y-110148215D01*
X143685615Y-110275615D01*
X143558215Y-110430855D01*
X143558210Y-110430861D01*
X143463548Y-110607961D01*
X143405250Y-110800144D01*
X143385567Y-111000000D01*
X142894433Y-111000000D01*
X142874749Y-110800143D01*
X142816453Y-110607966D01*
X142816451Y-110607963D01*
X142816451Y-110607961D01*
X142721789Y-110430861D01*
X142721784Y-110430855D01*
X142594384Y-110275615D01*
X142439144Y-110148215D01*
X142439138Y-110148210D01*
X142262038Y-110053548D01*
X142069855Y-109995250D01*
X141870000Y-109975567D01*
X141670144Y-109995250D01*
X141477961Y-110053548D01*
X141300861Y-110148210D01*
X141300855Y-110148215D01*
X141145615Y-110275615D01*
X141018215Y-110430855D01*
X141018210Y-110430861D01*
X140923548Y-110607961D01*
X140865250Y-110800144D01*
X140845567Y-111000000D01*
X140354433Y-111000000D01*
X140334749Y-110800143D01*
X140276453Y-110607966D01*
X140276451Y-110607963D01*
X140276451Y-110607961D01*
X140181789Y-110430861D01*
X140181784Y-110430855D01*
X140054384Y-110275615D01*
X139899144Y-110148215D01*
X139899138Y-110148210D01*
X139722038Y-110053548D01*
X139529855Y-109995250D01*
X139330000Y-109975567D01*
X139130144Y-109995250D01*
X138937961Y-110053548D01*
X138760861Y-110148210D01*
X138760855Y-110148215D01*
X138605615Y-110275615D01*
X138478215Y-110430855D01*
X138478210Y-110430861D01*
X138383548Y-110607961D01*
X138325250Y-110800144D01*
X138305567Y-111000000D01*
X131517127Y-111000000D01*
X131509708Y-110998386D01*
X131485478Y-110996943D01*
X131461254Y-110995500D01*
X129538746Y-110995500D01*
X129516723Y-110996811D01*
X129490291Y-110998386D01*
X129279527Y-111044235D01*
X129279516Y-111044238D01*
X129081228Y-111129150D01*
X128902593Y-111250052D01*
X128902584Y-111250060D01*
X128750060Y-111402584D01*
X128750052Y-111402593D01*
X128629150Y-111581228D01*
X128544238Y-111779516D01*
X128544235Y-111779527D01*
X128498386Y-111990291D01*
X128495500Y-112038751D01*
X128495500Y-113961249D01*
X114252221Y-113961249D01*
X117672652Y-110540819D01*
X117733975Y-110507334D01*
X117760333Y-110504500D01*
X123671501Y-110504500D01*
X123738540Y-110524185D01*
X123784295Y-110576989D01*
X123795501Y-110628500D01*
X123795501Y-111775066D01*
X123810265Y-111849296D01*
X123810266Y-111849301D01*
X123866515Y-111933484D01*
X123885922Y-111946451D01*
X123950699Y-111989734D01*
X123950702Y-111989734D01*
X123950703Y-111989735D01*
X123975666Y-111994700D01*
X124024933Y-112004500D01*
X127575066Y-112004499D01*
X127649301Y-111989734D01*
X127733484Y-111933484D01*
X127789734Y-111849301D01*
X127804500Y-111775067D01*
X127804499Y-109160331D01*
X127824184Y-109093293D01*
X127840813Y-109072656D01*
X132608958Y-104304511D01*
X132629604Y-104287875D01*
X132633775Y-104285196D01*
X132668044Y-104245645D01*
X132671028Y-104242441D01*
X132682250Y-104231221D01*
X132691752Y-104218526D01*
X132694529Y-104215081D01*
X132702867Y-104205459D01*
X132728777Y-104175558D01*
X132730837Y-104171047D01*
X132744371Y-104148237D01*
X132747342Y-104144268D01*
X132747341Y-104144268D01*
X132747343Y-104144267D01*
X132765628Y-104095239D01*
X132767306Y-104091189D01*
X132789042Y-104043596D01*
X132789747Y-104038691D01*
X132796308Y-104012984D01*
X132798040Y-104008342D01*
X132801772Y-103956156D01*
X132802239Y-103951804D01*
X132804500Y-103936083D01*
X132804500Y-103920230D01*
X132804658Y-103915806D01*
X132808389Y-103863639D01*
X132807333Y-103858784D01*
X132804500Y-103832429D01*
X132804500Y-83060332D01*
X132824185Y-82993293D01*
X132840814Y-82972656D01*
X138613819Y-77199650D01*
X138675142Y-77166166D01*
X138744834Y-77171150D01*
X138800767Y-77213022D01*
X138825184Y-77278486D01*
X138825500Y-77287332D01*
X138825500Y-84639339D01*
X138805815Y-84706378D01*
X138765242Y-84743817D01*
X138765920Y-84744831D01*
X138760856Y-84748214D01*
X138605615Y-84875615D01*
X138478215Y-85030855D01*
X138478210Y-85030861D01*
X138383548Y-85207961D01*
X138325250Y-85400144D01*
X138305567Y-85600000D01*
X138325250Y-85799855D01*
X138383548Y-85992038D01*
X138478210Y-86169138D01*
X138478215Y-86169144D01*
X138605615Y-86324384D01*
X138760855Y-86451784D01*
X138760861Y-86451789D01*
X138937961Y-86546451D01*
X138937963Y-86546451D01*
X138937966Y-86546453D01*
X139130143Y-86604749D01*
X139330000Y-86624433D01*
X139529857Y-86604749D01*
X139722034Y-86546453D01*
X139722038Y-86546451D01*
X139899138Y-86451789D01*
X139899140Y-86451786D01*
X139899144Y-86451785D01*
X140054384Y-86324384D01*
X140181785Y-86169144D01*
X140181786Y-86169140D01*
X140181789Y-86169138D01*
X140276451Y-85992038D01*
X140276451Y-85992037D01*
X140276453Y-85992034D01*
X140334749Y-85799857D01*
X140354433Y-85600000D01*
X140845567Y-85600000D01*
X140865250Y-85799855D01*
X140923548Y-85992038D01*
X141018210Y-86169138D01*
X141018215Y-86169144D01*
X141145615Y-86324384D01*
X141300855Y-86451784D01*
X141300861Y-86451789D01*
X141477961Y-86546451D01*
X141477963Y-86546451D01*
X141477966Y-86546453D01*
X141670143Y-86604749D01*
X141870000Y-86624433D01*
X142069857Y-86604749D01*
X142262034Y-86546453D01*
X142262038Y-86546451D01*
X142439138Y-86451789D01*
X142439140Y-86451786D01*
X142439144Y-86451785D01*
X142594384Y-86324384D01*
X142721785Y-86169144D01*
X142721786Y-86169140D01*
X142721789Y-86169138D01*
X142816451Y-85992038D01*
X142816451Y-85992037D01*
X142816453Y-85992034D01*
X142874749Y-85799857D01*
X142894433Y-85600000D01*
X143385567Y-85600000D01*
X143405250Y-85799855D01*
X143463548Y-85992038D01*
X143558210Y-86169138D01*
X143558215Y-86169144D01*
X143685615Y-86324384D01*
X143840855Y-86451784D01*
X143840861Y-86451789D01*
X144017961Y-86546451D01*
X144017963Y-86546451D01*
X144017966Y-86546453D01*
X144210143Y-86604749D01*
X144410000Y-86624433D01*
X144609857Y-86604749D01*
X144802034Y-86546453D01*
X144802038Y-86546451D01*
X144979138Y-86451789D01*
X144979140Y-86451786D01*
X144979144Y-86451785D01*
X145134384Y-86324384D01*
X145261785Y-86169144D01*
X145261786Y-86169140D01*
X145261789Y-86169138D01*
X145356451Y-85992038D01*
X145356451Y-85992037D01*
X145356453Y-85992034D01*
X145414749Y-85799857D01*
X145434433Y-85600000D01*
X145925567Y-85600000D01*
X145945250Y-85799855D01*
X146003548Y-85992038D01*
X146098210Y-86169138D01*
X146098215Y-86169144D01*
X146225615Y-86324384D01*
X146380855Y-86451784D01*
X146380861Y-86451789D01*
X146557961Y-86546451D01*
X146557963Y-86546451D01*
X146557966Y-86546453D01*
X146750143Y-86604749D01*
X146950000Y-86624433D01*
X147149857Y-86604749D01*
X147342034Y-86546453D01*
X147342038Y-86546451D01*
X147519138Y-86451789D01*
X147519140Y-86451786D01*
X147519144Y-86451785D01*
X147674384Y-86324384D01*
X147801785Y-86169144D01*
X147801786Y-86169140D01*
X147801789Y-86169138D01*
X147896451Y-85992038D01*
X147896451Y-85992037D01*
X147896453Y-85992034D01*
X147954749Y-85799857D01*
X147974433Y-85600000D01*
X148465567Y-85600000D01*
X148485250Y-85799855D01*
X148543548Y-85992038D01*
X148638210Y-86169138D01*
X148638215Y-86169144D01*
X148765615Y-86324384D01*
X148920855Y-86451784D01*
X148920861Y-86451789D01*
X149097961Y-86546451D01*
X149097963Y-86546451D01*
X149097966Y-86546453D01*
X149290143Y-86604749D01*
X149490000Y-86624433D01*
X149689857Y-86604749D01*
X149882034Y-86546453D01*
X149882038Y-86546451D01*
X150059138Y-86451789D01*
X150059140Y-86451786D01*
X150059144Y-86451785D01*
X150214384Y-86324384D01*
X150341785Y-86169144D01*
X150341786Y-86169140D01*
X150341789Y-86169138D01*
X150436451Y-85992038D01*
X150436451Y-85992037D01*
X150436453Y-85992034D01*
X150494749Y-85799857D01*
X150513862Y-85605794D01*
X150515125Y-85602666D01*
X150514217Y-85596586D01*
X150759332Y-85596586D01*
X150760792Y-85607143D01*
X150779459Y-85820499D01*
X150779461Y-85820509D01*
X150836745Y-86034300D01*
X150836749Y-86034309D01*
X150930295Y-86234919D01*
X150976103Y-86300341D01*
X150976105Y-86300342D01*
X151538866Y-85737580D01*
X151561318Y-85814040D01*
X151640605Y-85937413D01*
X151751438Y-86033451D01*
X151884839Y-86094373D01*
X151888633Y-86094918D01*
X151329656Y-86653894D01*
X151395083Y-86699706D01*
X151395085Y-86699707D01*
X151595690Y-86793250D01*
X151595699Y-86793254D01*
X151809490Y-86850538D01*
X151809500Y-86850540D01*
X152029999Y-86869832D01*
X152030001Y-86869832D01*
X152250499Y-86850540D01*
X152250509Y-86850538D01*
X152464300Y-86793254D01*
X152464309Y-86793250D01*
X152664915Y-86699706D01*
X152730342Y-86653894D01*
X152171366Y-86094918D01*
X152175161Y-86094373D01*
X152308562Y-86033451D01*
X152419395Y-85937413D01*
X152498682Y-85814040D01*
X152521133Y-85737580D01*
X153083894Y-86300342D01*
X153129706Y-86234915D01*
X153223250Y-86034309D01*
X153223254Y-86034300D01*
X153280538Y-85820509D01*
X153280540Y-85820499D01*
X153299207Y-85607143D01*
X153300666Y-85603412D01*
X153299826Y-85597332D01*
X153544873Y-85597332D01*
X153546138Y-85605797D01*
X153565250Y-85799855D01*
X153623548Y-85992038D01*
X153718210Y-86169138D01*
X153718215Y-86169144D01*
X153845615Y-86324384D01*
X154000855Y-86451784D01*
X154000861Y-86451789D01*
X154177961Y-86546451D01*
X154177963Y-86546451D01*
X154177966Y-86546453D01*
X154370143Y-86604749D01*
X154570000Y-86624433D01*
X154769857Y-86604749D01*
X154962034Y-86546453D01*
X154962038Y-86546451D01*
X155139138Y-86451789D01*
X155139140Y-86451786D01*
X155139144Y-86451785D01*
X155294384Y-86324384D01*
X155421785Y-86169144D01*
X155421786Y-86169140D01*
X155421789Y-86169138D01*
X155516451Y-85992038D01*
X155516451Y-85992037D01*
X155516453Y-85992034D01*
X155574749Y-85799857D01*
X155594433Y-85600000D01*
X156085567Y-85600000D01*
X156105250Y-85799855D01*
X156163548Y-85992038D01*
X156258210Y-86169138D01*
X156258215Y-86169144D01*
X156385615Y-86324384D01*
X156540855Y-86451784D01*
X156540861Y-86451789D01*
X156717961Y-86546451D01*
X156717963Y-86546451D01*
X156717966Y-86546453D01*
X156910143Y-86604749D01*
X157110000Y-86624433D01*
X157309857Y-86604749D01*
X157502034Y-86546453D01*
X157502038Y-86546451D01*
X157679138Y-86451789D01*
X157679140Y-86451786D01*
X157679144Y-86451785D01*
X157834384Y-86324384D01*
X157961785Y-86169144D01*
X157961786Y-86169140D01*
X157961789Y-86169138D01*
X158056451Y-85992038D01*
X158056451Y-85992037D01*
X158056453Y-85992034D01*
X158114749Y-85799857D01*
X158134433Y-85600000D01*
X158625567Y-85600000D01*
X158645250Y-85799855D01*
X158703548Y-85992038D01*
X158798210Y-86169138D01*
X158798215Y-86169144D01*
X158925615Y-86324384D01*
X159080855Y-86451784D01*
X159080861Y-86451789D01*
X159257961Y-86546451D01*
X159257963Y-86546451D01*
X159257966Y-86546453D01*
X159450143Y-86604749D01*
X159650000Y-86624433D01*
X159849857Y-86604749D01*
X160042034Y-86546453D01*
X160042038Y-86546451D01*
X160219138Y-86451789D01*
X160219140Y-86451786D01*
X160219144Y-86451785D01*
X160374384Y-86324384D01*
X160501785Y-86169144D01*
X160501786Y-86169140D01*
X160501789Y-86169138D01*
X160596451Y-85992038D01*
X160596451Y-85992037D01*
X160596453Y-85992034D01*
X160654749Y-85799857D01*
X160674433Y-85600000D01*
X161165567Y-85600000D01*
X161185250Y-85799855D01*
X161243548Y-85992038D01*
X161338210Y-86169138D01*
X161338215Y-86169144D01*
X161465615Y-86324384D01*
X161620855Y-86451784D01*
X161620861Y-86451789D01*
X161797961Y-86546451D01*
X161797963Y-86546451D01*
X161797966Y-86546453D01*
X161990143Y-86604749D01*
X162190000Y-86624433D01*
X162389857Y-86604749D01*
X162582034Y-86546453D01*
X162582038Y-86546451D01*
X162759138Y-86451789D01*
X162759140Y-86451786D01*
X162759144Y-86451785D01*
X162914384Y-86324384D01*
X163041785Y-86169144D01*
X163041786Y-86169140D01*
X163041789Y-86169138D01*
X163136451Y-85992038D01*
X163136451Y-85992037D01*
X163136453Y-85992034D01*
X163194749Y-85799857D01*
X163214433Y-85600000D01*
X163705567Y-85600000D01*
X163725250Y-85799855D01*
X163783548Y-85992038D01*
X163878210Y-86169138D01*
X163878215Y-86169144D01*
X164005615Y-86324384D01*
X164160855Y-86451784D01*
X164160861Y-86451789D01*
X164337961Y-86546451D01*
X164337963Y-86546451D01*
X164337966Y-86546453D01*
X164530143Y-86604749D01*
X164730000Y-86624433D01*
X164929857Y-86604749D01*
X165122034Y-86546453D01*
X165122038Y-86546451D01*
X165299138Y-86451789D01*
X165299140Y-86451786D01*
X165299144Y-86451785D01*
X165454384Y-86324384D01*
X165581785Y-86169144D01*
X165581786Y-86169140D01*
X165581789Y-86169138D01*
X165676451Y-85992038D01*
X165676451Y-85992037D01*
X165676453Y-85992034D01*
X165734749Y-85799857D01*
X165754433Y-85600000D01*
X166245567Y-85600000D01*
X166265250Y-85799855D01*
X166323548Y-85992038D01*
X166418210Y-86169138D01*
X166418215Y-86169144D01*
X166545615Y-86324384D01*
X166700855Y-86451784D01*
X166700861Y-86451789D01*
X166877961Y-86546451D01*
X166877963Y-86546451D01*
X166877966Y-86546453D01*
X167070143Y-86604749D01*
X167270000Y-86624433D01*
X167469857Y-86604749D01*
X167662034Y-86546453D01*
X167662038Y-86546451D01*
X167839138Y-86451789D01*
X167839140Y-86451786D01*
X167839144Y-86451785D01*
X167994384Y-86324384D01*
X168121785Y-86169144D01*
X168121786Y-86169140D01*
X168121789Y-86169138D01*
X168216451Y-85992038D01*
X168216451Y-85992037D01*
X168216453Y-85992034D01*
X168274749Y-85799857D01*
X168294433Y-85600000D01*
X168785567Y-85600000D01*
X168805250Y-85799855D01*
X168863548Y-85992038D01*
X168958210Y-86169138D01*
X168958215Y-86169144D01*
X169085615Y-86324384D01*
X169240855Y-86451784D01*
X169240861Y-86451789D01*
X169417961Y-86546451D01*
X169417963Y-86546451D01*
X169417966Y-86546453D01*
X169610143Y-86604749D01*
X169810000Y-86624433D01*
X170009857Y-86604749D01*
X170202034Y-86546453D01*
X170202038Y-86546451D01*
X170379138Y-86451789D01*
X170379140Y-86451786D01*
X170379144Y-86451785D01*
X170534384Y-86324384D01*
X170661785Y-86169144D01*
X170661786Y-86169140D01*
X170661789Y-86169138D01*
X170756451Y-85992038D01*
X170756451Y-85992037D01*
X170756453Y-85992034D01*
X170814749Y-85799857D01*
X170834433Y-85600000D01*
X171325567Y-85600000D01*
X171345250Y-85799855D01*
X171403548Y-85992038D01*
X171498210Y-86169138D01*
X171498215Y-86169144D01*
X171625615Y-86324384D01*
X171780855Y-86451784D01*
X171780861Y-86451789D01*
X171957961Y-86546451D01*
X171957963Y-86546451D01*
X171957966Y-86546453D01*
X172150143Y-86604749D01*
X172350000Y-86624433D01*
X172549857Y-86604749D01*
X172742034Y-86546453D01*
X172742038Y-86546451D01*
X172919138Y-86451789D01*
X172919140Y-86451786D01*
X172919144Y-86451785D01*
X173074384Y-86324384D01*
X173201785Y-86169144D01*
X173201786Y-86169140D01*
X173201789Y-86169138D01*
X173296451Y-85992038D01*
X173296451Y-85992037D01*
X173296453Y-85992034D01*
X173354749Y-85799857D01*
X173374433Y-85600000D01*
X173865567Y-85600000D01*
X173885250Y-85799855D01*
X173943548Y-85992038D01*
X174038210Y-86169138D01*
X174038215Y-86169144D01*
X174165615Y-86324384D01*
X174320855Y-86451784D01*
X174320861Y-86451789D01*
X174497961Y-86546451D01*
X174497963Y-86546451D01*
X174497966Y-86546453D01*
X174690143Y-86604749D01*
X174890000Y-86624433D01*
X175089857Y-86604749D01*
X175282034Y-86546453D01*
X175282038Y-86546451D01*
X175459138Y-86451789D01*
X175459140Y-86451786D01*
X175459144Y-86451785D01*
X175614384Y-86324384D01*
X175741785Y-86169144D01*
X175741786Y-86169140D01*
X175741789Y-86169138D01*
X175836451Y-85992038D01*
X175836451Y-85992037D01*
X175836453Y-85992034D01*
X175894749Y-85799857D01*
X175914433Y-85600000D01*
X176405567Y-85600000D01*
X176425250Y-85799855D01*
X176483548Y-85992038D01*
X176578210Y-86169138D01*
X176578215Y-86169144D01*
X176705615Y-86324384D01*
X176860855Y-86451784D01*
X176860861Y-86451789D01*
X177037961Y-86546451D01*
X177037963Y-86546451D01*
X177037966Y-86546453D01*
X177230143Y-86604749D01*
X177430000Y-86624433D01*
X177629857Y-86604749D01*
X177822034Y-86546453D01*
X177822038Y-86546451D01*
X177999138Y-86451789D01*
X177999140Y-86451786D01*
X177999144Y-86451785D01*
X178154384Y-86324384D01*
X178281785Y-86169144D01*
X178281786Y-86169140D01*
X178281789Y-86169138D01*
X178376451Y-85992038D01*
X178376451Y-85992037D01*
X178376453Y-85992034D01*
X178434749Y-85799857D01*
X178454433Y-85600000D01*
X178945567Y-85600000D01*
X178965250Y-85799855D01*
X179023548Y-85992038D01*
X179118210Y-86169138D01*
X179118215Y-86169144D01*
X179245615Y-86324384D01*
X179400855Y-86451784D01*
X179400861Y-86451789D01*
X179577961Y-86546451D01*
X179577963Y-86546451D01*
X179577966Y-86546453D01*
X179770143Y-86604749D01*
X179970000Y-86624433D01*
X180169857Y-86604749D01*
X180362034Y-86546453D01*
X180362038Y-86546451D01*
X180539138Y-86451789D01*
X180539140Y-86451786D01*
X180539144Y-86451785D01*
X180694384Y-86324384D01*
X180821785Y-86169144D01*
X180821786Y-86169140D01*
X180821789Y-86169138D01*
X180916451Y-85992038D01*
X180916451Y-85992037D01*
X180916453Y-85992034D01*
X180974749Y-85799857D01*
X180994433Y-85600000D01*
X181485567Y-85600000D01*
X181505250Y-85799855D01*
X181563548Y-85992038D01*
X181658210Y-86169138D01*
X181658215Y-86169144D01*
X181785615Y-86324384D01*
X181940855Y-86451784D01*
X181940861Y-86451789D01*
X182117961Y-86546451D01*
X182117963Y-86546451D01*
X182117966Y-86546453D01*
X182310143Y-86604749D01*
X182510000Y-86624433D01*
X182709857Y-86604749D01*
X182902034Y-86546453D01*
X182902038Y-86546451D01*
X183079138Y-86451789D01*
X183079140Y-86451786D01*
X183079144Y-86451785D01*
X183154353Y-86390063D01*
X184030500Y-86390063D01*
X184045266Y-86464301D01*
X184101515Y-86548484D01*
X184135234Y-86571014D01*
X184185699Y-86604734D01*
X184185702Y-86604734D01*
X184185703Y-86604735D01*
X184210666Y-86609700D01*
X184259933Y-86619500D01*
X185840066Y-86619499D01*
X185914301Y-86604734D01*
X185998484Y-86548484D01*
X186054734Y-86464301D01*
X186069500Y-86390067D01*
X186069499Y-84809934D01*
X186054734Y-84735699D01*
X186027703Y-84695245D01*
X185998484Y-84651515D01*
X185948019Y-84617796D01*
X185914301Y-84595266D01*
X185914299Y-84595265D01*
X185914296Y-84595264D01*
X185840069Y-84580500D01*
X184259936Y-84580500D01*
X184185698Y-84595266D01*
X184101515Y-84651515D01*
X184045266Y-84735699D01*
X184045264Y-84735703D01*
X184030500Y-84809928D01*
X184030500Y-86390063D01*
X183154353Y-86390063D01*
X183234384Y-86324384D01*
X183361785Y-86169144D01*
X183361786Y-86169140D01*
X183361789Y-86169138D01*
X183456451Y-85992038D01*
X183456451Y-85992037D01*
X183456453Y-85992034D01*
X183514749Y-85799857D01*
X183534433Y-85600000D01*
X183514749Y-85400143D01*
X183456453Y-85207966D01*
X183456451Y-85207963D01*
X183456451Y-85207961D01*
X183361789Y-85030861D01*
X183361784Y-85030855D01*
X183234384Y-84875615D01*
X183079144Y-84748215D01*
X183079138Y-84748210D01*
X182902038Y-84653548D01*
X182709855Y-84595250D01*
X182510000Y-84575567D01*
X182310144Y-84595250D01*
X182117961Y-84653548D01*
X181940861Y-84748210D01*
X181940855Y-84748215D01*
X181785615Y-84875615D01*
X181658215Y-85030855D01*
X181658210Y-85030861D01*
X181563548Y-85207961D01*
X181505250Y-85400144D01*
X181485567Y-85600000D01*
X180994433Y-85600000D01*
X180974749Y-85400143D01*
X180916453Y-85207966D01*
X180916451Y-85207963D01*
X180916451Y-85207961D01*
X180821789Y-85030861D01*
X180821784Y-85030855D01*
X180694384Y-84875615D01*
X180539144Y-84748215D01*
X180539138Y-84748210D01*
X180362038Y-84653548D01*
X180169855Y-84595250D01*
X179970000Y-84575567D01*
X179770144Y-84595250D01*
X179577961Y-84653548D01*
X179400861Y-84748210D01*
X179400855Y-84748215D01*
X179245615Y-84875615D01*
X179118215Y-85030855D01*
X179118210Y-85030861D01*
X179023548Y-85207961D01*
X178965250Y-85400144D01*
X178945567Y-85600000D01*
X178454433Y-85600000D01*
X178434749Y-85400143D01*
X178376453Y-85207966D01*
X178376451Y-85207963D01*
X178376451Y-85207961D01*
X178281789Y-85030861D01*
X178281784Y-85030855D01*
X178154384Y-84875615D01*
X177999144Y-84748215D01*
X177999138Y-84748210D01*
X177822038Y-84653548D01*
X177629855Y-84595250D01*
X177430000Y-84575567D01*
X177230144Y-84595250D01*
X177037961Y-84653548D01*
X176860861Y-84748210D01*
X176860855Y-84748215D01*
X176705615Y-84875615D01*
X176578215Y-85030855D01*
X176578210Y-85030861D01*
X176483548Y-85207961D01*
X176425250Y-85400144D01*
X176405567Y-85600000D01*
X175914433Y-85600000D01*
X175894749Y-85400143D01*
X175836453Y-85207966D01*
X175836451Y-85207963D01*
X175836451Y-85207961D01*
X175741789Y-85030861D01*
X175741784Y-85030855D01*
X175614384Y-84875615D01*
X175459144Y-84748215D01*
X175459138Y-84748210D01*
X175282038Y-84653548D01*
X175089855Y-84595250D01*
X174890000Y-84575567D01*
X174690144Y-84595250D01*
X174497961Y-84653548D01*
X174320861Y-84748210D01*
X174320855Y-84748215D01*
X174165615Y-84875615D01*
X174038215Y-85030855D01*
X174038210Y-85030861D01*
X173943548Y-85207961D01*
X173885250Y-85400144D01*
X173865567Y-85600000D01*
X173374433Y-85600000D01*
X173354749Y-85400143D01*
X173296453Y-85207966D01*
X173296451Y-85207963D01*
X173296451Y-85207961D01*
X173201789Y-85030861D01*
X173201784Y-85030855D01*
X173074384Y-84875615D01*
X172919144Y-84748215D01*
X172919138Y-84748210D01*
X172742038Y-84653548D01*
X172549855Y-84595250D01*
X172350000Y-84575567D01*
X172150144Y-84595250D01*
X171957961Y-84653548D01*
X171780861Y-84748210D01*
X171780855Y-84748215D01*
X171625615Y-84875615D01*
X171498215Y-85030855D01*
X171498210Y-85030861D01*
X171403548Y-85207961D01*
X171345250Y-85400144D01*
X171325567Y-85600000D01*
X170834433Y-85600000D01*
X170814749Y-85400143D01*
X170756453Y-85207966D01*
X170756451Y-85207963D01*
X170756451Y-85207961D01*
X170661789Y-85030861D01*
X170661784Y-85030855D01*
X170534384Y-84875615D01*
X170379144Y-84748215D01*
X170379138Y-84748210D01*
X170202038Y-84653548D01*
X170009855Y-84595250D01*
X169810000Y-84575567D01*
X169610144Y-84595250D01*
X169417961Y-84653548D01*
X169240861Y-84748210D01*
X169240855Y-84748215D01*
X169085615Y-84875615D01*
X168958215Y-85030855D01*
X168958210Y-85030861D01*
X168863548Y-85207961D01*
X168805250Y-85400144D01*
X168785567Y-85600000D01*
X168294433Y-85600000D01*
X168274749Y-85400143D01*
X168216453Y-85207966D01*
X168216451Y-85207963D01*
X168216451Y-85207961D01*
X168121789Y-85030861D01*
X168121784Y-85030855D01*
X167994384Y-84875615D01*
X167839144Y-84748215D01*
X167839138Y-84748210D01*
X167662038Y-84653548D01*
X167469855Y-84595250D01*
X167270000Y-84575567D01*
X167070144Y-84595250D01*
X166877961Y-84653548D01*
X166700861Y-84748210D01*
X166700855Y-84748215D01*
X166545615Y-84875615D01*
X166418215Y-85030855D01*
X166418210Y-85030861D01*
X166323548Y-85207961D01*
X166265250Y-85400144D01*
X166245567Y-85600000D01*
X165754433Y-85600000D01*
X165734749Y-85400143D01*
X165676453Y-85207966D01*
X165676451Y-85207963D01*
X165676451Y-85207961D01*
X165581789Y-85030861D01*
X165581784Y-85030855D01*
X165454384Y-84875615D01*
X165299148Y-84748218D01*
X165299147Y-84748217D01*
X165299144Y-84748215D01*
X165200044Y-84695244D01*
X165150202Y-84646282D01*
X165134500Y-84585887D01*
X165134500Y-83498910D01*
X165154185Y-83431871D01*
X165170814Y-83411234D01*
X172140877Y-76441170D01*
X172202198Y-76407687D01*
X172264550Y-76410191D01*
X172393282Y-76449242D01*
X172600000Y-76469602D01*
X172806718Y-76449242D01*
X173005492Y-76388945D01*
X173188683Y-76291027D01*
X173349252Y-76159252D01*
X173481027Y-75998683D01*
X173563490Y-75844406D01*
X173578943Y-75815496D01*
X173578943Y-75815495D01*
X173578945Y-75815492D01*
X173639242Y-75616718D01*
X173659602Y-75410000D01*
X173639242Y-75203282D01*
X173578945Y-75004508D01*
X173578943Y-75004505D01*
X173578943Y-75004503D01*
X173481030Y-74821322D01*
X173481028Y-74821320D01*
X173481027Y-74821317D01*
X173440950Y-74772483D01*
X173349252Y-74660747D01*
X173213099Y-74549011D01*
X173188683Y-74528973D01*
X173188681Y-74528972D01*
X173188677Y-74528969D01*
X173005496Y-74431056D01*
X172806716Y-74370757D01*
X172600000Y-74350398D01*
X172393283Y-74370757D01*
X172194503Y-74431056D01*
X172011322Y-74528969D01*
X172011315Y-74528974D01*
X171850747Y-74660747D01*
X171718974Y-74821315D01*
X171718969Y-74821322D01*
X171621056Y-75004503D01*
X171560757Y-75203283D01*
X171540398Y-75410000D01*
X171560757Y-75616716D01*
X171599807Y-75745446D01*
X171600430Y-75815313D01*
X171568827Y-75869122D01*
X167161134Y-80276816D01*
X164421465Y-83016485D01*
X164421462Y-83016488D01*
X164410067Y-83027883D01*
X164398671Y-83039279D01*
X164388473Y-83059295D01*
X164378310Y-83075880D01*
X164365097Y-83094066D01*
X164365094Y-83094071D01*
X164358149Y-83115447D01*
X164350705Y-83133418D01*
X164340503Y-83153440D01*
X164340500Y-83153450D01*
X164336984Y-83175646D01*
X164332445Y-83194554D01*
X164325500Y-83215932D01*
X164325500Y-84585887D01*
X164305815Y-84652926D01*
X164259955Y-84695244D01*
X164160856Y-84748215D01*
X164160854Y-84748215D01*
X164160851Y-84748218D01*
X164005615Y-84875615D01*
X163878215Y-85030855D01*
X163878210Y-85030861D01*
X163783548Y-85207961D01*
X163725250Y-85400144D01*
X163705567Y-85600000D01*
X163214433Y-85600000D01*
X163194749Y-85400143D01*
X163136453Y-85207966D01*
X163136451Y-85207963D01*
X163136451Y-85207961D01*
X163041789Y-85030861D01*
X163041784Y-85030855D01*
X162914384Y-84875615D01*
X162759148Y-84748218D01*
X162759147Y-84748217D01*
X162759144Y-84748215D01*
X162660044Y-84695244D01*
X162610202Y-84646282D01*
X162594500Y-84585887D01*
X162594500Y-81106911D01*
X162614185Y-81039872D01*
X162630814Y-81019235D01*
X167180878Y-76469170D01*
X167242199Y-76435687D01*
X167304550Y-76438191D01*
X167433282Y-76477242D01*
X167640000Y-76497602D01*
X167846718Y-76477242D01*
X168045492Y-76416945D01*
X168062813Y-76407687D01*
X168228677Y-76319030D01*
X168228675Y-76319030D01*
X168228683Y-76319027D01*
X168389252Y-76187252D01*
X168521027Y-76026683D01*
X168590279Y-75897122D01*
X168618943Y-75843496D01*
X168618943Y-75843495D01*
X168618945Y-75843492D01*
X168679242Y-75644718D01*
X168699602Y-75438000D01*
X168679242Y-75231282D01*
X168618945Y-75032508D01*
X168618943Y-75032505D01*
X168618943Y-75032503D01*
X168521030Y-74849322D01*
X168521028Y-74849320D01*
X168521027Y-74849317D01*
X168459978Y-74774928D01*
X168389252Y-74688747D01*
X168252340Y-74576388D01*
X168228683Y-74556973D01*
X168228681Y-74556972D01*
X168228677Y-74556969D01*
X168045496Y-74459056D01*
X167846716Y-74398757D01*
X167640000Y-74378398D01*
X167433283Y-74398757D01*
X167234503Y-74459056D01*
X167051322Y-74556969D01*
X167051315Y-74556974D01*
X166890747Y-74688747D01*
X166758974Y-74849315D01*
X166758969Y-74849322D01*
X166661056Y-75032503D01*
X166600757Y-75231283D01*
X166580398Y-75438000D01*
X166600757Y-75644718D01*
X166639806Y-75773447D01*
X166640429Y-75843314D01*
X166608826Y-75897122D01*
X162229134Y-80276816D01*
X161881465Y-80624485D01*
X161881462Y-80624488D01*
X161870067Y-80635883D01*
X161858671Y-80647279D01*
X161848473Y-80667295D01*
X161838310Y-80683880D01*
X161825097Y-80702066D01*
X161825094Y-80702071D01*
X161818149Y-80723447D01*
X161810705Y-80741418D01*
X161800503Y-80761440D01*
X161800500Y-80761450D01*
X161796984Y-80783646D01*
X161792445Y-80802554D01*
X161785500Y-80823932D01*
X161785500Y-84585887D01*
X161765815Y-84652926D01*
X161719955Y-84695244D01*
X161620856Y-84748215D01*
X161620854Y-84748215D01*
X161620851Y-84748218D01*
X161465615Y-84875615D01*
X161338215Y-85030855D01*
X161338210Y-85030861D01*
X161243548Y-85207961D01*
X161185250Y-85400144D01*
X161165567Y-85600000D01*
X160674433Y-85600000D01*
X160654749Y-85400143D01*
X160596453Y-85207966D01*
X160596451Y-85207963D01*
X160596451Y-85207961D01*
X160501789Y-85030861D01*
X160501784Y-85030855D01*
X160374384Y-84875615D01*
X160219148Y-84748218D01*
X160219147Y-84748217D01*
X160219144Y-84748215D01*
X160120044Y-84695244D01*
X160070202Y-84646282D01*
X160054500Y-84585887D01*
X160054500Y-78566911D01*
X160074185Y-78499872D01*
X160090819Y-78479230D01*
X161025788Y-77544261D01*
X162100878Y-76469170D01*
X162162199Y-76435687D01*
X162224550Y-76438191D01*
X162353282Y-76477242D01*
X162560000Y-76497602D01*
X162766718Y-76477242D01*
X162965492Y-76416945D01*
X162982813Y-76407687D01*
X163148677Y-76319030D01*
X163148675Y-76319030D01*
X163148683Y-76319027D01*
X163309252Y-76187252D01*
X163441027Y-76026683D01*
X163510279Y-75897122D01*
X163538943Y-75843496D01*
X163538943Y-75843495D01*
X163538945Y-75843492D01*
X163599242Y-75644718D01*
X163619602Y-75438000D01*
X163599242Y-75231282D01*
X163538945Y-75032508D01*
X163538943Y-75032505D01*
X163538943Y-75032503D01*
X163441030Y-74849322D01*
X163441028Y-74849320D01*
X163441027Y-74849317D01*
X163379978Y-74774928D01*
X163309252Y-74688747D01*
X163172340Y-74576388D01*
X163148683Y-74556973D01*
X163148681Y-74556972D01*
X163148677Y-74556969D01*
X162965496Y-74459056D01*
X162766716Y-74398757D01*
X162560000Y-74378398D01*
X162353283Y-74398757D01*
X162154503Y-74459056D01*
X161971322Y-74556969D01*
X161971315Y-74556974D01*
X161810747Y-74688747D01*
X161678974Y-74849315D01*
X161678969Y-74849322D01*
X161581056Y-75032503D01*
X161520757Y-75231283D01*
X161500398Y-75438000D01*
X161520757Y-75644718D01*
X161559806Y-75773447D01*
X161560429Y-75843314D01*
X161528826Y-75897122D01*
X159881689Y-77544261D01*
X159341465Y-78084485D01*
X159341462Y-78084488D01*
X159330067Y-78095883D01*
X159318671Y-78107279D01*
X159308473Y-78127295D01*
X159298310Y-78143880D01*
X159285097Y-78162066D01*
X159285094Y-78162071D01*
X159278149Y-78183447D01*
X159270705Y-78201418D01*
X159260503Y-78221440D01*
X159260500Y-78221450D01*
X159256984Y-78243646D01*
X159252445Y-78262554D01*
X159245500Y-78283932D01*
X159245500Y-84585887D01*
X159225815Y-84652926D01*
X159179955Y-84695244D01*
X159080856Y-84748215D01*
X159080854Y-84748215D01*
X159080851Y-84748218D01*
X158925615Y-84875615D01*
X158798215Y-85030855D01*
X158798210Y-85030861D01*
X158703548Y-85207961D01*
X158645250Y-85400144D01*
X158625567Y-85600000D01*
X158134433Y-85600000D01*
X158114749Y-85400143D01*
X158056453Y-85207966D01*
X158056451Y-85207963D01*
X158056451Y-85207961D01*
X157961789Y-85030861D01*
X157961784Y-85030855D01*
X157834384Y-84875615D01*
X157679144Y-84748215D01*
X157679138Y-84748210D01*
X157502038Y-84653548D01*
X157309855Y-84595250D01*
X157110000Y-84575567D01*
X156910144Y-84595250D01*
X156717961Y-84653548D01*
X156540861Y-84748210D01*
X156540855Y-84748215D01*
X156385615Y-84875615D01*
X156258215Y-85030855D01*
X156258210Y-85030861D01*
X156163548Y-85207961D01*
X156105250Y-85400144D01*
X156085567Y-85600000D01*
X155594433Y-85600000D01*
X155574749Y-85400143D01*
X155516453Y-85207966D01*
X155516451Y-85207963D01*
X155516451Y-85207961D01*
X155421789Y-85030861D01*
X155421784Y-85030855D01*
X155294384Y-84875615D01*
X155139144Y-84748215D01*
X155139138Y-84748210D01*
X154962038Y-84653548D01*
X154769855Y-84595250D01*
X154570000Y-84575567D01*
X154370144Y-84595250D01*
X154177961Y-84653548D01*
X154000861Y-84748210D01*
X154000855Y-84748215D01*
X153845615Y-84875615D01*
X153718215Y-85030855D01*
X153718210Y-85030861D01*
X153623548Y-85207961D01*
X153565250Y-85400144D01*
X153546138Y-85594202D01*
X153544873Y-85597332D01*
X153299826Y-85597332D01*
X153299207Y-85592856D01*
X153280540Y-85379500D01*
X153280538Y-85379490D01*
X153223254Y-85165699D01*
X153223250Y-85165690D01*
X153129707Y-84965085D01*
X153129706Y-84965083D01*
X153083894Y-84899657D01*
X153083894Y-84899656D01*
X152521132Y-85462418D01*
X152498682Y-85385960D01*
X152419395Y-85262587D01*
X152308562Y-85166549D01*
X152175161Y-85105627D01*
X152171366Y-85105081D01*
X152730342Y-84546105D01*
X152730341Y-84546103D01*
X152664919Y-84500295D01*
X152464309Y-84406749D01*
X152464300Y-84406745D01*
X152250509Y-84349461D01*
X152250499Y-84349459D01*
X152030001Y-84330168D01*
X152029999Y-84330168D01*
X151809500Y-84349459D01*
X151809490Y-84349461D01*
X151595699Y-84406745D01*
X151595690Y-84406749D01*
X151395084Y-84500293D01*
X151329657Y-84546104D01*
X151888634Y-85105081D01*
X151884839Y-85105627D01*
X151751438Y-85166549D01*
X151640605Y-85262587D01*
X151561318Y-85385960D01*
X151538866Y-85462419D01*
X150976104Y-84899657D01*
X150930293Y-84965084D01*
X150836749Y-85165690D01*
X150836745Y-85165699D01*
X150779461Y-85379490D01*
X150779459Y-85379500D01*
X150760792Y-85592856D01*
X150759332Y-85596586D01*
X150514217Y-85596586D01*
X150513863Y-85594217D01*
X150494749Y-85400143D01*
X150436453Y-85207966D01*
X150436451Y-85207963D01*
X150436451Y-85207961D01*
X150341789Y-85030861D01*
X150341784Y-85030855D01*
X150214384Y-84875615D01*
X150059148Y-84748218D01*
X150059147Y-84748217D01*
X150059144Y-84748215D01*
X149960044Y-84695244D01*
X149910202Y-84646282D01*
X149894500Y-84585887D01*
X149894500Y-82638911D01*
X149914185Y-82571872D01*
X149930814Y-82551235D01*
X156040878Y-76441170D01*
X156102199Y-76407687D01*
X156164550Y-76410191D01*
X156293282Y-76449242D01*
X156500000Y-76469602D01*
X156706718Y-76449242D01*
X156905492Y-76388945D01*
X157088683Y-76291027D01*
X157249252Y-76159252D01*
X157381027Y-75998683D01*
X157463490Y-75844406D01*
X157478943Y-75815496D01*
X157478943Y-75815495D01*
X157478945Y-75815492D01*
X157539242Y-75616718D01*
X157559602Y-75410000D01*
X157539242Y-75203282D01*
X157478945Y-75004508D01*
X157478943Y-75004505D01*
X157478943Y-75004503D01*
X157381030Y-74821322D01*
X157381028Y-74821320D01*
X157381027Y-74821317D01*
X157340950Y-74772483D01*
X157249252Y-74660747D01*
X157113099Y-74549011D01*
X157088683Y-74528973D01*
X157088681Y-74528972D01*
X157088677Y-74528969D01*
X156905496Y-74431056D01*
X156706716Y-74370757D01*
X156500000Y-74350398D01*
X156293283Y-74370757D01*
X156094503Y-74431056D01*
X155911322Y-74528969D01*
X155911315Y-74528974D01*
X155750747Y-74660747D01*
X155618974Y-74821315D01*
X155618969Y-74821322D01*
X155521056Y-75004503D01*
X155460757Y-75203283D01*
X155440398Y-75410000D01*
X155460757Y-75616718D01*
X155499806Y-75745447D01*
X155500429Y-75815314D01*
X155468826Y-75869122D01*
X150713465Y-80624485D01*
X149181465Y-82156485D01*
X149181462Y-82156488D01*
X149170067Y-82167883D01*
X149158671Y-82179279D01*
X149148473Y-82199295D01*
X149138310Y-82215880D01*
X149125097Y-82234066D01*
X149125094Y-82234071D01*
X149118149Y-82255447D01*
X149110705Y-82273418D01*
X149100503Y-82293440D01*
X149100500Y-82293450D01*
X149096984Y-82315646D01*
X149092445Y-82334554D01*
X149085500Y-82355932D01*
X149085500Y-84585887D01*
X149065815Y-84652926D01*
X149019955Y-84695244D01*
X148920856Y-84748215D01*
X148920854Y-84748215D01*
X148920851Y-84748218D01*
X148765615Y-84875615D01*
X148638215Y-85030855D01*
X148638210Y-85030861D01*
X148543548Y-85207961D01*
X148485250Y-85400144D01*
X148465567Y-85600000D01*
X147974433Y-85600000D01*
X147954749Y-85400143D01*
X147896453Y-85207966D01*
X147896451Y-85207963D01*
X147896451Y-85207961D01*
X147801789Y-85030861D01*
X147801784Y-85030855D01*
X147674384Y-84875615D01*
X147519144Y-84748215D01*
X147519138Y-84748210D01*
X147342038Y-84653548D01*
X147149855Y-84595250D01*
X146950000Y-84575567D01*
X146750144Y-84595250D01*
X146557961Y-84653548D01*
X146380861Y-84748210D01*
X146380855Y-84748215D01*
X146225615Y-84875615D01*
X146098215Y-85030855D01*
X146098210Y-85030861D01*
X146003548Y-85207961D01*
X145945250Y-85400144D01*
X145925567Y-85600000D01*
X145434433Y-85600000D01*
X145414749Y-85400143D01*
X145356453Y-85207966D01*
X145356451Y-85207963D01*
X145356451Y-85207961D01*
X145261789Y-85030861D01*
X145261784Y-85030855D01*
X145134384Y-84875615D01*
X144979144Y-84748215D01*
X144979138Y-84748210D01*
X144802038Y-84653548D01*
X144609855Y-84595250D01*
X144410000Y-84575567D01*
X144210144Y-84595250D01*
X144017961Y-84653548D01*
X143840861Y-84748210D01*
X143840855Y-84748215D01*
X143685615Y-84875615D01*
X143558215Y-85030855D01*
X143558210Y-85030861D01*
X143463548Y-85207961D01*
X143405250Y-85400144D01*
X143385567Y-85600000D01*
X142894433Y-85600000D01*
X142874749Y-85400143D01*
X142816453Y-85207966D01*
X142816451Y-85207963D01*
X142816451Y-85207961D01*
X142721789Y-85030861D01*
X142721784Y-85030855D01*
X142594384Y-84875615D01*
X142439144Y-84748215D01*
X142439138Y-84748210D01*
X142262038Y-84653548D01*
X142069855Y-84595250D01*
X141870000Y-84575567D01*
X141670144Y-84595250D01*
X141477961Y-84653548D01*
X141300861Y-84748210D01*
X141300855Y-84748215D01*
X141145615Y-84875615D01*
X141018215Y-85030855D01*
X141018210Y-85030861D01*
X140923548Y-85207961D01*
X140865250Y-85400144D01*
X140845567Y-85600000D01*
X140354433Y-85600000D01*
X140334749Y-85400143D01*
X140276453Y-85207966D01*
X140276451Y-85207963D01*
X140276451Y-85207961D01*
X140181789Y-85030861D01*
X140181784Y-85030855D01*
X140054384Y-84875615D01*
X139899143Y-84748214D01*
X139894080Y-84744831D01*
X139894884Y-84743627D01*
X139850200Y-84699731D01*
X139834500Y-84639339D01*
X139834500Y-77178499D01*
X139854185Y-77111460D01*
X139906989Y-77065705D01*
X139958500Y-77054499D01*
X140325064Y-77054499D01*
X140325066Y-77054499D01*
X140399301Y-77039734D01*
X140483484Y-76983484D01*
X140539734Y-76899301D01*
X140554500Y-76825067D01*
X140554499Y-75800005D01*
X142794859Y-75800005D01*
X142815385Y-76047729D01*
X142815387Y-76047738D01*
X142876412Y-76288717D01*
X142976266Y-76516364D01*
X143076564Y-76669882D01*
X143816923Y-75929523D01*
X143840507Y-76009844D01*
X143918239Y-76130798D01*
X144026900Y-76224952D01*
X144157685Y-76284680D01*
X144167466Y-76286086D01*
X143429942Y-77023609D01*
X143476768Y-77060055D01*
X143476770Y-77060056D01*
X143695385Y-77178364D01*
X143695396Y-77178369D01*
X143930506Y-77259083D01*
X144175707Y-77300000D01*
X144424293Y-77300000D01*
X144669493Y-77259083D01*
X144904603Y-77178369D01*
X144904614Y-77178364D01*
X145123228Y-77060057D01*
X145123231Y-77060055D01*
X145170056Y-77023609D01*
X144432533Y-76286086D01*
X144442315Y-76284680D01*
X144573100Y-76224952D01*
X144681761Y-76130798D01*
X144759493Y-76009844D01*
X144783076Y-75929524D01*
X145523434Y-76669882D01*
X145623731Y-76516369D01*
X145723587Y-76288717D01*
X145784612Y-76047738D01*
X145784614Y-76047729D01*
X145805141Y-75800005D01*
X145805141Y-75799994D01*
X145784614Y-75552270D01*
X145784612Y-75552261D01*
X145723587Y-75311282D01*
X145623731Y-75083630D01*
X145523434Y-74930116D01*
X144783076Y-75670475D01*
X144759493Y-75590156D01*
X144681761Y-75469202D01*
X144573100Y-75375048D01*
X144442315Y-75315320D01*
X144432534Y-75313913D01*
X145170057Y-74576390D01*
X145170056Y-74576389D01*
X145123229Y-74539943D01*
X144904614Y-74421635D01*
X144904603Y-74421630D01*
X144669493Y-74340916D01*
X144424293Y-74300000D01*
X144175707Y-74300000D01*
X143930506Y-74340916D01*
X143695396Y-74421630D01*
X143695390Y-74421632D01*
X143476761Y-74539949D01*
X143429942Y-74576388D01*
X143429942Y-74576390D01*
X144167466Y-75313913D01*
X144157685Y-75315320D01*
X144026900Y-75375048D01*
X143918239Y-75469202D01*
X143840507Y-75590156D01*
X143816923Y-75670475D01*
X143076564Y-74930116D01*
X142976267Y-75083632D01*
X142876412Y-75311282D01*
X142815387Y-75552261D01*
X142815385Y-75552270D01*
X142794859Y-75799994D01*
X142794859Y-75800005D01*
X140554499Y-75800005D01*
X140554499Y-75310331D01*
X140574184Y-75243293D01*
X140590813Y-75222656D01*
X143572652Y-72240819D01*
X143633975Y-72207334D01*
X143660333Y-72204500D01*
X185314406Y-72204500D01*
X185381445Y-72224185D01*
X185415413Y-72256573D01*
X185536473Y-72426579D01*
X185536478Y-72426584D01*
X185689138Y-72572145D01*
X185866587Y-72686184D01*
X185902227Y-72700452D01*
X185957147Y-72743642D01*
X185980000Y-72809668D01*
X185963527Y-72877569D01*
X185912960Y-72925784D01*
X185908545Y-72927951D01*
X185697422Y-73026399D01*
X185697420Y-73026400D01*
X185503926Y-73161886D01*
X185503920Y-73161891D01*
X185336894Y-73328917D01*
X185201399Y-73522421D01*
X185101570Y-73736507D01*
X185101567Y-73736513D01*
X185044364Y-73949999D01*
X185044364Y-73950000D01*
X186096031Y-73950000D01*
X186063481Y-74000649D01*
X186025000Y-74131705D01*
X186025000Y-74268295D01*
X186063481Y-74399351D01*
X186096031Y-74450000D01*
X185044364Y-74450000D01*
X185101567Y-74663486D01*
X185101570Y-74663492D01*
X185201399Y-74877577D01*
X185201400Y-74877579D01*
X185336886Y-75071073D01*
X185336891Y-75071079D01*
X185503920Y-75238108D01*
X185503926Y-75238113D01*
X185697420Y-75373599D01*
X185698577Y-75374267D01*
X185698984Y-75374694D01*
X185701856Y-75376705D01*
X185701451Y-75377282D01*
X185746791Y-75424835D01*
X185760013Y-75493442D01*
X185734044Y-75558306D01*
X185677130Y-75598834D01*
X185667672Y-75601580D01*
X185530738Y-75652655D01*
X185530730Y-75652660D01*
X185414595Y-75739595D01*
X185336821Y-75843492D01*
X185327658Y-75855733D01*
X185276960Y-75991658D01*
X185276959Y-75991662D01*
X185270500Y-76051728D01*
X185270500Y-77348251D01*
X185270501Y-77348257D01*
X185276960Y-77408344D01*
X185327655Y-77544261D01*
X185327656Y-77544264D01*
X185327658Y-77544267D01*
X185356747Y-77583126D01*
X185414595Y-77660404D01*
X185472443Y-77703707D01*
X185530733Y-77747342D01*
X185666658Y-77798040D01*
X185726745Y-77804500D01*
X185971501Y-77804499D01*
X186038539Y-77824183D01*
X186084294Y-77876987D01*
X186095500Y-77928499D01*
X186095500Y-80664065D01*
X186102444Y-80685441D01*
X186106983Y-80704348D01*
X186110501Y-80726554D01*
X186120703Y-80746576D01*
X186128149Y-80764553D01*
X186135093Y-80785925D01*
X186135094Y-80785928D01*
X186148306Y-80804112D01*
X186158471Y-80820700D01*
X186168672Y-80840720D01*
X186168675Y-80840724D01*
X186189902Y-80861951D01*
X186189929Y-80861980D01*
X188859181Y-83531231D01*
X188892666Y-83592554D01*
X188895500Y-83618912D01*
X188895500Y-101381088D01*
X188875815Y-101448127D01*
X188859181Y-101468769D01*
X186168769Y-104159181D01*
X186107446Y-104192666D01*
X186081088Y-104195500D01*
X160905932Y-104195500D01*
X160884554Y-104202445D01*
X160865646Y-104206984D01*
X160843450Y-104210500D01*
X160843440Y-104210503D01*
X160823418Y-104220705D01*
X160805447Y-104228149D01*
X160784071Y-104235094D01*
X160784066Y-104235097D01*
X160765880Y-104248310D01*
X160749295Y-104258473D01*
X160729279Y-104268671D01*
X160717883Y-104280067D01*
X160706488Y-104291462D01*
X160706485Y-104291465D01*
X155001060Y-109996888D01*
X154939737Y-110030373D01*
X154877385Y-110027868D01*
X154769857Y-109995251D01*
X154570000Y-109975567D01*
X154370144Y-109995250D01*
X154177961Y-110053548D01*
X154000861Y-110148210D01*
X154000855Y-110148215D01*
X153845615Y-110275615D01*
X153718215Y-110430855D01*
X153718210Y-110430861D01*
X153623548Y-110607961D01*
X153565250Y-110800144D01*
X153545567Y-111000000D01*
X153565250Y-111199855D01*
X153623548Y-111392038D01*
X153718210Y-111569138D01*
X153718215Y-111569144D01*
X153845615Y-111724384D01*
X154000855Y-111851784D01*
X154000861Y-111851789D01*
X154177961Y-111946451D01*
X154177963Y-111946451D01*
X154177966Y-111946453D01*
X154370143Y-112004749D01*
X154570000Y-112024433D01*
X154769857Y-112004749D01*
X154962034Y-111946453D01*
X154962038Y-111946451D01*
X155139138Y-111851789D01*
X155139140Y-111851786D01*
X155139144Y-111851785D01*
X155294384Y-111724384D01*
X155421785Y-111569144D01*
X155421786Y-111569140D01*
X155421789Y-111569138D01*
X155516451Y-111392038D01*
X155516451Y-111392037D01*
X155516453Y-111392034D01*
X155574749Y-111199857D01*
X155594433Y-111000000D01*
X156085567Y-111000000D01*
X156105250Y-111199855D01*
X156163548Y-111392038D01*
X156258210Y-111569138D01*
X156258215Y-111569144D01*
X156385615Y-111724384D01*
X156540855Y-111851784D01*
X156540861Y-111851789D01*
X156717961Y-111946451D01*
X156717963Y-111946451D01*
X156717966Y-111946453D01*
X156910143Y-112004749D01*
X157110000Y-112024433D01*
X157309857Y-112004749D01*
X157502034Y-111946453D01*
X157502038Y-111946451D01*
X157679138Y-111851789D01*
X157679140Y-111851786D01*
X157679144Y-111851785D01*
X157834384Y-111724384D01*
X157961785Y-111569144D01*
X157961786Y-111569140D01*
X157961789Y-111569138D01*
X158056451Y-111392038D01*
X158056451Y-111392037D01*
X158056453Y-111392034D01*
X158114749Y-111199857D01*
X158134433Y-111000000D01*
X158625567Y-111000000D01*
X158645250Y-111199855D01*
X158703548Y-111392038D01*
X158798210Y-111569138D01*
X158798215Y-111569144D01*
X158925615Y-111724384D01*
X159080855Y-111851784D01*
X159080861Y-111851789D01*
X159257961Y-111946451D01*
X159257963Y-111946451D01*
X159257966Y-111946453D01*
X159450143Y-112004749D01*
X159650000Y-112024433D01*
X159849857Y-112004749D01*
X160042034Y-111946453D01*
X160042038Y-111946451D01*
X160219138Y-111851789D01*
X160219140Y-111851786D01*
X160219144Y-111851785D01*
X160374384Y-111724384D01*
X160501785Y-111569144D01*
X160501786Y-111569140D01*
X160501789Y-111569138D01*
X160596451Y-111392038D01*
X160596451Y-111392037D01*
X160596453Y-111392034D01*
X160654749Y-111199857D01*
X160674433Y-111000000D01*
X161165567Y-111000000D01*
X161185250Y-111199855D01*
X161243548Y-111392038D01*
X161338210Y-111569138D01*
X161338215Y-111569144D01*
X161465615Y-111724384D01*
X161620855Y-111851784D01*
X161620861Y-111851789D01*
X161797961Y-111946451D01*
X161797963Y-111946451D01*
X161797966Y-111946453D01*
X161990143Y-112004749D01*
X162190000Y-112024433D01*
X162389857Y-112004749D01*
X162582034Y-111946453D01*
X162582038Y-111946451D01*
X162759138Y-111851789D01*
X162759140Y-111851786D01*
X162759144Y-111851785D01*
X162914384Y-111724384D01*
X163041785Y-111569144D01*
X163041786Y-111569140D01*
X163041789Y-111569138D01*
X163136451Y-111392038D01*
X163136451Y-111392037D01*
X163136453Y-111392034D01*
X163194749Y-111199857D01*
X163214433Y-111000000D01*
X163705567Y-111000000D01*
X163725250Y-111199855D01*
X163783548Y-111392038D01*
X163878210Y-111569138D01*
X163878215Y-111569144D01*
X164005615Y-111724384D01*
X164160855Y-111851784D01*
X164160861Y-111851789D01*
X164337961Y-111946451D01*
X164337963Y-111946451D01*
X164337966Y-111946453D01*
X164530143Y-112004749D01*
X164730000Y-112024433D01*
X164929857Y-112004749D01*
X165122034Y-111946453D01*
X165122038Y-111946451D01*
X165299138Y-111851789D01*
X165299140Y-111851786D01*
X165299144Y-111851785D01*
X165454384Y-111724384D01*
X165581785Y-111569144D01*
X165581786Y-111569140D01*
X165581789Y-111569138D01*
X165676451Y-111392038D01*
X165676451Y-111392037D01*
X165676453Y-111392034D01*
X165734749Y-111199857D01*
X165754433Y-111000000D01*
X166245567Y-111000000D01*
X166265250Y-111199855D01*
X166323548Y-111392038D01*
X166418210Y-111569138D01*
X166418215Y-111569144D01*
X166545615Y-111724384D01*
X166700855Y-111851784D01*
X166700861Y-111851789D01*
X166877961Y-111946451D01*
X166877963Y-111946451D01*
X166877966Y-111946453D01*
X167070143Y-112004749D01*
X167270000Y-112024433D01*
X167469857Y-112004749D01*
X167662034Y-111946453D01*
X167662038Y-111946451D01*
X167839138Y-111851789D01*
X167839140Y-111851786D01*
X167839144Y-111851785D01*
X167994384Y-111724384D01*
X168121785Y-111569144D01*
X168121786Y-111569140D01*
X168121789Y-111569138D01*
X168216451Y-111392038D01*
X168216451Y-111392037D01*
X168216453Y-111392034D01*
X168274749Y-111199857D01*
X168293862Y-111005794D01*
X168295125Y-111002666D01*
X168294217Y-110996586D01*
X168539332Y-110996586D01*
X168540792Y-111007143D01*
X168559459Y-111220499D01*
X168559461Y-111220509D01*
X168616745Y-111434300D01*
X168616749Y-111434309D01*
X168710295Y-111634919D01*
X168756103Y-111700341D01*
X168756105Y-111700342D01*
X169318866Y-111137580D01*
X169341318Y-111214040D01*
X169420605Y-111337413D01*
X169531438Y-111433451D01*
X169664839Y-111494373D01*
X169668633Y-111494918D01*
X169109656Y-112053894D01*
X169175083Y-112099706D01*
X169175085Y-112099707D01*
X169375690Y-112193250D01*
X169375699Y-112193254D01*
X169589490Y-112250538D01*
X169589500Y-112250540D01*
X169809999Y-112269832D01*
X169810001Y-112269832D01*
X170030499Y-112250540D01*
X170030509Y-112250538D01*
X170244300Y-112193254D01*
X170244309Y-112193250D01*
X170444915Y-112099706D01*
X170510342Y-112053894D01*
X169951366Y-111494918D01*
X169955161Y-111494373D01*
X170088562Y-111433451D01*
X170199395Y-111337413D01*
X170278682Y-111214040D01*
X170301133Y-111137580D01*
X170863894Y-111700342D01*
X170909706Y-111634915D01*
X171003250Y-111434309D01*
X171003254Y-111434300D01*
X171060538Y-111220509D01*
X171060540Y-111220499D01*
X171079207Y-111007143D01*
X171080666Y-111003412D01*
X171079826Y-110997332D01*
X171324873Y-110997332D01*
X171326138Y-111005797D01*
X171345250Y-111199855D01*
X171403548Y-111392038D01*
X171498210Y-111569138D01*
X171498215Y-111569144D01*
X171625615Y-111724384D01*
X171780855Y-111851784D01*
X171780861Y-111851789D01*
X171957961Y-111946451D01*
X171957963Y-111946451D01*
X171957966Y-111946453D01*
X172150143Y-112004749D01*
X172350000Y-112024433D01*
X172549857Y-112004749D01*
X172742034Y-111946453D01*
X172742038Y-111946451D01*
X172919138Y-111851789D01*
X172919140Y-111851786D01*
X172919144Y-111851785D01*
X173074384Y-111724384D01*
X173201785Y-111569144D01*
X173201786Y-111569140D01*
X173201789Y-111569138D01*
X173296451Y-111392038D01*
X173296451Y-111392037D01*
X173296453Y-111392034D01*
X173354749Y-111199857D01*
X173374433Y-111000000D01*
X173865567Y-111000000D01*
X173885250Y-111199855D01*
X173943548Y-111392038D01*
X174038210Y-111569138D01*
X174038215Y-111569144D01*
X174165615Y-111724384D01*
X174320855Y-111851784D01*
X174320861Y-111851789D01*
X174497961Y-111946451D01*
X174497963Y-111946451D01*
X174497966Y-111946453D01*
X174690143Y-112004749D01*
X174890000Y-112024433D01*
X175089857Y-112004749D01*
X175282034Y-111946453D01*
X175282038Y-111946451D01*
X175459138Y-111851789D01*
X175459140Y-111851786D01*
X175459144Y-111851785D01*
X175614384Y-111724384D01*
X175741785Y-111569144D01*
X175741786Y-111569140D01*
X175741789Y-111569138D01*
X175836451Y-111392038D01*
X175836451Y-111392037D01*
X175836453Y-111392034D01*
X175894749Y-111199857D01*
X175914433Y-111000000D01*
X176405567Y-111000000D01*
X176425250Y-111199855D01*
X176483548Y-111392038D01*
X176578210Y-111569138D01*
X176578215Y-111569144D01*
X176705615Y-111724384D01*
X176860855Y-111851784D01*
X176860861Y-111851789D01*
X177037961Y-111946451D01*
X177037963Y-111946451D01*
X177037966Y-111946453D01*
X177230143Y-112004749D01*
X177430000Y-112024433D01*
X177629857Y-112004749D01*
X177822034Y-111946453D01*
X177822038Y-111946451D01*
X177999138Y-111851789D01*
X177999140Y-111851786D01*
X177999144Y-111851785D01*
X178154384Y-111724384D01*
X178281785Y-111569144D01*
X178281786Y-111569140D01*
X178281789Y-111569138D01*
X178376451Y-111392038D01*
X178376451Y-111392037D01*
X178376453Y-111392034D01*
X178434749Y-111199857D01*
X178454433Y-111000000D01*
X178945567Y-111000000D01*
X178965250Y-111199855D01*
X179023548Y-111392038D01*
X179118210Y-111569138D01*
X179118215Y-111569144D01*
X179245615Y-111724384D01*
X179400855Y-111851784D01*
X179400861Y-111851789D01*
X179577961Y-111946451D01*
X179577963Y-111946451D01*
X179577966Y-111946453D01*
X179770143Y-112004749D01*
X179970000Y-112024433D01*
X180169857Y-112004749D01*
X180362034Y-111946453D01*
X180362038Y-111946451D01*
X180539138Y-111851789D01*
X180539140Y-111851786D01*
X180539144Y-111851785D01*
X180694384Y-111724384D01*
X180821785Y-111569144D01*
X180821786Y-111569140D01*
X180821789Y-111569138D01*
X180916451Y-111392038D01*
X180916451Y-111392037D01*
X180916453Y-111392034D01*
X180974749Y-111199857D01*
X180994433Y-111000000D01*
X181485567Y-111000000D01*
X181505250Y-111199855D01*
X181563548Y-111392038D01*
X181658210Y-111569138D01*
X181658215Y-111569144D01*
X181785615Y-111724384D01*
X181940855Y-111851784D01*
X181940861Y-111851789D01*
X182117961Y-111946451D01*
X182117963Y-111946451D01*
X182117966Y-111946453D01*
X182310143Y-112004749D01*
X182510000Y-112024433D01*
X182709857Y-112004749D01*
X182902034Y-111946453D01*
X182902038Y-111946451D01*
X183079138Y-111851789D01*
X183079140Y-111851786D01*
X183079144Y-111851785D01*
X183234384Y-111724384D01*
X183361785Y-111569144D01*
X183361786Y-111569140D01*
X183361789Y-111569138D01*
X183456451Y-111392038D01*
X183456451Y-111392037D01*
X183456453Y-111392034D01*
X183514749Y-111199857D01*
X183533862Y-111005794D01*
X183535125Y-111002666D01*
X183534217Y-110996586D01*
X183779332Y-110996586D01*
X183780792Y-111007143D01*
X183799459Y-111220499D01*
X183799461Y-111220509D01*
X183856745Y-111434300D01*
X183856749Y-111434309D01*
X183950295Y-111634919D01*
X183996103Y-111700341D01*
X183996105Y-111700342D01*
X184558866Y-111137580D01*
X184581318Y-111214040D01*
X184660605Y-111337413D01*
X184771438Y-111433451D01*
X184904839Y-111494373D01*
X184908633Y-111494918D01*
X184349656Y-112053894D01*
X184415083Y-112099706D01*
X184415085Y-112099707D01*
X184615690Y-112193250D01*
X184615699Y-112193254D01*
X184829490Y-112250538D01*
X184829500Y-112250540D01*
X185049999Y-112269832D01*
X185050001Y-112269832D01*
X185270499Y-112250540D01*
X185270509Y-112250538D01*
X185484300Y-112193254D01*
X185484309Y-112193250D01*
X185684915Y-112099706D01*
X185750342Y-112053894D01*
X185191366Y-111494918D01*
X185195161Y-111494373D01*
X185328562Y-111433451D01*
X185439395Y-111337413D01*
X185518682Y-111214040D01*
X185541133Y-111137580D01*
X186103894Y-111700342D01*
X186149706Y-111634915D01*
X186243250Y-111434309D01*
X186243254Y-111434300D01*
X186300538Y-111220509D01*
X186300540Y-111220499D01*
X186319832Y-111000000D01*
X186319832Y-110999999D01*
X186300540Y-110779500D01*
X186300538Y-110779490D01*
X186243254Y-110565699D01*
X186243250Y-110565690D01*
X186149707Y-110365085D01*
X186149706Y-110365083D01*
X186103894Y-110299657D01*
X186103894Y-110299656D01*
X185541132Y-110862418D01*
X185518682Y-110785960D01*
X185439395Y-110662587D01*
X185328562Y-110566549D01*
X185195161Y-110505627D01*
X185191366Y-110505081D01*
X185750342Y-109946105D01*
X185750341Y-109946103D01*
X185684919Y-109900295D01*
X185484309Y-109806749D01*
X185484300Y-109806745D01*
X185270509Y-109749461D01*
X185270499Y-109749459D01*
X185050001Y-109730168D01*
X185049999Y-109730168D01*
X184829500Y-109749459D01*
X184829490Y-109749461D01*
X184615699Y-109806745D01*
X184615690Y-109806749D01*
X184415084Y-109900293D01*
X184349657Y-109946104D01*
X184908634Y-110505081D01*
X184904839Y-110505627D01*
X184771438Y-110566549D01*
X184660605Y-110662587D01*
X184581318Y-110785960D01*
X184558866Y-110862419D01*
X183996104Y-110299657D01*
X183950293Y-110365084D01*
X183856749Y-110565690D01*
X183856745Y-110565699D01*
X183799461Y-110779490D01*
X183799459Y-110779500D01*
X183780792Y-110992856D01*
X183779332Y-110996586D01*
X183534217Y-110996586D01*
X183533863Y-110994217D01*
X183514749Y-110800143D01*
X183456453Y-110607966D01*
X183456451Y-110607963D01*
X183456451Y-110607961D01*
X183361789Y-110430861D01*
X183361784Y-110430855D01*
X183234384Y-110275615D01*
X183079144Y-110148215D01*
X183079138Y-110148210D01*
X182902038Y-110053548D01*
X182709855Y-109995250D01*
X182510000Y-109975567D01*
X182310144Y-109995250D01*
X182117961Y-110053548D01*
X181940861Y-110148210D01*
X181940855Y-110148215D01*
X181785615Y-110275615D01*
X181658215Y-110430855D01*
X181658210Y-110430861D01*
X181563548Y-110607961D01*
X181505250Y-110800144D01*
X181485567Y-111000000D01*
X180994433Y-111000000D01*
X180974749Y-110800143D01*
X180916453Y-110607966D01*
X180916451Y-110607963D01*
X180916451Y-110607961D01*
X180821789Y-110430861D01*
X180821784Y-110430855D01*
X180694384Y-110275615D01*
X180539144Y-110148215D01*
X180539138Y-110148210D01*
X180362038Y-110053548D01*
X180169855Y-109995250D01*
X179970000Y-109975567D01*
X179770144Y-109995250D01*
X179577961Y-110053548D01*
X179400861Y-110148210D01*
X179400855Y-110148215D01*
X179245615Y-110275615D01*
X179118215Y-110430855D01*
X179118210Y-110430861D01*
X179023548Y-110607961D01*
X178965250Y-110800144D01*
X178945567Y-111000000D01*
X178454433Y-111000000D01*
X178434749Y-110800143D01*
X178376453Y-110607966D01*
X178376451Y-110607963D01*
X178376451Y-110607961D01*
X178281789Y-110430861D01*
X178281784Y-110430855D01*
X178154384Y-110275615D01*
X177999144Y-110148215D01*
X177999138Y-110148210D01*
X177822038Y-110053548D01*
X177629855Y-109995250D01*
X177430000Y-109975567D01*
X177230144Y-109995250D01*
X177037961Y-110053548D01*
X176860861Y-110148210D01*
X176860855Y-110148215D01*
X176705615Y-110275615D01*
X176578215Y-110430855D01*
X176578210Y-110430861D01*
X176483548Y-110607961D01*
X176425250Y-110800144D01*
X176405567Y-111000000D01*
X175914433Y-111000000D01*
X175894749Y-110800143D01*
X175836453Y-110607966D01*
X175836451Y-110607963D01*
X175836451Y-110607961D01*
X175741789Y-110430861D01*
X175741784Y-110430855D01*
X175614384Y-110275615D01*
X175459144Y-110148215D01*
X175459138Y-110148210D01*
X175282038Y-110053548D01*
X175089855Y-109995250D01*
X174890000Y-109975567D01*
X174690144Y-109995250D01*
X174497961Y-110053548D01*
X174320861Y-110148210D01*
X174320855Y-110148215D01*
X174165615Y-110275615D01*
X174038215Y-110430855D01*
X174038210Y-110430861D01*
X173943548Y-110607961D01*
X173885250Y-110800144D01*
X173865567Y-111000000D01*
X173374433Y-111000000D01*
X173354749Y-110800143D01*
X173296453Y-110607966D01*
X173296451Y-110607963D01*
X173296451Y-110607961D01*
X173201789Y-110430861D01*
X173201784Y-110430855D01*
X173074384Y-110275615D01*
X172919144Y-110148215D01*
X172919138Y-110148210D01*
X172742038Y-110053548D01*
X172549855Y-109995250D01*
X172350000Y-109975567D01*
X172150144Y-109995250D01*
X171957961Y-110053548D01*
X171780861Y-110148210D01*
X171780855Y-110148215D01*
X171625615Y-110275615D01*
X171498215Y-110430855D01*
X171498210Y-110430861D01*
X171403548Y-110607961D01*
X171345250Y-110800144D01*
X171326138Y-110994202D01*
X171324873Y-110997332D01*
X171079826Y-110997332D01*
X171079207Y-110992856D01*
X171060540Y-110779500D01*
X171060538Y-110779490D01*
X171003254Y-110565699D01*
X171003250Y-110565690D01*
X170909707Y-110365085D01*
X170909706Y-110365083D01*
X170863894Y-110299657D01*
X170863894Y-110299656D01*
X170301132Y-110862418D01*
X170278682Y-110785960D01*
X170199395Y-110662587D01*
X170088562Y-110566549D01*
X169955161Y-110505627D01*
X169951366Y-110505081D01*
X170510342Y-109946105D01*
X170510341Y-109946103D01*
X170444919Y-109900295D01*
X170244309Y-109806749D01*
X170244300Y-109806745D01*
X170030509Y-109749461D01*
X170030499Y-109749459D01*
X169810001Y-109730168D01*
X169809999Y-109730168D01*
X169589500Y-109749459D01*
X169589490Y-109749461D01*
X169375699Y-109806745D01*
X169375690Y-109806749D01*
X169175084Y-109900293D01*
X169109657Y-109946104D01*
X169668634Y-110505081D01*
X169664839Y-110505627D01*
X169531438Y-110566549D01*
X169420605Y-110662587D01*
X169341318Y-110785960D01*
X169318866Y-110862419D01*
X168756104Y-110299657D01*
X168710293Y-110365084D01*
X168616749Y-110565690D01*
X168616745Y-110565699D01*
X168559461Y-110779490D01*
X168559459Y-110779500D01*
X168540792Y-110992856D01*
X168539332Y-110996586D01*
X168294217Y-110996586D01*
X168293863Y-110994217D01*
X168274749Y-110800143D01*
X168216453Y-110607966D01*
X168216451Y-110607963D01*
X168216451Y-110607961D01*
X168121789Y-110430861D01*
X168121784Y-110430855D01*
X167994384Y-110275615D01*
X167839144Y-110148215D01*
X167839138Y-110148210D01*
X167662038Y-110053548D01*
X167469855Y-109995250D01*
X167270000Y-109975567D01*
X167070144Y-109995250D01*
X166877961Y-110053548D01*
X166700861Y-110148210D01*
X166700855Y-110148215D01*
X166545615Y-110275615D01*
X166418215Y-110430855D01*
X166418210Y-110430861D01*
X166323548Y-110607961D01*
X166265250Y-110800144D01*
X166245567Y-111000000D01*
X165754433Y-111000000D01*
X165734749Y-110800143D01*
X165676453Y-110607966D01*
X165676451Y-110607963D01*
X165676451Y-110607961D01*
X165581789Y-110430861D01*
X165581784Y-110430855D01*
X165454384Y-110275615D01*
X165299144Y-110148215D01*
X165299138Y-110148210D01*
X165122038Y-110053548D01*
X164929855Y-109995250D01*
X164730000Y-109975567D01*
X164530144Y-109995250D01*
X164337961Y-110053548D01*
X164160861Y-110148210D01*
X164160855Y-110148215D01*
X164005615Y-110275615D01*
X163878215Y-110430855D01*
X163878210Y-110430861D01*
X163783548Y-110607961D01*
X163725250Y-110800144D01*
X163705567Y-111000000D01*
X163214433Y-111000000D01*
X163194749Y-110800143D01*
X163136453Y-110607966D01*
X163136451Y-110607963D01*
X163136451Y-110607961D01*
X163041789Y-110430861D01*
X163041784Y-110430855D01*
X162914384Y-110275615D01*
X162759144Y-110148215D01*
X162759138Y-110148210D01*
X162582038Y-110053548D01*
X162389855Y-109995250D01*
X162190000Y-109975567D01*
X161990144Y-109995250D01*
X161797961Y-110053548D01*
X161620861Y-110148210D01*
X161620855Y-110148215D01*
X161465615Y-110275615D01*
X161338215Y-110430855D01*
X161338210Y-110430861D01*
X161243548Y-110607961D01*
X161185250Y-110800144D01*
X161165567Y-111000000D01*
X160674433Y-111000000D01*
X160654749Y-110800143D01*
X160596453Y-110607966D01*
X160596451Y-110607963D01*
X160596451Y-110607961D01*
X160501789Y-110430861D01*
X160501784Y-110430855D01*
X160374384Y-110275615D01*
X160219144Y-110148215D01*
X160219138Y-110148210D01*
X160042038Y-110053548D01*
X159849855Y-109995250D01*
X159650000Y-109975567D01*
X159450144Y-109995250D01*
X159257961Y-110053548D01*
X159080861Y-110148210D01*
X159080855Y-110148215D01*
X158925615Y-110275615D01*
X158798215Y-110430855D01*
X158798210Y-110430861D01*
X158703548Y-110607961D01*
X158645250Y-110800144D01*
X158625567Y-111000000D01*
X158134433Y-111000000D01*
X158114749Y-110800143D01*
X158056453Y-110607966D01*
X158056451Y-110607963D01*
X158056451Y-110607961D01*
X157961789Y-110430861D01*
X157961784Y-110430855D01*
X157834384Y-110275615D01*
X157679144Y-110148215D01*
X157679138Y-110148210D01*
X157502038Y-110053548D01*
X157309855Y-109995250D01*
X157110000Y-109975567D01*
X156910144Y-109995250D01*
X156717961Y-110053548D01*
X156540861Y-110148210D01*
X156540855Y-110148215D01*
X156385615Y-110275615D01*
X156258215Y-110430855D01*
X156258210Y-110430861D01*
X156163548Y-110607961D01*
X156105250Y-110800144D01*
X156085567Y-111000000D01*
X155594433Y-111000000D01*
X155574749Y-110800143D01*
X155542129Y-110692612D01*
X155541507Y-110622748D01*
X155573108Y-110568940D01*
X161101231Y-105040819D01*
X161162554Y-105007334D01*
X161188912Y-105004500D01*
X186364063Y-105004500D01*
X186364066Y-105004500D01*
X186385439Y-104997555D01*
X186404356Y-104993013D01*
X186426555Y-104989498D01*
X186446578Y-104979294D01*
X186464548Y-104971851D01*
X186485929Y-104964905D01*
X186504116Y-104951689D01*
X186520694Y-104941530D01*
X186540723Y-104931326D01*
X186556440Y-104915608D01*
X186556447Y-104915603D01*
X189608535Y-101863514D01*
X189631326Y-101840723D01*
X189641526Y-101820702D01*
X189651695Y-101804109D01*
X189664905Y-101785929D01*
X189671848Y-101764558D01*
X189679299Y-101746571D01*
X189689497Y-101726556D01*
X189689498Y-101726555D01*
X189693013Y-101704356D01*
X189697556Y-101685437D01*
X189704500Y-101664066D01*
X189704500Y-101535934D01*
X189704500Y-83368166D01*
X189704500Y-83335934D01*
X189697554Y-83314557D01*
X189693014Y-83295644D01*
X189689498Y-83273445D01*
X189679296Y-83253423D01*
X189671848Y-83235442D01*
X189664905Y-83214071D01*
X189651693Y-83195888D01*
X189641524Y-83179293D01*
X189631327Y-83159279D01*
X189631326Y-83159277D01*
X189610690Y-83138641D01*
X189610670Y-83138619D01*
X186940819Y-80468768D01*
X186907334Y-80407445D01*
X186904500Y-80381087D01*
X186904500Y-77928499D01*
X186924185Y-77861460D01*
X186976989Y-77815705D01*
X187028500Y-77804499D01*
X187273251Y-77804499D01*
X187273254Y-77804499D01*
X187333342Y-77798040D01*
X187469267Y-77747342D01*
X187585404Y-77660404D01*
X187672342Y-77544267D01*
X187723040Y-77408342D01*
X187725800Y-77382664D01*
X187729499Y-77348271D01*
X187729499Y-77348264D01*
X187729500Y-77348255D01*
X187729499Y-76051746D01*
X187723040Y-75991658D01*
X187701395Y-75933626D01*
X187672344Y-75855738D01*
X187672343Y-75855737D01*
X187672342Y-75855733D01*
X187628707Y-75797443D01*
X187585404Y-75739595D01*
X187508126Y-75681747D01*
X187469267Y-75652658D01*
X187333342Y-75601960D01*
X187333338Y-75601959D01*
X187326074Y-75599250D01*
X187326673Y-75597643D01*
X187274181Y-75567745D01*
X187241803Y-75505831D01*
X187248038Y-75436240D01*
X187290907Y-75381067D01*
X187301437Y-75374258D01*
X187302584Y-75373595D01*
X187496073Y-75238113D01*
X187496079Y-75238108D01*
X187663105Y-75071082D01*
X187798600Y-74877578D01*
X187898429Y-74663492D01*
X187898432Y-74663486D01*
X187955636Y-74450000D01*
X186903969Y-74450000D01*
X186936519Y-74399351D01*
X186975000Y-74268295D01*
X186975000Y-74131705D01*
X186936519Y-74000649D01*
X186903969Y-73950000D01*
X187955636Y-73950000D01*
X187955635Y-73949999D01*
X187898432Y-73736513D01*
X187898429Y-73736507D01*
X187798600Y-73522422D01*
X187798599Y-73522420D01*
X187663113Y-73328926D01*
X187663108Y-73328920D01*
X187496079Y-73161891D01*
X187496073Y-73161886D01*
X187302579Y-73026400D01*
X187302577Y-73026399D01*
X187090523Y-72927516D01*
X187038084Y-72881343D01*
X187018932Y-72814150D01*
X187039148Y-72747269D01*
X187086105Y-72704920D01*
X187224854Y-72633391D01*
X187390659Y-72503000D01*
X187528792Y-72343587D01*
X187634259Y-72160913D01*
X187703248Y-71961580D01*
X187733267Y-71752793D01*
X187723231Y-71542098D01*
X187673501Y-71337110D01*
X187607536Y-71192666D01*
X187585876Y-71145237D01*
X187585872Y-71145231D01*
X187463526Y-70973420D01*
X187463520Y-70973414D01*
X187310864Y-70827857D01*
X187310862Y-70827855D01*
X187133413Y-70713816D01*
X186937589Y-70635420D01*
X186730467Y-70595500D01*
X186322387Y-70595500D01*
X186322382Y-70595500D01*
X186165031Y-70610525D01*
X186165014Y-70610528D01*
X185962635Y-70669951D01*
X185775141Y-70766611D01*
X185609343Y-70896997D01*
X185609339Y-70897001D01*
X185471205Y-71056415D01*
X185426701Y-71133500D01*
X185376134Y-71181716D01*
X185319314Y-71195500D01*
X143467572Y-71195500D01*
X143441215Y-71192666D01*
X143436363Y-71191610D01*
X143436356Y-71191610D01*
X143394665Y-71194592D01*
X143384181Y-71195342D01*
X143379759Y-71195500D01*
X143363912Y-71195500D01*
X143348230Y-71197754D01*
X143343834Y-71198227D01*
X143291655Y-71201960D01*
X143291652Y-71201961D01*
X143286994Y-71203698D01*
X143261328Y-71210249D01*
X143256404Y-71210957D01*
X143208825Y-71232685D01*
X143204743Y-71234376D01*
X143183399Y-71242337D01*
X143155732Y-71252657D01*
X143155728Y-71252659D01*
X143151744Y-71255642D01*
X143128963Y-71269158D01*
X143124443Y-71271222D01*
X143124441Y-71271223D01*
X143084907Y-71305478D01*
X143081463Y-71308253D01*
X143068784Y-71317744D01*
X143057562Y-71328964D01*
X143054328Y-71331975D01*
X143014802Y-71366226D01*
X143014801Y-71366227D01*
X143012115Y-71370407D01*
X142995485Y-71391042D01*
X139877346Y-74509181D01*
X139816023Y-74542666D01*
X139789665Y-74545500D01*
X138274936Y-74545500D01*
X138200698Y-74560266D01*
X138116515Y-74616515D01*
X138060266Y-74700699D01*
X138060264Y-74700703D01*
X138045500Y-74774928D01*
X138045500Y-76289666D01*
X138025815Y-76356705D01*
X138009181Y-76377347D01*
X131991042Y-82395485D01*
X131970407Y-82412115D01*
X131966227Y-82414801D01*
X131966226Y-82414802D01*
X131931975Y-82454328D01*
X131928964Y-82457562D01*
X131917744Y-82468784D01*
X131908253Y-82481463D01*
X131905478Y-82484907D01*
X131871223Y-82524441D01*
X131871222Y-82524443D01*
X131869158Y-82528963D01*
X131855642Y-82551744D01*
X131852659Y-82555728D01*
X131852657Y-82555732D01*
X131834379Y-82604737D01*
X131832685Y-82608825D01*
X131810957Y-82656404D01*
X131810249Y-82661328D01*
X131803698Y-82686994D01*
X131801961Y-82691650D01*
X131801960Y-82691658D01*
X131798227Y-82743826D01*
X131797755Y-82748220D01*
X131795500Y-82763912D01*
X131795500Y-82779769D01*
X131795342Y-82784193D01*
X131791610Y-82836356D01*
X131791611Y-82836360D01*
X131792666Y-82841210D01*
X131795500Y-82867568D01*
X131795500Y-103639666D01*
X131775815Y-103706705D01*
X131759181Y-103727347D01*
X127527346Y-107959181D01*
X127466023Y-107992666D01*
X127439665Y-107995500D01*
X124024936Y-107995500D01*
X123950698Y-108010266D01*
X123866515Y-108066515D01*
X123810266Y-108150699D01*
X123810264Y-108150703D01*
X123795500Y-108224928D01*
X123795500Y-109371500D01*
X123775815Y-109438539D01*
X123723011Y-109484294D01*
X123671500Y-109495500D01*
X117567567Y-109495500D01*
X117541210Y-109492666D01*
X117538902Y-109492164D01*
X117536361Y-109491611D01*
X117536355Y-109491611D01*
X117491413Y-109494825D01*
X117484191Y-109495342D01*
X117479769Y-109495500D01*
X117463912Y-109495500D01*
X117448220Y-109497755D01*
X117443826Y-109498227D01*
X117391653Y-109501960D01*
X117387000Y-109503696D01*
X117361321Y-109510250D01*
X117356410Y-109510956D01*
X117356398Y-109510959D01*
X117308809Y-109532693D01*
X117304720Y-109534386D01*
X117255731Y-109552657D01*
X117255729Y-109552659D01*
X117251747Y-109555640D01*
X117228970Y-109569154D01*
X117224446Y-109571220D01*
X117224441Y-109571223D01*
X117184906Y-109605478D01*
X117181467Y-109608250D01*
X117168780Y-109617748D01*
X117157562Y-109628964D01*
X117154328Y-109631975D01*
X117114802Y-109666226D01*
X117114801Y-109666227D01*
X117112115Y-109670407D01*
X117095485Y-109691042D01*
X105012220Y-121774307D01*
X104950897Y-121807792D01*
X104892446Y-121806401D01*
X104718678Y-121759840D01*
X104718676Y-121759839D01*
X104718674Y-121759839D01*
X104718672Y-121759838D01*
X104718668Y-121759838D01*
X104500002Y-121740708D01*
X104499998Y-121740708D01*
X104281331Y-121759838D01*
X104281324Y-121759839D01*
X104158902Y-121792642D01*
X104069297Y-121816653D01*
X104069295Y-121816653D01*
X104069291Y-121816655D01*
X103870357Y-121909419D01*
X103870349Y-121909423D01*
X103690547Y-122035322D01*
X103690541Y-122035327D01*
X103535327Y-122190541D01*
X103535322Y-122190547D01*
X103409423Y-122370349D01*
X103409419Y-122370357D01*
X103316655Y-122569291D01*
X103259839Y-122781324D01*
X103259838Y-122781331D01*
X103240708Y-122999997D01*
X103240708Y-123000002D01*
X100000000Y-123000002D01*
X100000000Y-105000005D01*
X102994859Y-105000005D01*
X103015385Y-105247729D01*
X103015387Y-105247738D01*
X103076412Y-105488717D01*
X103176266Y-105716364D01*
X103276564Y-105869882D01*
X104016923Y-105129523D01*
X104040507Y-105209844D01*
X104118239Y-105330798D01*
X104226900Y-105424952D01*
X104357685Y-105484680D01*
X104367466Y-105486086D01*
X103629942Y-106223609D01*
X103676768Y-106260055D01*
X103676770Y-106260056D01*
X103895385Y-106378364D01*
X103895396Y-106378369D01*
X104130506Y-106459083D01*
X104375707Y-106500000D01*
X104624293Y-106500000D01*
X104869493Y-106459083D01*
X105104603Y-106378369D01*
X105104614Y-106378364D01*
X105323228Y-106260057D01*
X105323231Y-106260055D01*
X105370056Y-106223609D01*
X104632533Y-105486086D01*
X104642315Y-105484680D01*
X104773100Y-105424952D01*
X104881761Y-105330798D01*
X104959493Y-105209844D01*
X104983076Y-105129524D01*
X105723434Y-105869882D01*
X105823731Y-105716369D01*
X105923587Y-105488717D01*
X105984612Y-105247738D01*
X105984614Y-105247729D01*
X106005141Y-105000005D01*
X106005141Y-104999994D01*
X105984614Y-104752270D01*
X105984612Y-104752261D01*
X105923587Y-104511282D01*
X105823731Y-104283630D01*
X105723434Y-104130116D01*
X104983076Y-104870475D01*
X104959493Y-104790156D01*
X104881761Y-104669202D01*
X104773100Y-104575048D01*
X104642315Y-104515320D01*
X104632534Y-104513913D01*
X105370057Y-103776390D01*
X105370056Y-103776389D01*
X105323229Y-103739943D01*
X105104614Y-103621635D01*
X105104603Y-103621630D01*
X104869493Y-103540916D01*
X104624293Y-103500000D01*
X104375707Y-103500000D01*
X104130506Y-103540916D01*
X103895396Y-103621630D01*
X103895390Y-103621632D01*
X103676761Y-103739949D01*
X103629942Y-103776388D01*
X103629942Y-103776390D01*
X104367466Y-104513913D01*
X104357685Y-104515320D01*
X104226900Y-104575048D01*
X104118239Y-104669202D01*
X104040507Y-104790156D01*
X104016923Y-104870475D01*
X103276564Y-104130116D01*
X103176267Y-104283632D01*
X103076412Y-104511282D01*
X103015387Y-104752261D01*
X103015385Y-104752270D01*
X102994859Y-104999994D01*
X102994859Y-105000005D01*
X100000000Y-105000005D01*
X100000000Y-101874000D01*
X100019685Y-101806961D01*
X100072489Y-101761206D01*
X100124000Y-101750000D01*
X122000000Y-101750000D01*
X122000000Y-61870774D01*
X122019685Y-61803735D01*
X122072489Y-61757980D01*
X122124000Y-61746774D01*
X132183240Y-61746774D01*
X132183383Y-61746802D01*
X132183384Y-61746798D01*
X132207997Y-61746813D01*
X132208000Y-61746815D01*
X132208383Y-61746657D01*
X132208500Y-61746373D01*
X132208541Y-61746274D01*
X132208540Y-61746271D01*
X132208583Y-61722163D01*
X132208500Y-61721741D01*
X132208500Y-58989748D01*
X132228185Y-58922709D01*
X132280989Y-58876954D01*
X132350147Y-58867010D01*
X132413703Y-58896035D01*
X132444595Y-58936732D01*
X132455060Y-58958860D01*
X132657109Y-59295958D01*
X132891228Y-59611632D01*
X132987068Y-59717376D01*
X132987069Y-59717376D01*
X133936658Y-58767786D01*
X133895350Y-58829610D01*
X133875947Y-58927155D01*
X133895350Y-59024700D01*
X133950605Y-59107395D01*
X134033300Y-59162650D01*
X134106221Y-59177155D01*
X134155469Y-59177155D01*
X134228390Y-59162650D01*
X134290205Y-59121346D01*
X133340622Y-60070929D01*
X133340622Y-60070930D01*
X133446367Y-60166771D01*
X133762041Y-60400890D01*
X134099135Y-60602937D01*
X134454424Y-60770976D01*
X134454440Y-60770983D01*
X134824450Y-60903374D01*
X135205691Y-60998870D01*
X135594449Y-61056538D01*
X135987000Y-61075823D01*
X136379550Y-61056538D01*
X136768308Y-60998870D01*
X137149549Y-60903374D01*
X137519559Y-60770983D01*
X137519575Y-60770976D01*
X137874864Y-60602937D01*
X138211958Y-60400890D01*
X138527632Y-60166770D01*
X138633376Y-60070929D01*
X137683790Y-59121343D01*
X137745610Y-59162650D01*
X137818531Y-59177155D01*
X137867779Y-59177155D01*
X137940700Y-59162650D01*
X138023395Y-59107395D01*
X138078650Y-59024700D01*
X138098053Y-58927155D01*
X138078650Y-58829610D01*
X138037343Y-58767790D01*
X138986929Y-59717376D01*
X139082770Y-59611632D01*
X139316890Y-59295958D01*
X139372837Y-59202617D01*
X152395500Y-59202617D01*
X152410525Y-59359968D01*
X152410528Y-59359985D01*
X152469951Y-59562364D01*
X152566611Y-59749858D01*
X152696997Y-59915656D01*
X152697001Y-59915660D01*
X152856415Y-60053794D01*
X152973501Y-60121393D01*
X153033500Y-60156033D01*
X153081715Y-60206599D01*
X153095500Y-60263420D01*
X153095500Y-64854065D01*
X153102444Y-64875441D01*
X153106983Y-64894348D01*
X153110501Y-64916554D01*
X153120703Y-64936576D01*
X153128149Y-64954553D01*
X153135093Y-64975925D01*
X153135094Y-64975928D01*
X153148306Y-64994112D01*
X153158471Y-65010700D01*
X153168672Y-65030720D01*
X153168675Y-65030724D01*
X153189902Y-65051951D01*
X153189929Y-65051980D01*
X155468827Y-67330877D01*
X155502312Y-67392200D01*
X155499807Y-67454553D01*
X155460757Y-67583283D01*
X155440398Y-67790000D01*
X155460757Y-67996716D01*
X155521056Y-68195496D01*
X155618969Y-68378677D01*
X155618974Y-68378684D01*
X155750747Y-68539252D01*
X155784866Y-68567252D01*
X155911317Y-68671027D01*
X155911320Y-68671028D01*
X155911322Y-68671030D01*
X156094503Y-68768943D01*
X156094505Y-68768943D01*
X156094508Y-68768945D01*
X156293282Y-68829242D01*
X156500000Y-68849602D01*
X156706718Y-68829242D01*
X156905492Y-68768945D01*
X157088683Y-68671027D01*
X157249252Y-68539252D01*
X157381027Y-68378683D01*
X157439777Y-68268768D01*
X157478943Y-68195496D01*
X157478943Y-68195495D01*
X157478945Y-68195492D01*
X157539242Y-67996718D01*
X157556844Y-67818000D01*
X161500398Y-67818000D01*
X161520757Y-68024716D01*
X161581056Y-68223496D01*
X161678969Y-68406677D01*
X161678974Y-68406684D01*
X161810747Y-68567252D01*
X161922483Y-68658950D01*
X161971317Y-68699027D01*
X161971320Y-68699028D01*
X161971322Y-68699030D01*
X162154503Y-68796943D01*
X162154505Y-68796943D01*
X162154508Y-68796945D01*
X162353282Y-68857242D01*
X162560000Y-68877602D01*
X162766718Y-68857242D01*
X162965492Y-68796945D01*
X162968196Y-68795500D01*
X163148677Y-68699030D01*
X163148675Y-68699030D01*
X163148683Y-68699027D01*
X163309252Y-68567252D01*
X163441027Y-68406683D01*
X163538945Y-68223492D01*
X163599242Y-68024718D01*
X163619602Y-67818000D01*
X163599242Y-67611282D01*
X163538945Y-67412508D01*
X163538943Y-67412505D01*
X163538943Y-67412503D01*
X163441030Y-67229322D01*
X163441028Y-67229320D01*
X163441027Y-67229317D01*
X163400950Y-67180483D01*
X163309252Y-67068747D01*
X163148684Y-66936974D01*
X163148681Y-66936971D01*
X163030046Y-66873559D01*
X162980202Y-66824596D01*
X162964500Y-66764201D01*
X162964500Y-64158911D01*
X162984185Y-64091872D01*
X163000819Y-64071230D01*
X163652775Y-63419274D01*
X164308534Y-62763515D01*
X164331326Y-62740723D01*
X164341535Y-62720686D01*
X164351690Y-62704115D01*
X164364904Y-62685929D01*
X164371848Y-62664553D01*
X164379294Y-62646579D01*
X164389498Y-62626555D01*
X164393014Y-62604350D01*
X164397557Y-62585429D01*
X164404499Y-62564066D01*
X164404499Y-62534391D01*
X164404500Y-62534366D01*
X164404500Y-60234187D01*
X164424185Y-60167148D01*
X164476987Y-60121394D01*
X164554762Y-60085876D01*
X164691471Y-59988526D01*
X164726579Y-59963526D01*
X164726580Y-59963524D01*
X164726584Y-59963522D01*
X164872145Y-59810862D01*
X164986184Y-59633413D01*
X165000452Y-59597772D01*
X165043641Y-59542852D01*
X165109667Y-59520000D01*
X165177568Y-59536471D01*
X165225784Y-59587038D01*
X165227951Y-59591454D01*
X165326399Y-59802577D01*
X165326400Y-59802579D01*
X165461886Y-59996073D01*
X165461891Y-59996079D01*
X165628917Y-60163105D01*
X165822421Y-60298600D01*
X166036507Y-60398429D01*
X166036516Y-60398433D01*
X166250000Y-60455634D01*
X166250000Y-59408018D01*
X166364801Y-59460446D01*
X166466025Y-59475000D01*
X166533975Y-59475000D01*
X166635199Y-59460446D01*
X166750000Y-59408018D01*
X166750000Y-60455633D01*
X166963483Y-60398433D01*
X166963492Y-60398429D01*
X167177577Y-60298600D01*
X167177579Y-60298599D01*
X167371073Y-60163113D01*
X167371079Y-60163108D01*
X167538108Y-59996079D01*
X167538113Y-59996073D01*
X167673599Y-59802579D01*
X167673600Y-59802577D01*
X167772483Y-59590523D01*
X167818655Y-59538084D01*
X167885849Y-59518932D01*
X167952730Y-59539148D01*
X167995079Y-59586106D01*
X168051734Y-59696000D01*
X168066611Y-59724858D01*
X168196997Y-59890656D01*
X168197001Y-59890660D01*
X168356415Y-60028794D01*
X168455278Y-60085872D01*
X168533500Y-60131033D01*
X168581715Y-60181599D01*
X168595500Y-60238420D01*
X168595500Y-61281088D01*
X168575815Y-61348127D01*
X168559182Y-61368768D01*
X167331465Y-62596485D01*
X167331462Y-62596488D01*
X167320067Y-62607883D01*
X167308671Y-62619279D01*
X167298473Y-62639295D01*
X167288310Y-62655880D01*
X167275097Y-62674066D01*
X167275094Y-62674071D01*
X167268149Y-62695447D01*
X167260705Y-62713418D01*
X167250503Y-62733440D01*
X167250500Y-62733450D01*
X167246984Y-62755646D01*
X167242445Y-62774554D01*
X167235500Y-62795932D01*
X167235500Y-66764201D01*
X167215815Y-66831240D01*
X167169954Y-66873559D01*
X167051318Y-66936971D01*
X167051315Y-66936974D01*
X166890747Y-67068747D01*
X166758974Y-67229315D01*
X166758969Y-67229322D01*
X166661056Y-67412503D01*
X166600757Y-67611283D01*
X166580398Y-67818000D01*
X166600757Y-68024716D01*
X166661056Y-68223496D01*
X166758969Y-68406677D01*
X166758974Y-68406684D01*
X166890747Y-68567252D01*
X167002483Y-68658950D01*
X167051317Y-68699027D01*
X167051320Y-68699028D01*
X167051322Y-68699030D01*
X167234503Y-68796943D01*
X167234505Y-68796943D01*
X167234508Y-68796945D01*
X167433282Y-68857242D01*
X167640000Y-68877602D01*
X167846718Y-68857242D01*
X168045492Y-68796945D01*
X168048196Y-68795500D01*
X168228677Y-68699030D01*
X168228675Y-68699030D01*
X168228683Y-68699027D01*
X168389252Y-68567252D01*
X168521027Y-68406683D01*
X168618945Y-68223492D01*
X168679242Y-68024718D01*
X168699602Y-67818000D01*
X168679242Y-67611282D01*
X168618945Y-67412508D01*
X168618943Y-67412505D01*
X168618943Y-67412503D01*
X168521030Y-67229322D01*
X168521028Y-67229320D01*
X168521027Y-67229317D01*
X168480950Y-67180483D01*
X168389252Y-67068747D01*
X168228684Y-66936974D01*
X168228681Y-66936971D01*
X168110046Y-66873559D01*
X168060202Y-66824596D01*
X168044500Y-66764201D01*
X168044500Y-63078911D01*
X168064185Y-63011872D01*
X168080819Y-62991230D01*
X168692756Y-62379293D01*
X169308534Y-61763515D01*
X169331326Y-61740723D01*
X169341535Y-61720686D01*
X169351693Y-61704112D01*
X169364904Y-61685929D01*
X169371848Y-61664553D01*
X169379294Y-61646579D01*
X169389498Y-61626555D01*
X169393014Y-61604350D01*
X169397557Y-61585429D01*
X169404499Y-61564066D01*
X169404499Y-61534391D01*
X169404500Y-61534366D01*
X169404500Y-60234187D01*
X169424185Y-60167148D01*
X169476987Y-60121394D01*
X169554762Y-60085876D01*
X169691471Y-59988526D01*
X169726579Y-59963526D01*
X169726580Y-59963524D01*
X169726584Y-59963522D01*
X169872145Y-59810862D01*
X169896316Y-59773251D01*
X170395500Y-59773251D01*
X170395501Y-59773257D01*
X170401960Y-59833344D01*
X170452655Y-59969261D01*
X170452656Y-59969264D01*
X170452658Y-59969267D01*
X170472729Y-59996079D01*
X170539595Y-60085404D01*
X170573623Y-60110876D01*
X170655733Y-60172342D01*
X170791658Y-60223040D01*
X170851745Y-60229500D01*
X170971500Y-60229499D01*
X171038539Y-60249183D01*
X171084294Y-60301987D01*
X171095500Y-60353499D01*
X171095500Y-61564065D01*
X171102444Y-61585441D01*
X171106983Y-61604348D01*
X171110501Y-61626554D01*
X171120703Y-61646576D01*
X171128149Y-61664553D01*
X171135093Y-61685925D01*
X171135094Y-61685928D01*
X171148306Y-61704112D01*
X171158471Y-61720700D01*
X171168672Y-61740720D01*
X171168675Y-61740724D01*
X171189902Y-61761951D01*
X171189929Y-61761980D01*
X172159181Y-62731231D01*
X172192666Y-62792554D01*
X172195500Y-62818912D01*
X172195500Y-66736201D01*
X172175815Y-66803240D01*
X172129954Y-66845559D01*
X172011318Y-66908971D01*
X172011315Y-66908974D01*
X171850747Y-67040747D01*
X171718974Y-67201315D01*
X171718969Y-67201322D01*
X171621056Y-67384503D01*
X171560757Y-67583283D01*
X171540398Y-67790000D01*
X171560757Y-67996716D01*
X171621056Y-68195496D01*
X171718969Y-68378677D01*
X171718974Y-68378684D01*
X171850747Y-68539252D01*
X171884866Y-68567252D01*
X172011317Y-68671027D01*
X172011320Y-68671028D01*
X172011322Y-68671030D01*
X172194503Y-68768943D01*
X172194505Y-68768943D01*
X172194508Y-68768945D01*
X172393282Y-68829242D01*
X172600000Y-68849602D01*
X172806718Y-68829242D01*
X173005492Y-68768945D01*
X173188683Y-68671027D01*
X173349252Y-68539252D01*
X173481027Y-68378683D01*
X173539777Y-68268768D01*
X173578943Y-68195496D01*
X173578943Y-68195495D01*
X173578945Y-68195492D01*
X173639242Y-67996718D01*
X173659602Y-67790000D01*
X173639242Y-67583282D01*
X173578945Y-67384508D01*
X173578943Y-67384505D01*
X173578943Y-67384503D01*
X173481030Y-67201322D01*
X173481028Y-67201320D01*
X173481027Y-67201317D01*
X173440950Y-67152483D01*
X173349252Y-67040747D01*
X173188684Y-66908974D01*
X173188681Y-66908971D01*
X173070046Y-66845559D01*
X173020202Y-66796596D01*
X173004500Y-66736201D01*
X173004500Y-62535936D01*
X173004500Y-62535934D01*
X172997554Y-62514557D01*
X172993014Y-62495644D01*
X172989498Y-62473445D01*
X172979296Y-62453423D01*
X172971848Y-62435442D01*
X172964905Y-62414071D01*
X172951693Y-62395888D01*
X172941524Y-62379293D01*
X172931327Y-62359279D01*
X172931326Y-62359277D01*
X172910690Y-62338641D01*
X172910670Y-62338619D01*
X171940819Y-61368768D01*
X171907334Y-61307445D01*
X171904500Y-61281087D01*
X171904500Y-60353499D01*
X171924185Y-60286460D01*
X171976989Y-60240705D01*
X172028500Y-60229499D01*
X172148251Y-60229499D01*
X172148254Y-60229499D01*
X172208342Y-60223040D01*
X172344267Y-60172342D01*
X172460404Y-60085404D01*
X172547342Y-59969267D01*
X172598040Y-59833342D01*
X172602893Y-59788202D01*
X172604499Y-59773271D01*
X172604499Y-59773264D01*
X172604500Y-59773255D01*
X172604499Y-58226746D01*
X172598040Y-58166658D01*
X172547342Y-58030733D01*
X172502780Y-57971205D01*
X172460404Y-57914595D01*
X172356594Y-57836886D01*
X172344267Y-57827658D01*
X172208342Y-57776960D01*
X172208338Y-57776959D01*
X172148262Y-57770500D01*
X170851748Y-57770500D01*
X170851742Y-57770501D01*
X170791655Y-57776960D01*
X170655738Y-57827655D01*
X170655730Y-57827660D01*
X170539595Y-57914595D01*
X170467071Y-58011479D01*
X170452658Y-58030733D01*
X170401960Y-58166658D01*
X170401959Y-58166662D01*
X170395500Y-58226728D01*
X170395500Y-59773251D01*
X169896316Y-59773251D01*
X169986184Y-59633413D01*
X170064580Y-59437589D01*
X170104500Y-59230467D01*
X170104500Y-58822387D01*
X170102964Y-58806306D01*
X170089474Y-58665031D01*
X170089473Y-58665030D01*
X170089473Y-58665021D01*
X170071426Y-58603559D01*
X170030048Y-58462635D01*
X170030047Y-58462634D01*
X170030047Y-58462632D01*
X169933391Y-58275146D01*
X169933389Y-58275144D01*
X169933388Y-58275141D01*
X169803002Y-58109343D01*
X169802998Y-58109339D01*
X169643584Y-57971205D01*
X169460914Y-57865741D01*
X169261585Y-57796753D01*
X169261581Y-57796752D01*
X169261580Y-57796752D01*
X169052793Y-57766733D01*
X169052789Y-57766733D01*
X168842100Y-57776768D01*
X168637113Y-57826498D01*
X168637111Y-57826498D01*
X168445237Y-57914123D01*
X168445231Y-57914127D01*
X168273420Y-58036473D01*
X168273414Y-58036479D01*
X168127857Y-58189135D01*
X168127856Y-58189136D01*
X168127855Y-58189138D01*
X168103687Y-58226745D01*
X168013815Y-58366587D01*
X167999547Y-58402228D01*
X167956355Y-58457149D01*
X167890328Y-58480000D01*
X167822428Y-58463526D01*
X167774213Y-58412958D01*
X167772048Y-58408544D01*
X167673602Y-58197426D01*
X167673599Y-58197420D01*
X167538113Y-58003926D01*
X167538108Y-58003920D01*
X167371082Y-57836894D01*
X167177578Y-57701399D01*
X166963492Y-57601570D01*
X166963486Y-57601567D01*
X166750000Y-57544364D01*
X166750000Y-58591981D01*
X166635199Y-58539554D01*
X166533975Y-58525000D01*
X166466025Y-58525000D01*
X166364801Y-58539554D01*
X166250000Y-58591981D01*
X166250000Y-57544364D01*
X166249999Y-57544364D01*
X166036513Y-57601567D01*
X166036507Y-57601570D01*
X165822422Y-57701399D01*
X165822420Y-57701400D01*
X165628926Y-57836886D01*
X165628920Y-57836891D01*
X165461891Y-58003920D01*
X165461886Y-58003926D01*
X165326400Y-58197420D01*
X165326399Y-58197422D01*
X165227516Y-58409476D01*
X165181343Y-58461915D01*
X165114150Y-58481067D01*
X165047269Y-58460851D01*
X165004920Y-58413894D01*
X164933391Y-58275146D01*
X164933389Y-58275144D01*
X164933388Y-58275141D01*
X164803002Y-58109343D01*
X164802998Y-58109339D01*
X164643584Y-57971205D01*
X164460914Y-57865741D01*
X164261585Y-57796753D01*
X164261581Y-57796752D01*
X164261580Y-57796752D01*
X164052793Y-57766733D01*
X164052789Y-57766733D01*
X163842100Y-57776768D01*
X163637113Y-57826498D01*
X163637111Y-57826498D01*
X163445237Y-57914123D01*
X163445231Y-57914127D01*
X163273420Y-58036473D01*
X163273414Y-58036479D01*
X163127857Y-58189135D01*
X163127856Y-58189136D01*
X163127855Y-58189138D01*
X163103687Y-58226745D01*
X163013816Y-58366586D01*
X162935420Y-58562411D01*
X162895500Y-58769533D01*
X162895500Y-59177617D01*
X162910525Y-59334968D01*
X162910528Y-59334985D01*
X162969951Y-59537364D01*
X163066611Y-59724858D01*
X163196997Y-59890656D01*
X163197001Y-59890660D01*
X163356415Y-60028794D01*
X163455278Y-60085872D01*
X163533500Y-60131033D01*
X163581715Y-60181599D01*
X163595500Y-60238420D01*
X163595500Y-62281087D01*
X163575815Y-62348126D01*
X163559181Y-62368768D01*
X162243384Y-63684564D01*
X162228592Y-63697199D01*
X162210408Y-63710410D01*
X162179924Y-63752366D01*
X162179922Y-63752371D01*
X162135095Y-63814070D01*
X162095500Y-63935930D01*
X162095500Y-64064069D01*
X162135095Y-64185929D01*
X162139528Y-64194630D01*
X162136991Y-64195922D01*
X162155297Y-64247217D01*
X162155500Y-64254305D01*
X162155500Y-66764201D01*
X162135815Y-66831240D01*
X162089954Y-66873559D01*
X161971318Y-66936971D01*
X161971315Y-66936974D01*
X161810747Y-67068747D01*
X161678974Y-67229315D01*
X161678969Y-67229322D01*
X161581056Y-67412503D01*
X161520757Y-67611283D01*
X161500398Y-67818000D01*
X157556844Y-67818000D01*
X157559602Y-67790000D01*
X157539242Y-67583282D01*
X157478945Y-67384508D01*
X157478943Y-67384505D01*
X157478943Y-67384503D01*
X157381030Y-67201322D01*
X157381028Y-67201320D01*
X157381027Y-67201317D01*
X157340950Y-67152483D01*
X157249252Y-67040747D01*
X157088684Y-66908974D01*
X157088677Y-66908969D01*
X156905496Y-66811056D01*
X156706716Y-66750757D01*
X156500000Y-66730398D01*
X156293283Y-66750757D01*
X156164553Y-66789807D01*
X156094686Y-66790430D01*
X156040877Y-66758827D01*
X153940819Y-64658769D01*
X153907334Y-64597446D01*
X153904500Y-64571088D01*
X153904500Y-60259187D01*
X153924185Y-60192148D01*
X153976987Y-60146394D01*
X154054762Y-60110876D01*
X154215972Y-59996079D01*
X154226579Y-59988526D01*
X154226580Y-59988524D01*
X154226584Y-59988522D01*
X154372145Y-59835862D01*
X154423407Y-59756096D01*
X154476209Y-59710343D01*
X154545367Y-59700399D01*
X154608923Y-59729424D01*
X154646698Y-59788202D01*
X154651079Y-59810535D01*
X154660494Y-59902697D01*
X154715641Y-60069119D01*
X154715643Y-60069124D01*
X154807684Y-60218345D01*
X154931654Y-60342315D01*
X155080875Y-60434356D01*
X155080880Y-60434358D01*
X155247302Y-60489505D01*
X155247309Y-60489506D01*
X155350019Y-60499999D01*
X155749999Y-60499999D01*
X155750000Y-60499998D01*
X155750000Y-59435501D01*
X155857685Y-59484680D01*
X155964237Y-59500000D01*
X156035763Y-59500000D01*
X156142315Y-59484680D01*
X156250000Y-59435501D01*
X156250000Y-60499999D01*
X156649972Y-60499999D01*
X156649986Y-60499998D01*
X156752697Y-60489505D01*
X156919119Y-60434358D01*
X156919124Y-60434356D01*
X157068345Y-60342315D01*
X157192315Y-60218345D01*
X157284356Y-60069124D01*
X157284358Y-60069119D01*
X157339505Y-59902697D01*
X157339506Y-59902690D01*
X157349999Y-59799986D01*
X157350000Y-59799973D01*
X157350000Y-59250000D01*
X156433686Y-59250000D01*
X156459493Y-59209844D01*
X156500000Y-59071889D01*
X156500000Y-58928111D01*
X156459493Y-58790156D01*
X156433686Y-58750000D01*
X157349999Y-58750000D01*
X157349999Y-58200028D01*
X157349998Y-58200013D01*
X157339505Y-58097302D01*
X157284358Y-57930880D01*
X157284356Y-57930875D01*
X157192315Y-57781654D01*
X157068345Y-57657684D01*
X156919124Y-57565643D01*
X156919119Y-57565641D01*
X156752697Y-57510494D01*
X156752690Y-57510493D01*
X156649986Y-57500000D01*
X156250000Y-57500000D01*
X156250000Y-58564498D01*
X156142315Y-58515320D01*
X156035763Y-58500000D01*
X155964237Y-58500000D01*
X155857685Y-58515320D01*
X155750000Y-58564498D01*
X155750000Y-57500000D01*
X155350028Y-57500000D01*
X155350012Y-57500001D01*
X155247302Y-57510494D01*
X155080880Y-57565641D01*
X155080875Y-57565643D01*
X154931654Y-57657684D01*
X154807684Y-57781654D01*
X154715643Y-57930875D01*
X154715641Y-57930880D01*
X154660494Y-58097302D01*
X154660493Y-58097309D01*
X154651744Y-58182949D01*
X154625348Y-58247641D01*
X154568167Y-58287792D01*
X154498356Y-58290655D01*
X154438079Y-58255321D01*
X154430916Y-58246998D01*
X154303002Y-58084343D01*
X154302998Y-58084339D01*
X154143584Y-57946205D01*
X153960914Y-57840741D01*
X153761585Y-57771753D01*
X153761581Y-57771752D01*
X153761580Y-57771752D01*
X153552793Y-57741733D01*
X153552789Y-57741733D01*
X153342100Y-57751768D01*
X153137113Y-57801498D01*
X153137111Y-57801498D01*
X152945237Y-57889123D01*
X152945231Y-57889127D01*
X152773420Y-58011473D01*
X152773414Y-58011479D01*
X152627857Y-58164135D01*
X152627856Y-58164136D01*
X152627855Y-58164138D01*
X152611789Y-58189137D01*
X152513816Y-58341586D01*
X152435420Y-58537411D01*
X152395500Y-58744533D01*
X152395500Y-59202617D01*
X139372837Y-59202617D01*
X139518937Y-58958864D01*
X139686976Y-58603575D01*
X139686983Y-58603559D01*
X139819374Y-58233549D01*
X139914870Y-57852308D01*
X139972538Y-57463550D01*
X139991823Y-57071000D01*
X139972538Y-56678449D01*
X139914870Y-56289691D01*
X139819374Y-55908450D01*
X139686983Y-55538440D01*
X139686976Y-55538424D01*
X139518937Y-55183135D01*
X139316890Y-54846041D01*
X139082771Y-54530367D01*
X138986930Y-54424622D01*
X138986929Y-54424622D01*
X138037346Y-55374204D01*
X138078650Y-55312390D01*
X138098053Y-55214845D01*
X138078650Y-55117300D01*
X138023395Y-55034605D01*
X137940700Y-54979350D01*
X137867779Y-54964845D01*
X137818531Y-54964845D01*
X137745610Y-54979350D01*
X137683787Y-55020658D01*
X138633376Y-54071069D01*
X138633376Y-54071068D01*
X138527632Y-53975228D01*
X138211958Y-53741109D01*
X137874864Y-53539062D01*
X137519575Y-53371023D01*
X137519559Y-53371016D01*
X137149549Y-53238625D01*
X136768308Y-53143129D01*
X136500698Y-53103432D01*
X136437273Y-53074123D01*
X136399761Y-53015177D01*
X136400073Y-52945308D01*
X136438110Y-52886699D01*
X136501794Y-52857959D01*
X136518893Y-52856774D01*
X187555107Y-52856774D01*
X187622146Y-52876459D01*
G37*
%TD.AperFunction*%
%TA.AperFunction,Conductor*%
G36*
X118093929Y-129773376D02*
G01*
X118189770Y-129667632D01*
X118423890Y-129351958D01*
X118625939Y-129014860D01*
X118636405Y-128992732D01*
X118682862Y-128940545D01*
X118750159Y-128921759D01*
X118816929Y-128942339D01*
X118861973Y-128995750D01*
X118872500Y-129045748D01*
X118872500Y-131217774D01*
X118852815Y-131284813D01*
X118800011Y-131330568D01*
X118748500Y-131341774D01*
X115622198Y-131341774D01*
X115555159Y-131322089D01*
X115509404Y-131269285D01*
X115499460Y-131200127D01*
X115528485Y-131136571D01*
X115587263Y-131098797D01*
X115604003Y-131095116D01*
X115875308Y-131054870D01*
X116256549Y-130959374D01*
X116626559Y-130826983D01*
X116626575Y-130826976D01*
X116981864Y-130658937D01*
X117318958Y-130456890D01*
X117634632Y-130222770D01*
X117740376Y-130126929D01*
X116790790Y-129177343D01*
X116852610Y-129218650D01*
X116925531Y-129233155D01*
X116974779Y-129233155D01*
X117047700Y-129218650D01*
X117130395Y-129163395D01*
X117185650Y-129080700D01*
X117205053Y-128983155D01*
X117185650Y-128885610D01*
X117144343Y-128823790D01*
X118093929Y-129773376D01*
G37*
%TD.AperFunction*%
%TA.AperFunction,Conductor*%
G36*
X133895350Y-128885610D02*
G01*
X133875947Y-128983155D01*
X133895350Y-129080700D01*
X133950605Y-129163395D01*
X134033300Y-129218650D01*
X134106221Y-129233155D01*
X134155469Y-129233155D01*
X134228390Y-129218650D01*
X134290205Y-129177346D01*
X133340622Y-130126929D01*
X133340622Y-130126930D01*
X133446367Y-130222771D01*
X133762041Y-130456890D01*
X134099135Y-130658937D01*
X134454424Y-130826976D01*
X134454440Y-130826983D01*
X134824450Y-130959374D01*
X135205691Y-131054870D01*
X135476997Y-131095116D01*
X135540422Y-131124425D01*
X135577934Y-131183371D01*
X135577622Y-131253240D01*
X135539585Y-131311849D01*
X135475901Y-131340589D01*
X135458802Y-131341774D01*
X132332500Y-131341774D01*
X132265461Y-131322089D01*
X132219706Y-131269285D01*
X132208500Y-131217774D01*
X132208500Y-129045748D01*
X132228185Y-128978709D01*
X132280989Y-128932954D01*
X132350147Y-128923010D01*
X132413703Y-128952035D01*
X132444595Y-128992732D01*
X132455060Y-129014860D01*
X132657109Y-129351958D01*
X132891228Y-129667632D01*
X132987068Y-129773376D01*
X132987069Y-129773376D01*
X133936658Y-128823786D01*
X133895350Y-128885610D01*
G37*
%TD.AperFunction*%
%TA.AperFunction,Conductor*%
G36*
X117109519Y-128788966D02*
G01*
X117047700Y-128747660D01*
X116974779Y-128733155D01*
X116925531Y-128733155D01*
X116852610Y-128747660D01*
X116769915Y-128802915D01*
X116714660Y-128885610D01*
X116695257Y-128983155D01*
X116714660Y-129080700D01*
X116755966Y-129142519D01*
X116142572Y-128529125D01*
X116287640Y-128413438D01*
X116466042Y-128221167D01*
X116496721Y-128176168D01*
X117109519Y-128788966D01*
G37*
%TD.AperFunction*%
%TA.AperFunction,Conductor*%
G36*
X138002519Y-128788966D02*
G01*
X137940700Y-128747660D01*
X137867779Y-128733155D01*
X137818531Y-128733155D01*
X137745610Y-128747660D01*
X137662915Y-128802915D01*
X137607660Y-128885610D01*
X137588257Y-128983155D01*
X137607660Y-129080700D01*
X137648966Y-129142519D01*
X137035572Y-128529125D01*
X137180640Y-128413438D01*
X137359042Y-128221167D01*
X137389721Y-128176168D01*
X138002519Y-128788966D01*
G37*
%TD.AperFunction*%
%TA.AperFunction,Conductor*%
G36*
X190102519Y-128788966D02*
G01*
X190040700Y-128747660D01*
X189967779Y-128733155D01*
X189918531Y-128733155D01*
X189845610Y-128747660D01*
X189762915Y-128802915D01*
X189707660Y-128885610D01*
X189688257Y-128983155D01*
X189707660Y-129080700D01*
X189748966Y-129142519D01*
X189135572Y-128529125D01*
X189280640Y-128413438D01*
X189459042Y-128221167D01*
X189489721Y-128176168D01*
X190102519Y-128788966D01*
G37*
%TD.AperFunction*%
%TA.AperFunction,Conductor*%
G36*
X113721958Y-128221167D02*
G01*
X113900360Y-128413438D01*
X114045427Y-128529124D01*
X113432036Y-129142515D01*
X113473340Y-129080700D01*
X113492743Y-128983155D01*
X113473340Y-128885610D01*
X113418085Y-128802915D01*
X113335390Y-128747660D01*
X113262469Y-128733155D01*
X113213221Y-128733155D01*
X113140300Y-128747660D01*
X113078476Y-128788968D01*
X113691278Y-128176167D01*
X113721958Y-128221167D01*
G37*
%TD.AperFunction*%
%TA.AperFunction,Conductor*%
G36*
X134614958Y-128221167D02*
G01*
X134793360Y-128413438D01*
X134938427Y-128529124D01*
X134325036Y-129142515D01*
X134366340Y-129080700D01*
X134385743Y-128983155D01*
X134366340Y-128885610D01*
X134311085Y-128802915D01*
X134228390Y-128747660D01*
X134155469Y-128733155D01*
X134106221Y-128733155D01*
X134033300Y-128747660D01*
X133971476Y-128788968D01*
X134584278Y-128176167D01*
X134614958Y-128221167D01*
G37*
%TD.AperFunction*%
%TA.AperFunction,Conductor*%
G36*
X186714958Y-128221167D02*
G01*
X186893360Y-128413438D01*
X187038427Y-128529124D01*
X186425036Y-129142515D01*
X186466340Y-129080700D01*
X186485743Y-128983155D01*
X186466340Y-128885610D01*
X186411085Y-128802915D01*
X186328390Y-128747660D01*
X186255469Y-128733155D01*
X186206221Y-128733155D01*
X186133300Y-128747660D01*
X186071476Y-128788968D01*
X186684278Y-128176167D01*
X186714958Y-128221167D01*
G37*
%TD.AperFunction*%
%TA.AperFunction,Conductor*%
G36*
X114045427Y-125724874D02*
G01*
X113900360Y-125840562D01*
X113721958Y-126032833D01*
X113691278Y-126077831D01*
X113078480Y-125465033D01*
X113140300Y-125506340D01*
X113213221Y-125520845D01*
X113262469Y-125520845D01*
X113335390Y-125506340D01*
X113418085Y-125451085D01*
X113473340Y-125368390D01*
X113492743Y-125270845D01*
X113473340Y-125173300D01*
X113432033Y-125111480D01*
X114045427Y-125724874D01*
G37*
%TD.AperFunction*%
%TA.AperFunction,Conductor*%
G36*
X134938427Y-125724874D02*
G01*
X134793360Y-125840562D01*
X134614958Y-126032833D01*
X134584278Y-126077831D01*
X133971480Y-125465033D01*
X134033300Y-125506340D01*
X134106221Y-125520845D01*
X134155469Y-125520845D01*
X134228390Y-125506340D01*
X134311085Y-125451085D01*
X134366340Y-125368390D01*
X134385743Y-125270845D01*
X134366340Y-125173300D01*
X134325033Y-125111480D01*
X134938427Y-125724874D01*
G37*
%TD.AperFunction*%
%TA.AperFunction,Conductor*%
G36*
X187038427Y-125724874D02*
G01*
X186893360Y-125840562D01*
X186714958Y-126032833D01*
X186684278Y-126077831D01*
X186071481Y-125465034D01*
X186133300Y-125506340D01*
X186206221Y-125520845D01*
X186255469Y-125520845D01*
X186328390Y-125506340D01*
X186411085Y-125451085D01*
X186466340Y-125368390D01*
X186485743Y-125270845D01*
X186466340Y-125173300D01*
X186425033Y-125111480D01*
X187038427Y-125724874D01*
G37*
%TD.AperFunction*%
%TA.AperFunction,Conductor*%
G36*
X116714660Y-125173300D02*
G01*
X116695257Y-125270845D01*
X116714660Y-125368390D01*
X116769915Y-125451085D01*
X116852610Y-125506340D01*
X116925531Y-125520845D01*
X116974779Y-125520845D01*
X117047700Y-125506340D01*
X117109514Y-125465036D01*
X116496720Y-126077830D01*
X116466042Y-126032833D01*
X116287640Y-125840562D01*
X116142572Y-125724874D01*
X116755968Y-125111478D01*
X116714660Y-125173300D01*
G37*
%TD.AperFunction*%
%TA.AperFunction,Conductor*%
G36*
X137607660Y-125173300D02*
G01*
X137588257Y-125270845D01*
X137607660Y-125368390D01*
X137662915Y-125451085D01*
X137745610Y-125506340D01*
X137818531Y-125520845D01*
X137867779Y-125520845D01*
X137940700Y-125506340D01*
X138002514Y-125465036D01*
X137389720Y-126077830D01*
X137359042Y-126032833D01*
X137180640Y-125840562D01*
X137035572Y-125724874D01*
X137648968Y-125111478D01*
X137607660Y-125173300D01*
G37*
%TD.AperFunction*%
%TA.AperFunction,Conductor*%
G36*
X189707660Y-125173300D02*
G01*
X189688257Y-125270845D01*
X189707660Y-125368390D01*
X189762915Y-125451085D01*
X189845610Y-125506340D01*
X189918531Y-125520845D01*
X189967779Y-125520845D01*
X190040700Y-125506340D01*
X190102514Y-125465036D01*
X189489720Y-126077830D01*
X189459042Y-126032833D01*
X189280640Y-125840562D01*
X189135572Y-125724874D01*
X189748968Y-125111478D01*
X189707660Y-125173300D01*
G37*
%TD.AperFunction*%
%TA.AperFunction,Conductor*%
G36*
X138002519Y-58732966D02*
G01*
X137940700Y-58691660D01*
X137867779Y-58677155D01*
X137818531Y-58677155D01*
X137745610Y-58691660D01*
X137662915Y-58746915D01*
X137607660Y-58829610D01*
X137588257Y-58927155D01*
X137607660Y-59024700D01*
X137648966Y-59086519D01*
X137035572Y-58473125D01*
X137180640Y-58357438D01*
X137359042Y-58165167D01*
X137389721Y-58120168D01*
X138002519Y-58732966D01*
G37*
%TD.AperFunction*%
%TA.AperFunction,Conductor*%
G36*
X190102519Y-58732966D02*
G01*
X190040700Y-58691660D01*
X189967779Y-58677155D01*
X189918531Y-58677155D01*
X189845610Y-58691660D01*
X189762915Y-58746915D01*
X189707660Y-58829610D01*
X189688257Y-58927155D01*
X189707660Y-59024700D01*
X189748966Y-59086519D01*
X189135572Y-58473125D01*
X189280640Y-58357438D01*
X189459042Y-58165167D01*
X189489721Y-58120168D01*
X190102519Y-58732966D01*
G37*
%TD.AperFunction*%
%TA.AperFunction,Conductor*%
G36*
X134614958Y-58165167D02*
G01*
X134793360Y-58357438D01*
X134938427Y-58473124D01*
X134325036Y-59086515D01*
X134366340Y-59024700D01*
X134385743Y-58927155D01*
X134366340Y-58829610D01*
X134311085Y-58746915D01*
X134228390Y-58691660D01*
X134155469Y-58677155D01*
X134106221Y-58677155D01*
X134033300Y-58691660D01*
X133971476Y-58732968D01*
X134584278Y-58120167D01*
X134614958Y-58165167D01*
G37*
%TD.AperFunction*%
%TA.AperFunction,Conductor*%
G36*
X186714958Y-58165167D02*
G01*
X186893360Y-58357438D01*
X187038427Y-58473124D01*
X186425036Y-59086515D01*
X186466340Y-59024700D01*
X186485743Y-58927155D01*
X186466340Y-58829610D01*
X186411085Y-58746915D01*
X186328390Y-58691660D01*
X186255469Y-58677155D01*
X186206221Y-58677155D01*
X186133300Y-58691660D01*
X186071476Y-58732968D01*
X186684278Y-58120167D01*
X186714958Y-58165167D01*
G37*
%TD.AperFunction*%
%TA.AperFunction,Conductor*%
G36*
X134938427Y-55668874D02*
G01*
X134793360Y-55784562D01*
X134614958Y-55976833D01*
X134584278Y-56021831D01*
X133971480Y-55409033D01*
X134033300Y-55450340D01*
X134106221Y-55464845D01*
X134155469Y-55464845D01*
X134228390Y-55450340D01*
X134311085Y-55395085D01*
X134366340Y-55312390D01*
X134385743Y-55214845D01*
X134366340Y-55117300D01*
X134325033Y-55055480D01*
X134938427Y-55668874D01*
G37*
%TD.AperFunction*%
%TA.AperFunction,Conductor*%
G36*
X187038427Y-55668874D02*
G01*
X186893360Y-55784562D01*
X186714958Y-55976833D01*
X186684278Y-56021831D01*
X186071481Y-55409034D01*
X186133300Y-55450340D01*
X186206221Y-55464845D01*
X186255469Y-55464845D01*
X186328390Y-55450340D01*
X186411085Y-55395085D01*
X186466340Y-55312390D01*
X186485743Y-55214845D01*
X186466340Y-55117300D01*
X186425033Y-55055480D01*
X187038427Y-55668874D01*
G37*
%TD.AperFunction*%
%TA.AperFunction,Conductor*%
G36*
X137607660Y-55117300D02*
G01*
X137588257Y-55214845D01*
X137607660Y-55312390D01*
X137662915Y-55395085D01*
X137745610Y-55450340D01*
X137818531Y-55464845D01*
X137867779Y-55464845D01*
X137940700Y-55450340D01*
X138002514Y-55409036D01*
X137389720Y-56021830D01*
X137359042Y-55976833D01*
X137180640Y-55784562D01*
X137035572Y-55668874D01*
X137648968Y-55055478D01*
X137607660Y-55117300D01*
G37*
%TD.AperFunction*%
%TA.AperFunction,Conductor*%
G36*
X189707660Y-55117300D02*
G01*
X189688257Y-55214845D01*
X189707660Y-55312390D01*
X189762915Y-55395085D01*
X189845610Y-55450340D01*
X189918531Y-55464845D01*
X189967779Y-55464845D01*
X190040700Y-55450340D01*
X190102514Y-55409036D01*
X189489720Y-56021830D01*
X189459042Y-55976833D01*
X189280640Y-55784562D01*
X189135572Y-55668874D01*
X189748968Y-55055478D01*
X189707660Y-55117300D01*
G37*
%TD.AperFunction*%
%TA.AperFunction,Conductor*%
G36*
X135522146Y-52876459D02*
G01*
X135567901Y-52929263D01*
X135577845Y-52998421D01*
X135548820Y-53061977D01*
X135490042Y-53099751D01*
X135473302Y-53103432D01*
X135205691Y-53143129D01*
X134824450Y-53238625D01*
X134454440Y-53371016D01*
X134454424Y-53371023D01*
X134099135Y-53539062D01*
X133762041Y-53741109D01*
X133446368Y-53975228D01*
X133340622Y-54071069D01*
X134290209Y-55020656D01*
X134228390Y-54979350D01*
X134155469Y-54964845D01*
X134106221Y-54964845D01*
X134033300Y-54979350D01*
X133950605Y-55034605D01*
X133895350Y-55117300D01*
X133875947Y-55214845D01*
X133895350Y-55312390D01*
X133936656Y-55374209D01*
X132987069Y-54424622D01*
X132891228Y-54530368D01*
X132657109Y-54846041D01*
X132455060Y-55183140D01*
X132455056Y-55183146D01*
X132444594Y-55205268D01*
X132398136Y-55257455D01*
X132330839Y-55276240D01*
X132264070Y-55255659D01*
X132219026Y-55202247D01*
X132208500Y-55152251D01*
X132208500Y-52980774D01*
X132228185Y-52913735D01*
X132280989Y-52867980D01*
X132332500Y-52856774D01*
X135455107Y-52856774D01*
X135522146Y-52876459D01*
G37*
%TD.AperFunction*%
%TD*%
M02*
