%TF.GenerationSoftware,KiCad,Pcbnew,7.0.9*%
%TF.CreationDate,2024-01-13T11:23:33+07:00*%
%TF.ProjectId,Waterbox 2.1,57617465-7262-46f7-9820-322e312e6b69,rev?*%
%TF.SameCoordinates,Original*%
%TF.FileFunction,Legend,Top*%
%TF.FilePolarity,Positive*%
%FSLAX46Y46*%
G04 Gerber Fmt 4.6, Leading zero omitted, Abs format (unit mm)*
G04 Created by KiCad (PCBNEW 7.0.9) date 2024-01-13 11:23:33*
%MOMM*%
%LPD*%
G01*
G04 APERTURE LIST*
%ADD10C,0.150000*%
%ADD11C,0.120000*%
%ADD12C,0.127000*%
%ADD13C,0.200000*%
%ADD14C,0.100000*%
G04 APERTURE END LIST*
D10*
X167589000Y-62506000D02*
X170839000Y-62506000D01*
X170839000Y-65256000D01*
X167589000Y-65256000D01*
X167589000Y-62506000D01*
X151594000Y-62506000D02*
X154844000Y-62506000D01*
X154844000Y-65256000D01*
X151594000Y-65256000D01*
X151594000Y-62506000D01*
X180227000Y-69219000D02*
X182977000Y-69219000D01*
X182977000Y-72469000D01*
X180227000Y-72469000D01*
X180227000Y-69219000D01*
X170839000Y-62506000D02*
X174089000Y-62506000D01*
X174089000Y-65256000D01*
X170839000Y-65256000D01*
X170839000Y-62506000D01*
X161089000Y-62506000D02*
X164339000Y-62506000D01*
X164339000Y-65256000D01*
X161089000Y-65256000D01*
X161089000Y-62506000D01*
X154844000Y-62506000D02*
X158094000Y-62506000D01*
X158094000Y-65256000D01*
X154844000Y-65256000D01*
X154844000Y-62506000D01*
X164339000Y-62506000D02*
X167589000Y-62506000D01*
X167589000Y-65256000D01*
X164339000Y-65256000D01*
X164339000Y-62506000D01*
X180227000Y-75719000D02*
X182977000Y-75719000D01*
X182977000Y-78969000D01*
X180227000Y-78969000D01*
X180227000Y-75719000D01*
X180227000Y-72469000D02*
X182977000Y-72469000D01*
X182977000Y-75719000D01*
X180227000Y-75719000D01*
X180227000Y-72469000D01*
X169485714Y-63551414D02*
X169400000Y-63508557D01*
X169400000Y-63508557D02*
X169271428Y-63508557D01*
X169271428Y-63508557D02*
X169142857Y-63551414D01*
X169142857Y-63551414D02*
X169057142Y-63637128D01*
X169057142Y-63637128D02*
X169014285Y-63722842D01*
X169014285Y-63722842D02*
X168971428Y-63894271D01*
X168971428Y-63894271D02*
X168971428Y-64022842D01*
X168971428Y-64022842D02*
X169014285Y-64194271D01*
X169014285Y-64194271D02*
X169057142Y-64279985D01*
X169057142Y-64279985D02*
X169142857Y-64365700D01*
X169142857Y-64365700D02*
X169271428Y-64408557D01*
X169271428Y-64408557D02*
X169357142Y-64408557D01*
X169357142Y-64408557D02*
X169485714Y-64365700D01*
X169485714Y-64365700D02*
X169528571Y-64322842D01*
X169528571Y-64322842D02*
X169528571Y-64022842D01*
X169528571Y-64022842D02*
X169357142Y-64022842D01*
X152050000Y-63389557D02*
X152350000Y-64289557D01*
X152350000Y-64289557D02*
X152650000Y-63389557D01*
X153464286Y-64203842D02*
X153421429Y-64246700D01*
X153421429Y-64246700D02*
X153292857Y-64289557D01*
X153292857Y-64289557D02*
X153207143Y-64289557D01*
X153207143Y-64289557D02*
X153078572Y-64246700D01*
X153078572Y-64246700D02*
X152992857Y-64160985D01*
X152992857Y-64160985D02*
X152950000Y-64075271D01*
X152950000Y-64075271D02*
X152907143Y-63903842D01*
X152907143Y-63903842D02*
X152907143Y-63775271D01*
X152907143Y-63775271D02*
X152950000Y-63603842D01*
X152950000Y-63603842D02*
X152992857Y-63518128D01*
X152992857Y-63518128D02*
X153078572Y-63432414D01*
X153078572Y-63432414D02*
X153207143Y-63389557D01*
X153207143Y-63389557D02*
X153292857Y-63389557D01*
X153292857Y-63389557D02*
X153421429Y-63432414D01*
X153421429Y-63432414D02*
X153464286Y-63475271D01*
X154364286Y-64203842D02*
X154321429Y-64246700D01*
X154321429Y-64246700D02*
X154192857Y-64289557D01*
X154192857Y-64289557D02*
X154107143Y-64289557D01*
X154107143Y-64289557D02*
X153978572Y-64246700D01*
X153978572Y-64246700D02*
X153892857Y-64160985D01*
X153892857Y-64160985D02*
X153850000Y-64075271D01*
X153850000Y-64075271D02*
X153807143Y-63903842D01*
X153807143Y-63903842D02*
X153807143Y-63775271D01*
X153807143Y-63775271D02*
X153850000Y-63603842D01*
X153850000Y-63603842D02*
X153892857Y-63518128D01*
X153892857Y-63518128D02*
X153978572Y-63432414D01*
X153978572Y-63432414D02*
X154107143Y-63389557D01*
X154107143Y-63389557D02*
X154192857Y-63389557D01*
X154192857Y-63389557D02*
X154321429Y-63432414D01*
X154321429Y-63432414D02*
X154364286Y-63475271D01*
X181968442Y-69644000D02*
X181068442Y-69944000D01*
X181068442Y-69944000D02*
X181968442Y-70244000D01*
X181154157Y-71058286D02*
X181111300Y-71015429D01*
X181111300Y-71015429D02*
X181068442Y-70886857D01*
X181068442Y-70886857D02*
X181068442Y-70801143D01*
X181068442Y-70801143D02*
X181111300Y-70672572D01*
X181111300Y-70672572D02*
X181197014Y-70586857D01*
X181197014Y-70586857D02*
X181282728Y-70544000D01*
X181282728Y-70544000D02*
X181454157Y-70501143D01*
X181454157Y-70501143D02*
X181582728Y-70501143D01*
X181582728Y-70501143D02*
X181754157Y-70544000D01*
X181754157Y-70544000D02*
X181839871Y-70586857D01*
X181839871Y-70586857D02*
X181925585Y-70672572D01*
X181925585Y-70672572D02*
X181968442Y-70801143D01*
X181968442Y-70801143D02*
X181968442Y-70886857D01*
X181968442Y-70886857D02*
X181925585Y-71015429D01*
X181925585Y-71015429D02*
X181882728Y-71058286D01*
X181154157Y-71958286D02*
X181111300Y-71915429D01*
X181111300Y-71915429D02*
X181068442Y-71786857D01*
X181068442Y-71786857D02*
X181068442Y-71701143D01*
X181068442Y-71701143D02*
X181111300Y-71572572D01*
X181111300Y-71572572D02*
X181197014Y-71486857D01*
X181197014Y-71486857D02*
X181282728Y-71444000D01*
X181282728Y-71444000D02*
X181454157Y-71401143D01*
X181454157Y-71401143D02*
X181582728Y-71401143D01*
X181582728Y-71401143D02*
X181754157Y-71444000D01*
X181754157Y-71444000D02*
X181839871Y-71486857D01*
X181839871Y-71486857D02*
X181925585Y-71572572D01*
X181925585Y-71572572D02*
X181968442Y-71701143D01*
X181968442Y-71701143D02*
X181968442Y-71786857D01*
X181968442Y-71786857D02*
X181925585Y-71915429D01*
X181925585Y-71915429D02*
X181882728Y-71958286D01*
X163028571Y-64408557D02*
X162728571Y-63979985D01*
X162514285Y-64408557D02*
X162514285Y-63508557D01*
X162514285Y-63508557D02*
X162857142Y-63508557D01*
X162857142Y-63508557D02*
X162942857Y-63551414D01*
X162942857Y-63551414D02*
X162985714Y-63594271D01*
X162985714Y-63594271D02*
X163028571Y-63679985D01*
X163028571Y-63679985D02*
X163028571Y-63808557D01*
X163028571Y-63808557D02*
X162985714Y-63894271D01*
X162985714Y-63894271D02*
X162942857Y-63937128D01*
X162942857Y-63937128D02*
X162857142Y-63979985D01*
X162857142Y-63979985D02*
X162514285Y-63979985D01*
G36*
X127896000Y-88929420D02*
G01*
X126620466Y-89077138D01*
X126620466Y-88926196D01*
X127397744Y-88839148D01*
X127526704Y-88827718D01*
X127526704Y-88823614D01*
X127398623Y-88807201D01*
X126620466Y-88673551D01*
X126620466Y-88522609D01*
X127431157Y-88369909D01*
X127554255Y-88354375D01*
X127554255Y-88350272D01*
X127427933Y-88340307D01*
X126620466Y-88244466D01*
X126620466Y-88114919D01*
X127896000Y-88269085D01*
X127896000Y-88425596D01*
X127033138Y-88589727D01*
X126903299Y-88607020D01*
X126903299Y-88611123D01*
X127033138Y-88626657D01*
X127896000Y-88774375D01*
X127896000Y-88929420D01*
G37*
G36*
X127896000Y-87333831D02*
G01*
X127881564Y-87337171D01*
X127866176Y-87340377D01*
X127849835Y-87343449D01*
X127832541Y-87346388D01*
X127820482Y-87348272D01*
X127807999Y-87350097D01*
X127795092Y-87351863D01*
X127781763Y-87353568D01*
X127768009Y-87355215D01*
X127753832Y-87356802D01*
X127739231Y-87358329D01*
X127724207Y-87359797D01*
X127708759Y-87361205D01*
X127692887Y-87362554D01*
X127706451Y-87371384D01*
X127719591Y-87380437D01*
X127732307Y-87389711D01*
X127744599Y-87399208D01*
X127756469Y-87408927D01*
X127767914Y-87418868D01*
X127778936Y-87429032D01*
X127789534Y-87439417D01*
X127799709Y-87450024D01*
X127809460Y-87460854D01*
X127818787Y-87471905D01*
X127827691Y-87483179D01*
X127836171Y-87494675D01*
X127844228Y-87506393D01*
X127851861Y-87518333D01*
X127859070Y-87530495D01*
X127865813Y-87542670D01*
X127872122Y-87554721D01*
X127877995Y-87566648D01*
X127883433Y-87578452D01*
X127888436Y-87590132D01*
X127893004Y-87601689D01*
X127897138Y-87613122D01*
X127900836Y-87624431D01*
X127905567Y-87641163D01*
X127909319Y-87657616D01*
X127912093Y-87673792D01*
X127913887Y-87689689D01*
X127914703Y-87705309D01*
X127914757Y-87710453D01*
X127914369Y-87724723D01*
X127913205Y-87738810D01*
X127911264Y-87752713D01*
X127908547Y-87766434D01*
X127905054Y-87779971D01*
X127900785Y-87793325D01*
X127895740Y-87806495D01*
X127889918Y-87819483D01*
X127883320Y-87832288D01*
X127875946Y-87844909D01*
X127867795Y-87857347D01*
X127858868Y-87869602D01*
X127849166Y-87881673D01*
X127838686Y-87893562D01*
X127827431Y-87905267D01*
X127815399Y-87916789D01*
X127802543Y-87927863D01*
X127788888Y-87938222D01*
X127774434Y-87947866D01*
X127759181Y-87956796D01*
X127743128Y-87965012D01*
X127726277Y-87972513D01*
X127708626Y-87979300D01*
X127690176Y-87985373D01*
X127670927Y-87990731D01*
X127650879Y-87995375D01*
X127630032Y-87999304D01*
X127608385Y-88002519D01*
X127585940Y-88005019D01*
X127562695Y-88006805D01*
X127550773Y-88007430D01*
X127538651Y-88007877D01*
X127526330Y-88008145D01*
X127513808Y-88008234D01*
X127494011Y-88007997D01*
X127474479Y-88007286D01*
X127455213Y-88006101D01*
X127436212Y-88004442D01*
X127417477Y-88002309D01*
X127399008Y-87999702D01*
X127380804Y-87996621D01*
X127362866Y-87993066D01*
X127345194Y-87989038D01*
X127327787Y-87984535D01*
X127310646Y-87979558D01*
X127293770Y-87974107D01*
X127277160Y-87968182D01*
X127260815Y-87961784D01*
X127244737Y-87954911D01*
X127228923Y-87947564D01*
X127213449Y-87939820D01*
X127198387Y-87931755D01*
X127183737Y-87923370D01*
X127169499Y-87914665D01*
X127155673Y-87905638D01*
X127142260Y-87896291D01*
X127129259Y-87886624D01*
X127116669Y-87876636D01*
X127104492Y-87866327D01*
X127092728Y-87855698D01*
X127081375Y-87844748D01*
X127070434Y-87833478D01*
X127059906Y-87821887D01*
X127049790Y-87809976D01*
X127040086Y-87797744D01*
X127030794Y-87785191D01*
X127021992Y-87772289D01*
X127013758Y-87759006D01*
X127006092Y-87745342D01*
X126998993Y-87731299D01*
X126992463Y-87716876D01*
X126986500Y-87702073D01*
X126981105Y-87686889D01*
X126976279Y-87671325D01*
X126972020Y-87655382D01*
X126968329Y-87639058D01*
X126965205Y-87622354D01*
X126962650Y-87605270D01*
X126960662Y-87587806D01*
X126959243Y-87569962D01*
X126958391Y-87551737D01*
X126958107Y-87533133D01*
X126958422Y-87518490D01*
X126958687Y-87513496D01*
X127089412Y-87513496D01*
X127089847Y-87530935D01*
X127091152Y-87548007D01*
X127093327Y-87564713D01*
X127096373Y-87581053D01*
X127100288Y-87597027D01*
X127105074Y-87612634D01*
X127110730Y-87627875D01*
X127117256Y-87642749D01*
X127124652Y-87657257D01*
X127132918Y-87671399D01*
X127142054Y-87685174D01*
X127152060Y-87698583D01*
X127162937Y-87711625D01*
X127174683Y-87724302D01*
X127187300Y-87736612D01*
X127200787Y-87748555D01*
X127214986Y-87759912D01*
X127229812Y-87770537D01*
X127245266Y-87780429D01*
X127261347Y-87789588D01*
X127278055Y-87798014D01*
X127295391Y-87805708D01*
X127313354Y-87812669D01*
X127331945Y-87818897D01*
X127351163Y-87824392D01*
X127371009Y-87829155D01*
X127391482Y-87833185D01*
X127412582Y-87836482D01*
X127434310Y-87839047D01*
X127456665Y-87840879D01*
X127479647Y-87841978D01*
X127491374Y-87842253D01*
X127503257Y-87842344D01*
X127520356Y-87842144D01*
X127536921Y-87841543D01*
X127552953Y-87840541D01*
X127568452Y-87839139D01*
X127583416Y-87837335D01*
X127597848Y-87835131D01*
X127611745Y-87832527D01*
X127625110Y-87829521D01*
X127637941Y-87826115D01*
X127650238Y-87822309D01*
X127662001Y-87818101D01*
X127673232Y-87813493D01*
X127683928Y-87808484D01*
X127698973Y-87800219D01*
X127712817Y-87791053D01*
X127725441Y-87781310D01*
X127736822Y-87771314D01*
X127746962Y-87761066D01*
X127755861Y-87750565D01*
X127763517Y-87739812D01*
X127769932Y-87728807D01*
X127775106Y-87717549D01*
X127779038Y-87706038D01*
X127781728Y-87694276D01*
X127783176Y-87682260D01*
X127783452Y-87674110D01*
X127782806Y-87660624D01*
X127780866Y-87646876D01*
X127777633Y-87632865D01*
X127773107Y-87618592D01*
X127767288Y-87604055D01*
X127760176Y-87589256D01*
X127751770Y-87574194D01*
X127745448Y-87564007D01*
X127738551Y-87553703D01*
X127731080Y-87543283D01*
X127723033Y-87532745D01*
X127714412Y-87522091D01*
X127709886Y-87516720D01*
X127700491Y-87506020D01*
X127690698Y-87495461D01*
X127680506Y-87485045D01*
X127669916Y-87474771D01*
X127658927Y-87464639D01*
X127647540Y-87454648D01*
X127635755Y-87444800D01*
X127623571Y-87435094D01*
X127610989Y-87425529D01*
X127598008Y-87416107D01*
X127584629Y-87406826D01*
X127570851Y-87397688D01*
X127556675Y-87388691D01*
X127542101Y-87379837D01*
X127527128Y-87371124D01*
X127511757Y-87362554D01*
X127111101Y-87362554D01*
X127107225Y-87377676D01*
X127103730Y-87392597D01*
X127100616Y-87407317D01*
X127097884Y-87421836D01*
X127095533Y-87436154D01*
X127093563Y-87450271D01*
X127091975Y-87464188D01*
X127090767Y-87477903D01*
X127089941Y-87491418D01*
X127089497Y-87504732D01*
X127089412Y-87513496D01*
X126958687Y-87513496D01*
X126959127Y-87505209D01*
X126960235Y-87490536D01*
X126961331Y-87478618D01*
X126962653Y-87465916D01*
X126964202Y-87452432D01*
X126965978Y-87438164D01*
X126967980Y-87423114D01*
X126970210Y-87407280D01*
X126971003Y-87401828D01*
X126972926Y-87390122D01*
X126974781Y-87377597D01*
X126976430Y-87365764D01*
X126976865Y-87362554D01*
X126976865Y-87208974D01*
X127632217Y-87208974D01*
X127652276Y-87208840D01*
X127671858Y-87208438D01*
X127690964Y-87207768D01*
X127709593Y-87206830D01*
X127727747Y-87205625D01*
X127745424Y-87204151D01*
X127762625Y-87202410D01*
X127779349Y-87200401D01*
X127795597Y-87198124D01*
X127811369Y-87195578D01*
X127826665Y-87192765D01*
X127841484Y-87189685D01*
X127855828Y-87186336D01*
X127869695Y-87182719D01*
X127883085Y-87178834D01*
X127896000Y-87174682D01*
X127896000Y-87333831D01*
G37*
G36*
X127850277Y-86190188D02*
G01*
X127855955Y-86203402D01*
X127861337Y-86216154D01*
X127866424Y-86228443D01*
X127871215Y-86240270D01*
X127875711Y-86251634D01*
X127881901Y-86267813D01*
X127887427Y-86282951D01*
X127892287Y-86297049D01*
X127896484Y-86310106D01*
X127900015Y-86322122D01*
X127903691Y-86336525D01*
X127905672Y-86346113D01*
X127907801Y-86358152D01*
X127909647Y-86370091D01*
X127911208Y-86381929D01*
X127912486Y-86393667D01*
X127913684Y-86408197D01*
X127914438Y-86422569D01*
X127914748Y-86436785D01*
X127914757Y-86439609D01*
X127914614Y-86451526D01*
X127914185Y-86463317D01*
X127913004Y-86480768D01*
X127911180Y-86497935D01*
X127908711Y-86514819D01*
X127905598Y-86531420D01*
X127901842Y-86547737D01*
X127897441Y-86563771D01*
X127892396Y-86579521D01*
X127886708Y-86594988D01*
X127880375Y-86610172D01*
X127878121Y-86615170D01*
X127870945Y-86629723D01*
X127863156Y-86643596D01*
X127854754Y-86656788D01*
X127845739Y-86669301D01*
X127836111Y-86681133D01*
X127825869Y-86692286D01*
X127815015Y-86702758D01*
X127803547Y-86712550D01*
X127791467Y-86721662D01*
X127778773Y-86730094D01*
X127769970Y-86735338D01*
X127755876Y-86742566D01*
X127740411Y-86749083D01*
X127729340Y-86753033D01*
X127717660Y-86756667D01*
X127705371Y-86759985D01*
X127692473Y-86762987D01*
X127678965Y-86765673D01*
X127664849Y-86768043D01*
X127650123Y-86770097D01*
X127634789Y-86771835D01*
X127618845Y-86773257D01*
X127602292Y-86774363D01*
X127585130Y-86775153D01*
X127567359Y-86775627D01*
X127548979Y-86775785D01*
X127183201Y-86775785D01*
X127183201Y-87004689D01*
X127051896Y-87004689D01*
X127051896Y-86775785D01*
X126695497Y-86775785D01*
X126695497Y-86623377D01*
X127051896Y-86623377D01*
X127051896Y-86215687D01*
X127183201Y-86215687D01*
X127183201Y-86623377D01*
X127543411Y-86623377D01*
X127556753Y-86623275D01*
X127569596Y-86622969D01*
X127581941Y-86622460D01*
X127593786Y-86621747D01*
X127610617Y-86620295D01*
X127626326Y-86618384D01*
X127640911Y-86616015D01*
X127654373Y-86613188D01*
X127666712Y-86609901D01*
X127677928Y-86606157D01*
X127691135Y-86600451D01*
X127696990Y-86597292D01*
X127707762Y-86590423D01*
X127717800Y-86583004D01*
X127727106Y-86575035D01*
X127735678Y-86566517D01*
X127743519Y-86557450D01*
X127750626Y-86547833D01*
X127757001Y-86537666D01*
X127762643Y-86526950D01*
X127767520Y-86515712D01*
X127771747Y-86503979D01*
X127775324Y-86491752D01*
X127778250Y-86479030D01*
X127780526Y-86465813D01*
X127782152Y-86452102D01*
X127783127Y-86437896D01*
X127783452Y-86423196D01*
X127783184Y-86409302D01*
X127782381Y-86395320D01*
X127781041Y-86381248D01*
X127779166Y-86367087D01*
X127776755Y-86352836D01*
X127773808Y-86338497D01*
X127770325Y-86324068D01*
X127766307Y-86309549D01*
X127761752Y-86294942D01*
X127756662Y-86280245D01*
X127751036Y-86265459D01*
X127744874Y-86250583D01*
X127738177Y-86235618D01*
X127730943Y-86220564D01*
X127723174Y-86205421D01*
X127714869Y-86190188D01*
X127850277Y-86190188D01*
G37*
G36*
X127464569Y-85804480D02*
G01*
X127481578Y-85804132D01*
X127498315Y-85803089D01*
X127514778Y-85801350D01*
X127530968Y-85798915D01*
X127546885Y-85795786D01*
X127562529Y-85791960D01*
X127577900Y-85787439D01*
X127592998Y-85782223D01*
X127607823Y-85776311D01*
X127622375Y-85769704D01*
X127631924Y-85764912D01*
X127645773Y-85757219D01*
X127658962Y-85749089D01*
X127671491Y-85740520D01*
X127683362Y-85731514D01*
X127694572Y-85722069D01*
X127705124Y-85712187D01*
X127715016Y-85701866D01*
X127724248Y-85691108D01*
X127732821Y-85679912D01*
X127740734Y-85668278D01*
X127745644Y-85660279D01*
X127752400Y-85647924D01*
X127758493Y-85635261D01*
X127763920Y-85622288D01*
X127768683Y-85609006D01*
X127772782Y-85595415D01*
X127776216Y-85581515D01*
X127778985Y-85567306D01*
X127781089Y-85552787D01*
X127782529Y-85537960D01*
X127783305Y-85522823D01*
X127783452Y-85512561D01*
X127783083Y-85493974D01*
X127781973Y-85475146D01*
X127780124Y-85456074D01*
X127777536Y-85436760D01*
X127774207Y-85417203D01*
X127770140Y-85397403D01*
X127765332Y-85377361D01*
X127759785Y-85357076D01*
X127753499Y-85336548D01*
X127746473Y-85315777D01*
X127738707Y-85294764D01*
X127730201Y-85273508D01*
X127720956Y-85252009D01*
X127716057Y-85241169D01*
X127710972Y-85230268D01*
X127705702Y-85219306D01*
X127700248Y-85208284D01*
X127694608Y-85197200D01*
X127688784Y-85186057D01*
X127825658Y-85186057D01*
X127831139Y-85197468D01*
X127836447Y-85208841D01*
X127841581Y-85220176D01*
X127846540Y-85231472D01*
X127851326Y-85242730D01*
X127855938Y-85253950D01*
X127860375Y-85265131D01*
X127864639Y-85276274D01*
X127868728Y-85287378D01*
X127872644Y-85298445D01*
X127879953Y-85320462D01*
X127886566Y-85342326D01*
X127892482Y-85364036D01*
X127897703Y-85385594D01*
X127902228Y-85406997D01*
X127906056Y-85428248D01*
X127909189Y-85449344D01*
X127911625Y-85470288D01*
X127913365Y-85491078D01*
X127914409Y-85511714D01*
X127914757Y-85532198D01*
X127914520Y-85547592D01*
X127913809Y-85562780D01*
X127912624Y-85577762D01*
X127910965Y-85592538D01*
X127908833Y-85607108D01*
X127906226Y-85621471D01*
X127903145Y-85635629D01*
X127899590Y-85649581D01*
X127895561Y-85663326D01*
X127891058Y-85676866D01*
X127886081Y-85690199D01*
X127880631Y-85703326D01*
X127874706Y-85716248D01*
X127868307Y-85728963D01*
X127861434Y-85741472D01*
X127854087Y-85753775D01*
X127846263Y-85765822D01*
X127838032Y-85777566D01*
X127829392Y-85789004D01*
X127820345Y-85800138D01*
X127810891Y-85810968D01*
X127801029Y-85821493D01*
X127790759Y-85831713D01*
X127780082Y-85841629D01*
X127768997Y-85851240D01*
X127757505Y-85860547D01*
X127745605Y-85869549D01*
X127733297Y-85878247D01*
X127720582Y-85886640D01*
X127707459Y-85894729D01*
X127693929Y-85902513D01*
X127679991Y-85909993D01*
X127665789Y-85917091D01*
X127651465Y-85923731D01*
X127637020Y-85929914D01*
X127622454Y-85935638D01*
X127607766Y-85940905D01*
X127592957Y-85945713D01*
X127578026Y-85950064D01*
X127562974Y-85953956D01*
X127547801Y-85957391D01*
X127532507Y-85960368D01*
X127517091Y-85962886D01*
X127501553Y-85964947D01*
X127485895Y-85966550D01*
X127470115Y-85967695D01*
X127454213Y-85968382D01*
X127438191Y-85968611D01*
X127422696Y-85968393D01*
X127407279Y-85967741D01*
X127391940Y-85966653D01*
X127376678Y-85965130D01*
X127361495Y-85963173D01*
X127346389Y-85960780D01*
X127331361Y-85957952D01*
X127316411Y-85954689D01*
X127301539Y-85950991D01*
X127286745Y-85946858D01*
X127272028Y-85942290D01*
X127257390Y-85937287D01*
X127242829Y-85931848D01*
X127228346Y-85925975D01*
X127213941Y-85919667D01*
X127199614Y-85912923D01*
X127185524Y-85905754D01*
X127171830Y-85898241D01*
X127158532Y-85890385D01*
X127145631Y-85882185D01*
X127133125Y-85873642D01*
X127121015Y-85864756D01*
X127109302Y-85855526D01*
X127097985Y-85845952D01*
X127087064Y-85836035D01*
X127076539Y-85825775D01*
X127066410Y-85815171D01*
X127056677Y-85804223D01*
X127047341Y-85792932D01*
X127038400Y-85781298D01*
X127029856Y-85769320D01*
X127021708Y-85756999D01*
X127014006Y-85744381D01*
X127006801Y-85731587D01*
X127000093Y-85718616D01*
X126993882Y-85705470D01*
X126988168Y-85692147D01*
X126982951Y-85678647D01*
X126978231Y-85664972D01*
X126974007Y-85651120D01*
X126970281Y-85637091D01*
X126967051Y-85622887D01*
X126964318Y-85608506D01*
X126962082Y-85593948D01*
X126960343Y-85579215D01*
X126959101Y-85564305D01*
X126958355Y-85549219D01*
X126958217Y-85540697D01*
X127089412Y-85540697D01*
X127089997Y-85557844D01*
X127091751Y-85574553D01*
X127094675Y-85590824D01*
X127098768Y-85606657D01*
X127104031Y-85622052D01*
X127110463Y-85637009D01*
X127118065Y-85651528D01*
X127126836Y-85665609D01*
X127136777Y-85679253D01*
X127147887Y-85692458D01*
X127155944Y-85701018D01*
X127164472Y-85709322D01*
X127173497Y-85717308D01*
X127183019Y-85724975D01*
X127193038Y-85732324D01*
X127203554Y-85739355D01*
X127214567Y-85746067D01*
X127226076Y-85752462D01*
X127238083Y-85758538D01*
X127250586Y-85764295D01*
X127263586Y-85769735D01*
X127277083Y-85774856D01*
X127291077Y-85779658D01*
X127305568Y-85784143D01*
X127320556Y-85788309D01*
X127336040Y-85792157D01*
X127352022Y-85795687D01*
X127352022Y-85338757D01*
X127330333Y-85338757D01*
X127316699Y-85338973D01*
X127303419Y-85339618D01*
X127290494Y-85340695D01*
X127277925Y-85342201D01*
X127265710Y-85344138D01*
X127253850Y-85346506D01*
X127242345Y-85349304D01*
X127225753Y-85354308D01*
X127209960Y-85360281D01*
X127194965Y-85367223D01*
X127180768Y-85375133D01*
X127167371Y-85384011D01*
X127154771Y-85393859D01*
X127143091Y-85404462D01*
X127132559Y-85415720D01*
X127123177Y-85427632D01*
X127114943Y-85440199D01*
X127107858Y-85453420D01*
X127101922Y-85467295D01*
X127097135Y-85481825D01*
X127093497Y-85497008D01*
X127091008Y-85512846D01*
X127089667Y-85529339D01*
X127089412Y-85540697D01*
X126958217Y-85540697D01*
X126958107Y-85533956D01*
X126958560Y-85513802D01*
X126959920Y-85494151D01*
X126962187Y-85475004D01*
X126965361Y-85456360D01*
X126969441Y-85438221D01*
X126974428Y-85420585D01*
X126980322Y-85403453D01*
X126987123Y-85386824D01*
X126994830Y-85370700D01*
X127003445Y-85355079D01*
X127012965Y-85339962D01*
X127023393Y-85325348D01*
X127034727Y-85311239D01*
X127046969Y-85297633D01*
X127060117Y-85284531D01*
X127074171Y-85271933D01*
X127089170Y-85259936D01*
X127105152Y-85248714D01*
X127122116Y-85238266D01*
X127140062Y-85228592D01*
X127158990Y-85219691D01*
X127178901Y-85211565D01*
X127199794Y-85204212D01*
X127221669Y-85197634D01*
X127244527Y-85191829D01*
X127256324Y-85189217D01*
X127268367Y-85186799D01*
X127280656Y-85184574D01*
X127293189Y-85182542D01*
X127305969Y-85180704D01*
X127318994Y-85179059D01*
X127332265Y-85177608D01*
X127345781Y-85176350D01*
X127359543Y-85175286D01*
X127373550Y-85174415D01*
X127387803Y-85173738D01*
X127402302Y-85173255D01*
X127417046Y-85172964D01*
X127432036Y-85172868D01*
X127464569Y-85172868D01*
X127464569Y-85804480D01*
G37*
G36*
X127896000Y-84861898D02*
G01*
X126976865Y-84861898D01*
X126976865Y-84709490D01*
X127178512Y-84709490D01*
X127164917Y-84700471D01*
X127151758Y-84691291D01*
X127139034Y-84681951D01*
X127126744Y-84672451D01*
X127114890Y-84662790D01*
X127103471Y-84652969D01*
X127092487Y-84642988D01*
X127081938Y-84632847D01*
X127071824Y-84622545D01*
X127062145Y-84612083D01*
X127052901Y-84601461D01*
X127044093Y-84590678D01*
X127035719Y-84579735D01*
X127027780Y-84568632D01*
X127020277Y-84557369D01*
X127013208Y-84545945D01*
X127006536Y-84534322D01*
X127000294Y-84522534D01*
X126994482Y-84510582D01*
X126989101Y-84498464D01*
X126984151Y-84486182D01*
X126979631Y-84473735D01*
X126975541Y-84461123D01*
X126971882Y-84448346D01*
X126968654Y-84435404D01*
X126965856Y-84422297D01*
X126963488Y-84409026D01*
X126961551Y-84395589D01*
X126960044Y-84381988D01*
X126958968Y-84368222D01*
X126958322Y-84354291D01*
X126958107Y-84340195D01*
X126958272Y-84324695D01*
X126958766Y-84309190D01*
X126959591Y-84293680D01*
X126960745Y-84278165D01*
X126962229Y-84262644D01*
X126964042Y-84247119D01*
X126966185Y-84231588D01*
X126968658Y-84216052D01*
X126971461Y-84200511D01*
X126974593Y-84184965D01*
X126976865Y-84174598D01*
X127314506Y-84174598D01*
X127314506Y-84321437D01*
X127096153Y-84321437D01*
X127094211Y-84333119D01*
X127092315Y-84346061D01*
X127090893Y-84357828D01*
X127089833Y-84370072D01*
X127089412Y-84382107D01*
X127090022Y-84398070D01*
X127091854Y-84413977D01*
X127094907Y-84429827D01*
X127099180Y-84445621D01*
X127104675Y-84461358D01*
X127111390Y-84477038D01*
X127119327Y-84492661D01*
X127125296Y-84503045D01*
X127131809Y-84513404D01*
X127138863Y-84523738D01*
X127146461Y-84534047D01*
X127154601Y-84544330D01*
X127158875Y-84549462D01*
X127167830Y-84559704D01*
X127177330Y-84569914D01*
X127187375Y-84580093D01*
X127197966Y-84590239D01*
X127209101Y-84600352D01*
X127220781Y-84610434D01*
X127233006Y-84620484D01*
X127245776Y-84630502D01*
X127259091Y-84640488D01*
X127272951Y-84650441D01*
X127287356Y-84660363D01*
X127302306Y-84670252D01*
X127317801Y-84680110D01*
X127333841Y-84689935D01*
X127350426Y-84699729D01*
X127367556Y-84709490D01*
X127896000Y-84709490D01*
X127896000Y-84861898D01*
G37*
G36*
X127378853Y-83144328D02*
G01*
X127398385Y-83145046D01*
X127417651Y-83146242D01*
X127436652Y-83147917D01*
X127455387Y-83150071D01*
X127473856Y-83152703D01*
X127492060Y-83155814D01*
X127509998Y-83159403D01*
X127527671Y-83163471D01*
X127545077Y-83168017D01*
X127562219Y-83173042D01*
X127579094Y-83178545D01*
X127595704Y-83184527D01*
X127612049Y-83190988D01*
X127628128Y-83197927D01*
X127643941Y-83205345D01*
X127659415Y-83213124D01*
X127674477Y-83221222D01*
X127689127Y-83229638D01*
X127703365Y-83238373D01*
X127717191Y-83247425D01*
X127730604Y-83256796D01*
X127743606Y-83266485D01*
X127756195Y-83276493D01*
X127768372Y-83286819D01*
X127780137Y-83297463D01*
X127791490Y-83308425D01*
X127802430Y-83319706D01*
X127812958Y-83331304D01*
X127823075Y-83343222D01*
X127832779Y-83355457D01*
X127842071Y-83368011D01*
X127850873Y-83380912D01*
X127859107Y-83394192D01*
X127866773Y-83407849D01*
X127873871Y-83421885D01*
X127880402Y-83436298D01*
X127886364Y-83451088D01*
X127891759Y-83466257D01*
X127896586Y-83481803D01*
X127900845Y-83497728D01*
X127904536Y-83514030D01*
X127907659Y-83530710D01*
X127910214Y-83547767D01*
X127912202Y-83565203D01*
X127913622Y-83583016D01*
X127914473Y-83601207D01*
X127914757Y-83619776D01*
X127914443Y-83634265D01*
X127913737Y-83647463D01*
X127912629Y-83662090D01*
X127911533Y-83673998D01*
X127910211Y-83686710D01*
X127908662Y-83700225D01*
X127906886Y-83714544D01*
X127904884Y-83729667D01*
X127902655Y-83745594D01*
X127901861Y-83751081D01*
X127899938Y-83762828D01*
X127898083Y-83775450D01*
X127896435Y-83787403D01*
X127896000Y-83790648D01*
X127896000Y-83943056D01*
X126564192Y-83943056D01*
X126564192Y-83790648D01*
X127176460Y-83790648D01*
X127163114Y-83781714D01*
X127150187Y-83772568D01*
X127137679Y-83763212D01*
X127125590Y-83753646D01*
X127113921Y-83743868D01*
X127102670Y-83733880D01*
X127091838Y-83723682D01*
X127081425Y-83713272D01*
X127071431Y-83702652D01*
X127061857Y-83691822D01*
X127052701Y-83680780D01*
X127043964Y-83669528D01*
X127035647Y-83658066D01*
X127027748Y-83646393D01*
X127020269Y-83634509D01*
X127013208Y-83622414D01*
X127006536Y-83610275D01*
X127000294Y-83598257D01*
X126994482Y-83586360D01*
X126989101Y-83574585D01*
X126984151Y-83562931D01*
X126979631Y-83551399D01*
X126975541Y-83539988D01*
X126971882Y-83528698D01*
X126967201Y-83511991D01*
X126963488Y-83495557D01*
X126960744Y-83479396D01*
X126960710Y-83479092D01*
X127089412Y-83479092D01*
X127090058Y-83492575D01*
X127091998Y-83506315D01*
X127095231Y-83520313D01*
X127099757Y-83534569D01*
X127105576Y-83549082D01*
X127112689Y-83563853D01*
X127121094Y-83578881D01*
X127127416Y-83589043D01*
X127134313Y-83599320D01*
X127141785Y-83609711D01*
X127149831Y-83620216D01*
X127158452Y-83630836D01*
X127162978Y-83636189D01*
X127172373Y-83646822D01*
X127182166Y-83657324D01*
X127192358Y-83667695D01*
X127202948Y-83677937D01*
X127213937Y-83688047D01*
X127225324Y-83698027D01*
X127237109Y-83707876D01*
X127249293Y-83717595D01*
X127261876Y-83727184D01*
X127274856Y-83736642D01*
X127288236Y-83745969D01*
X127302013Y-83755166D01*
X127316189Y-83764232D01*
X127330764Y-83773168D01*
X127345736Y-83781974D01*
X127361108Y-83790648D01*
X127761764Y-83790648D01*
X127765640Y-83775212D01*
X127769134Y-83760008D01*
X127772248Y-83745035D01*
X127774980Y-83730295D01*
X127777331Y-83715786D01*
X127779301Y-83701509D01*
X127780890Y-83687463D01*
X127782097Y-83673650D01*
X127782923Y-83660069D01*
X127783368Y-83646719D01*
X127783452Y-83637948D01*
X127783020Y-83620791D01*
X127781721Y-83603977D01*
X127779557Y-83587506D01*
X127776528Y-83571379D01*
X127772633Y-83555596D01*
X127767873Y-83540156D01*
X127762247Y-83525060D01*
X127755755Y-83510307D01*
X127748398Y-83495897D01*
X127740176Y-83481831D01*
X127731087Y-83468108D01*
X127721134Y-83454729D01*
X127710315Y-83441693D01*
X127698630Y-83429001D01*
X127686080Y-83416652D01*
X127672664Y-83404647D01*
X127658497Y-83393183D01*
X127643694Y-83382459D01*
X127628254Y-83372475D01*
X127612177Y-83363230D01*
X127595464Y-83354724D01*
X127578114Y-83346958D01*
X127560128Y-83339932D01*
X127541505Y-83333646D01*
X127522246Y-83328099D01*
X127502350Y-83323291D01*
X127481818Y-83319224D01*
X127460649Y-83315895D01*
X127438843Y-83313307D01*
X127416401Y-83311458D01*
X127393323Y-83310348D01*
X127381544Y-83310071D01*
X127369607Y-83309979D01*
X127352404Y-83310181D01*
X127335746Y-83310789D01*
X127319633Y-83311802D01*
X127304065Y-83313221D01*
X127289042Y-83315045D01*
X127274563Y-83317274D01*
X127260630Y-83319908D01*
X127247242Y-83322948D01*
X127234398Y-83326393D01*
X127222100Y-83330243D01*
X127210346Y-83334499D01*
X127199138Y-83339159D01*
X127188475Y-83344226D01*
X127173501Y-83352585D01*
X127159754Y-83361856D01*
X127147183Y-83371651D01*
X127135849Y-83381694D01*
X127125751Y-83391985D01*
X127116889Y-83402522D01*
X127109264Y-83413307D01*
X127102876Y-83424339D01*
X127097724Y-83435619D01*
X127093808Y-83447145D01*
X127091129Y-83458919D01*
X127089687Y-83470941D01*
X127089412Y-83479092D01*
X126960710Y-83479092D01*
X126958968Y-83463508D01*
X126958161Y-83447893D01*
X126958107Y-83442749D01*
X126958496Y-83428478D01*
X126959664Y-83414388D01*
X126961610Y-83400479D01*
X126964335Y-83386750D01*
X126967839Y-83373203D01*
X126972120Y-83359836D01*
X126977181Y-83346650D01*
X126983020Y-83333646D01*
X126989637Y-83320822D01*
X126997033Y-83308179D01*
X127005208Y-83295717D01*
X127014161Y-83283435D01*
X127023892Y-83271335D01*
X127034402Y-83259416D01*
X127045691Y-83247677D01*
X127057758Y-83236120D01*
X127070579Y-83224975D01*
X127084200Y-83214550D01*
X127098624Y-83204843D01*
X127113848Y-83195856D01*
X127129875Y-83187588D01*
X127146702Y-83180038D01*
X127164331Y-83173208D01*
X127182762Y-83167096D01*
X127201993Y-83161704D01*
X127222027Y-83157031D01*
X127242861Y-83153076D01*
X127264497Y-83149841D01*
X127286935Y-83147324D01*
X127310174Y-83145527D01*
X127322094Y-83144898D01*
X127334214Y-83144448D01*
X127346535Y-83144179D01*
X127359056Y-83144089D01*
X127378853Y-83144328D01*
G37*
G36*
X127449002Y-82113988D02*
G01*
X127461727Y-82114334D01*
X127474314Y-82114911D01*
X127486761Y-82115718D01*
X127499071Y-82116756D01*
X127511241Y-82118025D01*
X127523274Y-82119525D01*
X127535167Y-82121255D01*
X127546922Y-82123216D01*
X127558539Y-82125407D01*
X127570017Y-82127830D01*
X127592558Y-82133366D01*
X127614544Y-82139826D01*
X127635976Y-82147208D01*
X127656855Y-82155513D01*
X127677179Y-82164741D01*
X127696949Y-82174891D01*
X127716164Y-82185965D01*
X127734826Y-82197961D01*
X127752934Y-82210880D01*
X127770487Y-82224721D01*
X127779056Y-82231988D01*
X127795489Y-82247057D01*
X127810861Y-82262735D01*
X127825173Y-82279023D01*
X127838425Y-82295919D01*
X127850617Y-82313424D01*
X127861749Y-82331539D01*
X127871821Y-82350262D01*
X127880832Y-82369595D01*
X127888783Y-82389536D01*
X127895674Y-82410087D01*
X127901505Y-82431247D01*
X127906276Y-82453016D01*
X127909987Y-82475394D01*
X127912637Y-82498381D01*
X127913565Y-82510103D01*
X127914227Y-82521977D01*
X127914625Y-82534004D01*
X127914757Y-82546182D01*
X127914625Y-82558415D01*
X127914227Y-82570494D01*
X127913565Y-82582419D01*
X127912637Y-82594190D01*
X127909987Y-82617270D01*
X127906276Y-82639733D01*
X127901505Y-82661581D01*
X127895674Y-82682813D01*
X127888783Y-82703429D01*
X127880832Y-82723429D01*
X127871821Y-82742813D01*
X127861749Y-82761582D01*
X127850617Y-82779734D01*
X127838425Y-82797270D01*
X127825173Y-82814190D01*
X127810861Y-82830495D01*
X127795489Y-82846183D01*
X127779056Y-82861256D01*
X127761780Y-82875559D01*
X127743949Y-82888939D01*
X127725565Y-82901397D01*
X127706626Y-82912931D01*
X127687133Y-82923543D01*
X127667086Y-82933232D01*
X127646485Y-82941999D01*
X127625330Y-82949842D01*
X127603620Y-82956763D01*
X127581357Y-82962761D01*
X127558539Y-82967837D01*
X127546922Y-82970028D01*
X127535167Y-82971989D01*
X127523274Y-82973719D01*
X127511241Y-82975219D01*
X127499071Y-82976488D01*
X127486761Y-82977526D01*
X127474314Y-82978333D01*
X127461727Y-82978910D01*
X127449002Y-82979256D01*
X127436139Y-82979371D01*
X127423276Y-82979256D01*
X127410553Y-82978910D01*
X127397970Y-82978333D01*
X127385526Y-82977526D01*
X127373222Y-82976488D01*
X127361057Y-82975219D01*
X127349033Y-82973719D01*
X127337147Y-82971989D01*
X127325402Y-82970028D01*
X127313796Y-82967837D01*
X127291004Y-82962761D01*
X127268770Y-82956763D01*
X127247095Y-82949842D01*
X127225979Y-82941999D01*
X127205421Y-82933232D01*
X127185422Y-82923543D01*
X127165982Y-82912931D01*
X127147101Y-82901397D01*
X127128778Y-82888939D01*
X127111014Y-82875559D01*
X127093808Y-82861256D01*
X127077376Y-82846183D01*
X127062003Y-82830495D01*
X127047691Y-82814190D01*
X127034439Y-82797270D01*
X127022247Y-82779734D01*
X127011115Y-82761582D01*
X127001044Y-82742813D01*
X126992032Y-82723429D01*
X126984081Y-82703429D01*
X126977190Y-82682813D01*
X126971359Y-82661581D01*
X126966588Y-82639733D01*
X126962878Y-82617270D01*
X126960227Y-82594190D01*
X126959300Y-82582419D01*
X126958637Y-82570494D01*
X126958239Y-82558415D01*
X126958107Y-82546182D01*
X127089412Y-82546182D01*
X127089774Y-82561336D01*
X127090859Y-82576096D01*
X127092668Y-82590462D01*
X127095200Y-82604434D01*
X127098457Y-82618013D01*
X127102436Y-82631197D01*
X127107139Y-82643988D01*
X127112566Y-82656385D01*
X127118716Y-82668388D01*
X127125590Y-82679997D01*
X127133188Y-82691212D01*
X127141509Y-82702034D01*
X127150554Y-82712461D01*
X127160322Y-82722495D01*
X127170813Y-82732135D01*
X127182029Y-82741381D01*
X127193875Y-82750112D01*
X127206259Y-82758280D01*
X127219182Y-82765884D01*
X127232642Y-82772925D01*
X127246641Y-82779403D01*
X127261177Y-82785317D01*
X127276252Y-82790669D01*
X127291865Y-82795457D01*
X127308016Y-82799681D01*
X127324705Y-82803343D01*
X127341932Y-82806441D01*
X127359697Y-82808975D01*
X127378000Y-82810947D01*
X127396842Y-82812355D01*
X127416221Y-82813200D01*
X127436139Y-82813482D01*
X127456128Y-82813200D01*
X127475574Y-82812355D01*
X127494477Y-82810947D01*
X127512837Y-82808975D01*
X127530655Y-82806441D01*
X127547931Y-82803343D01*
X127564663Y-82799681D01*
X127580853Y-82795457D01*
X127596500Y-82790669D01*
X127611605Y-82785317D01*
X127626166Y-82779403D01*
X127640186Y-82772925D01*
X127653662Y-82765884D01*
X127666596Y-82758280D01*
X127678987Y-82750112D01*
X127690836Y-82741381D01*
X127702051Y-82732135D01*
X127712543Y-82722495D01*
X127722311Y-82712461D01*
X127731355Y-82702034D01*
X127739676Y-82691212D01*
X127747274Y-82679997D01*
X127754148Y-82668388D01*
X127760298Y-82656385D01*
X127765725Y-82643988D01*
X127770428Y-82631197D01*
X127774408Y-82618013D01*
X127777664Y-82604434D01*
X127780196Y-82590462D01*
X127782005Y-82576096D01*
X127783091Y-82561336D01*
X127783452Y-82546182D01*
X127783091Y-82531101D01*
X127782005Y-82516411D01*
X127780196Y-82502112D01*
X127777664Y-82488205D01*
X127774408Y-82474690D01*
X127770428Y-82461566D01*
X127765725Y-82448834D01*
X127760298Y-82436493D01*
X127754148Y-82424544D01*
X127747274Y-82412986D01*
X127739676Y-82401820D01*
X127731355Y-82391045D01*
X127722311Y-82380662D01*
X127712543Y-82370671D01*
X127702051Y-82361071D01*
X127690836Y-82351863D01*
X127678987Y-82343096D01*
X127666596Y-82334895D01*
X127653662Y-82327260D01*
X127640186Y-82320191D01*
X127626166Y-82313686D01*
X127611605Y-82307748D01*
X127596500Y-82302375D01*
X127580853Y-82297568D01*
X127564663Y-82293326D01*
X127547931Y-82289649D01*
X127530655Y-82286539D01*
X127512837Y-82283994D01*
X127494477Y-82282014D01*
X127475574Y-82280600D01*
X127456128Y-82279752D01*
X127436139Y-82279469D01*
X127416221Y-82279752D01*
X127396842Y-82280600D01*
X127378000Y-82282014D01*
X127359697Y-82283994D01*
X127341932Y-82286539D01*
X127324705Y-82289649D01*
X127308016Y-82293326D01*
X127291865Y-82297568D01*
X127276252Y-82302375D01*
X127261177Y-82307748D01*
X127246641Y-82313686D01*
X127232642Y-82320191D01*
X127219182Y-82327260D01*
X127206259Y-82334895D01*
X127193875Y-82343096D01*
X127182029Y-82351863D01*
X127170813Y-82361071D01*
X127160322Y-82370671D01*
X127150554Y-82380662D01*
X127141509Y-82391045D01*
X127133188Y-82401820D01*
X127125590Y-82412986D01*
X127118716Y-82424544D01*
X127112566Y-82436493D01*
X127107139Y-82448834D01*
X127102436Y-82461566D01*
X127098457Y-82474690D01*
X127095200Y-82488205D01*
X127092668Y-82502112D01*
X127090859Y-82516411D01*
X127089774Y-82531101D01*
X127089412Y-82546182D01*
X126958107Y-82546182D01*
X126958239Y-82534004D01*
X126958637Y-82521977D01*
X126959300Y-82510103D01*
X126960227Y-82498381D01*
X126962878Y-82475394D01*
X126966588Y-82453016D01*
X126971359Y-82431247D01*
X126977190Y-82410087D01*
X126984081Y-82389536D01*
X126992032Y-82369595D01*
X127001044Y-82350262D01*
X127011115Y-82331539D01*
X127022247Y-82313424D01*
X127034439Y-82295919D01*
X127047691Y-82279023D01*
X127062003Y-82262735D01*
X127077376Y-82247057D01*
X127093808Y-82231988D01*
X127111014Y-82217685D01*
X127128778Y-82204305D01*
X127147101Y-82191847D01*
X127165982Y-82180313D01*
X127185422Y-82169701D01*
X127205421Y-82160011D01*
X127225979Y-82151245D01*
X127247095Y-82143401D01*
X127268770Y-82136481D01*
X127291004Y-82130483D01*
X127313796Y-82125407D01*
X127325402Y-82123216D01*
X127337147Y-82121255D01*
X127349033Y-82119525D01*
X127361057Y-82118025D01*
X127373222Y-82116756D01*
X127385526Y-82115718D01*
X127397970Y-82114911D01*
X127410553Y-82114334D01*
X127423276Y-82113988D01*
X127436139Y-82113872D01*
X127449002Y-82113988D01*
G37*
G36*
X127896000Y-81820195D02*
G01*
X127896000Y-81996343D01*
X127416502Y-81636427D01*
X126976865Y-81972602D01*
X126976865Y-81777404D01*
X127287542Y-81539706D01*
X126976865Y-81306406D01*
X126976865Y-81133482D01*
X127402434Y-81451486D01*
X127896000Y-81073691D01*
X127896000Y-81269769D01*
X127531980Y-81548206D01*
X127896000Y-81820195D01*
G37*
G36*
X126995559Y-79095868D02*
G01*
X127010607Y-79096620D01*
X127025527Y-79097874D01*
X127040319Y-79099629D01*
X127054983Y-79101885D01*
X127069518Y-79104643D01*
X127083926Y-79107903D01*
X127098205Y-79111664D01*
X127112355Y-79115926D01*
X127126378Y-79120690D01*
X127140272Y-79125955D01*
X127154039Y-79131722D01*
X127167676Y-79137991D01*
X127181186Y-79144760D01*
X127194568Y-79152031D01*
X127207821Y-79159804D01*
X127220820Y-79167989D01*
X127233439Y-79176570D01*
X127245678Y-79185547D01*
X127257536Y-79194920D01*
X127269015Y-79204689D01*
X127280114Y-79214855D01*
X127290832Y-79225417D01*
X127301170Y-79236374D01*
X127311129Y-79247728D01*
X127320707Y-79259478D01*
X127329905Y-79271624D01*
X127338723Y-79284166D01*
X127347161Y-79297105D01*
X127355218Y-79310439D01*
X127362896Y-79324170D01*
X127370193Y-79338297D01*
X127377079Y-79352903D01*
X127383520Y-79368146D01*
X127389517Y-79384026D01*
X127395070Y-79400542D01*
X127400178Y-79417695D01*
X127404842Y-79435484D01*
X127409062Y-79453910D01*
X127412838Y-79472972D01*
X127416170Y-79492671D01*
X127419057Y-79513007D01*
X127421501Y-79533979D01*
X127423500Y-79555587D01*
X127425054Y-79577833D01*
X127426165Y-79600714D01*
X127426831Y-79624233D01*
X127426998Y-79636231D01*
X127427053Y-79648387D01*
X127427053Y-79715799D01*
X127896000Y-79715799D01*
X127896000Y-79881395D01*
X126620466Y-79881395D01*
X126620466Y-79715799D01*
X126751771Y-79715799D01*
X127295748Y-79715799D01*
X127295748Y-79644284D01*
X127295596Y-79625430D01*
X127295139Y-79607190D01*
X127294378Y-79589563D01*
X127293312Y-79572550D01*
X127291942Y-79556151D01*
X127290267Y-79540365D01*
X127288287Y-79525193D01*
X127286003Y-79510635D01*
X127283414Y-79496690D01*
X127280521Y-79483359D01*
X127277324Y-79470641D01*
X127273821Y-79458538D01*
X127270015Y-79447047D01*
X127263733Y-79430963D01*
X127256767Y-79416259D01*
X127249104Y-79402550D01*
X127240844Y-79389448D01*
X127231986Y-79376955D01*
X127222530Y-79365069D01*
X127212477Y-79353791D01*
X127201826Y-79343121D01*
X127190578Y-79333059D01*
X127178732Y-79323606D01*
X127166288Y-79314760D01*
X127153246Y-79306522D01*
X127144220Y-79301367D01*
X127130373Y-79294191D01*
X127116310Y-79287721D01*
X127102030Y-79281957D01*
X127087534Y-79276899D01*
X127072822Y-79272546D01*
X127057893Y-79268899D01*
X127042748Y-79265958D01*
X127027386Y-79263723D01*
X127011809Y-79262194D01*
X126996014Y-79261371D01*
X126985364Y-79261214D01*
X126972059Y-79261494D01*
X126959105Y-79262336D01*
X126946505Y-79263738D01*
X126934257Y-79265702D01*
X126922361Y-79268226D01*
X126910818Y-79271312D01*
X126899628Y-79274958D01*
X126883504Y-79281480D01*
X126868174Y-79289264D01*
X126853636Y-79298310D01*
X126839893Y-79308618D01*
X126826942Y-79320188D01*
X126818749Y-79328603D01*
X126814785Y-79333021D01*
X126807155Y-79342543D01*
X126800016Y-79353157D01*
X126793370Y-79364864D01*
X126787216Y-79377663D01*
X126781555Y-79391554D01*
X126776386Y-79406537D01*
X126771709Y-79422612D01*
X126767524Y-79439780D01*
X126763832Y-79458040D01*
X126760632Y-79477392D01*
X126757924Y-79497836D01*
X126755709Y-79519372D01*
X126753986Y-79542001D01*
X126753309Y-79553725D01*
X126752755Y-79565722D01*
X126752324Y-79577992D01*
X126752017Y-79590535D01*
X126751832Y-79603351D01*
X126751771Y-79616441D01*
X126751771Y-79715799D01*
X126620466Y-79715799D01*
X126620466Y-79564856D01*
X126620509Y-79552760D01*
X126620637Y-79540870D01*
X126621153Y-79517710D01*
X126622011Y-79495377D01*
X126623213Y-79473870D01*
X126624759Y-79453190D01*
X126626648Y-79433336D01*
X126628881Y-79414309D01*
X126631457Y-79396109D01*
X126634376Y-79378735D01*
X126637639Y-79362188D01*
X126641245Y-79346468D01*
X126645195Y-79331574D01*
X126649489Y-79317507D01*
X126654125Y-79304266D01*
X126659106Y-79291852D01*
X126664429Y-79280265D01*
X126670047Y-79269254D01*
X126675984Y-79258571D01*
X126682238Y-79248216D01*
X126688811Y-79238188D01*
X126695702Y-79228487D01*
X126702911Y-79219114D01*
X126710439Y-79210068D01*
X126718285Y-79201350D01*
X126730651Y-79188886D01*
X126743732Y-79177159D01*
X126752851Y-79169751D01*
X126762289Y-79162670D01*
X126772044Y-79155916D01*
X126782118Y-79149490D01*
X126792510Y-79143391D01*
X126803102Y-79137606D01*
X126813846Y-79132194D01*
X126824745Y-79127155D01*
X126835796Y-79122490D01*
X126847001Y-79118198D01*
X126858360Y-79114279D01*
X126869872Y-79110733D01*
X126881537Y-79107561D01*
X126893356Y-79104761D01*
X126905328Y-79102335D01*
X126917453Y-79100283D01*
X126929732Y-79098603D01*
X126942164Y-79097297D01*
X126954750Y-79096364D01*
X126967489Y-79095804D01*
X126980382Y-79095617D01*
X126995559Y-79095868D01*
G37*
G36*
X127878414Y-78125191D02*
G01*
X127885086Y-78142918D01*
X127891328Y-78160413D01*
X127897140Y-78177677D01*
X127902521Y-78194709D01*
X127907471Y-78211510D01*
X127911991Y-78228080D01*
X127916081Y-78244419D01*
X127919740Y-78260526D01*
X127922968Y-78276403D01*
X127925767Y-78292047D01*
X127928134Y-78307461D01*
X127930071Y-78322643D01*
X127931578Y-78337595D01*
X127932654Y-78352314D01*
X127933300Y-78366803D01*
X127933515Y-78381060D01*
X127933203Y-78399651D01*
X127932265Y-78418054D01*
X127930702Y-78436269D01*
X127928514Y-78454296D01*
X127925701Y-78472136D01*
X127922263Y-78489788D01*
X127918200Y-78507252D01*
X127913512Y-78524528D01*
X127908198Y-78541617D01*
X127902260Y-78558518D01*
X127895696Y-78575231D01*
X127888507Y-78591756D01*
X127880693Y-78608094D01*
X127872255Y-78624244D01*
X127863190Y-78640206D01*
X127853501Y-78655980D01*
X127843195Y-78671443D01*
X127832280Y-78686471D01*
X127820755Y-78701063D01*
X127808622Y-78715221D01*
X127795879Y-78728944D01*
X127782527Y-78742231D01*
X127768567Y-78755084D01*
X127753997Y-78767501D01*
X127738818Y-78779484D01*
X127723030Y-78791031D01*
X127706633Y-78802143D01*
X127689627Y-78812821D01*
X127672011Y-78823063D01*
X127653787Y-78832870D01*
X127634954Y-78842242D01*
X127615511Y-78851179D01*
X127595603Y-78859626D01*
X127575371Y-78867528D01*
X127554817Y-78874885D01*
X127533940Y-78881697D01*
X127512740Y-78887964D01*
X127491217Y-78893686D01*
X127469372Y-78898863D01*
X127447203Y-78903496D01*
X127424712Y-78907583D01*
X127401898Y-78911125D01*
X127378761Y-78914123D01*
X127367071Y-78915417D01*
X127355301Y-78916575D01*
X127343450Y-78917597D01*
X127331518Y-78918482D01*
X127319506Y-78919232D01*
X127307412Y-78919845D01*
X127295239Y-78920322D01*
X127282984Y-78920662D01*
X127270649Y-78920866D01*
X127258233Y-78920935D01*
X127245907Y-78920867D01*
X127233661Y-78920666D01*
X127221494Y-78920329D01*
X127209405Y-78919858D01*
X127197396Y-78919253D01*
X127185466Y-78918513D01*
X127173614Y-78917639D01*
X127161842Y-78916630D01*
X127150149Y-78915486D01*
X127126999Y-78912796D01*
X127104166Y-78909567D01*
X127081648Y-78905801D01*
X127059446Y-78901496D01*
X127037561Y-78896653D01*
X127015991Y-78891272D01*
X126994737Y-78885353D01*
X126973799Y-78878896D01*
X126953178Y-78871900D01*
X126932872Y-78864367D01*
X126912882Y-78856296D01*
X126903006Y-78852058D01*
X126883594Y-78843228D01*
X126864780Y-78833955D01*
X126846564Y-78824241D01*
X126828945Y-78814084D01*
X126811924Y-78803486D01*
X126795501Y-78792446D01*
X126779675Y-78780964D01*
X126764447Y-78769040D01*
X126749816Y-78756674D01*
X126735783Y-78743866D01*
X126722348Y-78730616D01*
X126709510Y-78716925D01*
X126697270Y-78702791D01*
X126685628Y-78688215D01*
X126674583Y-78673198D01*
X126664136Y-78657739D01*
X126654305Y-78641923D01*
X126645108Y-78625911D01*
X126636546Y-78609701D01*
X126628617Y-78593295D01*
X126621323Y-78576692D01*
X126614663Y-78559892D01*
X126608638Y-78542895D01*
X126603247Y-78525701D01*
X126598490Y-78508310D01*
X126594367Y-78490722D01*
X126590878Y-78472938D01*
X126588024Y-78454956D01*
X126585804Y-78436777D01*
X126584218Y-78418402D01*
X126583267Y-78399830D01*
X126582950Y-78381060D01*
X126583164Y-78366803D01*
X126583806Y-78352314D01*
X126584877Y-78337595D01*
X126586375Y-78322643D01*
X126588302Y-78307461D01*
X126590657Y-78292047D01*
X126593441Y-78276403D01*
X126596652Y-78260526D01*
X126600292Y-78244419D01*
X126604359Y-78228080D01*
X126608855Y-78211510D01*
X126613780Y-78194709D01*
X126619132Y-78177677D01*
X126624912Y-78160413D01*
X126631121Y-78142918D01*
X126637758Y-78125191D01*
X126769063Y-78125191D01*
X126762426Y-78141708D01*
X126756217Y-78158210D01*
X126750437Y-78174699D01*
X126745084Y-78191174D01*
X126740160Y-78207635D01*
X126735664Y-78224082D01*
X126731597Y-78240516D01*
X126727957Y-78256936D01*
X126724746Y-78273342D01*
X126721962Y-78289735D01*
X126719607Y-78306114D01*
X126717680Y-78322479D01*
X126716182Y-78338830D01*
X126715111Y-78355167D01*
X126714469Y-78371491D01*
X126714255Y-78387801D01*
X126714516Y-78400046D01*
X126715299Y-78412160D01*
X126716604Y-78424144D01*
X126718431Y-78435997D01*
X126720781Y-78447719D01*
X126723652Y-78459311D01*
X126727046Y-78470773D01*
X126730961Y-78482103D01*
X126735399Y-78493304D01*
X126740358Y-78504374D01*
X126745840Y-78515313D01*
X126751844Y-78526122D01*
X126758370Y-78536801D01*
X126765418Y-78547348D01*
X126772988Y-78557766D01*
X126781080Y-78568053D01*
X126789677Y-78578115D01*
X126798761Y-78587932D01*
X126808334Y-78597505D01*
X126818394Y-78606832D01*
X126828942Y-78615915D01*
X126839977Y-78624752D01*
X126851501Y-78633344D01*
X126863512Y-78641692D01*
X126876010Y-78649794D01*
X126888997Y-78657651D01*
X126902471Y-78665264D01*
X126916433Y-78672631D01*
X126930883Y-78679754D01*
X126945820Y-78686631D01*
X126961245Y-78693263D01*
X126977158Y-78699651D01*
X126993367Y-78705684D01*
X127009755Y-78711328D01*
X127026322Y-78716583D01*
X127043067Y-78721449D01*
X127059991Y-78725926D01*
X127077093Y-78730013D01*
X127094374Y-78733711D01*
X127111833Y-78737020D01*
X127129472Y-78739939D01*
X127147288Y-78742469D01*
X127165284Y-78744610D01*
X127183458Y-78746362D01*
X127201810Y-78747724D01*
X127220341Y-78748698D01*
X127239051Y-78749281D01*
X127257939Y-78749476D01*
X127277082Y-78749275D01*
X127296041Y-78748670D01*
X127314818Y-78747663D01*
X127333411Y-78746252D01*
X127351820Y-78744439D01*
X127370047Y-78742222D01*
X127388090Y-78739603D01*
X127405951Y-78736580D01*
X127423628Y-78733155D01*
X127441122Y-78729326D01*
X127458432Y-78725095D01*
X127475560Y-78720460D01*
X127492504Y-78715423D01*
X127509265Y-78709982D01*
X127525843Y-78704139D01*
X127542238Y-78697892D01*
X127558285Y-78691296D01*
X127573819Y-78684479D01*
X127588840Y-78677439D01*
X127603348Y-78670177D01*
X127617343Y-78662692D01*
X127630825Y-78654986D01*
X127643794Y-78647058D01*
X127656251Y-78638907D01*
X127668194Y-78630535D01*
X127679625Y-78621940D01*
X127690542Y-78613123D01*
X127700947Y-78604084D01*
X127710839Y-78594823D01*
X127720218Y-78585340D01*
X127729084Y-78575635D01*
X127737437Y-78565708D01*
X127745281Y-78555602D01*
X127752618Y-78545361D01*
X127759450Y-78534985D01*
X127765775Y-78524474D01*
X127771595Y-78513827D01*
X127776908Y-78503046D01*
X127781716Y-78492129D01*
X127786017Y-78481078D01*
X127789812Y-78469891D01*
X127793102Y-78458569D01*
X127795885Y-78447112D01*
X127798162Y-78435520D01*
X127799933Y-78423793D01*
X127801198Y-78411931D01*
X127801957Y-78399934D01*
X127802210Y-78387801D01*
X127801995Y-78371560D01*
X127801349Y-78355296D01*
X127800273Y-78339008D01*
X127798766Y-78322698D01*
X127796829Y-78306365D01*
X127794462Y-78290010D01*
X127791664Y-78273631D01*
X127788435Y-78257229D01*
X127784776Y-78240805D01*
X127780686Y-78224357D01*
X127776166Y-78207887D01*
X127771216Y-78191393D01*
X127765835Y-78174877D01*
X127760023Y-78158338D01*
X127753781Y-78141776D01*
X127747109Y-78125191D01*
X127878414Y-78125191D01*
G37*
G36*
X127586289Y-77123807D02*
G01*
X127601827Y-77125012D01*
X127617283Y-77127022D01*
X127632657Y-77129835D01*
X127647948Y-77133451D01*
X127663157Y-77137872D01*
X127678283Y-77143096D01*
X127693327Y-77149124D01*
X127708288Y-77155955D01*
X127723167Y-77163591D01*
X127733041Y-77169127D01*
X127747449Y-77177967D01*
X127761219Y-77187451D01*
X127774349Y-77197579D01*
X127786841Y-77208351D01*
X127798694Y-77219767D01*
X127809908Y-77231827D01*
X127820484Y-77244531D01*
X127830420Y-77257879D01*
X127839718Y-77271871D01*
X127848377Y-77286507D01*
X127853794Y-77296622D01*
X127858905Y-77307265D01*
X127863686Y-77318677D01*
X127868137Y-77330859D01*
X127872259Y-77343810D01*
X127876051Y-77357530D01*
X127879513Y-77372020D01*
X127882646Y-77387279D01*
X127885448Y-77403307D01*
X127887921Y-77420105D01*
X127890064Y-77437672D01*
X127891878Y-77456009D01*
X127893362Y-77475115D01*
X127894516Y-77494990D01*
X127895340Y-77515635D01*
X127895835Y-77537049D01*
X127896000Y-77559232D01*
X127896000Y-77868443D01*
X126620466Y-77868443D01*
X126620466Y-77702554D01*
X126751771Y-77702554D01*
X127201959Y-77702554D01*
X127333264Y-77702554D01*
X127764695Y-77702554D01*
X127764695Y-77546043D01*
X127764461Y-77529898D01*
X127763760Y-77514288D01*
X127762593Y-77499215D01*
X127760958Y-77484677D01*
X127758856Y-77470675D01*
X127756286Y-77457209D01*
X127753250Y-77444278D01*
X127749747Y-77431884D01*
X127745776Y-77420025D01*
X127741339Y-77408702D01*
X127736434Y-77397915D01*
X127728201Y-77382739D01*
X127718917Y-77368768D01*
X127708582Y-77356003D01*
X127704904Y-77352016D01*
X127693424Y-77340807D01*
X127681517Y-77330701D01*
X127669183Y-77321697D01*
X127656420Y-77313795D01*
X127643230Y-77306996D01*
X127629613Y-77301300D01*
X127615567Y-77296706D01*
X127601095Y-77293215D01*
X127586194Y-77290826D01*
X127570866Y-77289540D01*
X127560410Y-77289295D01*
X127545105Y-77289835D01*
X127530112Y-77291456D01*
X127515429Y-77294158D01*
X127501059Y-77297941D01*
X127487000Y-77302804D01*
X127473252Y-77308749D01*
X127459815Y-77315774D01*
X127446690Y-77323879D01*
X127437099Y-77330641D01*
X127427889Y-77338068D01*
X127419060Y-77346159D01*
X127410613Y-77354915D01*
X127402546Y-77364336D01*
X127394861Y-77374421D01*
X127387557Y-77385170D01*
X127380635Y-77396584D01*
X127374094Y-77408663D01*
X127367933Y-77421407D01*
X127364039Y-77430272D01*
X127358539Y-77444512D01*
X127353580Y-77460194D01*
X127349162Y-77477320D01*
X127346517Y-77489538D01*
X127344113Y-77502397D01*
X127341949Y-77515898D01*
X127340026Y-77530040D01*
X127338343Y-77544822D01*
X127336900Y-77560246D01*
X127335698Y-77576311D01*
X127334737Y-77593018D01*
X127334015Y-77610365D01*
X127333534Y-77628353D01*
X127333294Y-77646983D01*
X127333264Y-77656538D01*
X127333264Y-77702554D01*
X127201959Y-77702554D01*
X127201959Y-77528750D01*
X127195224Y-77513323D01*
X127188426Y-77498694D01*
X127181567Y-77484863D01*
X127174647Y-77471831D01*
X127167664Y-77459598D01*
X127160619Y-77448163D01*
X127153513Y-77437527D01*
X127146345Y-77427689D01*
X127136691Y-77415814D01*
X127126928Y-77405359D01*
X127116898Y-77395920D01*
X127106594Y-77387096D01*
X127096016Y-77378884D01*
X127085162Y-77371287D01*
X127074034Y-77364303D01*
X127062631Y-77357933D01*
X127050953Y-77352177D01*
X127039000Y-77347034D01*
X127026695Y-77342500D01*
X127014106Y-77338571D01*
X127001233Y-77335246D01*
X126988076Y-77332526D01*
X126974635Y-77330410D01*
X126960910Y-77328899D01*
X126946901Y-77327992D01*
X126932608Y-77327690D01*
X126915874Y-77328156D01*
X126899965Y-77329555D01*
X126884880Y-77331886D01*
X126870619Y-77335150D01*
X126857183Y-77339346D01*
X126844571Y-77344475D01*
X126832783Y-77350536D01*
X126821819Y-77357530D01*
X126811680Y-77365456D01*
X126802366Y-77374315D01*
X126796614Y-77380739D01*
X126788600Y-77391515D01*
X126781374Y-77404057D01*
X126774937Y-77418367D01*
X126769287Y-77434444D01*
X126765959Y-77446143D01*
X126762981Y-77458628D01*
X126760354Y-77471899D01*
X126758077Y-77485954D01*
X126756150Y-77500796D01*
X126754573Y-77516422D01*
X126753347Y-77532834D01*
X126752471Y-77550032D01*
X126751946Y-77568014D01*
X126751771Y-77586782D01*
X126751771Y-77702554D01*
X126620466Y-77702554D01*
X126620466Y-77619902D01*
X126620499Y-77606033D01*
X126620601Y-77592455D01*
X126620770Y-77579168D01*
X126621006Y-77566170D01*
X126621310Y-77553463D01*
X126621682Y-77541045D01*
X126622121Y-77528918D01*
X126622627Y-77517082D01*
X126623843Y-77494279D01*
X126625329Y-77472637D01*
X126627085Y-77452156D01*
X126629112Y-77432836D01*
X126631408Y-77414677D01*
X126633975Y-77397679D01*
X126636812Y-77381842D01*
X126639920Y-77367165D01*
X126643297Y-77353650D01*
X126646945Y-77341296D01*
X126650862Y-77330102D01*
X126655050Y-77320069D01*
X126661824Y-77306171D01*
X126669174Y-77292942D01*
X126677101Y-77280383D01*
X126685605Y-77268494D01*
X126694686Y-77257275D01*
X126704345Y-77246725D01*
X126714580Y-77236846D01*
X126725392Y-77227636D01*
X126736782Y-77219095D01*
X126748748Y-77211225D01*
X126757046Y-77206350D01*
X126769856Y-77199593D01*
X126783005Y-77193501D01*
X126796495Y-77188073D01*
X126810325Y-77183310D01*
X126824494Y-77179212D01*
X126839004Y-77175778D01*
X126853854Y-77173009D01*
X126869044Y-77170904D01*
X126884574Y-77169464D01*
X126900444Y-77168689D01*
X126911212Y-77168541D01*
X126923955Y-77168737D01*
X126936574Y-77169324D01*
X126949069Y-77170303D01*
X126961441Y-77171673D01*
X126973689Y-77173435D01*
X126985813Y-77175589D01*
X126997814Y-77178134D01*
X127009691Y-77181071D01*
X127021444Y-77184399D01*
X127033074Y-77188119D01*
X127040759Y-77190816D01*
X127052149Y-77195128D01*
X127063349Y-77199822D01*
X127074357Y-77204896D01*
X127085176Y-77210352D01*
X127095804Y-77216190D01*
X127106241Y-77222408D01*
X127116487Y-77229008D01*
X127126543Y-77235989D01*
X127136408Y-77243351D01*
X127146083Y-77251094D01*
X127152427Y-77256468D01*
X127161830Y-77264949D01*
X127171135Y-77274126D01*
X127180343Y-77283998D01*
X127189452Y-77294566D01*
X127198464Y-77305829D01*
X127207378Y-77317788D01*
X127216194Y-77330442D01*
X127224912Y-77343791D01*
X127233532Y-77357837D01*
X127242054Y-77372577D01*
X127247681Y-77382791D01*
X127255299Y-77364197D01*
X127263133Y-77346370D01*
X127271181Y-77329310D01*
X127279445Y-77313017D01*
X127287924Y-77297491D01*
X127296618Y-77282732D01*
X127305528Y-77268741D01*
X127314653Y-77255516D01*
X127323993Y-77243058D01*
X127333548Y-77231368D01*
X127343318Y-77220445D01*
X127353304Y-77210288D01*
X127363505Y-77200899D01*
X127373921Y-77192277D01*
X127384553Y-77184422D01*
X127395399Y-77177334D01*
X127406354Y-77170803D01*
X127417308Y-77164694D01*
X127428262Y-77159006D01*
X127439217Y-77153740D01*
X127450171Y-77148895D01*
X127461125Y-77144471D01*
X127477557Y-77138625D01*
X127493988Y-77133727D01*
X127510419Y-77129777D01*
X127526851Y-77126775D01*
X127543282Y-77124722D01*
X127559714Y-77123616D01*
X127570668Y-77123405D01*
X127586289Y-77123807D01*
G37*
G36*
X127896000Y-75567969D02*
G01*
X126976865Y-75965987D01*
X126976865Y-75798632D01*
X127705490Y-75484438D01*
X126976865Y-75163503D01*
X126976865Y-75011095D01*
X127896000Y-75412044D01*
X127896000Y-75567969D01*
G37*
G36*
X127464569Y-74713900D02*
G01*
X127481578Y-74713553D01*
X127498315Y-74712509D01*
X127514778Y-74710771D01*
X127530968Y-74708336D01*
X127546885Y-74705206D01*
X127562529Y-74701381D01*
X127577900Y-74696860D01*
X127592998Y-74691644D01*
X127607823Y-74685732D01*
X127622375Y-74679124D01*
X127631924Y-74674333D01*
X127645773Y-74666640D01*
X127658962Y-74658510D01*
X127671491Y-74649941D01*
X127683362Y-74640934D01*
X127694572Y-74631490D01*
X127705124Y-74621608D01*
X127715016Y-74611287D01*
X127724248Y-74600529D01*
X127732821Y-74589333D01*
X127740734Y-74577699D01*
X127745644Y-74569699D01*
X127752400Y-74557345D01*
X127758493Y-74544681D01*
X127763920Y-74531709D01*
X127768683Y-74518427D01*
X127772782Y-74504836D01*
X127776216Y-74490936D01*
X127778985Y-74476726D01*
X127781089Y-74462208D01*
X127782529Y-74447381D01*
X127783305Y-74432244D01*
X127783452Y-74421981D01*
X127783083Y-74403395D01*
X127781973Y-74384566D01*
X127780124Y-74365495D01*
X127777536Y-74346181D01*
X127774207Y-74326624D01*
X127770140Y-74306824D01*
X127765332Y-74286781D01*
X127759785Y-74266496D01*
X127753499Y-74245969D01*
X127746473Y-74225198D01*
X127738707Y-74204185D01*
X127730201Y-74182929D01*
X127720956Y-74161430D01*
X127716057Y-74150590D01*
X127710972Y-74139689D01*
X127705702Y-74128727D01*
X127700248Y-74117704D01*
X127694608Y-74106621D01*
X127688784Y-74095478D01*
X127825658Y-74095478D01*
X127831139Y-74106889D01*
X127836447Y-74118262D01*
X127841581Y-74129597D01*
X127846540Y-74140893D01*
X127851326Y-74152151D01*
X127855938Y-74163371D01*
X127860375Y-74174552D01*
X127864639Y-74185695D01*
X127868728Y-74196799D01*
X127872644Y-74207865D01*
X127879953Y-74229883D01*
X127886566Y-74251747D01*
X127892482Y-74273457D01*
X127897703Y-74295014D01*
X127902228Y-74316418D01*
X127906056Y-74337668D01*
X127909189Y-74358765D01*
X127911625Y-74379709D01*
X127913365Y-74400499D01*
X127914409Y-74421135D01*
X127914757Y-74441618D01*
X127914520Y-74457013D01*
X127913809Y-74472201D01*
X127912624Y-74487183D01*
X127910965Y-74501959D01*
X127908833Y-74516529D01*
X127906226Y-74530892D01*
X127903145Y-74545050D01*
X127899590Y-74559002D01*
X127895561Y-74572747D01*
X127891058Y-74586287D01*
X127886081Y-74599620D01*
X127880631Y-74612747D01*
X127874706Y-74625668D01*
X127868307Y-74638384D01*
X127861434Y-74650893D01*
X127854087Y-74663196D01*
X127846263Y-74675243D01*
X127838032Y-74686986D01*
X127829392Y-74698425D01*
X127820345Y-74709559D01*
X127810891Y-74720388D01*
X127801029Y-74730913D01*
X127790759Y-74741134D01*
X127780082Y-74751050D01*
X127768997Y-74760661D01*
X127757505Y-74769968D01*
X127745605Y-74778970D01*
X127733297Y-74787668D01*
X127720582Y-74796061D01*
X127707459Y-74804150D01*
X127693929Y-74811934D01*
X127679991Y-74819413D01*
X127665789Y-74826512D01*
X127651465Y-74833152D01*
X127637020Y-74839334D01*
X127622454Y-74845059D01*
X127607766Y-74850325D01*
X127592957Y-74855134D01*
X127578026Y-74859484D01*
X127562974Y-74863377D01*
X127547801Y-74866812D01*
X127532507Y-74869788D01*
X127517091Y-74872307D01*
X127501553Y-74874368D01*
X127485895Y-74875971D01*
X127470115Y-74877116D01*
X127454213Y-74877803D01*
X127438191Y-74878032D01*
X127422696Y-74877814D01*
X127407279Y-74877161D01*
X127391940Y-74876074D01*
X127376678Y-74874551D01*
X127361495Y-74872593D01*
X127346389Y-74870201D01*
X127331361Y-74867373D01*
X127316411Y-74864110D01*
X127301539Y-74860412D01*
X127286745Y-74856279D01*
X127272028Y-74851711D01*
X127257390Y-74846707D01*
X127242829Y-74841269D01*
X127228346Y-74835396D01*
X127213941Y-74829088D01*
X127199614Y-74822344D01*
X127185524Y-74815175D01*
X127171830Y-74807662D01*
X127158532Y-74799806D01*
X127145631Y-74791606D01*
X127133125Y-74783063D01*
X127121015Y-74774176D01*
X127109302Y-74764946D01*
X127097985Y-74755373D01*
X127087064Y-74745456D01*
X127076539Y-74735195D01*
X127066410Y-74724591D01*
X127056677Y-74713644D01*
X127047341Y-74702353D01*
X127038400Y-74690719D01*
X127029856Y-74678741D01*
X127021708Y-74666420D01*
X127014006Y-74653802D01*
X127006801Y-74641008D01*
X127000093Y-74628037D01*
X126993882Y-74614890D01*
X126988168Y-74601567D01*
X126982951Y-74588068D01*
X126978231Y-74574392D01*
X126974007Y-74560540D01*
X126970281Y-74546512D01*
X126967051Y-74532307D01*
X126964318Y-74517926D01*
X126962082Y-74503369D01*
X126960343Y-74488636D01*
X126959101Y-74473726D01*
X126958355Y-74458640D01*
X126958217Y-74450118D01*
X127089412Y-74450118D01*
X127089997Y-74467265D01*
X127091751Y-74483974D01*
X127094675Y-74500244D01*
X127098768Y-74516077D01*
X127104031Y-74531472D01*
X127110463Y-74546430D01*
X127118065Y-74560949D01*
X127126836Y-74575030D01*
X127136777Y-74588673D01*
X127147887Y-74601879D01*
X127155944Y-74610439D01*
X127164472Y-74618743D01*
X127173497Y-74626729D01*
X127183019Y-74634396D01*
X127193038Y-74641745D01*
X127203554Y-74648776D01*
X127214567Y-74655488D01*
X127226076Y-74661882D01*
X127238083Y-74667958D01*
X127250586Y-74673716D01*
X127263586Y-74679155D01*
X127277083Y-74684276D01*
X127291077Y-74689079D01*
X127305568Y-74693564D01*
X127320556Y-74697730D01*
X127336040Y-74701578D01*
X127352022Y-74705108D01*
X127352022Y-74248178D01*
X127330333Y-74248178D01*
X127316699Y-74248393D01*
X127303419Y-74249039D01*
X127290494Y-74250115D01*
X127277925Y-74251622D01*
X127265710Y-74253559D01*
X127253850Y-74255927D01*
X127242345Y-74258725D01*
X127225753Y-74263729D01*
X127209960Y-74269702D01*
X127194965Y-74276644D01*
X127180768Y-74284554D01*
X127167371Y-74293432D01*
X127154771Y-74303279D01*
X127143091Y-74313883D01*
X127132559Y-74325141D01*
X127123177Y-74337053D01*
X127114943Y-74349620D01*
X127107858Y-74362841D01*
X127101922Y-74376716D01*
X127097135Y-74391245D01*
X127093497Y-74406429D01*
X127091008Y-74422267D01*
X127089667Y-74438760D01*
X127089412Y-74450118D01*
X126958217Y-74450118D01*
X126958107Y-74443377D01*
X126958560Y-74423222D01*
X126959920Y-74403572D01*
X126962187Y-74384424D01*
X126965361Y-74365781D01*
X126969441Y-74347641D01*
X126974428Y-74330006D01*
X126980322Y-74312873D01*
X126987123Y-74296245D01*
X126994830Y-74280121D01*
X127003445Y-74264500D01*
X127012965Y-74249383D01*
X127023393Y-74234769D01*
X127034727Y-74220660D01*
X127046969Y-74207054D01*
X127060117Y-74193952D01*
X127074171Y-74181353D01*
X127089170Y-74169357D01*
X127105152Y-74158135D01*
X127122116Y-74147687D01*
X127140062Y-74138012D01*
X127158990Y-74129112D01*
X127178901Y-74120986D01*
X127199794Y-74113633D01*
X127221669Y-74107055D01*
X127244527Y-74101250D01*
X127256324Y-74098638D01*
X127268367Y-74096219D01*
X127280656Y-74093994D01*
X127293189Y-74091963D01*
X127305969Y-74090125D01*
X127318994Y-74088480D01*
X127332265Y-74087029D01*
X127345781Y-74085771D01*
X127359543Y-74084707D01*
X127373550Y-74083836D01*
X127387803Y-74083159D01*
X127402302Y-74082675D01*
X127417046Y-74082385D01*
X127432036Y-74082288D01*
X127464569Y-74082288D01*
X127464569Y-74713900D01*
G37*
G36*
X127896000Y-73771318D02*
G01*
X126976865Y-73771318D01*
X126976865Y-73618911D01*
X127178512Y-73618911D01*
X127164917Y-73609891D01*
X127151758Y-73600712D01*
X127139034Y-73591372D01*
X127126744Y-73581871D01*
X127114890Y-73572211D01*
X127103471Y-73562390D01*
X127092487Y-73552409D01*
X127081938Y-73542267D01*
X127071824Y-73531966D01*
X127062145Y-73521504D01*
X127052901Y-73510882D01*
X127044093Y-73500099D01*
X127035719Y-73489156D01*
X127027780Y-73478053D01*
X127020277Y-73466790D01*
X127013208Y-73455366D01*
X127006536Y-73443743D01*
X127000294Y-73431955D01*
X126994482Y-73420003D01*
X126989101Y-73407885D01*
X126984151Y-73395603D01*
X126979631Y-73383155D01*
X126975541Y-73370543D01*
X126971882Y-73357766D01*
X126968654Y-73344825D01*
X126965856Y-73331718D01*
X126963488Y-73318446D01*
X126961551Y-73305010D01*
X126960044Y-73291409D01*
X126958968Y-73277643D01*
X126958322Y-73263712D01*
X126958107Y-73249616D01*
X126958272Y-73234116D01*
X126958766Y-73218611D01*
X126959591Y-73203101D01*
X126960745Y-73187586D01*
X126962229Y-73172065D01*
X126964042Y-73156540D01*
X126966185Y-73141009D01*
X126968658Y-73125473D01*
X126971461Y-73109932D01*
X126974593Y-73094386D01*
X126976865Y-73084019D01*
X127314506Y-73084019D01*
X127314506Y-73230858D01*
X127096153Y-73230858D01*
X127094211Y-73242540D01*
X127092315Y-73255482D01*
X127090893Y-73267249D01*
X127089833Y-73279493D01*
X127089412Y-73291528D01*
X127090022Y-73307491D01*
X127091854Y-73323398D01*
X127094907Y-73339248D01*
X127099180Y-73355042D01*
X127104675Y-73370778D01*
X127111390Y-73386458D01*
X127119327Y-73402082D01*
X127125296Y-73412466D01*
X127131809Y-73422825D01*
X127138863Y-73433159D01*
X127146461Y-73443467D01*
X127154601Y-73453751D01*
X127158875Y-73458883D01*
X127167830Y-73469125D01*
X127177330Y-73479335D01*
X127187375Y-73489513D01*
X127197966Y-73499659D01*
X127209101Y-73509773D01*
X127220781Y-73519855D01*
X127233006Y-73529905D01*
X127245776Y-73539923D01*
X127259091Y-73549908D01*
X127272951Y-73559862D01*
X127287356Y-73569784D01*
X127302306Y-73579673D01*
X127317801Y-73589531D01*
X127333841Y-73599356D01*
X127350426Y-73609150D01*
X127367556Y-73618911D01*
X127896000Y-73618911D01*
X127896000Y-73771318D01*
G37*
G36*
X127896000Y-71067550D02*
G01*
X127896000Y-71837794D01*
X127757660Y-71837794D01*
X127744206Y-71837451D01*
X127730513Y-71836420D01*
X127716582Y-71834703D01*
X127702413Y-71832299D01*
X127688005Y-71829208D01*
X127673360Y-71825430D01*
X127658476Y-71820964D01*
X127647157Y-71817165D01*
X127643355Y-71815812D01*
X127631793Y-71811283D01*
X127619968Y-71806048D01*
X127607881Y-71800107D01*
X127595530Y-71793460D01*
X127582917Y-71786107D01*
X127570042Y-71778048D01*
X127556903Y-71769284D01*
X127543502Y-71759814D01*
X127529838Y-71749638D01*
X127515911Y-71738756D01*
X127506481Y-71731109D01*
X127496973Y-71723277D01*
X127487499Y-71715387D01*
X127478059Y-71707441D01*
X127468654Y-71699437D01*
X127459283Y-71691376D01*
X127449946Y-71683257D01*
X127440644Y-71675082D01*
X127431376Y-71666849D01*
X127422143Y-71658559D01*
X127412944Y-71650211D01*
X127403779Y-71641807D01*
X127394648Y-71633345D01*
X127385552Y-71624826D01*
X127376490Y-71616249D01*
X127367463Y-71607616D01*
X127358470Y-71598925D01*
X127269077Y-71512170D01*
X127258806Y-71502410D01*
X127248065Y-71492417D01*
X127238536Y-71483648D01*
X127227745Y-71473787D01*
X127215692Y-71462834D01*
X127206955Y-71454925D01*
X127197658Y-71446531D01*
X127187799Y-71437651D01*
X127177379Y-71428286D01*
X127166399Y-71418435D01*
X127154857Y-71408099D01*
X127142755Y-71397278D01*
X127130552Y-71386450D01*
X127118712Y-71376093D01*
X127107233Y-71366208D01*
X127096116Y-71356795D01*
X127085361Y-71347853D01*
X127074968Y-71339383D01*
X127064936Y-71331385D01*
X127055267Y-71323859D01*
X127041441Y-71313453D01*
X127028428Y-71304109D01*
X127016230Y-71295827D01*
X127004846Y-71288605D01*
X126994276Y-71282445D01*
X126990933Y-71280628D01*
X126977703Y-71273964D01*
X126964537Y-71268189D01*
X126951435Y-71263303D01*
X126938397Y-71259305D01*
X126925423Y-71256196D01*
X126912513Y-71253975D01*
X126899667Y-71252642D01*
X126886886Y-71252198D01*
X126871721Y-71252775D01*
X126857221Y-71254506D01*
X126843385Y-71257391D01*
X126830214Y-71261430D01*
X126817707Y-71266623D01*
X126805865Y-71272971D01*
X126794688Y-71280472D01*
X126784176Y-71289127D01*
X126774327Y-71298937D01*
X126765144Y-71309900D01*
X126759391Y-71317850D01*
X126751325Y-71330302D01*
X126744052Y-71343037D01*
X126737572Y-71356055D01*
X126731886Y-71369356D01*
X126726994Y-71382941D01*
X126722894Y-71396810D01*
X126719588Y-71410961D01*
X126717076Y-71425396D01*
X126715357Y-71440115D01*
X126714431Y-71455117D01*
X126714255Y-71465275D01*
X126714424Y-71477168D01*
X126714933Y-71489400D01*
X126715780Y-71501971D01*
X126716966Y-71514881D01*
X126718491Y-71528130D01*
X126720355Y-71541717D01*
X126722558Y-71555643D01*
X126725099Y-71569909D01*
X126727801Y-71584124D01*
X126730631Y-71597899D01*
X126733590Y-71611235D01*
X126736676Y-71624131D01*
X126739891Y-71636587D01*
X126743234Y-71648604D01*
X126746706Y-71660181D01*
X126750305Y-71671318D01*
X126754367Y-71683010D01*
X126759373Y-71696396D01*
X126763746Y-71707548D01*
X126768650Y-71719652D01*
X126774084Y-71732710D01*
X126780049Y-71746721D01*
X126786545Y-71761685D01*
X126793572Y-71777602D01*
X126798551Y-71788743D01*
X126803766Y-71800307D01*
X126809217Y-71812295D01*
X126671757Y-71812295D01*
X126665542Y-71799362D01*
X126659575Y-71786425D01*
X126653855Y-71773487D01*
X126648383Y-71760546D01*
X126643157Y-71747603D01*
X126638179Y-71734658D01*
X126633449Y-71721711D01*
X126628965Y-71708761D01*
X126624729Y-71695809D01*
X126620740Y-71682854D01*
X126616999Y-71669898D01*
X126613505Y-71656939D01*
X126610258Y-71643977D01*
X126607258Y-71631014D01*
X126604506Y-71618048D01*
X126602001Y-71605080D01*
X126599694Y-71592254D01*
X126597536Y-71579714D01*
X126595527Y-71567460D01*
X126593666Y-71555492D01*
X126591955Y-71543811D01*
X126589666Y-71526826D01*
X126587713Y-71510484D01*
X126586094Y-71494787D01*
X126584810Y-71479734D01*
X126583862Y-71465325D01*
X126583248Y-71451559D01*
X126582969Y-71438438D01*
X126582950Y-71434207D01*
X126583078Y-71421851D01*
X126583463Y-71409620D01*
X126584104Y-71397515D01*
X126585002Y-71385536D01*
X126586156Y-71373683D01*
X126587566Y-71361956D01*
X126590163Y-71344601D01*
X126593336Y-71327530D01*
X126597087Y-71310742D01*
X126601415Y-71294238D01*
X126606319Y-71278017D01*
X126611801Y-71262079D01*
X126615776Y-71251612D01*
X126622248Y-71236380D01*
X126629353Y-71221902D01*
X126637093Y-71208175D01*
X126645465Y-71195201D01*
X126654472Y-71182978D01*
X126664112Y-71171508D01*
X126674386Y-71160790D01*
X126685294Y-71150825D01*
X126696835Y-71141611D01*
X126709010Y-71133150D01*
X126717479Y-71127927D01*
X126730476Y-71120646D01*
X126743637Y-71114082D01*
X126756964Y-71108233D01*
X126770455Y-71103101D01*
X126784111Y-71098685D01*
X126797933Y-71094985D01*
X126811918Y-71092001D01*
X126826069Y-71089733D01*
X126840385Y-71088182D01*
X126854866Y-71087346D01*
X126864611Y-71087187D01*
X126880971Y-71087646D01*
X126897408Y-71089021D01*
X126913923Y-71091314D01*
X126930515Y-71094524D01*
X126947184Y-71098650D01*
X126963931Y-71103694D01*
X126975138Y-71107566D01*
X126986380Y-71111846D01*
X126997656Y-71116533D01*
X127008966Y-71121628D01*
X127020311Y-71127130D01*
X127031690Y-71133040D01*
X127043103Y-71139357D01*
X127054734Y-71146204D01*
X127066766Y-71153774D01*
X127079198Y-71162067D01*
X127092031Y-71171085D01*
X127105265Y-71180825D01*
X127118900Y-71191290D01*
X127132935Y-71202477D01*
X127147371Y-71214389D01*
X127162207Y-71227024D01*
X127177445Y-71240382D01*
X127193083Y-71254465D01*
X127209121Y-71269270D01*
X127225561Y-71284800D01*
X127242401Y-71301052D01*
X127250971Y-71309450D01*
X127259642Y-71318029D01*
X127268413Y-71326788D01*
X127277284Y-71335729D01*
X127370780Y-71429225D01*
X127448449Y-71508066D01*
X127457919Y-71517297D01*
X127467353Y-71526302D01*
X127476751Y-71535084D01*
X127486111Y-71543640D01*
X127495435Y-71551973D01*
X127504722Y-71560081D01*
X127513973Y-71567965D01*
X127523187Y-71575624D01*
X127532365Y-71583059D01*
X127546062Y-71593791D01*
X127559677Y-71604017D01*
X127573210Y-71613739D01*
X127586660Y-71622956D01*
X127595581Y-71628820D01*
X127609119Y-71637035D01*
X127623137Y-71644534D01*
X127637634Y-71651316D01*
X127652610Y-71657383D01*
X127668065Y-71662733D01*
X127683999Y-71667367D01*
X127700413Y-71671285D01*
X127717305Y-71674487D01*
X127734677Y-71676973D01*
X127746524Y-71678233D01*
X127758585Y-71679174D01*
X127764695Y-71679525D01*
X127764695Y-71067550D01*
X127896000Y-71067550D01*
G37*
G36*
X127914757Y-70448248D02*
G01*
X127914153Y-70461712D01*
X127912339Y-70474699D01*
X127909317Y-70487211D01*
X127905085Y-70499246D01*
X127899645Y-70510805D01*
X127892995Y-70521887D01*
X127885137Y-70532493D01*
X127876069Y-70542623D01*
X127866159Y-70551828D01*
X127855773Y-70559806D01*
X127844910Y-70566556D01*
X127833571Y-70572079D01*
X127821756Y-70576375D01*
X127809464Y-70579443D01*
X127796696Y-70581284D01*
X127783452Y-70581898D01*
X127770011Y-70581275D01*
X127757092Y-70579406D01*
X127744696Y-70576292D01*
X127732821Y-70571933D01*
X127721468Y-70566327D01*
X127710637Y-70559476D01*
X127700329Y-70551379D01*
X127690542Y-70542037D01*
X127681544Y-70531852D01*
X127673745Y-70521228D01*
X127667145Y-70510163D01*
X127661746Y-70498660D01*
X127657547Y-70486716D01*
X127654547Y-70474333D01*
X127652747Y-70461510D01*
X127652147Y-70448248D01*
X127652747Y-70434917D01*
X127654547Y-70422035D01*
X127657547Y-70409601D01*
X127661746Y-70397616D01*
X127667145Y-70386080D01*
X127673745Y-70374993D01*
X127681544Y-70364355D01*
X127690542Y-70354166D01*
X127700329Y-70344823D01*
X127710637Y-70336727D01*
X127721468Y-70329876D01*
X127732821Y-70324270D01*
X127744696Y-70319911D01*
X127757092Y-70316796D01*
X127770011Y-70314928D01*
X127783452Y-70314305D01*
X127796696Y-70314923D01*
X127809464Y-70316778D01*
X127821756Y-70319869D01*
X127833571Y-70324197D01*
X127844910Y-70329761D01*
X127855773Y-70336562D01*
X127866159Y-70344599D01*
X127876069Y-70353872D01*
X127885137Y-70363938D01*
X127892995Y-70374499D01*
X127899645Y-70385554D01*
X127905085Y-70397103D01*
X127909317Y-70409148D01*
X127912339Y-70421687D01*
X127914153Y-70434720D01*
X127914757Y-70448248D01*
G37*
G36*
X127764695Y-69477529D02*
G01*
X126794855Y-69477529D01*
X126805152Y-69490410D01*
X126815161Y-69503224D01*
X126824881Y-69515971D01*
X126834312Y-69528651D01*
X126843456Y-69541264D01*
X126852310Y-69553810D01*
X126860876Y-69566289D01*
X126869154Y-69578701D01*
X126877143Y-69591046D01*
X126884843Y-69603324D01*
X126889817Y-69611472D01*
X126897193Y-69624042D01*
X126904596Y-69637462D01*
X126912024Y-69651732D01*
X126919478Y-69666852D01*
X126926958Y-69682823D01*
X126931959Y-69693942D01*
X126936971Y-69705439D01*
X126941995Y-69717314D01*
X126947030Y-69729566D01*
X126952077Y-69742197D01*
X126957135Y-69755205D01*
X126962205Y-69768591D01*
X126967286Y-69782355D01*
X126969831Y-69789378D01*
X126817716Y-69789378D01*
X126812910Y-69778196D01*
X126808016Y-69767106D01*
X126803034Y-69756109D01*
X126797965Y-69745204D01*
X126792808Y-69734392D01*
X126787563Y-69723673D01*
X126782231Y-69713047D01*
X126776812Y-69702513D01*
X126771304Y-69692073D01*
X126765710Y-69681725D01*
X126760027Y-69671469D01*
X126748400Y-69651237D01*
X126736422Y-69631375D01*
X126724094Y-69611885D01*
X126711415Y-69592765D01*
X126698386Y-69574016D01*
X126685007Y-69555639D01*
X126671278Y-69537632D01*
X126657198Y-69519996D01*
X126642768Y-69502731D01*
X126627987Y-69485837D01*
X126620466Y-69477529D01*
X126620466Y-69325122D01*
X127764695Y-69325122D01*
X127764695Y-69019134D01*
X127896000Y-69019134D01*
X127896000Y-69789378D01*
X127764695Y-69789378D01*
X127764695Y-69477529D01*
G37*
X172564285Y-63937128D02*
X172692857Y-63979985D01*
X172692857Y-63979985D02*
X172735714Y-64022842D01*
X172735714Y-64022842D02*
X172778571Y-64108557D01*
X172778571Y-64108557D02*
X172778571Y-64237128D01*
X172778571Y-64237128D02*
X172735714Y-64322842D01*
X172735714Y-64322842D02*
X172692857Y-64365700D01*
X172692857Y-64365700D02*
X172607142Y-64408557D01*
X172607142Y-64408557D02*
X172264285Y-64408557D01*
X172264285Y-64408557D02*
X172264285Y-63508557D01*
X172264285Y-63508557D02*
X172564285Y-63508557D01*
X172564285Y-63508557D02*
X172650000Y-63551414D01*
X172650000Y-63551414D02*
X172692857Y-63594271D01*
X172692857Y-63594271D02*
X172735714Y-63679985D01*
X172735714Y-63679985D02*
X172735714Y-63765700D01*
X172735714Y-63765700D02*
X172692857Y-63851414D01*
X172692857Y-63851414D02*
X172650000Y-63894271D01*
X172650000Y-63894271D02*
X172564285Y-63937128D01*
X172564285Y-63937128D02*
X172264285Y-63937128D01*
X181925585Y-73408286D02*
X181968442Y-73322572D01*
X181968442Y-73322572D02*
X181968442Y-73194000D01*
X181968442Y-73194000D02*
X181925585Y-73065429D01*
X181925585Y-73065429D02*
X181839871Y-72979714D01*
X181839871Y-72979714D02*
X181754157Y-72936857D01*
X181754157Y-72936857D02*
X181582728Y-72894000D01*
X181582728Y-72894000D02*
X181454157Y-72894000D01*
X181454157Y-72894000D02*
X181282728Y-72936857D01*
X181282728Y-72936857D02*
X181197014Y-72979714D01*
X181197014Y-72979714D02*
X181111300Y-73065429D01*
X181111300Y-73065429D02*
X181068442Y-73194000D01*
X181068442Y-73194000D02*
X181068442Y-73279714D01*
X181068442Y-73279714D02*
X181111300Y-73408286D01*
X181111300Y-73408286D02*
X181154157Y-73451143D01*
X181154157Y-73451143D02*
X181454157Y-73451143D01*
X181454157Y-73451143D02*
X181454157Y-73279714D01*
X181068442Y-73836857D02*
X181968442Y-73836857D01*
X181968442Y-73836857D02*
X181068442Y-74351143D01*
X181068442Y-74351143D02*
X181968442Y-74351143D01*
X181068442Y-74779714D02*
X181968442Y-74779714D01*
X181968442Y-74779714D02*
X181968442Y-74994000D01*
X181968442Y-74994000D02*
X181925585Y-75122571D01*
X181925585Y-75122571D02*
X181839871Y-75208286D01*
X181839871Y-75208286D02*
X181754157Y-75251143D01*
X181754157Y-75251143D02*
X181582728Y-75294000D01*
X181582728Y-75294000D02*
X181454157Y-75294000D01*
X181454157Y-75294000D02*
X181282728Y-75251143D01*
X181282728Y-75251143D02*
X181197014Y-75208286D01*
X181197014Y-75208286D02*
X181111300Y-75122571D01*
X181111300Y-75122571D02*
X181068442Y-74994000D01*
X181068442Y-74994000D02*
X181068442Y-74779714D01*
X181068442Y-76254714D02*
X181968442Y-76254714D01*
X181968442Y-76254714D02*
X181968442Y-76469000D01*
X181968442Y-76469000D02*
X181925585Y-76597571D01*
X181925585Y-76597571D02*
X181839871Y-76683286D01*
X181839871Y-76683286D02*
X181754157Y-76726143D01*
X181754157Y-76726143D02*
X181582728Y-76769000D01*
X181582728Y-76769000D02*
X181454157Y-76769000D01*
X181454157Y-76769000D02*
X181282728Y-76726143D01*
X181282728Y-76726143D02*
X181197014Y-76683286D01*
X181197014Y-76683286D02*
X181111300Y-76597571D01*
X181111300Y-76597571D02*
X181068442Y-76469000D01*
X181068442Y-76469000D02*
X181068442Y-76254714D01*
X181325585Y-77111857D02*
X181325585Y-77540429D01*
X181068442Y-77026143D02*
X181968442Y-77326143D01*
X181968442Y-77326143D02*
X181068442Y-77626143D01*
X181968442Y-77797572D02*
X181968442Y-78311858D01*
X181068442Y-78054715D02*
X181968442Y-78054715D01*
X155814286Y-63432414D02*
X155728572Y-63389557D01*
X155728572Y-63389557D02*
X155600000Y-63389557D01*
X155600000Y-63389557D02*
X155471429Y-63432414D01*
X155471429Y-63432414D02*
X155385714Y-63518128D01*
X155385714Y-63518128D02*
X155342857Y-63603842D01*
X155342857Y-63603842D02*
X155300000Y-63775271D01*
X155300000Y-63775271D02*
X155300000Y-63903842D01*
X155300000Y-63903842D02*
X155342857Y-64075271D01*
X155342857Y-64075271D02*
X155385714Y-64160985D01*
X155385714Y-64160985D02*
X155471429Y-64246700D01*
X155471429Y-64246700D02*
X155600000Y-64289557D01*
X155600000Y-64289557D02*
X155685714Y-64289557D01*
X155685714Y-64289557D02*
X155814286Y-64246700D01*
X155814286Y-64246700D02*
X155857143Y-64203842D01*
X155857143Y-64203842D02*
X155857143Y-63903842D01*
X155857143Y-63903842D02*
X155685714Y-63903842D01*
X156242857Y-64289557D02*
X156242857Y-63389557D01*
X156242857Y-63389557D02*
X156757143Y-64289557D01*
X156757143Y-64289557D02*
X156757143Y-63389557D01*
X157185714Y-64289557D02*
X157185714Y-63389557D01*
X157185714Y-63389557D02*
X157400000Y-63389557D01*
X157400000Y-63389557D02*
X157528571Y-63432414D01*
X157528571Y-63432414D02*
X157614286Y-63518128D01*
X157614286Y-63518128D02*
X157657143Y-63603842D01*
X157657143Y-63603842D02*
X157700000Y-63775271D01*
X157700000Y-63775271D02*
X157700000Y-63903842D01*
X157700000Y-63903842D02*
X157657143Y-64075271D01*
X157657143Y-64075271D02*
X157614286Y-64160985D01*
X157614286Y-64160985D02*
X157528571Y-64246700D01*
X157528571Y-64246700D02*
X157400000Y-64289557D01*
X157400000Y-64289557D02*
X157185714Y-64289557D01*
X165314286Y-63551414D02*
X165228572Y-63508557D01*
X165228572Y-63508557D02*
X165100000Y-63508557D01*
X165100000Y-63508557D02*
X164971429Y-63551414D01*
X164971429Y-63551414D02*
X164885714Y-63637128D01*
X164885714Y-63637128D02*
X164842857Y-63722842D01*
X164842857Y-63722842D02*
X164800000Y-63894271D01*
X164800000Y-63894271D02*
X164800000Y-64022842D01*
X164800000Y-64022842D02*
X164842857Y-64194271D01*
X164842857Y-64194271D02*
X164885714Y-64279985D01*
X164885714Y-64279985D02*
X164971429Y-64365700D01*
X164971429Y-64365700D02*
X165100000Y-64408557D01*
X165100000Y-64408557D02*
X165185714Y-64408557D01*
X165185714Y-64408557D02*
X165314286Y-64365700D01*
X165314286Y-64365700D02*
X165357143Y-64322842D01*
X165357143Y-64322842D02*
X165357143Y-64022842D01*
X165357143Y-64022842D02*
X165185714Y-64022842D01*
X165742857Y-64408557D02*
X165742857Y-63508557D01*
X165742857Y-63508557D02*
X166257143Y-64408557D01*
X166257143Y-64408557D02*
X166257143Y-63508557D01*
X166685714Y-64408557D02*
X166685714Y-63508557D01*
X166685714Y-63508557D02*
X166900000Y-63508557D01*
X166900000Y-63508557D02*
X167028571Y-63551414D01*
X167028571Y-63551414D02*
X167114286Y-63637128D01*
X167114286Y-63637128D02*
X167157143Y-63722842D01*
X167157143Y-63722842D02*
X167200000Y-63894271D01*
X167200000Y-63894271D02*
X167200000Y-64022842D01*
X167200000Y-64022842D02*
X167157143Y-64194271D01*
X167157143Y-64194271D02*
X167114286Y-64279985D01*
X167114286Y-64279985D02*
X167028571Y-64365700D01*
X167028571Y-64365700D02*
X166900000Y-64408557D01*
X166900000Y-64408557D02*
X166685714Y-64408557D01*
X159324819Y-71766666D02*
X158848628Y-72099999D01*
X159324819Y-72338094D02*
X158324819Y-72338094D01*
X158324819Y-72338094D02*
X158324819Y-71957142D01*
X158324819Y-71957142D02*
X158372438Y-71861904D01*
X158372438Y-71861904D02*
X158420057Y-71814285D01*
X158420057Y-71814285D02*
X158515295Y-71766666D01*
X158515295Y-71766666D02*
X158658152Y-71766666D01*
X158658152Y-71766666D02*
X158753390Y-71814285D01*
X158753390Y-71814285D02*
X158801009Y-71861904D01*
X158801009Y-71861904D02*
X158848628Y-71957142D01*
X158848628Y-71957142D02*
X158848628Y-72338094D01*
X158658152Y-70909523D02*
X159324819Y-70909523D01*
X158277200Y-71147618D02*
X158991485Y-71385713D01*
X158991485Y-71385713D02*
X158991485Y-70766666D01*
X131004819Y-118783333D02*
X131719104Y-118783333D01*
X131719104Y-118783333D02*
X131861961Y-118830952D01*
X131861961Y-118830952D02*
X131957200Y-118926190D01*
X131957200Y-118926190D02*
X132004819Y-119069047D01*
X132004819Y-119069047D02*
X132004819Y-119164285D01*
X132004819Y-117783333D02*
X132004819Y-118354761D01*
X132004819Y-118069047D02*
X131004819Y-118069047D01*
X131004819Y-118069047D02*
X131147676Y-118164285D01*
X131147676Y-118164285D02*
X131242914Y-118259523D01*
X131242914Y-118259523D02*
X131290533Y-118354761D01*
X165380952Y-54454819D02*
X164904762Y-54454819D01*
X164904762Y-54454819D02*
X164904762Y-53454819D01*
X165714286Y-53931009D02*
X166047619Y-53931009D01*
X166190476Y-54454819D02*
X165714286Y-54454819D01*
X165714286Y-54454819D02*
X165714286Y-53454819D01*
X165714286Y-53454819D02*
X166190476Y-53454819D01*
X166619048Y-54454819D02*
X166619048Y-53454819D01*
X166619048Y-53454819D02*
X166857143Y-53454819D01*
X166857143Y-53454819D02*
X167000000Y-53502438D01*
X167000000Y-53502438D02*
X167095238Y-53597676D01*
X167095238Y-53597676D02*
X167142857Y-53692914D01*
X167142857Y-53692914D02*
X167190476Y-53883390D01*
X167190476Y-53883390D02*
X167190476Y-54026247D01*
X167190476Y-54026247D02*
X167142857Y-54216723D01*
X167142857Y-54216723D02*
X167095238Y-54311961D01*
X167095238Y-54311961D02*
X167000000Y-54407200D01*
X167000000Y-54407200D02*
X166857143Y-54454819D01*
X166857143Y-54454819D02*
X166619048Y-54454819D01*
X168380953Y-54454819D02*
X168380953Y-53454819D01*
X168380953Y-53454819D02*
X168952381Y-54454819D01*
X168952381Y-54454819D02*
X168952381Y-53454819D01*
X169333334Y-53454819D02*
X169571429Y-54454819D01*
X169571429Y-54454819D02*
X169761905Y-53740533D01*
X169761905Y-53740533D02*
X169952381Y-54454819D01*
X169952381Y-54454819D02*
X170190477Y-53454819D01*
X170571429Y-54454819D02*
X170571429Y-53454819D01*
X171142857Y-54454819D02*
X170714286Y-53883390D01*
X171142857Y-53454819D02*
X170571429Y-54026247D01*
X184215095Y-68001200D02*
X184357952Y-68048819D01*
X184357952Y-68048819D02*
X184596047Y-68048819D01*
X184596047Y-68048819D02*
X184691285Y-68001200D01*
X184691285Y-68001200D02*
X184738904Y-67953580D01*
X184738904Y-67953580D02*
X184786523Y-67858342D01*
X184786523Y-67858342D02*
X184786523Y-67763104D01*
X184786523Y-67763104D02*
X184738904Y-67667866D01*
X184738904Y-67667866D02*
X184691285Y-67620247D01*
X184691285Y-67620247D02*
X184596047Y-67572628D01*
X184596047Y-67572628D02*
X184405571Y-67525009D01*
X184405571Y-67525009D02*
X184310333Y-67477390D01*
X184310333Y-67477390D02*
X184262714Y-67429771D01*
X184262714Y-67429771D02*
X184215095Y-67334533D01*
X184215095Y-67334533D02*
X184215095Y-67239295D01*
X184215095Y-67239295D02*
X184262714Y-67144057D01*
X184262714Y-67144057D02*
X184310333Y-67096438D01*
X184310333Y-67096438D02*
X184405571Y-67048819D01*
X184405571Y-67048819D02*
X184643666Y-67048819D01*
X184643666Y-67048819D02*
X184786523Y-67096438D01*
X185215095Y-67525009D02*
X185548428Y-67525009D01*
X185691285Y-68048819D02*
X185215095Y-68048819D01*
X185215095Y-68048819D02*
X185215095Y-67048819D01*
X185215095Y-67048819D02*
X185691285Y-67048819D01*
X186119857Y-68048819D02*
X186119857Y-67048819D01*
X186119857Y-67048819D02*
X186691285Y-68048819D01*
X186691285Y-68048819D02*
X186691285Y-67048819D01*
X187119857Y-68001200D02*
X187262714Y-68048819D01*
X187262714Y-68048819D02*
X187500809Y-68048819D01*
X187500809Y-68048819D02*
X187596047Y-68001200D01*
X187596047Y-68001200D02*
X187643666Y-67953580D01*
X187643666Y-67953580D02*
X187691285Y-67858342D01*
X187691285Y-67858342D02*
X187691285Y-67763104D01*
X187691285Y-67763104D02*
X187643666Y-67667866D01*
X187643666Y-67667866D02*
X187596047Y-67620247D01*
X187596047Y-67620247D02*
X187500809Y-67572628D01*
X187500809Y-67572628D02*
X187310333Y-67525009D01*
X187310333Y-67525009D02*
X187215095Y-67477390D01*
X187215095Y-67477390D02*
X187167476Y-67429771D01*
X187167476Y-67429771D02*
X187119857Y-67334533D01*
X187119857Y-67334533D02*
X187119857Y-67239295D01*
X187119857Y-67239295D02*
X187167476Y-67144057D01*
X187167476Y-67144057D02*
X187215095Y-67096438D01*
X187215095Y-67096438D02*
X187310333Y-67048819D01*
X187310333Y-67048819D02*
X187548428Y-67048819D01*
X187548428Y-67048819D02*
X187691285Y-67096438D01*
X188310333Y-67048819D02*
X188500809Y-67048819D01*
X188500809Y-67048819D02*
X188596047Y-67096438D01*
X188596047Y-67096438D02*
X188691285Y-67191676D01*
X188691285Y-67191676D02*
X188738904Y-67382152D01*
X188738904Y-67382152D02*
X188738904Y-67715485D01*
X188738904Y-67715485D02*
X188691285Y-67905961D01*
X188691285Y-67905961D02*
X188596047Y-68001200D01*
X188596047Y-68001200D02*
X188500809Y-68048819D01*
X188500809Y-68048819D02*
X188310333Y-68048819D01*
X188310333Y-68048819D02*
X188215095Y-68001200D01*
X188215095Y-68001200D02*
X188119857Y-67905961D01*
X188119857Y-67905961D02*
X188072238Y-67715485D01*
X188072238Y-67715485D02*
X188072238Y-67382152D01*
X188072238Y-67382152D02*
X188119857Y-67191676D01*
X188119857Y-67191676D02*
X188215095Y-67096438D01*
X188215095Y-67096438D02*
X188310333Y-67048819D01*
X189738904Y-68048819D02*
X189405571Y-67572628D01*
X189167476Y-68048819D02*
X189167476Y-67048819D01*
X189167476Y-67048819D02*
X189548428Y-67048819D01*
X189548428Y-67048819D02*
X189643666Y-67096438D01*
X189643666Y-67096438D02*
X189691285Y-67144057D01*
X189691285Y-67144057D02*
X189738904Y-67239295D01*
X189738904Y-67239295D02*
X189738904Y-67382152D01*
X189738904Y-67382152D02*
X189691285Y-67477390D01*
X189691285Y-67477390D02*
X189643666Y-67525009D01*
X189643666Y-67525009D02*
X189548428Y-67572628D01*
X189548428Y-67572628D02*
X189167476Y-67572628D01*
X135225095Y-123081819D02*
X135225095Y-122081819D01*
X135225095Y-122558009D02*
X135796523Y-122558009D01*
X135796523Y-123081819D02*
X135796523Y-122081819D01*
X136177476Y-122081819D02*
X136844142Y-122081819D01*
X136844142Y-122081819D02*
X136415571Y-123081819D01*
X67014819Y-111664285D02*
X66014819Y-111664285D01*
X66014819Y-111664285D02*
X66014819Y-111283333D01*
X66014819Y-111283333D02*
X66062438Y-111188095D01*
X66062438Y-111188095D02*
X66110057Y-111140476D01*
X66110057Y-111140476D02*
X66205295Y-111092857D01*
X66205295Y-111092857D02*
X66348152Y-111092857D01*
X66348152Y-111092857D02*
X66443390Y-111140476D01*
X66443390Y-111140476D02*
X66491009Y-111188095D01*
X66491009Y-111188095D02*
X66538628Y-111283333D01*
X66538628Y-111283333D02*
X66538628Y-111664285D01*
X66967200Y-110711904D02*
X67014819Y-110569047D01*
X67014819Y-110569047D02*
X67014819Y-110330952D01*
X67014819Y-110330952D02*
X66967200Y-110235714D01*
X66967200Y-110235714D02*
X66919580Y-110188095D01*
X66919580Y-110188095D02*
X66824342Y-110140476D01*
X66824342Y-110140476D02*
X66729104Y-110140476D01*
X66729104Y-110140476D02*
X66633866Y-110188095D01*
X66633866Y-110188095D02*
X66586247Y-110235714D01*
X66586247Y-110235714D02*
X66538628Y-110330952D01*
X66538628Y-110330952D02*
X66491009Y-110521428D01*
X66491009Y-110521428D02*
X66443390Y-110616666D01*
X66443390Y-110616666D02*
X66395771Y-110664285D01*
X66395771Y-110664285D02*
X66300533Y-110711904D01*
X66300533Y-110711904D02*
X66205295Y-110711904D01*
X66205295Y-110711904D02*
X66110057Y-110664285D01*
X66110057Y-110664285D02*
X66062438Y-110616666D01*
X66062438Y-110616666D02*
X66014819Y-110521428D01*
X66014819Y-110521428D02*
X66014819Y-110283333D01*
X66014819Y-110283333D02*
X66062438Y-110140476D01*
X67014819Y-109188095D02*
X67014819Y-109759523D01*
X67014819Y-109473809D02*
X66014819Y-109473809D01*
X66014819Y-109473809D02*
X66157676Y-109569047D01*
X66157676Y-109569047D02*
X66252914Y-109664285D01*
X66252914Y-109664285D02*
X66300533Y-109759523D01*
X102204819Y-87345238D02*
X101728628Y-87678571D01*
X102204819Y-87916666D02*
X101204819Y-87916666D01*
X101204819Y-87916666D02*
X101204819Y-87535714D01*
X101204819Y-87535714D02*
X101252438Y-87440476D01*
X101252438Y-87440476D02*
X101300057Y-87392857D01*
X101300057Y-87392857D02*
X101395295Y-87345238D01*
X101395295Y-87345238D02*
X101538152Y-87345238D01*
X101538152Y-87345238D02*
X101633390Y-87392857D01*
X101633390Y-87392857D02*
X101681009Y-87440476D01*
X101681009Y-87440476D02*
X101728628Y-87535714D01*
X101728628Y-87535714D02*
X101728628Y-87916666D01*
X101204819Y-87059523D02*
X102204819Y-86726190D01*
X102204819Y-86726190D02*
X101204819Y-86392857D01*
X102204819Y-85535714D02*
X102204819Y-86107142D01*
X102204819Y-85821428D02*
X101204819Y-85821428D01*
X101204819Y-85821428D02*
X101347676Y-85916666D01*
X101347676Y-85916666D02*
X101442914Y-86011904D01*
X101442914Y-86011904D02*
X101490533Y-86107142D01*
X135225095Y-53025819D02*
X135225095Y-52025819D01*
X135225095Y-52502009D02*
X135796523Y-52502009D01*
X135796523Y-53025819D02*
X135796523Y-52025819D01*
X136748904Y-52025819D02*
X136272714Y-52025819D01*
X136272714Y-52025819D02*
X136225095Y-52502009D01*
X136225095Y-52502009D02*
X136272714Y-52454390D01*
X136272714Y-52454390D02*
X136367952Y-52406771D01*
X136367952Y-52406771D02*
X136606047Y-52406771D01*
X136606047Y-52406771D02*
X136701285Y-52454390D01*
X136701285Y-52454390D02*
X136748904Y-52502009D01*
X136748904Y-52502009D02*
X136796523Y-52597247D01*
X136796523Y-52597247D02*
X136796523Y-52835342D01*
X136796523Y-52835342D02*
X136748904Y-52930580D01*
X136748904Y-52930580D02*
X136701285Y-52978200D01*
X136701285Y-52978200D02*
X136606047Y-53025819D01*
X136606047Y-53025819D02*
X136367952Y-53025819D01*
X136367952Y-53025819D02*
X136272714Y-52978200D01*
X136272714Y-52978200D02*
X136225095Y-52930580D01*
X147842857Y-115231009D02*
X148176190Y-115231009D01*
X148319047Y-115754819D02*
X147842857Y-115754819D01*
X147842857Y-115754819D02*
X147842857Y-114754819D01*
X147842857Y-114754819D02*
X148319047Y-114754819D01*
X148700000Y-115707200D02*
X148842857Y-115754819D01*
X148842857Y-115754819D02*
X149080952Y-115754819D01*
X149080952Y-115754819D02*
X149176190Y-115707200D01*
X149176190Y-115707200D02*
X149223809Y-115659580D01*
X149223809Y-115659580D02*
X149271428Y-115564342D01*
X149271428Y-115564342D02*
X149271428Y-115469104D01*
X149271428Y-115469104D02*
X149223809Y-115373866D01*
X149223809Y-115373866D02*
X149176190Y-115326247D01*
X149176190Y-115326247D02*
X149080952Y-115278628D01*
X149080952Y-115278628D02*
X148890476Y-115231009D01*
X148890476Y-115231009D02*
X148795238Y-115183390D01*
X148795238Y-115183390D02*
X148747619Y-115135771D01*
X148747619Y-115135771D02*
X148700000Y-115040533D01*
X148700000Y-115040533D02*
X148700000Y-114945295D01*
X148700000Y-114945295D02*
X148747619Y-114850057D01*
X148747619Y-114850057D02*
X148795238Y-114802438D01*
X148795238Y-114802438D02*
X148890476Y-114754819D01*
X148890476Y-114754819D02*
X149128571Y-114754819D01*
X149128571Y-114754819D02*
X149271428Y-114802438D01*
X149700000Y-115754819D02*
X149700000Y-114754819D01*
X149700000Y-114754819D02*
X150080952Y-114754819D01*
X150080952Y-114754819D02*
X150176190Y-114802438D01*
X150176190Y-114802438D02*
X150223809Y-114850057D01*
X150223809Y-114850057D02*
X150271428Y-114945295D01*
X150271428Y-114945295D02*
X150271428Y-115088152D01*
X150271428Y-115088152D02*
X150223809Y-115183390D01*
X150223809Y-115183390D02*
X150176190Y-115231009D01*
X150176190Y-115231009D02*
X150080952Y-115278628D01*
X150080952Y-115278628D02*
X149700000Y-115278628D01*
X150604762Y-114754819D02*
X151223809Y-114754819D01*
X151223809Y-114754819D02*
X150890476Y-115135771D01*
X150890476Y-115135771D02*
X151033333Y-115135771D01*
X151033333Y-115135771D02*
X151128571Y-115183390D01*
X151128571Y-115183390D02*
X151176190Y-115231009D01*
X151176190Y-115231009D02*
X151223809Y-115326247D01*
X151223809Y-115326247D02*
X151223809Y-115564342D01*
X151223809Y-115564342D02*
X151176190Y-115659580D01*
X151176190Y-115659580D02*
X151128571Y-115707200D01*
X151128571Y-115707200D02*
X151033333Y-115754819D01*
X151033333Y-115754819D02*
X150747619Y-115754819D01*
X150747619Y-115754819D02*
X150652381Y-115707200D01*
X150652381Y-115707200D02*
X150604762Y-115659580D01*
X151604762Y-114850057D02*
X151652381Y-114802438D01*
X151652381Y-114802438D02*
X151747619Y-114754819D01*
X151747619Y-114754819D02*
X151985714Y-114754819D01*
X151985714Y-114754819D02*
X152080952Y-114802438D01*
X152080952Y-114802438D02*
X152128571Y-114850057D01*
X152128571Y-114850057D02*
X152176190Y-114945295D01*
X152176190Y-114945295D02*
X152176190Y-115040533D01*
X152176190Y-115040533D02*
X152128571Y-115183390D01*
X152128571Y-115183390D02*
X151557143Y-115754819D01*
X151557143Y-115754819D02*
X152176190Y-115754819D01*
X152604762Y-115373866D02*
X153366667Y-115373866D01*
X153842857Y-115754819D02*
X153842857Y-114754819D01*
X153842857Y-114754819D02*
X154080952Y-114754819D01*
X154080952Y-114754819D02*
X154223809Y-114802438D01*
X154223809Y-114802438D02*
X154319047Y-114897676D01*
X154319047Y-114897676D02*
X154366666Y-114992914D01*
X154366666Y-114992914D02*
X154414285Y-115183390D01*
X154414285Y-115183390D02*
X154414285Y-115326247D01*
X154414285Y-115326247D02*
X154366666Y-115516723D01*
X154366666Y-115516723D02*
X154319047Y-115611961D01*
X154319047Y-115611961D02*
X154223809Y-115707200D01*
X154223809Y-115707200D02*
X154080952Y-115754819D01*
X154080952Y-115754819D02*
X153842857Y-115754819D01*
X154842857Y-115231009D02*
X155176190Y-115231009D01*
X155319047Y-115754819D02*
X154842857Y-115754819D01*
X154842857Y-115754819D02*
X154842857Y-114754819D01*
X154842857Y-114754819D02*
X155319047Y-114754819D01*
X155604762Y-114754819D02*
X155938095Y-115754819D01*
X155938095Y-115754819D02*
X156271428Y-114754819D01*
X156604762Y-115754819D02*
X156604762Y-114754819D01*
X157176190Y-115754819D02*
X156747619Y-115183390D01*
X157176190Y-114754819D02*
X156604762Y-115326247D01*
X157604762Y-115754819D02*
X157604762Y-114754819D01*
X157938095Y-114754819D02*
X158509523Y-114754819D01*
X158223809Y-115754819D02*
X158223809Y-114754819D01*
X159414285Y-115659580D02*
X159366666Y-115707200D01*
X159366666Y-115707200D02*
X159223809Y-115754819D01*
X159223809Y-115754819D02*
X159128571Y-115754819D01*
X159128571Y-115754819D02*
X158985714Y-115707200D01*
X158985714Y-115707200D02*
X158890476Y-115611961D01*
X158890476Y-115611961D02*
X158842857Y-115516723D01*
X158842857Y-115516723D02*
X158795238Y-115326247D01*
X158795238Y-115326247D02*
X158795238Y-115183390D01*
X158795238Y-115183390D02*
X158842857Y-114992914D01*
X158842857Y-114992914D02*
X158890476Y-114897676D01*
X158890476Y-114897676D02*
X158985714Y-114802438D01*
X158985714Y-114802438D02*
X159128571Y-114754819D01*
X159128571Y-114754819D02*
X159223809Y-114754819D01*
X159223809Y-114754819D02*
X159366666Y-114802438D01*
X159366666Y-114802438D02*
X159414285Y-114850057D01*
X159842857Y-115373866D02*
X160604762Y-115373866D01*
X160985714Y-114754819D02*
X161604761Y-114754819D01*
X161604761Y-114754819D02*
X161271428Y-115135771D01*
X161271428Y-115135771D02*
X161414285Y-115135771D01*
X161414285Y-115135771D02*
X161509523Y-115183390D01*
X161509523Y-115183390D02*
X161557142Y-115231009D01*
X161557142Y-115231009D02*
X161604761Y-115326247D01*
X161604761Y-115326247D02*
X161604761Y-115564342D01*
X161604761Y-115564342D02*
X161557142Y-115659580D01*
X161557142Y-115659580D02*
X161509523Y-115707200D01*
X161509523Y-115707200D02*
X161414285Y-115754819D01*
X161414285Y-115754819D02*
X161128571Y-115754819D01*
X161128571Y-115754819D02*
X161033333Y-115707200D01*
X161033333Y-115707200D02*
X160985714Y-115659580D01*
X161985714Y-114850057D02*
X162033333Y-114802438D01*
X162033333Y-114802438D02*
X162128571Y-114754819D01*
X162128571Y-114754819D02*
X162366666Y-114754819D01*
X162366666Y-114754819D02*
X162461904Y-114802438D01*
X162461904Y-114802438D02*
X162509523Y-114850057D01*
X162509523Y-114850057D02*
X162557142Y-114945295D01*
X162557142Y-114945295D02*
X162557142Y-115040533D01*
X162557142Y-115040533D02*
X162509523Y-115183390D01*
X162509523Y-115183390D02*
X161938095Y-115754819D01*
X161938095Y-115754819D02*
X162557142Y-115754819D01*
X162985714Y-114754819D02*
X162985714Y-115564342D01*
X162985714Y-115564342D02*
X163033333Y-115659580D01*
X163033333Y-115659580D02*
X163080952Y-115707200D01*
X163080952Y-115707200D02*
X163176190Y-115754819D01*
X163176190Y-115754819D02*
X163366666Y-115754819D01*
X163366666Y-115754819D02*
X163461904Y-115707200D01*
X163461904Y-115707200D02*
X163509523Y-115659580D01*
X163509523Y-115659580D02*
X163557142Y-115564342D01*
X163557142Y-115564342D02*
X163557142Y-114754819D01*
X86476548Y-70409819D02*
X86809881Y-71409819D01*
X86809881Y-71409819D02*
X87143214Y-70409819D01*
X87428929Y-71124104D02*
X87905119Y-71124104D01*
X87333691Y-71409819D02*
X87667024Y-70409819D01*
X87667024Y-70409819D02*
X88000357Y-71409819D01*
X88905119Y-71314580D02*
X88857500Y-71362200D01*
X88857500Y-71362200D02*
X88714643Y-71409819D01*
X88714643Y-71409819D02*
X88619405Y-71409819D01*
X88619405Y-71409819D02*
X88476548Y-71362200D01*
X88476548Y-71362200D02*
X88381310Y-71266961D01*
X88381310Y-71266961D02*
X88333691Y-71171723D01*
X88333691Y-71171723D02*
X88286072Y-70981247D01*
X88286072Y-70981247D02*
X88286072Y-70838390D01*
X88286072Y-70838390D02*
X88333691Y-70647914D01*
X88333691Y-70647914D02*
X88381310Y-70552676D01*
X88381310Y-70552676D02*
X88476548Y-70457438D01*
X88476548Y-70457438D02*
X88619405Y-70409819D01*
X88619405Y-70409819D02*
X88714643Y-70409819D01*
X88714643Y-70409819D02*
X88857500Y-70457438D01*
X88857500Y-70457438D02*
X88905119Y-70505057D01*
X89095596Y-71505057D02*
X89857500Y-71505057D01*
X90095596Y-71409819D02*
X90095596Y-70409819D01*
X90571786Y-71409819D02*
X90571786Y-70409819D01*
X90571786Y-70409819D02*
X91143214Y-71409819D01*
X91143214Y-71409819D02*
X91143214Y-70409819D01*
X92143214Y-71409819D02*
X91571786Y-71409819D01*
X91857500Y-71409819D02*
X91857500Y-70409819D01*
X91857500Y-70409819D02*
X91762262Y-70552676D01*
X91762262Y-70552676D02*
X91667024Y-70647914D01*
X91667024Y-70647914D02*
X91571786Y-70695533D01*
X62232095Y-53025819D02*
X62232095Y-52025819D01*
X62232095Y-52502009D02*
X62803523Y-52502009D01*
X62803523Y-53025819D02*
X62803523Y-52025819D01*
X63803523Y-53025819D02*
X63232095Y-53025819D01*
X63517809Y-53025819D02*
X63517809Y-52025819D01*
X63517809Y-52025819D02*
X63422571Y-52168676D01*
X63422571Y-52168676D02*
X63327333Y-52263914D01*
X63327333Y-52263914D02*
X63232095Y-52311533D01*
X114332095Y-123081819D02*
X114332095Y-122081819D01*
X114332095Y-122558009D02*
X114903523Y-122558009D01*
X114903523Y-123081819D02*
X114903523Y-122081819D01*
X115808285Y-122415152D02*
X115808285Y-123081819D01*
X115570190Y-122034200D02*
X115332095Y-122748485D01*
X115332095Y-122748485D02*
X115951142Y-122748485D01*
X187325095Y-53025819D02*
X187325095Y-52025819D01*
X187325095Y-52502009D02*
X187896523Y-52502009D01*
X187896523Y-53025819D02*
X187896523Y-52025819D01*
X188801285Y-52025819D02*
X188610809Y-52025819D01*
X188610809Y-52025819D02*
X188515571Y-52073438D01*
X188515571Y-52073438D02*
X188467952Y-52121057D01*
X188467952Y-52121057D02*
X188372714Y-52263914D01*
X188372714Y-52263914D02*
X188325095Y-52454390D01*
X188325095Y-52454390D02*
X188325095Y-52835342D01*
X188325095Y-52835342D02*
X188372714Y-52930580D01*
X188372714Y-52930580D02*
X188420333Y-52978200D01*
X188420333Y-52978200D02*
X188515571Y-53025819D01*
X188515571Y-53025819D02*
X188706047Y-53025819D01*
X188706047Y-53025819D02*
X188801285Y-52978200D01*
X188801285Y-52978200D02*
X188848904Y-52930580D01*
X188848904Y-52930580D02*
X188896523Y-52835342D01*
X188896523Y-52835342D02*
X188896523Y-52597247D01*
X188896523Y-52597247D02*
X188848904Y-52502009D01*
X188848904Y-52502009D02*
X188801285Y-52454390D01*
X188801285Y-52454390D02*
X188706047Y-52406771D01*
X188706047Y-52406771D02*
X188515571Y-52406771D01*
X188515571Y-52406771D02*
X188420333Y-52454390D01*
X188420333Y-52454390D02*
X188372714Y-52502009D01*
X188372714Y-52502009D02*
X188325095Y-52597247D01*
X141633333Y-69909580D02*
X141585714Y-69957200D01*
X141585714Y-69957200D02*
X141442857Y-70004819D01*
X141442857Y-70004819D02*
X141347619Y-70004819D01*
X141347619Y-70004819D02*
X141204762Y-69957200D01*
X141204762Y-69957200D02*
X141109524Y-69861961D01*
X141109524Y-69861961D02*
X141061905Y-69766723D01*
X141061905Y-69766723D02*
X141014286Y-69576247D01*
X141014286Y-69576247D02*
X141014286Y-69433390D01*
X141014286Y-69433390D02*
X141061905Y-69242914D01*
X141061905Y-69242914D02*
X141109524Y-69147676D01*
X141109524Y-69147676D02*
X141204762Y-69052438D01*
X141204762Y-69052438D02*
X141347619Y-69004819D01*
X141347619Y-69004819D02*
X141442857Y-69004819D01*
X141442857Y-69004819D02*
X141585714Y-69052438D01*
X141585714Y-69052438D02*
X141633333Y-69100057D01*
X142014286Y-69100057D02*
X142061905Y-69052438D01*
X142061905Y-69052438D02*
X142157143Y-69004819D01*
X142157143Y-69004819D02*
X142395238Y-69004819D01*
X142395238Y-69004819D02*
X142490476Y-69052438D01*
X142490476Y-69052438D02*
X142538095Y-69100057D01*
X142538095Y-69100057D02*
X142585714Y-69195295D01*
X142585714Y-69195295D02*
X142585714Y-69290533D01*
X142585714Y-69290533D02*
X142538095Y-69433390D01*
X142538095Y-69433390D02*
X141966667Y-70004819D01*
X141966667Y-70004819D02*
X142585714Y-70004819D01*
X114332095Y-53025819D02*
X114332095Y-52025819D01*
X114332095Y-52502009D02*
X114903523Y-52502009D01*
X114903523Y-53025819D02*
X114903523Y-52025819D01*
X115332095Y-52121057D02*
X115379714Y-52073438D01*
X115379714Y-52073438D02*
X115474952Y-52025819D01*
X115474952Y-52025819D02*
X115713047Y-52025819D01*
X115713047Y-52025819D02*
X115808285Y-52073438D01*
X115808285Y-52073438D02*
X115855904Y-52121057D01*
X115855904Y-52121057D02*
X115903523Y-52216295D01*
X115903523Y-52216295D02*
X115903523Y-52311533D01*
X115903523Y-52311533D02*
X115855904Y-52454390D01*
X115855904Y-52454390D02*
X115284476Y-53025819D01*
X115284476Y-53025819D02*
X115903523Y-53025819D01*
X77617904Y-74762009D02*
X77284571Y-74762009D01*
X77284571Y-75285819D02*
X77284571Y-74285819D01*
X77284571Y-74285819D02*
X77760761Y-74285819D01*
X78617904Y-75285819D02*
X78141714Y-75285819D01*
X78141714Y-75285819D02*
X78141714Y-74285819D01*
X79475047Y-75285819D02*
X78903619Y-75285819D01*
X79189333Y-75285819D02*
X79189333Y-74285819D01*
X79189333Y-74285819D02*
X79094095Y-74428676D01*
X79094095Y-74428676D02*
X78998857Y-74523914D01*
X78998857Y-74523914D02*
X78903619Y-74571533D01*
X170464819Y-71794666D02*
X169988628Y-72127999D01*
X170464819Y-72366094D02*
X169464819Y-72366094D01*
X169464819Y-72366094D02*
X169464819Y-71985142D01*
X169464819Y-71985142D02*
X169512438Y-71889904D01*
X169512438Y-71889904D02*
X169560057Y-71842285D01*
X169560057Y-71842285D02*
X169655295Y-71794666D01*
X169655295Y-71794666D02*
X169798152Y-71794666D01*
X169798152Y-71794666D02*
X169893390Y-71842285D01*
X169893390Y-71842285D02*
X169941009Y-71889904D01*
X169941009Y-71889904D02*
X169988628Y-71985142D01*
X169988628Y-71985142D02*
X169988628Y-72366094D01*
X169560057Y-71413713D02*
X169512438Y-71366094D01*
X169512438Y-71366094D02*
X169464819Y-71270856D01*
X169464819Y-71270856D02*
X169464819Y-71032761D01*
X169464819Y-71032761D02*
X169512438Y-70937523D01*
X169512438Y-70937523D02*
X169560057Y-70889904D01*
X169560057Y-70889904D02*
X169655295Y-70842285D01*
X169655295Y-70842285D02*
X169750533Y-70842285D01*
X169750533Y-70842285D02*
X169893390Y-70889904D01*
X169893390Y-70889904D02*
X170464819Y-71461332D01*
X170464819Y-71461332D02*
X170464819Y-70842285D01*
X151738094Y-54454819D02*
X151261904Y-54454819D01*
X151261904Y-54454819D02*
X151261904Y-53454819D01*
X152071428Y-53931009D02*
X152404761Y-53931009D01*
X152547618Y-54454819D02*
X152071428Y-54454819D01*
X152071428Y-54454819D02*
X152071428Y-53454819D01*
X152071428Y-53454819D02*
X152547618Y-53454819D01*
X152976190Y-54454819D02*
X152976190Y-53454819D01*
X152976190Y-53454819D02*
X153214285Y-53454819D01*
X153214285Y-53454819D02*
X153357142Y-53502438D01*
X153357142Y-53502438D02*
X153452380Y-53597676D01*
X153452380Y-53597676D02*
X153499999Y-53692914D01*
X153499999Y-53692914D02*
X153547618Y-53883390D01*
X153547618Y-53883390D02*
X153547618Y-54026247D01*
X153547618Y-54026247D02*
X153499999Y-54216723D01*
X153499999Y-54216723D02*
X153452380Y-54311961D01*
X153452380Y-54311961D02*
X153357142Y-54407200D01*
X153357142Y-54407200D02*
X153214285Y-54454819D01*
X153214285Y-54454819D02*
X152976190Y-54454819D01*
X154738095Y-54454819D02*
X154738095Y-53454819D01*
X154738095Y-53454819D02*
X154976190Y-53454819D01*
X154976190Y-53454819D02*
X155119047Y-53502438D01*
X155119047Y-53502438D02*
X155214285Y-53597676D01*
X155214285Y-53597676D02*
X155261904Y-53692914D01*
X155261904Y-53692914D02*
X155309523Y-53883390D01*
X155309523Y-53883390D02*
X155309523Y-54026247D01*
X155309523Y-54026247D02*
X155261904Y-54216723D01*
X155261904Y-54216723D02*
X155214285Y-54311961D01*
X155214285Y-54311961D02*
X155119047Y-54407200D01*
X155119047Y-54407200D02*
X154976190Y-54454819D01*
X154976190Y-54454819D02*
X154738095Y-54454819D01*
X155690476Y-54169104D02*
X156166666Y-54169104D01*
X155595238Y-54454819D02*
X155928571Y-53454819D01*
X155928571Y-53454819D02*
X156261904Y-54454819D01*
X156452381Y-53454819D02*
X157023809Y-53454819D01*
X156738095Y-54454819D02*
X156738095Y-53454819D01*
X157309524Y-54169104D02*
X157785714Y-54169104D01*
X157214286Y-54454819D02*
X157547619Y-53454819D01*
X157547619Y-53454819D02*
X157880952Y-54454819D01*
X97200580Y-87309166D02*
X97248200Y-87356785D01*
X97248200Y-87356785D02*
X97295819Y-87499642D01*
X97295819Y-87499642D02*
X97295819Y-87594880D01*
X97295819Y-87594880D02*
X97248200Y-87737737D01*
X97248200Y-87737737D02*
X97152961Y-87832975D01*
X97152961Y-87832975D02*
X97057723Y-87880594D01*
X97057723Y-87880594D02*
X96867247Y-87928213D01*
X96867247Y-87928213D02*
X96724390Y-87928213D01*
X96724390Y-87928213D02*
X96533914Y-87880594D01*
X96533914Y-87880594D02*
X96438676Y-87832975D01*
X96438676Y-87832975D02*
X96343438Y-87737737D01*
X96343438Y-87737737D02*
X96295819Y-87594880D01*
X96295819Y-87594880D02*
X96295819Y-87499642D01*
X96295819Y-87499642D02*
X96343438Y-87356785D01*
X96343438Y-87356785D02*
X96391057Y-87309166D01*
X97295819Y-86356785D02*
X97295819Y-86928213D01*
X97295819Y-86642499D02*
X96295819Y-86642499D01*
X96295819Y-86642499D02*
X96438676Y-86737737D01*
X96438676Y-86737737D02*
X96533914Y-86832975D01*
X96533914Y-86832975D02*
X96581533Y-86928213D01*
X165384819Y-71794666D02*
X164908628Y-72127999D01*
X165384819Y-72366094D02*
X164384819Y-72366094D01*
X164384819Y-72366094D02*
X164384819Y-71985142D01*
X164384819Y-71985142D02*
X164432438Y-71889904D01*
X164432438Y-71889904D02*
X164480057Y-71842285D01*
X164480057Y-71842285D02*
X164575295Y-71794666D01*
X164575295Y-71794666D02*
X164718152Y-71794666D01*
X164718152Y-71794666D02*
X164813390Y-71842285D01*
X164813390Y-71842285D02*
X164861009Y-71889904D01*
X164861009Y-71889904D02*
X164908628Y-71985142D01*
X164908628Y-71985142D02*
X164908628Y-72366094D01*
X164384819Y-71461332D02*
X164384819Y-70842285D01*
X164384819Y-70842285D02*
X164765771Y-71175618D01*
X164765771Y-71175618D02*
X164765771Y-71032761D01*
X164765771Y-71032761D02*
X164813390Y-70937523D01*
X164813390Y-70937523D02*
X164861009Y-70889904D01*
X164861009Y-70889904D02*
X164956247Y-70842285D01*
X164956247Y-70842285D02*
X165194342Y-70842285D01*
X165194342Y-70842285D02*
X165289580Y-70889904D01*
X165289580Y-70889904D02*
X165337200Y-70937523D01*
X165337200Y-70937523D02*
X165384819Y-71032761D01*
X165384819Y-71032761D02*
X165384819Y-71318475D01*
X165384819Y-71318475D02*
X165337200Y-71413713D01*
X165337200Y-71413713D02*
X165289580Y-71461332D01*
X62232095Y-123081819D02*
X62232095Y-122081819D01*
X62232095Y-122558009D02*
X62803523Y-122558009D01*
X62803523Y-123081819D02*
X62803523Y-122081819D01*
X63184476Y-122081819D02*
X63803523Y-122081819D01*
X63803523Y-122081819D02*
X63470190Y-122462771D01*
X63470190Y-122462771D02*
X63613047Y-122462771D01*
X63613047Y-122462771D02*
X63708285Y-122510390D01*
X63708285Y-122510390D02*
X63755904Y-122558009D01*
X63755904Y-122558009D02*
X63803523Y-122653247D01*
X63803523Y-122653247D02*
X63803523Y-122891342D01*
X63803523Y-122891342D02*
X63755904Y-122986580D01*
X63755904Y-122986580D02*
X63708285Y-123034200D01*
X63708285Y-123034200D02*
X63613047Y-123081819D01*
X63613047Y-123081819D02*
X63327333Y-123081819D01*
X63327333Y-123081819D02*
X63232095Y-123034200D01*
X63232095Y-123034200D02*
X63184476Y-122986580D01*
X187325095Y-123081819D02*
X187325095Y-122081819D01*
X187325095Y-122558009D02*
X187896523Y-122558009D01*
X187896523Y-123081819D02*
X187896523Y-122081819D01*
X188515571Y-122510390D02*
X188420333Y-122462771D01*
X188420333Y-122462771D02*
X188372714Y-122415152D01*
X188372714Y-122415152D02*
X188325095Y-122319914D01*
X188325095Y-122319914D02*
X188325095Y-122272295D01*
X188325095Y-122272295D02*
X188372714Y-122177057D01*
X188372714Y-122177057D02*
X188420333Y-122129438D01*
X188420333Y-122129438D02*
X188515571Y-122081819D01*
X188515571Y-122081819D02*
X188706047Y-122081819D01*
X188706047Y-122081819D02*
X188801285Y-122129438D01*
X188801285Y-122129438D02*
X188848904Y-122177057D01*
X188848904Y-122177057D02*
X188896523Y-122272295D01*
X188896523Y-122272295D02*
X188896523Y-122319914D01*
X188896523Y-122319914D02*
X188848904Y-122415152D01*
X188848904Y-122415152D02*
X188801285Y-122462771D01*
X188801285Y-122462771D02*
X188706047Y-122510390D01*
X188706047Y-122510390D02*
X188515571Y-122510390D01*
X188515571Y-122510390D02*
X188420333Y-122558009D01*
X188420333Y-122558009D02*
X188372714Y-122605628D01*
X188372714Y-122605628D02*
X188325095Y-122700866D01*
X188325095Y-122700866D02*
X188325095Y-122891342D01*
X188325095Y-122891342D02*
X188372714Y-122986580D01*
X188372714Y-122986580D02*
X188420333Y-123034200D01*
X188420333Y-123034200D02*
X188515571Y-123081819D01*
X188515571Y-123081819D02*
X188706047Y-123081819D01*
X188706047Y-123081819D02*
X188801285Y-123034200D01*
X188801285Y-123034200D02*
X188848904Y-122986580D01*
X188848904Y-122986580D02*
X188896523Y-122891342D01*
X188896523Y-122891342D02*
X188896523Y-122700866D01*
X188896523Y-122700866D02*
X188848904Y-122605628D01*
X188848904Y-122605628D02*
X188801285Y-122558009D01*
X188801285Y-122558009D02*
X188706047Y-122510390D01*
X175424819Y-71766666D02*
X174948628Y-72099999D01*
X175424819Y-72338094D02*
X174424819Y-72338094D01*
X174424819Y-72338094D02*
X174424819Y-71957142D01*
X174424819Y-71957142D02*
X174472438Y-71861904D01*
X174472438Y-71861904D02*
X174520057Y-71814285D01*
X174520057Y-71814285D02*
X174615295Y-71766666D01*
X174615295Y-71766666D02*
X174758152Y-71766666D01*
X174758152Y-71766666D02*
X174853390Y-71814285D01*
X174853390Y-71814285D02*
X174901009Y-71861904D01*
X174901009Y-71861904D02*
X174948628Y-71957142D01*
X174948628Y-71957142D02*
X174948628Y-72338094D01*
X175424819Y-70814285D02*
X175424819Y-71385713D01*
X175424819Y-71099999D02*
X174424819Y-71099999D01*
X174424819Y-71099999D02*
X174567676Y-71195237D01*
X174567676Y-71195237D02*
X174662914Y-71290475D01*
X174662914Y-71290475D02*
X174710533Y-71385713D01*
D11*
%TO.C,R4*%
X157870000Y-68330000D02*
X157870000Y-74870000D01*
X157540000Y-68330000D02*
X157870000Y-68330000D01*
X155460000Y-68330000D02*
X155130000Y-68330000D01*
X155130000Y-68330000D02*
X155130000Y-74870000D01*
X157870000Y-74870000D02*
X157540000Y-74870000D01*
X155130000Y-74870000D02*
X155460000Y-74870000D01*
%TO.C,J1*%
X121200000Y-123800000D02*
X121200000Y-109100000D01*
X130400000Y-123800000D02*
X121200000Y-123800000D01*
X130400000Y-115000000D02*
X130400000Y-123800000D01*
X121000000Y-109950000D02*
X121000000Y-108900000D01*
X121200000Y-109100000D02*
X123800000Y-109100000D01*
X127700000Y-109100000D02*
X130400000Y-109100000D01*
X130400000Y-109100000D02*
X130400000Y-111000000D01*
X122050000Y-108900000D02*
X121000000Y-108900000D01*
%TO.C,LED NWK*%
X174350000Y-61750000D02*
X174350000Y-60500000D01*
X174060000Y-61460000D02*
X174060000Y-55490000D01*
X174060000Y-55490000D02*
X161440000Y-55490000D01*
X174050000Y-61450000D02*
X174050000Y-60700000D01*
X174050000Y-60700000D02*
X172250000Y-60700000D01*
X174050000Y-59200000D02*
X173300000Y-59200000D01*
X173300000Y-59200000D02*
X173300000Y-56250000D01*
X173300000Y-56250000D02*
X167750000Y-56250000D01*
X173100000Y-61750000D02*
X174350000Y-61750000D01*
X172250000Y-61450000D02*
X174050000Y-61450000D01*
X172250000Y-60700000D02*
X172250000Y-61450000D01*
X170750000Y-61450000D02*
X170750000Y-60700000D01*
X170750000Y-60700000D02*
X164750000Y-60700000D01*
X164750000Y-61450000D02*
X170750000Y-61450000D01*
X164750000Y-60700000D02*
X164750000Y-61450000D01*
X163250000Y-61450000D02*
X163250000Y-60700000D01*
X163250000Y-60700000D02*
X161450000Y-60700000D01*
X162200000Y-59200000D02*
X162200000Y-56250000D01*
X162200000Y-56250000D02*
X167750000Y-56250000D01*
X161450000Y-61450000D02*
X163250000Y-61450000D01*
X161450000Y-60700000D02*
X161450000Y-61450000D01*
X161450000Y-59200000D02*
X162200000Y-59200000D01*
X161440000Y-61460000D02*
X174060000Y-61460000D01*
X161440000Y-55490000D02*
X161440000Y-61460000D01*
%TO.C,SENSOR*%
X183750000Y-79550000D02*
X185000000Y-79550000D01*
X184040000Y-79260000D02*
X190010000Y-79260000D01*
X190010000Y-79260000D02*
X190010000Y-69140000D01*
X184050000Y-79250000D02*
X184800000Y-79250000D01*
X184800000Y-79250000D02*
X184800000Y-77450000D01*
X186300000Y-79250000D02*
X186300000Y-78500000D01*
X186300000Y-78500000D02*
X189250000Y-78500000D01*
X189250000Y-78500000D02*
X189250000Y-74200000D01*
X183750000Y-78300000D02*
X183750000Y-79550000D01*
X184050000Y-77450000D02*
X184050000Y-79250000D01*
X184800000Y-77450000D02*
X184050000Y-77450000D01*
X184050000Y-75950000D02*
X184800000Y-75950000D01*
X184800000Y-75950000D02*
X184800000Y-72450000D01*
X184050000Y-72450000D02*
X184050000Y-75950000D01*
X184800000Y-72450000D02*
X184050000Y-72450000D01*
X184050000Y-70950000D02*
X184800000Y-70950000D01*
X184800000Y-70950000D02*
X184800000Y-69150000D01*
X186300000Y-69900000D02*
X189250000Y-69900000D01*
X189250000Y-69900000D02*
X189250000Y-74200000D01*
X184050000Y-69150000D02*
X184050000Y-70950000D01*
X184800000Y-69150000D02*
X184050000Y-69150000D01*
X186300000Y-69150000D02*
X186300000Y-69900000D01*
X184040000Y-69140000D02*
X184040000Y-79260000D01*
X190010000Y-69140000D02*
X184040000Y-69140000D01*
%TO.C,PS1*%
X67710000Y-110000000D02*
X67710000Y-112010000D01*
X68090000Y-102140000D02*
X68090000Y-125860000D01*
X68100000Y-125860000D02*
X107310000Y-125860000D01*
X107310000Y-102140000D02*
X68100000Y-102140000D01*
X107310000Y-125860000D02*
X107310000Y-102140000D01*
D10*
%TO.C,RV1*%
X106650000Y-80750000D02*
X102750000Y-80750000D01*
X106650000Y-80750000D02*
X106650000Y-92750000D01*
X102750000Y-80750000D02*
X102750000Y-92750000D01*
X106650000Y-92750000D02*
X102750000Y-92750000D01*
D12*
%TO.C,ESP32-DEVKITC-32U*%
X186300000Y-84350000D02*
X138100000Y-84350000D01*
X138100000Y-84350000D02*
X138100000Y-94230000D01*
X192500000Y-89300000D02*
X192500000Y-107300000D01*
X186300000Y-89300000D02*
X186300000Y-84350000D01*
X186300000Y-89300000D02*
X192500000Y-89300000D01*
X138100000Y-94230000D02*
X137200000Y-94230000D01*
X137200000Y-94230000D02*
X137200000Y-102360000D01*
X138100000Y-102360000D02*
X138100000Y-112250000D01*
X137200000Y-102360000D02*
X138100000Y-102360000D01*
X192500000Y-107300000D02*
X186300000Y-107300000D01*
X186300000Y-112250000D02*
X186300000Y-107300000D01*
X138100000Y-112250000D02*
X186300000Y-112250000D01*
D13*
X185270000Y-83730000D02*
G75*
G03*
X185270000Y-83730000I-100000J0D01*
G01*
D11*
%TO.C,VAC_IN1*%
X94657500Y-60535000D02*
X94657500Y-59795000D01*
X94657500Y-59795000D02*
X94157500Y-59795000D01*
X94417500Y-69956000D02*
X94417500Y-60035000D01*
X94417500Y-69956000D02*
X84297500Y-69956000D01*
X94417500Y-66996000D02*
X84297500Y-66996000D01*
X94417500Y-62095000D02*
X84297500Y-62095000D01*
X94417500Y-60595000D02*
X84297500Y-60595000D01*
X94417500Y-60035000D02*
X84297500Y-60035000D01*
X88084500Y-63672000D02*
X88131500Y-63626000D01*
X87891500Y-63456000D02*
X87926500Y-63421000D01*
X85787500Y-65970000D02*
X85822500Y-65934000D01*
X85582500Y-65764000D02*
X85629500Y-65718000D01*
X84297500Y-69956000D02*
X84297500Y-60035000D01*
X93392499Y-65378999D02*
G75*
G03*
X93392926Y-64011958I-1534992J684000D01*
G01*
X91173501Y-66229999D02*
G75*
G03*
X92540542Y-66230426I684000J1534992D01*
G01*
X92541500Y-63160001D02*
G75*
G03*
X91828695Y-63014748I-683999J-1535000D01*
G01*
X91857500Y-63015001D02*
G75*
G03*
X91174182Y-63160245I0J-1679999D01*
G01*
X90322500Y-64011000D02*
G75*
G03*
X90322074Y-65378042I1535000J-684000D01*
G01*
X88537500Y-64695000D02*
G75*
G03*
X88537500Y-64695000I-1680000J0D01*
G01*
%TO.C,C2*%
X136320354Y-72925000D02*
X137320354Y-72925000D01*
X136820354Y-72425000D02*
X136820354Y-73425000D01*
X141800000Y-70720000D02*
X141800000Y-80880000D01*
X141840000Y-70720000D02*
X141840000Y-80880000D01*
X141880000Y-70720000D02*
X141880000Y-80880000D01*
X141920000Y-70721000D02*
X141920000Y-80879000D01*
X141960000Y-70722000D02*
X141960000Y-80878000D01*
X142000000Y-70723000D02*
X142000000Y-80877000D01*
X142040000Y-70725000D02*
X142040000Y-80875000D01*
X142080000Y-70727000D02*
X142080000Y-80873000D01*
X142120000Y-70730000D02*
X142120000Y-80870000D01*
X142160000Y-70732000D02*
X142160000Y-80868000D01*
X142200000Y-70735000D02*
X142200000Y-80865000D01*
X142240000Y-70738000D02*
X142240000Y-80862000D01*
X142280000Y-70742000D02*
X142280000Y-80858000D01*
X142320000Y-70746000D02*
X142320000Y-80854000D01*
X142360000Y-70750000D02*
X142360000Y-80850000D01*
X142400000Y-70755000D02*
X142400000Y-80845000D01*
X142440000Y-70760000D02*
X142440000Y-80840000D01*
X142480000Y-70765000D02*
X142480000Y-80835000D01*
X142521000Y-70770000D02*
X142521000Y-80830000D01*
X142561000Y-70776000D02*
X142561000Y-80824000D01*
X142601000Y-70782000D02*
X142601000Y-80818000D01*
X142641000Y-70789000D02*
X142641000Y-80811000D01*
X142681000Y-70796000D02*
X142681000Y-80804000D01*
X142721000Y-70803000D02*
X142721000Y-80797000D01*
X142761000Y-70810000D02*
X142761000Y-80790000D01*
X142801000Y-70818000D02*
X142801000Y-80782000D01*
X142841000Y-70826000D02*
X142841000Y-80774000D01*
X142881000Y-70835000D02*
X142881000Y-80765000D01*
X142921000Y-70844000D02*
X142921000Y-80756000D01*
X142961000Y-70853000D02*
X142961000Y-80747000D01*
X143001000Y-70862000D02*
X143001000Y-80738000D01*
X143041000Y-70872000D02*
X143041000Y-80728000D01*
X143081000Y-70882000D02*
X143081000Y-74559000D01*
X143081000Y-77041000D02*
X143081000Y-80718000D01*
X143121000Y-70893000D02*
X143121000Y-74559000D01*
X143121000Y-77041000D02*
X143121000Y-80707000D01*
X143161000Y-70903000D02*
X143161000Y-74559000D01*
X143161000Y-77041000D02*
X143161000Y-80697000D01*
X143201000Y-70915000D02*
X143201000Y-74559000D01*
X143201000Y-77041000D02*
X143201000Y-80685000D01*
X143241000Y-70926000D02*
X143241000Y-74559000D01*
X143241000Y-77041000D02*
X143241000Y-80674000D01*
X143281000Y-70938000D02*
X143281000Y-74559000D01*
X143281000Y-77041000D02*
X143281000Y-80662000D01*
X143321000Y-70950000D02*
X143321000Y-74559000D01*
X143321000Y-77041000D02*
X143321000Y-80650000D01*
X143361000Y-70963000D02*
X143361000Y-74559000D01*
X143361000Y-77041000D02*
X143361000Y-80637000D01*
X143401000Y-70976000D02*
X143401000Y-74559000D01*
X143401000Y-77041000D02*
X143401000Y-80624000D01*
X143441000Y-70989000D02*
X143441000Y-74559000D01*
X143441000Y-77041000D02*
X143441000Y-80611000D01*
X143481000Y-71003000D02*
X143481000Y-74559000D01*
X143481000Y-77041000D02*
X143481000Y-80597000D01*
X143521000Y-71017000D02*
X143521000Y-74559000D01*
X143521000Y-77041000D02*
X143521000Y-80583000D01*
X143561000Y-71032000D02*
X143561000Y-74559000D01*
X143561000Y-77041000D02*
X143561000Y-80568000D01*
X143601000Y-71046000D02*
X143601000Y-74559000D01*
X143601000Y-77041000D02*
X143601000Y-80554000D01*
X143641000Y-71062000D02*
X143641000Y-74559000D01*
X143641000Y-77041000D02*
X143641000Y-80538000D01*
X143681000Y-71077000D02*
X143681000Y-74559000D01*
X143681000Y-77041000D02*
X143681000Y-80523000D01*
X143721000Y-71093000D02*
X143721000Y-74559000D01*
X143721000Y-77041000D02*
X143721000Y-80507000D01*
X143761000Y-71110000D02*
X143761000Y-74559000D01*
X143761000Y-77041000D02*
X143761000Y-80490000D01*
X143801000Y-71126000D02*
X143801000Y-74559000D01*
X143801000Y-77041000D02*
X143801000Y-80474000D01*
X143841000Y-71143000D02*
X143841000Y-74559000D01*
X143841000Y-77041000D02*
X143841000Y-80457000D01*
X143881000Y-71161000D02*
X143881000Y-74559000D01*
X143881000Y-77041000D02*
X143881000Y-80439000D01*
X143921000Y-71179000D02*
X143921000Y-74559000D01*
X143921000Y-77041000D02*
X143921000Y-80421000D01*
X143961000Y-71197000D02*
X143961000Y-74559000D01*
X143961000Y-77041000D02*
X143961000Y-80403000D01*
X144001000Y-71216000D02*
X144001000Y-74559000D01*
X144001000Y-77041000D02*
X144001000Y-80384000D01*
X144041000Y-71236000D02*
X144041000Y-74559000D01*
X144041000Y-77041000D02*
X144041000Y-80364000D01*
X144081000Y-71255000D02*
X144081000Y-74559000D01*
X144081000Y-77041000D02*
X144081000Y-80345000D01*
X144121000Y-71275000D02*
X144121000Y-74559000D01*
X144121000Y-77041000D02*
X144121000Y-80325000D01*
X144161000Y-71296000D02*
X144161000Y-74559000D01*
X144161000Y-77041000D02*
X144161000Y-80304000D01*
X144201000Y-71317000D02*
X144201000Y-74559000D01*
X144201000Y-77041000D02*
X144201000Y-80283000D01*
X144241000Y-71338000D02*
X144241000Y-74559000D01*
X144241000Y-77041000D02*
X144241000Y-80262000D01*
X144281000Y-71360000D02*
X144281000Y-74559000D01*
X144281000Y-77041000D02*
X144281000Y-80240000D01*
X144321000Y-71383000D02*
X144321000Y-74559000D01*
X144321000Y-77041000D02*
X144321000Y-80217000D01*
X144361000Y-71405000D02*
X144361000Y-74559000D01*
X144361000Y-77041000D02*
X144361000Y-80195000D01*
X144401000Y-71429000D02*
X144401000Y-74559000D01*
X144401000Y-77041000D02*
X144401000Y-80171000D01*
X144441000Y-71453000D02*
X144441000Y-74559000D01*
X144441000Y-77041000D02*
X144441000Y-80147000D01*
X144481000Y-71477000D02*
X144481000Y-74559000D01*
X144481000Y-77041000D02*
X144481000Y-80123000D01*
X144521000Y-71502000D02*
X144521000Y-74559000D01*
X144521000Y-77041000D02*
X144521000Y-80098000D01*
X144561000Y-71527000D02*
X144561000Y-74559000D01*
X144561000Y-77041000D02*
X144561000Y-80073000D01*
X144601000Y-71553000D02*
X144601000Y-74559000D01*
X144601000Y-77041000D02*
X144601000Y-80047000D01*
X144641000Y-71579000D02*
X144641000Y-74559000D01*
X144641000Y-77041000D02*
X144641000Y-80021000D01*
X144681000Y-71606000D02*
X144681000Y-74559000D01*
X144681000Y-77041000D02*
X144681000Y-79994000D01*
X144721000Y-71634000D02*
X144721000Y-74559000D01*
X144721000Y-77041000D02*
X144721000Y-79966000D01*
X144761000Y-71662000D02*
X144761000Y-74559000D01*
X144761000Y-77041000D02*
X144761000Y-79938000D01*
X144801000Y-71690000D02*
X144801000Y-74559000D01*
X144801000Y-77041000D02*
X144801000Y-79910000D01*
X144841000Y-71720000D02*
X144841000Y-74559000D01*
X144841000Y-77041000D02*
X144841000Y-79880000D01*
X144881000Y-71750000D02*
X144881000Y-74559000D01*
X144881000Y-77041000D02*
X144881000Y-79850000D01*
X144921000Y-71780000D02*
X144921000Y-74559000D01*
X144921000Y-77041000D02*
X144921000Y-79820000D01*
X144961000Y-71811000D02*
X144961000Y-74559000D01*
X144961000Y-77041000D02*
X144961000Y-79789000D01*
X145001000Y-71843000D02*
X145001000Y-74559000D01*
X145001000Y-77041000D02*
X145001000Y-79757000D01*
X145041000Y-71875000D02*
X145041000Y-74559000D01*
X145041000Y-77041000D02*
X145041000Y-79725000D01*
X145081000Y-71908000D02*
X145081000Y-74559000D01*
X145081000Y-77041000D02*
X145081000Y-79692000D01*
X145121000Y-71942000D02*
X145121000Y-74559000D01*
X145121000Y-77041000D02*
X145121000Y-79658000D01*
X145161000Y-71976000D02*
X145161000Y-74559000D01*
X145161000Y-77041000D02*
X145161000Y-79624000D01*
X145201000Y-72011000D02*
X145201000Y-74559000D01*
X145201000Y-77041000D02*
X145201000Y-79589000D01*
X145241000Y-72047000D02*
X145241000Y-74559000D01*
X145241000Y-77041000D02*
X145241000Y-79553000D01*
X145281000Y-72084000D02*
X145281000Y-74559000D01*
X145281000Y-77041000D02*
X145281000Y-79516000D01*
X145321000Y-72121000D02*
X145321000Y-74559000D01*
X145321000Y-77041000D02*
X145321000Y-79479000D01*
X145361000Y-72160000D02*
X145361000Y-74559000D01*
X145361000Y-77041000D02*
X145361000Y-79440000D01*
X145401000Y-72199000D02*
X145401000Y-74559000D01*
X145401000Y-77041000D02*
X145401000Y-79401000D01*
X145441000Y-72239000D02*
X145441000Y-74559000D01*
X145441000Y-77041000D02*
X145441000Y-79361000D01*
X145481000Y-72280000D02*
X145481000Y-74559000D01*
X145481000Y-77041000D02*
X145481000Y-79320000D01*
X145521000Y-72322000D02*
X145521000Y-74559000D01*
X145521000Y-77041000D02*
X145521000Y-79278000D01*
X145561000Y-72364000D02*
X145561000Y-79236000D01*
X145601000Y-72408000D02*
X145601000Y-79192000D01*
X145641000Y-72453000D02*
X145641000Y-79147000D01*
X145681000Y-72499000D02*
X145681000Y-79101000D01*
X145721000Y-72546000D02*
X145721000Y-79054000D01*
X145761000Y-72594000D02*
X145761000Y-79006000D01*
X145801000Y-72644000D02*
X145801000Y-78956000D01*
X145841000Y-72694000D02*
X145841000Y-78906000D01*
X145881000Y-72746000D02*
X145881000Y-78854000D01*
X145921000Y-72800000D02*
X145921000Y-78800000D01*
X145961000Y-72855000D02*
X145961000Y-78745000D01*
X146001000Y-72911000D02*
X146001000Y-78689000D01*
X146041000Y-72970000D02*
X146041000Y-78630000D01*
X146081000Y-73030000D02*
X146081000Y-78570000D01*
X146121000Y-73091000D02*
X146121000Y-78509000D01*
X146161000Y-73155000D02*
X146161000Y-78445000D01*
X146201000Y-73221000D02*
X146201000Y-78379000D01*
X146241000Y-73290000D02*
X146241000Y-78310000D01*
X146281000Y-73361000D02*
X146281000Y-78239000D01*
X146321000Y-73435000D02*
X146321000Y-78165000D01*
X146361000Y-73511000D02*
X146361000Y-78089000D01*
X146401000Y-73591000D02*
X146401000Y-78009000D01*
X146441000Y-73675000D02*
X146441000Y-77925000D01*
X146481000Y-73763000D02*
X146481000Y-77837000D01*
X146521000Y-73856000D02*
X146521000Y-77744000D01*
X146561000Y-73954000D02*
X146561000Y-77646000D01*
X146601000Y-74058000D02*
X146601000Y-77542000D01*
X146641000Y-74170000D02*
X146641000Y-77430000D01*
X146681000Y-74290000D02*
X146681000Y-77310000D01*
X146721000Y-74422000D02*
X146721000Y-77178000D01*
X146761000Y-74570000D02*
X146761000Y-77030000D01*
X146801000Y-74738000D02*
X146801000Y-76862000D01*
X146841000Y-74938000D02*
X146841000Y-76662000D01*
X146881000Y-75201000D02*
X146881000Y-76399000D01*
X146920000Y-75800000D02*
G75*
G03*
X146920000Y-75800000I-5120000J0D01*
G01*
%TO.C,FL1*%
X85250000Y-77150000D02*
X69250000Y-77150000D01*
D14*
X85250000Y-77150000D02*
X85250000Y-97350000D01*
X69250000Y-77150000D02*
X69250000Y-97350000D01*
D11*
X69250000Y-97350000D02*
X85250000Y-97350000D01*
%TO.C,R2*%
X169010000Y-68358000D02*
X169010000Y-74898000D01*
X168680000Y-68358000D02*
X169010000Y-68358000D01*
X166600000Y-68358000D02*
X166270000Y-68358000D01*
X166270000Y-68358000D02*
X166270000Y-74898000D01*
X169010000Y-74898000D02*
X168680000Y-74898000D01*
X166270000Y-74898000D02*
X166600000Y-74898000D01*
%TO.C,LED DATA*%
X158850000Y-61750000D02*
X158850000Y-60500000D01*
X158560000Y-61460000D02*
X158560000Y-55490000D01*
X158560000Y-55490000D02*
X150940000Y-55490000D01*
X158550000Y-61450000D02*
X158550000Y-60700000D01*
X158550000Y-60700000D02*
X156750000Y-60700000D01*
X158550000Y-59200000D02*
X157800000Y-59200000D01*
X157800000Y-59200000D02*
X157800000Y-56250000D01*
X157800000Y-56250000D02*
X154750000Y-56250000D01*
X157600000Y-61750000D02*
X158850000Y-61750000D01*
X156750000Y-61450000D02*
X158550000Y-61450000D01*
X156750000Y-60700000D02*
X156750000Y-61450000D01*
X155250000Y-61450000D02*
X155250000Y-60700000D01*
X155250000Y-60700000D02*
X154250000Y-60700000D01*
X154250000Y-61450000D02*
X155250000Y-61450000D01*
X154250000Y-60700000D02*
X154250000Y-61450000D01*
X152750000Y-61450000D02*
X152750000Y-60700000D01*
X152750000Y-60700000D02*
X150950000Y-60700000D01*
X151700000Y-59200000D02*
X151700000Y-56250000D01*
X151700000Y-56250000D02*
X154750000Y-56250000D01*
X150950000Y-61450000D02*
X152750000Y-61450000D01*
X150950000Y-60700000D02*
X150950000Y-61450000D01*
X150950000Y-59200000D02*
X151700000Y-59200000D01*
X150940000Y-61460000D02*
X158560000Y-61460000D01*
X150940000Y-55490000D02*
X150940000Y-61460000D01*
%TO.C,C1*%
X98120000Y-77880000D02*
X89880000Y-77880000D01*
X98120000Y-77880000D02*
X98120000Y-96120000D01*
X89880000Y-77880000D02*
X89880000Y-96120000D01*
X98120000Y-96120000D02*
X89880000Y-96120000D01*
%TO.C,G\u002A\u002A\u002A*%
G36*
X121339396Y-69032216D02*
G01*
X121448138Y-69066879D01*
X121457099Y-69071412D01*
X121489589Y-69092708D01*
X121544995Y-69133636D01*
X121618958Y-69190629D01*
X121707121Y-69260117D01*
X121805124Y-69338533D01*
X121908611Y-69422307D01*
X122013221Y-69507871D01*
X122114598Y-69591657D01*
X122208383Y-69670097D01*
X122290216Y-69739621D01*
X122355742Y-69796662D01*
X122400600Y-69837651D01*
X122420432Y-69859019D01*
X122421012Y-69860638D01*
X122406649Y-69875883D01*
X122366375Y-69912267D01*
X122304080Y-69966444D01*
X122223656Y-70035064D01*
X122128993Y-70114779D01*
X122027768Y-70199102D01*
X121922566Y-70285868D01*
X121827015Y-70363858D01*
X121745132Y-70429858D01*
X121680937Y-70480652D01*
X121638449Y-70513027D01*
X121621799Y-70523793D01*
X121601862Y-70511430D01*
X121557536Y-70477867D01*
X121493619Y-70427119D01*
X121414912Y-70363202D01*
X121326216Y-70290129D01*
X121232331Y-70211916D01*
X121138057Y-70132577D01*
X121048195Y-70056126D01*
X120967544Y-69986579D01*
X120900906Y-69927949D01*
X120853080Y-69884252D01*
X120832217Y-69863444D01*
X120775956Y-69780549D01*
X120732283Y-69677197D01*
X120707865Y-69571049D01*
X120704935Y-69526348D01*
X120723442Y-69396220D01*
X120775877Y-69274698D01*
X120857611Y-69169285D01*
X120964015Y-69087482D01*
X120981716Y-69077764D01*
X121092594Y-69037840D01*
X121216351Y-69022597D01*
X121339396Y-69032216D01*
G37*
G36*
X124121518Y-69017278D02*
G01*
X124242685Y-69063131D01*
X124349504Y-69134695D01*
X124434314Y-69229656D01*
X124459338Y-69271704D01*
X124479432Y-69332801D01*
X124492688Y-69417305D01*
X124498389Y-69510931D01*
X124495816Y-69599391D01*
X124484250Y-69668398D01*
X124479907Y-69680846D01*
X124456790Y-69731572D01*
X124428762Y-69779251D01*
X124391883Y-69828009D01*
X124342210Y-69881970D01*
X124275805Y-69945258D01*
X124188726Y-70021998D01*
X124077034Y-70116316D01*
X124013502Y-70169059D01*
X123909808Y-70254775D01*
X123813929Y-70333918D01*
X123730536Y-70402639D01*
X123664301Y-70457092D01*
X123619896Y-70493430D01*
X123604471Y-70505894D01*
X123590887Y-70515675D01*
X123576754Y-70520354D01*
X123558406Y-70517487D01*
X123532175Y-70504627D01*
X123494396Y-70479328D01*
X123441401Y-70439143D01*
X123369523Y-70381627D01*
X123275096Y-70304333D01*
X123159914Y-70209325D01*
X123053778Y-70121682D01*
X122957714Y-70042336D01*
X122875640Y-69974527D01*
X122811472Y-69921489D01*
X122769129Y-69886462D01*
X122752527Y-69872681D01*
X122752480Y-69872641D01*
X122764106Y-69858801D01*
X122801715Y-69824370D01*
X122861112Y-69772781D01*
X122938103Y-69707470D01*
X123028494Y-69631869D01*
X123128091Y-69549413D01*
X123232700Y-69463536D01*
X123338126Y-69377672D01*
X123440176Y-69295255D01*
X123534654Y-69219718D01*
X123617368Y-69154497D01*
X123684123Y-69103024D01*
X123730724Y-69068735D01*
X123748537Y-69057109D01*
X123866784Y-69011954D01*
X123993665Y-68999448D01*
X124121518Y-69017278D01*
G37*
G36*
X124960542Y-97390302D02*
G01*
X125016311Y-97403497D01*
X125091269Y-97425382D01*
X125177025Y-97453334D01*
X125265189Y-97484733D01*
X125347372Y-97516957D01*
X125358084Y-97521453D01*
X125483852Y-97582906D01*
X125621272Y-97663631D01*
X125755840Y-97754552D01*
X125860474Y-97835863D01*
X125992768Y-97966555D01*
X126118762Y-98127902D01*
X126233656Y-98312015D01*
X126332650Y-98511008D01*
X126410943Y-98716992D01*
X126425455Y-98764313D01*
X126459609Y-98919268D01*
X126480396Y-99096633D01*
X126487361Y-99282472D01*
X126480045Y-99462847D01*
X126457994Y-99623820D01*
X126454189Y-99641838D01*
X126431565Y-99733770D01*
X126404964Y-99826578D01*
X126379581Y-99902343D01*
X126375917Y-99911845D01*
X126336581Y-100003169D01*
X126289575Y-100099918D01*
X126238260Y-100196531D01*
X126185997Y-100287449D01*
X126136150Y-100367111D01*
X126092079Y-100429957D01*
X126057146Y-100470427D01*
X126034713Y-100482961D01*
X126031634Y-100481267D01*
X126022025Y-100460288D01*
X126000951Y-100406487D01*
X125969554Y-100323080D01*
X125928979Y-100213285D01*
X125880369Y-100080320D01*
X125824868Y-99927404D01*
X125763619Y-99757752D01*
X125697767Y-99574584D01*
X125628455Y-99381116D01*
X125556826Y-99180567D01*
X125484024Y-98976154D01*
X125411192Y-98771095D01*
X125339476Y-98568608D01*
X125270017Y-98371909D01*
X125203960Y-98184218D01*
X125142449Y-98008751D01*
X125086626Y-97848726D01*
X125037636Y-97707361D01*
X124996623Y-97587874D01*
X124964729Y-97493482D01*
X124943099Y-97427403D01*
X124932877Y-97392854D01*
X124932350Y-97388418D01*
X124960542Y-97390302D01*
G37*
G36*
X122652163Y-70061762D02*
G01*
X122675416Y-70077504D01*
X122724946Y-70115196D01*
X122797399Y-70172093D01*
X122889422Y-70245448D01*
X122997663Y-70332513D01*
X123118770Y-70430542D01*
X123249390Y-70536788D01*
X123386169Y-70648504D01*
X123525756Y-70762945D01*
X123664797Y-70877362D01*
X123799941Y-70989008D01*
X123927834Y-71095139D01*
X124045123Y-71193005D01*
X124148457Y-71279861D01*
X124234482Y-71352960D01*
X124299846Y-71409556D01*
X124328852Y-71435450D01*
X124419376Y-71542255D01*
X124478616Y-71665372D01*
X124505118Y-71797864D01*
X124497432Y-71932797D01*
X124458412Y-72054214D01*
X124388991Y-72160161D01*
X124294115Y-72243106D01*
X124180859Y-72300783D01*
X124056294Y-72330922D01*
X123927493Y-72331258D01*
X123801528Y-72299521D01*
X123756946Y-72279138D01*
X123718385Y-72254498D01*
X123654510Y-72208266D01*
X123569508Y-72143702D01*
X123467563Y-72064069D01*
X123352859Y-71972629D01*
X123229581Y-71872643D01*
X123125194Y-71786701D01*
X122594734Y-71346977D01*
X122069311Y-71783985D01*
X121915780Y-71910509D01*
X121778350Y-72021401D01*
X121659560Y-72114704D01*
X121561947Y-72188460D01*
X121488049Y-72240712D01*
X121440405Y-72269502D01*
X121438702Y-72270317D01*
X121314136Y-72312829D01*
X121192425Y-72320056D01*
X121067194Y-72291766D01*
X120979562Y-72253547D01*
X120904316Y-72211652D01*
X120852568Y-72171336D01*
X120811478Y-72121248D01*
X120788107Y-72084318D01*
X120732715Y-71958575D01*
X120709952Y-71826143D01*
X120720633Y-71701475D01*
X120730618Y-71661310D01*
X120742851Y-71624003D01*
X120759649Y-71587259D01*
X120783326Y-71548780D01*
X120816202Y-71506272D01*
X120860590Y-71457436D01*
X120918809Y-71399979D01*
X120993175Y-71331602D01*
X121086003Y-71250011D01*
X121199611Y-71152909D01*
X121336316Y-71037999D01*
X121498432Y-70902987D01*
X121668284Y-70762137D01*
X121823736Y-70633748D01*
X121971452Y-70512502D01*
X122108566Y-70400700D01*
X122232212Y-70300645D01*
X122339524Y-70214639D01*
X122427634Y-70144982D01*
X122493678Y-70093977D01*
X122534788Y-70063925D01*
X122546629Y-70056775D01*
X122609910Y-70049222D01*
X122652163Y-70061762D01*
G37*
G36*
X121582326Y-93722230D02*
G01*
X121618934Y-93765926D01*
X121671837Y-93832813D01*
X121737896Y-93918850D01*
X121813970Y-94019992D01*
X121896920Y-94132199D01*
X121906484Y-94145255D01*
X122224074Y-94579195D01*
X122129243Y-94593593D01*
X121999554Y-94629783D01*
X121895554Y-94694351D01*
X121818207Y-94786072D01*
X121768478Y-94903716D01*
X121747330Y-95046059D01*
X121746608Y-95080638D01*
X121762752Y-95224862D01*
X121811248Y-95348093D01*
X121892194Y-95450493D01*
X122005686Y-95532220D01*
X122026974Y-95543440D01*
X122141762Y-95601367D01*
X123323045Y-95606891D01*
X124504328Y-95612414D01*
X124502215Y-95674392D01*
X124496768Y-95736053D01*
X124486225Y-95805230D01*
X124484617Y-95813516D01*
X124431684Y-95985250D01*
X124346020Y-96149933D01*
X124233202Y-96300546D01*
X124098809Y-96430072D01*
X123948416Y-96531495D01*
X123891540Y-96559727D01*
X123844886Y-96579660D01*
X123798364Y-96596508D01*
X123748390Y-96610529D01*
X123691377Y-96621978D01*
X123623739Y-96631113D01*
X123541891Y-96638190D01*
X123442247Y-96643464D01*
X123321222Y-96647194D01*
X123175229Y-96649635D01*
X123000684Y-96651044D01*
X122793999Y-96651677D01*
X122604632Y-96651798D01*
X122370166Y-96651628D01*
X122170649Y-96650918D01*
X122002460Y-96649368D01*
X121861977Y-96646677D01*
X121745577Y-96642546D01*
X121649639Y-96636675D01*
X121570540Y-96628763D01*
X121504659Y-96618510D01*
X121448372Y-96605616D01*
X121398059Y-96589782D01*
X121350097Y-96570707D01*
X121300864Y-96548091D01*
X121290073Y-96542887D01*
X121194888Y-96485242D01*
X121092598Y-96404393D01*
X120993547Y-96310215D01*
X120908079Y-96212582D01*
X120846537Y-96121368D01*
X120844446Y-96117478D01*
X120773178Y-95950540D01*
X120728056Y-95773255D01*
X120718542Y-95702620D01*
X120714650Y-95647451D01*
X120719835Y-95620501D01*
X120738292Y-95611728D01*
X120756820Y-95611010D01*
X120790298Y-95605705D01*
X120794263Y-95582462D01*
X120790098Y-95567616D01*
X120730861Y-95323605D01*
X120709849Y-95082611D01*
X120727011Y-94845534D01*
X120782296Y-94613278D01*
X120855269Y-94428698D01*
X120926362Y-94287753D01*
X120997144Y-94172520D01*
X121075689Y-94071062D01*
X121153230Y-93988090D01*
X121210399Y-93935956D01*
X121280480Y-93879442D01*
X121356139Y-93823575D01*
X121430044Y-93773379D01*
X121494862Y-93733881D01*
X121543259Y-93710107D01*
X121565153Y-93705768D01*
X121582326Y-93722230D01*
G37*
G36*
X122984295Y-89778859D02*
G01*
X123236762Y-89846217D01*
X123474515Y-89949197D01*
X123697827Y-90087908D01*
X123906975Y-90262454D01*
X124000862Y-90357332D01*
X124168098Y-90560759D01*
X124301278Y-90777978D01*
X124403613Y-91014757D01*
X124450703Y-91165528D01*
X124474411Y-91283257D01*
X124490234Y-91426643D01*
X124497930Y-91583538D01*
X124497258Y-91741790D01*
X124487978Y-91889251D01*
X124469849Y-92013771D01*
X124467702Y-92023766D01*
X124396932Y-92274113D01*
X124300022Y-92499881D01*
X124173544Y-92707671D01*
X124014068Y-92904083D01*
X124005519Y-92913343D01*
X123802225Y-93107107D01*
X123585601Y-93264677D01*
X123355524Y-93386103D01*
X123111871Y-93471430D01*
X122854521Y-93520708D01*
X122632583Y-93531573D01*
X122583349Y-93533983D01*
X122431248Y-93526209D01*
X122168251Y-93485644D01*
X121919637Y-93409355D01*
X121684463Y-93296981D01*
X121480127Y-93162142D01*
X121273166Y-92983274D01*
X121094991Y-92781288D01*
X120947698Y-92559308D01*
X120833388Y-92320458D01*
X120759253Y-92088896D01*
X120731509Y-91935493D01*
X120716629Y-91759413D01*
X120716125Y-91713154D01*
X121746338Y-91713154D01*
X121776589Y-91877065D01*
X121835929Y-92028890D01*
X121921319Y-92165406D01*
X122029717Y-92283392D01*
X122158082Y-92379627D01*
X122303376Y-92450889D01*
X122462556Y-92493956D01*
X122632583Y-92505607D01*
X122810416Y-92482620D01*
X122836836Y-92476177D01*
X122997061Y-92415499D01*
X123140509Y-92323207D01*
X123263523Y-92203958D01*
X123362444Y-92062413D01*
X123433616Y-91903230D01*
X123473379Y-91731067D01*
X123479776Y-91657327D01*
X123477865Y-91611819D01*
X123470661Y-91545536D01*
X123463339Y-91495573D01*
X123416838Y-91323431D01*
X123339145Y-91169634D01*
X123234346Y-91036934D01*
X123106529Y-90928079D01*
X122959780Y-90845820D01*
X122798187Y-90792908D01*
X122625836Y-90772092D01*
X122446814Y-90786122D01*
X122417540Y-90791845D01*
X122259331Y-90843924D01*
X122112520Y-90927798D01*
X121983221Y-91037954D01*
X121877547Y-91168878D01*
X121801611Y-91315059D01*
X121785266Y-91361959D01*
X121748217Y-91540378D01*
X121746338Y-91713154D01*
X120716125Y-91713154D01*
X120714613Y-91574345D01*
X120725462Y-91393976D01*
X120749175Y-91231994D01*
X120759253Y-91187187D01*
X120839614Y-90939920D01*
X120952211Y-90708364D01*
X121093874Y-90495236D01*
X121261433Y-90303258D01*
X121451718Y-90135146D01*
X121661558Y-89993622D01*
X121887783Y-89881404D01*
X122127224Y-89801211D01*
X122376710Y-89755762D01*
X122434113Y-89750587D01*
X122716837Y-89747018D01*
X122984295Y-89778859D01*
G37*
G36*
X122187436Y-85489764D02*
G01*
X123665376Y-85495368D01*
X123788549Y-85539855D01*
X123972282Y-85625214D01*
X124133534Y-85738753D01*
X124269378Y-85876864D01*
X124376883Y-86035938D01*
X124453122Y-86212368D01*
X124495166Y-86402545D01*
X124496258Y-86411817D01*
X124509310Y-86527183D01*
X124427611Y-86527183D01*
X124375424Y-86530407D01*
X124355217Y-86541612D01*
X124356143Y-86553847D01*
X124432902Y-86806002D01*
X124475177Y-87068241D01*
X124483238Y-87334821D01*
X124457356Y-87600001D01*
X124397801Y-87858039D01*
X124304844Y-88103191D01*
X124280803Y-88153101D01*
X124145190Y-88386556D01*
X123985959Y-88591042D01*
X123800525Y-88769119D01*
X123586300Y-88923349D01*
X123395362Y-89029834D01*
X123285856Y-89082058D01*
X123183716Y-89124595D01*
X123083010Y-89158524D01*
X122977805Y-89184924D01*
X122862168Y-89204875D01*
X122730166Y-89219458D01*
X122575865Y-89229750D01*
X122393332Y-89236833D01*
X122236811Y-89240638D01*
X122039154Y-89243680D01*
X121877274Y-89244023D01*
X121748466Y-89241615D01*
X121650025Y-89236405D01*
X121579245Y-89228339D01*
X121577246Y-89228006D01*
X121393901Y-89178203D01*
X121224631Y-89095329D01*
X121073220Y-88983487D01*
X120943453Y-88846781D01*
X120839114Y-88689312D01*
X120763988Y-88515185D01*
X120721857Y-88328502D01*
X120718332Y-88296697D01*
X120709674Y-88205088D01*
X121647509Y-88204753D01*
X121882291Y-88204489D01*
X122082151Y-88203667D01*
X122250739Y-88201967D01*
X122391705Y-88199071D01*
X122508698Y-88194660D01*
X122605369Y-88188415D01*
X122685367Y-88180018D01*
X122752342Y-88169149D01*
X122809945Y-88155489D01*
X122861824Y-88138720D01*
X122911631Y-88118524D01*
X122963014Y-88094580D01*
X122974825Y-88088811D01*
X123100907Y-88010882D01*
X123216274Y-87909721D01*
X123307548Y-87797214D01*
X123313407Y-87788081D01*
X123394931Y-87622901D01*
X123441382Y-87444998D01*
X123452349Y-87258568D01*
X123427422Y-87067808D01*
X123395071Y-86953036D01*
X123337073Y-86811026D01*
X123269668Y-86702189D01*
X123189348Y-86621578D01*
X123134103Y-86585042D01*
X123048216Y-86536826D01*
X122296052Y-86525516D01*
X122075850Y-86521721D01*
X121892342Y-86517476D01*
X121743652Y-86512700D01*
X121627902Y-86507311D01*
X121543217Y-86501228D01*
X121487720Y-86494370D01*
X121466743Y-86489564D01*
X121283374Y-86411899D01*
X121119731Y-86304341D01*
X120979145Y-86170953D01*
X120864948Y-86015798D01*
X120780470Y-85842939D01*
X120729042Y-85656439D01*
X120718244Y-85576552D01*
X120709497Y-85484159D01*
X122187436Y-85489764D01*
G37*
G36*
X122290154Y-97384600D02*
G01*
X122450704Y-97386997D01*
X122600148Y-97391006D01*
X122732282Y-97396627D01*
X122840899Y-97403854D01*
X122919794Y-97412686D01*
X122928552Y-97414126D01*
X123180354Y-97477327D01*
X123421996Y-97576194D01*
X123649639Y-97708339D01*
X123859444Y-97871378D01*
X124047570Y-98062924D01*
X124123093Y-98156415D01*
X124188753Y-98253502D01*
X124257663Y-98373295D01*
X124323764Y-98503572D01*
X124380994Y-98632111D01*
X124423296Y-98746692D01*
X124434081Y-98783599D01*
X124470405Y-98959305D01*
X124492159Y-99148234D01*
X124497832Y-99332924D01*
X124491562Y-99448975D01*
X124446870Y-99715012D01*
X124367430Y-99967692D01*
X124255559Y-100204347D01*
X124113572Y-100422307D01*
X123943785Y-100618905D01*
X123748512Y-100791471D01*
X123530070Y-100937337D01*
X123290773Y-101053835D01*
X123032938Y-101138296D01*
X123023863Y-101140575D01*
X122945685Y-101155748D01*
X122850544Y-101165746D01*
X122731072Y-101171116D01*
X122594989Y-101172442D01*
X122471359Y-101171434D01*
X122375845Y-101168113D01*
X122298011Y-101161401D01*
X122227417Y-101150221D01*
X122153629Y-101133493D01*
X122111485Y-101122500D01*
X121866242Y-101038555D01*
X121638451Y-100922261D01*
X121424969Y-100771763D01*
X121253699Y-100616854D01*
X121074270Y-100413836D01*
X120931320Y-100199727D01*
X120823994Y-99972448D01*
X120751436Y-99729920D01*
X120712790Y-99470062D01*
X120706071Y-99300884D01*
X121729500Y-99300884D01*
X121750747Y-99474978D01*
X121808353Y-99645657D01*
X121838038Y-99705200D01*
X121915675Y-99818122D01*
X122019378Y-99926591D01*
X122137244Y-100019378D01*
X122225854Y-100070986D01*
X122281175Y-100097170D01*
X122326961Y-100114814D01*
X122373123Y-100125600D01*
X122429577Y-100131210D01*
X122506236Y-100133327D01*
X122594989Y-100133637D01*
X122697013Y-100133136D01*
X122770509Y-100130518D01*
X122825514Y-100124112D01*
X122872071Y-100112246D01*
X122920218Y-100093248D01*
X122966709Y-100071755D01*
X123092823Y-99995660D01*
X123212814Y-99893568D01*
X123313729Y-99777339D01*
X123352468Y-99718515D01*
X123414565Y-99578446D01*
X123451311Y-99419924D01*
X123461461Y-99254607D01*
X123443771Y-99094154D01*
X123426331Y-99026432D01*
X123357394Y-98864281D01*
X123261575Y-98725381D01*
X123143469Y-98610895D01*
X123007668Y-98521985D01*
X122858768Y-98459814D01*
X122701362Y-98425544D01*
X122540044Y-98420338D01*
X122379409Y-98445359D01*
X122224050Y-98501769D01*
X122078562Y-98590731D01*
X121994082Y-98663973D01*
X121876904Y-98804920D01*
X121793280Y-98961174D01*
X121743912Y-99128056D01*
X121729500Y-99300884D01*
X120706071Y-99300884D01*
X120705442Y-99285042D01*
X120709684Y-99121994D01*
X120723988Y-98975927D01*
X120750725Y-98835988D01*
X120792265Y-98691322D01*
X120850976Y-98531075D01*
X120891757Y-98431625D01*
X120887098Y-98419584D01*
X120857572Y-98412053D01*
X120798250Y-98408297D01*
X120729733Y-98407517D01*
X120557541Y-98407517D01*
X120572150Y-98286166D01*
X120609326Y-98107851D01*
X120677328Y-97945742D01*
X120778795Y-97794877D01*
X120904211Y-97661519D01*
X121056470Y-97542605D01*
X121222227Y-97458746D01*
X121376605Y-97413295D01*
X121441142Y-97404301D01*
X121538012Y-97396944D01*
X121661008Y-97391221D01*
X121803926Y-97387129D01*
X121960560Y-97384663D01*
X122124704Y-97383822D01*
X122290154Y-97384600D01*
G37*
G36*
X119990273Y-72779297D02*
G01*
X120117231Y-72801134D01*
X120221425Y-72852639D01*
X120307686Y-72936534D01*
X120333510Y-72972499D01*
X120386712Y-73052869D01*
X120392200Y-74042722D01*
X120397688Y-75032574D01*
X120994896Y-75032574D01*
X121592103Y-75032574D01*
X121592527Y-74381663D01*
X121592853Y-74191604D01*
X121594016Y-74035964D01*
X121596701Y-73910591D01*
X121601591Y-73811333D01*
X121609372Y-73734037D01*
X121620727Y-73674550D01*
X121636341Y-73628721D01*
X121656899Y-73592395D01*
X121683085Y-73561422D01*
X121715583Y-73531648D01*
X121735344Y-73515145D01*
X121844890Y-73447411D01*
X121961748Y-73414597D01*
X122079834Y-73415451D01*
X122193061Y-73448721D01*
X122295345Y-73513157D01*
X122380601Y-73607507D01*
X122408714Y-73653607D01*
X122419984Y-73675978D01*
X122429073Y-73699801D01*
X122436261Y-73729383D01*
X122441830Y-73769035D01*
X122446063Y-73823066D01*
X122449241Y-73895784D01*
X122451646Y-73991500D01*
X122453560Y-74114523D01*
X122455265Y-74269161D01*
X122456329Y-74381663D01*
X122462317Y-75032574D01*
X123048710Y-75032574D01*
X123635102Y-75032574D01*
X123640596Y-74053797D01*
X123646090Y-73075019D01*
X123700193Y-72982978D01*
X123747817Y-72918137D01*
X123806658Y-72859031D01*
X123833788Y-72838331D01*
X123878813Y-72811504D01*
X123921835Y-72795663D01*
X123975500Y-72788016D01*
X124052458Y-72785772D01*
X124072139Y-72785725D01*
X124153992Y-72787005D01*
X124209980Y-72792863D01*
X124252780Y-72806331D01*
X124295070Y-72830441D01*
X124314626Y-72843703D01*
X124400233Y-72925573D01*
X124451291Y-73006273D01*
X124504328Y-73110865D01*
X124502688Y-74153686D01*
X124502012Y-74406309D01*
X124500805Y-74622601D01*
X124499016Y-74804802D01*
X124496595Y-74955148D01*
X124493492Y-75075881D01*
X124489655Y-75169237D01*
X124485035Y-75237457D01*
X124479581Y-75282777D01*
X124476945Y-75295873D01*
X124423608Y-75453517D01*
X124341414Y-75598503D01*
X124225939Y-75738370D01*
X124204384Y-75760471D01*
X124055945Y-75886841D01*
X123894615Y-75982327D01*
X123726407Y-76043575D01*
X123677208Y-76054453D01*
X123637727Y-76058195D01*
X123563452Y-76061550D01*
X123457979Y-76064520D01*
X123324906Y-76067107D01*
X123167831Y-76069312D01*
X122990350Y-76071138D01*
X122796061Y-76072586D01*
X122588563Y-76073659D01*
X122371451Y-76074358D01*
X122148324Y-76074684D01*
X121922779Y-76074641D01*
X121698413Y-76074229D01*
X121478824Y-76073450D01*
X121267610Y-76072307D01*
X121068367Y-76070801D01*
X120884693Y-76068934D01*
X120720185Y-76066708D01*
X120578442Y-76064125D01*
X120463060Y-76061187D01*
X120377637Y-76057895D01*
X120325770Y-76054251D01*
X120315338Y-76052719D01*
X120140151Y-75997083D01*
X119979794Y-75908460D01*
X119838161Y-75790852D01*
X119719145Y-75648263D01*
X119626638Y-75484694D01*
X119564533Y-75304149D01*
X119557614Y-75273652D01*
X119550940Y-75235170D01*
X119545334Y-75186143D01*
X119540710Y-75123284D01*
X119536985Y-75043301D01*
X119534074Y-74942905D01*
X119531895Y-74818808D01*
X119530363Y-74667719D01*
X119529393Y-74486348D01*
X119528902Y-74271407D01*
X119528809Y-74145279D01*
X119529104Y-73926702D01*
X119530109Y-73726828D01*
X119531773Y-73548578D01*
X119534045Y-73394876D01*
X119536873Y-73268642D01*
X119540207Y-73172801D01*
X119543995Y-73110273D01*
X119547315Y-73086214D01*
X119597853Y-72976864D01*
X119679115Y-72883154D01*
X119762329Y-72824842D01*
X119822311Y-72795430D01*
X119874512Y-72780692D01*
X119936234Y-72777172D01*
X119990273Y-72779297D01*
G37*
G36*
X121594125Y-76772655D02*
G01*
X123665376Y-76777980D01*
X123790736Y-76820893D01*
X123966764Y-76900770D01*
X124124204Y-77011276D01*
X124259283Y-77147738D01*
X124368230Y-77305487D01*
X124447273Y-77479852D01*
X124492639Y-77666163D01*
X124496258Y-77694429D01*
X124509310Y-77809795D01*
X124352529Y-77809795D01*
X124280240Y-77811098D01*
X124225576Y-77814562D01*
X124197591Y-77819526D01*
X124195748Y-77821283D01*
X124205894Y-77843190D01*
X124230776Y-77881885D01*
X124235348Y-77888383D01*
X124281734Y-77966051D01*
X124331893Y-78071378D01*
X124381533Y-78194307D01*
X124426361Y-78324776D01*
X124438151Y-78363618D01*
X124474258Y-78527966D01*
X124494388Y-78711854D01*
X124497770Y-78899369D01*
X124483632Y-79074603D01*
X124475111Y-79126394D01*
X124409208Y-79372553D01*
X124308781Y-79605638D01*
X124176646Y-79822253D01*
X124015617Y-80019001D01*
X123828510Y-80192484D01*
X123618140Y-80339305D01*
X123387323Y-80456067D01*
X123365897Y-80464883D01*
X123115056Y-80546093D01*
X122859011Y-80590976D01*
X122601387Y-80600757D01*
X122601193Y-80600739D01*
X122345808Y-80576656D01*
X122095898Y-80519898D01*
X121855282Y-80431704D01*
X121627582Y-80313298D01*
X121416424Y-80165902D01*
X121225432Y-79990740D01*
X121058229Y-79789032D01*
X120971631Y-79657109D01*
X120864252Y-79451989D01*
X120789167Y-79246563D01*
X120744327Y-79032549D01*
X120727683Y-78801666D01*
X120728401Y-78745584D01*
X121756036Y-78745584D01*
X121757034Y-78837751D01*
X121761646Y-78903906D01*
X121772301Y-78956589D01*
X121791427Y-79008343D01*
X121817709Y-79064127D01*
X121915522Y-79220318D01*
X122041561Y-79351599D01*
X122192361Y-79455049D01*
X122364455Y-79527744D01*
X122369282Y-79529227D01*
X122444797Y-79549190D01*
X122517349Y-79560223D01*
X122601193Y-79563736D01*
X122697148Y-79561670D01*
X122794998Y-79556473D01*
X122867459Y-79547805D01*
X122927706Y-79532941D01*
X122988916Y-79509156D01*
X123020200Y-79494857D01*
X123159994Y-79416510D01*
X123269137Y-79324460D01*
X123355076Y-79211043D01*
X123418568Y-79084762D01*
X123440770Y-79026292D01*
X123453689Y-78972345D01*
X123459056Y-78909968D01*
X123458603Y-78826208D01*
X123457535Y-78793394D01*
X123452054Y-78696007D01*
X123442012Y-78623452D01*
X123424607Y-78562028D01*
X123397232Y-78498433D01*
X123305905Y-78349039D01*
X123190184Y-78224104D01*
X123054970Y-78124551D01*
X122905163Y-78051307D01*
X122745665Y-78005294D01*
X122581377Y-77987439D01*
X122417201Y-77998666D01*
X122258038Y-78039900D01*
X122108789Y-78112065D01*
X121974356Y-78216087D01*
X121962458Y-78227735D01*
X121901277Y-78297640D01*
X121844190Y-78377543D01*
X121808168Y-78441068D01*
X121783322Y-78498813D01*
X121767817Y-78551304D01*
X121759537Y-78610891D01*
X121756367Y-78689926D01*
X121756036Y-78745584D01*
X120728401Y-78745584D01*
X120729265Y-78678052D01*
X120747072Y-78458338D01*
X120784451Y-78263853D01*
X120843624Y-78085376D01*
X120902657Y-77958365D01*
X120934653Y-77896735D01*
X120959318Y-77848760D01*
X120971464Y-77824536D01*
X120971590Y-77824260D01*
X120956211Y-77818645D01*
X120909483Y-77814021D01*
X120838625Y-77810864D01*
X120750858Y-77809650D01*
X120749937Y-77809649D01*
X120588990Y-77806601D01*
X120457063Y-77796574D01*
X120344968Y-77777906D01*
X120243521Y-77748934D01*
X120143535Y-77707996D01*
X120116097Y-77694920D01*
X119948147Y-77592776D01*
X119804048Y-77464040D01*
X119686986Y-77313166D01*
X119600151Y-77144609D01*
X119546731Y-76962824D01*
X119534968Y-76883040D01*
X119522874Y-76767330D01*
X121594125Y-76772655D01*
G37*
G36*
X124504043Y-81141496D02*
G01*
X124495290Y-81222655D01*
X124472428Y-81323510D01*
X124439477Y-81429713D01*
X124400459Y-81526913D01*
X124389921Y-81548734D01*
X124296848Y-81694776D01*
X124174044Y-81829374D01*
X124030166Y-81944871D01*
X123873870Y-82033612D01*
X123813471Y-82058560D01*
X123777904Y-82070544D01*
X123739757Y-82080195D01*
X123694011Y-82087917D01*
X123635650Y-82094117D01*
X123559655Y-82099197D01*
X123461009Y-82103564D01*
X123334695Y-82107622D01*
X123175694Y-82111777D01*
X123144647Y-82112532D01*
X122956189Y-82117669D01*
X122801137Y-82123611D01*
X122674324Y-82131133D01*
X122570583Y-82141008D01*
X122484747Y-82154008D01*
X122411650Y-82170909D01*
X122346123Y-82192482D01*
X122283002Y-82219502D01*
X122220701Y-82250844D01*
X122072356Y-82349660D01*
X121950637Y-82475764D01*
X121854051Y-82630732D01*
X121846666Y-82645885D01*
X121816453Y-82710618D01*
X121796264Y-82761647D01*
X121784087Y-82809742D01*
X121777909Y-82865672D01*
X121775717Y-82940205D01*
X121775485Y-83026728D01*
X121776293Y-83128538D01*
X121779792Y-83203310D01*
X121787846Y-83262572D01*
X121802318Y-83317848D01*
X121825071Y-83380665D01*
X121837929Y-83413027D01*
X121912025Y-83558102D01*
X122003909Y-83669304D01*
X122113330Y-83746354D01*
X122151405Y-83763512D01*
X122172270Y-83770797D01*
X122197380Y-83777024D01*
X122229851Y-83782293D01*
X122272800Y-83786710D01*
X122329343Y-83790374D01*
X122402598Y-83793390D01*
X122495681Y-83795859D01*
X122611708Y-83797884D01*
X122753797Y-83799568D01*
X122925064Y-83801012D01*
X123128626Y-83802320D01*
X123367600Y-83803593D01*
X123371260Y-83803612D01*
X124504328Y-83809278D01*
X124502721Y-83871230D01*
X124497181Y-83925015D01*
X124484674Y-83996716D01*
X124474111Y-84044639D01*
X124427866Y-84190962D01*
X124361559Y-84320808D01*
X124268846Y-84445103D01*
X124196230Y-84523253D01*
X124097047Y-84616099D01*
X124006322Y-84684002D01*
X123919009Y-84732477D01*
X123866433Y-84756419D01*
X123815107Y-84776790D01*
X123761492Y-84793889D01*
X123702050Y-84808015D01*
X123633243Y-84819466D01*
X123551532Y-84828541D01*
X123453380Y-84835540D01*
X123335248Y-84840760D01*
X123193597Y-84844502D01*
X123024890Y-84847063D01*
X122825588Y-84848743D01*
X122592153Y-84849840D01*
X122526856Y-84850062D01*
X122308540Y-84850709D01*
X122125215Y-84851040D01*
X121973300Y-84850935D01*
X121849216Y-84850273D01*
X121749380Y-84848933D01*
X121670213Y-84846795D01*
X121608133Y-84843738D01*
X121559560Y-84839640D01*
X121520913Y-84834382D01*
X121488611Y-84827843D01*
X121459074Y-84819901D01*
X121437813Y-84813344D01*
X121261301Y-84737663D01*
X121103107Y-84630847D01*
X120966883Y-84497436D01*
X120856280Y-84341971D01*
X120774949Y-84168990D01*
X120726542Y-83983035D01*
X120718332Y-83918717D01*
X120709674Y-83827107D01*
X120796156Y-83827107D01*
X120848679Y-83825172D01*
X120870695Y-83816873D01*
X120870179Y-83798468D01*
X120868121Y-83793356D01*
X120816705Y-83647087D01*
X120775295Y-83476131D01*
X120745946Y-83293544D01*
X120730712Y-83112385D01*
X120731648Y-82945710D01*
X120732589Y-82931946D01*
X120771545Y-82648995D01*
X120844500Y-82383811D01*
X120950588Y-82137657D01*
X121088944Y-81911799D01*
X121258703Y-81707503D01*
X121458998Y-81526032D01*
X121688964Y-81368653D01*
X121867574Y-81273287D01*
X121949284Y-81235970D01*
X122029569Y-81203940D01*
X122112033Y-81176806D01*
X122200283Y-81154178D01*
X122297922Y-81135664D01*
X122408555Y-81120874D01*
X122535789Y-81109417D01*
X122683227Y-81100903D01*
X122854475Y-81094942D01*
X123053138Y-81091141D01*
X123282820Y-81089112D01*
X123547127Y-81088463D01*
X123573260Y-81088459D01*
X124504328Y-81088459D01*
X124504043Y-81141496D01*
G37*
%TO.C,R3*%
X163930000Y-68358000D02*
X163930000Y-74898000D01*
X163600000Y-68358000D02*
X163930000Y-68358000D01*
X161520000Y-68358000D02*
X161190000Y-68358000D01*
X161190000Y-68358000D02*
X161190000Y-74898000D01*
X163930000Y-74898000D02*
X163600000Y-74898000D01*
X161190000Y-74898000D02*
X161520000Y-74898000D01*
%TO.C,R1*%
X173970000Y-68330000D02*
X173970000Y-74870000D01*
X173640000Y-68330000D02*
X173970000Y-68330000D01*
X171560000Y-68330000D02*
X171230000Y-68330000D01*
X171230000Y-68330000D02*
X171230000Y-74870000D01*
X173970000Y-74870000D02*
X173640000Y-74870000D01*
X171230000Y-74870000D02*
X171560000Y-74870000D01*
%TD*%
M02*
