M48
; DRILL file {KiCad 7.0.9} date 
; FORMAT={-:-/ absolute / metric / decimal}
; #@! TF.CreationDate,2024-01-13T11:23:43+07:00
; #@! TF.GenerationSoftware,Kicad,Pcbnew,7.0.9
; #@! TF.FileFunction,Plated,1,2,PTH
FMAT,2
METRIC
; #@! TA.AperFunction,Plated,PTH,ComponentDrill
T1C0.500
; #@! TA.AperFunction,Plated,PTH,ComponentDrill
T2C0.800
; #@! TA.AperFunction,Plated,PTH,ComponentDrill
T3C0.950
; #@! TA.AperFunction,Plated,PTH,ComponentDrill
T4C1.000
; #@! TA.AperFunction,Plated,PTH,ComponentDrill
T5C1.020
; #@! TA.AperFunction,Plated,PTH,ComponentDrill
T6C1.200
; #@! TA.AperFunction,Plated,PTH,ComponentDrill
T7C1.300
; #@! TA.AperFunction,Plated,PTH,ComponentDrill
T8C1.450
; #@! TA.AperFunction,Plated,PTH,ComponentDrill
T9C3.500
%
G90
G05
T1
X112.469Y-127.127
X113.238Y-125.271
X113.238Y-128.983
X115.094Y-124.502
X115.094Y-129.752
X116.95Y-125.271
X116.95Y-128.983
X117.719Y-127.127
X133.362Y-57.071
X133.362Y-127.127
X134.131Y-55.215
X134.131Y-58.927
X134.131Y-125.271
X134.131Y-128.983
X135.987Y-54.446
X135.987Y-59.696
X135.987Y-124.502
X135.987Y-129.752
X137.843Y-55.215
X137.843Y-58.927
X137.843Y-125.271
X137.843Y-128.983
X138.612Y-57.071
X138.612Y-127.127
X185.462Y-57.071
X185.462Y-127.127
X186.231Y-55.215
X186.231Y-58.927
X186.231Y-125.271
X186.231Y-128.983
X188.087Y-54.446
X188.087Y-59.696
X188.087Y-124.502
X188.087Y-129.752
X189.943Y-55.215
X189.943Y-58.927
X189.943Y-125.271
X189.943Y-128.983
X190.712Y-57.071
X190.712Y-127.127
T2
X104.0Y-90.5
X105.4Y-83.0
X156.5Y-67.79
X156.5Y-75.41
X162.56Y-67.818
X162.56Y-75.438
X167.64Y-67.818
X167.64Y-75.438
X172.6Y-67.79
X172.6Y-75.41
T3
X164.0Y-59.0
X166.5Y-59.0
X169.0Y-59.0
X171.5Y-59.0
X186.5Y-71.7
X186.5Y-74.2
X186.5Y-76.7
T4
X70.9Y-111.0
X70.9Y-117.0
X104.5Y-105.0
X104.5Y-123.0
X139.3Y-75.8
X144.3Y-75.8
X153.5Y-59.0
X156.0Y-59.0
T5
X139.33Y-85.6
X139.33Y-111.0
X141.87Y-85.6
X141.87Y-111.0
X144.41Y-85.6
X144.41Y-111.0
X146.95Y-85.6
X146.95Y-111.0
X149.49Y-85.6
X149.49Y-111.0
X152.03Y-85.6
X152.03Y-111.0
X154.57Y-85.6
X154.57Y-111.0
X157.11Y-85.6
X157.11Y-111.0
X159.65Y-85.6
X159.65Y-111.0
X162.19Y-85.6
X162.19Y-111.0
X164.73Y-85.6
X164.73Y-111.0
X167.27Y-85.6
X167.27Y-111.0
X169.81Y-85.6
X169.81Y-111.0
X172.35Y-85.6
X172.35Y-111.0
X174.89Y-85.6
X174.89Y-111.0
X177.43Y-85.6
X177.43Y-111.0
X179.97Y-85.6
X179.97Y-111.0
X182.51Y-85.6
X182.51Y-111.0
X185.05Y-85.6
X185.05Y-111.0
T6
X94.0Y-79.5
X94.0Y-94.5
T7
X86.858Y-64.695
X91.858Y-64.695
T8
X72.25Y-80.95
X72.25Y-93.55
X82.25Y-80.95
X82.25Y-93.55
T9
X115.094Y-127.127
X135.987Y-57.071
X135.987Y-127.127
X188.087Y-57.071
X188.087Y-127.127
T4
G00X124.8Y-110.0
M15
G01X126.8Y-110.0
M16
G05
G00X124.8Y-116.0
M15
G01X126.8Y-116.0
M16
G05
G00X130.5Y-114.0
M15
G01X130.5Y-112.0
M16
G05
T0
M30
