%TF.GenerationSoftware,KiCad,Pcbnew,7.0.9*%
%TF.CreationDate,2024-01-13T11:23:33+07:00*%
%TF.ProjectId,Waterbox 2.1,57617465-7262-46f7-9820-322e312e6b69,rev?*%
%TF.SameCoordinates,Original*%
%TF.FileFunction,Soldermask,Top*%
%TF.FilePolarity,Negative*%
%FSLAX46Y46*%
G04 Gerber Fmt 4.6, Leading zero omitted, Abs format (unit mm)*
G04 Created by KiCad (PCBNEW 7.0.9) date 2024-01-13 11:23:33*
%MOMM*%
%LPD*%
G01*
G04 APERTURE LIST*
G04 Aperture macros list*
%AMRoundRect*
0 Rectangle with rounded corners*
0 $1 Rounding radius*
0 $2 $3 $4 $5 $6 $7 $8 $9 X,Y pos of 4 corners*
0 Add a 4 corners polygon primitive as box body*
4,1,4,$2,$3,$4,$5,$6,$7,$8,$9,$2,$3,0*
0 Add four circle primitives for the rounded corners*
1,1,$1+$1,$2,$3*
1,1,$1+$1,$4,$5*
1,1,$1+$1,$6,$7*
1,1,$1+$1,$8,$9*
0 Add four rect primitives between the rounded corners*
20,1,$1+$1,$2,$3,$4,$5,0*
20,1,$1+$1,$4,$5,$6,$7,0*
20,1,$1+$1,$6,$7,$8,$9,0*
20,1,$1+$1,$8,$9,$2,$3,0*%
G04 Aperture macros list end*
%ADD10C,1.600000*%
%ADD11O,1.600000X1.600000*%
%ADD12R,3.500000X3.500000*%
%ADD13RoundRect,0.750000X1.000000X-0.750000X1.000000X0.750000X-1.000000X0.750000X-1.000000X-0.750000X0*%
%ADD14RoundRect,0.875000X0.875000X-0.875000X0.875000X0.875000X-0.875000X0.875000X-0.875000X-0.875000X0*%
%ADD15RoundRect,0.250000X0.600000X0.725000X-0.600000X0.725000X-0.600000X-0.725000X0.600000X-0.725000X0*%
%ADD16O,1.700000X1.950000*%
%ADD17RoundRect,0.250000X0.725000X-0.600000X0.725000X0.600000X-0.725000X0.600000X-0.725000X-0.600000X0*%
%ADD18O,1.950000X1.700000*%
%ADD19C,0.800000*%
%ADD20C,7.000000*%
%ADD21R,2.000000X2.000000*%
%ADD22C,2.000000*%
%ADD23C,1.800000*%
%ADD24RoundRect,0.102000X-0.765000X0.765000X-0.765000X-0.765000X0.765000X-0.765000X0.765000X0.765000X0*%
%ADD25C,1.734000*%
%ADD26R,2.600000X2.600000*%
%ADD27C,2.600000*%
%ADD28C,3.500000*%
%ADD29R,3.000000X3.000000*%
%ADD30C,3.000000*%
%ADD31RoundRect,0.250000X0.600000X0.750000X-0.600000X0.750000X-0.600000X-0.750000X0.600000X-0.750000X0*%
%ADD32O,1.700000X2.000000*%
%ADD33C,2.400000*%
G04 APERTURE END LIST*
D10*
%TO.C,R4*%
X156500000Y-67790000D03*
D11*
X156500000Y-75410000D03*
%TD*%
D12*
%TO.C,J1*%
X125800000Y-110000000D03*
D13*
X125800000Y-116000000D03*
D14*
X130500000Y-113000000D03*
%TD*%
D15*
%TO.C,LED NWK*%
X171500000Y-59000000D03*
D16*
X169000000Y-59000000D03*
X166500000Y-59000000D03*
X164000000Y-59000000D03*
%TD*%
D17*
%TO.C,SENSOR*%
X186500000Y-76700000D03*
D18*
X186500000Y-74200000D03*
X186500000Y-71700000D03*
%TD*%
D19*
%TO.C,H7*%
X133362000Y-127127000D03*
X134130845Y-125270845D03*
X134130845Y-128983155D03*
X135987000Y-124502000D03*
D20*
X135987000Y-127127000D03*
D19*
X135987000Y-129752000D03*
X137843155Y-125270845D03*
X137843155Y-128983155D03*
X138612000Y-127127000D03*
%TD*%
D21*
%TO.C,PS1*%
X70900000Y-111000000D03*
D22*
X70900000Y-117000000D03*
X104500000Y-105000000D03*
X104500000Y-123000000D03*
%TD*%
D23*
%TO.C,RV1*%
X105400000Y-83000000D03*
X104000000Y-90500000D03*
%TD*%
D19*
%TO.C,H5*%
X133362000Y-57071000D03*
X134130845Y-55214845D03*
X134130845Y-58927155D03*
X135987000Y-54446000D03*
D20*
X135987000Y-57071000D03*
D19*
X135987000Y-59696000D03*
X137843155Y-55214845D03*
X137843155Y-58927155D03*
X138612000Y-57071000D03*
%TD*%
D24*
%TO.C,ESP32-DEVKITC-32U*%
X185050000Y-85600000D03*
D25*
X182510000Y-85600000D03*
X179970000Y-85600000D03*
X177430000Y-85600000D03*
X174890000Y-85600000D03*
X172350000Y-85600000D03*
X169810000Y-85600000D03*
X167270000Y-85600000D03*
X164730000Y-85600000D03*
X162190000Y-85600000D03*
X159650000Y-85600000D03*
X157110000Y-85600000D03*
X154570000Y-85600000D03*
X152030000Y-85600000D03*
X149490000Y-85600000D03*
X146950000Y-85600000D03*
X144410000Y-85600000D03*
X141870000Y-85600000D03*
X139330000Y-85600000D03*
X139330000Y-111000000D03*
X141870000Y-111000000D03*
X144410000Y-111000000D03*
X146950000Y-111000000D03*
X149490000Y-111000000D03*
X152030000Y-111000000D03*
X154570000Y-111000000D03*
X157110000Y-111000000D03*
X159650000Y-111000000D03*
X162190000Y-111000000D03*
X164730000Y-111000000D03*
X167270000Y-111000000D03*
X169810000Y-111000000D03*
X172350000Y-111000000D03*
X174890000Y-111000000D03*
X177430000Y-111000000D03*
X179970000Y-111000000D03*
X182510000Y-111000000D03*
X185050000Y-111000000D03*
%TD*%
D26*
%TO.C,VAC_IN1*%
X91857500Y-64695000D03*
D27*
X86857500Y-64695000D03*
%TD*%
D28*
%TO.C,H1*%
X62994000Y-57071000D03*
%TD*%
D19*
%TO.C,H4*%
X112469000Y-127127000D03*
X113237845Y-125270845D03*
X113237845Y-128983155D03*
X115094000Y-124502000D03*
D20*
X115094000Y-127127000D03*
D19*
X115094000Y-129752000D03*
X116950155Y-125270845D03*
X116950155Y-128983155D03*
X117719000Y-127127000D03*
%TD*%
%TO.C,H6*%
X185462000Y-57071000D03*
X186230845Y-55214845D03*
X186230845Y-58927155D03*
X188087000Y-54446000D03*
D20*
X188087000Y-57071000D03*
D19*
X188087000Y-59696000D03*
X189943155Y-55214845D03*
X189943155Y-58927155D03*
X190712000Y-57071000D03*
%TD*%
D21*
%TO.C,C2*%
X139300000Y-75800000D03*
D22*
X144300000Y-75800000D03*
%TD*%
D28*
%TO.C,H2*%
X115094000Y-57071000D03*
%TD*%
D29*
%TO.C,FL1*%
X82250000Y-80950000D03*
D30*
X72250000Y-80950000D03*
X72250000Y-93550000D03*
X82250000Y-93550000D03*
%TD*%
D10*
%TO.C,R2*%
X167640000Y-67818000D03*
D11*
X167640000Y-75438000D03*
%TD*%
D31*
%TO.C,LED DATA*%
X156000000Y-59000000D03*
D32*
X153500000Y-59000000D03*
%TD*%
D33*
%TO.C,C1*%
X94000000Y-79500000D03*
X94000000Y-94500000D03*
%TD*%
D10*
%TO.C,R3*%
X162560000Y-67818000D03*
D11*
X162560000Y-75438000D03*
%TD*%
D28*
%TO.C,H3*%
X62994000Y-127127000D03*
%TD*%
D19*
%TO.C,H8*%
X185462000Y-127127000D03*
X186230845Y-125270845D03*
X186230845Y-128983155D03*
X188087000Y-124502000D03*
D20*
X188087000Y-127127000D03*
D19*
X188087000Y-129752000D03*
X189943155Y-125270845D03*
X189943155Y-128983155D03*
X190712000Y-127127000D03*
%TD*%
D10*
%TO.C,R1*%
X172600000Y-67790000D03*
D11*
X172600000Y-75410000D03*
%TD*%
M02*
