%TF.GenerationSoftware,KiCad,Pcbnew,7.0.9*%
%TF.CreationDate,2024-01-01T09:34:51+07:00*%
%TF.ProjectId,Waterbox 2.1,57617465-7262-46f7-9820-322e312e6b69,rev?*%
%TF.SameCoordinates,Original*%
%TF.FileFunction,Legend,Top*%
%TF.FilePolarity,Positive*%
%FSLAX46Y46*%
G04 Gerber Fmt 4.6, Leading zero omitted, Abs format (unit mm)*
G04 Created by KiCad (PCBNEW 7.0.9) date 2024-01-01 09:34:51*
%MOMM*%
%LPD*%
G01*
G04 APERTURE LIST*
%ADD10C,0.150000*%
%ADD11C,0.120000*%
%ADD12C,0.127000*%
%ADD13C,0.200000*%
%ADD14C,0.100000*%
G04 APERTURE END LIST*
D10*
X167589000Y-62506000D02*
X170839000Y-62506000D01*
X170839000Y-65256000D01*
X167589000Y-65256000D01*
X167589000Y-62506000D01*
X151594000Y-62506000D02*
X154844000Y-62506000D01*
X154844000Y-65256000D01*
X151594000Y-65256000D01*
X151594000Y-62506000D01*
X177750000Y-78625000D02*
X180500000Y-78625000D01*
X180500000Y-81875000D01*
X177750000Y-81875000D01*
X177750000Y-78625000D01*
X170839000Y-62506000D02*
X174089000Y-62506000D01*
X174089000Y-65256000D01*
X170839000Y-65256000D01*
X170839000Y-62506000D01*
X161089000Y-62506000D02*
X164339000Y-62506000D01*
X164339000Y-65256000D01*
X161089000Y-65256000D01*
X161089000Y-62506000D01*
X154844000Y-62506000D02*
X158094000Y-62506000D01*
X158094000Y-65256000D01*
X154844000Y-65256000D01*
X154844000Y-62506000D01*
X164339000Y-62506000D02*
X167589000Y-62506000D01*
X167589000Y-65256000D01*
X164339000Y-65256000D01*
X164339000Y-62506000D01*
X177750000Y-85125000D02*
X180500000Y-85125000D01*
X180500000Y-88375000D01*
X177750000Y-88375000D01*
X177750000Y-85125000D01*
X177750000Y-81875000D02*
X180500000Y-81875000D01*
X180500000Y-85125000D01*
X177750000Y-85125000D01*
X177750000Y-81875000D01*
X169485714Y-63551414D02*
X169400000Y-63508557D01*
X169400000Y-63508557D02*
X169271428Y-63508557D01*
X169271428Y-63508557D02*
X169142857Y-63551414D01*
X169142857Y-63551414D02*
X169057142Y-63637128D01*
X169057142Y-63637128D02*
X169014285Y-63722842D01*
X169014285Y-63722842D02*
X168971428Y-63894271D01*
X168971428Y-63894271D02*
X168971428Y-64022842D01*
X168971428Y-64022842D02*
X169014285Y-64194271D01*
X169014285Y-64194271D02*
X169057142Y-64279985D01*
X169057142Y-64279985D02*
X169142857Y-64365700D01*
X169142857Y-64365700D02*
X169271428Y-64408557D01*
X169271428Y-64408557D02*
X169357142Y-64408557D01*
X169357142Y-64408557D02*
X169485714Y-64365700D01*
X169485714Y-64365700D02*
X169528571Y-64322842D01*
X169528571Y-64322842D02*
X169528571Y-64022842D01*
X169528571Y-64022842D02*
X169357142Y-64022842D01*
X151921428Y-63389557D02*
X152478571Y-63389557D01*
X152478571Y-63389557D02*
X152178571Y-63732414D01*
X152178571Y-63732414D02*
X152307142Y-63732414D01*
X152307142Y-63732414D02*
X152392857Y-63775271D01*
X152392857Y-63775271D02*
X152435714Y-63818128D01*
X152435714Y-63818128D02*
X152478571Y-63903842D01*
X152478571Y-63903842D02*
X152478571Y-64118128D01*
X152478571Y-64118128D02*
X152435714Y-64203842D01*
X152435714Y-64203842D02*
X152392857Y-64246700D01*
X152392857Y-64246700D02*
X152307142Y-64289557D01*
X152307142Y-64289557D02*
X152049999Y-64289557D01*
X152049999Y-64289557D02*
X151964285Y-64246700D01*
X151964285Y-64246700D02*
X151921428Y-64203842D01*
X152864285Y-64203842D02*
X152907142Y-64246700D01*
X152907142Y-64246700D02*
X152864285Y-64289557D01*
X152864285Y-64289557D02*
X152821428Y-64246700D01*
X152821428Y-64246700D02*
X152864285Y-64203842D01*
X152864285Y-64203842D02*
X152864285Y-64289557D01*
X153207142Y-63389557D02*
X153764285Y-63389557D01*
X153764285Y-63389557D02*
X153464285Y-63732414D01*
X153464285Y-63732414D02*
X153592856Y-63732414D01*
X153592856Y-63732414D02*
X153678571Y-63775271D01*
X153678571Y-63775271D02*
X153721428Y-63818128D01*
X153721428Y-63818128D02*
X153764285Y-63903842D01*
X153764285Y-63903842D02*
X153764285Y-64118128D01*
X153764285Y-64118128D02*
X153721428Y-64203842D01*
X153721428Y-64203842D02*
X153678571Y-64246700D01*
X153678571Y-64246700D02*
X153592856Y-64289557D01*
X153592856Y-64289557D02*
X153335713Y-64289557D01*
X153335713Y-64289557D02*
X153249999Y-64246700D01*
X153249999Y-64246700D02*
X153207142Y-64203842D01*
X154021428Y-63389557D02*
X154321428Y-64289557D01*
X154321428Y-64289557D02*
X154621428Y-63389557D01*
X179491442Y-80078571D02*
X179491442Y-79649999D01*
X179491442Y-79649999D02*
X179062871Y-79607142D01*
X179062871Y-79607142D02*
X179105728Y-79649999D01*
X179105728Y-79649999D02*
X179148585Y-79735714D01*
X179148585Y-79735714D02*
X179148585Y-79949999D01*
X179148585Y-79949999D02*
X179105728Y-80035714D01*
X179105728Y-80035714D02*
X179062871Y-80078571D01*
X179062871Y-80078571D02*
X178977157Y-80121428D01*
X178977157Y-80121428D02*
X178762871Y-80121428D01*
X178762871Y-80121428D02*
X178677157Y-80078571D01*
X178677157Y-80078571D02*
X178634300Y-80035714D01*
X178634300Y-80035714D02*
X178591442Y-79949999D01*
X178591442Y-79949999D02*
X178591442Y-79735714D01*
X178591442Y-79735714D02*
X178634300Y-79649999D01*
X178634300Y-79649999D02*
X178677157Y-79607142D01*
X179491442Y-80378571D02*
X178591442Y-80678571D01*
X178591442Y-80678571D02*
X179491442Y-80978571D01*
X163028571Y-64408557D02*
X162728571Y-63979985D01*
X162514285Y-64408557D02*
X162514285Y-63508557D01*
X162514285Y-63508557D02*
X162857142Y-63508557D01*
X162857142Y-63508557D02*
X162942857Y-63551414D01*
X162942857Y-63551414D02*
X162985714Y-63594271D01*
X162985714Y-63594271D02*
X163028571Y-63679985D01*
X163028571Y-63679985D02*
X163028571Y-63808557D01*
X163028571Y-63808557D02*
X162985714Y-63894271D01*
X162985714Y-63894271D02*
X162942857Y-63937128D01*
X162942857Y-63937128D02*
X162857142Y-63979985D01*
X162857142Y-63979985D02*
X162514285Y-63979985D01*
G36*
X128296000Y-100829420D02*
G01*
X127020466Y-100977138D01*
X127020466Y-100826196D01*
X127797744Y-100739148D01*
X127926704Y-100727718D01*
X127926704Y-100723614D01*
X127798623Y-100707201D01*
X127020466Y-100573551D01*
X127020466Y-100422609D01*
X127831157Y-100269909D01*
X127954255Y-100254375D01*
X127954255Y-100250272D01*
X127827933Y-100240307D01*
X127020466Y-100144466D01*
X127020466Y-100014919D01*
X128296000Y-100169085D01*
X128296000Y-100325596D01*
X127433138Y-100489727D01*
X127303299Y-100507020D01*
X127303299Y-100511123D01*
X127433138Y-100526657D01*
X128296000Y-100674375D01*
X128296000Y-100829420D01*
G37*
G36*
X128296000Y-99233831D02*
G01*
X128281564Y-99237171D01*
X128266176Y-99240377D01*
X128249835Y-99243449D01*
X128232541Y-99246388D01*
X128220482Y-99248272D01*
X128207999Y-99250097D01*
X128195092Y-99251863D01*
X128181763Y-99253568D01*
X128168009Y-99255215D01*
X128153832Y-99256802D01*
X128139231Y-99258329D01*
X128124207Y-99259797D01*
X128108759Y-99261205D01*
X128092887Y-99262554D01*
X128106451Y-99271384D01*
X128119591Y-99280437D01*
X128132307Y-99289711D01*
X128144599Y-99299208D01*
X128156469Y-99308927D01*
X128167914Y-99318868D01*
X128178936Y-99329032D01*
X128189534Y-99339417D01*
X128199709Y-99350024D01*
X128209460Y-99360854D01*
X128218787Y-99371905D01*
X128227691Y-99383179D01*
X128236171Y-99394675D01*
X128244228Y-99406393D01*
X128251861Y-99418333D01*
X128259070Y-99430495D01*
X128265813Y-99442670D01*
X128272122Y-99454721D01*
X128277995Y-99466648D01*
X128283433Y-99478452D01*
X128288436Y-99490132D01*
X128293004Y-99501689D01*
X128297138Y-99513122D01*
X128300836Y-99524431D01*
X128305567Y-99541163D01*
X128309319Y-99557616D01*
X128312093Y-99573792D01*
X128313887Y-99589689D01*
X128314703Y-99605309D01*
X128314757Y-99610453D01*
X128314369Y-99624723D01*
X128313205Y-99638810D01*
X128311264Y-99652713D01*
X128308547Y-99666434D01*
X128305054Y-99679971D01*
X128300785Y-99693325D01*
X128295740Y-99706495D01*
X128289918Y-99719483D01*
X128283320Y-99732288D01*
X128275946Y-99744909D01*
X128267795Y-99757347D01*
X128258868Y-99769602D01*
X128249166Y-99781673D01*
X128238686Y-99793562D01*
X128227431Y-99805267D01*
X128215399Y-99816789D01*
X128202543Y-99827863D01*
X128188888Y-99838222D01*
X128174434Y-99847866D01*
X128159181Y-99856796D01*
X128143128Y-99865012D01*
X128126277Y-99872513D01*
X128108626Y-99879300D01*
X128090176Y-99885373D01*
X128070927Y-99890731D01*
X128050879Y-99895375D01*
X128030032Y-99899304D01*
X128008385Y-99902519D01*
X127985940Y-99905019D01*
X127962695Y-99906805D01*
X127950773Y-99907430D01*
X127938651Y-99907877D01*
X127926330Y-99908145D01*
X127913808Y-99908234D01*
X127894011Y-99907997D01*
X127874479Y-99907286D01*
X127855213Y-99906101D01*
X127836212Y-99904442D01*
X127817477Y-99902309D01*
X127799008Y-99899702D01*
X127780804Y-99896621D01*
X127762866Y-99893066D01*
X127745194Y-99889038D01*
X127727787Y-99884535D01*
X127710646Y-99879558D01*
X127693770Y-99874107D01*
X127677160Y-99868182D01*
X127660815Y-99861784D01*
X127644737Y-99854911D01*
X127628923Y-99847564D01*
X127613449Y-99839820D01*
X127598387Y-99831755D01*
X127583737Y-99823370D01*
X127569499Y-99814665D01*
X127555673Y-99805638D01*
X127542260Y-99796291D01*
X127529259Y-99786624D01*
X127516669Y-99776636D01*
X127504492Y-99766327D01*
X127492728Y-99755698D01*
X127481375Y-99744748D01*
X127470434Y-99733478D01*
X127459906Y-99721887D01*
X127449790Y-99709976D01*
X127440086Y-99697744D01*
X127430794Y-99685191D01*
X127421992Y-99672289D01*
X127413758Y-99659006D01*
X127406092Y-99645342D01*
X127398993Y-99631299D01*
X127392463Y-99616876D01*
X127386500Y-99602073D01*
X127381105Y-99586889D01*
X127376279Y-99571325D01*
X127372020Y-99555382D01*
X127368329Y-99539058D01*
X127365205Y-99522354D01*
X127362650Y-99505270D01*
X127360662Y-99487806D01*
X127359243Y-99469962D01*
X127358391Y-99451737D01*
X127358107Y-99433133D01*
X127358422Y-99418490D01*
X127358687Y-99413496D01*
X127489412Y-99413496D01*
X127489847Y-99430935D01*
X127491152Y-99448007D01*
X127493327Y-99464713D01*
X127496373Y-99481053D01*
X127500288Y-99497027D01*
X127505074Y-99512634D01*
X127510730Y-99527875D01*
X127517256Y-99542749D01*
X127524652Y-99557257D01*
X127532918Y-99571399D01*
X127542054Y-99585174D01*
X127552060Y-99598583D01*
X127562937Y-99611625D01*
X127574683Y-99624302D01*
X127587300Y-99636612D01*
X127600787Y-99648555D01*
X127614986Y-99659912D01*
X127629812Y-99670537D01*
X127645266Y-99680429D01*
X127661347Y-99689588D01*
X127678055Y-99698014D01*
X127695391Y-99705708D01*
X127713354Y-99712669D01*
X127731945Y-99718897D01*
X127751163Y-99724392D01*
X127771009Y-99729155D01*
X127791482Y-99733185D01*
X127812582Y-99736482D01*
X127834310Y-99739047D01*
X127856665Y-99740879D01*
X127879647Y-99741978D01*
X127891374Y-99742253D01*
X127903257Y-99742344D01*
X127920356Y-99742144D01*
X127936921Y-99741543D01*
X127952953Y-99740541D01*
X127968452Y-99739139D01*
X127983416Y-99737335D01*
X127997848Y-99735131D01*
X128011745Y-99732527D01*
X128025110Y-99729521D01*
X128037941Y-99726115D01*
X128050238Y-99722309D01*
X128062001Y-99718101D01*
X128073232Y-99713493D01*
X128083928Y-99708484D01*
X128098973Y-99700219D01*
X128112817Y-99691053D01*
X128125441Y-99681310D01*
X128136822Y-99671314D01*
X128146962Y-99661066D01*
X128155861Y-99650565D01*
X128163517Y-99639812D01*
X128169932Y-99628807D01*
X128175106Y-99617549D01*
X128179038Y-99606038D01*
X128181728Y-99594276D01*
X128183176Y-99582260D01*
X128183452Y-99574110D01*
X128182806Y-99560624D01*
X128180866Y-99546876D01*
X128177633Y-99532865D01*
X128173107Y-99518592D01*
X128167288Y-99504055D01*
X128160176Y-99489256D01*
X128151770Y-99474194D01*
X128145448Y-99464007D01*
X128138551Y-99453703D01*
X128131080Y-99443283D01*
X128123033Y-99432745D01*
X128114412Y-99422091D01*
X128109886Y-99416720D01*
X128100491Y-99406020D01*
X128090698Y-99395461D01*
X128080506Y-99385045D01*
X128069916Y-99374771D01*
X128058927Y-99364639D01*
X128047540Y-99354648D01*
X128035755Y-99344800D01*
X128023571Y-99335094D01*
X128010989Y-99325529D01*
X127998008Y-99316107D01*
X127984629Y-99306826D01*
X127970851Y-99297688D01*
X127956675Y-99288691D01*
X127942101Y-99279837D01*
X127927128Y-99271124D01*
X127911757Y-99262554D01*
X127511101Y-99262554D01*
X127507225Y-99277676D01*
X127503730Y-99292597D01*
X127500616Y-99307317D01*
X127497884Y-99321836D01*
X127495533Y-99336154D01*
X127493563Y-99350271D01*
X127491975Y-99364188D01*
X127490767Y-99377903D01*
X127489941Y-99391418D01*
X127489497Y-99404732D01*
X127489412Y-99413496D01*
X127358687Y-99413496D01*
X127359127Y-99405209D01*
X127360235Y-99390536D01*
X127361331Y-99378618D01*
X127362653Y-99365916D01*
X127364202Y-99352432D01*
X127365978Y-99338164D01*
X127367980Y-99323114D01*
X127370210Y-99307280D01*
X127371003Y-99301828D01*
X127372926Y-99290122D01*
X127374781Y-99277597D01*
X127376430Y-99265764D01*
X127376865Y-99262554D01*
X127376865Y-99108974D01*
X128032217Y-99108974D01*
X128052276Y-99108840D01*
X128071858Y-99108438D01*
X128090964Y-99107768D01*
X128109593Y-99106830D01*
X128127747Y-99105625D01*
X128145424Y-99104151D01*
X128162625Y-99102410D01*
X128179349Y-99100401D01*
X128195597Y-99098124D01*
X128211369Y-99095578D01*
X128226665Y-99092765D01*
X128241484Y-99089685D01*
X128255828Y-99086336D01*
X128269695Y-99082719D01*
X128283085Y-99078834D01*
X128296000Y-99074682D01*
X128296000Y-99233831D01*
G37*
G36*
X128250277Y-98090188D02*
G01*
X128255955Y-98103402D01*
X128261337Y-98116154D01*
X128266424Y-98128443D01*
X128271215Y-98140270D01*
X128275711Y-98151634D01*
X128281901Y-98167813D01*
X128287427Y-98182951D01*
X128292287Y-98197049D01*
X128296484Y-98210106D01*
X128300015Y-98222122D01*
X128303691Y-98236525D01*
X128305672Y-98246113D01*
X128307801Y-98258152D01*
X128309647Y-98270091D01*
X128311208Y-98281929D01*
X128312486Y-98293667D01*
X128313684Y-98308197D01*
X128314438Y-98322569D01*
X128314748Y-98336785D01*
X128314757Y-98339609D01*
X128314614Y-98351526D01*
X128314185Y-98363317D01*
X128313004Y-98380768D01*
X128311180Y-98397935D01*
X128308711Y-98414819D01*
X128305598Y-98431420D01*
X128301842Y-98447737D01*
X128297441Y-98463771D01*
X128292396Y-98479521D01*
X128286708Y-98494988D01*
X128280375Y-98510172D01*
X128278121Y-98515170D01*
X128270945Y-98529723D01*
X128263156Y-98543596D01*
X128254754Y-98556788D01*
X128245739Y-98569301D01*
X128236111Y-98581133D01*
X128225869Y-98592286D01*
X128215015Y-98602758D01*
X128203547Y-98612550D01*
X128191467Y-98621662D01*
X128178773Y-98630094D01*
X128169970Y-98635338D01*
X128155876Y-98642566D01*
X128140411Y-98649083D01*
X128129340Y-98653033D01*
X128117660Y-98656667D01*
X128105371Y-98659985D01*
X128092473Y-98662987D01*
X128078965Y-98665673D01*
X128064849Y-98668043D01*
X128050123Y-98670097D01*
X128034789Y-98671835D01*
X128018845Y-98673257D01*
X128002292Y-98674363D01*
X127985130Y-98675153D01*
X127967359Y-98675627D01*
X127948979Y-98675785D01*
X127583201Y-98675785D01*
X127583201Y-98904689D01*
X127451896Y-98904689D01*
X127451896Y-98675785D01*
X127095497Y-98675785D01*
X127095497Y-98523377D01*
X127451896Y-98523377D01*
X127451896Y-98115687D01*
X127583201Y-98115687D01*
X127583201Y-98523377D01*
X127943411Y-98523377D01*
X127956753Y-98523275D01*
X127969596Y-98522969D01*
X127981941Y-98522460D01*
X127993786Y-98521747D01*
X128010617Y-98520295D01*
X128026326Y-98518384D01*
X128040911Y-98516015D01*
X128054373Y-98513188D01*
X128066712Y-98509901D01*
X128077928Y-98506157D01*
X128091135Y-98500451D01*
X128096990Y-98497292D01*
X128107762Y-98490423D01*
X128117800Y-98483004D01*
X128127106Y-98475035D01*
X128135678Y-98466517D01*
X128143519Y-98457450D01*
X128150626Y-98447833D01*
X128157001Y-98437666D01*
X128162643Y-98426950D01*
X128167520Y-98415712D01*
X128171747Y-98403979D01*
X128175324Y-98391752D01*
X128178250Y-98379030D01*
X128180526Y-98365813D01*
X128182152Y-98352102D01*
X128183127Y-98337896D01*
X128183452Y-98323196D01*
X128183184Y-98309302D01*
X128182381Y-98295320D01*
X128181041Y-98281248D01*
X128179166Y-98267087D01*
X128176755Y-98252836D01*
X128173808Y-98238497D01*
X128170325Y-98224068D01*
X128166307Y-98209549D01*
X128161752Y-98194942D01*
X128156662Y-98180245D01*
X128151036Y-98165459D01*
X128144874Y-98150583D01*
X128138177Y-98135618D01*
X128130943Y-98120564D01*
X128123174Y-98105421D01*
X128114869Y-98090188D01*
X128250277Y-98090188D01*
G37*
G36*
X127864569Y-97704480D02*
G01*
X127881578Y-97704132D01*
X127898315Y-97703089D01*
X127914778Y-97701350D01*
X127930968Y-97698915D01*
X127946885Y-97695786D01*
X127962529Y-97691960D01*
X127977900Y-97687439D01*
X127992998Y-97682223D01*
X128007823Y-97676311D01*
X128022375Y-97669704D01*
X128031924Y-97664912D01*
X128045773Y-97657219D01*
X128058962Y-97649089D01*
X128071491Y-97640520D01*
X128083362Y-97631514D01*
X128094572Y-97622069D01*
X128105124Y-97612187D01*
X128115016Y-97601866D01*
X128124248Y-97591108D01*
X128132821Y-97579912D01*
X128140734Y-97568278D01*
X128145644Y-97560279D01*
X128152400Y-97547924D01*
X128158493Y-97535261D01*
X128163920Y-97522288D01*
X128168683Y-97509006D01*
X128172782Y-97495415D01*
X128176216Y-97481515D01*
X128178985Y-97467306D01*
X128181089Y-97452787D01*
X128182529Y-97437960D01*
X128183305Y-97422823D01*
X128183452Y-97412561D01*
X128183083Y-97393974D01*
X128181973Y-97375146D01*
X128180124Y-97356074D01*
X128177536Y-97336760D01*
X128174207Y-97317203D01*
X128170140Y-97297403D01*
X128165332Y-97277361D01*
X128159785Y-97257076D01*
X128153499Y-97236548D01*
X128146473Y-97215777D01*
X128138707Y-97194764D01*
X128130201Y-97173508D01*
X128120956Y-97152009D01*
X128116057Y-97141169D01*
X128110972Y-97130268D01*
X128105702Y-97119306D01*
X128100248Y-97108284D01*
X128094608Y-97097200D01*
X128088784Y-97086057D01*
X128225658Y-97086057D01*
X128231139Y-97097468D01*
X128236447Y-97108841D01*
X128241581Y-97120176D01*
X128246540Y-97131472D01*
X128251326Y-97142730D01*
X128255938Y-97153950D01*
X128260375Y-97165131D01*
X128264639Y-97176274D01*
X128268728Y-97187378D01*
X128272644Y-97198445D01*
X128279953Y-97220462D01*
X128286566Y-97242326D01*
X128292482Y-97264036D01*
X128297703Y-97285594D01*
X128302228Y-97306997D01*
X128306056Y-97328248D01*
X128309189Y-97349344D01*
X128311625Y-97370288D01*
X128313365Y-97391078D01*
X128314409Y-97411714D01*
X128314757Y-97432198D01*
X128314520Y-97447592D01*
X128313809Y-97462780D01*
X128312624Y-97477762D01*
X128310965Y-97492538D01*
X128308833Y-97507108D01*
X128306226Y-97521471D01*
X128303145Y-97535629D01*
X128299590Y-97549581D01*
X128295561Y-97563326D01*
X128291058Y-97576866D01*
X128286081Y-97590199D01*
X128280631Y-97603326D01*
X128274706Y-97616248D01*
X128268307Y-97628963D01*
X128261434Y-97641472D01*
X128254087Y-97653775D01*
X128246263Y-97665822D01*
X128238032Y-97677566D01*
X128229392Y-97689004D01*
X128220345Y-97700138D01*
X128210891Y-97710968D01*
X128201029Y-97721493D01*
X128190759Y-97731713D01*
X128180082Y-97741629D01*
X128168997Y-97751240D01*
X128157505Y-97760547D01*
X128145605Y-97769549D01*
X128133297Y-97778247D01*
X128120582Y-97786640D01*
X128107459Y-97794729D01*
X128093929Y-97802513D01*
X128079991Y-97809993D01*
X128065789Y-97817091D01*
X128051465Y-97823731D01*
X128037020Y-97829914D01*
X128022454Y-97835638D01*
X128007766Y-97840905D01*
X127992957Y-97845713D01*
X127978026Y-97850064D01*
X127962974Y-97853956D01*
X127947801Y-97857391D01*
X127932507Y-97860368D01*
X127917091Y-97862886D01*
X127901553Y-97864947D01*
X127885895Y-97866550D01*
X127870115Y-97867695D01*
X127854213Y-97868382D01*
X127838191Y-97868611D01*
X127822696Y-97868393D01*
X127807279Y-97867741D01*
X127791940Y-97866653D01*
X127776678Y-97865130D01*
X127761495Y-97863173D01*
X127746389Y-97860780D01*
X127731361Y-97857952D01*
X127716411Y-97854689D01*
X127701539Y-97850991D01*
X127686745Y-97846858D01*
X127672028Y-97842290D01*
X127657390Y-97837287D01*
X127642829Y-97831848D01*
X127628346Y-97825975D01*
X127613941Y-97819667D01*
X127599614Y-97812923D01*
X127585524Y-97805754D01*
X127571830Y-97798241D01*
X127558532Y-97790385D01*
X127545631Y-97782185D01*
X127533125Y-97773642D01*
X127521015Y-97764756D01*
X127509302Y-97755526D01*
X127497985Y-97745952D01*
X127487064Y-97736035D01*
X127476539Y-97725775D01*
X127466410Y-97715171D01*
X127456677Y-97704223D01*
X127447341Y-97692932D01*
X127438400Y-97681298D01*
X127429856Y-97669320D01*
X127421708Y-97656999D01*
X127414006Y-97644381D01*
X127406801Y-97631587D01*
X127400093Y-97618616D01*
X127393882Y-97605470D01*
X127388168Y-97592147D01*
X127382951Y-97578647D01*
X127378231Y-97564972D01*
X127374007Y-97551120D01*
X127370281Y-97537091D01*
X127367051Y-97522887D01*
X127364318Y-97508506D01*
X127362082Y-97493948D01*
X127360343Y-97479215D01*
X127359101Y-97464305D01*
X127358355Y-97449219D01*
X127358217Y-97440697D01*
X127489412Y-97440697D01*
X127489997Y-97457844D01*
X127491751Y-97474553D01*
X127494675Y-97490824D01*
X127498768Y-97506657D01*
X127504031Y-97522052D01*
X127510463Y-97537009D01*
X127518065Y-97551528D01*
X127526836Y-97565609D01*
X127536777Y-97579253D01*
X127547887Y-97592458D01*
X127555944Y-97601018D01*
X127564472Y-97609322D01*
X127573497Y-97617308D01*
X127583019Y-97624975D01*
X127593038Y-97632324D01*
X127603554Y-97639355D01*
X127614567Y-97646067D01*
X127626076Y-97652462D01*
X127638083Y-97658538D01*
X127650586Y-97664295D01*
X127663586Y-97669735D01*
X127677083Y-97674856D01*
X127691077Y-97679658D01*
X127705568Y-97684143D01*
X127720556Y-97688309D01*
X127736040Y-97692157D01*
X127752022Y-97695687D01*
X127752022Y-97238757D01*
X127730333Y-97238757D01*
X127716699Y-97238973D01*
X127703419Y-97239618D01*
X127690494Y-97240695D01*
X127677925Y-97242201D01*
X127665710Y-97244138D01*
X127653850Y-97246506D01*
X127642345Y-97249304D01*
X127625753Y-97254308D01*
X127609960Y-97260281D01*
X127594965Y-97267223D01*
X127580768Y-97275133D01*
X127567371Y-97284011D01*
X127554771Y-97293859D01*
X127543091Y-97304462D01*
X127532559Y-97315720D01*
X127523177Y-97327632D01*
X127514943Y-97340199D01*
X127507858Y-97353420D01*
X127501922Y-97367295D01*
X127497135Y-97381825D01*
X127493497Y-97397008D01*
X127491008Y-97412846D01*
X127489667Y-97429339D01*
X127489412Y-97440697D01*
X127358217Y-97440697D01*
X127358107Y-97433956D01*
X127358560Y-97413802D01*
X127359920Y-97394151D01*
X127362187Y-97375004D01*
X127365361Y-97356360D01*
X127369441Y-97338221D01*
X127374428Y-97320585D01*
X127380322Y-97303453D01*
X127387123Y-97286824D01*
X127394830Y-97270700D01*
X127403445Y-97255079D01*
X127412965Y-97239962D01*
X127423393Y-97225348D01*
X127434727Y-97211239D01*
X127446969Y-97197633D01*
X127460117Y-97184531D01*
X127474171Y-97171933D01*
X127489170Y-97159936D01*
X127505152Y-97148714D01*
X127522116Y-97138266D01*
X127540062Y-97128592D01*
X127558990Y-97119691D01*
X127578901Y-97111565D01*
X127599794Y-97104212D01*
X127621669Y-97097634D01*
X127644527Y-97091829D01*
X127656324Y-97089217D01*
X127668367Y-97086799D01*
X127680656Y-97084574D01*
X127693189Y-97082542D01*
X127705969Y-97080704D01*
X127718994Y-97079059D01*
X127732265Y-97077608D01*
X127745781Y-97076350D01*
X127759543Y-97075286D01*
X127773550Y-97074415D01*
X127787803Y-97073738D01*
X127802302Y-97073255D01*
X127817046Y-97072964D01*
X127832036Y-97072868D01*
X127864569Y-97072868D01*
X127864569Y-97704480D01*
G37*
G36*
X128296000Y-96761898D02*
G01*
X127376865Y-96761898D01*
X127376865Y-96609490D01*
X127578512Y-96609490D01*
X127564917Y-96600471D01*
X127551758Y-96591291D01*
X127539034Y-96581951D01*
X127526744Y-96572451D01*
X127514890Y-96562790D01*
X127503471Y-96552969D01*
X127492487Y-96542988D01*
X127481938Y-96532847D01*
X127471824Y-96522545D01*
X127462145Y-96512083D01*
X127452901Y-96501461D01*
X127444093Y-96490678D01*
X127435719Y-96479735D01*
X127427780Y-96468632D01*
X127420277Y-96457369D01*
X127413208Y-96445945D01*
X127406536Y-96434322D01*
X127400294Y-96422534D01*
X127394482Y-96410582D01*
X127389101Y-96398464D01*
X127384151Y-96386182D01*
X127379631Y-96373735D01*
X127375541Y-96361123D01*
X127371882Y-96348346D01*
X127368654Y-96335404D01*
X127365856Y-96322297D01*
X127363488Y-96309026D01*
X127361551Y-96295589D01*
X127360044Y-96281988D01*
X127358968Y-96268222D01*
X127358322Y-96254291D01*
X127358107Y-96240195D01*
X127358272Y-96224695D01*
X127358766Y-96209190D01*
X127359591Y-96193680D01*
X127360745Y-96178165D01*
X127362229Y-96162644D01*
X127364042Y-96147119D01*
X127366185Y-96131588D01*
X127368658Y-96116052D01*
X127371461Y-96100511D01*
X127374593Y-96084965D01*
X127376865Y-96074598D01*
X127714506Y-96074598D01*
X127714506Y-96221437D01*
X127496153Y-96221437D01*
X127494211Y-96233119D01*
X127492315Y-96246061D01*
X127490893Y-96257828D01*
X127489833Y-96270072D01*
X127489412Y-96282107D01*
X127490022Y-96298070D01*
X127491854Y-96313977D01*
X127494907Y-96329827D01*
X127499180Y-96345621D01*
X127504675Y-96361358D01*
X127511390Y-96377038D01*
X127519327Y-96392661D01*
X127525296Y-96403045D01*
X127531809Y-96413404D01*
X127538863Y-96423738D01*
X127546461Y-96434047D01*
X127554601Y-96444330D01*
X127558875Y-96449462D01*
X127567830Y-96459704D01*
X127577330Y-96469914D01*
X127587375Y-96480093D01*
X127597966Y-96490239D01*
X127609101Y-96500352D01*
X127620781Y-96510434D01*
X127633006Y-96520484D01*
X127645776Y-96530502D01*
X127659091Y-96540488D01*
X127672951Y-96550441D01*
X127687356Y-96560363D01*
X127702306Y-96570252D01*
X127717801Y-96580110D01*
X127733841Y-96589935D01*
X127750426Y-96599729D01*
X127767556Y-96609490D01*
X128296000Y-96609490D01*
X128296000Y-96761898D01*
G37*
G36*
X127778853Y-95044328D02*
G01*
X127798385Y-95045046D01*
X127817651Y-95046242D01*
X127836652Y-95047917D01*
X127855387Y-95050071D01*
X127873856Y-95052703D01*
X127892060Y-95055814D01*
X127909998Y-95059403D01*
X127927671Y-95063471D01*
X127945077Y-95068017D01*
X127962219Y-95073042D01*
X127979094Y-95078545D01*
X127995704Y-95084527D01*
X128012049Y-95090988D01*
X128028128Y-95097927D01*
X128043941Y-95105345D01*
X128059415Y-95113124D01*
X128074477Y-95121222D01*
X128089127Y-95129638D01*
X128103365Y-95138373D01*
X128117191Y-95147425D01*
X128130604Y-95156796D01*
X128143606Y-95166485D01*
X128156195Y-95176493D01*
X128168372Y-95186819D01*
X128180137Y-95197463D01*
X128191490Y-95208425D01*
X128202430Y-95219706D01*
X128212958Y-95231304D01*
X128223075Y-95243222D01*
X128232779Y-95255457D01*
X128242071Y-95268011D01*
X128250873Y-95280912D01*
X128259107Y-95294192D01*
X128266773Y-95307849D01*
X128273871Y-95321885D01*
X128280402Y-95336298D01*
X128286364Y-95351088D01*
X128291759Y-95366257D01*
X128296586Y-95381803D01*
X128300845Y-95397728D01*
X128304536Y-95414030D01*
X128307659Y-95430710D01*
X128310214Y-95447767D01*
X128312202Y-95465203D01*
X128313622Y-95483016D01*
X128314473Y-95501207D01*
X128314757Y-95519776D01*
X128314443Y-95534265D01*
X128313737Y-95547463D01*
X128312629Y-95562090D01*
X128311533Y-95573998D01*
X128310211Y-95586710D01*
X128308662Y-95600225D01*
X128306886Y-95614544D01*
X128304884Y-95629667D01*
X128302655Y-95645594D01*
X128301861Y-95651081D01*
X128299938Y-95662828D01*
X128298083Y-95675450D01*
X128296435Y-95687403D01*
X128296000Y-95690648D01*
X128296000Y-95843056D01*
X126964192Y-95843056D01*
X126964192Y-95690648D01*
X127576460Y-95690648D01*
X127563114Y-95681714D01*
X127550187Y-95672568D01*
X127537679Y-95663212D01*
X127525590Y-95653646D01*
X127513921Y-95643868D01*
X127502670Y-95633880D01*
X127491838Y-95623682D01*
X127481425Y-95613272D01*
X127471431Y-95602652D01*
X127461857Y-95591822D01*
X127452701Y-95580780D01*
X127443964Y-95569528D01*
X127435647Y-95558066D01*
X127427748Y-95546393D01*
X127420269Y-95534509D01*
X127413208Y-95522414D01*
X127406536Y-95510275D01*
X127400294Y-95498257D01*
X127394482Y-95486360D01*
X127389101Y-95474585D01*
X127384151Y-95462931D01*
X127379631Y-95451399D01*
X127375541Y-95439988D01*
X127371882Y-95428698D01*
X127367201Y-95411991D01*
X127363488Y-95395557D01*
X127360744Y-95379396D01*
X127360710Y-95379092D01*
X127489412Y-95379092D01*
X127490058Y-95392575D01*
X127491998Y-95406315D01*
X127495231Y-95420313D01*
X127499757Y-95434569D01*
X127505576Y-95449082D01*
X127512689Y-95463853D01*
X127521094Y-95478881D01*
X127527416Y-95489043D01*
X127534313Y-95499320D01*
X127541785Y-95509711D01*
X127549831Y-95520216D01*
X127558452Y-95530836D01*
X127562978Y-95536189D01*
X127572373Y-95546822D01*
X127582166Y-95557324D01*
X127592358Y-95567695D01*
X127602948Y-95577937D01*
X127613937Y-95588047D01*
X127625324Y-95598027D01*
X127637109Y-95607876D01*
X127649293Y-95617595D01*
X127661876Y-95627184D01*
X127674856Y-95636642D01*
X127688236Y-95645969D01*
X127702013Y-95655166D01*
X127716189Y-95664232D01*
X127730764Y-95673168D01*
X127745736Y-95681974D01*
X127761108Y-95690648D01*
X128161764Y-95690648D01*
X128165640Y-95675212D01*
X128169134Y-95660008D01*
X128172248Y-95645035D01*
X128174980Y-95630295D01*
X128177331Y-95615786D01*
X128179301Y-95601509D01*
X128180890Y-95587463D01*
X128182097Y-95573650D01*
X128182923Y-95560069D01*
X128183368Y-95546719D01*
X128183452Y-95537948D01*
X128183020Y-95520791D01*
X128181721Y-95503977D01*
X128179557Y-95487506D01*
X128176528Y-95471379D01*
X128172633Y-95455596D01*
X128167873Y-95440156D01*
X128162247Y-95425060D01*
X128155755Y-95410307D01*
X128148398Y-95395897D01*
X128140176Y-95381831D01*
X128131087Y-95368108D01*
X128121134Y-95354729D01*
X128110315Y-95341693D01*
X128098630Y-95329001D01*
X128086080Y-95316652D01*
X128072664Y-95304647D01*
X128058497Y-95293183D01*
X128043694Y-95282459D01*
X128028254Y-95272475D01*
X128012177Y-95263230D01*
X127995464Y-95254724D01*
X127978114Y-95246958D01*
X127960128Y-95239932D01*
X127941505Y-95233646D01*
X127922246Y-95228099D01*
X127902350Y-95223291D01*
X127881818Y-95219224D01*
X127860649Y-95215895D01*
X127838843Y-95213307D01*
X127816401Y-95211458D01*
X127793323Y-95210348D01*
X127781544Y-95210071D01*
X127769607Y-95209979D01*
X127752404Y-95210181D01*
X127735746Y-95210789D01*
X127719633Y-95211802D01*
X127704065Y-95213221D01*
X127689042Y-95215045D01*
X127674563Y-95217274D01*
X127660630Y-95219908D01*
X127647242Y-95222948D01*
X127634398Y-95226393D01*
X127622100Y-95230243D01*
X127610346Y-95234499D01*
X127599138Y-95239159D01*
X127588475Y-95244226D01*
X127573501Y-95252585D01*
X127559754Y-95261856D01*
X127547183Y-95271651D01*
X127535849Y-95281694D01*
X127525751Y-95291985D01*
X127516889Y-95302522D01*
X127509264Y-95313307D01*
X127502876Y-95324339D01*
X127497724Y-95335619D01*
X127493808Y-95347145D01*
X127491129Y-95358919D01*
X127489687Y-95370941D01*
X127489412Y-95379092D01*
X127360710Y-95379092D01*
X127358968Y-95363508D01*
X127358161Y-95347893D01*
X127358107Y-95342749D01*
X127358496Y-95328478D01*
X127359664Y-95314388D01*
X127361610Y-95300479D01*
X127364335Y-95286750D01*
X127367839Y-95273203D01*
X127372120Y-95259836D01*
X127377181Y-95246650D01*
X127383020Y-95233646D01*
X127389637Y-95220822D01*
X127397033Y-95208179D01*
X127405208Y-95195717D01*
X127414161Y-95183435D01*
X127423892Y-95171335D01*
X127434402Y-95159416D01*
X127445691Y-95147677D01*
X127457758Y-95136120D01*
X127470579Y-95124975D01*
X127484200Y-95114550D01*
X127498624Y-95104843D01*
X127513848Y-95095856D01*
X127529875Y-95087588D01*
X127546702Y-95080038D01*
X127564331Y-95073208D01*
X127582762Y-95067096D01*
X127601993Y-95061704D01*
X127622027Y-95057031D01*
X127642861Y-95053076D01*
X127664497Y-95049841D01*
X127686935Y-95047324D01*
X127710174Y-95045527D01*
X127722094Y-95044898D01*
X127734214Y-95044448D01*
X127746535Y-95044179D01*
X127759056Y-95044089D01*
X127778853Y-95044328D01*
G37*
G36*
X127849002Y-94013988D02*
G01*
X127861727Y-94014334D01*
X127874314Y-94014911D01*
X127886761Y-94015718D01*
X127899071Y-94016756D01*
X127911241Y-94018025D01*
X127923274Y-94019525D01*
X127935167Y-94021255D01*
X127946922Y-94023216D01*
X127958539Y-94025407D01*
X127970017Y-94027830D01*
X127992558Y-94033366D01*
X128014544Y-94039826D01*
X128035976Y-94047208D01*
X128056855Y-94055513D01*
X128077179Y-94064741D01*
X128096949Y-94074891D01*
X128116164Y-94085965D01*
X128134826Y-94097961D01*
X128152934Y-94110880D01*
X128170487Y-94124721D01*
X128179056Y-94131988D01*
X128195489Y-94147057D01*
X128210861Y-94162735D01*
X128225173Y-94179023D01*
X128238425Y-94195919D01*
X128250617Y-94213424D01*
X128261749Y-94231539D01*
X128271821Y-94250262D01*
X128280832Y-94269595D01*
X128288783Y-94289536D01*
X128295674Y-94310087D01*
X128301505Y-94331247D01*
X128306276Y-94353016D01*
X128309987Y-94375394D01*
X128312637Y-94398381D01*
X128313565Y-94410103D01*
X128314227Y-94421977D01*
X128314625Y-94434004D01*
X128314757Y-94446182D01*
X128314625Y-94458415D01*
X128314227Y-94470494D01*
X128313565Y-94482419D01*
X128312637Y-94494190D01*
X128309987Y-94517270D01*
X128306276Y-94539733D01*
X128301505Y-94561581D01*
X128295674Y-94582813D01*
X128288783Y-94603429D01*
X128280832Y-94623429D01*
X128271821Y-94642813D01*
X128261749Y-94661582D01*
X128250617Y-94679734D01*
X128238425Y-94697270D01*
X128225173Y-94714190D01*
X128210861Y-94730495D01*
X128195489Y-94746183D01*
X128179056Y-94761256D01*
X128161780Y-94775559D01*
X128143949Y-94788939D01*
X128125565Y-94801397D01*
X128106626Y-94812931D01*
X128087133Y-94823543D01*
X128067086Y-94833232D01*
X128046485Y-94841999D01*
X128025330Y-94849842D01*
X128003620Y-94856763D01*
X127981357Y-94862761D01*
X127958539Y-94867837D01*
X127946922Y-94870028D01*
X127935167Y-94871989D01*
X127923274Y-94873719D01*
X127911241Y-94875219D01*
X127899071Y-94876488D01*
X127886761Y-94877526D01*
X127874314Y-94878333D01*
X127861727Y-94878910D01*
X127849002Y-94879256D01*
X127836139Y-94879371D01*
X127823276Y-94879256D01*
X127810553Y-94878910D01*
X127797970Y-94878333D01*
X127785526Y-94877526D01*
X127773222Y-94876488D01*
X127761057Y-94875219D01*
X127749033Y-94873719D01*
X127737147Y-94871989D01*
X127725402Y-94870028D01*
X127713796Y-94867837D01*
X127691004Y-94862761D01*
X127668770Y-94856763D01*
X127647095Y-94849842D01*
X127625979Y-94841999D01*
X127605421Y-94833232D01*
X127585422Y-94823543D01*
X127565982Y-94812931D01*
X127547101Y-94801397D01*
X127528778Y-94788939D01*
X127511014Y-94775559D01*
X127493808Y-94761256D01*
X127477376Y-94746183D01*
X127462003Y-94730495D01*
X127447691Y-94714190D01*
X127434439Y-94697270D01*
X127422247Y-94679734D01*
X127411115Y-94661582D01*
X127401044Y-94642813D01*
X127392032Y-94623429D01*
X127384081Y-94603429D01*
X127377190Y-94582813D01*
X127371359Y-94561581D01*
X127366588Y-94539733D01*
X127362878Y-94517270D01*
X127360227Y-94494190D01*
X127359300Y-94482419D01*
X127358637Y-94470494D01*
X127358239Y-94458415D01*
X127358107Y-94446182D01*
X127489412Y-94446182D01*
X127489774Y-94461336D01*
X127490859Y-94476096D01*
X127492668Y-94490462D01*
X127495200Y-94504434D01*
X127498457Y-94518013D01*
X127502436Y-94531197D01*
X127507139Y-94543988D01*
X127512566Y-94556385D01*
X127518716Y-94568388D01*
X127525590Y-94579997D01*
X127533188Y-94591212D01*
X127541509Y-94602034D01*
X127550554Y-94612461D01*
X127560322Y-94622495D01*
X127570813Y-94632135D01*
X127582029Y-94641381D01*
X127593875Y-94650112D01*
X127606259Y-94658280D01*
X127619182Y-94665884D01*
X127632642Y-94672925D01*
X127646641Y-94679403D01*
X127661177Y-94685317D01*
X127676252Y-94690669D01*
X127691865Y-94695457D01*
X127708016Y-94699681D01*
X127724705Y-94703343D01*
X127741932Y-94706441D01*
X127759697Y-94708975D01*
X127778000Y-94710947D01*
X127796842Y-94712355D01*
X127816221Y-94713200D01*
X127836139Y-94713482D01*
X127856128Y-94713200D01*
X127875574Y-94712355D01*
X127894477Y-94710947D01*
X127912837Y-94708975D01*
X127930655Y-94706441D01*
X127947931Y-94703343D01*
X127964663Y-94699681D01*
X127980853Y-94695457D01*
X127996500Y-94690669D01*
X128011605Y-94685317D01*
X128026166Y-94679403D01*
X128040186Y-94672925D01*
X128053662Y-94665884D01*
X128066596Y-94658280D01*
X128078987Y-94650112D01*
X128090836Y-94641381D01*
X128102051Y-94632135D01*
X128112543Y-94622495D01*
X128122311Y-94612461D01*
X128131355Y-94602034D01*
X128139676Y-94591212D01*
X128147274Y-94579997D01*
X128154148Y-94568388D01*
X128160298Y-94556385D01*
X128165725Y-94543988D01*
X128170428Y-94531197D01*
X128174408Y-94518013D01*
X128177664Y-94504434D01*
X128180196Y-94490462D01*
X128182005Y-94476096D01*
X128183091Y-94461336D01*
X128183452Y-94446182D01*
X128183091Y-94431101D01*
X128182005Y-94416411D01*
X128180196Y-94402112D01*
X128177664Y-94388205D01*
X128174408Y-94374690D01*
X128170428Y-94361566D01*
X128165725Y-94348834D01*
X128160298Y-94336493D01*
X128154148Y-94324544D01*
X128147274Y-94312986D01*
X128139676Y-94301820D01*
X128131355Y-94291045D01*
X128122311Y-94280662D01*
X128112543Y-94270671D01*
X128102051Y-94261071D01*
X128090836Y-94251863D01*
X128078987Y-94243096D01*
X128066596Y-94234895D01*
X128053662Y-94227260D01*
X128040186Y-94220191D01*
X128026166Y-94213686D01*
X128011605Y-94207748D01*
X127996500Y-94202375D01*
X127980853Y-94197568D01*
X127964663Y-94193326D01*
X127947931Y-94189649D01*
X127930655Y-94186539D01*
X127912837Y-94183994D01*
X127894477Y-94182014D01*
X127875574Y-94180600D01*
X127856128Y-94179752D01*
X127836139Y-94179469D01*
X127816221Y-94179752D01*
X127796842Y-94180600D01*
X127778000Y-94182014D01*
X127759697Y-94183994D01*
X127741932Y-94186539D01*
X127724705Y-94189649D01*
X127708016Y-94193326D01*
X127691865Y-94197568D01*
X127676252Y-94202375D01*
X127661177Y-94207748D01*
X127646641Y-94213686D01*
X127632642Y-94220191D01*
X127619182Y-94227260D01*
X127606259Y-94234895D01*
X127593875Y-94243096D01*
X127582029Y-94251863D01*
X127570813Y-94261071D01*
X127560322Y-94270671D01*
X127550554Y-94280662D01*
X127541509Y-94291045D01*
X127533188Y-94301820D01*
X127525590Y-94312986D01*
X127518716Y-94324544D01*
X127512566Y-94336493D01*
X127507139Y-94348834D01*
X127502436Y-94361566D01*
X127498457Y-94374690D01*
X127495200Y-94388205D01*
X127492668Y-94402112D01*
X127490859Y-94416411D01*
X127489774Y-94431101D01*
X127489412Y-94446182D01*
X127358107Y-94446182D01*
X127358239Y-94434004D01*
X127358637Y-94421977D01*
X127359300Y-94410103D01*
X127360227Y-94398381D01*
X127362878Y-94375394D01*
X127366588Y-94353016D01*
X127371359Y-94331247D01*
X127377190Y-94310087D01*
X127384081Y-94289536D01*
X127392032Y-94269595D01*
X127401044Y-94250262D01*
X127411115Y-94231539D01*
X127422247Y-94213424D01*
X127434439Y-94195919D01*
X127447691Y-94179023D01*
X127462003Y-94162735D01*
X127477376Y-94147057D01*
X127493808Y-94131988D01*
X127511014Y-94117685D01*
X127528778Y-94104305D01*
X127547101Y-94091847D01*
X127565982Y-94080313D01*
X127585422Y-94069701D01*
X127605421Y-94060011D01*
X127625979Y-94051245D01*
X127647095Y-94043401D01*
X127668770Y-94036481D01*
X127691004Y-94030483D01*
X127713796Y-94025407D01*
X127725402Y-94023216D01*
X127737147Y-94021255D01*
X127749033Y-94019525D01*
X127761057Y-94018025D01*
X127773222Y-94016756D01*
X127785526Y-94015718D01*
X127797970Y-94014911D01*
X127810553Y-94014334D01*
X127823276Y-94013988D01*
X127836139Y-94013872D01*
X127849002Y-94013988D01*
G37*
G36*
X128296000Y-93720195D02*
G01*
X128296000Y-93896343D01*
X127816502Y-93536427D01*
X127376865Y-93872602D01*
X127376865Y-93677404D01*
X127687542Y-93439706D01*
X127376865Y-93206406D01*
X127376865Y-93033482D01*
X127802434Y-93351486D01*
X128296000Y-92973691D01*
X128296000Y-93169769D01*
X127931980Y-93448206D01*
X128296000Y-93720195D01*
G37*
G36*
X127395559Y-90995868D02*
G01*
X127410607Y-90996620D01*
X127425527Y-90997874D01*
X127440319Y-90999629D01*
X127454983Y-91001885D01*
X127469518Y-91004643D01*
X127483926Y-91007903D01*
X127498205Y-91011664D01*
X127512355Y-91015926D01*
X127526378Y-91020690D01*
X127540272Y-91025955D01*
X127554039Y-91031722D01*
X127567676Y-91037991D01*
X127581186Y-91044760D01*
X127594568Y-91052031D01*
X127607821Y-91059804D01*
X127620820Y-91067989D01*
X127633439Y-91076570D01*
X127645678Y-91085547D01*
X127657536Y-91094920D01*
X127669015Y-91104689D01*
X127680114Y-91114855D01*
X127690832Y-91125417D01*
X127701170Y-91136374D01*
X127711129Y-91147728D01*
X127720707Y-91159478D01*
X127729905Y-91171624D01*
X127738723Y-91184166D01*
X127747161Y-91197105D01*
X127755218Y-91210439D01*
X127762896Y-91224170D01*
X127770193Y-91238297D01*
X127777079Y-91252903D01*
X127783520Y-91268146D01*
X127789517Y-91284026D01*
X127795070Y-91300542D01*
X127800178Y-91317695D01*
X127804842Y-91335484D01*
X127809062Y-91353910D01*
X127812838Y-91372972D01*
X127816170Y-91392671D01*
X127819057Y-91413007D01*
X127821501Y-91433979D01*
X127823500Y-91455587D01*
X127825054Y-91477833D01*
X127826165Y-91500714D01*
X127826831Y-91524233D01*
X127826998Y-91536231D01*
X127827053Y-91548387D01*
X127827053Y-91615799D01*
X128296000Y-91615799D01*
X128296000Y-91781395D01*
X127020466Y-91781395D01*
X127020466Y-91615799D01*
X127151771Y-91615799D01*
X127695748Y-91615799D01*
X127695748Y-91544284D01*
X127695596Y-91525430D01*
X127695139Y-91507190D01*
X127694378Y-91489563D01*
X127693312Y-91472550D01*
X127691942Y-91456151D01*
X127690267Y-91440365D01*
X127688287Y-91425193D01*
X127686003Y-91410635D01*
X127683414Y-91396690D01*
X127680521Y-91383359D01*
X127677324Y-91370641D01*
X127673821Y-91358538D01*
X127670015Y-91347047D01*
X127663733Y-91330963D01*
X127656767Y-91316259D01*
X127649104Y-91302550D01*
X127640844Y-91289448D01*
X127631986Y-91276955D01*
X127622530Y-91265069D01*
X127612477Y-91253791D01*
X127601826Y-91243121D01*
X127590578Y-91233059D01*
X127578732Y-91223606D01*
X127566288Y-91214760D01*
X127553246Y-91206522D01*
X127544220Y-91201367D01*
X127530373Y-91194191D01*
X127516310Y-91187721D01*
X127502030Y-91181957D01*
X127487534Y-91176899D01*
X127472822Y-91172546D01*
X127457893Y-91168899D01*
X127442748Y-91165958D01*
X127427386Y-91163723D01*
X127411809Y-91162194D01*
X127396014Y-91161371D01*
X127385364Y-91161214D01*
X127372059Y-91161494D01*
X127359105Y-91162336D01*
X127346505Y-91163738D01*
X127334257Y-91165702D01*
X127322361Y-91168226D01*
X127310818Y-91171312D01*
X127299628Y-91174958D01*
X127283504Y-91181480D01*
X127268174Y-91189264D01*
X127253636Y-91198310D01*
X127239893Y-91208618D01*
X127226942Y-91220188D01*
X127218749Y-91228603D01*
X127214785Y-91233021D01*
X127207155Y-91242543D01*
X127200016Y-91253157D01*
X127193370Y-91264864D01*
X127187216Y-91277663D01*
X127181555Y-91291554D01*
X127176386Y-91306537D01*
X127171709Y-91322612D01*
X127167524Y-91339780D01*
X127163832Y-91358040D01*
X127160632Y-91377392D01*
X127157924Y-91397836D01*
X127155709Y-91419372D01*
X127153986Y-91442001D01*
X127153309Y-91453725D01*
X127152755Y-91465722D01*
X127152324Y-91477992D01*
X127152017Y-91490535D01*
X127151832Y-91503351D01*
X127151771Y-91516441D01*
X127151771Y-91615799D01*
X127020466Y-91615799D01*
X127020466Y-91464856D01*
X127020509Y-91452760D01*
X127020637Y-91440870D01*
X127021153Y-91417710D01*
X127022011Y-91395377D01*
X127023213Y-91373870D01*
X127024759Y-91353190D01*
X127026648Y-91333336D01*
X127028881Y-91314309D01*
X127031457Y-91296109D01*
X127034376Y-91278735D01*
X127037639Y-91262188D01*
X127041245Y-91246468D01*
X127045195Y-91231574D01*
X127049489Y-91217507D01*
X127054125Y-91204266D01*
X127059106Y-91191852D01*
X127064429Y-91180265D01*
X127070047Y-91169254D01*
X127075984Y-91158571D01*
X127082238Y-91148216D01*
X127088811Y-91138188D01*
X127095702Y-91128487D01*
X127102911Y-91119114D01*
X127110439Y-91110068D01*
X127118285Y-91101350D01*
X127130651Y-91088886D01*
X127143732Y-91077159D01*
X127152851Y-91069751D01*
X127162289Y-91062670D01*
X127172044Y-91055916D01*
X127182118Y-91049490D01*
X127192510Y-91043391D01*
X127203102Y-91037606D01*
X127213846Y-91032194D01*
X127224745Y-91027155D01*
X127235796Y-91022490D01*
X127247001Y-91018198D01*
X127258360Y-91014279D01*
X127269872Y-91010733D01*
X127281537Y-91007561D01*
X127293356Y-91004761D01*
X127305328Y-91002335D01*
X127317453Y-91000283D01*
X127329732Y-90998603D01*
X127342164Y-90997297D01*
X127354750Y-90996364D01*
X127367489Y-90995804D01*
X127380382Y-90995617D01*
X127395559Y-90995868D01*
G37*
G36*
X128278414Y-90025191D02*
G01*
X128285086Y-90042918D01*
X128291328Y-90060413D01*
X128297140Y-90077677D01*
X128302521Y-90094709D01*
X128307471Y-90111510D01*
X128311991Y-90128080D01*
X128316081Y-90144419D01*
X128319740Y-90160526D01*
X128322968Y-90176403D01*
X128325767Y-90192047D01*
X128328134Y-90207461D01*
X128330071Y-90222643D01*
X128331578Y-90237595D01*
X128332654Y-90252314D01*
X128333300Y-90266803D01*
X128333515Y-90281060D01*
X128333203Y-90299651D01*
X128332265Y-90318054D01*
X128330702Y-90336269D01*
X128328514Y-90354296D01*
X128325701Y-90372136D01*
X128322263Y-90389788D01*
X128318200Y-90407252D01*
X128313512Y-90424528D01*
X128308198Y-90441617D01*
X128302260Y-90458518D01*
X128295696Y-90475231D01*
X128288507Y-90491756D01*
X128280693Y-90508094D01*
X128272255Y-90524244D01*
X128263190Y-90540206D01*
X128253501Y-90555980D01*
X128243195Y-90571443D01*
X128232280Y-90586471D01*
X128220755Y-90601063D01*
X128208622Y-90615221D01*
X128195879Y-90628944D01*
X128182527Y-90642231D01*
X128168567Y-90655084D01*
X128153997Y-90667501D01*
X128138818Y-90679484D01*
X128123030Y-90691031D01*
X128106633Y-90702143D01*
X128089627Y-90712821D01*
X128072011Y-90723063D01*
X128053787Y-90732870D01*
X128034954Y-90742242D01*
X128015511Y-90751179D01*
X127995603Y-90759626D01*
X127975371Y-90767528D01*
X127954817Y-90774885D01*
X127933940Y-90781697D01*
X127912740Y-90787964D01*
X127891217Y-90793686D01*
X127869372Y-90798863D01*
X127847203Y-90803496D01*
X127824712Y-90807583D01*
X127801898Y-90811125D01*
X127778761Y-90814123D01*
X127767071Y-90815417D01*
X127755301Y-90816575D01*
X127743450Y-90817597D01*
X127731518Y-90818482D01*
X127719506Y-90819232D01*
X127707412Y-90819845D01*
X127695239Y-90820322D01*
X127682984Y-90820662D01*
X127670649Y-90820866D01*
X127658233Y-90820935D01*
X127645907Y-90820867D01*
X127633661Y-90820666D01*
X127621494Y-90820329D01*
X127609405Y-90819858D01*
X127597396Y-90819253D01*
X127585466Y-90818513D01*
X127573614Y-90817639D01*
X127561842Y-90816630D01*
X127550149Y-90815486D01*
X127526999Y-90812796D01*
X127504166Y-90809567D01*
X127481648Y-90805801D01*
X127459446Y-90801496D01*
X127437561Y-90796653D01*
X127415991Y-90791272D01*
X127394737Y-90785353D01*
X127373799Y-90778896D01*
X127353178Y-90771900D01*
X127332872Y-90764367D01*
X127312882Y-90756296D01*
X127303006Y-90752058D01*
X127283594Y-90743228D01*
X127264780Y-90733955D01*
X127246564Y-90724241D01*
X127228945Y-90714084D01*
X127211924Y-90703486D01*
X127195501Y-90692446D01*
X127179675Y-90680964D01*
X127164447Y-90669040D01*
X127149816Y-90656674D01*
X127135783Y-90643866D01*
X127122348Y-90630616D01*
X127109510Y-90616925D01*
X127097270Y-90602791D01*
X127085628Y-90588215D01*
X127074583Y-90573198D01*
X127064136Y-90557739D01*
X127054305Y-90541923D01*
X127045108Y-90525911D01*
X127036546Y-90509701D01*
X127028617Y-90493295D01*
X127021323Y-90476692D01*
X127014663Y-90459892D01*
X127008638Y-90442895D01*
X127003247Y-90425701D01*
X126998490Y-90408310D01*
X126994367Y-90390722D01*
X126990878Y-90372938D01*
X126988024Y-90354956D01*
X126985804Y-90336777D01*
X126984218Y-90318402D01*
X126983267Y-90299830D01*
X126982950Y-90281060D01*
X126983164Y-90266803D01*
X126983806Y-90252314D01*
X126984877Y-90237595D01*
X126986375Y-90222643D01*
X126988302Y-90207461D01*
X126990657Y-90192047D01*
X126993441Y-90176403D01*
X126996652Y-90160526D01*
X127000292Y-90144419D01*
X127004359Y-90128080D01*
X127008855Y-90111510D01*
X127013780Y-90094709D01*
X127019132Y-90077677D01*
X127024912Y-90060413D01*
X127031121Y-90042918D01*
X127037758Y-90025191D01*
X127169063Y-90025191D01*
X127162426Y-90041708D01*
X127156217Y-90058210D01*
X127150437Y-90074699D01*
X127145084Y-90091174D01*
X127140160Y-90107635D01*
X127135664Y-90124082D01*
X127131597Y-90140516D01*
X127127957Y-90156936D01*
X127124746Y-90173342D01*
X127121962Y-90189735D01*
X127119607Y-90206114D01*
X127117680Y-90222479D01*
X127116182Y-90238830D01*
X127115111Y-90255167D01*
X127114469Y-90271491D01*
X127114255Y-90287801D01*
X127114516Y-90300046D01*
X127115299Y-90312160D01*
X127116604Y-90324144D01*
X127118431Y-90335997D01*
X127120781Y-90347719D01*
X127123652Y-90359311D01*
X127127046Y-90370773D01*
X127130961Y-90382103D01*
X127135399Y-90393304D01*
X127140358Y-90404374D01*
X127145840Y-90415313D01*
X127151844Y-90426122D01*
X127158370Y-90436801D01*
X127165418Y-90447348D01*
X127172988Y-90457766D01*
X127181080Y-90468053D01*
X127189677Y-90478115D01*
X127198761Y-90487932D01*
X127208334Y-90497505D01*
X127218394Y-90506832D01*
X127228942Y-90515915D01*
X127239977Y-90524752D01*
X127251501Y-90533344D01*
X127263512Y-90541692D01*
X127276010Y-90549794D01*
X127288997Y-90557651D01*
X127302471Y-90565264D01*
X127316433Y-90572631D01*
X127330883Y-90579754D01*
X127345820Y-90586631D01*
X127361245Y-90593263D01*
X127377158Y-90599651D01*
X127393367Y-90605684D01*
X127409755Y-90611328D01*
X127426322Y-90616583D01*
X127443067Y-90621449D01*
X127459991Y-90625926D01*
X127477093Y-90630013D01*
X127494374Y-90633711D01*
X127511833Y-90637020D01*
X127529472Y-90639939D01*
X127547288Y-90642469D01*
X127565284Y-90644610D01*
X127583458Y-90646362D01*
X127601810Y-90647724D01*
X127620341Y-90648698D01*
X127639051Y-90649281D01*
X127657939Y-90649476D01*
X127677082Y-90649275D01*
X127696041Y-90648670D01*
X127714818Y-90647663D01*
X127733411Y-90646252D01*
X127751820Y-90644439D01*
X127770047Y-90642222D01*
X127788090Y-90639603D01*
X127805951Y-90636580D01*
X127823628Y-90633155D01*
X127841122Y-90629326D01*
X127858432Y-90625095D01*
X127875560Y-90620460D01*
X127892504Y-90615423D01*
X127909265Y-90609982D01*
X127925843Y-90604139D01*
X127942238Y-90597892D01*
X127958285Y-90591296D01*
X127973819Y-90584479D01*
X127988840Y-90577439D01*
X128003348Y-90570177D01*
X128017343Y-90562692D01*
X128030825Y-90554986D01*
X128043794Y-90547058D01*
X128056251Y-90538907D01*
X128068194Y-90530535D01*
X128079625Y-90521940D01*
X128090542Y-90513123D01*
X128100947Y-90504084D01*
X128110839Y-90494823D01*
X128120218Y-90485340D01*
X128129084Y-90475635D01*
X128137437Y-90465708D01*
X128145281Y-90455602D01*
X128152618Y-90445361D01*
X128159450Y-90434985D01*
X128165775Y-90424474D01*
X128171595Y-90413827D01*
X128176908Y-90403046D01*
X128181716Y-90392129D01*
X128186017Y-90381078D01*
X128189812Y-90369891D01*
X128193102Y-90358569D01*
X128195885Y-90347112D01*
X128198162Y-90335520D01*
X128199933Y-90323793D01*
X128201198Y-90311931D01*
X128201957Y-90299934D01*
X128202210Y-90287801D01*
X128201995Y-90271560D01*
X128201349Y-90255296D01*
X128200273Y-90239008D01*
X128198766Y-90222698D01*
X128196829Y-90206365D01*
X128194462Y-90190010D01*
X128191664Y-90173631D01*
X128188435Y-90157229D01*
X128184776Y-90140805D01*
X128180686Y-90124357D01*
X128176166Y-90107887D01*
X128171216Y-90091393D01*
X128165835Y-90074877D01*
X128160023Y-90058338D01*
X128153781Y-90041776D01*
X128147109Y-90025191D01*
X128278414Y-90025191D01*
G37*
G36*
X127986289Y-89023807D02*
G01*
X128001827Y-89025012D01*
X128017283Y-89027022D01*
X128032657Y-89029835D01*
X128047948Y-89033451D01*
X128063157Y-89037872D01*
X128078283Y-89043096D01*
X128093327Y-89049124D01*
X128108288Y-89055955D01*
X128123167Y-89063591D01*
X128133041Y-89069127D01*
X128147449Y-89077967D01*
X128161219Y-89087451D01*
X128174349Y-89097579D01*
X128186841Y-89108351D01*
X128198694Y-89119767D01*
X128209908Y-89131827D01*
X128220484Y-89144531D01*
X128230420Y-89157879D01*
X128239718Y-89171871D01*
X128248377Y-89186507D01*
X128253794Y-89196622D01*
X128258905Y-89207265D01*
X128263686Y-89218677D01*
X128268137Y-89230859D01*
X128272259Y-89243810D01*
X128276051Y-89257530D01*
X128279513Y-89272020D01*
X128282646Y-89287279D01*
X128285448Y-89303307D01*
X128287921Y-89320105D01*
X128290064Y-89337672D01*
X128291878Y-89356009D01*
X128293362Y-89375115D01*
X128294516Y-89394990D01*
X128295340Y-89415635D01*
X128295835Y-89437049D01*
X128296000Y-89459232D01*
X128296000Y-89768443D01*
X127020466Y-89768443D01*
X127020466Y-89602554D01*
X127151771Y-89602554D01*
X127601959Y-89602554D01*
X127733264Y-89602554D01*
X128164695Y-89602554D01*
X128164695Y-89446043D01*
X128164461Y-89429898D01*
X128163760Y-89414288D01*
X128162593Y-89399215D01*
X128160958Y-89384677D01*
X128158856Y-89370675D01*
X128156286Y-89357209D01*
X128153250Y-89344278D01*
X128149747Y-89331884D01*
X128145776Y-89320025D01*
X128141339Y-89308702D01*
X128136434Y-89297915D01*
X128128201Y-89282739D01*
X128118917Y-89268768D01*
X128108582Y-89256003D01*
X128104904Y-89252016D01*
X128093424Y-89240807D01*
X128081517Y-89230701D01*
X128069183Y-89221697D01*
X128056420Y-89213795D01*
X128043230Y-89206996D01*
X128029613Y-89201300D01*
X128015567Y-89196706D01*
X128001095Y-89193215D01*
X127986194Y-89190826D01*
X127970866Y-89189540D01*
X127960410Y-89189295D01*
X127945105Y-89189835D01*
X127930112Y-89191456D01*
X127915429Y-89194158D01*
X127901059Y-89197941D01*
X127887000Y-89202804D01*
X127873252Y-89208749D01*
X127859815Y-89215774D01*
X127846690Y-89223879D01*
X127837099Y-89230641D01*
X127827889Y-89238068D01*
X127819060Y-89246159D01*
X127810613Y-89254915D01*
X127802546Y-89264336D01*
X127794861Y-89274421D01*
X127787557Y-89285170D01*
X127780635Y-89296584D01*
X127774094Y-89308663D01*
X127767933Y-89321407D01*
X127764039Y-89330272D01*
X127758539Y-89344512D01*
X127753580Y-89360194D01*
X127749162Y-89377320D01*
X127746517Y-89389538D01*
X127744113Y-89402397D01*
X127741949Y-89415898D01*
X127740026Y-89430040D01*
X127738343Y-89444822D01*
X127736900Y-89460246D01*
X127735698Y-89476311D01*
X127734737Y-89493018D01*
X127734015Y-89510365D01*
X127733534Y-89528353D01*
X127733294Y-89546983D01*
X127733264Y-89556538D01*
X127733264Y-89602554D01*
X127601959Y-89602554D01*
X127601959Y-89428750D01*
X127595224Y-89413323D01*
X127588426Y-89398694D01*
X127581567Y-89384863D01*
X127574647Y-89371831D01*
X127567664Y-89359598D01*
X127560619Y-89348163D01*
X127553513Y-89337527D01*
X127546345Y-89327689D01*
X127536691Y-89315814D01*
X127526928Y-89305359D01*
X127516898Y-89295920D01*
X127506594Y-89287096D01*
X127496016Y-89278884D01*
X127485162Y-89271287D01*
X127474034Y-89264303D01*
X127462631Y-89257933D01*
X127450953Y-89252177D01*
X127439000Y-89247034D01*
X127426695Y-89242500D01*
X127414106Y-89238571D01*
X127401233Y-89235246D01*
X127388076Y-89232526D01*
X127374635Y-89230410D01*
X127360910Y-89228899D01*
X127346901Y-89227992D01*
X127332608Y-89227690D01*
X127315874Y-89228156D01*
X127299965Y-89229555D01*
X127284880Y-89231886D01*
X127270619Y-89235150D01*
X127257183Y-89239346D01*
X127244571Y-89244475D01*
X127232783Y-89250536D01*
X127221819Y-89257530D01*
X127211680Y-89265456D01*
X127202366Y-89274315D01*
X127196614Y-89280739D01*
X127188600Y-89291515D01*
X127181374Y-89304057D01*
X127174937Y-89318367D01*
X127169287Y-89334444D01*
X127165959Y-89346143D01*
X127162981Y-89358628D01*
X127160354Y-89371899D01*
X127158077Y-89385954D01*
X127156150Y-89400796D01*
X127154573Y-89416422D01*
X127153347Y-89432834D01*
X127152471Y-89450032D01*
X127151946Y-89468014D01*
X127151771Y-89486782D01*
X127151771Y-89602554D01*
X127020466Y-89602554D01*
X127020466Y-89519902D01*
X127020499Y-89506033D01*
X127020601Y-89492455D01*
X127020770Y-89479168D01*
X127021006Y-89466170D01*
X127021310Y-89453463D01*
X127021682Y-89441045D01*
X127022121Y-89428918D01*
X127022627Y-89417082D01*
X127023843Y-89394279D01*
X127025329Y-89372637D01*
X127027085Y-89352156D01*
X127029112Y-89332836D01*
X127031408Y-89314677D01*
X127033975Y-89297679D01*
X127036812Y-89281842D01*
X127039920Y-89267165D01*
X127043297Y-89253650D01*
X127046945Y-89241296D01*
X127050862Y-89230102D01*
X127055050Y-89220069D01*
X127061824Y-89206171D01*
X127069174Y-89192942D01*
X127077101Y-89180383D01*
X127085605Y-89168494D01*
X127094686Y-89157275D01*
X127104345Y-89146725D01*
X127114580Y-89136846D01*
X127125392Y-89127636D01*
X127136782Y-89119095D01*
X127148748Y-89111225D01*
X127157046Y-89106350D01*
X127169856Y-89099593D01*
X127183005Y-89093501D01*
X127196495Y-89088073D01*
X127210325Y-89083310D01*
X127224494Y-89079212D01*
X127239004Y-89075778D01*
X127253854Y-89073009D01*
X127269044Y-89070904D01*
X127284574Y-89069464D01*
X127300444Y-89068689D01*
X127311212Y-89068541D01*
X127323955Y-89068737D01*
X127336574Y-89069324D01*
X127349069Y-89070303D01*
X127361441Y-89071673D01*
X127373689Y-89073435D01*
X127385813Y-89075589D01*
X127397814Y-89078134D01*
X127409691Y-89081071D01*
X127421444Y-89084399D01*
X127433074Y-89088119D01*
X127440759Y-89090816D01*
X127452149Y-89095128D01*
X127463349Y-89099822D01*
X127474357Y-89104896D01*
X127485176Y-89110352D01*
X127495804Y-89116190D01*
X127506241Y-89122408D01*
X127516487Y-89129008D01*
X127526543Y-89135989D01*
X127536408Y-89143351D01*
X127546083Y-89151094D01*
X127552427Y-89156468D01*
X127561830Y-89164949D01*
X127571135Y-89174126D01*
X127580343Y-89183998D01*
X127589452Y-89194566D01*
X127598464Y-89205829D01*
X127607378Y-89217788D01*
X127616194Y-89230442D01*
X127624912Y-89243791D01*
X127633532Y-89257837D01*
X127642054Y-89272577D01*
X127647681Y-89282791D01*
X127655299Y-89264197D01*
X127663133Y-89246370D01*
X127671181Y-89229310D01*
X127679445Y-89213017D01*
X127687924Y-89197491D01*
X127696618Y-89182732D01*
X127705528Y-89168741D01*
X127714653Y-89155516D01*
X127723993Y-89143058D01*
X127733548Y-89131368D01*
X127743318Y-89120445D01*
X127753304Y-89110288D01*
X127763505Y-89100899D01*
X127773921Y-89092277D01*
X127784553Y-89084422D01*
X127795399Y-89077334D01*
X127806354Y-89070803D01*
X127817308Y-89064694D01*
X127828262Y-89059006D01*
X127839217Y-89053740D01*
X127850171Y-89048895D01*
X127861125Y-89044471D01*
X127877557Y-89038625D01*
X127893988Y-89033727D01*
X127910419Y-89029777D01*
X127926851Y-89026775D01*
X127943282Y-89024722D01*
X127959714Y-89023616D01*
X127970668Y-89023405D01*
X127986289Y-89023807D01*
G37*
G36*
X128296000Y-87467969D02*
G01*
X127376865Y-87865987D01*
X127376865Y-87698632D01*
X128105490Y-87384438D01*
X127376865Y-87063503D01*
X127376865Y-86911095D01*
X128296000Y-87312044D01*
X128296000Y-87467969D01*
G37*
G36*
X127864569Y-86613900D02*
G01*
X127881578Y-86613553D01*
X127898315Y-86612509D01*
X127914778Y-86610771D01*
X127930968Y-86608336D01*
X127946885Y-86605206D01*
X127962529Y-86601381D01*
X127977900Y-86596860D01*
X127992998Y-86591644D01*
X128007823Y-86585732D01*
X128022375Y-86579124D01*
X128031924Y-86574333D01*
X128045773Y-86566640D01*
X128058962Y-86558510D01*
X128071491Y-86549941D01*
X128083362Y-86540934D01*
X128094572Y-86531490D01*
X128105124Y-86521608D01*
X128115016Y-86511287D01*
X128124248Y-86500529D01*
X128132821Y-86489333D01*
X128140734Y-86477699D01*
X128145644Y-86469699D01*
X128152400Y-86457345D01*
X128158493Y-86444681D01*
X128163920Y-86431709D01*
X128168683Y-86418427D01*
X128172782Y-86404836D01*
X128176216Y-86390936D01*
X128178985Y-86376726D01*
X128181089Y-86362208D01*
X128182529Y-86347381D01*
X128183305Y-86332244D01*
X128183452Y-86321981D01*
X128183083Y-86303395D01*
X128181973Y-86284566D01*
X128180124Y-86265495D01*
X128177536Y-86246181D01*
X128174207Y-86226624D01*
X128170140Y-86206824D01*
X128165332Y-86186781D01*
X128159785Y-86166496D01*
X128153499Y-86145969D01*
X128146473Y-86125198D01*
X128138707Y-86104185D01*
X128130201Y-86082929D01*
X128120956Y-86061430D01*
X128116057Y-86050590D01*
X128110972Y-86039689D01*
X128105702Y-86028727D01*
X128100248Y-86017704D01*
X128094608Y-86006621D01*
X128088784Y-85995478D01*
X128225658Y-85995478D01*
X128231139Y-86006889D01*
X128236447Y-86018262D01*
X128241581Y-86029597D01*
X128246540Y-86040893D01*
X128251326Y-86052151D01*
X128255938Y-86063371D01*
X128260375Y-86074552D01*
X128264639Y-86085695D01*
X128268728Y-86096799D01*
X128272644Y-86107865D01*
X128279953Y-86129883D01*
X128286566Y-86151747D01*
X128292482Y-86173457D01*
X128297703Y-86195014D01*
X128302228Y-86216418D01*
X128306056Y-86237668D01*
X128309189Y-86258765D01*
X128311625Y-86279709D01*
X128313365Y-86300499D01*
X128314409Y-86321135D01*
X128314757Y-86341618D01*
X128314520Y-86357013D01*
X128313809Y-86372201D01*
X128312624Y-86387183D01*
X128310965Y-86401959D01*
X128308833Y-86416529D01*
X128306226Y-86430892D01*
X128303145Y-86445050D01*
X128299590Y-86459002D01*
X128295561Y-86472747D01*
X128291058Y-86486287D01*
X128286081Y-86499620D01*
X128280631Y-86512747D01*
X128274706Y-86525668D01*
X128268307Y-86538384D01*
X128261434Y-86550893D01*
X128254087Y-86563196D01*
X128246263Y-86575243D01*
X128238032Y-86586986D01*
X128229392Y-86598425D01*
X128220345Y-86609559D01*
X128210891Y-86620388D01*
X128201029Y-86630913D01*
X128190759Y-86641134D01*
X128180082Y-86651050D01*
X128168997Y-86660661D01*
X128157505Y-86669968D01*
X128145605Y-86678970D01*
X128133297Y-86687668D01*
X128120582Y-86696061D01*
X128107459Y-86704150D01*
X128093929Y-86711934D01*
X128079991Y-86719413D01*
X128065789Y-86726512D01*
X128051465Y-86733152D01*
X128037020Y-86739334D01*
X128022454Y-86745059D01*
X128007766Y-86750325D01*
X127992957Y-86755134D01*
X127978026Y-86759484D01*
X127962974Y-86763377D01*
X127947801Y-86766812D01*
X127932507Y-86769788D01*
X127917091Y-86772307D01*
X127901553Y-86774368D01*
X127885895Y-86775971D01*
X127870115Y-86777116D01*
X127854213Y-86777803D01*
X127838191Y-86778032D01*
X127822696Y-86777814D01*
X127807279Y-86777161D01*
X127791940Y-86776074D01*
X127776678Y-86774551D01*
X127761495Y-86772593D01*
X127746389Y-86770201D01*
X127731361Y-86767373D01*
X127716411Y-86764110D01*
X127701539Y-86760412D01*
X127686745Y-86756279D01*
X127672028Y-86751711D01*
X127657390Y-86746707D01*
X127642829Y-86741269D01*
X127628346Y-86735396D01*
X127613941Y-86729088D01*
X127599614Y-86722344D01*
X127585524Y-86715175D01*
X127571830Y-86707662D01*
X127558532Y-86699806D01*
X127545631Y-86691606D01*
X127533125Y-86683063D01*
X127521015Y-86674176D01*
X127509302Y-86664946D01*
X127497985Y-86655373D01*
X127487064Y-86645456D01*
X127476539Y-86635195D01*
X127466410Y-86624591D01*
X127456677Y-86613644D01*
X127447341Y-86602353D01*
X127438400Y-86590719D01*
X127429856Y-86578741D01*
X127421708Y-86566420D01*
X127414006Y-86553802D01*
X127406801Y-86541008D01*
X127400093Y-86528037D01*
X127393882Y-86514890D01*
X127388168Y-86501567D01*
X127382951Y-86488068D01*
X127378231Y-86474392D01*
X127374007Y-86460540D01*
X127370281Y-86446512D01*
X127367051Y-86432307D01*
X127364318Y-86417926D01*
X127362082Y-86403369D01*
X127360343Y-86388636D01*
X127359101Y-86373726D01*
X127358355Y-86358640D01*
X127358217Y-86350118D01*
X127489412Y-86350118D01*
X127489997Y-86367265D01*
X127491751Y-86383974D01*
X127494675Y-86400244D01*
X127498768Y-86416077D01*
X127504031Y-86431472D01*
X127510463Y-86446430D01*
X127518065Y-86460949D01*
X127526836Y-86475030D01*
X127536777Y-86488673D01*
X127547887Y-86501879D01*
X127555944Y-86510439D01*
X127564472Y-86518743D01*
X127573497Y-86526729D01*
X127583019Y-86534396D01*
X127593038Y-86541745D01*
X127603554Y-86548776D01*
X127614567Y-86555488D01*
X127626076Y-86561882D01*
X127638083Y-86567958D01*
X127650586Y-86573716D01*
X127663586Y-86579155D01*
X127677083Y-86584276D01*
X127691077Y-86589079D01*
X127705568Y-86593564D01*
X127720556Y-86597730D01*
X127736040Y-86601578D01*
X127752022Y-86605108D01*
X127752022Y-86148178D01*
X127730333Y-86148178D01*
X127716699Y-86148393D01*
X127703419Y-86149039D01*
X127690494Y-86150115D01*
X127677925Y-86151622D01*
X127665710Y-86153559D01*
X127653850Y-86155927D01*
X127642345Y-86158725D01*
X127625753Y-86163729D01*
X127609960Y-86169702D01*
X127594965Y-86176644D01*
X127580768Y-86184554D01*
X127567371Y-86193432D01*
X127554771Y-86203279D01*
X127543091Y-86213883D01*
X127532559Y-86225141D01*
X127523177Y-86237053D01*
X127514943Y-86249620D01*
X127507858Y-86262841D01*
X127501922Y-86276716D01*
X127497135Y-86291245D01*
X127493497Y-86306429D01*
X127491008Y-86322267D01*
X127489667Y-86338760D01*
X127489412Y-86350118D01*
X127358217Y-86350118D01*
X127358107Y-86343377D01*
X127358560Y-86323222D01*
X127359920Y-86303572D01*
X127362187Y-86284424D01*
X127365361Y-86265781D01*
X127369441Y-86247641D01*
X127374428Y-86230006D01*
X127380322Y-86212873D01*
X127387123Y-86196245D01*
X127394830Y-86180121D01*
X127403445Y-86164500D01*
X127412965Y-86149383D01*
X127423393Y-86134769D01*
X127434727Y-86120660D01*
X127446969Y-86107054D01*
X127460117Y-86093952D01*
X127474171Y-86081353D01*
X127489170Y-86069357D01*
X127505152Y-86058135D01*
X127522116Y-86047687D01*
X127540062Y-86038012D01*
X127558990Y-86029112D01*
X127578901Y-86020986D01*
X127599794Y-86013633D01*
X127621669Y-86007055D01*
X127644527Y-86001250D01*
X127656324Y-85998638D01*
X127668367Y-85996219D01*
X127680656Y-85993994D01*
X127693189Y-85991963D01*
X127705969Y-85990125D01*
X127718994Y-85988480D01*
X127732265Y-85987029D01*
X127745781Y-85985771D01*
X127759543Y-85984707D01*
X127773550Y-85983836D01*
X127787803Y-85983159D01*
X127802302Y-85982675D01*
X127817046Y-85982385D01*
X127832036Y-85982288D01*
X127864569Y-85982288D01*
X127864569Y-86613900D01*
G37*
G36*
X128296000Y-85671318D02*
G01*
X127376865Y-85671318D01*
X127376865Y-85518911D01*
X127578512Y-85518911D01*
X127564917Y-85509891D01*
X127551758Y-85500712D01*
X127539034Y-85491372D01*
X127526744Y-85481871D01*
X127514890Y-85472211D01*
X127503471Y-85462390D01*
X127492487Y-85452409D01*
X127481938Y-85442267D01*
X127471824Y-85431966D01*
X127462145Y-85421504D01*
X127452901Y-85410882D01*
X127444093Y-85400099D01*
X127435719Y-85389156D01*
X127427780Y-85378053D01*
X127420277Y-85366790D01*
X127413208Y-85355366D01*
X127406536Y-85343743D01*
X127400294Y-85331955D01*
X127394482Y-85320003D01*
X127389101Y-85307885D01*
X127384151Y-85295603D01*
X127379631Y-85283155D01*
X127375541Y-85270543D01*
X127371882Y-85257766D01*
X127368654Y-85244825D01*
X127365856Y-85231718D01*
X127363488Y-85218446D01*
X127361551Y-85205010D01*
X127360044Y-85191409D01*
X127358968Y-85177643D01*
X127358322Y-85163712D01*
X127358107Y-85149616D01*
X127358272Y-85134116D01*
X127358766Y-85118611D01*
X127359591Y-85103101D01*
X127360745Y-85087586D01*
X127362229Y-85072065D01*
X127364042Y-85056540D01*
X127366185Y-85041009D01*
X127368658Y-85025473D01*
X127371461Y-85009932D01*
X127374593Y-84994386D01*
X127376865Y-84984019D01*
X127714506Y-84984019D01*
X127714506Y-85130858D01*
X127496153Y-85130858D01*
X127494211Y-85142540D01*
X127492315Y-85155482D01*
X127490893Y-85167249D01*
X127489833Y-85179493D01*
X127489412Y-85191528D01*
X127490022Y-85207491D01*
X127491854Y-85223398D01*
X127494907Y-85239248D01*
X127499180Y-85255042D01*
X127504675Y-85270778D01*
X127511390Y-85286458D01*
X127519327Y-85302082D01*
X127525296Y-85312466D01*
X127531809Y-85322825D01*
X127538863Y-85333159D01*
X127546461Y-85343467D01*
X127554601Y-85353751D01*
X127558875Y-85358883D01*
X127567830Y-85369125D01*
X127577330Y-85379335D01*
X127587375Y-85389513D01*
X127597966Y-85399659D01*
X127609101Y-85409773D01*
X127620781Y-85419855D01*
X127633006Y-85429905D01*
X127645776Y-85439923D01*
X127659091Y-85449908D01*
X127672951Y-85459862D01*
X127687356Y-85469784D01*
X127702306Y-85479673D01*
X127717801Y-85489531D01*
X127733841Y-85499356D01*
X127750426Y-85509150D01*
X127767556Y-85518911D01*
X128296000Y-85518911D01*
X128296000Y-85671318D01*
G37*
G36*
X128296000Y-82967550D02*
G01*
X128296000Y-83737794D01*
X128157660Y-83737794D01*
X128144206Y-83737451D01*
X128130513Y-83736420D01*
X128116582Y-83734703D01*
X128102413Y-83732299D01*
X128088005Y-83729208D01*
X128073360Y-83725430D01*
X128058476Y-83720964D01*
X128047157Y-83717165D01*
X128043355Y-83715812D01*
X128031793Y-83711283D01*
X128019968Y-83706048D01*
X128007881Y-83700107D01*
X127995530Y-83693460D01*
X127982917Y-83686107D01*
X127970042Y-83678048D01*
X127956903Y-83669284D01*
X127943502Y-83659814D01*
X127929838Y-83649638D01*
X127915911Y-83638756D01*
X127906481Y-83631109D01*
X127896973Y-83623277D01*
X127887499Y-83615387D01*
X127878059Y-83607441D01*
X127868654Y-83599437D01*
X127859283Y-83591376D01*
X127849946Y-83583257D01*
X127840644Y-83575082D01*
X127831376Y-83566849D01*
X127822143Y-83558559D01*
X127812944Y-83550211D01*
X127803779Y-83541807D01*
X127794648Y-83533345D01*
X127785552Y-83524826D01*
X127776490Y-83516249D01*
X127767463Y-83507616D01*
X127758470Y-83498925D01*
X127669077Y-83412170D01*
X127658806Y-83402410D01*
X127648065Y-83392417D01*
X127638536Y-83383648D01*
X127627745Y-83373787D01*
X127615692Y-83362834D01*
X127606955Y-83354925D01*
X127597658Y-83346531D01*
X127587799Y-83337651D01*
X127577379Y-83328286D01*
X127566399Y-83318435D01*
X127554857Y-83308099D01*
X127542755Y-83297278D01*
X127530552Y-83286450D01*
X127518712Y-83276093D01*
X127507233Y-83266208D01*
X127496116Y-83256795D01*
X127485361Y-83247853D01*
X127474968Y-83239383D01*
X127464936Y-83231385D01*
X127455267Y-83223859D01*
X127441441Y-83213453D01*
X127428428Y-83204109D01*
X127416230Y-83195827D01*
X127404846Y-83188605D01*
X127394276Y-83182445D01*
X127390933Y-83180628D01*
X127377703Y-83173964D01*
X127364537Y-83168189D01*
X127351435Y-83163303D01*
X127338397Y-83159305D01*
X127325423Y-83156196D01*
X127312513Y-83153975D01*
X127299667Y-83152642D01*
X127286886Y-83152198D01*
X127271721Y-83152775D01*
X127257221Y-83154506D01*
X127243385Y-83157391D01*
X127230214Y-83161430D01*
X127217707Y-83166623D01*
X127205865Y-83172971D01*
X127194688Y-83180472D01*
X127184176Y-83189127D01*
X127174327Y-83198937D01*
X127165144Y-83209900D01*
X127159391Y-83217850D01*
X127151325Y-83230302D01*
X127144052Y-83243037D01*
X127137572Y-83256055D01*
X127131886Y-83269356D01*
X127126994Y-83282941D01*
X127122894Y-83296810D01*
X127119588Y-83310961D01*
X127117076Y-83325396D01*
X127115357Y-83340115D01*
X127114431Y-83355117D01*
X127114255Y-83365275D01*
X127114424Y-83377168D01*
X127114933Y-83389400D01*
X127115780Y-83401971D01*
X127116966Y-83414881D01*
X127118491Y-83428130D01*
X127120355Y-83441717D01*
X127122558Y-83455643D01*
X127125099Y-83469909D01*
X127127801Y-83484124D01*
X127130631Y-83497899D01*
X127133590Y-83511235D01*
X127136676Y-83524131D01*
X127139891Y-83536587D01*
X127143234Y-83548604D01*
X127146706Y-83560181D01*
X127150305Y-83571318D01*
X127154367Y-83583010D01*
X127159373Y-83596396D01*
X127163746Y-83607548D01*
X127168650Y-83619652D01*
X127174084Y-83632710D01*
X127180049Y-83646721D01*
X127186545Y-83661685D01*
X127193572Y-83677602D01*
X127198551Y-83688743D01*
X127203766Y-83700307D01*
X127209217Y-83712295D01*
X127071757Y-83712295D01*
X127065542Y-83699362D01*
X127059575Y-83686425D01*
X127053855Y-83673487D01*
X127048383Y-83660546D01*
X127043157Y-83647603D01*
X127038179Y-83634658D01*
X127033449Y-83621711D01*
X127028965Y-83608761D01*
X127024729Y-83595809D01*
X127020740Y-83582854D01*
X127016999Y-83569898D01*
X127013505Y-83556939D01*
X127010258Y-83543977D01*
X127007258Y-83531014D01*
X127004506Y-83518048D01*
X127002001Y-83505080D01*
X126999694Y-83492254D01*
X126997536Y-83479714D01*
X126995527Y-83467460D01*
X126993666Y-83455492D01*
X126991955Y-83443811D01*
X126989666Y-83426826D01*
X126987713Y-83410484D01*
X126986094Y-83394787D01*
X126984810Y-83379734D01*
X126983862Y-83365325D01*
X126983248Y-83351559D01*
X126982969Y-83338438D01*
X126982950Y-83334207D01*
X126983078Y-83321851D01*
X126983463Y-83309620D01*
X126984104Y-83297515D01*
X126985002Y-83285536D01*
X126986156Y-83273683D01*
X126987566Y-83261956D01*
X126990163Y-83244601D01*
X126993336Y-83227530D01*
X126997087Y-83210742D01*
X127001415Y-83194238D01*
X127006319Y-83178017D01*
X127011801Y-83162079D01*
X127015776Y-83151612D01*
X127022248Y-83136380D01*
X127029353Y-83121902D01*
X127037093Y-83108175D01*
X127045465Y-83095201D01*
X127054472Y-83082978D01*
X127064112Y-83071508D01*
X127074386Y-83060790D01*
X127085294Y-83050825D01*
X127096835Y-83041611D01*
X127109010Y-83033150D01*
X127117479Y-83027927D01*
X127130476Y-83020646D01*
X127143637Y-83014082D01*
X127156964Y-83008233D01*
X127170455Y-83003101D01*
X127184111Y-82998685D01*
X127197933Y-82994985D01*
X127211918Y-82992001D01*
X127226069Y-82989733D01*
X127240385Y-82988182D01*
X127254866Y-82987346D01*
X127264611Y-82987187D01*
X127280971Y-82987646D01*
X127297408Y-82989021D01*
X127313923Y-82991314D01*
X127330515Y-82994524D01*
X127347184Y-82998650D01*
X127363931Y-83003694D01*
X127375138Y-83007566D01*
X127386380Y-83011846D01*
X127397656Y-83016533D01*
X127408966Y-83021628D01*
X127420311Y-83027130D01*
X127431690Y-83033040D01*
X127443103Y-83039357D01*
X127454734Y-83046204D01*
X127466766Y-83053774D01*
X127479198Y-83062067D01*
X127492031Y-83071085D01*
X127505265Y-83080825D01*
X127518900Y-83091290D01*
X127532935Y-83102477D01*
X127547371Y-83114389D01*
X127562207Y-83127024D01*
X127577445Y-83140382D01*
X127593083Y-83154465D01*
X127609121Y-83169270D01*
X127625561Y-83184800D01*
X127642401Y-83201052D01*
X127650971Y-83209450D01*
X127659642Y-83218029D01*
X127668413Y-83226788D01*
X127677284Y-83235729D01*
X127770780Y-83329225D01*
X127848449Y-83408066D01*
X127857919Y-83417297D01*
X127867353Y-83426302D01*
X127876751Y-83435084D01*
X127886111Y-83443640D01*
X127895435Y-83451973D01*
X127904722Y-83460081D01*
X127913973Y-83467965D01*
X127923187Y-83475624D01*
X127932365Y-83483059D01*
X127946062Y-83493791D01*
X127959677Y-83504017D01*
X127973210Y-83513739D01*
X127986660Y-83522956D01*
X127995581Y-83528820D01*
X128009119Y-83537035D01*
X128023137Y-83544534D01*
X128037634Y-83551316D01*
X128052610Y-83557383D01*
X128068065Y-83562733D01*
X128083999Y-83567367D01*
X128100413Y-83571285D01*
X128117305Y-83574487D01*
X128134677Y-83576973D01*
X128146524Y-83578233D01*
X128158585Y-83579174D01*
X128164695Y-83579525D01*
X128164695Y-82967550D01*
X128296000Y-82967550D01*
G37*
G36*
X128314757Y-82348248D02*
G01*
X128314153Y-82361712D01*
X128312339Y-82374699D01*
X128309317Y-82387211D01*
X128305085Y-82399246D01*
X128299645Y-82410805D01*
X128292995Y-82421887D01*
X128285137Y-82432493D01*
X128276069Y-82442623D01*
X128266159Y-82451828D01*
X128255773Y-82459806D01*
X128244910Y-82466556D01*
X128233571Y-82472079D01*
X128221756Y-82476375D01*
X128209464Y-82479443D01*
X128196696Y-82481284D01*
X128183452Y-82481898D01*
X128170011Y-82481275D01*
X128157092Y-82479406D01*
X128144696Y-82476292D01*
X128132821Y-82471933D01*
X128121468Y-82466327D01*
X128110637Y-82459476D01*
X128100329Y-82451379D01*
X128090542Y-82442037D01*
X128081544Y-82431852D01*
X128073745Y-82421228D01*
X128067145Y-82410163D01*
X128061746Y-82398660D01*
X128057547Y-82386716D01*
X128054547Y-82374333D01*
X128052747Y-82361510D01*
X128052147Y-82348248D01*
X128052747Y-82334917D01*
X128054547Y-82322035D01*
X128057547Y-82309601D01*
X128061746Y-82297616D01*
X128067145Y-82286080D01*
X128073745Y-82274993D01*
X128081544Y-82264355D01*
X128090542Y-82254166D01*
X128100329Y-82244823D01*
X128110637Y-82236727D01*
X128121468Y-82229876D01*
X128132821Y-82224270D01*
X128144696Y-82219911D01*
X128157092Y-82216796D01*
X128170011Y-82214928D01*
X128183452Y-82214305D01*
X128196696Y-82214923D01*
X128209464Y-82216778D01*
X128221756Y-82219869D01*
X128233571Y-82224197D01*
X128244910Y-82229761D01*
X128255773Y-82236562D01*
X128266159Y-82244599D01*
X128276069Y-82253872D01*
X128285137Y-82263938D01*
X128292995Y-82274499D01*
X128299645Y-82285554D01*
X128305085Y-82297103D01*
X128309317Y-82309148D01*
X128312339Y-82321687D01*
X128314153Y-82334720D01*
X128314757Y-82348248D01*
G37*
G36*
X128164695Y-81377529D02*
G01*
X127194855Y-81377529D01*
X127205152Y-81390410D01*
X127215161Y-81403224D01*
X127224881Y-81415971D01*
X127234312Y-81428651D01*
X127243456Y-81441264D01*
X127252310Y-81453810D01*
X127260876Y-81466289D01*
X127269154Y-81478701D01*
X127277143Y-81491046D01*
X127284843Y-81503324D01*
X127289817Y-81511472D01*
X127297193Y-81524042D01*
X127304596Y-81537462D01*
X127312024Y-81551732D01*
X127319478Y-81566852D01*
X127326958Y-81582823D01*
X127331959Y-81593942D01*
X127336971Y-81605439D01*
X127341995Y-81617314D01*
X127347030Y-81629566D01*
X127352077Y-81642197D01*
X127357135Y-81655205D01*
X127362205Y-81668591D01*
X127367286Y-81682355D01*
X127369831Y-81689378D01*
X127217716Y-81689378D01*
X127212910Y-81678196D01*
X127208016Y-81667106D01*
X127203034Y-81656109D01*
X127197965Y-81645204D01*
X127192808Y-81634392D01*
X127187563Y-81623673D01*
X127182231Y-81613047D01*
X127176812Y-81602513D01*
X127171304Y-81592073D01*
X127165710Y-81581725D01*
X127160027Y-81571469D01*
X127148400Y-81551237D01*
X127136422Y-81531375D01*
X127124094Y-81511885D01*
X127111415Y-81492765D01*
X127098386Y-81474016D01*
X127085007Y-81455639D01*
X127071278Y-81437632D01*
X127057198Y-81419996D01*
X127042768Y-81402731D01*
X127027987Y-81385837D01*
X127020466Y-81377529D01*
X127020466Y-81225122D01*
X128164695Y-81225122D01*
X128164695Y-80919134D01*
X128296000Y-80919134D01*
X128296000Y-81689378D01*
X128164695Y-81689378D01*
X128164695Y-81377529D01*
G37*
X172564285Y-63937128D02*
X172692857Y-63979985D01*
X172692857Y-63979985D02*
X172735714Y-64022842D01*
X172735714Y-64022842D02*
X172778571Y-64108557D01*
X172778571Y-64108557D02*
X172778571Y-64237128D01*
X172778571Y-64237128D02*
X172735714Y-64322842D01*
X172735714Y-64322842D02*
X172692857Y-64365700D01*
X172692857Y-64365700D02*
X172607142Y-64408557D01*
X172607142Y-64408557D02*
X172264285Y-64408557D01*
X172264285Y-64408557D02*
X172264285Y-63508557D01*
X172264285Y-63508557D02*
X172564285Y-63508557D01*
X172564285Y-63508557D02*
X172650000Y-63551414D01*
X172650000Y-63551414D02*
X172692857Y-63594271D01*
X172692857Y-63594271D02*
X172735714Y-63679985D01*
X172735714Y-63679985D02*
X172735714Y-63765700D01*
X172735714Y-63765700D02*
X172692857Y-63851414D01*
X172692857Y-63851414D02*
X172650000Y-63894271D01*
X172650000Y-63894271D02*
X172564285Y-63937128D01*
X172564285Y-63937128D02*
X172264285Y-63937128D01*
X179448585Y-82814286D02*
X179491442Y-82728572D01*
X179491442Y-82728572D02*
X179491442Y-82600000D01*
X179491442Y-82600000D02*
X179448585Y-82471429D01*
X179448585Y-82471429D02*
X179362871Y-82385714D01*
X179362871Y-82385714D02*
X179277157Y-82342857D01*
X179277157Y-82342857D02*
X179105728Y-82300000D01*
X179105728Y-82300000D02*
X178977157Y-82300000D01*
X178977157Y-82300000D02*
X178805728Y-82342857D01*
X178805728Y-82342857D02*
X178720014Y-82385714D01*
X178720014Y-82385714D02*
X178634300Y-82471429D01*
X178634300Y-82471429D02*
X178591442Y-82600000D01*
X178591442Y-82600000D02*
X178591442Y-82685714D01*
X178591442Y-82685714D02*
X178634300Y-82814286D01*
X178634300Y-82814286D02*
X178677157Y-82857143D01*
X178677157Y-82857143D02*
X178977157Y-82857143D01*
X178977157Y-82857143D02*
X178977157Y-82685714D01*
X178591442Y-83242857D02*
X179491442Y-83242857D01*
X179491442Y-83242857D02*
X178591442Y-83757143D01*
X178591442Y-83757143D02*
X179491442Y-83757143D01*
X178591442Y-84185714D02*
X179491442Y-84185714D01*
X179491442Y-84185714D02*
X179491442Y-84400000D01*
X179491442Y-84400000D02*
X179448585Y-84528571D01*
X179448585Y-84528571D02*
X179362871Y-84614286D01*
X179362871Y-84614286D02*
X179277157Y-84657143D01*
X179277157Y-84657143D02*
X179105728Y-84700000D01*
X179105728Y-84700000D02*
X178977157Y-84700000D01*
X178977157Y-84700000D02*
X178805728Y-84657143D01*
X178805728Y-84657143D02*
X178720014Y-84614286D01*
X178720014Y-84614286D02*
X178634300Y-84528571D01*
X178634300Y-84528571D02*
X178591442Y-84400000D01*
X178591442Y-84400000D02*
X178591442Y-84185714D01*
X178591442Y-85660714D02*
X179491442Y-85660714D01*
X179491442Y-85660714D02*
X179491442Y-85875000D01*
X179491442Y-85875000D02*
X179448585Y-86003571D01*
X179448585Y-86003571D02*
X179362871Y-86089286D01*
X179362871Y-86089286D02*
X179277157Y-86132143D01*
X179277157Y-86132143D02*
X179105728Y-86175000D01*
X179105728Y-86175000D02*
X178977157Y-86175000D01*
X178977157Y-86175000D02*
X178805728Y-86132143D01*
X178805728Y-86132143D02*
X178720014Y-86089286D01*
X178720014Y-86089286D02*
X178634300Y-86003571D01*
X178634300Y-86003571D02*
X178591442Y-85875000D01*
X178591442Y-85875000D02*
X178591442Y-85660714D01*
X178848585Y-86517857D02*
X178848585Y-86946429D01*
X178591442Y-86432143D02*
X179491442Y-86732143D01*
X179491442Y-86732143D02*
X178591442Y-87032143D01*
X179491442Y-87203572D02*
X179491442Y-87717858D01*
X178591442Y-87460715D02*
X179491442Y-87460715D01*
X155814286Y-63432414D02*
X155728572Y-63389557D01*
X155728572Y-63389557D02*
X155600000Y-63389557D01*
X155600000Y-63389557D02*
X155471429Y-63432414D01*
X155471429Y-63432414D02*
X155385714Y-63518128D01*
X155385714Y-63518128D02*
X155342857Y-63603842D01*
X155342857Y-63603842D02*
X155300000Y-63775271D01*
X155300000Y-63775271D02*
X155300000Y-63903842D01*
X155300000Y-63903842D02*
X155342857Y-64075271D01*
X155342857Y-64075271D02*
X155385714Y-64160985D01*
X155385714Y-64160985D02*
X155471429Y-64246700D01*
X155471429Y-64246700D02*
X155600000Y-64289557D01*
X155600000Y-64289557D02*
X155685714Y-64289557D01*
X155685714Y-64289557D02*
X155814286Y-64246700D01*
X155814286Y-64246700D02*
X155857143Y-64203842D01*
X155857143Y-64203842D02*
X155857143Y-63903842D01*
X155857143Y-63903842D02*
X155685714Y-63903842D01*
X156242857Y-64289557D02*
X156242857Y-63389557D01*
X156242857Y-63389557D02*
X156757143Y-64289557D01*
X156757143Y-64289557D02*
X156757143Y-63389557D01*
X157185714Y-64289557D02*
X157185714Y-63389557D01*
X157185714Y-63389557D02*
X157400000Y-63389557D01*
X157400000Y-63389557D02*
X157528571Y-63432414D01*
X157528571Y-63432414D02*
X157614286Y-63518128D01*
X157614286Y-63518128D02*
X157657143Y-63603842D01*
X157657143Y-63603842D02*
X157700000Y-63775271D01*
X157700000Y-63775271D02*
X157700000Y-63903842D01*
X157700000Y-63903842D02*
X157657143Y-64075271D01*
X157657143Y-64075271D02*
X157614286Y-64160985D01*
X157614286Y-64160985D02*
X157528571Y-64246700D01*
X157528571Y-64246700D02*
X157400000Y-64289557D01*
X157400000Y-64289557D02*
X157185714Y-64289557D01*
X165314286Y-63551414D02*
X165228572Y-63508557D01*
X165228572Y-63508557D02*
X165100000Y-63508557D01*
X165100000Y-63508557D02*
X164971429Y-63551414D01*
X164971429Y-63551414D02*
X164885714Y-63637128D01*
X164885714Y-63637128D02*
X164842857Y-63722842D01*
X164842857Y-63722842D02*
X164800000Y-63894271D01*
X164800000Y-63894271D02*
X164800000Y-64022842D01*
X164800000Y-64022842D02*
X164842857Y-64194271D01*
X164842857Y-64194271D02*
X164885714Y-64279985D01*
X164885714Y-64279985D02*
X164971429Y-64365700D01*
X164971429Y-64365700D02*
X165100000Y-64408557D01*
X165100000Y-64408557D02*
X165185714Y-64408557D01*
X165185714Y-64408557D02*
X165314286Y-64365700D01*
X165314286Y-64365700D02*
X165357143Y-64322842D01*
X165357143Y-64322842D02*
X165357143Y-64022842D01*
X165357143Y-64022842D02*
X165185714Y-64022842D01*
X165742857Y-64408557D02*
X165742857Y-63508557D01*
X165742857Y-63508557D02*
X166257143Y-64408557D01*
X166257143Y-64408557D02*
X166257143Y-63508557D01*
X166685714Y-64408557D02*
X166685714Y-63508557D01*
X166685714Y-63508557D02*
X166900000Y-63508557D01*
X166900000Y-63508557D02*
X167028571Y-63551414D01*
X167028571Y-63551414D02*
X167114286Y-63637128D01*
X167114286Y-63637128D02*
X167157143Y-63722842D01*
X167157143Y-63722842D02*
X167200000Y-63894271D01*
X167200000Y-63894271D02*
X167200000Y-64022842D01*
X167200000Y-64022842D02*
X167157143Y-64194271D01*
X167157143Y-64194271D02*
X167114286Y-64279985D01*
X167114286Y-64279985D02*
X167028571Y-64365700D01*
X167028571Y-64365700D02*
X166900000Y-64408557D01*
X166900000Y-64408557D02*
X166685714Y-64408557D01*
X159324819Y-71766666D02*
X158848628Y-72099999D01*
X159324819Y-72338094D02*
X158324819Y-72338094D01*
X158324819Y-72338094D02*
X158324819Y-71957142D01*
X158324819Y-71957142D02*
X158372438Y-71861904D01*
X158372438Y-71861904D02*
X158420057Y-71814285D01*
X158420057Y-71814285D02*
X158515295Y-71766666D01*
X158515295Y-71766666D02*
X158658152Y-71766666D01*
X158658152Y-71766666D02*
X158753390Y-71814285D01*
X158753390Y-71814285D02*
X158801009Y-71861904D01*
X158801009Y-71861904D02*
X158848628Y-71957142D01*
X158848628Y-71957142D02*
X158848628Y-72338094D01*
X158658152Y-70909523D02*
X159324819Y-70909523D01*
X158277200Y-71147618D02*
X158991485Y-71385713D01*
X158991485Y-71385713D02*
X158991485Y-70766666D01*
X166880952Y-54454819D02*
X166404762Y-54454819D01*
X166404762Y-54454819D02*
X166404762Y-53454819D01*
X167214286Y-53931009D02*
X167547619Y-53931009D01*
X167690476Y-54454819D02*
X167214286Y-54454819D01*
X167214286Y-54454819D02*
X167214286Y-53454819D01*
X167214286Y-53454819D02*
X167690476Y-53454819D01*
X168119048Y-54454819D02*
X168119048Y-53454819D01*
X168119048Y-53454819D02*
X168357143Y-53454819D01*
X168357143Y-53454819D02*
X168500000Y-53502438D01*
X168500000Y-53502438D02*
X168595238Y-53597676D01*
X168595238Y-53597676D02*
X168642857Y-53692914D01*
X168642857Y-53692914D02*
X168690476Y-53883390D01*
X168690476Y-53883390D02*
X168690476Y-54026247D01*
X168690476Y-54026247D02*
X168642857Y-54216723D01*
X168642857Y-54216723D02*
X168595238Y-54311961D01*
X168595238Y-54311961D02*
X168500000Y-54407200D01*
X168500000Y-54407200D02*
X168357143Y-54454819D01*
X168357143Y-54454819D02*
X168119048Y-54454819D01*
X169071429Y-53550057D02*
X169119048Y-53502438D01*
X169119048Y-53502438D02*
X169214286Y-53454819D01*
X169214286Y-53454819D02*
X169452381Y-53454819D01*
X169452381Y-53454819D02*
X169547619Y-53502438D01*
X169547619Y-53502438D02*
X169595238Y-53550057D01*
X169595238Y-53550057D02*
X169642857Y-53645295D01*
X169642857Y-53645295D02*
X169642857Y-53740533D01*
X169642857Y-53740533D02*
X169595238Y-53883390D01*
X169595238Y-53883390D02*
X169023810Y-54454819D01*
X169023810Y-54454819D02*
X169642857Y-54454819D01*
X181738095Y-77407200D02*
X181880952Y-77454819D01*
X181880952Y-77454819D02*
X182119047Y-77454819D01*
X182119047Y-77454819D02*
X182214285Y-77407200D01*
X182214285Y-77407200D02*
X182261904Y-77359580D01*
X182261904Y-77359580D02*
X182309523Y-77264342D01*
X182309523Y-77264342D02*
X182309523Y-77169104D01*
X182309523Y-77169104D02*
X182261904Y-77073866D01*
X182261904Y-77073866D02*
X182214285Y-77026247D01*
X182214285Y-77026247D02*
X182119047Y-76978628D01*
X182119047Y-76978628D02*
X181928571Y-76931009D01*
X181928571Y-76931009D02*
X181833333Y-76883390D01*
X181833333Y-76883390D02*
X181785714Y-76835771D01*
X181785714Y-76835771D02*
X181738095Y-76740533D01*
X181738095Y-76740533D02*
X181738095Y-76645295D01*
X181738095Y-76645295D02*
X181785714Y-76550057D01*
X181785714Y-76550057D02*
X181833333Y-76502438D01*
X181833333Y-76502438D02*
X181928571Y-76454819D01*
X181928571Y-76454819D02*
X182166666Y-76454819D01*
X182166666Y-76454819D02*
X182309523Y-76502438D01*
X182738095Y-76931009D02*
X183071428Y-76931009D01*
X183214285Y-77454819D02*
X182738095Y-77454819D01*
X182738095Y-77454819D02*
X182738095Y-76454819D01*
X182738095Y-76454819D02*
X183214285Y-76454819D01*
X183642857Y-77454819D02*
X183642857Y-76454819D01*
X183642857Y-76454819D02*
X184214285Y-77454819D01*
X184214285Y-77454819D02*
X184214285Y-76454819D01*
X184642857Y-77407200D02*
X184785714Y-77454819D01*
X184785714Y-77454819D02*
X185023809Y-77454819D01*
X185023809Y-77454819D02*
X185119047Y-77407200D01*
X185119047Y-77407200D02*
X185166666Y-77359580D01*
X185166666Y-77359580D02*
X185214285Y-77264342D01*
X185214285Y-77264342D02*
X185214285Y-77169104D01*
X185214285Y-77169104D02*
X185166666Y-77073866D01*
X185166666Y-77073866D02*
X185119047Y-77026247D01*
X185119047Y-77026247D02*
X185023809Y-76978628D01*
X185023809Y-76978628D02*
X184833333Y-76931009D01*
X184833333Y-76931009D02*
X184738095Y-76883390D01*
X184738095Y-76883390D02*
X184690476Y-76835771D01*
X184690476Y-76835771D02*
X184642857Y-76740533D01*
X184642857Y-76740533D02*
X184642857Y-76645295D01*
X184642857Y-76645295D02*
X184690476Y-76550057D01*
X184690476Y-76550057D02*
X184738095Y-76502438D01*
X184738095Y-76502438D02*
X184833333Y-76454819D01*
X184833333Y-76454819D02*
X185071428Y-76454819D01*
X185071428Y-76454819D02*
X185214285Y-76502438D01*
X185833333Y-76454819D02*
X186023809Y-76454819D01*
X186023809Y-76454819D02*
X186119047Y-76502438D01*
X186119047Y-76502438D02*
X186214285Y-76597676D01*
X186214285Y-76597676D02*
X186261904Y-76788152D01*
X186261904Y-76788152D02*
X186261904Y-77121485D01*
X186261904Y-77121485D02*
X186214285Y-77311961D01*
X186214285Y-77311961D02*
X186119047Y-77407200D01*
X186119047Y-77407200D02*
X186023809Y-77454819D01*
X186023809Y-77454819D02*
X185833333Y-77454819D01*
X185833333Y-77454819D02*
X185738095Y-77407200D01*
X185738095Y-77407200D02*
X185642857Y-77311961D01*
X185642857Y-77311961D02*
X185595238Y-77121485D01*
X185595238Y-77121485D02*
X185595238Y-76788152D01*
X185595238Y-76788152D02*
X185642857Y-76597676D01*
X185642857Y-76597676D02*
X185738095Y-76502438D01*
X185738095Y-76502438D02*
X185833333Y-76454819D01*
X187261904Y-77454819D02*
X186928571Y-76978628D01*
X186690476Y-77454819D02*
X186690476Y-76454819D01*
X186690476Y-76454819D02*
X187071428Y-76454819D01*
X187071428Y-76454819D02*
X187166666Y-76502438D01*
X187166666Y-76502438D02*
X187214285Y-76550057D01*
X187214285Y-76550057D02*
X187261904Y-76645295D01*
X187261904Y-76645295D02*
X187261904Y-76788152D01*
X187261904Y-76788152D02*
X187214285Y-76883390D01*
X187214285Y-76883390D02*
X187166666Y-76931009D01*
X187166666Y-76931009D02*
X187071428Y-76978628D01*
X187071428Y-76978628D02*
X186690476Y-76978628D01*
X139238095Y-69150438D02*
X139142857Y-69102819D01*
X139142857Y-69102819D02*
X139000000Y-69102819D01*
X139000000Y-69102819D02*
X138857143Y-69150438D01*
X138857143Y-69150438D02*
X138761905Y-69245676D01*
X138761905Y-69245676D02*
X138714286Y-69340914D01*
X138714286Y-69340914D02*
X138666667Y-69531390D01*
X138666667Y-69531390D02*
X138666667Y-69674247D01*
X138666667Y-69674247D02*
X138714286Y-69864723D01*
X138714286Y-69864723D02*
X138761905Y-69959961D01*
X138761905Y-69959961D02*
X138857143Y-70055200D01*
X138857143Y-70055200D02*
X139000000Y-70102819D01*
X139000000Y-70102819D02*
X139095238Y-70102819D01*
X139095238Y-70102819D02*
X139238095Y-70055200D01*
X139238095Y-70055200D02*
X139285714Y-70007580D01*
X139285714Y-70007580D02*
X139285714Y-69674247D01*
X139285714Y-69674247D02*
X139095238Y-69674247D01*
X139714286Y-70102819D02*
X139714286Y-69102819D01*
X139714286Y-69102819D02*
X140285714Y-70102819D01*
X140285714Y-70102819D02*
X140285714Y-69102819D01*
X140761905Y-70102819D02*
X140761905Y-69102819D01*
X140761905Y-69102819D02*
X141000000Y-69102819D01*
X141000000Y-69102819D02*
X141142857Y-69150438D01*
X141142857Y-69150438D02*
X141238095Y-69245676D01*
X141238095Y-69245676D02*
X141285714Y-69340914D01*
X141285714Y-69340914D02*
X141333333Y-69531390D01*
X141333333Y-69531390D02*
X141333333Y-69674247D01*
X141333333Y-69674247D02*
X141285714Y-69864723D01*
X141285714Y-69864723D02*
X141238095Y-69959961D01*
X141238095Y-69959961D02*
X141142857Y-70055200D01*
X141142857Y-70055200D02*
X141000000Y-70102819D01*
X141000000Y-70102819D02*
X140761905Y-70102819D01*
X67014819Y-111664285D02*
X66014819Y-111664285D01*
X66014819Y-111664285D02*
X66014819Y-111283333D01*
X66014819Y-111283333D02*
X66062438Y-111188095D01*
X66062438Y-111188095D02*
X66110057Y-111140476D01*
X66110057Y-111140476D02*
X66205295Y-111092857D01*
X66205295Y-111092857D02*
X66348152Y-111092857D01*
X66348152Y-111092857D02*
X66443390Y-111140476D01*
X66443390Y-111140476D02*
X66491009Y-111188095D01*
X66491009Y-111188095D02*
X66538628Y-111283333D01*
X66538628Y-111283333D02*
X66538628Y-111664285D01*
X66967200Y-110711904D02*
X67014819Y-110569047D01*
X67014819Y-110569047D02*
X67014819Y-110330952D01*
X67014819Y-110330952D02*
X66967200Y-110235714D01*
X66967200Y-110235714D02*
X66919580Y-110188095D01*
X66919580Y-110188095D02*
X66824342Y-110140476D01*
X66824342Y-110140476D02*
X66729104Y-110140476D01*
X66729104Y-110140476D02*
X66633866Y-110188095D01*
X66633866Y-110188095D02*
X66586247Y-110235714D01*
X66586247Y-110235714D02*
X66538628Y-110330952D01*
X66538628Y-110330952D02*
X66491009Y-110521428D01*
X66491009Y-110521428D02*
X66443390Y-110616666D01*
X66443390Y-110616666D02*
X66395771Y-110664285D01*
X66395771Y-110664285D02*
X66300533Y-110711904D01*
X66300533Y-110711904D02*
X66205295Y-110711904D01*
X66205295Y-110711904D02*
X66110057Y-110664285D01*
X66110057Y-110664285D02*
X66062438Y-110616666D01*
X66062438Y-110616666D02*
X66014819Y-110521428D01*
X66014819Y-110521428D02*
X66014819Y-110283333D01*
X66014819Y-110283333D02*
X66062438Y-110140476D01*
X67014819Y-109188095D02*
X67014819Y-109759523D01*
X67014819Y-109473809D02*
X66014819Y-109473809D01*
X66014819Y-109473809D02*
X66157676Y-109569047D01*
X66157676Y-109569047D02*
X66252914Y-109664285D01*
X66252914Y-109664285D02*
X66300533Y-109759523D01*
X139809523Y-76102819D02*
X139333333Y-76102819D01*
X139333333Y-76102819D02*
X139285714Y-76579009D01*
X139285714Y-76579009D02*
X139333333Y-76531390D01*
X139333333Y-76531390D02*
X139428571Y-76483771D01*
X139428571Y-76483771D02*
X139666666Y-76483771D01*
X139666666Y-76483771D02*
X139761904Y-76531390D01*
X139761904Y-76531390D02*
X139809523Y-76579009D01*
X139809523Y-76579009D02*
X139857142Y-76674247D01*
X139857142Y-76674247D02*
X139857142Y-76912342D01*
X139857142Y-76912342D02*
X139809523Y-77007580D01*
X139809523Y-77007580D02*
X139761904Y-77055200D01*
X139761904Y-77055200D02*
X139666666Y-77102819D01*
X139666666Y-77102819D02*
X139428571Y-77102819D01*
X139428571Y-77102819D02*
X139333333Y-77055200D01*
X139333333Y-77055200D02*
X139285714Y-77007580D01*
X140142857Y-76102819D02*
X140476190Y-77102819D01*
X140476190Y-77102819D02*
X140809523Y-76102819D01*
X102204819Y-87345238D02*
X101728628Y-87678571D01*
X102204819Y-87916666D02*
X101204819Y-87916666D01*
X101204819Y-87916666D02*
X101204819Y-87535714D01*
X101204819Y-87535714D02*
X101252438Y-87440476D01*
X101252438Y-87440476D02*
X101300057Y-87392857D01*
X101300057Y-87392857D02*
X101395295Y-87345238D01*
X101395295Y-87345238D02*
X101538152Y-87345238D01*
X101538152Y-87345238D02*
X101633390Y-87392857D01*
X101633390Y-87392857D02*
X101681009Y-87440476D01*
X101681009Y-87440476D02*
X101728628Y-87535714D01*
X101728628Y-87535714D02*
X101728628Y-87916666D01*
X101204819Y-87059523D02*
X102204819Y-86726190D01*
X102204819Y-86726190D02*
X101204819Y-86392857D01*
X102204819Y-85535714D02*
X102204819Y-86107142D01*
X102204819Y-85821428D02*
X101204819Y-85821428D01*
X101204819Y-85821428D02*
X101347676Y-85916666D01*
X101347676Y-85916666D02*
X101442914Y-86011904D01*
X101442914Y-86011904D02*
X101490533Y-86107142D01*
X144642857Y-124931009D02*
X144976190Y-124931009D01*
X145119047Y-125454819D02*
X144642857Y-125454819D01*
X144642857Y-125454819D02*
X144642857Y-124454819D01*
X144642857Y-124454819D02*
X145119047Y-124454819D01*
X145500000Y-125407200D02*
X145642857Y-125454819D01*
X145642857Y-125454819D02*
X145880952Y-125454819D01*
X145880952Y-125454819D02*
X145976190Y-125407200D01*
X145976190Y-125407200D02*
X146023809Y-125359580D01*
X146023809Y-125359580D02*
X146071428Y-125264342D01*
X146071428Y-125264342D02*
X146071428Y-125169104D01*
X146071428Y-125169104D02*
X146023809Y-125073866D01*
X146023809Y-125073866D02*
X145976190Y-125026247D01*
X145976190Y-125026247D02*
X145880952Y-124978628D01*
X145880952Y-124978628D02*
X145690476Y-124931009D01*
X145690476Y-124931009D02*
X145595238Y-124883390D01*
X145595238Y-124883390D02*
X145547619Y-124835771D01*
X145547619Y-124835771D02*
X145500000Y-124740533D01*
X145500000Y-124740533D02*
X145500000Y-124645295D01*
X145500000Y-124645295D02*
X145547619Y-124550057D01*
X145547619Y-124550057D02*
X145595238Y-124502438D01*
X145595238Y-124502438D02*
X145690476Y-124454819D01*
X145690476Y-124454819D02*
X145928571Y-124454819D01*
X145928571Y-124454819D02*
X146071428Y-124502438D01*
X146500000Y-125454819D02*
X146500000Y-124454819D01*
X146500000Y-124454819D02*
X146880952Y-124454819D01*
X146880952Y-124454819D02*
X146976190Y-124502438D01*
X146976190Y-124502438D02*
X147023809Y-124550057D01*
X147023809Y-124550057D02*
X147071428Y-124645295D01*
X147071428Y-124645295D02*
X147071428Y-124788152D01*
X147071428Y-124788152D02*
X147023809Y-124883390D01*
X147023809Y-124883390D02*
X146976190Y-124931009D01*
X146976190Y-124931009D02*
X146880952Y-124978628D01*
X146880952Y-124978628D02*
X146500000Y-124978628D01*
X147404762Y-124454819D02*
X148023809Y-124454819D01*
X148023809Y-124454819D02*
X147690476Y-124835771D01*
X147690476Y-124835771D02*
X147833333Y-124835771D01*
X147833333Y-124835771D02*
X147928571Y-124883390D01*
X147928571Y-124883390D02*
X147976190Y-124931009D01*
X147976190Y-124931009D02*
X148023809Y-125026247D01*
X148023809Y-125026247D02*
X148023809Y-125264342D01*
X148023809Y-125264342D02*
X147976190Y-125359580D01*
X147976190Y-125359580D02*
X147928571Y-125407200D01*
X147928571Y-125407200D02*
X147833333Y-125454819D01*
X147833333Y-125454819D02*
X147547619Y-125454819D01*
X147547619Y-125454819D02*
X147452381Y-125407200D01*
X147452381Y-125407200D02*
X147404762Y-125359580D01*
X148404762Y-124550057D02*
X148452381Y-124502438D01*
X148452381Y-124502438D02*
X148547619Y-124454819D01*
X148547619Y-124454819D02*
X148785714Y-124454819D01*
X148785714Y-124454819D02*
X148880952Y-124502438D01*
X148880952Y-124502438D02*
X148928571Y-124550057D01*
X148928571Y-124550057D02*
X148976190Y-124645295D01*
X148976190Y-124645295D02*
X148976190Y-124740533D01*
X148976190Y-124740533D02*
X148928571Y-124883390D01*
X148928571Y-124883390D02*
X148357143Y-125454819D01*
X148357143Y-125454819D02*
X148976190Y-125454819D01*
X149404762Y-125073866D02*
X150166667Y-125073866D01*
X150642857Y-125454819D02*
X150642857Y-124454819D01*
X150642857Y-124454819D02*
X150880952Y-124454819D01*
X150880952Y-124454819D02*
X151023809Y-124502438D01*
X151023809Y-124502438D02*
X151119047Y-124597676D01*
X151119047Y-124597676D02*
X151166666Y-124692914D01*
X151166666Y-124692914D02*
X151214285Y-124883390D01*
X151214285Y-124883390D02*
X151214285Y-125026247D01*
X151214285Y-125026247D02*
X151166666Y-125216723D01*
X151166666Y-125216723D02*
X151119047Y-125311961D01*
X151119047Y-125311961D02*
X151023809Y-125407200D01*
X151023809Y-125407200D02*
X150880952Y-125454819D01*
X150880952Y-125454819D02*
X150642857Y-125454819D01*
X151642857Y-124931009D02*
X151976190Y-124931009D01*
X152119047Y-125454819D02*
X151642857Y-125454819D01*
X151642857Y-125454819D02*
X151642857Y-124454819D01*
X151642857Y-124454819D02*
X152119047Y-124454819D01*
X152404762Y-124454819D02*
X152738095Y-125454819D01*
X152738095Y-125454819D02*
X153071428Y-124454819D01*
X153404762Y-125454819D02*
X153404762Y-124454819D01*
X153976190Y-125454819D02*
X153547619Y-124883390D01*
X153976190Y-124454819D02*
X153404762Y-125026247D01*
X154404762Y-125454819D02*
X154404762Y-124454819D01*
X154738095Y-124454819D02*
X155309523Y-124454819D01*
X155023809Y-125454819D02*
X155023809Y-124454819D01*
X156214285Y-125359580D02*
X156166666Y-125407200D01*
X156166666Y-125407200D02*
X156023809Y-125454819D01*
X156023809Y-125454819D02*
X155928571Y-125454819D01*
X155928571Y-125454819D02*
X155785714Y-125407200D01*
X155785714Y-125407200D02*
X155690476Y-125311961D01*
X155690476Y-125311961D02*
X155642857Y-125216723D01*
X155642857Y-125216723D02*
X155595238Y-125026247D01*
X155595238Y-125026247D02*
X155595238Y-124883390D01*
X155595238Y-124883390D02*
X155642857Y-124692914D01*
X155642857Y-124692914D02*
X155690476Y-124597676D01*
X155690476Y-124597676D02*
X155785714Y-124502438D01*
X155785714Y-124502438D02*
X155928571Y-124454819D01*
X155928571Y-124454819D02*
X156023809Y-124454819D01*
X156023809Y-124454819D02*
X156166666Y-124502438D01*
X156166666Y-124502438D02*
X156214285Y-124550057D01*
X156642857Y-125073866D02*
X157404762Y-125073866D01*
X157785714Y-124454819D02*
X158404761Y-124454819D01*
X158404761Y-124454819D02*
X158071428Y-124835771D01*
X158071428Y-124835771D02*
X158214285Y-124835771D01*
X158214285Y-124835771D02*
X158309523Y-124883390D01*
X158309523Y-124883390D02*
X158357142Y-124931009D01*
X158357142Y-124931009D02*
X158404761Y-125026247D01*
X158404761Y-125026247D02*
X158404761Y-125264342D01*
X158404761Y-125264342D02*
X158357142Y-125359580D01*
X158357142Y-125359580D02*
X158309523Y-125407200D01*
X158309523Y-125407200D02*
X158214285Y-125454819D01*
X158214285Y-125454819D02*
X157928571Y-125454819D01*
X157928571Y-125454819D02*
X157833333Y-125407200D01*
X157833333Y-125407200D02*
X157785714Y-125359580D01*
X158785714Y-124550057D02*
X158833333Y-124502438D01*
X158833333Y-124502438D02*
X158928571Y-124454819D01*
X158928571Y-124454819D02*
X159166666Y-124454819D01*
X159166666Y-124454819D02*
X159261904Y-124502438D01*
X159261904Y-124502438D02*
X159309523Y-124550057D01*
X159309523Y-124550057D02*
X159357142Y-124645295D01*
X159357142Y-124645295D02*
X159357142Y-124740533D01*
X159357142Y-124740533D02*
X159309523Y-124883390D01*
X159309523Y-124883390D02*
X158738095Y-125454819D01*
X158738095Y-125454819D02*
X159357142Y-125454819D01*
X159785714Y-124454819D02*
X159785714Y-125264342D01*
X159785714Y-125264342D02*
X159833333Y-125359580D01*
X159833333Y-125359580D02*
X159880952Y-125407200D01*
X159880952Y-125407200D02*
X159976190Y-125454819D01*
X159976190Y-125454819D02*
X160166666Y-125454819D01*
X160166666Y-125454819D02*
X160261904Y-125407200D01*
X160261904Y-125407200D02*
X160309523Y-125359580D01*
X160309523Y-125359580D02*
X160357142Y-125264342D01*
X160357142Y-125264342D02*
X160357142Y-124454819D01*
X86952738Y-67464819D02*
X87286071Y-68464819D01*
X87286071Y-68464819D02*
X87619404Y-67464819D01*
X87905119Y-68179104D02*
X88381309Y-68179104D01*
X87809881Y-68464819D02*
X88143214Y-67464819D01*
X88143214Y-67464819D02*
X88476547Y-68464819D01*
X89381309Y-68369580D02*
X89333690Y-68417200D01*
X89333690Y-68417200D02*
X89190833Y-68464819D01*
X89190833Y-68464819D02*
X89095595Y-68464819D01*
X89095595Y-68464819D02*
X88952738Y-68417200D01*
X88952738Y-68417200D02*
X88857500Y-68321961D01*
X88857500Y-68321961D02*
X88809881Y-68226723D01*
X88809881Y-68226723D02*
X88762262Y-68036247D01*
X88762262Y-68036247D02*
X88762262Y-67893390D01*
X88762262Y-67893390D02*
X88809881Y-67702914D01*
X88809881Y-67702914D02*
X88857500Y-67607676D01*
X88857500Y-67607676D02*
X88952738Y-67512438D01*
X88952738Y-67512438D02*
X89095595Y-67464819D01*
X89095595Y-67464819D02*
X89190833Y-67464819D01*
X89190833Y-67464819D02*
X89333690Y-67512438D01*
X89333690Y-67512438D02*
X89381309Y-67560057D01*
X89571786Y-68560057D02*
X90333690Y-68560057D01*
X90571786Y-68464819D02*
X90571786Y-67464819D01*
X91047976Y-68464819D02*
X91047976Y-67464819D01*
X91047976Y-67464819D02*
X91619404Y-68464819D01*
X91619404Y-68464819D02*
X91619404Y-67464819D01*
X144333333Y-78609580D02*
X144285714Y-78657200D01*
X144285714Y-78657200D02*
X144142857Y-78704819D01*
X144142857Y-78704819D02*
X144047619Y-78704819D01*
X144047619Y-78704819D02*
X143904762Y-78657200D01*
X143904762Y-78657200D02*
X143809524Y-78561961D01*
X143809524Y-78561961D02*
X143761905Y-78466723D01*
X143761905Y-78466723D02*
X143714286Y-78276247D01*
X143714286Y-78276247D02*
X143714286Y-78133390D01*
X143714286Y-78133390D02*
X143761905Y-77942914D01*
X143761905Y-77942914D02*
X143809524Y-77847676D01*
X143809524Y-77847676D02*
X143904762Y-77752438D01*
X143904762Y-77752438D02*
X144047619Y-77704819D01*
X144047619Y-77704819D02*
X144142857Y-77704819D01*
X144142857Y-77704819D02*
X144285714Y-77752438D01*
X144285714Y-77752438D02*
X144333333Y-77800057D01*
X144714286Y-77800057D02*
X144761905Y-77752438D01*
X144761905Y-77752438D02*
X144857143Y-77704819D01*
X144857143Y-77704819D02*
X145095238Y-77704819D01*
X145095238Y-77704819D02*
X145190476Y-77752438D01*
X145190476Y-77752438D02*
X145238095Y-77800057D01*
X145238095Y-77800057D02*
X145285714Y-77895295D01*
X145285714Y-77895295D02*
X145285714Y-77990533D01*
X145285714Y-77990533D02*
X145238095Y-78133390D01*
X145238095Y-78133390D02*
X144666667Y-78704819D01*
X144666667Y-78704819D02*
X145285714Y-78704819D01*
X77617904Y-74762009D02*
X77284571Y-74762009D01*
X77284571Y-75285819D02*
X77284571Y-74285819D01*
X77284571Y-74285819D02*
X77760761Y-74285819D01*
X78617904Y-75285819D02*
X78141714Y-75285819D01*
X78141714Y-75285819D02*
X78141714Y-74285819D01*
X79475047Y-75285819D02*
X78903619Y-75285819D01*
X79189333Y-75285819D02*
X79189333Y-74285819D01*
X79189333Y-74285819D02*
X79094095Y-74428676D01*
X79094095Y-74428676D02*
X78998857Y-74523914D01*
X78998857Y-74523914D02*
X78903619Y-74571533D01*
X170464819Y-71794666D02*
X169988628Y-72127999D01*
X170464819Y-72366094D02*
X169464819Y-72366094D01*
X169464819Y-72366094D02*
X169464819Y-71985142D01*
X169464819Y-71985142D02*
X169512438Y-71889904D01*
X169512438Y-71889904D02*
X169560057Y-71842285D01*
X169560057Y-71842285D02*
X169655295Y-71794666D01*
X169655295Y-71794666D02*
X169798152Y-71794666D01*
X169798152Y-71794666D02*
X169893390Y-71842285D01*
X169893390Y-71842285D02*
X169941009Y-71889904D01*
X169941009Y-71889904D02*
X169988628Y-71985142D01*
X169988628Y-71985142D02*
X169988628Y-72366094D01*
X169560057Y-71413713D02*
X169512438Y-71366094D01*
X169512438Y-71366094D02*
X169464819Y-71270856D01*
X169464819Y-71270856D02*
X169464819Y-71032761D01*
X169464819Y-71032761D02*
X169512438Y-70937523D01*
X169512438Y-70937523D02*
X169560057Y-70889904D01*
X169560057Y-70889904D02*
X169655295Y-70842285D01*
X169655295Y-70842285D02*
X169750533Y-70842285D01*
X169750533Y-70842285D02*
X169893390Y-70889904D01*
X169893390Y-70889904D02*
X170464819Y-71461332D01*
X170464819Y-71461332D02*
X170464819Y-70842285D01*
X153380952Y-54454819D02*
X152904762Y-54454819D01*
X152904762Y-54454819D02*
X152904762Y-53454819D01*
X153714286Y-53931009D02*
X154047619Y-53931009D01*
X154190476Y-54454819D02*
X153714286Y-54454819D01*
X153714286Y-54454819D02*
X153714286Y-53454819D01*
X153714286Y-53454819D02*
X154190476Y-53454819D01*
X154619048Y-54454819D02*
X154619048Y-53454819D01*
X154619048Y-53454819D02*
X154857143Y-53454819D01*
X154857143Y-53454819D02*
X155000000Y-53502438D01*
X155000000Y-53502438D02*
X155095238Y-53597676D01*
X155095238Y-53597676D02*
X155142857Y-53692914D01*
X155142857Y-53692914D02*
X155190476Y-53883390D01*
X155190476Y-53883390D02*
X155190476Y-54026247D01*
X155190476Y-54026247D02*
X155142857Y-54216723D01*
X155142857Y-54216723D02*
X155095238Y-54311961D01*
X155095238Y-54311961D02*
X155000000Y-54407200D01*
X155000000Y-54407200D02*
X154857143Y-54454819D01*
X154857143Y-54454819D02*
X154619048Y-54454819D01*
X156142857Y-54454819D02*
X155571429Y-54454819D01*
X155857143Y-54454819D02*
X155857143Y-53454819D01*
X155857143Y-53454819D02*
X155761905Y-53597676D01*
X155761905Y-53597676D02*
X155666667Y-53692914D01*
X155666667Y-53692914D02*
X155571429Y-53740533D01*
X97200580Y-87309166D02*
X97248200Y-87356785D01*
X97248200Y-87356785D02*
X97295819Y-87499642D01*
X97295819Y-87499642D02*
X97295819Y-87594880D01*
X97295819Y-87594880D02*
X97248200Y-87737737D01*
X97248200Y-87737737D02*
X97152961Y-87832975D01*
X97152961Y-87832975D02*
X97057723Y-87880594D01*
X97057723Y-87880594D02*
X96867247Y-87928213D01*
X96867247Y-87928213D02*
X96724390Y-87928213D01*
X96724390Y-87928213D02*
X96533914Y-87880594D01*
X96533914Y-87880594D02*
X96438676Y-87832975D01*
X96438676Y-87832975D02*
X96343438Y-87737737D01*
X96343438Y-87737737D02*
X96295819Y-87594880D01*
X96295819Y-87594880D02*
X96295819Y-87499642D01*
X96295819Y-87499642D02*
X96343438Y-87356785D01*
X96343438Y-87356785D02*
X96391057Y-87309166D01*
X97295819Y-86356785D02*
X97295819Y-86928213D01*
X97295819Y-86642499D02*
X96295819Y-86642499D01*
X96295819Y-86642499D02*
X96438676Y-86737737D01*
X96438676Y-86737737D02*
X96533914Y-86832975D01*
X96533914Y-86832975D02*
X96581533Y-86928213D01*
X165384819Y-71794666D02*
X164908628Y-72127999D01*
X165384819Y-72366094D02*
X164384819Y-72366094D01*
X164384819Y-72366094D02*
X164384819Y-71985142D01*
X164384819Y-71985142D02*
X164432438Y-71889904D01*
X164432438Y-71889904D02*
X164480057Y-71842285D01*
X164480057Y-71842285D02*
X164575295Y-71794666D01*
X164575295Y-71794666D02*
X164718152Y-71794666D01*
X164718152Y-71794666D02*
X164813390Y-71842285D01*
X164813390Y-71842285D02*
X164861009Y-71889904D01*
X164861009Y-71889904D02*
X164908628Y-71985142D01*
X164908628Y-71985142D02*
X164908628Y-72366094D01*
X164384819Y-71461332D02*
X164384819Y-70842285D01*
X164384819Y-70842285D02*
X164765771Y-71175618D01*
X164765771Y-71175618D02*
X164765771Y-71032761D01*
X164765771Y-71032761D02*
X164813390Y-70937523D01*
X164813390Y-70937523D02*
X164861009Y-70889904D01*
X164861009Y-70889904D02*
X164956247Y-70842285D01*
X164956247Y-70842285D02*
X165194342Y-70842285D01*
X165194342Y-70842285D02*
X165289580Y-70889904D01*
X165289580Y-70889904D02*
X165337200Y-70937523D01*
X165337200Y-70937523D02*
X165384819Y-71032761D01*
X165384819Y-71032761D02*
X165384819Y-71318475D01*
X165384819Y-71318475D02*
X165337200Y-71413713D01*
X165337200Y-71413713D02*
X165289580Y-71461332D01*
X175424819Y-71766666D02*
X174948628Y-72099999D01*
X175424819Y-72338094D02*
X174424819Y-72338094D01*
X174424819Y-72338094D02*
X174424819Y-71957142D01*
X174424819Y-71957142D02*
X174472438Y-71861904D01*
X174472438Y-71861904D02*
X174520057Y-71814285D01*
X174520057Y-71814285D02*
X174615295Y-71766666D01*
X174615295Y-71766666D02*
X174758152Y-71766666D01*
X174758152Y-71766666D02*
X174853390Y-71814285D01*
X174853390Y-71814285D02*
X174901009Y-71861904D01*
X174901009Y-71861904D02*
X174948628Y-71957142D01*
X174948628Y-71957142D02*
X174948628Y-72338094D01*
X175424819Y-70814285D02*
X175424819Y-71385713D01*
X175424819Y-71099999D02*
X174424819Y-71099999D01*
X174424819Y-71099999D02*
X174567676Y-71195237D01*
X174567676Y-71195237D02*
X174662914Y-71290475D01*
X174662914Y-71290475D02*
X174710533Y-71385713D01*
D11*
%TO.C,R4*%
X157870000Y-68330000D02*
X157870000Y-74870000D01*
X157540000Y-68330000D02*
X157870000Y-68330000D01*
X155460000Y-68330000D02*
X155130000Y-68330000D01*
X155130000Y-68330000D02*
X155130000Y-74870000D01*
X157870000Y-74870000D02*
X157540000Y-74870000D01*
X155130000Y-74870000D02*
X155460000Y-74870000D01*
%TO.C,LED2*%
X174350000Y-61750000D02*
X174350000Y-60500000D01*
X174060000Y-61460000D02*
X174060000Y-55490000D01*
X174060000Y-55490000D02*
X161440000Y-55490000D01*
X174050000Y-61450000D02*
X174050000Y-60700000D01*
X174050000Y-60700000D02*
X172250000Y-60700000D01*
X174050000Y-59200000D02*
X173300000Y-59200000D01*
X173300000Y-59200000D02*
X173300000Y-56250000D01*
X173300000Y-56250000D02*
X167750000Y-56250000D01*
X173100000Y-61750000D02*
X174350000Y-61750000D01*
X172250000Y-61450000D02*
X174050000Y-61450000D01*
X172250000Y-60700000D02*
X172250000Y-61450000D01*
X170750000Y-61450000D02*
X170750000Y-60700000D01*
X170750000Y-60700000D02*
X164750000Y-60700000D01*
X164750000Y-61450000D02*
X170750000Y-61450000D01*
X164750000Y-60700000D02*
X164750000Y-61450000D01*
X163250000Y-61450000D02*
X163250000Y-60700000D01*
X163250000Y-60700000D02*
X161450000Y-60700000D01*
X162200000Y-59200000D02*
X162200000Y-56250000D01*
X162200000Y-56250000D02*
X167750000Y-56250000D01*
X161450000Y-61450000D02*
X163250000Y-61450000D01*
X161450000Y-60700000D02*
X161450000Y-61450000D01*
X161450000Y-59200000D02*
X162200000Y-59200000D01*
X161440000Y-61460000D02*
X174060000Y-61460000D01*
X161440000Y-55490000D02*
X161440000Y-61460000D01*
%TO.C,SENSOR*%
X181273000Y-88956000D02*
X182523000Y-88956000D01*
X181563000Y-88666000D02*
X187533000Y-88666000D01*
X187533000Y-88666000D02*
X187533000Y-78546000D01*
X181573000Y-88656000D02*
X182323000Y-88656000D01*
X182323000Y-88656000D02*
X182323000Y-86856000D01*
X183823000Y-88656000D02*
X183823000Y-87906000D01*
X183823000Y-87906000D02*
X186773000Y-87906000D01*
X186773000Y-87906000D02*
X186773000Y-83606000D01*
X181273000Y-87706000D02*
X181273000Y-88956000D01*
X181573000Y-86856000D02*
X181573000Y-88656000D01*
X182323000Y-86856000D02*
X181573000Y-86856000D01*
X181573000Y-85356000D02*
X182323000Y-85356000D01*
X182323000Y-85356000D02*
X182323000Y-81856000D01*
X181573000Y-81856000D02*
X181573000Y-85356000D01*
X182323000Y-81856000D02*
X181573000Y-81856000D01*
X181573000Y-80356000D02*
X182323000Y-80356000D01*
X182323000Y-80356000D02*
X182323000Y-78556000D01*
X183823000Y-79306000D02*
X186773000Y-79306000D01*
X186773000Y-79306000D02*
X186773000Y-83606000D01*
X181573000Y-78556000D02*
X181573000Y-80356000D01*
X182323000Y-78556000D02*
X181573000Y-78556000D01*
X183823000Y-78556000D02*
X183823000Y-79306000D01*
X181563000Y-78546000D02*
X181563000Y-88666000D01*
X187533000Y-78546000D02*
X181563000Y-78546000D01*
%TO.C,GND*%
X140950000Y-68000000D02*
G75*
G03*
X140950000Y-68000000I-950000J0D01*
G01*
%TO.C,PS1*%
X67710000Y-110000000D02*
X67710000Y-112010000D01*
X68090000Y-102140000D02*
X68090000Y-125860000D01*
X68100000Y-125860000D02*
X107310000Y-125860000D01*
X107310000Y-102140000D02*
X68100000Y-102140000D01*
X107310000Y-125860000D02*
X107310000Y-102140000D01*
%TO.C,5V*%
X140950000Y-75000000D02*
G75*
G03*
X140950000Y-75000000I-950000J0D01*
G01*
D10*
%TO.C,RV1*%
X106650000Y-80750000D02*
X102750000Y-80750000D01*
X106650000Y-80750000D02*
X106650000Y-92750000D01*
X102750000Y-80750000D02*
X102750000Y-92750000D01*
X106650000Y-92750000D02*
X102750000Y-92750000D01*
D12*
%TO.C,ESP32-DEVKITC-32U*%
X183100000Y-94050000D02*
X134900000Y-94050000D01*
X134900000Y-94050000D02*
X134900000Y-103930000D01*
X189300000Y-99000000D02*
X189300000Y-117000000D01*
X183100000Y-99000000D02*
X183100000Y-94050000D01*
X183100000Y-99000000D02*
X189300000Y-99000000D01*
X134900000Y-103930000D02*
X134000000Y-103930000D01*
X134000000Y-103930000D02*
X134000000Y-112060000D01*
X134900000Y-112060000D02*
X134900000Y-121950000D01*
X134000000Y-112060000D02*
X134900000Y-112060000D01*
X189300000Y-117000000D02*
X183100000Y-117000000D01*
X183100000Y-121950000D02*
X183100000Y-117000000D01*
X134900000Y-121950000D02*
X183100000Y-121950000D01*
D13*
X182070000Y-93430000D02*
G75*
G03*
X182070000Y-93430000I-100000J0D01*
G01*
D11*
%TO.C,VAC_IN*%
X94657500Y-57590000D02*
X94657500Y-56850000D01*
X94657500Y-56850000D02*
X94157500Y-56850000D01*
X94417500Y-67011000D02*
X94417500Y-57090000D01*
X94417500Y-67011000D02*
X84297500Y-67011000D01*
X94417500Y-64051000D02*
X84297500Y-64051000D01*
X94417500Y-59150000D02*
X84297500Y-59150000D01*
X94417500Y-57650000D02*
X84297500Y-57650000D01*
X94417500Y-57090000D02*
X84297500Y-57090000D01*
X88084500Y-60727000D02*
X88131500Y-60681000D01*
X87891500Y-60511000D02*
X87926500Y-60476000D01*
X85787500Y-63025000D02*
X85822500Y-62989000D01*
X85582500Y-62819000D02*
X85629500Y-62773000D01*
X84297500Y-67011000D02*
X84297500Y-57090000D01*
X93392499Y-62433999D02*
G75*
G03*
X93392926Y-61066958I-1534992J684000D01*
G01*
X91173501Y-63284999D02*
G75*
G03*
X92540542Y-63285426I684000J1534992D01*
G01*
X92541500Y-60215001D02*
G75*
G03*
X91828695Y-60069748I-683999J-1535000D01*
G01*
X91857500Y-60070001D02*
G75*
G03*
X91174182Y-60215245I0J-1679999D01*
G01*
X90322500Y-61066000D02*
G75*
G03*
X90322074Y-62433042I1535000J-684000D01*
G01*
X88537500Y-61750000D02*
G75*
G03*
X88537500Y-61750000I-1680000J0D01*
G01*
%TO.C,C2*%
X139020354Y-81625000D02*
X140020354Y-81625000D01*
X139520354Y-81125000D02*
X139520354Y-82125000D01*
X144500000Y-79420000D02*
X144500000Y-89580000D01*
X144540000Y-79420000D02*
X144540000Y-89580000D01*
X144580000Y-79420000D02*
X144580000Y-89580000D01*
X144620000Y-79421000D02*
X144620000Y-89579000D01*
X144660000Y-79422000D02*
X144660000Y-89578000D01*
X144700000Y-79423000D02*
X144700000Y-89577000D01*
X144740000Y-79425000D02*
X144740000Y-89575000D01*
X144780000Y-79427000D02*
X144780000Y-89573000D01*
X144820000Y-79430000D02*
X144820000Y-89570000D01*
X144860000Y-79432000D02*
X144860000Y-89568000D01*
X144900000Y-79435000D02*
X144900000Y-89565000D01*
X144940000Y-79438000D02*
X144940000Y-89562000D01*
X144980000Y-79442000D02*
X144980000Y-89558000D01*
X145020000Y-79446000D02*
X145020000Y-89554000D01*
X145060000Y-79450000D02*
X145060000Y-89550000D01*
X145100000Y-79455000D02*
X145100000Y-89545000D01*
X145140000Y-79460000D02*
X145140000Y-89540000D01*
X145180000Y-79465000D02*
X145180000Y-89535000D01*
X145221000Y-79470000D02*
X145221000Y-89530000D01*
X145261000Y-79476000D02*
X145261000Y-89524000D01*
X145301000Y-79482000D02*
X145301000Y-89518000D01*
X145341000Y-79489000D02*
X145341000Y-89511000D01*
X145381000Y-79496000D02*
X145381000Y-89504000D01*
X145421000Y-79503000D02*
X145421000Y-89497000D01*
X145461000Y-79510000D02*
X145461000Y-89490000D01*
X145501000Y-79518000D02*
X145501000Y-89482000D01*
X145541000Y-79526000D02*
X145541000Y-89474000D01*
X145581000Y-79535000D02*
X145581000Y-89465000D01*
X145621000Y-79544000D02*
X145621000Y-89456000D01*
X145661000Y-79553000D02*
X145661000Y-89447000D01*
X145701000Y-79562000D02*
X145701000Y-89438000D01*
X145741000Y-79572000D02*
X145741000Y-89428000D01*
X145781000Y-79582000D02*
X145781000Y-83259000D01*
X145781000Y-85741000D02*
X145781000Y-89418000D01*
X145821000Y-79593000D02*
X145821000Y-83259000D01*
X145821000Y-85741000D02*
X145821000Y-89407000D01*
X145861000Y-79603000D02*
X145861000Y-83259000D01*
X145861000Y-85741000D02*
X145861000Y-89397000D01*
X145901000Y-79615000D02*
X145901000Y-83259000D01*
X145901000Y-85741000D02*
X145901000Y-89385000D01*
X145941000Y-79626000D02*
X145941000Y-83259000D01*
X145941000Y-85741000D02*
X145941000Y-89374000D01*
X145981000Y-79638000D02*
X145981000Y-83259000D01*
X145981000Y-85741000D02*
X145981000Y-89362000D01*
X146021000Y-79650000D02*
X146021000Y-83259000D01*
X146021000Y-85741000D02*
X146021000Y-89350000D01*
X146061000Y-79663000D02*
X146061000Y-83259000D01*
X146061000Y-85741000D02*
X146061000Y-89337000D01*
X146101000Y-79676000D02*
X146101000Y-83259000D01*
X146101000Y-85741000D02*
X146101000Y-89324000D01*
X146141000Y-79689000D02*
X146141000Y-83259000D01*
X146141000Y-85741000D02*
X146141000Y-89311000D01*
X146181000Y-79703000D02*
X146181000Y-83259000D01*
X146181000Y-85741000D02*
X146181000Y-89297000D01*
X146221000Y-79717000D02*
X146221000Y-83259000D01*
X146221000Y-85741000D02*
X146221000Y-89283000D01*
X146261000Y-79732000D02*
X146261000Y-83259000D01*
X146261000Y-85741000D02*
X146261000Y-89268000D01*
X146301000Y-79746000D02*
X146301000Y-83259000D01*
X146301000Y-85741000D02*
X146301000Y-89254000D01*
X146341000Y-79762000D02*
X146341000Y-83259000D01*
X146341000Y-85741000D02*
X146341000Y-89238000D01*
X146381000Y-79777000D02*
X146381000Y-83259000D01*
X146381000Y-85741000D02*
X146381000Y-89223000D01*
X146421000Y-79793000D02*
X146421000Y-83259000D01*
X146421000Y-85741000D02*
X146421000Y-89207000D01*
X146461000Y-79810000D02*
X146461000Y-83259000D01*
X146461000Y-85741000D02*
X146461000Y-89190000D01*
X146501000Y-79826000D02*
X146501000Y-83259000D01*
X146501000Y-85741000D02*
X146501000Y-89174000D01*
X146541000Y-79843000D02*
X146541000Y-83259000D01*
X146541000Y-85741000D02*
X146541000Y-89157000D01*
X146581000Y-79861000D02*
X146581000Y-83259000D01*
X146581000Y-85741000D02*
X146581000Y-89139000D01*
X146621000Y-79879000D02*
X146621000Y-83259000D01*
X146621000Y-85741000D02*
X146621000Y-89121000D01*
X146661000Y-79897000D02*
X146661000Y-83259000D01*
X146661000Y-85741000D02*
X146661000Y-89103000D01*
X146701000Y-79916000D02*
X146701000Y-83259000D01*
X146701000Y-85741000D02*
X146701000Y-89084000D01*
X146741000Y-79936000D02*
X146741000Y-83259000D01*
X146741000Y-85741000D02*
X146741000Y-89064000D01*
X146781000Y-79955000D02*
X146781000Y-83259000D01*
X146781000Y-85741000D02*
X146781000Y-89045000D01*
X146821000Y-79975000D02*
X146821000Y-83259000D01*
X146821000Y-85741000D02*
X146821000Y-89025000D01*
X146861000Y-79996000D02*
X146861000Y-83259000D01*
X146861000Y-85741000D02*
X146861000Y-89004000D01*
X146901000Y-80017000D02*
X146901000Y-83259000D01*
X146901000Y-85741000D02*
X146901000Y-88983000D01*
X146941000Y-80038000D02*
X146941000Y-83259000D01*
X146941000Y-85741000D02*
X146941000Y-88962000D01*
X146981000Y-80060000D02*
X146981000Y-83259000D01*
X146981000Y-85741000D02*
X146981000Y-88940000D01*
X147021000Y-80083000D02*
X147021000Y-83259000D01*
X147021000Y-85741000D02*
X147021000Y-88917000D01*
X147061000Y-80105000D02*
X147061000Y-83259000D01*
X147061000Y-85741000D02*
X147061000Y-88895000D01*
X147101000Y-80129000D02*
X147101000Y-83259000D01*
X147101000Y-85741000D02*
X147101000Y-88871000D01*
X147141000Y-80153000D02*
X147141000Y-83259000D01*
X147141000Y-85741000D02*
X147141000Y-88847000D01*
X147181000Y-80177000D02*
X147181000Y-83259000D01*
X147181000Y-85741000D02*
X147181000Y-88823000D01*
X147221000Y-80202000D02*
X147221000Y-83259000D01*
X147221000Y-85741000D02*
X147221000Y-88798000D01*
X147261000Y-80227000D02*
X147261000Y-83259000D01*
X147261000Y-85741000D02*
X147261000Y-88773000D01*
X147301000Y-80253000D02*
X147301000Y-83259000D01*
X147301000Y-85741000D02*
X147301000Y-88747000D01*
X147341000Y-80279000D02*
X147341000Y-83259000D01*
X147341000Y-85741000D02*
X147341000Y-88721000D01*
X147381000Y-80306000D02*
X147381000Y-83259000D01*
X147381000Y-85741000D02*
X147381000Y-88694000D01*
X147421000Y-80334000D02*
X147421000Y-83259000D01*
X147421000Y-85741000D02*
X147421000Y-88666000D01*
X147461000Y-80362000D02*
X147461000Y-83259000D01*
X147461000Y-85741000D02*
X147461000Y-88638000D01*
X147501000Y-80390000D02*
X147501000Y-83259000D01*
X147501000Y-85741000D02*
X147501000Y-88610000D01*
X147541000Y-80420000D02*
X147541000Y-83259000D01*
X147541000Y-85741000D02*
X147541000Y-88580000D01*
X147581000Y-80450000D02*
X147581000Y-83259000D01*
X147581000Y-85741000D02*
X147581000Y-88550000D01*
X147621000Y-80480000D02*
X147621000Y-83259000D01*
X147621000Y-85741000D02*
X147621000Y-88520000D01*
X147661000Y-80511000D02*
X147661000Y-83259000D01*
X147661000Y-85741000D02*
X147661000Y-88489000D01*
X147701000Y-80543000D02*
X147701000Y-83259000D01*
X147701000Y-85741000D02*
X147701000Y-88457000D01*
X147741000Y-80575000D02*
X147741000Y-83259000D01*
X147741000Y-85741000D02*
X147741000Y-88425000D01*
X147781000Y-80608000D02*
X147781000Y-83259000D01*
X147781000Y-85741000D02*
X147781000Y-88392000D01*
X147821000Y-80642000D02*
X147821000Y-83259000D01*
X147821000Y-85741000D02*
X147821000Y-88358000D01*
X147861000Y-80676000D02*
X147861000Y-83259000D01*
X147861000Y-85741000D02*
X147861000Y-88324000D01*
X147901000Y-80711000D02*
X147901000Y-83259000D01*
X147901000Y-85741000D02*
X147901000Y-88289000D01*
X147941000Y-80747000D02*
X147941000Y-83259000D01*
X147941000Y-85741000D02*
X147941000Y-88253000D01*
X147981000Y-80784000D02*
X147981000Y-83259000D01*
X147981000Y-85741000D02*
X147981000Y-88216000D01*
X148021000Y-80821000D02*
X148021000Y-83259000D01*
X148021000Y-85741000D02*
X148021000Y-88179000D01*
X148061000Y-80860000D02*
X148061000Y-83259000D01*
X148061000Y-85741000D02*
X148061000Y-88140000D01*
X148101000Y-80899000D02*
X148101000Y-83259000D01*
X148101000Y-85741000D02*
X148101000Y-88101000D01*
X148141000Y-80939000D02*
X148141000Y-83259000D01*
X148141000Y-85741000D02*
X148141000Y-88061000D01*
X148181000Y-80980000D02*
X148181000Y-83259000D01*
X148181000Y-85741000D02*
X148181000Y-88020000D01*
X148221000Y-81022000D02*
X148221000Y-83259000D01*
X148221000Y-85741000D02*
X148221000Y-87978000D01*
X148261000Y-81064000D02*
X148261000Y-87936000D01*
X148301000Y-81108000D02*
X148301000Y-87892000D01*
X148341000Y-81153000D02*
X148341000Y-87847000D01*
X148381000Y-81199000D02*
X148381000Y-87801000D01*
X148421000Y-81246000D02*
X148421000Y-87754000D01*
X148461000Y-81294000D02*
X148461000Y-87706000D01*
X148501000Y-81344000D02*
X148501000Y-87656000D01*
X148541000Y-81394000D02*
X148541000Y-87606000D01*
X148581000Y-81446000D02*
X148581000Y-87554000D01*
X148621000Y-81500000D02*
X148621000Y-87500000D01*
X148661000Y-81555000D02*
X148661000Y-87445000D01*
X148701000Y-81611000D02*
X148701000Y-87389000D01*
X148741000Y-81670000D02*
X148741000Y-87330000D01*
X148781000Y-81730000D02*
X148781000Y-87270000D01*
X148821000Y-81791000D02*
X148821000Y-87209000D01*
X148861000Y-81855000D02*
X148861000Y-87145000D01*
X148901000Y-81921000D02*
X148901000Y-87079000D01*
X148941000Y-81990000D02*
X148941000Y-87010000D01*
X148981000Y-82061000D02*
X148981000Y-86939000D01*
X149021000Y-82135000D02*
X149021000Y-86865000D01*
X149061000Y-82211000D02*
X149061000Y-86789000D01*
X149101000Y-82291000D02*
X149101000Y-86709000D01*
X149141000Y-82375000D02*
X149141000Y-86625000D01*
X149181000Y-82463000D02*
X149181000Y-86537000D01*
X149221000Y-82556000D02*
X149221000Y-86444000D01*
X149261000Y-82654000D02*
X149261000Y-86346000D01*
X149301000Y-82758000D02*
X149301000Y-86242000D01*
X149341000Y-82870000D02*
X149341000Y-86130000D01*
X149381000Y-82990000D02*
X149381000Y-86010000D01*
X149421000Y-83122000D02*
X149421000Y-85878000D01*
X149461000Y-83270000D02*
X149461000Y-85730000D01*
X149501000Y-83438000D02*
X149501000Y-85562000D01*
X149541000Y-83638000D02*
X149541000Y-85362000D01*
X149581000Y-83901000D02*
X149581000Y-85099000D01*
X149620000Y-84500000D02*
G75*
G03*
X149620000Y-84500000I-5120000J0D01*
G01*
%TO.C,FL1*%
X85250000Y-77150000D02*
X69250000Y-77150000D01*
D14*
X85250000Y-77150000D02*
X85250000Y-97350000D01*
X69250000Y-77150000D02*
X69250000Y-97350000D01*
D11*
X69250000Y-97350000D02*
X85250000Y-97350000D01*
%TO.C,R2*%
X169010000Y-68358000D02*
X169010000Y-74898000D01*
X168680000Y-68358000D02*
X169010000Y-68358000D01*
X166600000Y-68358000D02*
X166270000Y-68358000D01*
X166270000Y-68358000D02*
X166270000Y-74898000D01*
X169010000Y-74898000D02*
X168680000Y-74898000D01*
X166270000Y-74898000D02*
X166600000Y-74898000D01*
%TO.C,LED1*%
X158850000Y-61750000D02*
X158850000Y-60500000D01*
X158560000Y-61460000D02*
X158560000Y-55490000D01*
X158560000Y-55490000D02*
X150940000Y-55490000D01*
X158550000Y-61450000D02*
X158550000Y-60700000D01*
X158550000Y-60700000D02*
X156750000Y-60700000D01*
X158550000Y-59200000D02*
X157800000Y-59200000D01*
X157800000Y-59200000D02*
X157800000Y-56250000D01*
X157800000Y-56250000D02*
X154750000Y-56250000D01*
X157600000Y-61750000D02*
X158850000Y-61750000D01*
X156750000Y-61450000D02*
X158550000Y-61450000D01*
X156750000Y-60700000D02*
X156750000Y-61450000D01*
X155250000Y-61450000D02*
X155250000Y-60700000D01*
X155250000Y-60700000D02*
X154250000Y-60700000D01*
X154250000Y-61450000D02*
X155250000Y-61450000D01*
X154250000Y-60700000D02*
X154250000Y-61450000D01*
X152750000Y-61450000D02*
X152750000Y-60700000D01*
X152750000Y-60700000D02*
X150950000Y-60700000D01*
X151700000Y-59200000D02*
X151700000Y-56250000D01*
X151700000Y-56250000D02*
X154750000Y-56250000D01*
X150950000Y-61450000D02*
X152750000Y-61450000D01*
X150950000Y-60700000D02*
X150950000Y-61450000D01*
X150950000Y-59200000D02*
X151700000Y-59200000D01*
X150940000Y-61460000D02*
X158560000Y-61460000D01*
X150940000Y-55490000D02*
X150940000Y-61460000D01*
%TO.C,C1*%
X98120000Y-77880000D02*
X89880000Y-77880000D01*
X98120000Y-77880000D02*
X98120000Y-96120000D01*
X89880000Y-77880000D02*
X89880000Y-96120000D01*
X98120000Y-96120000D02*
X89880000Y-96120000D01*
%TO.C,G\u002A\u002A\u002A*%
G36*
X121339396Y-74932216D02*
G01*
X121448138Y-74966879D01*
X121457099Y-74971412D01*
X121489589Y-74992708D01*
X121544995Y-75033636D01*
X121618958Y-75090629D01*
X121707121Y-75160117D01*
X121805124Y-75238533D01*
X121908611Y-75322307D01*
X122013221Y-75407871D01*
X122114598Y-75491657D01*
X122208383Y-75570097D01*
X122290216Y-75639621D01*
X122355742Y-75696662D01*
X122400600Y-75737651D01*
X122420432Y-75759019D01*
X122421012Y-75760638D01*
X122406649Y-75775883D01*
X122366375Y-75812267D01*
X122304080Y-75866444D01*
X122223656Y-75935064D01*
X122128993Y-76014779D01*
X122027768Y-76099102D01*
X121922566Y-76185868D01*
X121827015Y-76263858D01*
X121745132Y-76329858D01*
X121680937Y-76380652D01*
X121638449Y-76413027D01*
X121621799Y-76423793D01*
X121601862Y-76411430D01*
X121557536Y-76377867D01*
X121493619Y-76327119D01*
X121414912Y-76263202D01*
X121326216Y-76190129D01*
X121232331Y-76111916D01*
X121138057Y-76032577D01*
X121048195Y-75956126D01*
X120967544Y-75886579D01*
X120900906Y-75827949D01*
X120853080Y-75784252D01*
X120832217Y-75763444D01*
X120775956Y-75680549D01*
X120732283Y-75577197D01*
X120707865Y-75471049D01*
X120704935Y-75426348D01*
X120723442Y-75296220D01*
X120775877Y-75174698D01*
X120857611Y-75069285D01*
X120964015Y-74987482D01*
X120981716Y-74977764D01*
X121092594Y-74937840D01*
X121216351Y-74922597D01*
X121339396Y-74932216D01*
G37*
G36*
X124121518Y-74917278D02*
G01*
X124242685Y-74963131D01*
X124349504Y-75034695D01*
X124434314Y-75129656D01*
X124459338Y-75171704D01*
X124479432Y-75232801D01*
X124492688Y-75317305D01*
X124498389Y-75410931D01*
X124495816Y-75499391D01*
X124484250Y-75568398D01*
X124479907Y-75580846D01*
X124456790Y-75631572D01*
X124428762Y-75679251D01*
X124391883Y-75728009D01*
X124342210Y-75781970D01*
X124275805Y-75845258D01*
X124188726Y-75921998D01*
X124077034Y-76016316D01*
X124013502Y-76069059D01*
X123909808Y-76154775D01*
X123813929Y-76233918D01*
X123730536Y-76302639D01*
X123664301Y-76357092D01*
X123619896Y-76393430D01*
X123604471Y-76405894D01*
X123590887Y-76415675D01*
X123576754Y-76420354D01*
X123558406Y-76417487D01*
X123532175Y-76404627D01*
X123494396Y-76379328D01*
X123441401Y-76339143D01*
X123369523Y-76281627D01*
X123275096Y-76204333D01*
X123159914Y-76109325D01*
X123053778Y-76021682D01*
X122957714Y-75942336D01*
X122875640Y-75874527D01*
X122811472Y-75821489D01*
X122769129Y-75786462D01*
X122752527Y-75772681D01*
X122752480Y-75772641D01*
X122764106Y-75758801D01*
X122801715Y-75724370D01*
X122861112Y-75672781D01*
X122938103Y-75607470D01*
X123028494Y-75531869D01*
X123128091Y-75449413D01*
X123232700Y-75363536D01*
X123338126Y-75277672D01*
X123440176Y-75195255D01*
X123534654Y-75119718D01*
X123617368Y-75054497D01*
X123684123Y-75003024D01*
X123730724Y-74968735D01*
X123748537Y-74957109D01*
X123866784Y-74911954D01*
X123993665Y-74899448D01*
X124121518Y-74917278D01*
G37*
G36*
X124960542Y-103290302D02*
G01*
X125016311Y-103303497D01*
X125091269Y-103325382D01*
X125177025Y-103353334D01*
X125265189Y-103384733D01*
X125347372Y-103416957D01*
X125358084Y-103421453D01*
X125483852Y-103482906D01*
X125621272Y-103563631D01*
X125755840Y-103654552D01*
X125860474Y-103735863D01*
X125992768Y-103866555D01*
X126118762Y-104027902D01*
X126233656Y-104212015D01*
X126332650Y-104411008D01*
X126410943Y-104616992D01*
X126425455Y-104664313D01*
X126459609Y-104819268D01*
X126480396Y-104996633D01*
X126487361Y-105182472D01*
X126480045Y-105362847D01*
X126457994Y-105523820D01*
X126454189Y-105541838D01*
X126431565Y-105633770D01*
X126404964Y-105726578D01*
X126379581Y-105802343D01*
X126375917Y-105811845D01*
X126336581Y-105903169D01*
X126289575Y-105999918D01*
X126238260Y-106096531D01*
X126185997Y-106187449D01*
X126136150Y-106267111D01*
X126092079Y-106329957D01*
X126057146Y-106370427D01*
X126034713Y-106382961D01*
X126031634Y-106381267D01*
X126022025Y-106360288D01*
X126000951Y-106306487D01*
X125969554Y-106223080D01*
X125928979Y-106113285D01*
X125880369Y-105980320D01*
X125824868Y-105827404D01*
X125763619Y-105657752D01*
X125697767Y-105474584D01*
X125628455Y-105281116D01*
X125556826Y-105080567D01*
X125484024Y-104876154D01*
X125411192Y-104671095D01*
X125339476Y-104468608D01*
X125270017Y-104271909D01*
X125203960Y-104084218D01*
X125142449Y-103908751D01*
X125086626Y-103748726D01*
X125037636Y-103607361D01*
X124996623Y-103487874D01*
X124964729Y-103393482D01*
X124943099Y-103327403D01*
X124932877Y-103292854D01*
X124932350Y-103288418D01*
X124960542Y-103290302D01*
G37*
G36*
X122652163Y-75961762D02*
G01*
X122675416Y-75977504D01*
X122724946Y-76015196D01*
X122797399Y-76072093D01*
X122889422Y-76145448D01*
X122997663Y-76232513D01*
X123118770Y-76330542D01*
X123249390Y-76436788D01*
X123386169Y-76548504D01*
X123525756Y-76662945D01*
X123664797Y-76777362D01*
X123799941Y-76889008D01*
X123927834Y-76995139D01*
X124045123Y-77093005D01*
X124148457Y-77179861D01*
X124234482Y-77252960D01*
X124299846Y-77309556D01*
X124328852Y-77335450D01*
X124419376Y-77442255D01*
X124478616Y-77565372D01*
X124505118Y-77697864D01*
X124497432Y-77832797D01*
X124458412Y-77954214D01*
X124388991Y-78060161D01*
X124294115Y-78143106D01*
X124180859Y-78200783D01*
X124056294Y-78230922D01*
X123927493Y-78231258D01*
X123801528Y-78199521D01*
X123756946Y-78179138D01*
X123718385Y-78154498D01*
X123654510Y-78108266D01*
X123569508Y-78043702D01*
X123467563Y-77964069D01*
X123352859Y-77872629D01*
X123229581Y-77772643D01*
X123125194Y-77686701D01*
X122594734Y-77246977D01*
X122069311Y-77683985D01*
X121915780Y-77810509D01*
X121778350Y-77921401D01*
X121659560Y-78014704D01*
X121561947Y-78088460D01*
X121488049Y-78140712D01*
X121440405Y-78169502D01*
X121438702Y-78170317D01*
X121314136Y-78212829D01*
X121192425Y-78220056D01*
X121067194Y-78191766D01*
X120979562Y-78153547D01*
X120904316Y-78111652D01*
X120852568Y-78071336D01*
X120811478Y-78021248D01*
X120788107Y-77984318D01*
X120732715Y-77858575D01*
X120709952Y-77726143D01*
X120720633Y-77601475D01*
X120730618Y-77561310D01*
X120742851Y-77524003D01*
X120759649Y-77487259D01*
X120783326Y-77448780D01*
X120816202Y-77406272D01*
X120860590Y-77357436D01*
X120918809Y-77299979D01*
X120993175Y-77231602D01*
X121086003Y-77150011D01*
X121199611Y-77052909D01*
X121336316Y-76937999D01*
X121498432Y-76802987D01*
X121668284Y-76662137D01*
X121823736Y-76533748D01*
X121971452Y-76412502D01*
X122108566Y-76300700D01*
X122232212Y-76200645D01*
X122339524Y-76114639D01*
X122427634Y-76044982D01*
X122493678Y-75993977D01*
X122534788Y-75963925D01*
X122546629Y-75956775D01*
X122609910Y-75949222D01*
X122652163Y-75961762D01*
G37*
G36*
X121582326Y-99622230D02*
G01*
X121618934Y-99665926D01*
X121671837Y-99732813D01*
X121737896Y-99818850D01*
X121813970Y-99919992D01*
X121896920Y-100032199D01*
X121906484Y-100045255D01*
X122224074Y-100479195D01*
X122129243Y-100493593D01*
X121999554Y-100529783D01*
X121895554Y-100594351D01*
X121818207Y-100686072D01*
X121768478Y-100803716D01*
X121747330Y-100946059D01*
X121746608Y-100980638D01*
X121762752Y-101124862D01*
X121811248Y-101248093D01*
X121892194Y-101350493D01*
X122005686Y-101432220D01*
X122026974Y-101443440D01*
X122141762Y-101501367D01*
X123323045Y-101506891D01*
X124504328Y-101512414D01*
X124502215Y-101574392D01*
X124496768Y-101636053D01*
X124486225Y-101705230D01*
X124484617Y-101713516D01*
X124431684Y-101885250D01*
X124346020Y-102049933D01*
X124233202Y-102200546D01*
X124098809Y-102330072D01*
X123948416Y-102431495D01*
X123891540Y-102459727D01*
X123844886Y-102479660D01*
X123798364Y-102496508D01*
X123748390Y-102510529D01*
X123691377Y-102521978D01*
X123623739Y-102531113D01*
X123541891Y-102538190D01*
X123442247Y-102543464D01*
X123321222Y-102547194D01*
X123175229Y-102549635D01*
X123000684Y-102551044D01*
X122793999Y-102551677D01*
X122604632Y-102551798D01*
X122370166Y-102551628D01*
X122170649Y-102550918D01*
X122002460Y-102549368D01*
X121861977Y-102546677D01*
X121745577Y-102542546D01*
X121649639Y-102536675D01*
X121570540Y-102528763D01*
X121504659Y-102518510D01*
X121448372Y-102505616D01*
X121398059Y-102489782D01*
X121350097Y-102470707D01*
X121300864Y-102448091D01*
X121290073Y-102442887D01*
X121194888Y-102385242D01*
X121092598Y-102304393D01*
X120993547Y-102210215D01*
X120908079Y-102112582D01*
X120846537Y-102021368D01*
X120844446Y-102017478D01*
X120773178Y-101850540D01*
X120728056Y-101673255D01*
X120718542Y-101602620D01*
X120714650Y-101547451D01*
X120719835Y-101520501D01*
X120738292Y-101511728D01*
X120756820Y-101511010D01*
X120790298Y-101505705D01*
X120794263Y-101482462D01*
X120790098Y-101467616D01*
X120730861Y-101223605D01*
X120709849Y-100982611D01*
X120727011Y-100745534D01*
X120782296Y-100513278D01*
X120855269Y-100328698D01*
X120926362Y-100187753D01*
X120997144Y-100072520D01*
X121075689Y-99971062D01*
X121153230Y-99888090D01*
X121210399Y-99835956D01*
X121280480Y-99779442D01*
X121356139Y-99723575D01*
X121430044Y-99673379D01*
X121494862Y-99633881D01*
X121543259Y-99610107D01*
X121565153Y-99605768D01*
X121582326Y-99622230D01*
G37*
G36*
X122984295Y-95678859D02*
G01*
X123236762Y-95746217D01*
X123474515Y-95849197D01*
X123697827Y-95987908D01*
X123906975Y-96162454D01*
X124000862Y-96257332D01*
X124168098Y-96460759D01*
X124301278Y-96677978D01*
X124403613Y-96914757D01*
X124450703Y-97065528D01*
X124474411Y-97183257D01*
X124490234Y-97326643D01*
X124497930Y-97483538D01*
X124497258Y-97641790D01*
X124487978Y-97789251D01*
X124469849Y-97913771D01*
X124467702Y-97923766D01*
X124396932Y-98174113D01*
X124300022Y-98399881D01*
X124173544Y-98607671D01*
X124014068Y-98804083D01*
X124005519Y-98813343D01*
X123802225Y-99007107D01*
X123585601Y-99164677D01*
X123355524Y-99286103D01*
X123111871Y-99371430D01*
X122854521Y-99420708D01*
X122632583Y-99431573D01*
X122583349Y-99433983D01*
X122431248Y-99426209D01*
X122168251Y-99385644D01*
X121919637Y-99309355D01*
X121684463Y-99196981D01*
X121480127Y-99062142D01*
X121273166Y-98883274D01*
X121094991Y-98681288D01*
X120947698Y-98459308D01*
X120833388Y-98220458D01*
X120759253Y-97988896D01*
X120731509Y-97835493D01*
X120716629Y-97659413D01*
X120716125Y-97613154D01*
X121746338Y-97613154D01*
X121776589Y-97777065D01*
X121835929Y-97928890D01*
X121921319Y-98065406D01*
X122029717Y-98183392D01*
X122158082Y-98279627D01*
X122303376Y-98350889D01*
X122462556Y-98393956D01*
X122632583Y-98405607D01*
X122810416Y-98382620D01*
X122836836Y-98376177D01*
X122997061Y-98315499D01*
X123140509Y-98223207D01*
X123263523Y-98103958D01*
X123362444Y-97962413D01*
X123433616Y-97803230D01*
X123473379Y-97631067D01*
X123479776Y-97557327D01*
X123477865Y-97511819D01*
X123470661Y-97445536D01*
X123463339Y-97395573D01*
X123416838Y-97223431D01*
X123339145Y-97069634D01*
X123234346Y-96936934D01*
X123106529Y-96828079D01*
X122959780Y-96745820D01*
X122798187Y-96692908D01*
X122625836Y-96672092D01*
X122446814Y-96686122D01*
X122417540Y-96691845D01*
X122259331Y-96743924D01*
X122112520Y-96827798D01*
X121983221Y-96937954D01*
X121877547Y-97068878D01*
X121801611Y-97215059D01*
X121785266Y-97261959D01*
X121748217Y-97440378D01*
X121746338Y-97613154D01*
X120716125Y-97613154D01*
X120714613Y-97474345D01*
X120725462Y-97293976D01*
X120749175Y-97131994D01*
X120759253Y-97087187D01*
X120839614Y-96839920D01*
X120952211Y-96608364D01*
X121093874Y-96395236D01*
X121261433Y-96203258D01*
X121451718Y-96035146D01*
X121661558Y-95893622D01*
X121887783Y-95781404D01*
X122127224Y-95701211D01*
X122376710Y-95655762D01*
X122434113Y-95650587D01*
X122716837Y-95647018D01*
X122984295Y-95678859D01*
G37*
G36*
X122187436Y-91389764D02*
G01*
X123665376Y-91395368D01*
X123788549Y-91439855D01*
X123972282Y-91525214D01*
X124133534Y-91638753D01*
X124269378Y-91776864D01*
X124376883Y-91935938D01*
X124453122Y-92112368D01*
X124495166Y-92302545D01*
X124496258Y-92311817D01*
X124509310Y-92427183D01*
X124427611Y-92427183D01*
X124375424Y-92430407D01*
X124355217Y-92441612D01*
X124356143Y-92453847D01*
X124432902Y-92706002D01*
X124475177Y-92968241D01*
X124483238Y-93234821D01*
X124457356Y-93500001D01*
X124397801Y-93758039D01*
X124304844Y-94003191D01*
X124280803Y-94053101D01*
X124145190Y-94286556D01*
X123985959Y-94491042D01*
X123800525Y-94669119D01*
X123586300Y-94823349D01*
X123395362Y-94929834D01*
X123285856Y-94982058D01*
X123183716Y-95024595D01*
X123083010Y-95058524D01*
X122977805Y-95084924D01*
X122862168Y-95104875D01*
X122730166Y-95119458D01*
X122575865Y-95129750D01*
X122393332Y-95136833D01*
X122236811Y-95140638D01*
X122039154Y-95143680D01*
X121877274Y-95144023D01*
X121748466Y-95141615D01*
X121650025Y-95136405D01*
X121579245Y-95128339D01*
X121577246Y-95128006D01*
X121393901Y-95078203D01*
X121224631Y-94995329D01*
X121073220Y-94883487D01*
X120943453Y-94746781D01*
X120839114Y-94589312D01*
X120763988Y-94415185D01*
X120721857Y-94228502D01*
X120718332Y-94196697D01*
X120709674Y-94105088D01*
X121647509Y-94104753D01*
X121882291Y-94104489D01*
X122082151Y-94103667D01*
X122250739Y-94101967D01*
X122391705Y-94099071D01*
X122508698Y-94094660D01*
X122605369Y-94088415D01*
X122685367Y-94080018D01*
X122752342Y-94069149D01*
X122809945Y-94055489D01*
X122861824Y-94038720D01*
X122911631Y-94018524D01*
X122963014Y-93994580D01*
X122974825Y-93988811D01*
X123100907Y-93910882D01*
X123216274Y-93809721D01*
X123307548Y-93697214D01*
X123313407Y-93688081D01*
X123394931Y-93522901D01*
X123441382Y-93344998D01*
X123452349Y-93158568D01*
X123427422Y-92967808D01*
X123395071Y-92853036D01*
X123337073Y-92711026D01*
X123269668Y-92602189D01*
X123189348Y-92521578D01*
X123134103Y-92485042D01*
X123048216Y-92436826D01*
X122296052Y-92425516D01*
X122075850Y-92421721D01*
X121892342Y-92417476D01*
X121743652Y-92412700D01*
X121627902Y-92407311D01*
X121543217Y-92401228D01*
X121487720Y-92394370D01*
X121466743Y-92389564D01*
X121283374Y-92311899D01*
X121119731Y-92204341D01*
X120979145Y-92070953D01*
X120864948Y-91915798D01*
X120780470Y-91742939D01*
X120729042Y-91556439D01*
X120718244Y-91476552D01*
X120709497Y-91384159D01*
X122187436Y-91389764D01*
G37*
G36*
X122290154Y-103284600D02*
G01*
X122450704Y-103286997D01*
X122600148Y-103291006D01*
X122732282Y-103296627D01*
X122840899Y-103303854D01*
X122919794Y-103312686D01*
X122928552Y-103314126D01*
X123180354Y-103377327D01*
X123421996Y-103476194D01*
X123649639Y-103608339D01*
X123859444Y-103771378D01*
X124047570Y-103962924D01*
X124123093Y-104056415D01*
X124188753Y-104153502D01*
X124257663Y-104273295D01*
X124323764Y-104403572D01*
X124380994Y-104532111D01*
X124423296Y-104646692D01*
X124434081Y-104683599D01*
X124470405Y-104859305D01*
X124492159Y-105048234D01*
X124497832Y-105232924D01*
X124491562Y-105348975D01*
X124446870Y-105615012D01*
X124367430Y-105867692D01*
X124255559Y-106104347D01*
X124113572Y-106322307D01*
X123943785Y-106518905D01*
X123748512Y-106691471D01*
X123530070Y-106837337D01*
X123290773Y-106953835D01*
X123032938Y-107038296D01*
X123023863Y-107040575D01*
X122945685Y-107055748D01*
X122850544Y-107065746D01*
X122731072Y-107071116D01*
X122594989Y-107072442D01*
X122471359Y-107071434D01*
X122375845Y-107068113D01*
X122298011Y-107061401D01*
X122227417Y-107050221D01*
X122153629Y-107033493D01*
X122111485Y-107022500D01*
X121866242Y-106938555D01*
X121638451Y-106822261D01*
X121424969Y-106671763D01*
X121253699Y-106516854D01*
X121074270Y-106313836D01*
X120931320Y-106099727D01*
X120823994Y-105872448D01*
X120751436Y-105629920D01*
X120712790Y-105370062D01*
X120706071Y-105200884D01*
X121729500Y-105200884D01*
X121750747Y-105374978D01*
X121808353Y-105545657D01*
X121838038Y-105605200D01*
X121915675Y-105718122D01*
X122019378Y-105826591D01*
X122137244Y-105919378D01*
X122225854Y-105970986D01*
X122281175Y-105997170D01*
X122326961Y-106014814D01*
X122373123Y-106025600D01*
X122429577Y-106031210D01*
X122506236Y-106033327D01*
X122594989Y-106033637D01*
X122697013Y-106033136D01*
X122770509Y-106030518D01*
X122825514Y-106024112D01*
X122872071Y-106012246D01*
X122920218Y-105993248D01*
X122966709Y-105971755D01*
X123092823Y-105895660D01*
X123212814Y-105793568D01*
X123313729Y-105677339D01*
X123352468Y-105618515D01*
X123414565Y-105478446D01*
X123451311Y-105319924D01*
X123461461Y-105154607D01*
X123443771Y-104994154D01*
X123426331Y-104926432D01*
X123357394Y-104764281D01*
X123261575Y-104625381D01*
X123143469Y-104510895D01*
X123007668Y-104421985D01*
X122858768Y-104359814D01*
X122701362Y-104325544D01*
X122540044Y-104320338D01*
X122379409Y-104345359D01*
X122224050Y-104401769D01*
X122078562Y-104490731D01*
X121994082Y-104563973D01*
X121876904Y-104704920D01*
X121793280Y-104861174D01*
X121743912Y-105028056D01*
X121729500Y-105200884D01*
X120706071Y-105200884D01*
X120705442Y-105185042D01*
X120709684Y-105021994D01*
X120723988Y-104875927D01*
X120750725Y-104735988D01*
X120792265Y-104591322D01*
X120850976Y-104431075D01*
X120891757Y-104331625D01*
X120887098Y-104319584D01*
X120857572Y-104312053D01*
X120798250Y-104308297D01*
X120729733Y-104307517D01*
X120557541Y-104307517D01*
X120572150Y-104186166D01*
X120609326Y-104007851D01*
X120677328Y-103845742D01*
X120778795Y-103694877D01*
X120904211Y-103561519D01*
X121056470Y-103442605D01*
X121222227Y-103358746D01*
X121376605Y-103313295D01*
X121441142Y-103304301D01*
X121538012Y-103296944D01*
X121661008Y-103291221D01*
X121803926Y-103287129D01*
X121960560Y-103284663D01*
X122124704Y-103283822D01*
X122290154Y-103284600D01*
G37*
G36*
X119990273Y-78679297D02*
G01*
X120117231Y-78701134D01*
X120221425Y-78752639D01*
X120307686Y-78836534D01*
X120333510Y-78872499D01*
X120386712Y-78952869D01*
X120392200Y-79942722D01*
X120397688Y-80932574D01*
X120994896Y-80932574D01*
X121592103Y-80932574D01*
X121592527Y-80281663D01*
X121592853Y-80091604D01*
X121594016Y-79935964D01*
X121596701Y-79810591D01*
X121601591Y-79711333D01*
X121609372Y-79634037D01*
X121620727Y-79574550D01*
X121636341Y-79528721D01*
X121656899Y-79492395D01*
X121683085Y-79461422D01*
X121715583Y-79431648D01*
X121735344Y-79415145D01*
X121844890Y-79347411D01*
X121961748Y-79314597D01*
X122079834Y-79315451D01*
X122193061Y-79348721D01*
X122295345Y-79413157D01*
X122380601Y-79507507D01*
X122408714Y-79553607D01*
X122419984Y-79575978D01*
X122429073Y-79599801D01*
X122436261Y-79629383D01*
X122441830Y-79669035D01*
X122446063Y-79723066D01*
X122449241Y-79795784D01*
X122451646Y-79891500D01*
X122453560Y-80014523D01*
X122455265Y-80169161D01*
X122456329Y-80281663D01*
X122462317Y-80932574D01*
X123048710Y-80932574D01*
X123635102Y-80932574D01*
X123640596Y-79953797D01*
X123646090Y-78975019D01*
X123700193Y-78882978D01*
X123747817Y-78818137D01*
X123806658Y-78759031D01*
X123833788Y-78738331D01*
X123878813Y-78711504D01*
X123921835Y-78695663D01*
X123975500Y-78688016D01*
X124052458Y-78685772D01*
X124072139Y-78685725D01*
X124153992Y-78687005D01*
X124209980Y-78692863D01*
X124252780Y-78706331D01*
X124295070Y-78730441D01*
X124314626Y-78743703D01*
X124400233Y-78825573D01*
X124451291Y-78906273D01*
X124504328Y-79010865D01*
X124502688Y-80053686D01*
X124502012Y-80306309D01*
X124500805Y-80522601D01*
X124499016Y-80704802D01*
X124496595Y-80855148D01*
X124493492Y-80975881D01*
X124489655Y-81069237D01*
X124485035Y-81137457D01*
X124479581Y-81182777D01*
X124476945Y-81195873D01*
X124423608Y-81353517D01*
X124341414Y-81498503D01*
X124225939Y-81638370D01*
X124204384Y-81660471D01*
X124055945Y-81786841D01*
X123894615Y-81882327D01*
X123726407Y-81943575D01*
X123677208Y-81954453D01*
X123637727Y-81958195D01*
X123563452Y-81961550D01*
X123457979Y-81964520D01*
X123324906Y-81967107D01*
X123167831Y-81969312D01*
X122990350Y-81971138D01*
X122796061Y-81972586D01*
X122588563Y-81973659D01*
X122371451Y-81974358D01*
X122148324Y-81974684D01*
X121922779Y-81974641D01*
X121698413Y-81974229D01*
X121478824Y-81973450D01*
X121267610Y-81972307D01*
X121068367Y-81970801D01*
X120884693Y-81968934D01*
X120720185Y-81966708D01*
X120578442Y-81964125D01*
X120463060Y-81961187D01*
X120377637Y-81957895D01*
X120325770Y-81954251D01*
X120315338Y-81952719D01*
X120140151Y-81897083D01*
X119979794Y-81808460D01*
X119838161Y-81690852D01*
X119719145Y-81548263D01*
X119626638Y-81384694D01*
X119564533Y-81204149D01*
X119557614Y-81173652D01*
X119550940Y-81135170D01*
X119545334Y-81086143D01*
X119540710Y-81023284D01*
X119536985Y-80943301D01*
X119534074Y-80842905D01*
X119531895Y-80718808D01*
X119530363Y-80567719D01*
X119529393Y-80386348D01*
X119528902Y-80171407D01*
X119528809Y-80045279D01*
X119529104Y-79826702D01*
X119530109Y-79626828D01*
X119531773Y-79448578D01*
X119534045Y-79294876D01*
X119536873Y-79168642D01*
X119540207Y-79072801D01*
X119543995Y-79010273D01*
X119547315Y-78986214D01*
X119597853Y-78876864D01*
X119679115Y-78783154D01*
X119762329Y-78724842D01*
X119822311Y-78695430D01*
X119874512Y-78680692D01*
X119936234Y-78677172D01*
X119990273Y-78679297D01*
G37*
G36*
X121594125Y-82672655D02*
G01*
X123665376Y-82677980D01*
X123790736Y-82720893D01*
X123966764Y-82800770D01*
X124124204Y-82911276D01*
X124259283Y-83047738D01*
X124368230Y-83205487D01*
X124447273Y-83379852D01*
X124492639Y-83566163D01*
X124496258Y-83594429D01*
X124509310Y-83709795D01*
X124352529Y-83709795D01*
X124280240Y-83711098D01*
X124225576Y-83714562D01*
X124197591Y-83719526D01*
X124195748Y-83721283D01*
X124205894Y-83743190D01*
X124230776Y-83781885D01*
X124235348Y-83788383D01*
X124281734Y-83866051D01*
X124331893Y-83971378D01*
X124381533Y-84094307D01*
X124426361Y-84224776D01*
X124438151Y-84263618D01*
X124474258Y-84427966D01*
X124494388Y-84611854D01*
X124497770Y-84799369D01*
X124483632Y-84974603D01*
X124475111Y-85026394D01*
X124409208Y-85272553D01*
X124308781Y-85505638D01*
X124176646Y-85722253D01*
X124015617Y-85919001D01*
X123828510Y-86092484D01*
X123618140Y-86239305D01*
X123387323Y-86356067D01*
X123365897Y-86364883D01*
X123115056Y-86446093D01*
X122859011Y-86490976D01*
X122601387Y-86500757D01*
X122601193Y-86500739D01*
X122345808Y-86476656D01*
X122095898Y-86419898D01*
X121855282Y-86331704D01*
X121627582Y-86213298D01*
X121416424Y-86065902D01*
X121225432Y-85890740D01*
X121058229Y-85689032D01*
X120971631Y-85557109D01*
X120864252Y-85351989D01*
X120789167Y-85146563D01*
X120744327Y-84932549D01*
X120727683Y-84701666D01*
X120728401Y-84645584D01*
X121756036Y-84645584D01*
X121757034Y-84737751D01*
X121761646Y-84803906D01*
X121772301Y-84856589D01*
X121791427Y-84908343D01*
X121817709Y-84964127D01*
X121915522Y-85120318D01*
X122041561Y-85251599D01*
X122192361Y-85355049D01*
X122364455Y-85427744D01*
X122369282Y-85429227D01*
X122444797Y-85449190D01*
X122517349Y-85460223D01*
X122601193Y-85463736D01*
X122697148Y-85461670D01*
X122794998Y-85456473D01*
X122867459Y-85447805D01*
X122927706Y-85432941D01*
X122988916Y-85409156D01*
X123020200Y-85394857D01*
X123159994Y-85316510D01*
X123269137Y-85224460D01*
X123355076Y-85111043D01*
X123418568Y-84984762D01*
X123440770Y-84926292D01*
X123453689Y-84872345D01*
X123459056Y-84809968D01*
X123458603Y-84726208D01*
X123457535Y-84693394D01*
X123452054Y-84596007D01*
X123442012Y-84523452D01*
X123424607Y-84462028D01*
X123397232Y-84398433D01*
X123305905Y-84249039D01*
X123190184Y-84124104D01*
X123054970Y-84024551D01*
X122905163Y-83951307D01*
X122745665Y-83905294D01*
X122581377Y-83887439D01*
X122417201Y-83898666D01*
X122258038Y-83939900D01*
X122108789Y-84012065D01*
X121974356Y-84116087D01*
X121962458Y-84127735D01*
X121901277Y-84197640D01*
X121844190Y-84277543D01*
X121808168Y-84341068D01*
X121783322Y-84398813D01*
X121767817Y-84451304D01*
X121759537Y-84510891D01*
X121756367Y-84589926D01*
X121756036Y-84645584D01*
X120728401Y-84645584D01*
X120729265Y-84578052D01*
X120747072Y-84358338D01*
X120784451Y-84163853D01*
X120843624Y-83985376D01*
X120902657Y-83858365D01*
X120934653Y-83796735D01*
X120959318Y-83748760D01*
X120971464Y-83724536D01*
X120971590Y-83724260D01*
X120956211Y-83718645D01*
X120909483Y-83714021D01*
X120838625Y-83710864D01*
X120750858Y-83709650D01*
X120749937Y-83709649D01*
X120588990Y-83706601D01*
X120457063Y-83696574D01*
X120344968Y-83677906D01*
X120243521Y-83648934D01*
X120143535Y-83607996D01*
X120116097Y-83594920D01*
X119948147Y-83492776D01*
X119804048Y-83364040D01*
X119686986Y-83213166D01*
X119600151Y-83044609D01*
X119546731Y-82862824D01*
X119534968Y-82783040D01*
X119522874Y-82667330D01*
X121594125Y-82672655D01*
G37*
G36*
X124504043Y-87041496D02*
G01*
X124495290Y-87122655D01*
X124472428Y-87223510D01*
X124439477Y-87329713D01*
X124400459Y-87426913D01*
X124389921Y-87448734D01*
X124296848Y-87594776D01*
X124174044Y-87729374D01*
X124030166Y-87844871D01*
X123873870Y-87933612D01*
X123813471Y-87958560D01*
X123777904Y-87970544D01*
X123739757Y-87980195D01*
X123694011Y-87987917D01*
X123635650Y-87994117D01*
X123559655Y-87999197D01*
X123461009Y-88003564D01*
X123334695Y-88007622D01*
X123175694Y-88011777D01*
X123144647Y-88012532D01*
X122956189Y-88017669D01*
X122801137Y-88023611D01*
X122674324Y-88031133D01*
X122570583Y-88041008D01*
X122484747Y-88054008D01*
X122411650Y-88070909D01*
X122346123Y-88092482D01*
X122283002Y-88119502D01*
X122220701Y-88150844D01*
X122072356Y-88249660D01*
X121950637Y-88375764D01*
X121854051Y-88530732D01*
X121846666Y-88545885D01*
X121816453Y-88610618D01*
X121796264Y-88661647D01*
X121784087Y-88709742D01*
X121777909Y-88765672D01*
X121775717Y-88840205D01*
X121775485Y-88926728D01*
X121776293Y-89028538D01*
X121779792Y-89103310D01*
X121787846Y-89162572D01*
X121802318Y-89217848D01*
X121825071Y-89280665D01*
X121837929Y-89313027D01*
X121912025Y-89458102D01*
X122003909Y-89569304D01*
X122113330Y-89646354D01*
X122151405Y-89663512D01*
X122172270Y-89670797D01*
X122197380Y-89677024D01*
X122229851Y-89682293D01*
X122272800Y-89686710D01*
X122329343Y-89690374D01*
X122402598Y-89693390D01*
X122495681Y-89695859D01*
X122611708Y-89697884D01*
X122753797Y-89699568D01*
X122925064Y-89701012D01*
X123128626Y-89702320D01*
X123367600Y-89703593D01*
X123371260Y-89703612D01*
X124504328Y-89709278D01*
X124502721Y-89771230D01*
X124497181Y-89825015D01*
X124484674Y-89896716D01*
X124474111Y-89944639D01*
X124427866Y-90090962D01*
X124361559Y-90220808D01*
X124268846Y-90345103D01*
X124196230Y-90423253D01*
X124097047Y-90516099D01*
X124006322Y-90584002D01*
X123919009Y-90632477D01*
X123866433Y-90656419D01*
X123815107Y-90676790D01*
X123761492Y-90693889D01*
X123702050Y-90708015D01*
X123633243Y-90719466D01*
X123551532Y-90728541D01*
X123453380Y-90735540D01*
X123335248Y-90740760D01*
X123193597Y-90744502D01*
X123024890Y-90747063D01*
X122825588Y-90748743D01*
X122592153Y-90749840D01*
X122526856Y-90750062D01*
X122308540Y-90750709D01*
X122125215Y-90751040D01*
X121973300Y-90750935D01*
X121849216Y-90750273D01*
X121749380Y-90748933D01*
X121670213Y-90746795D01*
X121608133Y-90743738D01*
X121559560Y-90739640D01*
X121520913Y-90734382D01*
X121488611Y-90727843D01*
X121459074Y-90719901D01*
X121437813Y-90713344D01*
X121261301Y-90637663D01*
X121103107Y-90530847D01*
X120966883Y-90397436D01*
X120856280Y-90241971D01*
X120774949Y-90068990D01*
X120726542Y-89883035D01*
X120718332Y-89818717D01*
X120709674Y-89727107D01*
X120796156Y-89727107D01*
X120848679Y-89725172D01*
X120870695Y-89716873D01*
X120870179Y-89698468D01*
X120868121Y-89693356D01*
X120816705Y-89547087D01*
X120775295Y-89376131D01*
X120745946Y-89193544D01*
X120730712Y-89012385D01*
X120731648Y-88845710D01*
X120732589Y-88831946D01*
X120771545Y-88548995D01*
X120844500Y-88283811D01*
X120950588Y-88037657D01*
X121088944Y-87811799D01*
X121258703Y-87607503D01*
X121458998Y-87426032D01*
X121688964Y-87268653D01*
X121867574Y-87173287D01*
X121949284Y-87135970D01*
X122029569Y-87103940D01*
X122112033Y-87076806D01*
X122200283Y-87054178D01*
X122297922Y-87035664D01*
X122408555Y-87020874D01*
X122535789Y-87009417D01*
X122683227Y-87000903D01*
X122854475Y-86994942D01*
X123053138Y-86991141D01*
X123282820Y-86989112D01*
X123547127Y-86988463D01*
X123573260Y-86988459D01*
X124504328Y-86988459D01*
X124504043Y-87041496D01*
G37*
%TO.C,R3*%
X163930000Y-68358000D02*
X163930000Y-74898000D01*
X163600000Y-68358000D02*
X163930000Y-68358000D01*
X161520000Y-68358000D02*
X161190000Y-68358000D01*
X161190000Y-68358000D02*
X161190000Y-74898000D01*
X163930000Y-74898000D02*
X163600000Y-74898000D01*
X161190000Y-74898000D02*
X161520000Y-74898000D01*
%TO.C,R1*%
X173970000Y-68330000D02*
X173970000Y-74870000D01*
X173640000Y-68330000D02*
X173970000Y-68330000D01*
X171560000Y-68330000D02*
X171230000Y-68330000D01*
X171230000Y-68330000D02*
X171230000Y-74870000D01*
X173970000Y-74870000D02*
X173640000Y-74870000D01*
X171230000Y-74870000D02*
X171560000Y-74870000D01*
%TD*%
M02*
