%TF.GenerationSoftware,KiCad,Pcbnew,7.0.9*%
%TF.CreationDate,2024-01-02T09:01:56+07:00*%
%TF.ProjectId,Waterbox 2.1,57617465-7262-46f7-9820-322e312e6b69,rev?*%
%TF.SameCoordinates,Original*%
%TF.FileFunction,Soldermask,Top*%
%TF.FilePolarity,Negative*%
%FSLAX46Y46*%
G04 Gerber Fmt 4.6, Leading zero omitted, Abs format (unit mm)*
G04 Created by KiCad (PCBNEW 7.0.9) date 2024-01-02 09:01:56*
%MOMM*%
%LPD*%
G01*
G04 APERTURE LIST*
G04 Aperture macros list*
%AMRoundRect*
0 Rectangle with rounded corners*
0 $1 Rounding radius*
0 $2 $3 $4 $5 $6 $7 $8 $9 X,Y pos of 4 corners*
0 Add a 4 corners polygon primitive as box body*
4,1,4,$2,$3,$4,$5,$6,$7,$8,$9,$2,$3,0*
0 Add four circle primitives for the rounded corners*
1,1,$1+$1,$2,$3*
1,1,$1+$1,$4,$5*
1,1,$1+$1,$6,$7*
1,1,$1+$1,$8,$9*
0 Add four rect primitives between the rounded corners*
20,1,$1+$1,$2,$3,$4,$5,0*
20,1,$1+$1,$4,$5,$6,$7,0*
20,1,$1+$1,$6,$7,$8,$9,0*
20,1,$1+$1,$8,$9,$2,$3,0*%
G04 Aperture macros list end*
%ADD10C,1.600000*%
%ADD11O,1.600000X1.600000*%
%ADD12RoundRect,0.250000X0.600000X0.725000X-0.600000X0.725000X-0.600000X-0.725000X0.600000X-0.725000X0*%
%ADD13O,1.700000X1.950000*%
%ADD14RoundRect,0.250000X0.725000X-0.600000X0.725000X0.600000X-0.725000X0.600000X-0.725000X-0.600000X0*%
%ADD15O,1.950000X1.700000*%
%ADD16C,1.500000*%
%ADD17C,0.700000*%
%ADD18C,4.400000*%
%ADD19R,2.000000X2.000000*%
%ADD20C,2.000000*%
%ADD21C,1.800000*%
%ADD22RoundRect,0.102000X-0.765000X0.765000X-0.765000X-0.765000X0.765000X-0.765000X0.765000X0.765000X0*%
%ADD23C,1.734000*%
%ADD24R,2.600000X2.600000*%
%ADD25C,2.600000*%
%ADD26C,2.200000*%
%ADD27R,3.000000X3.000000*%
%ADD28C,3.000000*%
%ADD29RoundRect,0.250000X0.600000X0.750000X-0.600000X0.750000X-0.600000X-0.750000X0.600000X-0.750000X0*%
%ADD30O,1.700000X2.000000*%
%ADD31C,2.400000*%
G04 APERTURE END LIST*
D10*
%TO.C,R4*%
X156500000Y-67790000D03*
D11*
X156500000Y-75410000D03*
%TD*%
D12*
%TO.C,LED2*%
X171500000Y-59000000D03*
D13*
X169000000Y-59000000D03*
X166500000Y-59000000D03*
X164000000Y-59000000D03*
%TD*%
D14*
%TO.C,SENSOR*%
X184023000Y-86106000D03*
D15*
X184023000Y-83606000D03*
X184023000Y-81106000D03*
%TD*%
D16*
%TO.C,GND*%
X140000000Y-68000000D03*
%TD*%
D17*
%TO.C,H7*%
X134337000Y-127127000D03*
X134820274Y-125960274D03*
X134820274Y-128293726D03*
X135987000Y-125477000D03*
D18*
X135987000Y-127127000D03*
D17*
X135987000Y-128777000D03*
X137153726Y-125960274D03*
X137153726Y-128293726D03*
X137637000Y-127127000D03*
%TD*%
D19*
%TO.C,PS1*%
X70900000Y-111000000D03*
D20*
X70900000Y-117000000D03*
X104500000Y-105000000D03*
X104500000Y-123000000D03*
%TD*%
D16*
%TO.C,5V*%
X140000000Y-75000000D03*
%TD*%
D21*
%TO.C,RV1*%
X105400000Y-83000000D03*
X104000000Y-90500000D03*
%TD*%
D17*
%TO.C,H5*%
X134337000Y-57071000D03*
X134820274Y-55904274D03*
X134820274Y-58237726D03*
X135987000Y-55421000D03*
D18*
X135987000Y-57071000D03*
D17*
X135987000Y-58721000D03*
X137153726Y-55904274D03*
X137153726Y-58237726D03*
X137637000Y-57071000D03*
%TD*%
D22*
%TO.C,ESP32-DEVKITC-32U*%
X181850000Y-95300000D03*
D23*
X179310000Y-95300000D03*
X176770000Y-95300000D03*
X174230000Y-95300000D03*
X171690000Y-95300000D03*
X169150000Y-95300000D03*
X166610000Y-95300000D03*
X164070000Y-95300000D03*
X161530000Y-95300000D03*
X158990000Y-95300000D03*
X156450000Y-95300000D03*
X153910000Y-95300000D03*
X151370000Y-95300000D03*
X148830000Y-95300000D03*
X146290000Y-95300000D03*
X143750000Y-95300000D03*
X141210000Y-95300000D03*
X138670000Y-95300000D03*
X136130000Y-95300000D03*
X136130000Y-120700000D03*
X138670000Y-120700000D03*
X141210000Y-120700000D03*
X143750000Y-120700000D03*
X146290000Y-120700000D03*
X148830000Y-120700000D03*
X151370000Y-120700000D03*
X153910000Y-120700000D03*
X156450000Y-120700000D03*
X158990000Y-120700000D03*
X161530000Y-120700000D03*
X164070000Y-120700000D03*
X166610000Y-120700000D03*
X169150000Y-120700000D03*
X171690000Y-120700000D03*
X174230000Y-120700000D03*
X176770000Y-120700000D03*
X179310000Y-120700000D03*
X181850000Y-120700000D03*
%TD*%
D24*
%TO.C,VAC_IN*%
X91857500Y-61750000D03*
D25*
X86857500Y-61750000D03*
%TD*%
D26*
%TO.C,H1*%
X62994000Y-57071000D03*
%TD*%
D17*
%TO.C,H4*%
X113444000Y-127127000D03*
X113927274Y-125960274D03*
X113927274Y-128293726D03*
X115094000Y-125477000D03*
D18*
X115094000Y-127127000D03*
D17*
X115094000Y-128777000D03*
X116260726Y-125960274D03*
X116260726Y-128293726D03*
X116744000Y-127127000D03*
%TD*%
%TO.C,H6*%
X186437000Y-57071000D03*
X186920274Y-55904274D03*
X186920274Y-58237726D03*
X188087000Y-55421000D03*
D18*
X188087000Y-57071000D03*
D17*
X188087000Y-58721000D03*
X189253726Y-55904274D03*
X189253726Y-58237726D03*
X189737000Y-57071000D03*
%TD*%
D19*
%TO.C,C2*%
X142000000Y-84500000D03*
D20*
X147000000Y-84500000D03*
%TD*%
D26*
%TO.C,H2*%
X115094000Y-57071000D03*
%TD*%
D27*
%TO.C,FL1*%
X82250000Y-80950000D03*
D28*
X72250000Y-80950000D03*
X72250000Y-93550000D03*
X82250000Y-93550000D03*
%TD*%
D10*
%TO.C,R2*%
X167640000Y-67818000D03*
D11*
X167640000Y-75438000D03*
%TD*%
D29*
%TO.C,LED1*%
X156000000Y-59000000D03*
D30*
X153500000Y-59000000D03*
%TD*%
D31*
%TO.C,C1*%
X94000000Y-79500000D03*
X94000000Y-94500000D03*
%TD*%
D10*
%TO.C,R3*%
X162560000Y-67818000D03*
D11*
X162560000Y-75438000D03*
%TD*%
D26*
%TO.C,H3*%
X62994000Y-127127000D03*
%TD*%
D17*
%TO.C,H8*%
X186437000Y-127127000D03*
X186920274Y-125960274D03*
X186920274Y-128293726D03*
X188087000Y-125477000D03*
D18*
X188087000Y-127127000D03*
D17*
X188087000Y-128777000D03*
X189253726Y-125960274D03*
X189253726Y-128293726D03*
X189737000Y-127127000D03*
%TD*%
D10*
%TO.C,R1*%
X172600000Y-67790000D03*
D11*
X172600000Y-75410000D03*
%TD*%
M02*
