%TF.GenerationSoftware,KiCad,Pcbnew,7.0.9*%
%TF.CreationDate,2024-01-01T16:53:49+07:00*%
%TF.ProjectId,Waterbox 2.1,57617465-7262-46f7-9820-322e312e6b69,rev?*%
%TF.SameCoordinates,Original*%
%TF.FileFunction,Legend,Top*%
%TF.FilePolarity,Positive*%
%FSLAX46Y46*%
G04 Gerber Fmt 4.6, Leading zero omitted, Abs format (unit mm)*
G04 Created by KiCad (PCBNEW 7.0.9) date 2024-01-01 16:53:49*
%MOMM*%
%LPD*%
G01*
G04 APERTURE LIST*
%ADD10C,0.150000*%
%ADD11C,0.120000*%
%ADD12C,0.127000*%
%ADD13C,0.200000*%
%ADD14C,0.100000*%
G04 APERTURE END LIST*
D10*
X167589000Y-62506000D02*
X170839000Y-62506000D01*
X170839000Y-65256000D01*
X167589000Y-65256000D01*
X167589000Y-62506000D01*
X151594000Y-62506000D02*
X154844000Y-62506000D01*
X154844000Y-65256000D01*
X151594000Y-65256000D01*
X151594000Y-62506000D01*
X177750000Y-78625000D02*
X180500000Y-78625000D01*
X180500000Y-81875000D01*
X177750000Y-81875000D01*
X177750000Y-78625000D01*
X170839000Y-62506000D02*
X174089000Y-62506000D01*
X174089000Y-65256000D01*
X170839000Y-65256000D01*
X170839000Y-62506000D01*
X161089000Y-62506000D02*
X164339000Y-62506000D01*
X164339000Y-65256000D01*
X161089000Y-65256000D01*
X161089000Y-62506000D01*
X154844000Y-62506000D02*
X158094000Y-62506000D01*
X158094000Y-65256000D01*
X154844000Y-65256000D01*
X154844000Y-62506000D01*
X164339000Y-62506000D02*
X167589000Y-62506000D01*
X167589000Y-65256000D01*
X164339000Y-65256000D01*
X164339000Y-62506000D01*
X177750000Y-85125000D02*
X180500000Y-85125000D01*
X180500000Y-88375000D01*
X177750000Y-88375000D01*
X177750000Y-85125000D01*
X177750000Y-81875000D02*
X180500000Y-81875000D01*
X180500000Y-85125000D01*
X177750000Y-85125000D01*
X177750000Y-81875000D01*
X169485714Y-63551414D02*
X169400000Y-63508557D01*
X169400000Y-63508557D02*
X169271428Y-63508557D01*
X169271428Y-63508557D02*
X169142857Y-63551414D01*
X169142857Y-63551414D02*
X169057142Y-63637128D01*
X169057142Y-63637128D02*
X169014285Y-63722842D01*
X169014285Y-63722842D02*
X168971428Y-63894271D01*
X168971428Y-63894271D02*
X168971428Y-64022842D01*
X168971428Y-64022842D02*
X169014285Y-64194271D01*
X169014285Y-64194271D02*
X169057142Y-64279985D01*
X169057142Y-64279985D02*
X169142857Y-64365700D01*
X169142857Y-64365700D02*
X169271428Y-64408557D01*
X169271428Y-64408557D02*
X169357142Y-64408557D01*
X169357142Y-64408557D02*
X169485714Y-64365700D01*
X169485714Y-64365700D02*
X169528571Y-64322842D01*
X169528571Y-64322842D02*
X169528571Y-64022842D01*
X169528571Y-64022842D02*
X169357142Y-64022842D01*
X151921428Y-63389557D02*
X152478571Y-63389557D01*
X152478571Y-63389557D02*
X152178571Y-63732414D01*
X152178571Y-63732414D02*
X152307142Y-63732414D01*
X152307142Y-63732414D02*
X152392857Y-63775271D01*
X152392857Y-63775271D02*
X152435714Y-63818128D01*
X152435714Y-63818128D02*
X152478571Y-63903842D01*
X152478571Y-63903842D02*
X152478571Y-64118128D01*
X152478571Y-64118128D02*
X152435714Y-64203842D01*
X152435714Y-64203842D02*
X152392857Y-64246700D01*
X152392857Y-64246700D02*
X152307142Y-64289557D01*
X152307142Y-64289557D02*
X152049999Y-64289557D01*
X152049999Y-64289557D02*
X151964285Y-64246700D01*
X151964285Y-64246700D02*
X151921428Y-64203842D01*
X152864285Y-64203842D02*
X152907142Y-64246700D01*
X152907142Y-64246700D02*
X152864285Y-64289557D01*
X152864285Y-64289557D02*
X152821428Y-64246700D01*
X152821428Y-64246700D02*
X152864285Y-64203842D01*
X152864285Y-64203842D02*
X152864285Y-64289557D01*
X153207142Y-63389557D02*
X153764285Y-63389557D01*
X153764285Y-63389557D02*
X153464285Y-63732414D01*
X153464285Y-63732414D02*
X153592856Y-63732414D01*
X153592856Y-63732414D02*
X153678571Y-63775271D01*
X153678571Y-63775271D02*
X153721428Y-63818128D01*
X153721428Y-63818128D02*
X153764285Y-63903842D01*
X153764285Y-63903842D02*
X153764285Y-64118128D01*
X153764285Y-64118128D02*
X153721428Y-64203842D01*
X153721428Y-64203842D02*
X153678571Y-64246700D01*
X153678571Y-64246700D02*
X153592856Y-64289557D01*
X153592856Y-64289557D02*
X153335713Y-64289557D01*
X153335713Y-64289557D02*
X153249999Y-64246700D01*
X153249999Y-64246700D02*
X153207142Y-64203842D01*
X154021428Y-63389557D02*
X154321428Y-64289557D01*
X154321428Y-64289557D02*
X154621428Y-63389557D01*
X179491442Y-80078571D02*
X179491442Y-79649999D01*
X179491442Y-79649999D02*
X179062871Y-79607142D01*
X179062871Y-79607142D02*
X179105728Y-79649999D01*
X179105728Y-79649999D02*
X179148585Y-79735714D01*
X179148585Y-79735714D02*
X179148585Y-79949999D01*
X179148585Y-79949999D02*
X179105728Y-80035714D01*
X179105728Y-80035714D02*
X179062871Y-80078571D01*
X179062871Y-80078571D02*
X178977157Y-80121428D01*
X178977157Y-80121428D02*
X178762871Y-80121428D01*
X178762871Y-80121428D02*
X178677157Y-80078571D01*
X178677157Y-80078571D02*
X178634300Y-80035714D01*
X178634300Y-80035714D02*
X178591442Y-79949999D01*
X178591442Y-79949999D02*
X178591442Y-79735714D01*
X178591442Y-79735714D02*
X178634300Y-79649999D01*
X178634300Y-79649999D02*
X178677157Y-79607142D01*
X179491442Y-80378571D02*
X178591442Y-80678571D01*
X178591442Y-80678571D02*
X179491442Y-80978571D01*
X163028571Y-64408557D02*
X162728571Y-63979985D01*
X162514285Y-64408557D02*
X162514285Y-63508557D01*
X162514285Y-63508557D02*
X162857142Y-63508557D01*
X162857142Y-63508557D02*
X162942857Y-63551414D01*
X162942857Y-63551414D02*
X162985714Y-63594271D01*
X162985714Y-63594271D02*
X163028571Y-63679985D01*
X163028571Y-63679985D02*
X163028571Y-63808557D01*
X163028571Y-63808557D02*
X162985714Y-63894271D01*
X162985714Y-63894271D02*
X162942857Y-63937128D01*
X162942857Y-63937128D02*
X162857142Y-63979985D01*
X162857142Y-63979985D02*
X162514285Y-63979985D01*
G36*
X128096000Y-94729420D02*
G01*
X126820466Y-94877138D01*
X126820466Y-94726196D01*
X127597744Y-94639148D01*
X127726704Y-94627718D01*
X127726704Y-94623614D01*
X127598623Y-94607201D01*
X126820466Y-94473551D01*
X126820466Y-94322609D01*
X127631157Y-94169909D01*
X127754255Y-94154375D01*
X127754255Y-94150272D01*
X127627933Y-94140307D01*
X126820466Y-94044466D01*
X126820466Y-93914919D01*
X128096000Y-94069085D01*
X128096000Y-94225596D01*
X127233138Y-94389727D01*
X127103299Y-94407020D01*
X127103299Y-94411123D01*
X127233138Y-94426657D01*
X128096000Y-94574375D01*
X128096000Y-94729420D01*
G37*
G36*
X128096000Y-93133831D02*
G01*
X128081564Y-93137171D01*
X128066176Y-93140377D01*
X128049835Y-93143449D01*
X128032541Y-93146388D01*
X128020482Y-93148272D01*
X128007999Y-93150097D01*
X127995092Y-93151863D01*
X127981763Y-93153568D01*
X127968009Y-93155215D01*
X127953832Y-93156802D01*
X127939231Y-93158329D01*
X127924207Y-93159797D01*
X127908759Y-93161205D01*
X127892887Y-93162554D01*
X127906451Y-93171384D01*
X127919591Y-93180437D01*
X127932307Y-93189711D01*
X127944599Y-93199208D01*
X127956469Y-93208927D01*
X127967914Y-93218868D01*
X127978936Y-93229032D01*
X127989534Y-93239417D01*
X127999709Y-93250024D01*
X128009460Y-93260854D01*
X128018787Y-93271905D01*
X128027691Y-93283179D01*
X128036171Y-93294675D01*
X128044228Y-93306393D01*
X128051861Y-93318333D01*
X128059070Y-93330495D01*
X128065813Y-93342670D01*
X128072122Y-93354721D01*
X128077995Y-93366648D01*
X128083433Y-93378452D01*
X128088436Y-93390132D01*
X128093004Y-93401689D01*
X128097138Y-93413122D01*
X128100836Y-93424431D01*
X128105567Y-93441163D01*
X128109319Y-93457616D01*
X128112093Y-93473792D01*
X128113887Y-93489689D01*
X128114703Y-93505309D01*
X128114757Y-93510453D01*
X128114369Y-93524723D01*
X128113205Y-93538810D01*
X128111264Y-93552713D01*
X128108547Y-93566434D01*
X128105054Y-93579971D01*
X128100785Y-93593325D01*
X128095740Y-93606495D01*
X128089918Y-93619483D01*
X128083320Y-93632288D01*
X128075946Y-93644909D01*
X128067795Y-93657347D01*
X128058868Y-93669602D01*
X128049166Y-93681673D01*
X128038686Y-93693562D01*
X128027431Y-93705267D01*
X128015399Y-93716789D01*
X128002543Y-93727863D01*
X127988888Y-93738222D01*
X127974434Y-93747866D01*
X127959181Y-93756796D01*
X127943128Y-93765012D01*
X127926277Y-93772513D01*
X127908626Y-93779300D01*
X127890176Y-93785373D01*
X127870927Y-93790731D01*
X127850879Y-93795375D01*
X127830032Y-93799304D01*
X127808385Y-93802519D01*
X127785940Y-93805019D01*
X127762695Y-93806805D01*
X127750773Y-93807430D01*
X127738651Y-93807877D01*
X127726330Y-93808145D01*
X127713808Y-93808234D01*
X127694011Y-93807997D01*
X127674479Y-93807286D01*
X127655213Y-93806101D01*
X127636212Y-93804442D01*
X127617477Y-93802309D01*
X127599008Y-93799702D01*
X127580804Y-93796621D01*
X127562866Y-93793066D01*
X127545194Y-93789038D01*
X127527787Y-93784535D01*
X127510646Y-93779558D01*
X127493770Y-93774107D01*
X127477160Y-93768182D01*
X127460815Y-93761784D01*
X127444737Y-93754911D01*
X127428923Y-93747564D01*
X127413449Y-93739820D01*
X127398387Y-93731755D01*
X127383737Y-93723370D01*
X127369499Y-93714665D01*
X127355673Y-93705638D01*
X127342260Y-93696291D01*
X127329259Y-93686624D01*
X127316669Y-93676636D01*
X127304492Y-93666327D01*
X127292728Y-93655698D01*
X127281375Y-93644748D01*
X127270434Y-93633478D01*
X127259906Y-93621887D01*
X127249790Y-93609976D01*
X127240086Y-93597744D01*
X127230794Y-93585191D01*
X127221992Y-93572289D01*
X127213758Y-93559006D01*
X127206092Y-93545342D01*
X127198993Y-93531299D01*
X127192463Y-93516876D01*
X127186500Y-93502073D01*
X127181105Y-93486889D01*
X127176279Y-93471325D01*
X127172020Y-93455382D01*
X127168329Y-93439058D01*
X127165205Y-93422354D01*
X127162650Y-93405270D01*
X127160662Y-93387806D01*
X127159243Y-93369962D01*
X127158391Y-93351737D01*
X127158107Y-93333133D01*
X127158422Y-93318490D01*
X127158687Y-93313496D01*
X127289412Y-93313496D01*
X127289847Y-93330935D01*
X127291152Y-93348007D01*
X127293327Y-93364713D01*
X127296373Y-93381053D01*
X127300288Y-93397027D01*
X127305074Y-93412634D01*
X127310730Y-93427875D01*
X127317256Y-93442749D01*
X127324652Y-93457257D01*
X127332918Y-93471399D01*
X127342054Y-93485174D01*
X127352060Y-93498583D01*
X127362937Y-93511625D01*
X127374683Y-93524302D01*
X127387300Y-93536612D01*
X127400787Y-93548555D01*
X127414986Y-93559912D01*
X127429812Y-93570537D01*
X127445266Y-93580429D01*
X127461347Y-93589588D01*
X127478055Y-93598014D01*
X127495391Y-93605708D01*
X127513354Y-93612669D01*
X127531945Y-93618897D01*
X127551163Y-93624392D01*
X127571009Y-93629155D01*
X127591482Y-93633185D01*
X127612582Y-93636482D01*
X127634310Y-93639047D01*
X127656665Y-93640879D01*
X127679647Y-93641978D01*
X127691374Y-93642253D01*
X127703257Y-93642344D01*
X127720356Y-93642144D01*
X127736921Y-93641543D01*
X127752953Y-93640541D01*
X127768452Y-93639139D01*
X127783416Y-93637335D01*
X127797848Y-93635131D01*
X127811745Y-93632527D01*
X127825110Y-93629521D01*
X127837941Y-93626115D01*
X127850238Y-93622309D01*
X127862001Y-93618101D01*
X127873232Y-93613493D01*
X127883928Y-93608484D01*
X127898973Y-93600219D01*
X127912817Y-93591053D01*
X127925441Y-93581310D01*
X127936822Y-93571314D01*
X127946962Y-93561066D01*
X127955861Y-93550565D01*
X127963517Y-93539812D01*
X127969932Y-93528807D01*
X127975106Y-93517549D01*
X127979038Y-93506038D01*
X127981728Y-93494276D01*
X127983176Y-93482260D01*
X127983452Y-93474110D01*
X127982806Y-93460624D01*
X127980866Y-93446876D01*
X127977633Y-93432865D01*
X127973107Y-93418592D01*
X127967288Y-93404055D01*
X127960176Y-93389256D01*
X127951770Y-93374194D01*
X127945448Y-93364007D01*
X127938551Y-93353703D01*
X127931080Y-93343283D01*
X127923033Y-93332745D01*
X127914412Y-93322091D01*
X127909886Y-93316720D01*
X127900491Y-93306020D01*
X127890698Y-93295461D01*
X127880506Y-93285045D01*
X127869916Y-93274771D01*
X127858927Y-93264639D01*
X127847540Y-93254648D01*
X127835755Y-93244800D01*
X127823571Y-93235094D01*
X127810989Y-93225529D01*
X127798008Y-93216107D01*
X127784629Y-93206826D01*
X127770851Y-93197688D01*
X127756675Y-93188691D01*
X127742101Y-93179837D01*
X127727128Y-93171124D01*
X127711757Y-93162554D01*
X127311101Y-93162554D01*
X127307225Y-93177676D01*
X127303730Y-93192597D01*
X127300616Y-93207317D01*
X127297884Y-93221836D01*
X127295533Y-93236154D01*
X127293563Y-93250271D01*
X127291975Y-93264188D01*
X127290767Y-93277903D01*
X127289941Y-93291418D01*
X127289497Y-93304732D01*
X127289412Y-93313496D01*
X127158687Y-93313496D01*
X127159127Y-93305209D01*
X127160235Y-93290536D01*
X127161331Y-93278618D01*
X127162653Y-93265916D01*
X127164202Y-93252432D01*
X127165978Y-93238164D01*
X127167980Y-93223114D01*
X127170210Y-93207280D01*
X127171003Y-93201828D01*
X127172926Y-93190122D01*
X127174781Y-93177597D01*
X127176430Y-93165764D01*
X127176865Y-93162554D01*
X127176865Y-93008974D01*
X127832217Y-93008974D01*
X127852276Y-93008840D01*
X127871858Y-93008438D01*
X127890964Y-93007768D01*
X127909593Y-93006830D01*
X127927747Y-93005625D01*
X127945424Y-93004151D01*
X127962625Y-93002410D01*
X127979349Y-93000401D01*
X127995597Y-92998124D01*
X128011369Y-92995578D01*
X128026665Y-92992765D01*
X128041484Y-92989685D01*
X128055828Y-92986336D01*
X128069695Y-92982719D01*
X128083085Y-92978834D01*
X128096000Y-92974682D01*
X128096000Y-93133831D01*
G37*
G36*
X128050277Y-91990188D02*
G01*
X128055955Y-92003402D01*
X128061337Y-92016154D01*
X128066424Y-92028443D01*
X128071215Y-92040270D01*
X128075711Y-92051634D01*
X128081901Y-92067813D01*
X128087427Y-92082951D01*
X128092287Y-92097049D01*
X128096484Y-92110106D01*
X128100015Y-92122122D01*
X128103691Y-92136525D01*
X128105672Y-92146113D01*
X128107801Y-92158152D01*
X128109647Y-92170091D01*
X128111208Y-92181929D01*
X128112486Y-92193667D01*
X128113684Y-92208197D01*
X128114438Y-92222569D01*
X128114748Y-92236785D01*
X128114757Y-92239609D01*
X128114614Y-92251526D01*
X128114185Y-92263317D01*
X128113004Y-92280768D01*
X128111180Y-92297935D01*
X128108711Y-92314819D01*
X128105598Y-92331420D01*
X128101842Y-92347737D01*
X128097441Y-92363771D01*
X128092396Y-92379521D01*
X128086708Y-92394988D01*
X128080375Y-92410172D01*
X128078121Y-92415170D01*
X128070945Y-92429723D01*
X128063156Y-92443596D01*
X128054754Y-92456788D01*
X128045739Y-92469301D01*
X128036111Y-92481133D01*
X128025869Y-92492286D01*
X128015015Y-92502758D01*
X128003547Y-92512550D01*
X127991467Y-92521662D01*
X127978773Y-92530094D01*
X127969970Y-92535338D01*
X127955876Y-92542566D01*
X127940411Y-92549083D01*
X127929340Y-92553033D01*
X127917660Y-92556667D01*
X127905371Y-92559985D01*
X127892473Y-92562987D01*
X127878965Y-92565673D01*
X127864849Y-92568043D01*
X127850123Y-92570097D01*
X127834789Y-92571835D01*
X127818845Y-92573257D01*
X127802292Y-92574363D01*
X127785130Y-92575153D01*
X127767359Y-92575627D01*
X127748979Y-92575785D01*
X127383201Y-92575785D01*
X127383201Y-92804689D01*
X127251896Y-92804689D01*
X127251896Y-92575785D01*
X126895497Y-92575785D01*
X126895497Y-92423377D01*
X127251896Y-92423377D01*
X127251896Y-92015687D01*
X127383201Y-92015687D01*
X127383201Y-92423377D01*
X127743411Y-92423377D01*
X127756753Y-92423275D01*
X127769596Y-92422969D01*
X127781941Y-92422460D01*
X127793786Y-92421747D01*
X127810617Y-92420295D01*
X127826326Y-92418384D01*
X127840911Y-92416015D01*
X127854373Y-92413188D01*
X127866712Y-92409901D01*
X127877928Y-92406157D01*
X127891135Y-92400451D01*
X127896990Y-92397292D01*
X127907762Y-92390423D01*
X127917800Y-92383004D01*
X127927106Y-92375035D01*
X127935678Y-92366517D01*
X127943519Y-92357450D01*
X127950626Y-92347833D01*
X127957001Y-92337666D01*
X127962643Y-92326950D01*
X127967520Y-92315712D01*
X127971747Y-92303979D01*
X127975324Y-92291752D01*
X127978250Y-92279030D01*
X127980526Y-92265813D01*
X127982152Y-92252102D01*
X127983127Y-92237896D01*
X127983452Y-92223196D01*
X127983184Y-92209302D01*
X127982381Y-92195320D01*
X127981041Y-92181248D01*
X127979166Y-92167087D01*
X127976755Y-92152836D01*
X127973808Y-92138497D01*
X127970325Y-92124068D01*
X127966307Y-92109549D01*
X127961752Y-92094942D01*
X127956662Y-92080245D01*
X127951036Y-92065459D01*
X127944874Y-92050583D01*
X127938177Y-92035618D01*
X127930943Y-92020564D01*
X127923174Y-92005421D01*
X127914869Y-91990188D01*
X128050277Y-91990188D01*
G37*
G36*
X127664569Y-91604480D02*
G01*
X127681578Y-91604132D01*
X127698315Y-91603089D01*
X127714778Y-91601350D01*
X127730968Y-91598915D01*
X127746885Y-91595786D01*
X127762529Y-91591960D01*
X127777900Y-91587439D01*
X127792998Y-91582223D01*
X127807823Y-91576311D01*
X127822375Y-91569704D01*
X127831924Y-91564912D01*
X127845773Y-91557219D01*
X127858962Y-91549089D01*
X127871491Y-91540520D01*
X127883362Y-91531514D01*
X127894572Y-91522069D01*
X127905124Y-91512187D01*
X127915016Y-91501866D01*
X127924248Y-91491108D01*
X127932821Y-91479912D01*
X127940734Y-91468278D01*
X127945644Y-91460279D01*
X127952400Y-91447924D01*
X127958493Y-91435261D01*
X127963920Y-91422288D01*
X127968683Y-91409006D01*
X127972782Y-91395415D01*
X127976216Y-91381515D01*
X127978985Y-91367306D01*
X127981089Y-91352787D01*
X127982529Y-91337960D01*
X127983305Y-91322823D01*
X127983452Y-91312561D01*
X127983083Y-91293974D01*
X127981973Y-91275146D01*
X127980124Y-91256074D01*
X127977536Y-91236760D01*
X127974207Y-91217203D01*
X127970140Y-91197403D01*
X127965332Y-91177361D01*
X127959785Y-91157076D01*
X127953499Y-91136548D01*
X127946473Y-91115777D01*
X127938707Y-91094764D01*
X127930201Y-91073508D01*
X127920956Y-91052009D01*
X127916057Y-91041169D01*
X127910972Y-91030268D01*
X127905702Y-91019306D01*
X127900248Y-91008284D01*
X127894608Y-90997200D01*
X127888784Y-90986057D01*
X128025658Y-90986057D01*
X128031139Y-90997468D01*
X128036447Y-91008841D01*
X128041581Y-91020176D01*
X128046540Y-91031472D01*
X128051326Y-91042730D01*
X128055938Y-91053950D01*
X128060375Y-91065131D01*
X128064639Y-91076274D01*
X128068728Y-91087378D01*
X128072644Y-91098445D01*
X128079953Y-91120462D01*
X128086566Y-91142326D01*
X128092482Y-91164036D01*
X128097703Y-91185594D01*
X128102228Y-91206997D01*
X128106056Y-91228248D01*
X128109189Y-91249344D01*
X128111625Y-91270288D01*
X128113365Y-91291078D01*
X128114409Y-91311714D01*
X128114757Y-91332198D01*
X128114520Y-91347592D01*
X128113809Y-91362780D01*
X128112624Y-91377762D01*
X128110965Y-91392538D01*
X128108833Y-91407108D01*
X128106226Y-91421471D01*
X128103145Y-91435629D01*
X128099590Y-91449581D01*
X128095561Y-91463326D01*
X128091058Y-91476866D01*
X128086081Y-91490199D01*
X128080631Y-91503326D01*
X128074706Y-91516248D01*
X128068307Y-91528963D01*
X128061434Y-91541472D01*
X128054087Y-91553775D01*
X128046263Y-91565822D01*
X128038032Y-91577566D01*
X128029392Y-91589004D01*
X128020345Y-91600138D01*
X128010891Y-91610968D01*
X128001029Y-91621493D01*
X127990759Y-91631713D01*
X127980082Y-91641629D01*
X127968997Y-91651240D01*
X127957505Y-91660547D01*
X127945605Y-91669549D01*
X127933297Y-91678247D01*
X127920582Y-91686640D01*
X127907459Y-91694729D01*
X127893929Y-91702513D01*
X127879991Y-91709993D01*
X127865789Y-91717091D01*
X127851465Y-91723731D01*
X127837020Y-91729914D01*
X127822454Y-91735638D01*
X127807766Y-91740905D01*
X127792957Y-91745713D01*
X127778026Y-91750064D01*
X127762974Y-91753956D01*
X127747801Y-91757391D01*
X127732507Y-91760368D01*
X127717091Y-91762886D01*
X127701553Y-91764947D01*
X127685895Y-91766550D01*
X127670115Y-91767695D01*
X127654213Y-91768382D01*
X127638191Y-91768611D01*
X127622696Y-91768393D01*
X127607279Y-91767741D01*
X127591940Y-91766653D01*
X127576678Y-91765130D01*
X127561495Y-91763173D01*
X127546389Y-91760780D01*
X127531361Y-91757952D01*
X127516411Y-91754689D01*
X127501539Y-91750991D01*
X127486745Y-91746858D01*
X127472028Y-91742290D01*
X127457390Y-91737287D01*
X127442829Y-91731848D01*
X127428346Y-91725975D01*
X127413941Y-91719667D01*
X127399614Y-91712923D01*
X127385524Y-91705754D01*
X127371830Y-91698241D01*
X127358532Y-91690385D01*
X127345631Y-91682185D01*
X127333125Y-91673642D01*
X127321015Y-91664756D01*
X127309302Y-91655526D01*
X127297985Y-91645952D01*
X127287064Y-91636035D01*
X127276539Y-91625775D01*
X127266410Y-91615171D01*
X127256677Y-91604223D01*
X127247341Y-91592932D01*
X127238400Y-91581298D01*
X127229856Y-91569320D01*
X127221708Y-91556999D01*
X127214006Y-91544381D01*
X127206801Y-91531587D01*
X127200093Y-91518616D01*
X127193882Y-91505470D01*
X127188168Y-91492147D01*
X127182951Y-91478647D01*
X127178231Y-91464972D01*
X127174007Y-91451120D01*
X127170281Y-91437091D01*
X127167051Y-91422887D01*
X127164318Y-91408506D01*
X127162082Y-91393948D01*
X127160343Y-91379215D01*
X127159101Y-91364305D01*
X127158355Y-91349219D01*
X127158217Y-91340697D01*
X127289412Y-91340697D01*
X127289997Y-91357844D01*
X127291751Y-91374553D01*
X127294675Y-91390824D01*
X127298768Y-91406657D01*
X127304031Y-91422052D01*
X127310463Y-91437009D01*
X127318065Y-91451528D01*
X127326836Y-91465609D01*
X127336777Y-91479253D01*
X127347887Y-91492458D01*
X127355944Y-91501018D01*
X127364472Y-91509322D01*
X127373497Y-91517308D01*
X127383019Y-91524975D01*
X127393038Y-91532324D01*
X127403554Y-91539355D01*
X127414567Y-91546067D01*
X127426076Y-91552462D01*
X127438083Y-91558538D01*
X127450586Y-91564295D01*
X127463586Y-91569735D01*
X127477083Y-91574856D01*
X127491077Y-91579658D01*
X127505568Y-91584143D01*
X127520556Y-91588309D01*
X127536040Y-91592157D01*
X127552022Y-91595687D01*
X127552022Y-91138757D01*
X127530333Y-91138757D01*
X127516699Y-91138973D01*
X127503419Y-91139618D01*
X127490494Y-91140695D01*
X127477925Y-91142201D01*
X127465710Y-91144138D01*
X127453850Y-91146506D01*
X127442345Y-91149304D01*
X127425753Y-91154308D01*
X127409960Y-91160281D01*
X127394965Y-91167223D01*
X127380768Y-91175133D01*
X127367371Y-91184011D01*
X127354771Y-91193859D01*
X127343091Y-91204462D01*
X127332559Y-91215720D01*
X127323177Y-91227632D01*
X127314943Y-91240199D01*
X127307858Y-91253420D01*
X127301922Y-91267295D01*
X127297135Y-91281825D01*
X127293497Y-91297008D01*
X127291008Y-91312846D01*
X127289667Y-91329339D01*
X127289412Y-91340697D01*
X127158217Y-91340697D01*
X127158107Y-91333956D01*
X127158560Y-91313802D01*
X127159920Y-91294151D01*
X127162187Y-91275004D01*
X127165361Y-91256360D01*
X127169441Y-91238221D01*
X127174428Y-91220585D01*
X127180322Y-91203453D01*
X127187123Y-91186824D01*
X127194830Y-91170700D01*
X127203445Y-91155079D01*
X127212965Y-91139962D01*
X127223393Y-91125348D01*
X127234727Y-91111239D01*
X127246969Y-91097633D01*
X127260117Y-91084531D01*
X127274171Y-91071933D01*
X127289170Y-91059936D01*
X127305152Y-91048714D01*
X127322116Y-91038266D01*
X127340062Y-91028592D01*
X127358990Y-91019691D01*
X127378901Y-91011565D01*
X127399794Y-91004212D01*
X127421669Y-90997634D01*
X127444527Y-90991829D01*
X127456324Y-90989217D01*
X127468367Y-90986799D01*
X127480656Y-90984574D01*
X127493189Y-90982542D01*
X127505969Y-90980704D01*
X127518994Y-90979059D01*
X127532265Y-90977608D01*
X127545781Y-90976350D01*
X127559543Y-90975286D01*
X127573550Y-90974415D01*
X127587803Y-90973738D01*
X127602302Y-90973255D01*
X127617046Y-90972964D01*
X127632036Y-90972868D01*
X127664569Y-90972868D01*
X127664569Y-91604480D01*
G37*
G36*
X128096000Y-90661898D02*
G01*
X127176865Y-90661898D01*
X127176865Y-90509490D01*
X127378512Y-90509490D01*
X127364917Y-90500471D01*
X127351758Y-90491291D01*
X127339034Y-90481951D01*
X127326744Y-90472451D01*
X127314890Y-90462790D01*
X127303471Y-90452969D01*
X127292487Y-90442988D01*
X127281938Y-90432847D01*
X127271824Y-90422545D01*
X127262145Y-90412083D01*
X127252901Y-90401461D01*
X127244093Y-90390678D01*
X127235719Y-90379735D01*
X127227780Y-90368632D01*
X127220277Y-90357369D01*
X127213208Y-90345945D01*
X127206536Y-90334322D01*
X127200294Y-90322534D01*
X127194482Y-90310582D01*
X127189101Y-90298464D01*
X127184151Y-90286182D01*
X127179631Y-90273735D01*
X127175541Y-90261123D01*
X127171882Y-90248346D01*
X127168654Y-90235404D01*
X127165856Y-90222297D01*
X127163488Y-90209026D01*
X127161551Y-90195589D01*
X127160044Y-90181988D01*
X127158968Y-90168222D01*
X127158322Y-90154291D01*
X127158107Y-90140195D01*
X127158272Y-90124695D01*
X127158766Y-90109190D01*
X127159591Y-90093680D01*
X127160745Y-90078165D01*
X127162229Y-90062644D01*
X127164042Y-90047119D01*
X127166185Y-90031588D01*
X127168658Y-90016052D01*
X127171461Y-90000511D01*
X127174593Y-89984965D01*
X127176865Y-89974598D01*
X127514506Y-89974598D01*
X127514506Y-90121437D01*
X127296153Y-90121437D01*
X127294211Y-90133119D01*
X127292315Y-90146061D01*
X127290893Y-90157828D01*
X127289833Y-90170072D01*
X127289412Y-90182107D01*
X127290022Y-90198070D01*
X127291854Y-90213977D01*
X127294907Y-90229827D01*
X127299180Y-90245621D01*
X127304675Y-90261358D01*
X127311390Y-90277038D01*
X127319327Y-90292661D01*
X127325296Y-90303045D01*
X127331809Y-90313404D01*
X127338863Y-90323738D01*
X127346461Y-90334047D01*
X127354601Y-90344330D01*
X127358875Y-90349462D01*
X127367830Y-90359704D01*
X127377330Y-90369914D01*
X127387375Y-90380093D01*
X127397966Y-90390239D01*
X127409101Y-90400352D01*
X127420781Y-90410434D01*
X127433006Y-90420484D01*
X127445776Y-90430502D01*
X127459091Y-90440488D01*
X127472951Y-90450441D01*
X127487356Y-90460363D01*
X127502306Y-90470252D01*
X127517801Y-90480110D01*
X127533841Y-90489935D01*
X127550426Y-90499729D01*
X127567556Y-90509490D01*
X128096000Y-90509490D01*
X128096000Y-90661898D01*
G37*
G36*
X127578853Y-88944328D02*
G01*
X127598385Y-88945046D01*
X127617651Y-88946242D01*
X127636652Y-88947917D01*
X127655387Y-88950071D01*
X127673856Y-88952703D01*
X127692060Y-88955814D01*
X127709998Y-88959403D01*
X127727671Y-88963471D01*
X127745077Y-88968017D01*
X127762219Y-88973042D01*
X127779094Y-88978545D01*
X127795704Y-88984527D01*
X127812049Y-88990988D01*
X127828128Y-88997927D01*
X127843941Y-89005345D01*
X127859415Y-89013124D01*
X127874477Y-89021222D01*
X127889127Y-89029638D01*
X127903365Y-89038373D01*
X127917191Y-89047425D01*
X127930604Y-89056796D01*
X127943606Y-89066485D01*
X127956195Y-89076493D01*
X127968372Y-89086819D01*
X127980137Y-89097463D01*
X127991490Y-89108425D01*
X128002430Y-89119706D01*
X128012958Y-89131304D01*
X128023075Y-89143222D01*
X128032779Y-89155457D01*
X128042071Y-89168011D01*
X128050873Y-89180912D01*
X128059107Y-89194192D01*
X128066773Y-89207849D01*
X128073871Y-89221885D01*
X128080402Y-89236298D01*
X128086364Y-89251088D01*
X128091759Y-89266257D01*
X128096586Y-89281803D01*
X128100845Y-89297728D01*
X128104536Y-89314030D01*
X128107659Y-89330710D01*
X128110214Y-89347767D01*
X128112202Y-89365203D01*
X128113622Y-89383016D01*
X128114473Y-89401207D01*
X128114757Y-89419776D01*
X128114443Y-89434265D01*
X128113737Y-89447463D01*
X128112629Y-89462090D01*
X128111533Y-89473998D01*
X128110211Y-89486710D01*
X128108662Y-89500225D01*
X128106886Y-89514544D01*
X128104884Y-89529667D01*
X128102655Y-89545594D01*
X128101861Y-89551081D01*
X128099938Y-89562828D01*
X128098083Y-89575450D01*
X128096435Y-89587403D01*
X128096000Y-89590648D01*
X128096000Y-89743056D01*
X126764192Y-89743056D01*
X126764192Y-89590648D01*
X127376460Y-89590648D01*
X127363114Y-89581714D01*
X127350187Y-89572568D01*
X127337679Y-89563212D01*
X127325590Y-89553646D01*
X127313921Y-89543868D01*
X127302670Y-89533880D01*
X127291838Y-89523682D01*
X127281425Y-89513272D01*
X127271431Y-89502652D01*
X127261857Y-89491822D01*
X127252701Y-89480780D01*
X127243964Y-89469528D01*
X127235647Y-89458066D01*
X127227748Y-89446393D01*
X127220269Y-89434509D01*
X127213208Y-89422414D01*
X127206536Y-89410275D01*
X127200294Y-89398257D01*
X127194482Y-89386360D01*
X127189101Y-89374585D01*
X127184151Y-89362931D01*
X127179631Y-89351399D01*
X127175541Y-89339988D01*
X127171882Y-89328698D01*
X127167201Y-89311991D01*
X127163488Y-89295557D01*
X127160744Y-89279396D01*
X127160710Y-89279092D01*
X127289412Y-89279092D01*
X127290058Y-89292575D01*
X127291998Y-89306315D01*
X127295231Y-89320313D01*
X127299757Y-89334569D01*
X127305576Y-89349082D01*
X127312689Y-89363853D01*
X127321094Y-89378881D01*
X127327416Y-89389043D01*
X127334313Y-89399320D01*
X127341785Y-89409711D01*
X127349831Y-89420216D01*
X127358452Y-89430836D01*
X127362978Y-89436189D01*
X127372373Y-89446822D01*
X127382166Y-89457324D01*
X127392358Y-89467695D01*
X127402948Y-89477937D01*
X127413937Y-89488047D01*
X127425324Y-89498027D01*
X127437109Y-89507876D01*
X127449293Y-89517595D01*
X127461876Y-89527184D01*
X127474856Y-89536642D01*
X127488236Y-89545969D01*
X127502013Y-89555166D01*
X127516189Y-89564232D01*
X127530764Y-89573168D01*
X127545736Y-89581974D01*
X127561108Y-89590648D01*
X127961764Y-89590648D01*
X127965640Y-89575212D01*
X127969134Y-89560008D01*
X127972248Y-89545035D01*
X127974980Y-89530295D01*
X127977331Y-89515786D01*
X127979301Y-89501509D01*
X127980890Y-89487463D01*
X127982097Y-89473650D01*
X127982923Y-89460069D01*
X127983368Y-89446719D01*
X127983452Y-89437948D01*
X127983020Y-89420791D01*
X127981721Y-89403977D01*
X127979557Y-89387506D01*
X127976528Y-89371379D01*
X127972633Y-89355596D01*
X127967873Y-89340156D01*
X127962247Y-89325060D01*
X127955755Y-89310307D01*
X127948398Y-89295897D01*
X127940176Y-89281831D01*
X127931087Y-89268108D01*
X127921134Y-89254729D01*
X127910315Y-89241693D01*
X127898630Y-89229001D01*
X127886080Y-89216652D01*
X127872664Y-89204647D01*
X127858497Y-89193183D01*
X127843694Y-89182459D01*
X127828254Y-89172475D01*
X127812177Y-89163230D01*
X127795464Y-89154724D01*
X127778114Y-89146958D01*
X127760128Y-89139932D01*
X127741505Y-89133646D01*
X127722246Y-89128099D01*
X127702350Y-89123291D01*
X127681818Y-89119224D01*
X127660649Y-89115895D01*
X127638843Y-89113307D01*
X127616401Y-89111458D01*
X127593323Y-89110348D01*
X127581544Y-89110071D01*
X127569607Y-89109979D01*
X127552404Y-89110181D01*
X127535746Y-89110789D01*
X127519633Y-89111802D01*
X127504065Y-89113221D01*
X127489042Y-89115045D01*
X127474563Y-89117274D01*
X127460630Y-89119908D01*
X127447242Y-89122948D01*
X127434398Y-89126393D01*
X127422100Y-89130243D01*
X127410346Y-89134499D01*
X127399138Y-89139159D01*
X127388475Y-89144226D01*
X127373501Y-89152585D01*
X127359754Y-89161856D01*
X127347183Y-89171651D01*
X127335849Y-89181694D01*
X127325751Y-89191985D01*
X127316889Y-89202522D01*
X127309264Y-89213307D01*
X127302876Y-89224339D01*
X127297724Y-89235619D01*
X127293808Y-89247145D01*
X127291129Y-89258919D01*
X127289687Y-89270941D01*
X127289412Y-89279092D01*
X127160710Y-89279092D01*
X127158968Y-89263508D01*
X127158161Y-89247893D01*
X127158107Y-89242749D01*
X127158496Y-89228478D01*
X127159664Y-89214388D01*
X127161610Y-89200479D01*
X127164335Y-89186750D01*
X127167839Y-89173203D01*
X127172120Y-89159836D01*
X127177181Y-89146650D01*
X127183020Y-89133646D01*
X127189637Y-89120822D01*
X127197033Y-89108179D01*
X127205208Y-89095717D01*
X127214161Y-89083435D01*
X127223892Y-89071335D01*
X127234402Y-89059416D01*
X127245691Y-89047677D01*
X127257758Y-89036120D01*
X127270579Y-89024975D01*
X127284200Y-89014550D01*
X127298624Y-89004843D01*
X127313848Y-88995856D01*
X127329875Y-88987588D01*
X127346702Y-88980038D01*
X127364331Y-88973208D01*
X127382762Y-88967096D01*
X127401993Y-88961704D01*
X127422027Y-88957031D01*
X127442861Y-88953076D01*
X127464497Y-88949841D01*
X127486935Y-88947324D01*
X127510174Y-88945527D01*
X127522094Y-88944898D01*
X127534214Y-88944448D01*
X127546535Y-88944179D01*
X127559056Y-88944089D01*
X127578853Y-88944328D01*
G37*
G36*
X127649002Y-87913988D02*
G01*
X127661727Y-87914334D01*
X127674314Y-87914911D01*
X127686761Y-87915718D01*
X127699071Y-87916756D01*
X127711241Y-87918025D01*
X127723274Y-87919525D01*
X127735167Y-87921255D01*
X127746922Y-87923216D01*
X127758539Y-87925407D01*
X127770017Y-87927830D01*
X127792558Y-87933366D01*
X127814544Y-87939826D01*
X127835976Y-87947208D01*
X127856855Y-87955513D01*
X127877179Y-87964741D01*
X127896949Y-87974891D01*
X127916164Y-87985965D01*
X127934826Y-87997961D01*
X127952934Y-88010880D01*
X127970487Y-88024721D01*
X127979056Y-88031988D01*
X127995489Y-88047057D01*
X128010861Y-88062735D01*
X128025173Y-88079023D01*
X128038425Y-88095919D01*
X128050617Y-88113424D01*
X128061749Y-88131539D01*
X128071821Y-88150262D01*
X128080832Y-88169595D01*
X128088783Y-88189536D01*
X128095674Y-88210087D01*
X128101505Y-88231247D01*
X128106276Y-88253016D01*
X128109987Y-88275394D01*
X128112637Y-88298381D01*
X128113565Y-88310103D01*
X128114227Y-88321977D01*
X128114625Y-88334004D01*
X128114757Y-88346182D01*
X128114625Y-88358415D01*
X128114227Y-88370494D01*
X128113565Y-88382419D01*
X128112637Y-88394190D01*
X128109987Y-88417270D01*
X128106276Y-88439733D01*
X128101505Y-88461581D01*
X128095674Y-88482813D01*
X128088783Y-88503429D01*
X128080832Y-88523429D01*
X128071821Y-88542813D01*
X128061749Y-88561582D01*
X128050617Y-88579734D01*
X128038425Y-88597270D01*
X128025173Y-88614190D01*
X128010861Y-88630495D01*
X127995489Y-88646183D01*
X127979056Y-88661256D01*
X127961780Y-88675559D01*
X127943949Y-88688939D01*
X127925565Y-88701397D01*
X127906626Y-88712931D01*
X127887133Y-88723543D01*
X127867086Y-88733232D01*
X127846485Y-88741999D01*
X127825330Y-88749842D01*
X127803620Y-88756763D01*
X127781357Y-88762761D01*
X127758539Y-88767837D01*
X127746922Y-88770028D01*
X127735167Y-88771989D01*
X127723274Y-88773719D01*
X127711241Y-88775219D01*
X127699071Y-88776488D01*
X127686761Y-88777526D01*
X127674314Y-88778333D01*
X127661727Y-88778910D01*
X127649002Y-88779256D01*
X127636139Y-88779371D01*
X127623276Y-88779256D01*
X127610553Y-88778910D01*
X127597970Y-88778333D01*
X127585526Y-88777526D01*
X127573222Y-88776488D01*
X127561057Y-88775219D01*
X127549033Y-88773719D01*
X127537147Y-88771989D01*
X127525402Y-88770028D01*
X127513796Y-88767837D01*
X127491004Y-88762761D01*
X127468770Y-88756763D01*
X127447095Y-88749842D01*
X127425979Y-88741999D01*
X127405421Y-88733232D01*
X127385422Y-88723543D01*
X127365982Y-88712931D01*
X127347101Y-88701397D01*
X127328778Y-88688939D01*
X127311014Y-88675559D01*
X127293808Y-88661256D01*
X127277376Y-88646183D01*
X127262003Y-88630495D01*
X127247691Y-88614190D01*
X127234439Y-88597270D01*
X127222247Y-88579734D01*
X127211115Y-88561582D01*
X127201044Y-88542813D01*
X127192032Y-88523429D01*
X127184081Y-88503429D01*
X127177190Y-88482813D01*
X127171359Y-88461581D01*
X127166588Y-88439733D01*
X127162878Y-88417270D01*
X127160227Y-88394190D01*
X127159300Y-88382419D01*
X127158637Y-88370494D01*
X127158239Y-88358415D01*
X127158107Y-88346182D01*
X127289412Y-88346182D01*
X127289774Y-88361336D01*
X127290859Y-88376096D01*
X127292668Y-88390462D01*
X127295200Y-88404434D01*
X127298457Y-88418013D01*
X127302436Y-88431197D01*
X127307139Y-88443988D01*
X127312566Y-88456385D01*
X127318716Y-88468388D01*
X127325590Y-88479997D01*
X127333188Y-88491212D01*
X127341509Y-88502034D01*
X127350554Y-88512461D01*
X127360322Y-88522495D01*
X127370813Y-88532135D01*
X127382029Y-88541381D01*
X127393875Y-88550112D01*
X127406259Y-88558280D01*
X127419182Y-88565884D01*
X127432642Y-88572925D01*
X127446641Y-88579403D01*
X127461177Y-88585317D01*
X127476252Y-88590669D01*
X127491865Y-88595457D01*
X127508016Y-88599681D01*
X127524705Y-88603343D01*
X127541932Y-88606441D01*
X127559697Y-88608975D01*
X127578000Y-88610947D01*
X127596842Y-88612355D01*
X127616221Y-88613200D01*
X127636139Y-88613482D01*
X127656128Y-88613200D01*
X127675574Y-88612355D01*
X127694477Y-88610947D01*
X127712837Y-88608975D01*
X127730655Y-88606441D01*
X127747931Y-88603343D01*
X127764663Y-88599681D01*
X127780853Y-88595457D01*
X127796500Y-88590669D01*
X127811605Y-88585317D01*
X127826166Y-88579403D01*
X127840186Y-88572925D01*
X127853662Y-88565884D01*
X127866596Y-88558280D01*
X127878987Y-88550112D01*
X127890836Y-88541381D01*
X127902051Y-88532135D01*
X127912543Y-88522495D01*
X127922311Y-88512461D01*
X127931355Y-88502034D01*
X127939676Y-88491212D01*
X127947274Y-88479997D01*
X127954148Y-88468388D01*
X127960298Y-88456385D01*
X127965725Y-88443988D01*
X127970428Y-88431197D01*
X127974408Y-88418013D01*
X127977664Y-88404434D01*
X127980196Y-88390462D01*
X127982005Y-88376096D01*
X127983091Y-88361336D01*
X127983452Y-88346182D01*
X127983091Y-88331101D01*
X127982005Y-88316411D01*
X127980196Y-88302112D01*
X127977664Y-88288205D01*
X127974408Y-88274690D01*
X127970428Y-88261566D01*
X127965725Y-88248834D01*
X127960298Y-88236493D01*
X127954148Y-88224544D01*
X127947274Y-88212986D01*
X127939676Y-88201820D01*
X127931355Y-88191045D01*
X127922311Y-88180662D01*
X127912543Y-88170671D01*
X127902051Y-88161071D01*
X127890836Y-88151863D01*
X127878987Y-88143096D01*
X127866596Y-88134895D01*
X127853662Y-88127260D01*
X127840186Y-88120191D01*
X127826166Y-88113686D01*
X127811605Y-88107748D01*
X127796500Y-88102375D01*
X127780853Y-88097568D01*
X127764663Y-88093326D01*
X127747931Y-88089649D01*
X127730655Y-88086539D01*
X127712837Y-88083994D01*
X127694477Y-88082014D01*
X127675574Y-88080600D01*
X127656128Y-88079752D01*
X127636139Y-88079469D01*
X127616221Y-88079752D01*
X127596842Y-88080600D01*
X127578000Y-88082014D01*
X127559697Y-88083994D01*
X127541932Y-88086539D01*
X127524705Y-88089649D01*
X127508016Y-88093326D01*
X127491865Y-88097568D01*
X127476252Y-88102375D01*
X127461177Y-88107748D01*
X127446641Y-88113686D01*
X127432642Y-88120191D01*
X127419182Y-88127260D01*
X127406259Y-88134895D01*
X127393875Y-88143096D01*
X127382029Y-88151863D01*
X127370813Y-88161071D01*
X127360322Y-88170671D01*
X127350554Y-88180662D01*
X127341509Y-88191045D01*
X127333188Y-88201820D01*
X127325590Y-88212986D01*
X127318716Y-88224544D01*
X127312566Y-88236493D01*
X127307139Y-88248834D01*
X127302436Y-88261566D01*
X127298457Y-88274690D01*
X127295200Y-88288205D01*
X127292668Y-88302112D01*
X127290859Y-88316411D01*
X127289774Y-88331101D01*
X127289412Y-88346182D01*
X127158107Y-88346182D01*
X127158239Y-88334004D01*
X127158637Y-88321977D01*
X127159300Y-88310103D01*
X127160227Y-88298381D01*
X127162878Y-88275394D01*
X127166588Y-88253016D01*
X127171359Y-88231247D01*
X127177190Y-88210087D01*
X127184081Y-88189536D01*
X127192032Y-88169595D01*
X127201044Y-88150262D01*
X127211115Y-88131539D01*
X127222247Y-88113424D01*
X127234439Y-88095919D01*
X127247691Y-88079023D01*
X127262003Y-88062735D01*
X127277376Y-88047057D01*
X127293808Y-88031988D01*
X127311014Y-88017685D01*
X127328778Y-88004305D01*
X127347101Y-87991847D01*
X127365982Y-87980313D01*
X127385422Y-87969701D01*
X127405421Y-87960011D01*
X127425979Y-87951245D01*
X127447095Y-87943401D01*
X127468770Y-87936481D01*
X127491004Y-87930483D01*
X127513796Y-87925407D01*
X127525402Y-87923216D01*
X127537147Y-87921255D01*
X127549033Y-87919525D01*
X127561057Y-87918025D01*
X127573222Y-87916756D01*
X127585526Y-87915718D01*
X127597970Y-87914911D01*
X127610553Y-87914334D01*
X127623276Y-87913988D01*
X127636139Y-87913872D01*
X127649002Y-87913988D01*
G37*
G36*
X128096000Y-87620195D02*
G01*
X128096000Y-87796343D01*
X127616502Y-87436427D01*
X127176865Y-87772602D01*
X127176865Y-87577404D01*
X127487542Y-87339706D01*
X127176865Y-87106406D01*
X127176865Y-86933482D01*
X127602434Y-87251486D01*
X128096000Y-86873691D01*
X128096000Y-87069769D01*
X127731980Y-87348206D01*
X128096000Y-87620195D01*
G37*
G36*
X127195559Y-84895868D02*
G01*
X127210607Y-84896620D01*
X127225527Y-84897874D01*
X127240319Y-84899629D01*
X127254983Y-84901885D01*
X127269518Y-84904643D01*
X127283926Y-84907903D01*
X127298205Y-84911664D01*
X127312355Y-84915926D01*
X127326378Y-84920690D01*
X127340272Y-84925955D01*
X127354039Y-84931722D01*
X127367676Y-84937991D01*
X127381186Y-84944760D01*
X127394568Y-84952031D01*
X127407821Y-84959804D01*
X127420820Y-84967989D01*
X127433439Y-84976570D01*
X127445678Y-84985547D01*
X127457536Y-84994920D01*
X127469015Y-85004689D01*
X127480114Y-85014855D01*
X127490832Y-85025417D01*
X127501170Y-85036374D01*
X127511129Y-85047728D01*
X127520707Y-85059478D01*
X127529905Y-85071624D01*
X127538723Y-85084166D01*
X127547161Y-85097105D01*
X127555218Y-85110439D01*
X127562896Y-85124170D01*
X127570193Y-85138297D01*
X127577079Y-85152903D01*
X127583520Y-85168146D01*
X127589517Y-85184026D01*
X127595070Y-85200542D01*
X127600178Y-85217695D01*
X127604842Y-85235484D01*
X127609062Y-85253910D01*
X127612838Y-85272972D01*
X127616170Y-85292671D01*
X127619057Y-85313007D01*
X127621501Y-85333979D01*
X127623500Y-85355587D01*
X127625054Y-85377833D01*
X127626165Y-85400714D01*
X127626831Y-85424233D01*
X127626998Y-85436231D01*
X127627053Y-85448387D01*
X127627053Y-85515799D01*
X128096000Y-85515799D01*
X128096000Y-85681395D01*
X126820466Y-85681395D01*
X126820466Y-85515799D01*
X126951771Y-85515799D01*
X127495748Y-85515799D01*
X127495748Y-85444284D01*
X127495596Y-85425430D01*
X127495139Y-85407190D01*
X127494378Y-85389563D01*
X127493312Y-85372550D01*
X127491942Y-85356151D01*
X127490267Y-85340365D01*
X127488287Y-85325193D01*
X127486003Y-85310635D01*
X127483414Y-85296690D01*
X127480521Y-85283359D01*
X127477324Y-85270641D01*
X127473821Y-85258538D01*
X127470015Y-85247047D01*
X127463733Y-85230963D01*
X127456767Y-85216259D01*
X127449104Y-85202550D01*
X127440844Y-85189448D01*
X127431986Y-85176955D01*
X127422530Y-85165069D01*
X127412477Y-85153791D01*
X127401826Y-85143121D01*
X127390578Y-85133059D01*
X127378732Y-85123606D01*
X127366288Y-85114760D01*
X127353246Y-85106522D01*
X127344220Y-85101367D01*
X127330373Y-85094191D01*
X127316310Y-85087721D01*
X127302030Y-85081957D01*
X127287534Y-85076899D01*
X127272822Y-85072546D01*
X127257893Y-85068899D01*
X127242748Y-85065958D01*
X127227386Y-85063723D01*
X127211809Y-85062194D01*
X127196014Y-85061371D01*
X127185364Y-85061214D01*
X127172059Y-85061494D01*
X127159105Y-85062336D01*
X127146505Y-85063738D01*
X127134257Y-85065702D01*
X127122361Y-85068226D01*
X127110818Y-85071312D01*
X127099628Y-85074958D01*
X127083504Y-85081480D01*
X127068174Y-85089264D01*
X127053636Y-85098310D01*
X127039893Y-85108618D01*
X127026942Y-85120188D01*
X127018749Y-85128603D01*
X127014785Y-85133021D01*
X127007155Y-85142543D01*
X127000016Y-85153157D01*
X126993370Y-85164864D01*
X126987216Y-85177663D01*
X126981555Y-85191554D01*
X126976386Y-85206537D01*
X126971709Y-85222612D01*
X126967524Y-85239780D01*
X126963832Y-85258040D01*
X126960632Y-85277392D01*
X126957924Y-85297836D01*
X126955709Y-85319372D01*
X126953986Y-85342001D01*
X126953309Y-85353725D01*
X126952755Y-85365722D01*
X126952324Y-85377992D01*
X126952017Y-85390535D01*
X126951832Y-85403351D01*
X126951771Y-85416441D01*
X126951771Y-85515799D01*
X126820466Y-85515799D01*
X126820466Y-85364856D01*
X126820509Y-85352760D01*
X126820637Y-85340870D01*
X126821153Y-85317710D01*
X126822011Y-85295377D01*
X126823213Y-85273870D01*
X126824759Y-85253190D01*
X126826648Y-85233336D01*
X126828881Y-85214309D01*
X126831457Y-85196109D01*
X126834376Y-85178735D01*
X126837639Y-85162188D01*
X126841245Y-85146468D01*
X126845195Y-85131574D01*
X126849489Y-85117507D01*
X126854125Y-85104266D01*
X126859106Y-85091852D01*
X126864429Y-85080265D01*
X126870047Y-85069254D01*
X126875984Y-85058571D01*
X126882238Y-85048216D01*
X126888811Y-85038188D01*
X126895702Y-85028487D01*
X126902911Y-85019114D01*
X126910439Y-85010068D01*
X126918285Y-85001350D01*
X126930651Y-84988886D01*
X126943732Y-84977159D01*
X126952851Y-84969751D01*
X126962289Y-84962670D01*
X126972044Y-84955916D01*
X126982118Y-84949490D01*
X126992510Y-84943391D01*
X127003102Y-84937606D01*
X127013846Y-84932194D01*
X127024745Y-84927155D01*
X127035796Y-84922490D01*
X127047001Y-84918198D01*
X127058360Y-84914279D01*
X127069872Y-84910733D01*
X127081537Y-84907561D01*
X127093356Y-84904761D01*
X127105328Y-84902335D01*
X127117453Y-84900283D01*
X127129732Y-84898603D01*
X127142164Y-84897297D01*
X127154750Y-84896364D01*
X127167489Y-84895804D01*
X127180382Y-84895617D01*
X127195559Y-84895868D01*
G37*
G36*
X128078414Y-83925191D02*
G01*
X128085086Y-83942918D01*
X128091328Y-83960413D01*
X128097140Y-83977677D01*
X128102521Y-83994709D01*
X128107471Y-84011510D01*
X128111991Y-84028080D01*
X128116081Y-84044419D01*
X128119740Y-84060526D01*
X128122968Y-84076403D01*
X128125767Y-84092047D01*
X128128134Y-84107461D01*
X128130071Y-84122643D01*
X128131578Y-84137595D01*
X128132654Y-84152314D01*
X128133300Y-84166803D01*
X128133515Y-84181060D01*
X128133203Y-84199651D01*
X128132265Y-84218054D01*
X128130702Y-84236269D01*
X128128514Y-84254296D01*
X128125701Y-84272136D01*
X128122263Y-84289788D01*
X128118200Y-84307252D01*
X128113512Y-84324528D01*
X128108198Y-84341617D01*
X128102260Y-84358518D01*
X128095696Y-84375231D01*
X128088507Y-84391756D01*
X128080693Y-84408094D01*
X128072255Y-84424244D01*
X128063190Y-84440206D01*
X128053501Y-84455980D01*
X128043195Y-84471443D01*
X128032280Y-84486471D01*
X128020755Y-84501063D01*
X128008622Y-84515221D01*
X127995879Y-84528944D01*
X127982527Y-84542231D01*
X127968567Y-84555084D01*
X127953997Y-84567501D01*
X127938818Y-84579484D01*
X127923030Y-84591031D01*
X127906633Y-84602143D01*
X127889627Y-84612821D01*
X127872011Y-84623063D01*
X127853787Y-84632870D01*
X127834954Y-84642242D01*
X127815511Y-84651179D01*
X127795603Y-84659626D01*
X127775371Y-84667528D01*
X127754817Y-84674885D01*
X127733940Y-84681697D01*
X127712740Y-84687964D01*
X127691217Y-84693686D01*
X127669372Y-84698863D01*
X127647203Y-84703496D01*
X127624712Y-84707583D01*
X127601898Y-84711125D01*
X127578761Y-84714123D01*
X127567071Y-84715417D01*
X127555301Y-84716575D01*
X127543450Y-84717597D01*
X127531518Y-84718482D01*
X127519506Y-84719232D01*
X127507412Y-84719845D01*
X127495239Y-84720322D01*
X127482984Y-84720662D01*
X127470649Y-84720866D01*
X127458233Y-84720935D01*
X127445907Y-84720867D01*
X127433661Y-84720666D01*
X127421494Y-84720329D01*
X127409405Y-84719858D01*
X127397396Y-84719253D01*
X127385466Y-84718513D01*
X127373614Y-84717639D01*
X127361842Y-84716630D01*
X127350149Y-84715486D01*
X127326999Y-84712796D01*
X127304166Y-84709567D01*
X127281648Y-84705801D01*
X127259446Y-84701496D01*
X127237561Y-84696653D01*
X127215991Y-84691272D01*
X127194737Y-84685353D01*
X127173799Y-84678896D01*
X127153178Y-84671900D01*
X127132872Y-84664367D01*
X127112882Y-84656296D01*
X127103006Y-84652058D01*
X127083594Y-84643228D01*
X127064780Y-84633955D01*
X127046564Y-84624241D01*
X127028945Y-84614084D01*
X127011924Y-84603486D01*
X126995501Y-84592446D01*
X126979675Y-84580964D01*
X126964447Y-84569040D01*
X126949816Y-84556674D01*
X126935783Y-84543866D01*
X126922348Y-84530616D01*
X126909510Y-84516925D01*
X126897270Y-84502791D01*
X126885628Y-84488215D01*
X126874583Y-84473198D01*
X126864136Y-84457739D01*
X126854305Y-84441923D01*
X126845108Y-84425911D01*
X126836546Y-84409701D01*
X126828617Y-84393295D01*
X126821323Y-84376692D01*
X126814663Y-84359892D01*
X126808638Y-84342895D01*
X126803247Y-84325701D01*
X126798490Y-84308310D01*
X126794367Y-84290722D01*
X126790878Y-84272938D01*
X126788024Y-84254956D01*
X126785804Y-84236777D01*
X126784218Y-84218402D01*
X126783267Y-84199830D01*
X126782950Y-84181060D01*
X126783164Y-84166803D01*
X126783806Y-84152314D01*
X126784877Y-84137595D01*
X126786375Y-84122643D01*
X126788302Y-84107461D01*
X126790657Y-84092047D01*
X126793441Y-84076403D01*
X126796652Y-84060526D01*
X126800292Y-84044419D01*
X126804359Y-84028080D01*
X126808855Y-84011510D01*
X126813780Y-83994709D01*
X126819132Y-83977677D01*
X126824912Y-83960413D01*
X126831121Y-83942918D01*
X126837758Y-83925191D01*
X126969063Y-83925191D01*
X126962426Y-83941708D01*
X126956217Y-83958210D01*
X126950437Y-83974699D01*
X126945084Y-83991174D01*
X126940160Y-84007635D01*
X126935664Y-84024082D01*
X126931597Y-84040516D01*
X126927957Y-84056936D01*
X126924746Y-84073342D01*
X126921962Y-84089735D01*
X126919607Y-84106114D01*
X126917680Y-84122479D01*
X126916182Y-84138830D01*
X126915111Y-84155167D01*
X126914469Y-84171491D01*
X126914255Y-84187801D01*
X126914516Y-84200046D01*
X126915299Y-84212160D01*
X126916604Y-84224144D01*
X126918431Y-84235997D01*
X126920781Y-84247719D01*
X126923652Y-84259311D01*
X126927046Y-84270773D01*
X126930961Y-84282103D01*
X126935399Y-84293304D01*
X126940358Y-84304374D01*
X126945840Y-84315313D01*
X126951844Y-84326122D01*
X126958370Y-84336801D01*
X126965418Y-84347348D01*
X126972988Y-84357766D01*
X126981080Y-84368053D01*
X126989677Y-84378115D01*
X126998761Y-84387932D01*
X127008334Y-84397505D01*
X127018394Y-84406832D01*
X127028942Y-84415915D01*
X127039977Y-84424752D01*
X127051501Y-84433344D01*
X127063512Y-84441692D01*
X127076010Y-84449794D01*
X127088997Y-84457651D01*
X127102471Y-84465264D01*
X127116433Y-84472631D01*
X127130883Y-84479754D01*
X127145820Y-84486631D01*
X127161245Y-84493263D01*
X127177158Y-84499651D01*
X127193367Y-84505684D01*
X127209755Y-84511328D01*
X127226322Y-84516583D01*
X127243067Y-84521449D01*
X127259991Y-84525926D01*
X127277093Y-84530013D01*
X127294374Y-84533711D01*
X127311833Y-84537020D01*
X127329472Y-84539939D01*
X127347288Y-84542469D01*
X127365284Y-84544610D01*
X127383458Y-84546362D01*
X127401810Y-84547724D01*
X127420341Y-84548698D01*
X127439051Y-84549281D01*
X127457939Y-84549476D01*
X127477082Y-84549275D01*
X127496041Y-84548670D01*
X127514818Y-84547663D01*
X127533411Y-84546252D01*
X127551820Y-84544439D01*
X127570047Y-84542222D01*
X127588090Y-84539603D01*
X127605951Y-84536580D01*
X127623628Y-84533155D01*
X127641122Y-84529326D01*
X127658432Y-84525095D01*
X127675560Y-84520460D01*
X127692504Y-84515423D01*
X127709265Y-84509982D01*
X127725843Y-84504139D01*
X127742238Y-84497892D01*
X127758285Y-84491296D01*
X127773819Y-84484479D01*
X127788840Y-84477439D01*
X127803348Y-84470177D01*
X127817343Y-84462692D01*
X127830825Y-84454986D01*
X127843794Y-84447058D01*
X127856251Y-84438907D01*
X127868194Y-84430535D01*
X127879625Y-84421940D01*
X127890542Y-84413123D01*
X127900947Y-84404084D01*
X127910839Y-84394823D01*
X127920218Y-84385340D01*
X127929084Y-84375635D01*
X127937437Y-84365708D01*
X127945281Y-84355602D01*
X127952618Y-84345361D01*
X127959450Y-84334985D01*
X127965775Y-84324474D01*
X127971595Y-84313827D01*
X127976908Y-84303046D01*
X127981716Y-84292129D01*
X127986017Y-84281078D01*
X127989812Y-84269891D01*
X127993102Y-84258569D01*
X127995885Y-84247112D01*
X127998162Y-84235520D01*
X127999933Y-84223793D01*
X128001198Y-84211931D01*
X128001957Y-84199934D01*
X128002210Y-84187801D01*
X128001995Y-84171560D01*
X128001349Y-84155296D01*
X128000273Y-84139008D01*
X127998766Y-84122698D01*
X127996829Y-84106365D01*
X127994462Y-84090010D01*
X127991664Y-84073631D01*
X127988435Y-84057229D01*
X127984776Y-84040805D01*
X127980686Y-84024357D01*
X127976166Y-84007887D01*
X127971216Y-83991393D01*
X127965835Y-83974877D01*
X127960023Y-83958338D01*
X127953781Y-83941776D01*
X127947109Y-83925191D01*
X128078414Y-83925191D01*
G37*
G36*
X127786289Y-82923807D02*
G01*
X127801827Y-82925012D01*
X127817283Y-82927022D01*
X127832657Y-82929835D01*
X127847948Y-82933451D01*
X127863157Y-82937872D01*
X127878283Y-82943096D01*
X127893327Y-82949124D01*
X127908288Y-82955955D01*
X127923167Y-82963591D01*
X127933041Y-82969127D01*
X127947449Y-82977967D01*
X127961219Y-82987451D01*
X127974349Y-82997579D01*
X127986841Y-83008351D01*
X127998694Y-83019767D01*
X128009908Y-83031827D01*
X128020484Y-83044531D01*
X128030420Y-83057879D01*
X128039718Y-83071871D01*
X128048377Y-83086507D01*
X128053794Y-83096622D01*
X128058905Y-83107265D01*
X128063686Y-83118677D01*
X128068137Y-83130859D01*
X128072259Y-83143810D01*
X128076051Y-83157530D01*
X128079513Y-83172020D01*
X128082646Y-83187279D01*
X128085448Y-83203307D01*
X128087921Y-83220105D01*
X128090064Y-83237672D01*
X128091878Y-83256009D01*
X128093362Y-83275115D01*
X128094516Y-83294990D01*
X128095340Y-83315635D01*
X128095835Y-83337049D01*
X128096000Y-83359232D01*
X128096000Y-83668443D01*
X126820466Y-83668443D01*
X126820466Y-83502554D01*
X126951771Y-83502554D01*
X127401959Y-83502554D01*
X127533264Y-83502554D01*
X127964695Y-83502554D01*
X127964695Y-83346043D01*
X127964461Y-83329898D01*
X127963760Y-83314288D01*
X127962593Y-83299215D01*
X127960958Y-83284677D01*
X127958856Y-83270675D01*
X127956286Y-83257209D01*
X127953250Y-83244278D01*
X127949747Y-83231884D01*
X127945776Y-83220025D01*
X127941339Y-83208702D01*
X127936434Y-83197915D01*
X127928201Y-83182739D01*
X127918917Y-83168768D01*
X127908582Y-83156003D01*
X127904904Y-83152016D01*
X127893424Y-83140807D01*
X127881517Y-83130701D01*
X127869183Y-83121697D01*
X127856420Y-83113795D01*
X127843230Y-83106996D01*
X127829613Y-83101300D01*
X127815567Y-83096706D01*
X127801095Y-83093215D01*
X127786194Y-83090826D01*
X127770866Y-83089540D01*
X127760410Y-83089295D01*
X127745105Y-83089835D01*
X127730112Y-83091456D01*
X127715429Y-83094158D01*
X127701059Y-83097941D01*
X127687000Y-83102804D01*
X127673252Y-83108749D01*
X127659815Y-83115774D01*
X127646690Y-83123879D01*
X127637099Y-83130641D01*
X127627889Y-83138068D01*
X127619060Y-83146159D01*
X127610613Y-83154915D01*
X127602546Y-83164336D01*
X127594861Y-83174421D01*
X127587557Y-83185170D01*
X127580635Y-83196584D01*
X127574094Y-83208663D01*
X127567933Y-83221407D01*
X127564039Y-83230272D01*
X127558539Y-83244512D01*
X127553580Y-83260194D01*
X127549162Y-83277320D01*
X127546517Y-83289538D01*
X127544113Y-83302397D01*
X127541949Y-83315898D01*
X127540026Y-83330040D01*
X127538343Y-83344822D01*
X127536900Y-83360246D01*
X127535698Y-83376311D01*
X127534737Y-83393018D01*
X127534015Y-83410365D01*
X127533534Y-83428353D01*
X127533294Y-83446983D01*
X127533264Y-83456538D01*
X127533264Y-83502554D01*
X127401959Y-83502554D01*
X127401959Y-83328750D01*
X127395224Y-83313323D01*
X127388426Y-83298694D01*
X127381567Y-83284863D01*
X127374647Y-83271831D01*
X127367664Y-83259598D01*
X127360619Y-83248163D01*
X127353513Y-83237527D01*
X127346345Y-83227689D01*
X127336691Y-83215814D01*
X127326928Y-83205359D01*
X127316898Y-83195920D01*
X127306594Y-83187096D01*
X127296016Y-83178884D01*
X127285162Y-83171287D01*
X127274034Y-83164303D01*
X127262631Y-83157933D01*
X127250953Y-83152177D01*
X127239000Y-83147034D01*
X127226695Y-83142500D01*
X127214106Y-83138571D01*
X127201233Y-83135246D01*
X127188076Y-83132526D01*
X127174635Y-83130410D01*
X127160910Y-83128899D01*
X127146901Y-83127992D01*
X127132608Y-83127690D01*
X127115874Y-83128156D01*
X127099965Y-83129555D01*
X127084880Y-83131886D01*
X127070619Y-83135150D01*
X127057183Y-83139346D01*
X127044571Y-83144475D01*
X127032783Y-83150536D01*
X127021819Y-83157530D01*
X127011680Y-83165456D01*
X127002366Y-83174315D01*
X126996614Y-83180739D01*
X126988600Y-83191515D01*
X126981374Y-83204057D01*
X126974937Y-83218367D01*
X126969287Y-83234444D01*
X126965959Y-83246143D01*
X126962981Y-83258628D01*
X126960354Y-83271899D01*
X126958077Y-83285954D01*
X126956150Y-83300796D01*
X126954573Y-83316422D01*
X126953347Y-83332834D01*
X126952471Y-83350032D01*
X126951946Y-83368014D01*
X126951771Y-83386782D01*
X126951771Y-83502554D01*
X126820466Y-83502554D01*
X126820466Y-83419902D01*
X126820499Y-83406033D01*
X126820601Y-83392455D01*
X126820770Y-83379168D01*
X126821006Y-83366170D01*
X126821310Y-83353463D01*
X126821682Y-83341045D01*
X126822121Y-83328918D01*
X126822627Y-83317082D01*
X126823843Y-83294279D01*
X126825329Y-83272637D01*
X126827085Y-83252156D01*
X126829112Y-83232836D01*
X126831408Y-83214677D01*
X126833975Y-83197679D01*
X126836812Y-83181842D01*
X126839920Y-83167165D01*
X126843297Y-83153650D01*
X126846945Y-83141296D01*
X126850862Y-83130102D01*
X126855050Y-83120069D01*
X126861824Y-83106171D01*
X126869174Y-83092942D01*
X126877101Y-83080383D01*
X126885605Y-83068494D01*
X126894686Y-83057275D01*
X126904345Y-83046725D01*
X126914580Y-83036846D01*
X126925392Y-83027636D01*
X126936782Y-83019095D01*
X126948748Y-83011225D01*
X126957046Y-83006350D01*
X126969856Y-82999593D01*
X126983005Y-82993501D01*
X126996495Y-82988073D01*
X127010325Y-82983310D01*
X127024494Y-82979212D01*
X127039004Y-82975778D01*
X127053854Y-82973009D01*
X127069044Y-82970904D01*
X127084574Y-82969464D01*
X127100444Y-82968689D01*
X127111212Y-82968541D01*
X127123955Y-82968737D01*
X127136574Y-82969324D01*
X127149069Y-82970303D01*
X127161441Y-82971673D01*
X127173689Y-82973435D01*
X127185813Y-82975589D01*
X127197814Y-82978134D01*
X127209691Y-82981071D01*
X127221444Y-82984399D01*
X127233074Y-82988119D01*
X127240759Y-82990816D01*
X127252149Y-82995128D01*
X127263349Y-82999822D01*
X127274357Y-83004896D01*
X127285176Y-83010352D01*
X127295804Y-83016190D01*
X127306241Y-83022408D01*
X127316487Y-83029008D01*
X127326543Y-83035989D01*
X127336408Y-83043351D01*
X127346083Y-83051094D01*
X127352427Y-83056468D01*
X127361830Y-83064949D01*
X127371135Y-83074126D01*
X127380343Y-83083998D01*
X127389452Y-83094566D01*
X127398464Y-83105829D01*
X127407378Y-83117788D01*
X127416194Y-83130442D01*
X127424912Y-83143791D01*
X127433532Y-83157837D01*
X127442054Y-83172577D01*
X127447681Y-83182791D01*
X127455299Y-83164197D01*
X127463133Y-83146370D01*
X127471181Y-83129310D01*
X127479445Y-83113017D01*
X127487924Y-83097491D01*
X127496618Y-83082732D01*
X127505528Y-83068741D01*
X127514653Y-83055516D01*
X127523993Y-83043058D01*
X127533548Y-83031368D01*
X127543318Y-83020445D01*
X127553304Y-83010288D01*
X127563505Y-83000899D01*
X127573921Y-82992277D01*
X127584553Y-82984422D01*
X127595399Y-82977334D01*
X127606354Y-82970803D01*
X127617308Y-82964694D01*
X127628262Y-82959006D01*
X127639217Y-82953740D01*
X127650171Y-82948895D01*
X127661125Y-82944471D01*
X127677557Y-82938625D01*
X127693988Y-82933727D01*
X127710419Y-82929777D01*
X127726851Y-82926775D01*
X127743282Y-82924722D01*
X127759714Y-82923616D01*
X127770668Y-82923405D01*
X127786289Y-82923807D01*
G37*
G36*
X128096000Y-81367969D02*
G01*
X127176865Y-81765987D01*
X127176865Y-81598632D01*
X127905490Y-81284438D01*
X127176865Y-80963503D01*
X127176865Y-80811095D01*
X128096000Y-81212044D01*
X128096000Y-81367969D01*
G37*
G36*
X127664569Y-80513900D02*
G01*
X127681578Y-80513553D01*
X127698315Y-80512509D01*
X127714778Y-80510771D01*
X127730968Y-80508336D01*
X127746885Y-80505206D01*
X127762529Y-80501381D01*
X127777900Y-80496860D01*
X127792998Y-80491644D01*
X127807823Y-80485732D01*
X127822375Y-80479124D01*
X127831924Y-80474333D01*
X127845773Y-80466640D01*
X127858962Y-80458510D01*
X127871491Y-80449941D01*
X127883362Y-80440934D01*
X127894572Y-80431490D01*
X127905124Y-80421608D01*
X127915016Y-80411287D01*
X127924248Y-80400529D01*
X127932821Y-80389333D01*
X127940734Y-80377699D01*
X127945644Y-80369699D01*
X127952400Y-80357345D01*
X127958493Y-80344681D01*
X127963920Y-80331709D01*
X127968683Y-80318427D01*
X127972782Y-80304836D01*
X127976216Y-80290936D01*
X127978985Y-80276726D01*
X127981089Y-80262208D01*
X127982529Y-80247381D01*
X127983305Y-80232244D01*
X127983452Y-80221981D01*
X127983083Y-80203395D01*
X127981973Y-80184566D01*
X127980124Y-80165495D01*
X127977536Y-80146181D01*
X127974207Y-80126624D01*
X127970140Y-80106824D01*
X127965332Y-80086781D01*
X127959785Y-80066496D01*
X127953499Y-80045969D01*
X127946473Y-80025198D01*
X127938707Y-80004185D01*
X127930201Y-79982929D01*
X127920956Y-79961430D01*
X127916057Y-79950590D01*
X127910972Y-79939689D01*
X127905702Y-79928727D01*
X127900248Y-79917704D01*
X127894608Y-79906621D01*
X127888784Y-79895478D01*
X128025658Y-79895478D01*
X128031139Y-79906889D01*
X128036447Y-79918262D01*
X128041581Y-79929597D01*
X128046540Y-79940893D01*
X128051326Y-79952151D01*
X128055938Y-79963371D01*
X128060375Y-79974552D01*
X128064639Y-79985695D01*
X128068728Y-79996799D01*
X128072644Y-80007865D01*
X128079953Y-80029883D01*
X128086566Y-80051747D01*
X128092482Y-80073457D01*
X128097703Y-80095014D01*
X128102228Y-80116418D01*
X128106056Y-80137668D01*
X128109189Y-80158765D01*
X128111625Y-80179709D01*
X128113365Y-80200499D01*
X128114409Y-80221135D01*
X128114757Y-80241618D01*
X128114520Y-80257013D01*
X128113809Y-80272201D01*
X128112624Y-80287183D01*
X128110965Y-80301959D01*
X128108833Y-80316529D01*
X128106226Y-80330892D01*
X128103145Y-80345050D01*
X128099590Y-80359002D01*
X128095561Y-80372747D01*
X128091058Y-80386287D01*
X128086081Y-80399620D01*
X128080631Y-80412747D01*
X128074706Y-80425668D01*
X128068307Y-80438384D01*
X128061434Y-80450893D01*
X128054087Y-80463196D01*
X128046263Y-80475243D01*
X128038032Y-80486986D01*
X128029392Y-80498425D01*
X128020345Y-80509559D01*
X128010891Y-80520388D01*
X128001029Y-80530913D01*
X127990759Y-80541134D01*
X127980082Y-80551050D01*
X127968997Y-80560661D01*
X127957505Y-80569968D01*
X127945605Y-80578970D01*
X127933297Y-80587668D01*
X127920582Y-80596061D01*
X127907459Y-80604150D01*
X127893929Y-80611934D01*
X127879991Y-80619413D01*
X127865789Y-80626512D01*
X127851465Y-80633152D01*
X127837020Y-80639334D01*
X127822454Y-80645059D01*
X127807766Y-80650325D01*
X127792957Y-80655134D01*
X127778026Y-80659484D01*
X127762974Y-80663377D01*
X127747801Y-80666812D01*
X127732507Y-80669788D01*
X127717091Y-80672307D01*
X127701553Y-80674368D01*
X127685895Y-80675971D01*
X127670115Y-80677116D01*
X127654213Y-80677803D01*
X127638191Y-80678032D01*
X127622696Y-80677814D01*
X127607279Y-80677161D01*
X127591940Y-80676074D01*
X127576678Y-80674551D01*
X127561495Y-80672593D01*
X127546389Y-80670201D01*
X127531361Y-80667373D01*
X127516411Y-80664110D01*
X127501539Y-80660412D01*
X127486745Y-80656279D01*
X127472028Y-80651711D01*
X127457390Y-80646707D01*
X127442829Y-80641269D01*
X127428346Y-80635396D01*
X127413941Y-80629088D01*
X127399614Y-80622344D01*
X127385524Y-80615175D01*
X127371830Y-80607662D01*
X127358532Y-80599806D01*
X127345631Y-80591606D01*
X127333125Y-80583063D01*
X127321015Y-80574176D01*
X127309302Y-80564946D01*
X127297985Y-80555373D01*
X127287064Y-80545456D01*
X127276539Y-80535195D01*
X127266410Y-80524591D01*
X127256677Y-80513644D01*
X127247341Y-80502353D01*
X127238400Y-80490719D01*
X127229856Y-80478741D01*
X127221708Y-80466420D01*
X127214006Y-80453802D01*
X127206801Y-80441008D01*
X127200093Y-80428037D01*
X127193882Y-80414890D01*
X127188168Y-80401567D01*
X127182951Y-80388068D01*
X127178231Y-80374392D01*
X127174007Y-80360540D01*
X127170281Y-80346512D01*
X127167051Y-80332307D01*
X127164318Y-80317926D01*
X127162082Y-80303369D01*
X127160343Y-80288636D01*
X127159101Y-80273726D01*
X127158355Y-80258640D01*
X127158217Y-80250118D01*
X127289412Y-80250118D01*
X127289997Y-80267265D01*
X127291751Y-80283974D01*
X127294675Y-80300244D01*
X127298768Y-80316077D01*
X127304031Y-80331472D01*
X127310463Y-80346430D01*
X127318065Y-80360949D01*
X127326836Y-80375030D01*
X127336777Y-80388673D01*
X127347887Y-80401879D01*
X127355944Y-80410439D01*
X127364472Y-80418743D01*
X127373497Y-80426729D01*
X127383019Y-80434396D01*
X127393038Y-80441745D01*
X127403554Y-80448776D01*
X127414567Y-80455488D01*
X127426076Y-80461882D01*
X127438083Y-80467958D01*
X127450586Y-80473716D01*
X127463586Y-80479155D01*
X127477083Y-80484276D01*
X127491077Y-80489079D01*
X127505568Y-80493564D01*
X127520556Y-80497730D01*
X127536040Y-80501578D01*
X127552022Y-80505108D01*
X127552022Y-80048178D01*
X127530333Y-80048178D01*
X127516699Y-80048393D01*
X127503419Y-80049039D01*
X127490494Y-80050115D01*
X127477925Y-80051622D01*
X127465710Y-80053559D01*
X127453850Y-80055927D01*
X127442345Y-80058725D01*
X127425753Y-80063729D01*
X127409960Y-80069702D01*
X127394965Y-80076644D01*
X127380768Y-80084554D01*
X127367371Y-80093432D01*
X127354771Y-80103279D01*
X127343091Y-80113883D01*
X127332559Y-80125141D01*
X127323177Y-80137053D01*
X127314943Y-80149620D01*
X127307858Y-80162841D01*
X127301922Y-80176716D01*
X127297135Y-80191245D01*
X127293497Y-80206429D01*
X127291008Y-80222267D01*
X127289667Y-80238760D01*
X127289412Y-80250118D01*
X127158217Y-80250118D01*
X127158107Y-80243377D01*
X127158560Y-80223222D01*
X127159920Y-80203572D01*
X127162187Y-80184424D01*
X127165361Y-80165781D01*
X127169441Y-80147641D01*
X127174428Y-80130006D01*
X127180322Y-80112873D01*
X127187123Y-80096245D01*
X127194830Y-80080121D01*
X127203445Y-80064500D01*
X127212965Y-80049383D01*
X127223393Y-80034769D01*
X127234727Y-80020660D01*
X127246969Y-80007054D01*
X127260117Y-79993952D01*
X127274171Y-79981353D01*
X127289170Y-79969357D01*
X127305152Y-79958135D01*
X127322116Y-79947687D01*
X127340062Y-79938012D01*
X127358990Y-79929112D01*
X127378901Y-79920986D01*
X127399794Y-79913633D01*
X127421669Y-79907055D01*
X127444527Y-79901250D01*
X127456324Y-79898638D01*
X127468367Y-79896219D01*
X127480656Y-79893994D01*
X127493189Y-79891963D01*
X127505969Y-79890125D01*
X127518994Y-79888480D01*
X127532265Y-79887029D01*
X127545781Y-79885771D01*
X127559543Y-79884707D01*
X127573550Y-79883836D01*
X127587803Y-79883159D01*
X127602302Y-79882675D01*
X127617046Y-79882385D01*
X127632036Y-79882288D01*
X127664569Y-79882288D01*
X127664569Y-80513900D01*
G37*
G36*
X128096000Y-79571318D02*
G01*
X127176865Y-79571318D01*
X127176865Y-79418911D01*
X127378512Y-79418911D01*
X127364917Y-79409891D01*
X127351758Y-79400712D01*
X127339034Y-79391372D01*
X127326744Y-79381871D01*
X127314890Y-79372211D01*
X127303471Y-79362390D01*
X127292487Y-79352409D01*
X127281938Y-79342267D01*
X127271824Y-79331966D01*
X127262145Y-79321504D01*
X127252901Y-79310882D01*
X127244093Y-79300099D01*
X127235719Y-79289156D01*
X127227780Y-79278053D01*
X127220277Y-79266790D01*
X127213208Y-79255366D01*
X127206536Y-79243743D01*
X127200294Y-79231955D01*
X127194482Y-79220003D01*
X127189101Y-79207885D01*
X127184151Y-79195603D01*
X127179631Y-79183155D01*
X127175541Y-79170543D01*
X127171882Y-79157766D01*
X127168654Y-79144825D01*
X127165856Y-79131718D01*
X127163488Y-79118446D01*
X127161551Y-79105010D01*
X127160044Y-79091409D01*
X127158968Y-79077643D01*
X127158322Y-79063712D01*
X127158107Y-79049616D01*
X127158272Y-79034116D01*
X127158766Y-79018611D01*
X127159591Y-79003101D01*
X127160745Y-78987586D01*
X127162229Y-78972065D01*
X127164042Y-78956540D01*
X127166185Y-78941009D01*
X127168658Y-78925473D01*
X127171461Y-78909932D01*
X127174593Y-78894386D01*
X127176865Y-78884019D01*
X127514506Y-78884019D01*
X127514506Y-79030858D01*
X127296153Y-79030858D01*
X127294211Y-79042540D01*
X127292315Y-79055482D01*
X127290893Y-79067249D01*
X127289833Y-79079493D01*
X127289412Y-79091528D01*
X127290022Y-79107491D01*
X127291854Y-79123398D01*
X127294907Y-79139248D01*
X127299180Y-79155042D01*
X127304675Y-79170778D01*
X127311390Y-79186458D01*
X127319327Y-79202082D01*
X127325296Y-79212466D01*
X127331809Y-79222825D01*
X127338863Y-79233159D01*
X127346461Y-79243467D01*
X127354601Y-79253751D01*
X127358875Y-79258883D01*
X127367830Y-79269125D01*
X127377330Y-79279335D01*
X127387375Y-79289513D01*
X127397966Y-79299659D01*
X127409101Y-79309773D01*
X127420781Y-79319855D01*
X127433006Y-79329905D01*
X127445776Y-79339923D01*
X127459091Y-79349908D01*
X127472951Y-79359862D01*
X127487356Y-79369784D01*
X127502306Y-79379673D01*
X127517801Y-79389531D01*
X127533841Y-79399356D01*
X127550426Y-79409150D01*
X127567556Y-79418911D01*
X128096000Y-79418911D01*
X128096000Y-79571318D01*
G37*
G36*
X128096000Y-76867550D02*
G01*
X128096000Y-77637794D01*
X127957660Y-77637794D01*
X127944206Y-77637451D01*
X127930513Y-77636420D01*
X127916582Y-77634703D01*
X127902413Y-77632299D01*
X127888005Y-77629208D01*
X127873360Y-77625430D01*
X127858476Y-77620964D01*
X127847157Y-77617165D01*
X127843355Y-77615812D01*
X127831793Y-77611283D01*
X127819968Y-77606048D01*
X127807881Y-77600107D01*
X127795530Y-77593460D01*
X127782917Y-77586107D01*
X127770042Y-77578048D01*
X127756903Y-77569284D01*
X127743502Y-77559814D01*
X127729838Y-77549638D01*
X127715911Y-77538756D01*
X127706481Y-77531109D01*
X127696973Y-77523277D01*
X127687499Y-77515387D01*
X127678059Y-77507441D01*
X127668654Y-77499437D01*
X127659283Y-77491376D01*
X127649946Y-77483257D01*
X127640644Y-77475082D01*
X127631376Y-77466849D01*
X127622143Y-77458559D01*
X127612944Y-77450211D01*
X127603779Y-77441807D01*
X127594648Y-77433345D01*
X127585552Y-77424826D01*
X127576490Y-77416249D01*
X127567463Y-77407616D01*
X127558470Y-77398925D01*
X127469077Y-77312170D01*
X127458806Y-77302410D01*
X127448065Y-77292417D01*
X127438536Y-77283648D01*
X127427745Y-77273787D01*
X127415692Y-77262834D01*
X127406955Y-77254925D01*
X127397658Y-77246531D01*
X127387799Y-77237651D01*
X127377379Y-77228286D01*
X127366399Y-77218435D01*
X127354857Y-77208099D01*
X127342755Y-77197278D01*
X127330552Y-77186450D01*
X127318712Y-77176093D01*
X127307233Y-77166208D01*
X127296116Y-77156795D01*
X127285361Y-77147853D01*
X127274968Y-77139383D01*
X127264936Y-77131385D01*
X127255267Y-77123859D01*
X127241441Y-77113453D01*
X127228428Y-77104109D01*
X127216230Y-77095827D01*
X127204846Y-77088605D01*
X127194276Y-77082445D01*
X127190933Y-77080628D01*
X127177703Y-77073964D01*
X127164537Y-77068189D01*
X127151435Y-77063303D01*
X127138397Y-77059305D01*
X127125423Y-77056196D01*
X127112513Y-77053975D01*
X127099667Y-77052642D01*
X127086886Y-77052198D01*
X127071721Y-77052775D01*
X127057221Y-77054506D01*
X127043385Y-77057391D01*
X127030214Y-77061430D01*
X127017707Y-77066623D01*
X127005865Y-77072971D01*
X126994688Y-77080472D01*
X126984176Y-77089127D01*
X126974327Y-77098937D01*
X126965144Y-77109900D01*
X126959391Y-77117850D01*
X126951325Y-77130302D01*
X126944052Y-77143037D01*
X126937572Y-77156055D01*
X126931886Y-77169356D01*
X126926994Y-77182941D01*
X126922894Y-77196810D01*
X126919588Y-77210961D01*
X126917076Y-77225396D01*
X126915357Y-77240115D01*
X126914431Y-77255117D01*
X126914255Y-77265275D01*
X126914424Y-77277168D01*
X126914933Y-77289400D01*
X126915780Y-77301971D01*
X126916966Y-77314881D01*
X126918491Y-77328130D01*
X126920355Y-77341717D01*
X126922558Y-77355643D01*
X126925099Y-77369909D01*
X126927801Y-77384124D01*
X126930631Y-77397899D01*
X126933590Y-77411235D01*
X126936676Y-77424131D01*
X126939891Y-77436587D01*
X126943234Y-77448604D01*
X126946706Y-77460181D01*
X126950305Y-77471318D01*
X126954367Y-77483010D01*
X126959373Y-77496396D01*
X126963746Y-77507548D01*
X126968650Y-77519652D01*
X126974084Y-77532710D01*
X126980049Y-77546721D01*
X126986545Y-77561685D01*
X126993572Y-77577602D01*
X126998551Y-77588743D01*
X127003766Y-77600307D01*
X127009217Y-77612295D01*
X126871757Y-77612295D01*
X126865542Y-77599362D01*
X126859575Y-77586425D01*
X126853855Y-77573487D01*
X126848383Y-77560546D01*
X126843157Y-77547603D01*
X126838179Y-77534658D01*
X126833449Y-77521711D01*
X126828965Y-77508761D01*
X126824729Y-77495809D01*
X126820740Y-77482854D01*
X126816999Y-77469898D01*
X126813505Y-77456939D01*
X126810258Y-77443977D01*
X126807258Y-77431014D01*
X126804506Y-77418048D01*
X126802001Y-77405080D01*
X126799694Y-77392254D01*
X126797536Y-77379714D01*
X126795527Y-77367460D01*
X126793666Y-77355492D01*
X126791955Y-77343811D01*
X126789666Y-77326826D01*
X126787713Y-77310484D01*
X126786094Y-77294787D01*
X126784810Y-77279734D01*
X126783862Y-77265325D01*
X126783248Y-77251559D01*
X126782969Y-77238438D01*
X126782950Y-77234207D01*
X126783078Y-77221851D01*
X126783463Y-77209620D01*
X126784104Y-77197515D01*
X126785002Y-77185536D01*
X126786156Y-77173683D01*
X126787566Y-77161956D01*
X126790163Y-77144601D01*
X126793336Y-77127530D01*
X126797087Y-77110742D01*
X126801415Y-77094238D01*
X126806319Y-77078017D01*
X126811801Y-77062079D01*
X126815776Y-77051612D01*
X126822248Y-77036380D01*
X126829353Y-77021902D01*
X126837093Y-77008175D01*
X126845465Y-76995201D01*
X126854472Y-76982978D01*
X126864112Y-76971508D01*
X126874386Y-76960790D01*
X126885294Y-76950825D01*
X126896835Y-76941611D01*
X126909010Y-76933150D01*
X126917479Y-76927927D01*
X126930476Y-76920646D01*
X126943637Y-76914082D01*
X126956964Y-76908233D01*
X126970455Y-76903101D01*
X126984111Y-76898685D01*
X126997933Y-76894985D01*
X127011918Y-76892001D01*
X127026069Y-76889733D01*
X127040385Y-76888182D01*
X127054866Y-76887346D01*
X127064611Y-76887187D01*
X127080971Y-76887646D01*
X127097408Y-76889021D01*
X127113923Y-76891314D01*
X127130515Y-76894524D01*
X127147184Y-76898650D01*
X127163931Y-76903694D01*
X127175138Y-76907566D01*
X127186380Y-76911846D01*
X127197656Y-76916533D01*
X127208966Y-76921628D01*
X127220311Y-76927130D01*
X127231690Y-76933040D01*
X127243103Y-76939357D01*
X127254734Y-76946204D01*
X127266766Y-76953774D01*
X127279198Y-76962067D01*
X127292031Y-76971085D01*
X127305265Y-76980825D01*
X127318900Y-76991290D01*
X127332935Y-77002477D01*
X127347371Y-77014389D01*
X127362207Y-77027024D01*
X127377445Y-77040382D01*
X127393083Y-77054465D01*
X127409121Y-77069270D01*
X127425561Y-77084800D01*
X127442401Y-77101052D01*
X127450971Y-77109450D01*
X127459642Y-77118029D01*
X127468413Y-77126788D01*
X127477284Y-77135729D01*
X127570780Y-77229225D01*
X127648449Y-77308066D01*
X127657919Y-77317297D01*
X127667353Y-77326302D01*
X127676751Y-77335084D01*
X127686111Y-77343640D01*
X127695435Y-77351973D01*
X127704722Y-77360081D01*
X127713973Y-77367965D01*
X127723187Y-77375624D01*
X127732365Y-77383059D01*
X127746062Y-77393791D01*
X127759677Y-77404017D01*
X127773210Y-77413739D01*
X127786660Y-77422956D01*
X127795581Y-77428820D01*
X127809119Y-77437035D01*
X127823137Y-77444534D01*
X127837634Y-77451316D01*
X127852610Y-77457383D01*
X127868065Y-77462733D01*
X127883999Y-77467367D01*
X127900413Y-77471285D01*
X127917305Y-77474487D01*
X127934677Y-77476973D01*
X127946524Y-77478233D01*
X127958585Y-77479174D01*
X127964695Y-77479525D01*
X127964695Y-76867550D01*
X128096000Y-76867550D01*
G37*
G36*
X128114757Y-76248248D02*
G01*
X128114153Y-76261712D01*
X128112339Y-76274699D01*
X128109317Y-76287211D01*
X128105085Y-76299246D01*
X128099645Y-76310805D01*
X128092995Y-76321887D01*
X128085137Y-76332493D01*
X128076069Y-76342623D01*
X128066159Y-76351828D01*
X128055773Y-76359806D01*
X128044910Y-76366556D01*
X128033571Y-76372079D01*
X128021756Y-76376375D01*
X128009464Y-76379443D01*
X127996696Y-76381284D01*
X127983452Y-76381898D01*
X127970011Y-76381275D01*
X127957092Y-76379406D01*
X127944696Y-76376292D01*
X127932821Y-76371933D01*
X127921468Y-76366327D01*
X127910637Y-76359476D01*
X127900329Y-76351379D01*
X127890542Y-76342037D01*
X127881544Y-76331852D01*
X127873745Y-76321228D01*
X127867145Y-76310163D01*
X127861746Y-76298660D01*
X127857547Y-76286716D01*
X127854547Y-76274333D01*
X127852747Y-76261510D01*
X127852147Y-76248248D01*
X127852747Y-76234917D01*
X127854547Y-76222035D01*
X127857547Y-76209601D01*
X127861746Y-76197616D01*
X127867145Y-76186080D01*
X127873745Y-76174993D01*
X127881544Y-76164355D01*
X127890542Y-76154166D01*
X127900329Y-76144823D01*
X127910637Y-76136727D01*
X127921468Y-76129876D01*
X127932821Y-76124270D01*
X127944696Y-76119911D01*
X127957092Y-76116796D01*
X127970011Y-76114928D01*
X127983452Y-76114305D01*
X127996696Y-76114923D01*
X128009464Y-76116778D01*
X128021756Y-76119869D01*
X128033571Y-76124197D01*
X128044910Y-76129761D01*
X128055773Y-76136562D01*
X128066159Y-76144599D01*
X128076069Y-76153872D01*
X128085137Y-76163938D01*
X128092995Y-76174499D01*
X128099645Y-76185554D01*
X128105085Y-76197103D01*
X128109317Y-76209148D01*
X128112339Y-76221687D01*
X128114153Y-76234720D01*
X128114757Y-76248248D01*
G37*
G36*
X127964695Y-75277529D02*
G01*
X126994855Y-75277529D01*
X127005152Y-75290410D01*
X127015161Y-75303224D01*
X127024881Y-75315971D01*
X127034312Y-75328651D01*
X127043456Y-75341264D01*
X127052310Y-75353810D01*
X127060876Y-75366289D01*
X127069154Y-75378701D01*
X127077143Y-75391046D01*
X127084843Y-75403324D01*
X127089817Y-75411472D01*
X127097193Y-75424042D01*
X127104596Y-75437462D01*
X127112024Y-75451732D01*
X127119478Y-75466852D01*
X127126958Y-75482823D01*
X127131959Y-75493942D01*
X127136971Y-75505439D01*
X127141995Y-75517314D01*
X127147030Y-75529566D01*
X127152077Y-75542197D01*
X127157135Y-75555205D01*
X127162205Y-75568591D01*
X127167286Y-75582355D01*
X127169831Y-75589378D01*
X127017716Y-75589378D01*
X127012910Y-75578196D01*
X127008016Y-75567106D01*
X127003034Y-75556109D01*
X126997965Y-75545204D01*
X126992808Y-75534392D01*
X126987563Y-75523673D01*
X126982231Y-75513047D01*
X126976812Y-75502513D01*
X126971304Y-75492073D01*
X126965710Y-75481725D01*
X126960027Y-75471469D01*
X126948400Y-75451237D01*
X126936422Y-75431375D01*
X126924094Y-75411885D01*
X126911415Y-75392765D01*
X126898386Y-75374016D01*
X126885007Y-75355639D01*
X126871278Y-75337632D01*
X126857198Y-75319996D01*
X126842768Y-75302731D01*
X126827987Y-75285837D01*
X126820466Y-75277529D01*
X126820466Y-75125122D01*
X127964695Y-75125122D01*
X127964695Y-74819134D01*
X128096000Y-74819134D01*
X128096000Y-75589378D01*
X127964695Y-75589378D01*
X127964695Y-75277529D01*
G37*
X172564285Y-63937128D02*
X172692857Y-63979985D01*
X172692857Y-63979985D02*
X172735714Y-64022842D01*
X172735714Y-64022842D02*
X172778571Y-64108557D01*
X172778571Y-64108557D02*
X172778571Y-64237128D01*
X172778571Y-64237128D02*
X172735714Y-64322842D01*
X172735714Y-64322842D02*
X172692857Y-64365700D01*
X172692857Y-64365700D02*
X172607142Y-64408557D01*
X172607142Y-64408557D02*
X172264285Y-64408557D01*
X172264285Y-64408557D02*
X172264285Y-63508557D01*
X172264285Y-63508557D02*
X172564285Y-63508557D01*
X172564285Y-63508557D02*
X172650000Y-63551414D01*
X172650000Y-63551414D02*
X172692857Y-63594271D01*
X172692857Y-63594271D02*
X172735714Y-63679985D01*
X172735714Y-63679985D02*
X172735714Y-63765700D01*
X172735714Y-63765700D02*
X172692857Y-63851414D01*
X172692857Y-63851414D02*
X172650000Y-63894271D01*
X172650000Y-63894271D02*
X172564285Y-63937128D01*
X172564285Y-63937128D02*
X172264285Y-63937128D01*
X179448585Y-82814286D02*
X179491442Y-82728572D01*
X179491442Y-82728572D02*
X179491442Y-82600000D01*
X179491442Y-82600000D02*
X179448585Y-82471429D01*
X179448585Y-82471429D02*
X179362871Y-82385714D01*
X179362871Y-82385714D02*
X179277157Y-82342857D01*
X179277157Y-82342857D02*
X179105728Y-82300000D01*
X179105728Y-82300000D02*
X178977157Y-82300000D01*
X178977157Y-82300000D02*
X178805728Y-82342857D01*
X178805728Y-82342857D02*
X178720014Y-82385714D01*
X178720014Y-82385714D02*
X178634300Y-82471429D01*
X178634300Y-82471429D02*
X178591442Y-82600000D01*
X178591442Y-82600000D02*
X178591442Y-82685714D01*
X178591442Y-82685714D02*
X178634300Y-82814286D01*
X178634300Y-82814286D02*
X178677157Y-82857143D01*
X178677157Y-82857143D02*
X178977157Y-82857143D01*
X178977157Y-82857143D02*
X178977157Y-82685714D01*
X178591442Y-83242857D02*
X179491442Y-83242857D01*
X179491442Y-83242857D02*
X178591442Y-83757143D01*
X178591442Y-83757143D02*
X179491442Y-83757143D01*
X178591442Y-84185714D02*
X179491442Y-84185714D01*
X179491442Y-84185714D02*
X179491442Y-84400000D01*
X179491442Y-84400000D02*
X179448585Y-84528571D01*
X179448585Y-84528571D02*
X179362871Y-84614286D01*
X179362871Y-84614286D02*
X179277157Y-84657143D01*
X179277157Y-84657143D02*
X179105728Y-84700000D01*
X179105728Y-84700000D02*
X178977157Y-84700000D01*
X178977157Y-84700000D02*
X178805728Y-84657143D01*
X178805728Y-84657143D02*
X178720014Y-84614286D01*
X178720014Y-84614286D02*
X178634300Y-84528571D01*
X178634300Y-84528571D02*
X178591442Y-84400000D01*
X178591442Y-84400000D02*
X178591442Y-84185714D01*
X178591442Y-85660714D02*
X179491442Y-85660714D01*
X179491442Y-85660714D02*
X179491442Y-85875000D01*
X179491442Y-85875000D02*
X179448585Y-86003571D01*
X179448585Y-86003571D02*
X179362871Y-86089286D01*
X179362871Y-86089286D02*
X179277157Y-86132143D01*
X179277157Y-86132143D02*
X179105728Y-86175000D01*
X179105728Y-86175000D02*
X178977157Y-86175000D01*
X178977157Y-86175000D02*
X178805728Y-86132143D01*
X178805728Y-86132143D02*
X178720014Y-86089286D01*
X178720014Y-86089286D02*
X178634300Y-86003571D01*
X178634300Y-86003571D02*
X178591442Y-85875000D01*
X178591442Y-85875000D02*
X178591442Y-85660714D01*
X178848585Y-86517857D02*
X178848585Y-86946429D01*
X178591442Y-86432143D02*
X179491442Y-86732143D01*
X179491442Y-86732143D02*
X178591442Y-87032143D01*
X179491442Y-87203572D02*
X179491442Y-87717858D01*
X178591442Y-87460715D02*
X179491442Y-87460715D01*
X155814286Y-63432414D02*
X155728572Y-63389557D01*
X155728572Y-63389557D02*
X155600000Y-63389557D01*
X155600000Y-63389557D02*
X155471429Y-63432414D01*
X155471429Y-63432414D02*
X155385714Y-63518128D01*
X155385714Y-63518128D02*
X155342857Y-63603842D01*
X155342857Y-63603842D02*
X155300000Y-63775271D01*
X155300000Y-63775271D02*
X155300000Y-63903842D01*
X155300000Y-63903842D02*
X155342857Y-64075271D01*
X155342857Y-64075271D02*
X155385714Y-64160985D01*
X155385714Y-64160985D02*
X155471429Y-64246700D01*
X155471429Y-64246700D02*
X155600000Y-64289557D01*
X155600000Y-64289557D02*
X155685714Y-64289557D01*
X155685714Y-64289557D02*
X155814286Y-64246700D01*
X155814286Y-64246700D02*
X155857143Y-64203842D01*
X155857143Y-64203842D02*
X155857143Y-63903842D01*
X155857143Y-63903842D02*
X155685714Y-63903842D01*
X156242857Y-64289557D02*
X156242857Y-63389557D01*
X156242857Y-63389557D02*
X156757143Y-64289557D01*
X156757143Y-64289557D02*
X156757143Y-63389557D01*
X157185714Y-64289557D02*
X157185714Y-63389557D01*
X157185714Y-63389557D02*
X157400000Y-63389557D01*
X157400000Y-63389557D02*
X157528571Y-63432414D01*
X157528571Y-63432414D02*
X157614286Y-63518128D01*
X157614286Y-63518128D02*
X157657143Y-63603842D01*
X157657143Y-63603842D02*
X157700000Y-63775271D01*
X157700000Y-63775271D02*
X157700000Y-63903842D01*
X157700000Y-63903842D02*
X157657143Y-64075271D01*
X157657143Y-64075271D02*
X157614286Y-64160985D01*
X157614286Y-64160985D02*
X157528571Y-64246700D01*
X157528571Y-64246700D02*
X157400000Y-64289557D01*
X157400000Y-64289557D02*
X157185714Y-64289557D01*
X165314286Y-63551414D02*
X165228572Y-63508557D01*
X165228572Y-63508557D02*
X165100000Y-63508557D01*
X165100000Y-63508557D02*
X164971429Y-63551414D01*
X164971429Y-63551414D02*
X164885714Y-63637128D01*
X164885714Y-63637128D02*
X164842857Y-63722842D01*
X164842857Y-63722842D02*
X164800000Y-63894271D01*
X164800000Y-63894271D02*
X164800000Y-64022842D01*
X164800000Y-64022842D02*
X164842857Y-64194271D01*
X164842857Y-64194271D02*
X164885714Y-64279985D01*
X164885714Y-64279985D02*
X164971429Y-64365700D01*
X164971429Y-64365700D02*
X165100000Y-64408557D01*
X165100000Y-64408557D02*
X165185714Y-64408557D01*
X165185714Y-64408557D02*
X165314286Y-64365700D01*
X165314286Y-64365700D02*
X165357143Y-64322842D01*
X165357143Y-64322842D02*
X165357143Y-64022842D01*
X165357143Y-64022842D02*
X165185714Y-64022842D01*
X165742857Y-64408557D02*
X165742857Y-63508557D01*
X165742857Y-63508557D02*
X166257143Y-64408557D01*
X166257143Y-64408557D02*
X166257143Y-63508557D01*
X166685714Y-64408557D02*
X166685714Y-63508557D01*
X166685714Y-63508557D02*
X166900000Y-63508557D01*
X166900000Y-63508557D02*
X167028571Y-63551414D01*
X167028571Y-63551414D02*
X167114286Y-63637128D01*
X167114286Y-63637128D02*
X167157143Y-63722842D01*
X167157143Y-63722842D02*
X167200000Y-63894271D01*
X167200000Y-63894271D02*
X167200000Y-64022842D01*
X167200000Y-64022842D02*
X167157143Y-64194271D01*
X167157143Y-64194271D02*
X167114286Y-64279985D01*
X167114286Y-64279985D02*
X167028571Y-64365700D01*
X167028571Y-64365700D02*
X166900000Y-64408557D01*
X166900000Y-64408557D02*
X166685714Y-64408557D01*
X159324819Y-71766666D02*
X158848628Y-72099999D01*
X159324819Y-72338094D02*
X158324819Y-72338094D01*
X158324819Y-72338094D02*
X158324819Y-71957142D01*
X158324819Y-71957142D02*
X158372438Y-71861904D01*
X158372438Y-71861904D02*
X158420057Y-71814285D01*
X158420057Y-71814285D02*
X158515295Y-71766666D01*
X158515295Y-71766666D02*
X158658152Y-71766666D01*
X158658152Y-71766666D02*
X158753390Y-71814285D01*
X158753390Y-71814285D02*
X158801009Y-71861904D01*
X158801009Y-71861904D02*
X158848628Y-71957142D01*
X158848628Y-71957142D02*
X158848628Y-72338094D01*
X158658152Y-70909523D02*
X159324819Y-70909523D01*
X158277200Y-71147618D02*
X158991485Y-71385713D01*
X158991485Y-71385713D02*
X158991485Y-70766666D01*
X166880952Y-54454819D02*
X166404762Y-54454819D01*
X166404762Y-54454819D02*
X166404762Y-53454819D01*
X167214286Y-53931009D02*
X167547619Y-53931009D01*
X167690476Y-54454819D02*
X167214286Y-54454819D01*
X167214286Y-54454819D02*
X167214286Y-53454819D01*
X167214286Y-53454819D02*
X167690476Y-53454819D01*
X168119048Y-54454819D02*
X168119048Y-53454819D01*
X168119048Y-53454819D02*
X168357143Y-53454819D01*
X168357143Y-53454819D02*
X168500000Y-53502438D01*
X168500000Y-53502438D02*
X168595238Y-53597676D01*
X168595238Y-53597676D02*
X168642857Y-53692914D01*
X168642857Y-53692914D02*
X168690476Y-53883390D01*
X168690476Y-53883390D02*
X168690476Y-54026247D01*
X168690476Y-54026247D02*
X168642857Y-54216723D01*
X168642857Y-54216723D02*
X168595238Y-54311961D01*
X168595238Y-54311961D02*
X168500000Y-54407200D01*
X168500000Y-54407200D02*
X168357143Y-54454819D01*
X168357143Y-54454819D02*
X168119048Y-54454819D01*
X169071429Y-53550057D02*
X169119048Y-53502438D01*
X169119048Y-53502438D02*
X169214286Y-53454819D01*
X169214286Y-53454819D02*
X169452381Y-53454819D01*
X169452381Y-53454819D02*
X169547619Y-53502438D01*
X169547619Y-53502438D02*
X169595238Y-53550057D01*
X169595238Y-53550057D02*
X169642857Y-53645295D01*
X169642857Y-53645295D02*
X169642857Y-53740533D01*
X169642857Y-53740533D02*
X169595238Y-53883390D01*
X169595238Y-53883390D02*
X169023810Y-54454819D01*
X169023810Y-54454819D02*
X169642857Y-54454819D01*
X181738095Y-77407200D02*
X181880952Y-77454819D01*
X181880952Y-77454819D02*
X182119047Y-77454819D01*
X182119047Y-77454819D02*
X182214285Y-77407200D01*
X182214285Y-77407200D02*
X182261904Y-77359580D01*
X182261904Y-77359580D02*
X182309523Y-77264342D01*
X182309523Y-77264342D02*
X182309523Y-77169104D01*
X182309523Y-77169104D02*
X182261904Y-77073866D01*
X182261904Y-77073866D02*
X182214285Y-77026247D01*
X182214285Y-77026247D02*
X182119047Y-76978628D01*
X182119047Y-76978628D02*
X181928571Y-76931009D01*
X181928571Y-76931009D02*
X181833333Y-76883390D01*
X181833333Y-76883390D02*
X181785714Y-76835771D01*
X181785714Y-76835771D02*
X181738095Y-76740533D01*
X181738095Y-76740533D02*
X181738095Y-76645295D01*
X181738095Y-76645295D02*
X181785714Y-76550057D01*
X181785714Y-76550057D02*
X181833333Y-76502438D01*
X181833333Y-76502438D02*
X181928571Y-76454819D01*
X181928571Y-76454819D02*
X182166666Y-76454819D01*
X182166666Y-76454819D02*
X182309523Y-76502438D01*
X182738095Y-76931009D02*
X183071428Y-76931009D01*
X183214285Y-77454819D02*
X182738095Y-77454819D01*
X182738095Y-77454819D02*
X182738095Y-76454819D01*
X182738095Y-76454819D02*
X183214285Y-76454819D01*
X183642857Y-77454819D02*
X183642857Y-76454819D01*
X183642857Y-76454819D02*
X184214285Y-77454819D01*
X184214285Y-77454819D02*
X184214285Y-76454819D01*
X184642857Y-77407200D02*
X184785714Y-77454819D01*
X184785714Y-77454819D02*
X185023809Y-77454819D01*
X185023809Y-77454819D02*
X185119047Y-77407200D01*
X185119047Y-77407200D02*
X185166666Y-77359580D01*
X185166666Y-77359580D02*
X185214285Y-77264342D01*
X185214285Y-77264342D02*
X185214285Y-77169104D01*
X185214285Y-77169104D02*
X185166666Y-77073866D01*
X185166666Y-77073866D02*
X185119047Y-77026247D01*
X185119047Y-77026247D02*
X185023809Y-76978628D01*
X185023809Y-76978628D02*
X184833333Y-76931009D01*
X184833333Y-76931009D02*
X184738095Y-76883390D01*
X184738095Y-76883390D02*
X184690476Y-76835771D01*
X184690476Y-76835771D02*
X184642857Y-76740533D01*
X184642857Y-76740533D02*
X184642857Y-76645295D01*
X184642857Y-76645295D02*
X184690476Y-76550057D01*
X184690476Y-76550057D02*
X184738095Y-76502438D01*
X184738095Y-76502438D02*
X184833333Y-76454819D01*
X184833333Y-76454819D02*
X185071428Y-76454819D01*
X185071428Y-76454819D02*
X185214285Y-76502438D01*
X185833333Y-76454819D02*
X186023809Y-76454819D01*
X186023809Y-76454819D02*
X186119047Y-76502438D01*
X186119047Y-76502438D02*
X186214285Y-76597676D01*
X186214285Y-76597676D02*
X186261904Y-76788152D01*
X186261904Y-76788152D02*
X186261904Y-77121485D01*
X186261904Y-77121485D02*
X186214285Y-77311961D01*
X186214285Y-77311961D02*
X186119047Y-77407200D01*
X186119047Y-77407200D02*
X186023809Y-77454819D01*
X186023809Y-77454819D02*
X185833333Y-77454819D01*
X185833333Y-77454819D02*
X185738095Y-77407200D01*
X185738095Y-77407200D02*
X185642857Y-77311961D01*
X185642857Y-77311961D02*
X185595238Y-77121485D01*
X185595238Y-77121485D02*
X185595238Y-76788152D01*
X185595238Y-76788152D02*
X185642857Y-76597676D01*
X185642857Y-76597676D02*
X185738095Y-76502438D01*
X185738095Y-76502438D02*
X185833333Y-76454819D01*
X187261904Y-77454819D02*
X186928571Y-76978628D01*
X186690476Y-77454819D02*
X186690476Y-76454819D01*
X186690476Y-76454819D02*
X187071428Y-76454819D01*
X187071428Y-76454819D02*
X187166666Y-76502438D01*
X187166666Y-76502438D02*
X187214285Y-76550057D01*
X187214285Y-76550057D02*
X187261904Y-76645295D01*
X187261904Y-76645295D02*
X187261904Y-76788152D01*
X187261904Y-76788152D02*
X187214285Y-76883390D01*
X187214285Y-76883390D02*
X187166666Y-76931009D01*
X187166666Y-76931009D02*
X187071428Y-76978628D01*
X187071428Y-76978628D02*
X186690476Y-76978628D01*
X139238095Y-69150438D02*
X139142857Y-69102819D01*
X139142857Y-69102819D02*
X139000000Y-69102819D01*
X139000000Y-69102819D02*
X138857143Y-69150438D01*
X138857143Y-69150438D02*
X138761905Y-69245676D01*
X138761905Y-69245676D02*
X138714286Y-69340914D01*
X138714286Y-69340914D02*
X138666667Y-69531390D01*
X138666667Y-69531390D02*
X138666667Y-69674247D01*
X138666667Y-69674247D02*
X138714286Y-69864723D01*
X138714286Y-69864723D02*
X138761905Y-69959961D01*
X138761905Y-69959961D02*
X138857143Y-70055200D01*
X138857143Y-70055200D02*
X139000000Y-70102819D01*
X139000000Y-70102819D02*
X139095238Y-70102819D01*
X139095238Y-70102819D02*
X139238095Y-70055200D01*
X139238095Y-70055200D02*
X139285714Y-70007580D01*
X139285714Y-70007580D02*
X139285714Y-69674247D01*
X139285714Y-69674247D02*
X139095238Y-69674247D01*
X139714286Y-70102819D02*
X139714286Y-69102819D01*
X139714286Y-69102819D02*
X140285714Y-70102819D01*
X140285714Y-70102819D02*
X140285714Y-69102819D01*
X140761905Y-70102819D02*
X140761905Y-69102819D01*
X140761905Y-69102819D02*
X141000000Y-69102819D01*
X141000000Y-69102819D02*
X141142857Y-69150438D01*
X141142857Y-69150438D02*
X141238095Y-69245676D01*
X141238095Y-69245676D02*
X141285714Y-69340914D01*
X141285714Y-69340914D02*
X141333333Y-69531390D01*
X141333333Y-69531390D02*
X141333333Y-69674247D01*
X141333333Y-69674247D02*
X141285714Y-69864723D01*
X141285714Y-69864723D02*
X141238095Y-69959961D01*
X141238095Y-69959961D02*
X141142857Y-70055200D01*
X141142857Y-70055200D02*
X141000000Y-70102819D01*
X141000000Y-70102819D02*
X140761905Y-70102819D01*
X67014819Y-111664285D02*
X66014819Y-111664285D01*
X66014819Y-111664285D02*
X66014819Y-111283333D01*
X66014819Y-111283333D02*
X66062438Y-111188095D01*
X66062438Y-111188095D02*
X66110057Y-111140476D01*
X66110057Y-111140476D02*
X66205295Y-111092857D01*
X66205295Y-111092857D02*
X66348152Y-111092857D01*
X66348152Y-111092857D02*
X66443390Y-111140476D01*
X66443390Y-111140476D02*
X66491009Y-111188095D01*
X66491009Y-111188095D02*
X66538628Y-111283333D01*
X66538628Y-111283333D02*
X66538628Y-111664285D01*
X66967200Y-110711904D02*
X67014819Y-110569047D01*
X67014819Y-110569047D02*
X67014819Y-110330952D01*
X67014819Y-110330952D02*
X66967200Y-110235714D01*
X66967200Y-110235714D02*
X66919580Y-110188095D01*
X66919580Y-110188095D02*
X66824342Y-110140476D01*
X66824342Y-110140476D02*
X66729104Y-110140476D01*
X66729104Y-110140476D02*
X66633866Y-110188095D01*
X66633866Y-110188095D02*
X66586247Y-110235714D01*
X66586247Y-110235714D02*
X66538628Y-110330952D01*
X66538628Y-110330952D02*
X66491009Y-110521428D01*
X66491009Y-110521428D02*
X66443390Y-110616666D01*
X66443390Y-110616666D02*
X66395771Y-110664285D01*
X66395771Y-110664285D02*
X66300533Y-110711904D01*
X66300533Y-110711904D02*
X66205295Y-110711904D01*
X66205295Y-110711904D02*
X66110057Y-110664285D01*
X66110057Y-110664285D02*
X66062438Y-110616666D01*
X66062438Y-110616666D02*
X66014819Y-110521428D01*
X66014819Y-110521428D02*
X66014819Y-110283333D01*
X66014819Y-110283333D02*
X66062438Y-110140476D01*
X67014819Y-109188095D02*
X67014819Y-109759523D01*
X67014819Y-109473809D02*
X66014819Y-109473809D01*
X66014819Y-109473809D02*
X66157676Y-109569047D01*
X66157676Y-109569047D02*
X66252914Y-109664285D01*
X66252914Y-109664285D02*
X66300533Y-109759523D01*
X139809523Y-76102819D02*
X139333333Y-76102819D01*
X139333333Y-76102819D02*
X139285714Y-76579009D01*
X139285714Y-76579009D02*
X139333333Y-76531390D01*
X139333333Y-76531390D02*
X139428571Y-76483771D01*
X139428571Y-76483771D02*
X139666666Y-76483771D01*
X139666666Y-76483771D02*
X139761904Y-76531390D01*
X139761904Y-76531390D02*
X139809523Y-76579009D01*
X139809523Y-76579009D02*
X139857142Y-76674247D01*
X139857142Y-76674247D02*
X139857142Y-76912342D01*
X139857142Y-76912342D02*
X139809523Y-77007580D01*
X139809523Y-77007580D02*
X139761904Y-77055200D01*
X139761904Y-77055200D02*
X139666666Y-77102819D01*
X139666666Y-77102819D02*
X139428571Y-77102819D01*
X139428571Y-77102819D02*
X139333333Y-77055200D01*
X139333333Y-77055200D02*
X139285714Y-77007580D01*
X140142857Y-76102819D02*
X140476190Y-77102819D01*
X140476190Y-77102819D02*
X140809523Y-76102819D01*
X102204819Y-87345238D02*
X101728628Y-87678571D01*
X102204819Y-87916666D02*
X101204819Y-87916666D01*
X101204819Y-87916666D02*
X101204819Y-87535714D01*
X101204819Y-87535714D02*
X101252438Y-87440476D01*
X101252438Y-87440476D02*
X101300057Y-87392857D01*
X101300057Y-87392857D02*
X101395295Y-87345238D01*
X101395295Y-87345238D02*
X101538152Y-87345238D01*
X101538152Y-87345238D02*
X101633390Y-87392857D01*
X101633390Y-87392857D02*
X101681009Y-87440476D01*
X101681009Y-87440476D02*
X101728628Y-87535714D01*
X101728628Y-87535714D02*
X101728628Y-87916666D01*
X101204819Y-87059523D02*
X102204819Y-86726190D01*
X102204819Y-86726190D02*
X101204819Y-86392857D01*
X102204819Y-85535714D02*
X102204819Y-86107142D01*
X102204819Y-85821428D02*
X101204819Y-85821428D01*
X101204819Y-85821428D02*
X101347676Y-85916666D01*
X101347676Y-85916666D02*
X101442914Y-86011904D01*
X101442914Y-86011904D02*
X101490533Y-86107142D01*
X144642857Y-124931009D02*
X144976190Y-124931009D01*
X145119047Y-125454819D02*
X144642857Y-125454819D01*
X144642857Y-125454819D02*
X144642857Y-124454819D01*
X144642857Y-124454819D02*
X145119047Y-124454819D01*
X145500000Y-125407200D02*
X145642857Y-125454819D01*
X145642857Y-125454819D02*
X145880952Y-125454819D01*
X145880952Y-125454819D02*
X145976190Y-125407200D01*
X145976190Y-125407200D02*
X146023809Y-125359580D01*
X146023809Y-125359580D02*
X146071428Y-125264342D01*
X146071428Y-125264342D02*
X146071428Y-125169104D01*
X146071428Y-125169104D02*
X146023809Y-125073866D01*
X146023809Y-125073866D02*
X145976190Y-125026247D01*
X145976190Y-125026247D02*
X145880952Y-124978628D01*
X145880952Y-124978628D02*
X145690476Y-124931009D01*
X145690476Y-124931009D02*
X145595238Y-124883390D01*
X145595238Y-124883390D02*
X145547619Y-124835771D01*
X145547619Y-124835771D02*
X145500000Y-124740533D01*
X145500000Y-124740533D02*
X145500000Y-124645295D01*
X145500000Y-124645295D02*
X145547619Y-124550057D01*
X145547619Y-124550057D02*
X145595238Y-124502438D01*
X145595238Y-124502438D02*
X145690476Y-124454819D01*
X145690476Y-124454819D02*
X145928571Y-124454819D01*
X145928571Y-124454819D02*
X146071428Y-124502438D01*
X146500000Y-125454819D02*
X146500000Y-124454819D01*
X146500000Y-124454819D02*
X146880952Y-124454819D01*
X146880952Y-124454819D02*
X146976190Y-124502438D01*
X146976190Y-124502438D02*
X147023809Y-124550057D01*
X147023809Y-124550057D02*
X147071428Y-124645295D01*
X147071428Y-124645295D02*
X147071428Y-124788152D01*
X147071428Y-124788152D02*
X147023809Y-124883390D01*
X147023809Y-124883390D02*
X146976190Y-124931009D01*
X146976190Y-124931009D02*
X146880952Y-124978628D01*
X146880952Y-124978628D02*
X146500000Y-124978628D01*
X147404762Y-124454819D02*
X148023809Y-124454819D01*
X148023809Y-124454819D02*
X147690476Y-124835771D01*
X147690476Y-124835771D02*
X147833333Y-124835771D01*
X147833333Y-124835771D02*
X147928571Y-124883390D01*
X147928571Y-124883390D02*
X147976190Y-124931009D01*
X147976190Y-124931009D02*
X148023809Y-125026247D01*
X148023809Y-125026247D02*
X148023809Y-125264342D01*
X148023809Y-125264342D02*
X147976190Y-125359580D01*
X147976190Y-125359580D02*
X147928571Y-125407200D01*
X147928571Y-125407200D02*
X147833333Y-125454819D01*
X147833333Y-125454819D02*
X147547619Y-125454819D01*
X147547619Y-125454819D02*
X147452381Y-125407200D01*
X147452381Y-125407200D02*
X147404762Y-125359580D01*
X148404762Y-124550057D02*
X148452381Y-124502438D01*
X148452381Y-124502438D02*
X148547619Y-124454819D01*
X148547619Y-124454819D02*
X148785714Y-124454819D01*
X148785714Y-124454819D02*
X148880952Y-124502438D01*
X148880952Y-124502438D02*
X148928571Y-124550057D01*
X148928571Y-124550057D02*
X148976190Y-124645295D01*
X148976190Y-124645295D02*
X148976190Y-124740533D01*
X148976190Y-124740533D02*
X148928571Y-124883390D01*
X148928571Y-124883390D02*
X148357143Y-125454819D01*
X148357143Y-125454819D02*
X148976190Y-125454819D01*
X149404762Y-125073866D02*
X150166667Y-125073866D01*
X150642857Y-125454819D02*
X150642857Y-124454819D01*
X150642857Y-124454819D02*
X150880952Y-124454819D01*
X150880952Y-124454819D02*
X151023809Y-124502438D01*
X151023809Y-124502438D02*
X151119047Y-124597676D01*
X151119047Y-124597676D02*
X151166666Y-124692914D01*
X151166666Y-124692914D02*
X151214285Y-124883390D01*
X151214285Y-124883390D02*
X151214285Y-125026247D01*
X151214285Y-125026247D02*
X151166666Y-125216723D01*
X151166666Y-125216723D02*
X151119047Y-125311961D01*
X151119047Y-125311961D02*
X151023809Y-125407200D01*
X151023809Y-125407200D02*
X150880952Y-125454819D01*
X150880952Y-125454819D02*
X150642857Y-125454819D01*
X151642857Y-124931009D02*
X151976190Y-124931009D01*
X152119047Y-125454819D02*
X151642857Y-125454819D01*
X151642857Y-125454819D02*
X151642857Y-124454819D01*
X151642857Y-124454819D02*
X152119047Y-124454819D01*
X152404762Y-124454819D02*
X152738095Y-125454819D01*
X152738095Y-125454819D02*
X153071428Y-124454819D01*
X153404762Y-125454819D02*
X153404762Y-124454819D01*
X153976190Y-125454819D02*
X153547619Y-124883390D01*
X153976190Y-124454819D02*
X153404762Y-125026247D01*
X154404762Y-125454819D02*
X154404762Y-124454819D01*
X154738095Y-124454819D02*
X155309523Y-124454819D01*
X155023809Y-125454819D02*
X155023809Y-124454819D01*
X156214285Y-125359580D02*
X156166666Y-125407200D01*
X156166666Y-125407200D02*
X156023809Y-125454819D01*
X156023809Y-125454819D02*
X155928571Y-125454819D01*
X155928571Y-125454819D02*
X155785714Y-125407200D01*
X155785714Y-125407200D02*
X155690476Y-125311961D01*
X155690476Y-125311961D02*
X155642857Y-125216723D01*
X155642857Y-125216723D02*
X155595238Y-125026247D01*
X155595238Y-125026247D02*
X155595238Y-124883390D01*
X155595238Y-124883390D02*
X155642857Y-124692914D01*
X155642857Y-124692914D02*
X155690476Y-124597676D01*
X155690476Y-124597676D02*
X155785714Y-124502438D01*
X155785714Y-124502438D02*
X155928571Y-124454819D01*
X155928571Y-124454819D02*
X156023809Y-124454819D01*
X156023809Y-124454819D02*
X156166666Y-124502438D01*
X156166666Y-124502438D02*
X156214285Y-124550057D01*
X156642857Y-125073866D02*
X157404762Y-125073866D01*
X157785714Y-124454819D02*
X158404761Y-124454819D01*
X158404761Y-124454819D02*
X158071428Y-124835771D01*
X158071428Y-124835771D02*
X158214285Y-124835771D01*
X158214285Y-124835771D02*
X158309523Y-124883390D01*
X158309523Y-124883390D02*
X158357142Y-124931009D01*
X158357142Y-124931009D02*
X158404761Y-125026247D01*
X158404761Y-125026247D02*
X158404761Y-125264342D01*
X158404761Y-125264342D02*
X158357142Y-125359580D01*
X158357142Y-125359580D02*
X158309523Y-125407200D01*
X158309523Y-125407200D02*
X158214285Y-125454819D01*
X158214285Y-125454819D02*
X157928571Y-125454819D01*
X157928571Y-125454819D02*
X157833333Y-125407200D01*
X157833333Y-125407200D02*
X157785714Y-125359580D01*
X158785714Y-124550057D02*
X158833333Y-124502438D01*
X158833333Y-124502438D02*
X158928571Y-124454819D01*
X158928571Y-124454819D02*
X159166666Y-124454819D01*
X159166666Y-124454819D02*
X159261904Y-124502438D01*
X159261904Y-124502438D02*
X159309523Y-124550057D01*
X159309523Y-124550057D02*
X159357142Y-124645295D01*
X159357142Y-124645295D02*
X159357142Y-124740533D01*
X159357142Y-124740533D02*
X159309523Y-124883390D01*
X159309523Y-124883390D02*
X158738095Y-125454819D01*
X158738095Y-125454819D02*
X159357142Y-125454819D01*
X159785714Y-124454819D02*
X159785714Y-125264342D01*
X159785714Y-125264342D02*
X159833333Y-125359580D01*
X159833333Y-125359580D02*
X159880952Y-125407200D01*
X159880952Y-125407200D02*
X159976190Y-125454819D01*
X159976190Y-125454819D02*
X160166666Y-125454819D01*
X160166666Y-125454819D02*
X160261904Y-125407200D01*
X160261904Y-125407200D02*
X160309523Y-125359580D01*
X160309523Y-125359580D02*
X160357142Y-125264342D01*
X160357142Y-125264342D02*
X160357142Y-124454819D01*
X86952738Y-67464819D02*
X87286071Y-68464819D01*
X87286071Y-68464819D02*
X87619404Y-67464819D01*
X87905119Y-68179104D02*
X88381309Y-68179104D01*
X87809881Y-68464819D02*
X88143214Y-67464819D01*
X88143214Y-67464819D02*
X88476547Y-68464819D01*
X89381309Y-68369580D02*
X89333690Y-68417200D01*
X89333690Y-68417200D02*
X89190833Y-68464819D01*
X89190833Y-68464819D02*
X89095595Y-68464819D01*
X89095595Y-68464819D02*
X88952738Y-68417200D01*
X88952738Y-68417200D02*
X88857500Y-68321961D01*
X88857500Y-68321961D02*
X88809881Y-68226723D01*
X88809881Y-68226723D02*
X88762262Y-68036247D01*
X88762262Y-68036247D02*
X88762262Y-67893390D01*
X88762262Y-67893390D02*
X88809881Y-67702914D01*
X88809881Y-67702914D02*
X88857500Y-67607676D01*
X88857500Y-67607676D02*
X88952738Y-67512438D01*
X88952738Y-67512438D02*
X89095595Y-67464819D01*
X89095595Y-67464819D02*
X89190833Y-67464819D01*
X89190833Y-67464819D02*
X89333690Y-67512438D01*
X89333690Y-67512438D02*
X89381309Y-67560057D01*
X89571786Y-68560057D02*
X90333690Y-68560057D01*
X90571786Y-68464819D02*
X90571786Y-67464819D01*
X91047976Y-68464819D02*
X91047976Y-67464819D01*
X91047976Y-67464819D02*
X91619404Y-68464819D01*
X91619404Y-68464819D02*
X91619404Y-67464819D01*
X144333333Y-78609580D02*
X144285714Y-78657200D01*
X144285714Y-78657200D02*
X144142857Y-78704819D01*
X144142857Y-78704819D02*
X144047619Y-78704819D01*
X144047619Y-78704819D02*
X143904762Y-78657200D01*
X143904762Y-78657200D02*
X143809524Y-78561961D01*
X143809524Y-78561961D02*
X143761905Y-78466723D01*
X143761905Y-78466723D02*
X143714286Y-78276247D01*
X143714286Y-78276247D02*
X143714286Y-78133390D01*
X143714286Y-78133390D02*
X143761905Y-77942914D01*
X143761905Y-77942914D02*
X143809524Y-77847676D01*
X143809524Y-77847676D02*
X143904762Y-77752438D01*
X143904762Y-77752438D02*
X144047619Y-77704819D01*
X144047619Y-77704819D02*
X144142857Y-77704819D01*
X144142857Y-77704819D02*
X144285714Y-77752438D01*
X144285714Y-77752438D02*
X144333333Y-77800057D01*
X144714286Y-77800057D02*
X144761905Y-77752438D01*
X144761905Y-77752438D02*
X144857143Y-77704819D01*
X144857143Y-77704819D02*
X145095238Y-77704819D01*
X145095238Y-77704819D02*
X145190476Y-77752438D01*
X145190476Y-77752438D02*
X145238095Y-77800057D01*
X145238095Y-77800057D02*
X145285714Y-77895295D01*
X145285714Y-77895295D02*
X145285714Y-77990533D01*
X145285714Y-77990533D02*
X145238095Y-78133390D01*
X145238095Y-78133390D02*
X144666667Y-78704819D01*
X144666667Y-78704819D02*
X145285714Y-78704819D01*
X77617904Y-74762009D02*
X77284571Y-74762009D01*
X77284571Y-75285819D02*
X77284571Y-74285819D01*
X77284571Y-74285819D02*
X77760761Y-74285819D01*
X78617904Y-75285819D02*
X78141714Y-75285819D01*
X78141714Y-75285819D02*
X78141714Y-74285819D01*
X79475047Y-75285819D02*
X78903619Y-75285819D01*
X79189333Y-75285819D02*
X79189333Y-74285819D01*
X79189333Y-74285819D02*
X79094095Y-74428676D01*
X79094095Y-74428676D02*
X78998857Y-74523914D01*
X78998857Y-74523914D02*
X78903619Y-74571533D01*
X170464819Y-71794666D02*
X169988628Y-72127999D01*
X170464819Y-72366094D02*
X169464819Y-72366094D01*
X169464819Y-72366094D02*
X169464819Y-71985142D01*
X169464819Y-71985142D02*
X169512438Y-71889904D01*
X169512438Y-71889904D02*
X169560057Y-71842285D01*
X169560057Y-71842285D02*
X169655295Y-71794666D01*
X169655295Y-71794666D02*
X169798152Y-71794666D01*
X169798152Y-71794666D02*
X169893390Y-71842285D01*
X169893390Y-71842285D02*
X169941009Y-71889904D01*
X169941009Y-71889904D02*
X169988628Y-71985142D01*
X169988628Y-71985142D02*
X169988628Y-72366094D01*
X169560057Y-71413713D02*
X169512438Y-71366094D01*
X169512438Y-71366094D02*
X169464819Y-71270856D01*
X169464819Y-71270856D02*
X169464819Y-71032761D01*
X169464819Y-71032761D02*
X169512438Y-70937523D01*
X169512438Y-70937523D02*
X169560057Y-70889904D01*
X169560057Y-70889904D02*
X169655295Y-70842285D01*
X169655295Y-70842285D02*
X169750533Y-70842285D01*
X169750533Y-70842285D02*
X169893390Y-70889904D01*
X169893390Y-70889904D02*
X170464819Y-71461332D01*
X170464819Y-71461332D02*
X170464819Y-70842285D01*
X153380952Y-54454819D02*
X152904762Y-54454819D01*
X152904762Y-54454819D02*
X152904762Y-53454819D01*
X153714286Y-53931009D02*
X154047619Y-53931009D01*
X154190476Y-54454819D02*
X153714286Y-54454819D01*
X153714286Y-54454819D02*
X153714286Y-53454819D01*
X153714286Y-53454819D02*
X154190476Y-53454819D01*
X154619048Y-54454819D02*
X154619048Y-53454819D01*
X154619048Y-53454819D02*
X154857143Y-53454819D01*
X154857143Y-53454819D02*
X155000000Y-53502438D01*
X155000000Y-53502438D02*
X155095238Y-53597676D01*
X155095238Y-53597676D02*
X155142857Y-53692914D01*
X155142857Y-53692914D02*
X155190476Y-53883390D01*
X155190476Y-53883390D02*
X155190476Y-54026247D01*
X155190476Y-54026247D02*
X155142857Y-54216723D01*
X155142857Y-54216723D02*
X155095238Y-54311961D01*
X155095238Y-54311961D02*
X155000000Y-54407200D01*
X155000000Y-54407200D02*
X154857143Y-54454819D01*
X154857143Y-54454819D02*
X154619048Y-54454819D01*
X156142857Y-54454819D02*
X155571429Y-54454819D01*
X155857143Y-54454819D02*
X155857143Y-53454819D01*
X155857143Y-53454819D02*
X155761905Y-53597676D01*
X155761905Y-53597676D02*
X155666667Y-53692914D01*
X155666667Y-53692914D02*
X155571429Y-53740533D01*
X97200580Y-87309166D02*
X97248200Y-87356785D01*
X97248200Y-87356785D02*
X97295819Y-87499642D01*
X97295819Y-87499642D02*
X97295819Y-87594880D01*
X97295819Y-87594880D02*
X97248200Y-87737737D01*
X97248200Y-87737737D02*
X97152961Y-87832975D01*
X97152961Y-87832975D02*
X97057723Y-87880594D01*
X97057723Y-87880594D02*
X96867247Y-87928213D01*
X96867247Y-87928213D02*
X96724390Y-87928213D01*
X96724390Y-87928213D02*
X96533914Y-87880594D01*
X96533914Y-87880594D02*
X96438676Y-87832975D01*
X96438676Y-87832975D02*
X96343438Y-87737737D01*
X96343438Y-87737737D02*
X96295819Y-87594880D01*
X96295819Y-87594880D02*
X96295819Y-87499642D01*
X96295819Y-87499642D02*
X96343438Y-87356785D01*
X96343438Y-87356785D02*
X96391057Y-87309166D01*
X97295819Y-86356785D02*
X97295819Y-86928213D01*
X97295819Y-86642499D02*
X96295819Y-86642499D01*
X96295819Y-86642499D02*
X96438676Y-86737737D01*
X96438676Y-86737737D02*
X96533914Y-86832975D01*
X96533914Y-86832975D02*
X96581533Y-86928213D01*
X165384819Y-71794666D02*
X164908628Y-72127999D01*
X165384819Y-72366094D02*
X164384819Y-72366094D01*
X164384819Y-72366094D02*
X164384819Y-71985142D01*
X164384819Y-71985142D02*
X164432438Y-71889904D01*
X164432438Y-71889904D02*
X164480057Y-71842285D01*
X164480057Y-71842285D02*
X164575295Y-71794666D01*
X164575295Y-71794666D02*
X164718152Y-71794666D01*
X164718152Y-71794666D02*
X164813390Y-71842285D01*
X164813390Y-71842285D02*
X164861009Y-71889904D01*
X164861009Y-71889904D02*
X164908628Y-71985142D01*
X164908628Y-71985142D02*
X164908628Y-72366094D01*
X164384819Y-71461332D02*
X164384819Y-70842285D01*
X164384819Y-70842285D02*
X164765771Y-71175618D01*
X164765771Y-71175618D02*
X164765771Y-71032761D01*
X164765771Y-71032761D02*
X164813390Y-70937523D01*
X164813390Y-70937523D02*
X164861009Y-70889904D01*
X164861009Y-70889904D02*
X164956247Y-70842285D01*
X164956247Y-70842285D02*
X165194342Y-70842285D01*
X165194342Y-70842285D02*
X165289580Y-70889904D01*
X165289580Y-70889904D02*
X165337200Y-70937523D01*
X165337200Y-70937523D02*
X165384819Y-71032761D01*
X165384819Y-71032761D02*
X165384819Y-71318475D01*
X165384819Y-71318475D02*
X165337200Y-71413713D01*
X165337200Y-71413713D02*
X165289580Y-71461332D01*
X175424819Y-71766666D02*
X174948628Y-72099999D01*
X175424819Y-72338094D02*
X174424819Y-72338094D01*
X174424819Y-72338094D02*
X174424819Y-71957142D01*
X174424819Y-71957142D02*
X174472438Y-71861904D01*
X174472438Y-71861904D02*
X174520057Y-71814285D01*
X174520057Y-71814285D02*
X174615295Y-71766666D01*
X174615295Y-71766666D02*
X174758152Y-71766666D01*
X174758152Y-71766666D02*
X174853390Y-71814285D01*
X174853390Y-71814285D02*
X174901009Y-71861904D01*
X174901009Y-71861904D02*
X174948628Y-71957142D01*
X174948628Y-71957142D02*
X174948628Y-72338094D01*
X175424819Y-70814285D02*
X175424819Y-71385713D01*
X175424819Y-71099999D02*
X174424819Y-71099999D01*
X174424819Y-71099999D02*
X174567676Y-71195237D01*
X174567676Y-71195237D02*
X174662914Y-71290475D01*
X174662914Y-71290475D02*
X174710533Y-71385713D01*
D11*
%TO.C,R4*%
X157870000Y-68330000D02*
X157870000Y-74870000D01*
X157540000Y-68330000D02*
X157870000Y-68330000D01*
X155460000Y-68330000D02*
X155130000Y-68330000D01*
X155130000Y-68330000D02*
X155130000Y-74870000D01*
X157870000Y-74870000D02*
X157540000Y-74870000D01*
X155130000Y-74870000D02*
X155460000Y-74870000D01*
%TO.C,LED2*%
X174350000Y-61750000D02*
X174350000Y-60500000D01*
X174060000Y-61460000D02*
X174060000Y-55490000D01*
X174060000Y-55490000D02*
X161440000Y-55490000D01*
X174050000Y-61450000D02*
X174050000Y-60700000D01*
X174050000Y-60700000D02*
X172250000Y-60700000D01*
X174050000Y-59200000D02*
X173300000Y-59200000D01*
X173300000Y-59200000D02*
X173300000Y-56250000D01*
X173300000Y-56250000D02*
X167750000Y-56250000D01*
X173100000Y-61750000D02*
X174350000Y-61750000D01*
X172250000Y-61450000D02*
X174050000Y-61450000D01*
X172250000Y-60700000D02*
X172250000Y-61450000D01*
X170750000Y-61450000D02*
X170750000Y-60700000D01*
X170750000Y-60700000D02*
X164750000Y-60700000D01*
X164750000Y-61450000D02*
X170750000Y-61450000D01*
X164750000Y-60700000D02*
X164750000Y-61450000D01*
X163250000Y-61450000D02*
X163250000Y-60700000D01*
X163250000Y-60700000D02*
X161450000Y-60700000D01*
X162200000Y-59200000D02*
X162200000Y-56250000D01*
X162200000Y-56250000D02*
X167750000Y-56250000D01*
X161450000Y-61450000D02*
X163250000Y-61450000D01*
X161450000Y-60700000D02*
X161450000Y-61450000D01*
X161450000Y-59200000D02*
X162200000Y-59200000D01*
X161440000Y-61460000D02*
X174060000Y-61460000D01*
X161440000Y-55490000D02*
X161440000Y-61460000D01*
%TO.C,SENSOR*%
X181273000Y-88956000D02*
X182523000Y-88956000D01*
X181563000Y-88666000D02*
X187533000Y-88666000D01*
X187533000Y-88666000D02*
X187533000Y-78546000D01*
X181573000Y-88656000D02*
X182323000Y-88656000D01*
X182323000Y-88656000D02*
X182323000Y-86856000D01*
X183823000Y-88656000D02*
X183823000Y-87906000D01*
X183823000Y-87906000D02*
X186773000Y-87906000D01*
X186773000Y-87906000D02*
X186773000Y-83606000D01*
X181273000Y-87706000D02*
X181273000Y-88956000D01*
X181573000Y-86856000D02*
X181573000Y-88656000D01*
X182323000Y-86856000D02*
X181573000Y-86856000D01*
X181573000Y-85356000D02*
X182323000Y-85356000D01*
X182323000Y-85356000D02*
X182323000Y-81856000D01*
X181573000Y-81856000D02*
X181573000Y-85356000D01*
X182323000Y-81856000D02*
X181573000Y-81856000D01*
X181573000Y-80356000D02*
X182323000Y-80356000D01*
X182323000Y-80356000D02*
X182323000Y-78556000D01*
X183823000Y-79306000D02*
X186773000Y-79306000D01*
X186773000Y-79306000D02*
X186773000Y-83606000D01*
X181573000Y-78556000D02*
X181573000Y-80356000D01*
X182323000Y-78556000D02*
X181573000Y-78556000D01*
X183823000Y-78556000D02*
X183823000Y-79306000D01*
X181563000Y-78546000D02*
X181563000Y-88666000D01*
X187533000Y-78546000D02*
X181563000Y-78546000D01*
%TO.C,GND*%
X140950000Y-68000000D02*
G75*
G03*
X140950000Y-68000000I-950000J0D01*
G01*
%TO.C,PS1*%
X67710000Y-110000000D02*
X67710000Y-112010000D01*
X68090000Y-102140000D02*
X68090000Y-125860000D01*
X68100000Y-125860000D02*
X107310000Y-125860000D01*
X107310000Y-102140000D02*
X68100000Y-102140000D01*
X107310000Y-125860000D02*
X107310000Y-102140000D01*
%TO.C,5V*%
X140950000Y-75000000D02*
G75*
G03*
X140950000Y-75000000I-950000J0D01*
G01*
D10*
%TO.C,RV1*%
X106650000Y-80750000D02*
X102750000Y-80750000D01*
X106650000Y-80750000D02*
X106650000Y-92750000D01*
X102750000Y-80750000D02*
X102750000Y-92750000D01*
X106650000Y-92750000D02*
X102750000Y-92750000D01*
D12*
%TO.C,ESP32-DEVKITC-32U*%
X183100000Y-94050000D02*
X134900000Y-94050000D01*
X134900000Y-94050000D02*
X134900000Y-103930000D01*
X189300000Y-99000000D02*
X189300000Y-117000000D01*
X183100000Y-99000000D02*
X183100000Y-94050000D01*
X183100000Y-99000000D02*
X189300000Y-99000000D01*
X134900000Y-103930000D02*
X134000000Y-103930000D01*
X134000000Y-103930000D02*
X134000000Y-112060000D01*
X134900000Y-112060000D02*
X134900000Y-121950000D01*
X134000000Y-112060000D02*
X134900000Y-112060000D01*
X189300000Y-117000000D02*
X183100000Y-117000000D01*
X183100000Y-121950000D02*
X183100000Y-117000000D01*
X134900000Y-121950000D02*
X183100000Y-121950000D01*
D13*
X182070000Y-93430000D02*
G75*
G03*
X182070000Y-93430000I-100000J0D01*
G01*
D11*
%TO.C,VAC_IN*%
X94657500Y-57590000D02*
X94657500Y-56850000D01*
X94657500Y-56850000D02*
X94157500Y-56850000D01*
X94417500Y-67011000D02*
X94417500Y-57090000D01*
X94417500Y-67011000D02*
X84297500Y-67011000D01*
X94417500Y-64051000D02*
X84297500Y-64051000D01*
X94417500Y-59150000D02*
X84297500Y-59150000D01*
X94417500Y-57650000D02*
X84297500Y-57650000D01*
X94417500Y-57090000D02*
X84297500Y-57090000D01*
X88084500Y-60727000D02*
X88131500Y-60681000D01*
X87891500Y-60511000D02*
X87926500Y-60476000D01*
X85787500Y-63025000D02*
X85822500Y-62989000D01*
X85582500Y-62819000D02*
X85629500Y-62773000D01*
X84297500Y-67011000D02*
X84297500Y-57090000D01*
X93392499Y-62433999D02*
G75*
G03*
X93392926Y-61066958I-1534992J684000D01*
G01*
X91173501Y-63284999D02*
G75*
G03*
X92540542Y-63285426I684000J1534992D01*
G01*
X92541500Y-60215001D02*
G75*
G03*
X91828695Y-60069748I-683999J-1535000D01*
G01*
X91857500Y-60070001D02*
G75*
G03*
X91174182Y-60215245I0J-1679999D01*
G01*
X90322500Y-61066000D02*
G75*
G03*
X90322074Y-62433042I1535000J-684000D01*
G01*
X88537500Y-61750000D02*
G75*
G03*
X88537500Y-61750000I-1680000J0D01*
G01*
%TO.C,C2*%
X139020354Y-81625000D02*
X140020354Y-81625000D01*
X139520354Y-81125000D02*
X139520354Y-82125000D01*
X144500000Y-79420000D02*
X144500000Y-89580000D01*
X144540000Y-79420000D02*
X144540000Y-89580000D01*
X144580000Y-79420000D02*
X144580000Y-89580000D01*
X144620000Y-79421000D02*
X144620000Y-89579000D01*
X144660000Y-79422000D02*
X144660000Y-89578000D01*
X144700000Y-79423000D02*
X144700000Y-89577000D01*
X144740000Y-79425000D02*
X144740000Y-89575000D01*
X144780000Y-79427000D02*
X144780000Y-89573000D01*
X144820000Y-79430000D02*
X144820000Y-89570000D01*
X144860000Y-79432000D02*
X144860000Y-89568000D01*
X144900000Y-79435000D02*
X144900000Y-89565000D01*
X144940000Y-79438000D02*
X144940000Y-89562000D01*
X144980000Y-79442000D02*
X144980000Y-89558000D01*
X145020000Y-79446000D02*
X145020000Y-89554000D01*
X145060000Y-79450000D02*
X145060000Y-89550000D01*
X145100000Y-79455000D02*
X145100000Y-89545000D01*
X145140000Y-79460000D02*
X145140000Y-89540000D01*
X145180000Y-79465000D02*
X145180000Y-89535000D01*
X145221000Y-79470000D02*
X145221000Y-89530000D01*
X145261000Y-79476000D02*
X145261000Y-89524000D01*
X145301000Y-79482000D02*
X145301000Y-89518000D01*
X145341000Y-79489000D02*
X145341000Y-89511000D01*
X145381000Y-79496000D02*
X145381000Y-89504000D01*
X145421000Y-79503000D02*
X145421000Y-89497000D01*
X145461000Y-79510000D02*
X145461000Y-89490000D01*
X145501000Y-79518000D02*
X145501000Y-89482000D01*
X145541000Y-79526000D02*
X145541000Y-89474000D01*
X145581000Y-79535000D02*
X145581000Y-89465000D01*
X145621000Y-79544000D02*
X145621000Y-89456000D01*
X145661000Y-79553000D02*
X145661000Y-89447000D01*
X145701000Y-79562000D02*
X145701000Y-89438000D01*
X145741000Y-79572000D02*
X145741000Y-89428000D01*
X145781000Y-79582000D02*
X145781000Y-83259000D01*
X145781000Y-85741000D02*
X145781000Y-89418000D01*
X145821000Y-79593000D02*
X145821000Y-83259000D01*
X145821000Y-85741000D02*
X145821000Y-89407000D01*
X145861000Y-79603000D02*
X145861000Y-83259000D01*
X145861000Y-85741000D02*
X145861000Y-89397000D01*
X145901000Y-79615000D02*
X145901000Y-83259000D01*
X145901000Y-85741000D02*
X145901000Y-89385000D01*
X145941000Y-79626000D02*
X145941000Y-83259000D01*
X145941000Y-85741000D02*
X145941000Y-89374000D01*
X145981000Y-79638000D02*
X145981000Y-83259000D01*
X145981000Y-85741000D02*
X145981000Y-89362000D01*
X146021000Y-79650000D02*
X146021000Y-83259000D01*
X146021000Y-85741000D02*
X146021000Y-89350000D01*
X146061000Y-79663000D02*
X146061000Y-83259000D01*
X146061000Y-85741000D02*
X146061000Y-89337000D01*
X146101000Y-79676000D02*
X146101000Y-83259000D01*
X146101000Y-85741000D02*
X146101000Y-89324000D01*
X146141000Y-79689000D02*
X146141000Y-83259000D01*
X146141000Y-85741000D02*
X146141000Y-89311000D01*
X146181000Y-79703000D02*
X146181000Y-83259000D01*
X146181000Y-85741000D02*
X146181000Y-89297000D01*
X146221000Y-79717000D02*
X146221000Y-83259000D01*
X146221000Y-85741000D02*
X146221000Y-89283000D01*
X146261000Y-79732000D02*
X146261000Y-83259000D01*
X146261000Y-85741000D02*
X146261000Y-89268000D01*
X146301000Y-79746000D02*
X146301000Y-83259000D01*
X146301000Y-85741000D02*
X146301000Y-89254000D01*
X146341000Y-79762000D02*
X146341000Y-83259000D01*
X146341000Y-85741000D02*
X146341000Y-89238000D01*
X146381000Y-79777000D02*
X146381000Y-83259000D01*
X146381000Y-85741000D02*
X146381000Y-89223000D01*
X146421000Y-79793000D02*
X146421000Y-83259000D01*
X146421000Y-85741000D02*
X146421000Y-89207000D01*
X146461000Y-79810000D02*
X146461000Y-83259000D01*
X146461000Y-85741000D02*
X146461000Y-89190000D01*
X146501000Y-79826000D02*
X146501000Y-83259000D01*
X146501000Y-85741000D02*
X146501000Y-89174000D01*
X146541000Y-79843000D02*
X146541000Y-83259000D01*
X146541000Y-85741000D02*
X146541000Y-89157000D01*
X146581000Y-79861000D02*
X146581000Y-83259000D01*
X146581000Y-85741000D02*
X146581000Y-89139000D01*
X146621000Y-79879000D02*
X146621000Y-83259000D01*
X146621000Y-85741000D02*
X146621000Y-89121000D01*
X146661000Y-79897000D02*
X146661000Y-83259000D01*
X146661000Y-85741000D02*
X146661000Y-89103000D01*
X146701000Y-79916000D02*
X146701000Y-83259000D01*
X146701000Y-85741000D02*
X146701000Y-89084000D01*
X146741000Y-79936000D02*
X146741000Y-83259000D01*
X146741000Y-85741000D02*
X146741000Y-89064000D01*
X146781000Y-79955000D02*
X146781000Y-83259000D01*
X146781000Y-85741000D02*
X146781000Y-89045000D01*
X146821000Y-79975000D02*
X146821000Y-83259000D01*
X146821000Y-85741000D02*
X146821000Y-89025000D01*
X146861000Y-79996000D02*
X146861000Y-83259000D01*
X146861000Y-85741000D02*
X146861000Y-89004000D01*
X146901000Y-80017000D02*
X146901000Y-83259000D01*
X146901000Y-85741000D02*
X146901000Y-88983000D01*
X146941000Y-80038000D02*
X146941000Y-83259000D01*
X146941000Y-85741000D02*
X146941000Y-88962000D01*
X146981000Y-80060000D02*
X146981000Y-83259000D01*
X146981000Y-85741000D02*
X146981000Y-88940000D01*
X147021000Y-80083000D02*
X147021000Y-83259000D01*
X147021000Y-85741000D02*
X147021000Y-88917000D01*
X147061000Y-80105000D02*
X147061000Y-83259000D01*
X147061000Y-85741000D02*
X147061000Y-88895000D01*
X147101000Y-80129000D02*
X147101000Y-83259000D01*
X147101000Y-85741000D02*
X147101000Y-88871000D01*
X147141000Y-80153000D02*
X147141000Y-83259000D01*
X147141000Y-85741000D02*
X147141000Y-88847000D01*
X147181000Y-80177000D02*
X147181000Y-83259000D01*
X147181000Y-85741000D02*
X147181000Y-88823000D01*
X147221000Y-80202000D02*
X147221000Y-83259000D01*
X147221000Y-85741000D02*
X147221000Y-88798000D01*
X147261000Y-80227000D02*
X147261000Y-83259000D01*
X147261000Y-85741000D02*
X147261000Y-88773000D01*
X147301000Y-80253000D02*
X147301000Y-83259000D01*
X147301000Y-85741000D02*
X147301000Y-88747000D01*
X147341000Y-80279000D02*
X147341000Y-83259000D01*
X147341000Y-85741000D02*
X147341000Y-88721000D01*
X147381000Y-80306000D02*
X147381000Y-83259000D01*
X147381000Y-85741000D02*
X147381000Y-88694000D01*
X147421000Y-80334000D02*
X147421000Y-83259000D01*
X147421000Y-85741000D02*
X147421000Y-88666000D01*
X147461000Y-80362000D02*
X147461000Y-83259000D01*
X147461000Y-85741000D02*
X147461000Y-88638000D01*
X147501000Y-80390000D02*
X147501000Y-83259000D01*
X147501000Y-85741000D02*
X147501000Y-88610000D01*
X147541000Y-80420000D02*
X147541000Y-83259000D01*
X147541000Y-85741000D02*
X147541000Y-88580000D01*
X147581000Y-80450000D02*
X147581000Y-83259000D01*
X147581000Y-85741000D02*
X147581000Y-88550000D01*
X147621000Y-80480000D02*
X147621000Y-83259000D01*
X147621000Y-85741000D02*
X147621000Y-88520000D01*
X147661000Y-80511000D02*
X147661000Y-83259000D01*
X147661000Y-85741000D02*
X147661000Y-88489000D01*
X147701000Y-80543000D02*
X147701000Y-83259000D01*
X147701000Y-85741000D02*
X147701000Y-88457000D01*
X147741000Y-80575000D02*
X147741000Y-83259000D01*
X147741000Y-85741000D02*
X147741000Y-88425000D01*
X147781000Y-80608000D02*
X147781000Y-83259000D01*
X147781000Y-85741000D02*
X147781000Y-88392000D01*
X147821000Y-80642000D02*
X147821000Y-83259000D01*
X147821000Y-85741000D02*
X147821000Y-88358000D01*
X147861000Y-80676000D02*
X147861000Y-83259000D01*
X147861000Y-85741000D02*
X147861000Y-88324000D01*
X147901000Y-80711000D02*
X147901000Y-83259000D01*
X147901000Y-85741000D02*
X147901000Y-88289000D01*
X147941000Y-80747000D02*
X147941000Y-83259000D01*
X147941000Y-85741000D02*
X147941000Y-88253000D01*
X147981000Y-80784000D02*
X147981000Y-83259000D01*
X147981000Y-85741000D02*
X147981000Y-88216000D01*
X148021000Y-80821000D02*
X148021000Y-83259000D01*
X148021000Y-85741000D02*
X148021000Y-88179000D01*
X148061000Y-80860000D02*
X148061000Y-83259000D01*
X148061000Y-85741000D02*
X148061000Y-88140000D01*
X148101000Y-80899000D02*
X148101000Y-83259000D01*
X148101000Y-85741000D02*
X148101000Y-88101000D01*
X148141000Y-80939000D02*
X148141000Y-83259000D01*
X148141000Y-85741000D02*
X148141000Y-88061000D01*
X148181000Y-80980000D02*
X148181000Y-83259000D01*
X148181000Y-85741000D02*
X148181000Y-88020000D01*
X148221000Y-81022000D02*
X148221000Y-83259000D01*
X148221000Y-85741000D02*
X148221000Y-87978000D01*
X148261000Y-81064000D02*
X148261000Y-87936000D01*
X148301000Y-81108000D02*
X148301000Y-87892000D01*
X148341000Y-81153000D02*
X148341000Y-87847000D01*
X148381000Y-81199000D02*
X148381000Y-87801000D01*
X148421000Y-81246000D02*
X148421000Y-87754000D01*
X148461000Y-81294000D02*
X148461000Y-87706000D01*
X148501000Y-81344000D02*
X148501000Y-87656000D01*
X148541000Y-81394000D02*
X148541000Y-87606000D01*
X148581000Y-81446000D02*
X148581000Y-87554000D01*
X148621000Y-81500000D02*
X148621000Y-87500000D01*
X148661000Y-81555000D02*
X148661000Y-87445000D01*
X148701000Y-81611000D02*
X148701000Y-87389000D01*
X148741000Y-81670000D02*
X148741000Y-87330000D01*
X148781000Y-81730000D02*
X148781000Y-87270000D01*
X148821000Y-81791000D02*
X148821000Y-87209000D01*
X148861000Y-81855000D02*
X148861000Y-87145000D01*
X148901000Y-81921000D02*
X148901000Y-87079000D01*
X148941000Y-81990000D02*
X148941000Y-87010000D01*
X148981000Y-82061000D02*
X148981000Y-86939000D01*
X149021000Y-82135000D02*
X149021000Y-86865000D01*
X149061000Y-82211000D02*
X149061000Y-86789000D01*
X149101000Y-82291000D02*
X149101000Y-86709000D01*
X149141000Y-82375000D02*
X149141000Y-86625000D01*
X149181000Y-82463000D02*
X149181000Y-86537000D01*
X149221000Y-82556000D02*
X149221000Y-86444000D01*
X149261000Y-82654000D02*
X149261000Y-86346000D01*
X149301000Y-82758000D02*
X149301000Y-86242000D01*
X149341000Y-82870000D02*
X149341000Y-86130000D01*
X149381000Y-82990000D02*
X149381000Y-86010000D01*
X149421000Y-83122000D02*
X149421000Y-85878000D01*
X149461000Y-83270000D02*
X149461000Y-85730000D01*
X149501000Y-83438000D02*
X149501000Y-85562000D01*
X149541000Y-83638000D02*
X149541000Y-85362000D01*
X149581000Y-83901000D02*
X149581000Y-85099000D01*
X149620000Y-84500000D02*
G75*
G03*
X149620000Y-84500000I-5120000J0D01*
G01*
%TO.C,FL1*%
X85250000Y-77150000D02*
X69250000Y-77150000D01*
D14*
X85250000Y-77150000D02*
X85250000Y-97350000D01*
X69250000Y-77150000D02*
X69250000Y-97350000D01*
D11*
X69250000Y-97350000D02*
X85250000Y-97350000D01*
%TO.C,R2*%
X169010000Y-68358000D02*
X169010000Y-74898000D01*
X168680000Y-68358000D02*
X169010000Y-68358000D01*
X166600000Y-68358000D02*
X166270000Y-68358000D01*
X166270000Y-68358000D02*
X166270000Y-74898000D01*
X169010000Y-74898000D02*
X168680000Y-74898000D01*
X166270000Y-74898000D02*
X166600000Y-74898000D01*
%TO.C,LED1*%
X158850000Y-61750000D02*
X158850000Y-60500000D01*
X158560000Y-61460000D02*
X158560000Y-55490000D01*
X158560000Y-55490000D02*
X150940000Y-55490000D01*
X158550000Y-61450000D02*
X158550000Y-60700000D01*
X158550000Y-60700000D02*
X156750000Y-60700000D01*
X158550000Y-59200000D02*
X157800000Y-59200000D01*
X157800000Y-59200000D02*
X157800000Y-56250000D01*
X157800000Y-56250000D02*
X154750000Y-56250000D01*
X157600000Y-61750000D02*
X158850000Y-61750000D01*
X156750000Y-61450000D02*
X158550000Y-61450000D01*
X156750000Y-60700000D02*
X156750000Y-61450000D01*
X155250000Y-61450000D02*
X155250000Y-60700000D01*
X155250000Y-60700000D02*
X154250000Y-60700000D01*
X154250000Y-61450000D02*
X155250000Y-61450000D01*
X154250000Y-60700000D02*
X154250000Y-61450000D01*
X152750000Y-61450000D02*
X152750000Y-60700000D01*
X152750000Y-60700000D02*
X150950000Y-60700000D01*
X151700000Y-59200000D02*
X151700000Y-56250000D01*
X151700000Y-56250000D02*
X154750000Y-56250000D01*
X150950000Y-61450000D02*
X152750000Y-61450000D01*
X150950000Y-60700000D02*
X150950000Y-61450000D01*
X150950000Y-59200000D02*
X151700000Y-59200000D01*
X150940000Y-61460000D02*
X158560000Y-61460000D01*
X150940000Y-55490000D02*
X150940000Y-61460000D01*
%TO.C,C1*%
X98120000Y-77880000D02*
X89880000Y-77880000D01*
X98120000Y-77880000D02*
X98120000Y-96120000D01*
X89880000Y-77880000D02*
X89880000Y-96120000D01*
X98120000Y-96120000D02*
X89880000Y-96120000D01*
%TO.C,G\u002A\u002A\u002A*%
G36*
X121339396Y-74932216D02*
G01*
X121448138Y-74966879D01*
X121457099Y-74971412D01*
X121489589Y-74992708D01*
X121544995Y-75033636D01*
X121618958Y-75090629D01*
X121707121Y-75160117D01*
X121805124Y-75238533D01*
X121908611Y-75322307D01*
X122013221Y-75407871D01*
X122114598Y-75491657D01*
X122208383Y-75570097D01*
X122290216Y-75639621D01*
X122355742Y-75696662D01*
X122400600Y-75737651D01*
X122420432Y-75759019D01*
X122421012Y-75760638D01*
X122406649Y-75775883D01*
X122366375Y-75812267D01*
X122304080Y-75866444D01*
X122223656Y-75935064D01*
X122128993Y-76014779D01*
X122027768Y-76099102D01*
X121922566Y-76185868D01*
X121827015Y-76263858D01*
X121745132Y-76329858D01*
X121680937Y-76380652D01*
X121638449Y-76413027D01*
X121621799Y-76423793D01*
X121601862Y-76411430D01*
X121557536Y-76377867D01*
X121493619Y-76327119D01*
X121414912Y-76263202D01*
X121326216Y-76190129D01*
X121232331Y-76111916D01*
X121138057Y-76032577D01*
X121048195Y-75956126D01*
X120967544Y-75886579D01*
X120900906Y-75827949D01*
X120853080Y-75784252D01*
X120832217Y-75763444D01*
X120775956Y-75680549D01*
X120732283Y-75577197D01*
X120707865Y-75471049D01*
X120704935Y-75426348D01*
X120723442Y-75296220D01*
X120775877Y-75174698D01*
X120857611Y-75069285D01*
X120964015Y-74987482D01*
X120981716Y-74977764D01*
X121092594Y-74937840D01*
X121216351Y-74922597D01*
X121339396Y-74932216D01*
G37*
G36*
X124121518Y-74917278D02*
G01*
X124242685Y-74963131D01*
X124349504Y-75034695D01*
X124434314Y-75129656D01*
X124459338Y-75171704D01*
X124479432Y-75232801D01*
X124492688Y-75317305D01*
X124498389Y-75410931D01*
X124495816Y-75499391D01*
X124484250Y-75568398D01*
X124479907Y-75580846D01*
X124456790Y-75631572D01*
X124428762Y-75679251D01*
X124391883Y-75728009D01*
X124342210Y-75781970D01*
X124275805Y-75845258D01*
X124188726Y-75921998D01*
X124077034Y-76016316D01*
X124013502Y-76069059D01*
X123909808Y-76154775D01*
X123813929Y-76233918D01*
X123730536Y-76302639D01*
X123664301Y-76357092D01*
X123619896Y-76393430D01*
X123604471Y-76405894D01*
X123590887Y-76415675D01*
X123576754Y-76420354D01*
X123558406Y-76417487D01*
X123532175Y-76404627D01*
X123494396Y-76379328D01*
X123441401Y-76339143D01*
X123369523Y-76281627D01*
X123275096Y-76204333D01*
X123159914Y-76109325D01*
X123053778Y-76021682D01*
X122957714Y-75942336D01*
X122875640Y-75874527D01*
X122811472Y-75821489D01*
X122769129Y-75786462D01*
X122752527Y-75772681D01*
X122752480Y-75772641D01*
X122764106Y-75758801D01*
X122801715Y-75724370D01*
X122861112Y-75672781D01*
X122938103Y-75607470D01*
X123028494Y-75531869D01*
X123128091Y-75449413D01*
X123232700Y-75363536D01*
X123338126Y-75277672D01*
X123440176Y-75195255D01*
X123534654Y-75119718D01*
X123617368Y-75054497D01*
X123684123Y-75003024D01*
X123730724Y-74968735D01*
X123748537Y-74957109D01*
X123866784Y-74911954D01*
X123993665Y-74899448D01*
X124121518Y-74917278D01*
G37*
G36*
X124960542Y-103290302D02*
G01*
X125016311Y-103303497D01*
X125091269Y-103325382D01*
X125177025Y-103353334D01*
X125265189Y-103384733D01*
X125347372Y-103416957D01*
X125358084Y-103421453D01*
X125483852Y-103482906D01*
X125621272Y-103563631D01*
X125755840Y-103654552D01*
X125860474Y-103735863D01*
X125992768Y-103866555D01*
X126118762Y-104027902D01*
X126233656Y-104212015D01*
X126332650Y-104411008D01*
X126410943Y-104616992D01*
X126425455Y-104664313D01*
X126459609Y-104819268D01*
X126480396Y-104996633D01*
X126487361Y-105182472D01*
X126480045Y-105362847D01*
X126457994Y-105523820D01*
X126454189Y-105541838D01*
X126431565Y-105633770D01*
X126404964Y-105726578D01*
X126379581Y-105802343D01*
X126375917Y-105811845D01*
X126336581Y-105903169D01*
X126289575Y-105999918D01*
X126238260Y-106096531D01*
X126185997Y-106187449D01*
X126136150Y-106267111D01*
X126092079Y-106329957D01*
X126057146Y-106370427D01*
X126034713Y-106382961D01*
X126031634Y-106381267D01*
X126022025Y-106360288D01*
X126000951Y-106306487D01*
X125969554Y-106223080D01*
X125928979Y-106113285D01*
X125880369Y-105980320D01*
X125824868Y-105827404D01*
X125763619Y-105657752D01*
X125697767Y-105474584D01*
X125628455Y-105281116D01*
X125556826Y-105080567D01*
X125484024Y-104876154D01*
X125411192Y-104671095D01*
X125339476Y-104468608D01*
X125270017Y-104271909D01*
X125203960Y-104084218D01*
X125142449Y-103908751D01*
X125086626Y-103748726D01*
X125037636Y-103607361D01*
X124996623Y-103487874D01*
X124964729Y-103393482D01*
X124943099Y-103327403D01*
X124932877Y-103292854D01*
X124932350Y-103288418D01*
X124960542Y-103290302D01*
G37*
G36*
X122652163Y-75961762D02*
G01*
X122675416Y-75977504D01*
X122724946Y-76015196D01*
X122797399Y-76072093D01*
X122889422Y-76145448D01*
X122997663Y-76232513D01*
X123118770Y-76330542D01*
X123249390Y-76436788D01*
X123386169Y-76548504D01*
X123525756Y-76662945D01*
X123664797Y-76777362D01*
X123799941Y-76889008D01*
X123927834Y-76995139D01*
X124045123Y-77093005D01*
X124148457Y-77179861D01*
X124234482Y-77252960D01*
X124299846Y-77309556D01*
X124328852Y-77335450D01*
X124419376Y-77442255D01*
X124478616Y-77565372D01*
X124505118Y-77697864D01*
X124497432Y-77832797D01*
X124458412Y-77954214D01*
X124388991Y-78060161D01*
X124294115Y-78143106D01*
X124180859Y-78200783D01*
X124056294Y-78230922D01*
X123927493Y-78231258D01*
X123801528Y-78199521D01*
X123756946Y-78179138D01*
X123718385Y-78154498D01*
X123654510Y-78108266D01*
X123569508Y-78043702D01*
X123467563Y-77964069D01*
X123352859Y-77872629D01*
X123229581Y-77772643D01*
X123125194Y-77686701D01*
X122594734Y-77246977D01*
X122069311Y-77683985D01*
X121915780Y-77810509D01*
X121778350Y-77921401D01*
X121659560Y-78014704D01*
X121561947Y-78088460D01*
X121488049Y-78140712D01*
X121440405Y-78169502D01*
X121438702Y-78170317D01*
X121314136Y-78212829D01*
X121192425Y-78220056D01*
X121067194Y-78191766D01*
X120979562Y-78153547D01*
X120904316Y-78111652D01*
X120852568Y-78071336D01*
X120811478Y-78021248D01*
X120788107Y-77984318D01*
X120732715Y-77858575D01*
X120709952Y-77726143D01*
X120720633Y-77601475D01*
X120730618Y-77561310D01*
X120742851Y-77524003D01*
X120759649Y-77487259D01*
X120783326Y-77448780D01*
X120816202Y-77406272D01*
X120860590Y-77357436D01*
X120918809Y-77299979D01*
X120993175Y-77231602D01*
X121086003Y-77150011D01*
X121199611Y-77052909D01*
X121336316Y-76937999D01*
X121498432Y-76802987D01*
X121668284Y-76662137D01*
X121823736Y-76533748D01*
X121971452Y-76412502D01*
X122108566Y-76300700D01*
X122232212Y-76200645D01*
X122339524Y-76114639D01*
X122427634Y-76044982D01*
X122493678Y-75993977D01*
X122534788Y-75963925D01*
X122546629Y-75956775D01*
X122609910Y-75949222D01*
X122652163Y-75961762D01*
G37*
G36*
X121582326Y-99622230D02*
G01*
X121618934Y-99665926D01*
X121671837Y-99732813D01*
X121737896Y-99818850D01*
X121813970Y-99919992D01*
X121896920Y-100032199D01*
X121906484Y-100045255D01*
X122224074Y-100479195D01*
X122129243Y-100493593D01*
X121999554Y-100529783D01*
X121895554Y-100594351D01*
X121818207Y-100686072D01*
X121768478Y-100803716D01*
X121747330Y-100946059D01*
X121746608Y-100980638D01*
X121762752Y-101124862D01*
X121811248Y-101248093D01*
X121892194Y-101350493D01*
X122005686Y-101432220D01*
X122026974Y-101443440D01*
X122141762Y-101501367D01*
X123323045Y-101506891D01*
X124504328Y-101512414D01*
X124502215Y-101574392D01*
X124496768Y-101636053D01*
X124486225Y-101705230D01*
X124484617Y-101713516D01*
X124431684Y-101885250D01*
X124346020Y-102049933D01*
X124233202Y-102200546D01*
X124098809Y-102330072D01*
X123948416Y-102431495D01*
X123891540Y-102459727D01*
X123844886Y-102479660D01*
X123798364Y-102496508D01*
X123748390Y-102510529D01*
X123691377Y-102521978D01*
X123623739Y-102531113D01*
X123541891Y-102538190D01*
X123442247Y-102543464D01*
X123321222Y-102547194D01*
X123175229Y-102549635D01*
X123000684Y-102551044D01*
X122793999Y-102551677D01*
X122604632Y-102551798D01*
X122370166Y-102551628D01*
X122170649Y-102550918D01*
X122002460Y-102549368D01*
X121861977Y-102546677D01*
X121745577Y-102542546D01*
X121649639Y-102536675D01*
X121570540Y-102528763D01*
X121504659Y-102518510D01*
X121448372Y-102505616D01*
X121398059Y-102489782D01*
X121350097Y-102470707D01*
X121300864Y-102448091D01*
X121290073Y-102442887D01*
X121194888Y-102385242D01*
X121092598Y-102304393D01*
X120993547Y-102210215D01*
X120908079Y-102112582D01*
X120846537Y-102021368D01*
X120844446Y-102017478D01*
X120773178Y-101850540D01*
X120728056Y-101673255D01*
X120718542Y-101602620D01*
X120714650Y-101547451D01*
X120719835Y-101520501D01*
X120738292Y-101511728D01*
X120756820Y-101511010D01*
X120790298Y-101505705D01*
X120794263Y-101482462D01*
X120790098Y-101467616D01*
X120730861Y-101223605D01*
X120709849Y-100982611D01*
X120727011Y-100745534D01*
X120782296Y-100513278D01*
X120855269Y-100328698D01*
X120926362Y-100187753D01*
X120997144Y-100072520D01*
X121075689Y-99971062D01*
X121153230Y-99888090D01*
X121210399Y-99835956D01*
X121280480Y-99779442D01*
X121356139Y-99723575D01*
X121430044Y-99673379D01*
X121494862Y-99633881D01*
X121543259Y-99610107D01*
X121565153Y-99605768D01*
X121582326Y-99622230D01*
G37*
G36*
X122984295Y-95678859D02*
G01*
X123236762Y-95746217D01*
X123474515Y-95849197D01*
X123697827Y-95987908D01*
X123906975Y-96162454D01*
X124000862Y-96257332D01*
X124168098Y-96460759D01*
X124301278Y-96677978D01*
X124403613Y-96914757D01*
X124450703Y-97065528D01*
X124474411Y-97183257D01*
X124490234Y-97326643D01*
X124497930Y-97483538D01*
X124497258Y-97641790D01*
X124487978Y-97789251D01*
X124469849Y-97913771D01*
X124467702Y-97923766D01*
X124396932Y-98174113D01*
X124300022Y-98399881D01*
X124173544Y-98607671D01*
X124014068Y-98804083D01*
X124005519Y-98813343D01*
X123802225Y-99007107D01*
X123585601Y-99164677D01*
X123355524Y-99286103D01*
X123111871Y-99371430D01*
X122854521Y-99420708D01*
X122632583Y-99431573D01*
X122583349Y-99433983D01*
X122431248Y-99426209D01*
X122168251Y-99385644D01*
X121919637Y-99309355D01*
X121684463Y-99196981D01*
X121480127Y-99062142D01*
X121273166Y-98883274D01*
X121094991Y-98681288D01*
X120947698Y-98459308D01*
X120833388Y-98220458D01*
X120759253Y-97988896D01*
X120731509Y-97835493D01*
X120716629Y-97659413D01*
X120716125Y-97613154D01*
X121746338Y-97613154D01*
X121776589Y-97777065D01*
X121835929Y-97928890D01*
X121921319Y-98065406D01*
X122029717Y-98183392D01*
X122158082Y-98279627D01*
X122303376Y-98350889D01*
X122462556Y-98393956D01*
X122632583Y-98405607D01*
X122810416Y-98382620D01*
X122836836Y-98376177D01*
X122997061Y-98315499D01*
X123140509Y-98223207D01*
X123263523Y-98103958D01*
X123362444Y-97962413D01*
X123433616Y-97803230D01*
X123473379Y-97631067D01*
X123479776Y-97557327D01*
X123477865Y-97511819D01*
X123470661Y-97445536D01*
X123463339Y-97395573D01*
X123416838Y-97223431D01*
X123339145Y-97069634D01*
X123234346Y-96936934D01*
X123106529Y-96828079D01*
X122959780Y-96745820D01*
X122798187Y-96692908D01*
X122625836Y-96672092D01*
X122446814Y-96686122D01*
X122417540Y-96691845D01*
X122259331Y-96743924D01*
X122112520Y-96827798D01*
X121983221Y-96937954D01*
X121877547Y-97068878D01*
X121801611Y-97215059D01*
X121785266Y-97261959D01*
X121748217Y-97440378D01*
X121746338Y-97613154D01*
X120716125Y-97613154D01*
X120714613Y-97474345D01*
X120725462Y-97293976D01*
X120749175Y-97131994D01*
X120759253Y-97087187D01*
X120839614Y-96839920D01*
X120952211Y-96608364D01*
X121093874Y-96395236D01*
X121261433Y-96203258D01*
X121451718Y-96035146D01*
X121661558Y-95893622D01*
X121887783Y-95781404D01*
X122127224Y-95701211D01*
X122376710Y-95655762D01*
X122434113Y-95650587D01*
X122716837Y-95647018D01*
X122984295Y-95678859D01*
G37*
G36*
X122187436Y-91389764D02*
G01*
X123665376Y-91395368D01*
X123788549Y-91439855D01*
X123972282Y-91525214D01*
X124133534Y-91638753D01*
X124269378Y-91776864D01*
X124376883Y-91935938D01*
X124453122Y-92112368D01*
X124495166Y-92302545D01*
X124496258Y-92311817D01*
X124509310Y-92427183D01*
X124427611Y-92427183D01*
X124375424Y-92430407D01*
X124355217Y-92441612D01*
X124356143Y-92453847D01*
X124432902Y-92706002D01*
X124475177Y-92968241D01*
X124483238Y-93234821D01*
X124457356Y-93500001D01*
X124397801Y-93758039D01*
X124304844Y-94003191D01*
X124280803Y-94053101D01*
X124145190Y-94286556D01*
X123985959Y-94491042D01*
X123800525Y-94669119D01*
X123586300Y-94823349D01*
X123395362Y-94929834D01*
X123285856Y-94982058D01*
X123183716Y-95024595D01*
X123083010Y-95058524D01*
X122977805Y-95084924D01*
X122862168Y-95104875D01*
X122730166Y-95119458D01*
X122575865Y-95129750D01*
X122393332Y-95136833D01*
X122236811Y-95140638D01*
X122039154Y-95143680D01*
X121877274Y-95144023D01*
X121748466Y-95141615D01*
X121650025Y-95136405D01*
X121579245Y-95128339D01*
X121577246Y-95128006D01*
X121393901Y-95078203D01*
X121224631Y-94995329D01*
X121073220Y-94883487D01*
X120943453Y-94746781D01*
X120839114Y-94589312D01*
X120763988Y-94415185D01*
X120721857Y-94228502D01*
X120718332Y-94196697D01*
X120709674Y-94105088D01*
X121647509Y-94104753D01*
X121882291Y-94104489D01*
X122082151Y-94103667D01*
X122250739Y-94101967D01*
X122391705Y-94099071D01*
X122508698Y-94094660D01*
X122605369Y-94088415D01*
X122685367Y-94080018D01*
X122752342Y-94069149D01*
X122809945Y-94055489D01*
X122861824Y-94038720D01*
X122911631Y-94018524D01*
X122963014Y-93994580D01*
X122974825Y-93988811D01*
X123100907Y-93910882D01*
X123216274Y-93809721D01*
X123307548Y-93697214D01*
X123313407Y-93688081D01*
X123394931Y-93522901D01*
X123441382Y-93344998D01*
X123452349Y-93158568D01*
X123427422Y-92967808D01*
X123395071Y-92853036D01*
X123337073Y-92711026D01*
X123269668Y-92602189D01*
X123189348Y-92521578D01*
X123134103Y-92485042D01*
X123048216Y-92436826D01*
X122296052Y-92425516D01*
X122075850Y-92421721D01*
X121892342Y-92417476D01*
X121743652Y-92412700D01*
X121627902Y-92407311D01*
X121543217Y-92401228D01*
X121487720Y-92394370D01*
X121466743Y-92389564D01*
X121283374Y-92311899D01*
X121119731Y-92204341D01*
X120979145Y-92070953D01*
X120864948Y-91915798D01*
X120780470Y-91742939D01*
X120729042Y-91556439D01*
X120718244Y-91476552D01*
X120709497Y-91384159D01*
X122187436Y-91389764D01*
G37*
G36*
X122290154Y-103284600D02*
G01*
X122450704Y-103286997D01*
X122600148Y-103291006D01*
X122732282Y-103296627D01*
X122840899Y-103303854D01*
X122919794Y-103312686D01*
X122928552Y-103314126D01*
X123180354Y-103377327D01*
X123421996Y-103476194D01*
X123649639Y-103608339D01*
X123859444Y-103771378D01*
X124047570Y-103962924D01*
X124123093Y-104056415D01*
X124188753Y-104153502D01*
X124257663Y-104273295D01*
X124323764Y-104403572D01*
X124380994Y-104532111D01*
X124423296Y-104646692D01*
X124434081Y-104683599D01*
X124470405Y-104859305D01*
X124492159Y-105048234D01*
X124497832Y-105232924D01*
X124491562Y-105348975D01*
X124446870Y-105615012D01*
X124367430Y-105867692D01*
X124255559Y-106104347D01*
X124113572Y-106322307D01*
X123943785Y-106518905D01*
X123748512Y-106691471D01*
X123530070Y-106837337D01*
X123290773Y-106953835D01*
X123032938Y-107038296D01*
X123023863Y-107040575D01*
X122945685Y-107055748D01*
X122850544Y-107065746D01*
X122731072Y-107071116D01*
X122594989Y-107072442D01*
X122471359Y-107071434D01*
X122375845Y-107068113D01*
X122298011Y-107061401D01*
X122227417Y-107050221D01*
X122153629Y-107033493D01*
X122111485Y-107022500D01*
X121866242Y-106938555D01*
X121638451Y-106822261D01*
X121424969Y-106671763D01*
X121253699Y-106516854D01*
X121074270Y-106313836D01*
X120931320Y-106099727D01*
X120823994Y-105872448D01*
X120751436Y-105629920D01*
X120712790Y-105370062D01*
X120706071Y-105200884D01*
X121729500Y-105200884D01*
X121750747Y-105374978D01*
X121808353Y-105545657D01*
X121838038Y-105605200D01*
X121915675Y-105718122D01*
X122019378Y-105826591D01*
X122137244Y-105919378D01*
X122225854Y-105970986D01*
X122281175Y-105997170D01*
X122326961Y-106014814D01*
X122373123Y-106025600D01*
X122429577Y-106031210D01*
X122506236Y-106033327D01*
X122594989Y-106033637D01*
X122697013Y-106033136D01*
X122770509Y-106030518D01*
X122825514Y-106024112D01*
X122872071Y-106012246D01*
X122920218Y-105993248D01*
X122966709Y-105971755D01*
X123092823Y-105895660D01*
X123212814Y-105793568D01*
X123313729Y-105677339D01*
X123352468Y-105618515D01*
X123414565Y-105478446D01*
X123451311Y-105319924D01*
X123461461Y-105154607D01*
X123443771Y-104994154D01*
X123426331Y-104926432D01*
X123357394Y-104764281D01*
X123261575Y-104625381D01*
X123143469Y-104510895D01*
X123007668Y-104421985D01*
X122858768Y-104359814D01*
X122701362Y-104325544D01*
X122540044Y-104320338D01*
X122379409Y-104345359D01*
X122224050Y-104401769D01*
X122078562Y-104490731D01*
X121994082Y-104563973D01*
X121876904Y-104704920D01*
X121793280Y-104861174D01*
X121743912Y-105028056D01*
X121729500Y-105200884D01*
X120706071Y-105200884D01*
X120705442Y-105185042D01*
X120709684Y-105021994D01*
X120723988Y-104875927D01*
X120750725Y-104735988D01*
X120792265Y-104591322D01*
X120850976Y-104431075D01*
X120891757Y-104331625D01*
X120887098Y-104319584D01*
X120857572Y-104312053D01*
X120798250Y-104308297D01*
X120729733Y-104307517D01*
X120557541Y-104307517D01*
X120572150Y-104186166D01*
X120609326Y-104007851D01*
X120677328Y-103845742D01*
X120778795Y-103694877D01*
X120904211Y-103561519D01*
X121056470Y-103442605D01*
X121222227Y-103358746D01*
X121376605Y-103313295D01*
X121441142Y-103304301D01*
X121538012Y-103296944D01*
X121661008Y-103291221D01*
X121803926Y-103287129D01*
X121960560Y-103284663D01*
X122124704Y-103283822D01*
X122290154Y-103284600D01*
G37*
G36*
X119990273Y-78679297D02*
G01*
X120117231Y-78701134D01*
X120221425Y-78752639D01*
X120307686Y-78836534D01*
X120333510Y-78872499D01*
X120386712Y-78952869D01*
X120392200Y-79942722D01*
X120397688Y-80932574D01*
X120994896Y-80932574D01*
X121592103Y-80932574D01*
X121592527Y-80281663D01*
X121592853Y-80091604D01*
X121594016Y-79935964D01*
X121596701Y-79810591D01*
X121601591Y-79711333D01*
X121609372Y-79634037D01*
X121620727Y-79574550D01*
X121636341Y-79528721D01*
X121656899Y-79492395D01*
X121683085Y-79461422D01*
X121715583Y-79431648D01*
X121735344Y-79415145D01*
X121844890Y-79347411D01*
X121961748Y-79314597D01*
X122079834Y-79315451D01*
X122193061Y-79348721D01*
X122295345Y-79413157D01*
X122380601Y-79507507D01*
X122408714Y-79553607D01*
X122419984Y-79575978D01*
X122429073Y-79599801D01*
X122436261Y-79629383D01*
X122441830Y-79669035D01*
X122446063Y-79723066D01*
X122449241Y-79795784D01*
X122451646Y-79891500D01*
X122453560Y-80014523D01*
X122455265Y-80169161D01*
X122456329Y-80281663D01*
X122462317Y-80932574D01*
X123048710Y-80932574D01*
X123635102Y-80932574D01*
X123640596Y-79953797D01*
X123646090Y-78975019D01*
X123700193Y-78882978D01*
X123747817Y-78818137D01*
X123806658Y-78759031D01*
X123833788Y-78738331D01*
X123878813Y-78711504D01*
X123921835Y-78695663D01*
X123975500Y-78688016D01*
X124052458Y-78685772D01*
X124072139Y-78685725D01*
X124153992Y-78687005D01*
X124209980Y-78692863D01*
X124252780Y-78706331D01*
X124295070Y-78730441D01*
X124314626Y-78743703D01*
X124400233Y-78825573D01*
X124451291Y-78906273D01*
X124504328Y-79010865D01*
X124502688Y-80053686D01*
X124502012Y-80306309D01*
X124500805Y-80522601D01*
X124499016Y-80704802D01*
X124496595Y-80855148D01*
X124493492Y-80975881D01*
X124489655Y-81069237D01*
X124485035Y-81137457D01*
X124479581Y-81182777D01*
X124476945Y-81195873D01*
X124423608Y-81353517D01*
X124341414Y-81498503D01*
X124225939Y-81638370D01*
X124204384Y-81660471D01*
X124055945Y-81786841D01*
X123894615Y-81882327D01*
X123726407Y-81943575D01*
X123677208Y-81954453D01*
X123637727Y-81958195D01*
X123563452Y-81961550D01*
X123457979Y-81964520D01*
X123324906Y-81967107D01*
X123167831Y-81969312D01*
X122990350Y-81971138D01*
X122796061Y-81972586D01*
X122588563Y-81973659D01*
X122371451Y-81974358D01*
X122148324Y-81974684D01*
X121922779Y-81974641D01*
X121698413Y-81974229D01*
X121478824Y-81973450D01*
X121267610Y-81972307D01*
X121068367Y-81970801D01*
X120884693Y-81968934D01*
X120720185Y-81966708D01*
X120578442Y-81964125D01*
X120463060Y-81961187D01*
X120377637Y-81957895D01*
X120325770Y-81954251D01*
X120315338Y-81952719D01*
X120140151Y-81897083D01*
X119979794Y-81808460D01*
X119838161Y-81690852D01*
X119719145Y-81548263D01*
X119626638Y-81384694D01*
X119564533Y-81204149D01*
X119557614Y-81173652D01*
X119550940Y-81135170D01*
X119545334Y-81086143D01*
X119540710Y-81023284D01*
X119536985Y-80943301D01*
X119534074Y-80842905D01*
X119531895Y-80718808D01*
X119530363Y-80567719D01*
X119529393Y-80386348D01*
X119528902Y-80171407D01*
X119528809Y-80045279D01*
X119529104Y-79826702D01*
X119530109Y-79626828D01*
X119531773Y-79448578D01*
X119534045Y-79294876D01*
X119536873Y-79168642D01*
X119540207Y-79072801D01*
X119543995Y-79010273D01*
X119547315Y-78986214D01*
X119597853Y-78876864D01*
X119679115Y-78783154D01*
X119762329Y-78724842D01*
X119822311Y-78695430D01*
X119874512Y-78680692D01*
X119936234Y-78677172D01*
X119990273Y-78679297D01*
G37*
G36*
X121594125Y-82672655D02*
G01*
X123665376Y-82677980D01*
X123790736Y-82720893D01*
X123966764Y-82800770D01*
X124124204Y-82911276D01*
X124259283Y-83047738D01*
X124368230Y-83205487D01*
X124447273Y-83379852D01*
X124492639Y-83566163D01*
X124496258Y-83594429D01*
X124509310Y-83709795D01*
X124352529Y-83709795D01*
X124280240Y-83711098D01*
X124225576Y-83714562D01*
X124197591Y-83719526D01*
X124195748Y-83721283D01*
X124205894Y-83743190D01*
X124230776Y-83781885D01*
X124235348Y-83788383D01*
X124281734Y-83866051D01*
X124331893Y-83971378D01*
X124381533Y-84094307D01*
X124426361Y-84224776D01*
X124438151Y-84263618D01*
X124474258Y-84427966D01*
X124494388Y-84611854D01*
X124497770Y-84799369D01*
X124483632Y-84974603D01*
X124475111Y-85026394D01*
X124409208Y-85272553D01*
X124308781Y-85505638D01*
X124176646Y-85722253D01*
X124015617Y-85919001D01*
X123828510Y-86092484D01*
X123618140Y-86239305D01*
X123387323Y-86356067D01*
X123365897Y-86364883D01*
X123115056Y-86446093D01*
X122859011Y-86490976D01*
X122601387Y-86500757D01*
X122601193Y-86500739D01*
X122345808Y-86476656D01*
X122095898Y-86419898D01*
X121855282Y-86331704D01*
X121627582Y-86213298D01*
X121416424Y-86065902D01*
X121225432Y-85890740D01*
X121058229Y-85689032D01*
X120971631Y-85557109D01*
X120864252Y-85351989D01*
X120789167Y-85146563D01*
X120744327Y-84932549D01*
X120727683Y-84701666D01*
X120728401Y-84645584D01*
X121756036Y-84645584D01*
X121757034Y-84737751D01*
X121761646Y-84803906D01*
X121772301Y-84856589D01*
X121791427Y-84908343D01*
X121817709Y-84964127D01*
X121915522Y-85120318D01*
X122041561Y-85251599D01*
X122192361Y-85355049D01*
X122364455Y-85427744D01*
X122369282Y-85429227D01*
X122444797Y-85449190D01*
X122517349Y-85460223D01*
X122601193Y-85463736D01*
X122697148Y-85461670D01*
X122794998Y-85456473D01*
X122867459Y-85447805D01*
X122927706Y-85432941D01*
X122988916Y-85409156D01*
X123020200Y-85394857D01*
X123159994Y-85316510D01*
X123269137Y-85224460D01*
X123355076Y-85111043D01*
X123418568Y-84984762D01*
X123440770Y-84926292D01*
X123453689Y-84872345D01*
X123459056Y-84809968D01*
X123458603Y-84726208D01*
X123457535Y-84693394D01*
X123452054Y-84596007D01*
X123442012Y-84523452D01*
X123424607Y-84462028D01*
X123397232Y-84398433D01*
X123305905Y-84249039D01*
X123190184Y-84124104D01*
X123054970Y-84024551D01*
X122905163Y-83951307D01*
X122745665Y-83905294D01*
X122581377Y-83887439D01*
X122417201Y-83898666D01*
X122258038Y-83939900D01*
X122108789Y-84012065D01*
X121974356Y-84116087D01*
X121962458Y-84127735D01*
X121901277Y-84197640D01*
X121844190Y-84277543D01*
X121808168Y-84341068D01*
X121783322Y-84398813D01*
X121767817Y-84451304D01*
X121759537Y-84510891D01*
X121756367Y-84589926D01*
X121756036Y-84645584D01*
X120728401Y-84645584D01*
X120729265Y-84578052D01*
X120747072Y-84358338D01*
X120784451Y-84163853D01*
X120843624Y-83985376D01*
X120902657Y-83858365D01*
X120934653Y-83796735D01*
X120959318Y-83748760D01*
X120971464Y-83724536D01*
X120971590Y-83724260D01*
X120956211Y-83718645D01*
X120909483Y-83714021D01*
X120838625Y-83710864D01*
X120750858Y-83709650D01*
X120749937Y-83709649D01*
X120588990Y-83706601D01*
X120457063Y-83696574D01*
X120344968Y-83677906D01*
X120243521Y-83648934D01*
X120143535Y-83607996D01*
X120116097Y-83594920D01*
X119948147Y-83492776D01*
X119804048Y-83364040D01*
X119686986Y-83213166D01*
X119600151Y-83044609D01*
X119546731Y-82862824D01*
X119534968Y-82783040D01*
X119522874Y-82667330D01*
X121594125Y-82672655D01*
G37*
G36*
X124504043Y-87041496D02*
G01*
X124495290Y-87122655D01*
X124472428Y-87223510D01*
X124439477Y-87329713D01*
X124400459Y-87426913D01*
X124389921Y-87448734D01*
X124296848Y-87594776D01*
X124174044Y-87729374D01*
X124030166Y-87844871D01*
X123873870Y-87933612D01*
X123813471Y-87958560D01*
X123777904Y-87970544D01*
X123739757Y-87980195D01*
X123694011Y-87987917D01*
X123635650Y-87994117D01*
X123559655Y-87999197D01*
X123461009Y-88003564D01*
X123334695Y-88007622D01*
X123175694Y-88011777D01*
X123144647Y-88012532D01*
X122956189Y-88017669D01*
X122801137Y-88023611D01*
X122674324Y-88031133D01*
X122570583Y-88041008D01*
X122484747Y-88054008D01*
X122411650Y-88070909D01*
X122346123Y-88092482D01*
X122283002Y-88119502D01*
X122220701Y-88150844D01*
X122072356Y-88249660D01*
X121950637Y-88375764D01*
X121854051Y-88530732D01*
X121846666Y-88545885D01*
X121816453Y-88610618D01*
X121796264Y-88661647D01*
X121784087Y-88709742D01*
X121777909Y-88765672D01*
X121775717Y-88840205D01*
X121775485Y-88926728D01*
X121776293Y-89028538D01*
X121779792Y-89103310D01*
X121787846Y-89162572D01*
X121802318Y-89217848D01*
X121825071Y-89280665D01*
X121837929Y-89313027D01*
X121912025Y-89458102D01*
X122003909Y-89569304D01*
X122113330Y-89646354D01*
X122151405Y-89663512D01*
X122172270Y-89670797D01*
X122197380Y-89677024D01*
X122229851Y-89682293D01*
X122272800Y-89686710D01*
X122329343Y-89690374D01*
X122402598Y-89693390D01*
X122495681Y-89695859D01*
X122611708Y-89697884D01*
X122753797Y-89699568D01*
X122925064Y-89701012D01*
X123128626Y-89702320D01*
X123367600Y-89703593D01*
X123371260Y-89703612D01*
X124504328Y-89709278D01*
X124502721Y-89771230D01*
X124497181Y-89825015D01*
X124484674Y-89896716D01*
X124474111Y-89944639D01*
X124427866Y-90090962D01*
X124361559Y-90220808D01*
X124268846Y-90345103D01*
X124196230Y-90423253D01*
X124097047Y-90516099D01*
X124006322Y-90584002D01*
X123919009Y-90632477D01*
X123866433Y-90656419D01*
X123815107Y-90676790D01*
X123761492Y-90693889D01*
X123702050Y-90708015D01*
X123633243Y-90719466D01*
X123551532Y-90728541D01*
X123453380Y-90735540D01*
X123335248Y-90740760D01*
X123193597Y-90744502D01*
X123024890Y-90747063D01*
X122825588Y-90748743D01*
X122592153Y-90749840D01*
X122526856Y-90750062D01*
X122308540Y-90750709D01*
X122125215Y-90751040D01*
X121973300Y-90750935D01*
X121849216Y-90750273D01*
X121749380Y-90748933D01*
X121670213Y-90746795D01*
X121608133Y-90743738D01*
X121559560Y-90739640D01*
X121520913Y-90734382D01*
X121488611Y-90727843D01*
X121459074Y-90719901D01*
X121437813Y-90713344D01*
X121261301Y-90637663D01*
X121103107Y-90530847D01*
X120966883Y-90397436D01*
X120856280Y-90241971D01*
X120774949Y-90068990D01*
X120726542Y-89883035D01*
X120718332Y-89818717D01*
X120709674Y-89727107D01*
X120796156Y-89727107D01*
X120848679Y-89725172D01*
X120870695Y-89716873D01*
X120870179Y-89698468D01*
X120868121Y-89693356D01*
X120816705Y-89547087D01*
X120775295Y-89376131D01*
X120745946Y-89193544D01*
X120730712Y-89012385D01*
X120731648Y-88845710D01*
X120732589Y-88831946D01*
X120771545Y-88548995D01*
X120844500Y-88283811D01*
X120950588Y-88037657D01*
X121088944Y-87811799D01*
X121258703Y-87607503D01*
X121458998Y-87426032D01*
X121688964Y-87268653D01*
X121867574Y-87173287D01*
X121949284Y-87135970D01*
X122029569Y-87103940D01*
X122112033Y-87076806D01*
X122200283Y-87054178D01*
X122297922Y-87035664D01*
X122408555Y-87020874D01*
X122535789Y-87009417D01*
X122683227Y-87000903D01*
X122854475Y-86994942D01*
X123053138Y-86991141D01*
X123282820Y-86989112D01*
X123547127Y-86988463D01*
X123573260Y-86988459D01*
X124504328Y-86988459D01*
X124504043Y-87041496D01*
G37*
%TO.C,R3*%
X163930000Y-68358000D02*
X163930000Y-74898000D01*
X163600000Y-68358000D02*
X163930000Y-68358000D01*
X161520000Y-68358000D02*
X161190000Y-68358000D01*
X161190000Y-68358000D02*
X161190000Y-74898000D01*
X163930000Y-74898000D02*
X163600000Y-74898000D01*
X161190000Y-74898000D02*
X161520000Y-74898000D01*
%TO.C,R1*%
X173970000Y-68330000D02*
X173970000Y-74870000D01*
X173640000Y-68330000D02*
X173970000Y-68330000D01*
X171560000Y-68330000D02*
X171230000Y-68330000D01*
X171230000Y-68330000D02*
X171230000Y-74870000D01*
X173970000Y-74870000D02*
X173640000Y-74870000D01*
X171230000Y-74870000D02*
X171560000Y-74870000D01*
%TD*%
M02*
