%TF.GenerationSoftware,KiCad,Pcbnew,7.0.9*%
%TF.CreationDate,2024-01-01T16:53:49+07:00*%
%TF.ProjectId,Waterbox 2.1,57617465-7262-46f7-9820-322e312e6b69,rev?*%
%TF.SameCoordinates,Original*%
%TF.FileFunction,Copper,L1,Top*%
%TF.FilePolarity,Positive*%
%FSLAX46Y46*%
G04 Gerber Fmt 4.6, Leading zero omitted, Abs format (unit mm)*
G04 Created by KiCad (PCBNEW 7.0.9) date 2024-01-01 16:53:49*
%MOMM*%
%LPD*%
G01*
G04 APERTURE LIST*
G04 Aperture macros list*
%AMRoundRect*
0 Rectangle with rounded corners*
0 $1 Rounding radius*
0 $2 $3 $4 $5 $6 $7 $8 $9 X,Y pos of 4 corners*
0 Add a 4 corners polygon primitive as box body*
4,1,4,$2,$3,$4,$5,$6,$7,$8,$9,$2,$3,0*
0 Add four circle primitives for the rounded corners*
1,1,$1+$1,$2,$3*
1,1,$1+$1,$4,$5*
1,1,$1+$1,$6,$7*
1,1,$1+$1,$8,$9*
0 Add four rect primitives between the rounded corners*
20,1,$1+$1,$2,$3,$4,$5,0*
20,1,$1+$1,$4,$5,$6,$7,0*
20,1,$1+$1,$6,$7,$8,$9,0*
20,1,$1+$1,$8,$9,$2,$3,0*%
G04 Aperture macros list end*
%TA.AperFunction,ComponentPad*%
%ADD10C,1.600000*%
%TD*%
%TA.AperFunction,ComponentPad*%
%ADD11O,1.600000X1.600000*%
%TD*%
%TA.AperFunction,ComponentPad*%
%ADD12RoundRect,0.250000X0.600000X0.725000X-0.600000X0.725000X-0.600000X-0.725000X0.600000X-0.725000X0*%
%TD*%
%TA.AperFunction,ComponentPad*%
%ADD13O,1.700000X1.950000*%
%TD*%
%TA.AperFunction,ComponentPad*%
%ADD14RoundRect,0.250000X0.725000X-0.600000X0.725000X0.600000X-0.725000X0.600000X-0.725000X-0.600000X0*%
%TD*%
%TA.AperFunction,ComponentPad*%
%ADD15O,1.950000X1.700000*%
%TD*%
%TA.AperFunction,SMDPad,CuDef*%
%ADD16C,1.500000*%
%TD*%
%TA.AperFunction,ComponentPad*%
%ADD17C,0.700000*%
%TD*%
%TA.AperFunction,ComponentPad*%
%ADD18C,4.400000*%
%TD*%
%TA.AperFunction,ComponentPad*%
%ADD19R,2.000000X2.000000*%
%TD*%
%TA.AperFunction,ComponentPad*%
%ADD20C,2.000000*%
%TD*%
%TA.AperFunction,ComponentPad*%
%ADD21C,1.800000*%
%TD*%
%TA.AperFunction,ComponentPad*%
%ADD22R,1.530000X1.530000*%
%TD*%
%TA.AperFunction,ComponentPad*%
%ADD23C,1.530000*%
%TD*%
%TA.AperFunction,ComponentPad*%
%ADD24R,2.600000X2.600000*%
%TD*%
%TA.AperFunction,ComponentPad*%
%ADD25C,2.600000*%
%TD*%
%TA.AperFunction,ComponentPad*%
%ADD26R,3.000000X3.000000*%
%TD*%
%TA.AperFunction,ComponentPad*%
%ADD27C,3.000000*%
%TD*%
%TA.AperFunction,ComponentPad*%
%ADD28RoundRect,0.250000X0.600000X0.750000X-0.600000X0.750000X-0.600000X-0.750000X0.600000X-0.750000X0*%
%TD*%
%TA.AperFunction,ComponentPad*%
%ADD29O,1.700000X2.000000*%
%TD*%
%TA.AperFunction,ComponentPad*%
%ADD30C,2.400000*%
%TD*%
%TA.AperFunction,Conductor*%
%ADD31C,0.500000*%
%TD*%
%TA.AperFunction,Conductor*%
%ADD32C,2.500000*%
%TD*%
%TA.AperFunction,Conductor*%
%ADD33C,0.300000*%
%TD*%
G04 APERTURE END LIST*
D10*
%TO.P,R4,1*%
%TO.N,Net-(D2-A)*%
X156500000Y-67790000D03*
D11*
%TO.P,R4,2*%
%TO.N,/LED_TEL*%
X156500000Y-75410000D03*
%TD*%
D12*
%TO.P,LED2,1,BA*%
%TO.N,Net-(D1-BA)*%
X171500000Y-59000000D03*
D13*
%TO.P,LED2,2,GA*%
%TO.N,Net-(D1-GA)*%
X169000000Y-59000000D03*
%TO.P,LED2,3,K*%
%TO.N,GND*%
X166500000Y-59000000D03*
%TO.P,LED2,4,RA*%
%TO.N,Net-(D1-RA)*%
X164000000Y-59000000D03*
%TD*%
D14*
%TO.P,SENSOR,1,Pin_1*%
%TO.N,/Sensor_Data*%
X184023000Y-86106000D03*
D15*
%TO.P,SENSOR,2,Pin_2*%
%TO.N,GND*%
X184023000Y-83606000D03*
%TO.P,SENSOR,3,Pin_3*%
%TO.N,+5V*%
X184023000Y-81106000D03*
%TD*%
D16*
%TO.P,GND,1,1*%
%TO.N,GND*%
X140000000Y-68000000D03*
%TD*%
D17*
%TO.P,H7,1,1*%
%TO.N,GND*%
X134337000Y-127127000D03*
X134820274Y-125960274D03*
X134820274Y-128293726D03*
X135987000Y-125477000D03*
D18*
X135987000Y-127127000D03*
D17*
X135987000Y-128777000D03*
X137153726Y-125960274D03*
X137153726Y-128293726D03*
X137637000Y-127127000D03*
%TD*%
D19*
%TO.P,PS1,1,AC/L*%
%TO.N,Net-(PS1-AC{slash}L)*%
X70900000Y-111000000D03*
D20*
%TO.P,PS1,2,AC/N*%
%TO.N,Net-(PS1-AC{slash}N)*%
X70900000Y-117000000D03*
%TO.P,PS1,3,-Vout*%
%TO.N,GND*%
X104500000Y-105000000D03*
%TO.P,PS1,4,+Vout*%
%TO.N,+5V*%
X104500000Y-123000000D03*
%TD*%
D16*
%TO.P,5V,1,1*%
%TO.N,+5V*%
X140000000Y-75000000D03*
%TD*%
D21*
%TO.P,RV1,1*%
%TO.N,Net-(VAC_IN1-Pin_2)*%
X105400000Y-83000000D03*
%TO.P,RV1,2*%
%TO.N,Net-(VAC_IN1-Pin_1)*%
X104000000Y-90500000D03*
%TD*%
D17*
%TO.P,H5,1,1*%
%TO.N,GND*%
X134337000Y-57071000D03*
X134820274Y-55904274D03*
X134820274Y-58237726D03*
X135987000Y-55421000D03*
D18*
X135987000Y-57071000D03*
D17*
X135987000Y-58721000D03*
X137153726Y-55904274D03*
X137153726Y-58237726D03*
X137637000Y-57071000D03*
%TD*%
D22*
%TO.P,ESP32-DEVKITC-32U,1,3V3*%
%TO.N,unconnected-(ESP32-DEVKITC-32U1-3V3-Pad1)*%
X181850000Y-95300000D03*
D23*
%TO.P,ESP32-DEVKITC-32U,2,EN*%
%TO.N,unconnected-(ESP32-DEVKITC-32U1-EN-Pad2)*%
X179310000Y-95300000D03*
%TO.P,ESP32-DEVKITC-32U,3,SENSOR_VP*%
%TO.N,unconnected-(ESP32-DEVKITC-32U1-SENSOR_VP-Pad3)*%
X176770000Y-95300000D03*
%TO.P,ESP32-DEVKITC-32U,4,SENSOR_VN*%
%TO.N,unconnected-(ESP32-DEVKITC-32U1-SENSOR_VN-Pad4)*%
X174230000Y-95300000D03*
%TO.P,ESP32-DEVKITC-32U,5,IO34*%
%TO.N,unconnected-(ESP32-DEVKITC-32U1-IO34-Pad5)*%
X171690000Y-95300000D03*
%TO.P,ESP32-DEVKITC-32U,6,IO35*%
%TO.N,unconnected-(ESP32-DEVKITC-32U1-IO35-Pad6)*%
X169150000Y-95300000D03*
%TO.P,ESP32-DEVKITC-32U,7,IO32*%
%TO.N,unconnected-(ESP32-DEVKITC-32U1-IO32-Pad7)*%
X166610000Y-95300000D03*
%TO.P,ESP32-DEVKITC-32U,8,IO33*%
%TO.N,unconnected-(ESP32-DEVKITC-32U1-IO33-Pad8)*%
X164070000Y-95300000D03*
%TO.P,ESP32-DEVKITC-32U,9,IO25*%
%TO.N,/RGBLED_B*%
X161530000Y-95300000D03*
%TO.P,ESP32-DEVKITC-32U,10,IO26*%
%TO.N,/RGBLED_G*%
X158990000Y-95300000D03*
%TO.P,ESP32-DEVKITC-32U,11,IO27*%
%TO.N,/RGBLED_R*%
X156450000Y-95300000D03*
%TO.P,ESP32-DEVKITC-32U,12,IO14*%
%TO.N,unconnected-(ESP32-DEVKITC-32U1-IO14-Pad12)*%
X153910000Y-95300000D03*
%TO.P,ESP32-DEVKITC-32U,13,IO12*%
%TO.N,unconnected-(ESP32-DEVKITC-32U1-IO12-Pad13)*%
X151370000Y-95300000D03*
%TO.P,ESP32-DEVKITC-32U,14,GND1*%
%TO.N,GND*%
X148830000Y-95300000D03*
%TO.P,ESP32-DEVKITC-32U,15,IO13*%
%TO.N,/LED_TEL*%
X146290000Y-95300000D03*
%TO.P,ESP32-DEVKITC-32U,16,SD2*%
%TO.N,unconnected-(ESP32-DEVKITC-32U1-SD2-Pad16)*%
X143750000Y-95300000D03*
%TO.P,ESP32-DEVKITC-32U,17,SD3*%
%TO.N,unconnected-(ESP32-DEVKITC-32U1-SD3-Pad17)*%
X141210000Y-95300000D03*
%TO.P,ESP32-DEVKITC-32U,18,CMD*%
%TO.N,unconnected-(ESP32-DEVKITC-32U1-CMD-Pad18)*%
X138670000Y-95300000D03*
%TO.P,ESP32-DEVKITC-32U,19,EXT_5V*%
%TO.N,+5V*%
X136130000Y-95300000D03*
%TO.P,ESP32-DEVKITC-32U,20,CLK*%
%TO.N,unconnected-(ESP32-DEVKITC-32U1-CLK-Pad20)*%
X136130000Y-120700000D03*
%TO.P,ESP32-DEVKITC-32U,21,SD0*%
%TO.N,unconnected-(ESP32-DEVKITC-32U1-SD0-Pad21)*%
X138670000Y-120700000D03*
%TO.P,ESP32-DEVKITC-32U,22,SD1*%
%TO.N,unconnected-(ESP32-DEVKITC-32U1-SD1-Pad22)*%
X141210000Y-120700000D03*
%TO.P,ESP32-DEVKITC-32U,23,IO15*%
%TO.N,unconnected-(ESP32-DEVKITC-32U1-IO15-Pad23)*%
X143750000Y-120700000D03*
%TO.P,ESP32-DEVKITC-32U,24,IO2*%
%TO.N,unconnected-(ESP32-DEVKITC-32U1-IO2-Pad24)*%
X146290000Y-120700000D03*
%TO.P,ESP32-DEVKITC-32U,25,IO0*%
%TO.N,unconnected-(ESP32-DEVKITC-32U1-IO0-Pad25)*%
X148830000Y-120700000D03*
%TO.P,ESP32-DEVKITC-32U,26,IO4*%
%TO.N,/Sensor_Data*%
X151370000Y-120700000D03*
%TO.P,ESP32-DEVKITC-32U,27,IO16*%
%TO.N,unconnected-(ESP32-DEVKITC-32U1-IO16-Pad27)*%
X153910000Y-120700000D03*
%TO.P,ESP32-DEVKITC-32U,28,IO17*%
%TO.N,unconnected-(ESP32-DEVKITC-32U1-IO17-Pad28)*%
X156450000Y-120700000D03*
%TO.P,ESP32-DEVKITC-32U,29,IO5*%
%TO.N,unconnected-(ESP32-DEVKITC-32U1-IO5-Pad29)*%
X158990000Y-120700000D03*
%TO.P,ESP32-DEVKITC-32U,30,IO18*%
%TO.N,unconnected-(ESP32-DEVKITC-32U1-IO18-Pad30)*%
X161530000Y-120700000D03*
%TO.P,ESP32-DEVKITC-32U,31,IO19*%
%TO.N,unconnected-(ESP32-DEVKITC-32U1-IO19-Pad31)*%
X164070000Y-120700000D03*
%TO.P,ESP32-DEVKITC-32U,32,GND2*%
%TO.N,GND*%
X166610000Y-120700000D03*
%TO.P,ESP32-DEVKITC-32U,33,IO21*%
%TO.N,unconnected-(ESP32-DEVKITC-32U1-IO21-Pad33)*%
X169150000Y-120700000D03*
%TO.P,ESP32-DEVKITC-32U,34,RXD0*%
%TO.N,unconnected-(ESP32-DEVKITC-32U1-RXD0-Pad34)*%
X171690000Y-120700000D03*
%TO.P,ESP32-DEVKITC-32U,35,TXD0*%
%TO.N,unconnected-(ESP32-DEVKITC-32U1-TXD0-Pad35)*%
X174230000Y-120700000D03*
%TO.P,ESP32-DEVKITC-32U,36,IO22*%
%TO.N,unconnected-(ESP32-DEVKITC-32U1-IO22-Pad36)*%
X176770000Y-120700000D03*
%TO.P,ESP32-DEVKITC-32U,37,IO23*%
%TO.N,unconnected-(ESP32-DEVKITC-32U1-IO23-Pad37)*%
X179310000Y-120700000D03*
%TO.P,ESP32-DEVKITC-32U,38,GND3*%
%TO.N,GND*%
X181850000Y-120700000D03*
%TD*%
D24*
%TO.P,VAC_IN,1,Pin_1*%
%TO.N,Net-(VAC_IN1-Pin_1)*%
X91857500Y-61750000D03*
D25*
%TO.P,VAC_IN,2,Pin_2*%
%TO.N,Net-(VAC_IN1-Pin_2)*%
X86857500Y-61750000D03*
%TD*%
D17*
%TO.P,H4,1,1*%
%TO.N,GND*%
X113444000Y-127127000D03*
X113927274Y-125960274D03*
X113927274Y-128293726D03*
X115094000Y-125477000D03*
D18*
X115094000Y-127127000D03*
D17*
X115094000Y-128777000D03*
X116260726Y-125960274D03*
X116260726Y-128293726D03*
X116744000Y-127127000D03*
%TD*%
%TO.P,H6,1,1*%
%TO.N,GND*%
X186437000Y-57071000D03*
X186920274Y-55904274D03*
X186920274Y-58237726D03*
X188087000Y-55421000D03*
D18*
X188087000Y-57071000D03*
D17*
X188087000Y-58721000D03*
X189253726Y-55904274D03*
X189253726Y-58237726D03*
X189737000Y-57071000D03*
%TD*%
D19*
%TO.P,C2,1*%
%TO.N,+5V*%
X142000000Y-84500000D03*
D20*
%TO.P,C2,2*%
%TO.N,GND*%
X147000000Y-84500000D03*
%TD*%
D26*
%TO.P,FL1,1,1*%
%TO.N,Net-(VAC_IN1-Pin_2)*%
X82250000Y-80950000D03*
D27*
%TO.P,FL1,2,2*%
%TO.N,Net-(PS1-AC{slash}L)*%
X72250000Y-80950000D03*
%TO.P,FL1,3,3*%
%TO.N,Net-(PS1-AC{slash}N)*%
X72250000Y-93550000D03*
%TO.P,FL1,4,4*%
%TO.N,Net-(VAC_IN1-Pin_1)*%
X82250000Y-93550000D03*
%TD*%
D10*
%TO.P,R2,1*%
%TO.N,Net-(D1-GA)*%
X167640000Y-67818000D03*
D11*
%TO.P,R2,2*%
%TO.N,/RGBLED_G*%
X167640000Y-75438000D03*
%TD*%
D28*
%TO.P,LED1,1,K*%
%TO.N,GND*%
X156000000Y-59000000D03*
D29*
%TO.P,LED1,2,A*%
%TO.N,Net-(D2-A)*%
X153500000Y-59000000D03*
%TD*%
D30*
%TO.P,C1,1*%
%TO.N,Net-(VAC_IN1-Pin_2)*%
X94000000Y-79500000D03*
%TO.P,C1,2*%
%TO.N,Net-(VAC_IN1-Pin_1)*%
X94000000Y-94500000D03*
%TD*%
D10*
%TO.P,R3,1*%
%TO.N,Net-(D1-RA)*%
X162560000Y-67818000D03*
D11*
%TO.P,R3,2*%
%TO.N,/RGBLED_R*%
X162560000Y-75438000D03*
%TD*%
D17*
%TO.P,H8,1,1*%
%TO.N,GND*%
X186437000Y-127127000D03*
X186920274Y-125960274D03*
X186920274Y-128293726D03*
X188087000Y-125477000D03*
D18*
X188087000Y-127127000D03*
D17*
X188087000Y-128777000D03*
X189253726Y-125960274D03*
X189253726Y-128293726D03*
X189737000Y-127127000D03*
%TD*%
D10*
%TO.P,R1,1*%
%TO.N,Net-(D1-BA)*%
X172600000Y-67790000D03*
D11*
%TO.P,R1,2*%
%TO.N,/RGBLED_B*%
X172600000Y-75410000D03*
%TD*%
D31*
%TO.N,+5V*%
X142000000Y-79000000D02*
X149000000Y-72000000D01*
X136130000Y-90370000D02*
X136250000Y-90250000D01*
X127500000Y-111000000D02*
X124000000Y-114500000D01*
X184023000Y-79023000D02*
X184023000Y-81106000D01*
X177000000Y-72000000D02*
X184023000Y-79023000D01*
X113000000Y-114500000D02*
X104500000Y-123000000D01*
X142000000Y-84500000D02*
X142000000Y-79000000D01*
X124000000Y-114500000D02*
X113000000Y-114500000D01*
X136250000Y-90250000D02*
X142000000Y-84500000D01*
X140000000Y-77000000D02*
X142000000Y-79000000D01*
X149000000Y-72000000D02*
X177000000Y-72000000D01*
X140000000Y-75000000D02*
X140000000Y-77000000D01*
X127500000Y-99000000D02*
X127500000Y-111000000D01*
X136250000Y-90250000D02*
X127500000Y-99000000D01*
X136130000Y-95300000D02*
X136130000Y-90370000D01*
D32*
%TO.N,Net-(VAC_IN1-Pin_2)*%
X86857500Y-65857500D02*
X86857500Y-61750000D01*
X102250000Y-68750000D02*
X89750000Y-68750000D01*
X105400000Y-83000000D02*
X97750000Y-83000000D01*
X97500000Y-83000000D02*
X97750000Y-83000000D01*
X107750000Y-74250000D02*
X102250000Y-68750000D01*
X107750000Y-80650000D02*
X107750000Y-74250000D01*
X94000000Y-79500000D02*
X97500000Y-83000000D01*
X89750000Y-68750000D02*
X86857500Y-65857500D01*
X94000000Y-83000000D02*
X84300000Y-83000000D01*
X84300000Y-83000000D02*
X82250000Y-80950000D01*
X105400000Y-83000000D02*
X107750000Y-80650000D01*
X97750000Y-83000000D02*
X94000000Y-83000000D01*
D33*
%TO.N,Net-(D1-BA)*%
X171500000Y-59000000D02*
X171500000Y-61500000D01*
X171500000Y-61500000D02*
X172600000Y-62600000D01*
X172600000Y-62600000D02*
X172600000Y-67790000D01*
D32*
%TO.N,Net-(PS1-AC{slash}L)*%
X64500000Y-88700000D02*
X72250000Y-80950000D01*
X70900000Y-111000000D02*
X70750000Y-111000000D01*
X64500000Y-104750000D02*
X64500000Y-88700000D01*
X70750000Y-111000000D02*
X64500000Y-104750000D01*
%TO.N,Net-(PS1-AC{slash}N)*%
X74250000Y-117000000D02*
X76500000Y-114750000D01*
X76500000Y-97800000D02*
X72250000Y-93550000D01*
X76500000Y-114750000D02*
X76500000Y-97800000D01*
X70900000Y-117000000D02*
X74250000Y-117000000D01*
D33*
%TO.N,Net-(D1-GA)*%
X167640000Y-67818000D02*
X167640000Y-62860000D01*
X169000000Y-61500000D02*
X169000000Y-59000000D01*
X167640000Y-62860000D02*
X169000000Y-61500000D01*
%TO.N,Net-(D1-RA)*%
X162500000Y-64000000D02*
X162560000Y-64060000D01*
X164000000Y-62500000D02*
X162500000Y-64000000D01*
X162560000Y-64060000D02*
X162560000Y-67818000D01*
X164000000Y-59000000D02*
X164000000Y-62500000D01*
%TO.N,Net-(D2-A)*%
X153500000Y-64790000D02*
X156500000Y-67790000D01*
X153500000Y-59000000D02*
X153500000Y-64790000D01*
D32*
%TO.N,Net-(VAC_IN1-Pin_1)*%
X105250000Y-61750000D02*
X114250000Y-70750000D01*
X104000000Y-90500000D02*
X98000000Y-90500000D01*
X114250000Y-70750000D02*
X114250000Y-88000000D01*
X98000000Y-90500000D02*
X94000000Y-90500000D01*
X114250000Y-88000000D02*
X111750000Y-90500000D01*
X85300000Y-90500000D02*
X82250000Y-93550000D01*
X91857500Y-61750000D02*
X105250000Y-61750000D01*
X94000000Y-94500000D02*
X98000000Y-90500000D01*
X94000000Y-90500000D02*
X85300000Y-90500000D01*
X111750000Y-90500000D02*
X104000000Y-90500000D01*
D33*
%TO.N,/RGBLED_B*%
X161530000Y-95300000D02*
X161530000Y-93220000D01*
X161530000Y-93220000D02*
X172600000Y-82150000D01*
X172600000Y-82150000D02*
X172600000Y-75410000D01*
%TO.N,/RGBLED_G*%
X158990000Y-95300000D02*
X158990000Y-90760000D01*
X158990000Y-90760000D02*
X167640000Y-82110000D01*
X167640000Y-82110000D02*
X167640000Y-75438000D01*
%TO.N,/RGBLED_R*%
X162560000Y-82190000D02*
X162560000Y-75438000D01*
X156450000Y-95300000D02*
X156450000Y-88300000D01*
X156450000Y-88300000D02*
X162560000Y-82190000D01*
%TO.N,/LED_TEL*%
X146290000Y-95300000D02*
X146290000Y-92460000D01*
X156500000Y-82250000D02*
X156500000Y-75410000D01*
X146290000Y-92460000D02*
X156500000Y-82250000D01*
%TO.N,/Sensor_Data*%
X180000000Y-110500000D02*
X161500000Y-110500000D01*
X186500000Y-88500000D02*
X186500000Y-104000000D01*
X161500000Y-110570000D02*
X151370000Y-120700000D01*
X186500000Y-104000000D02*
X180000000Y-110500000D01*
X161500000Y-110500000D02*
X161500000Y-110570000D01*
X186417000Y-88500000D02*
X186500000Y-88500000D01*
X184023000Y-86106000D02*
X186417000Y-88500000D01*
%TD*%
%TA.AperFunction,Conductor*%
%TO.N,GND*%
G36*
X190570539Y-52876459D02*
G01*
X190616294Y-52929263D01*
X190627500Y-52980774D01*
X190627500Y-55609664D01*
X190607815Y-55676703D01*
X190555011Y-55722458D01*
X190485853Y-55732402D01*
X190422297Y-55703377D01*
X190397383Y-55673814D01*
X190313118Y-55534423D01*
X190313112Y-55534414D01*
X190165521Y-55346030D01*
X189022788Y-56488763D01*
X188922106Y-56347376D01*
X188770068Y-56202408D01*
X188667777Y-56136669D01*
X188854523Y-55949923D01*
X189053726Y-55949923D01*
X189093339Y-56032179D01*
X189164718Y-56089101D01*
X189231194Y-56104274D01*
X189276258Y-56104274D01*
X189342734Y-56089101D01*
X189414113Y-56032179D01*
X189453726Y-55949923D01*
X189453726Y-55858625D01*
X189414113Y-55776369D01*
X189342734Y-55719447D01*
X189276258Y-55704274D01*
X189231194Y-55704274D01*
X189164718Y-55719447D01*
X189093339Y-55776369D01*
X189053726Y-55858625D01*
X189053726Y-55949923D01*
X188854523Y-55949923D01*
X189811968Y-54992477D01*
X189811968Y-54992476D01*
X189623586Y-54844887D01*
X189344043Y-54675898D01*
X189344041Y-54675897D01*
X189046175Y-54541839D01*
X189046164Y-54541835D01*
X188734341Y-54444667D01*
X188413038Y-54385786D01*
X188087000Y-54366065D01*
X187760961Y-54385786D01*
X187439658Y-54444667D01*
X187127835Y-54541835D01*
X187127824Y-54541839D01*
X186829958Y-54675897D01*
X186829956Y-54675898D01*
X186550423Y-54844881D01*
X186362030Y-54992476D01*
X186362030Y-54992477D01*
X187503693Y-56134140D01*
X187489590Y-56141411D01*
X187324460Y-56271271D01*
X187186890Y-56430035D01*
X187152334Y-56489887D01*
X186612370Y-55949923D01*
X186720274Y-55949923D01*
X186759887Y-56032179D01*
X186831266Y-56089101D01*
X186897742Y-56104274D01*
X186942806Y-56104274D01*
X187009282Y-56089101D01*
X187080661Y-56032179D01*
X187120274Y-55949923D01*
X187120274Y-55858625D01*
X187080661Y-55776369D01*
X187009282Y-55719447D01*
X186942806Y-55704274D01*
X186897742Y-55704274D01*
X186831266Y-55719447D01*
X186759887Y-55776369D01*
X186720274Y-55858625D01*
X186720274Y-55949923D01*
X186612370Y-55949923D01*
X186008477Y-55346030D01*
X186008476Y-55346030D01*
X185860881Y-55534423D01*
X185691898Y-55813956D01*
X185691897Y-55813958D01*
X185557839Y-56111824D01*
X185557835Y-56111835D01*
X185460667Y-56423658D01*
X185401786Y-56744961D01*
X185382065Y-57071000D01*
X185401786Y-57397038D01*
X185460667Y-57718341D01*
X185557835Y-58030164D01*
X185557839Y-58030175D01*
X185691897Y-58328041D01*
X185691898Y-58328043D01*
X185860887Y-58607586D01*
X186008477Y-58795968D01*
X186521070Y-58283375D01*
X186720274Y-58283375D01*
X186759887Y-58365631D01*
X186831266Y-58422553D01*
X186897742Y-58437726D01*
X186942806Y-58437726D01*
X187009282Y-58422553D01*
X187080661Y-58365631D01*
X187120274Y-58283375D01*
X187120274Y-58192077D01*
X187080661Y-58109821D01*
X187009282Y-58052899D01*
X186942806Y-58037726D01*
X186897742Y-58037726D01*
X186831266Y-58052899D01*
X186759887Y-58109821D01*
X186720274Y-58192077D01*
X186720274Y-58283375D01*
X186521070Y-58283375D01*
X187151210Y-57653234D01*
X187251894Y-57794624D01*
X187403932Y-57939592D01*
X187506222Y-58005330D01*
X186362030Y-59149521D01*
X186362030Y-59149522D01*
X186550414Y-59297112D01*
X186550423Y-59297118D01*
X186829956Y-59466101D01*
X186829958Y-59466102D01*
X187127824Y-59600160D01*
X187127835Y-59600164D01*
X187439658Y-59697332D01*
X187760961Y-59756213D01*
X188087000Y-59775934D01*
X188413038Y-59756213D01*
X188734341Y-59697332D01*
X189046164Y-59600164D01*
X189046175Y-59600160D01*
X189344041Y-59466102D01*
X189344043Y-59466101D01*
X189623576Y-59297118D01*
X189623584Y-59297112D01*
X189811968Y-59149522D01*
X189811968Y-59149521D01*
X188945822Y-58283375D01*
X189053726Y-58283375D01*
X189093339Y-58365631D01*
X189164718Y-58422553D01*
X189231194Y-58437726D01*
X189276258Y-58437726D01*
X189342734Y-58422553D01*
X189414113Y-58365631D01*
X189453726Y-58283375D01*
X189453726Y-58192077D01*
X189414113Y-58109821D01*
X189342734Y-58052899D01*
X189276258Y-58037726D01*
X189231194Y-58037726D01*
X189164718Y-58052899D01*
X189093339Y-58109821D01*
X189053726Y-58192077D01*
X189053726Y-58283375D01*
X188945822Y-58283375D01*
X188670306Y-58007859D01*
X188684410Y-58000589D01*
X188849540Y-57870729D01*
X188987110Y-57711965D01*
X189021665Y-57652112D01*
X190165521Y-58795968D01*
X190165522Y-58795968D01*
X190313112Y-58607584D01*
X190313118Y-58607576D01*
X190397383Y-58468185D01*
X190448911Y-58420998D01*
X190517770Y-58409159D01*
X190582099Y-58436428D01*
X190621473Y-58494146D01*
X190627500Y-58532335D01*
X190627500Y-125665664D01*
X190607815Y-125732703D01*
X190555011Y-125778458D01*
X190485853Y-125788402D01*
X190422297Y-125759377D01*
X190397383Y-125729814D01*
X190313118Y-125590423D01*
X190313112Y-125590414D01*
X190165521Y-125402030D01*
X189022788Y-126544763D01*
X188922106Y-126403376D01*
X188770068Y-126258408D01*
X188667777Y-126192669D01*
X188854523Y-126005923D01*
X189053726Y-126005923D01*
X189093339Y-126088179D01*
X189164718Y-126145101D01*
X189231194Y-126160274D01*
X189276258Y-126160274D01*
X189342734Y-126145101D01*
X189414113Y-126088179D01*
X189453726Y-126005923D01*
X189453726Y-125914625D01*
X189414113Y-125832369D01*
X189342734Y-125775447D01*
X189276258Y-125760274D01*
X189231194Y-125760274D01*
X189164718Y-125775447D01*
X189093339Y-125832369D01*
X189053726Y-125914625D01*
X189053726Y-126005923D01*
X188854523Y-126005923D01*
X189811968Y-125048477D01*
X189811968Y-125048476D01*
X189623586Y-124900887D01*
X189344043Y-124731898D01*
X189344041Y-124731897D01*
X189046175Y-124597839D01*
X189046164Y-124597835D01*
X188734341Y-124500667D01*
X188413038Y-124441786D01*
X188087000Y-124422065D01*
X187760961Y-124441786D01*
X187439658Y-124500667D01*
X187127835Y-124597835D01*
X187127824Y-124597839D01*
X186829958Y-124731897D01*
X186829956Y-124731898D01*
X186550423Y-124900881D01*
X186362030Y-125048476D01*
X186362030Y-125048477D01*
X187503693Y-126190140D01*
X187489590Y-126197411D01*
X187324460Y-126327271D01*
X187186890Y-126486035D01*
X187152334Y-126545887D01*
X186612370Y-126005923D01*
X186720274Y-126005923D01*
X186759887Y-126088179D01*
X186831266Y-126145101D01*
X186897742Y-126160274D01*
X186942806Y-126160274D01*
X187009282Y-126145101D01*
X187080661Y-126088179D01*
X187120274Y-126005923D01*
X187120274Y-125914625D01*
X187080661Y-125832369D01*
X187009282Y-125775447D01*
X186942806Y-125760274D01*
X186897742Y-125760274D01*
X186831266Y-125775447D01*
X186759887Y-125832369D01*
X186720274Y-125914625D01*
X186720274Y-126005923D01*
X186612370Y-126005923D01*
X186008477Y-125402030D01*
X186008476Y-125402030D01*
X185860881Y-125590423D01*
X185691898Y-125869956D01*
X185691897Y-125869958D01*
X185557839Y-126167824D01*
X185557835Y-126167835D01*
X185460667Y-126479658D01*
X185401786Y-126800961D01*
X185382065Y-127127000D01*
X185401786Y-127453038D01*
X185460667Y-127774341D01*
X185557835Y-128086164D01*
X185557839Y-128086175D01*
X185691897Y-128384041D01*
X185691898Y-128384043D01*
X185860887Y-128663586D01*
X186008477Y-128851968D01*
X186521070Y-128339375D01*
X186720274Y-128339375D01*
X186759887Y-128421631D01*
X186831266Y-128478553D01*
X186897742Y-128493726D01*
X186942806Y-128493726D01*
X187009282Y-128478553D01*
X187080661Y-128421631D01*
X187120274Y-128339375D01*
X187120274Y-128248077D01*
X187080661Y-128165821D01*
X187009282Y-128108899D01*
X186942806Y-128093726D01*
X186897742Y-128093726D01*
X186831266Y-128108899D01*
X186759887Y-128165821D01*
X186720274Y-128248077D01*
X186720274Y-128339375D01*
X186521070Y-128339375D01*
X187151210Y-127709234D01*
X187251894Y-127850624D01*
X187403932Y-127995592D01*
X187506222Y-128061330D01*
X186362030Y-129205521D01*
X186362030Y-129205522D01*
X186550414Y-129353112D01*
X186550423Y-129353118D01*
X186829956Y-129522101D01*
X186829958Y-129522102D01*
X187127824Y-129656160D01*
X187127835Y-129656164D01*
X187439658Y-129753332D01*
X187760961Y-129812213D01*
X188087000Y-129831934D01*
X188413038Y-129812213D01*
X188734341Y-129753332D01*
X189046164Y-129656164D01*
X189046175Y-129656160D01*
X189344041Y-129522102D01*
X189344043Y-129522101D01*
X189623576Y-129353118D01*
X189623584Y-129353112D01*
X189811968Y-129205522D01*
X189811968Y-129205521D01*
X188945822Y-128339375D01*
X189053726Y-128339375D01*
X189093339Y-128421631D01*
X189164718Y-128478553D01*
X189231194Y-128493726D01*
X189276258Y-128493726D01*
X189342734Y-128478553D01*
X189414113Y-128421631D01*
X189453726Y-128339375D01*
X189453726Y-128248077D01*
X189414113Y-128165821D01*
X189342734Y-128108899D01*
X189276258Y-128093726D01*
X189231194Y-128093726D01*
X189164718Y-128108899D01*
X189093339Y-128165821D01*
X189053726Y-128248077D01*
X189053726Y-128339375D01*
X188945822Y-128339375D01*
X188670306Y-128063859D01*
X188684410Y-128056589D01*
X188849540Y-127926729D01*
X188987110Y-127767965D01*
X189021665Y-127708112D01*
X190165521Y-128851968D01*
X190165522Y-128851968D01*
X190313112Y-128663584D01*
X190313118Y-128663576D01*
X190397383Y-128524185D01*
X190448911Y-128476998D01*
X190517770Y-128465159D01*
X190582099Y-128492428D01*
X190621473Y-128550146D01*
X190627500Y-128588335D01*
X190627500Y-131217774D01*
X190607815Y-131284813D01*
X190555011Y-131330568D01*
X190503500Y-131341774D01*
X132332500Y-131341774D01*
X132265461Y-131322089D01*
X132219706Y-131269285D01*
X132208500Y-131217774D01*
X132208500Y-127127000D01*
X133282065Y-127127000D01*
X133301786Y-127453038D01*
X133360667Y-127774341D01*
X133457835Y-128086164D01*
X133457839Y-128086175D01*
X133591897Y-128384041D01*
X133591898Y-128384043D01*
X133760887Y-128663586D01*
X133908477Y-128851968D01*
X134421070Y-128339375D01*
X134620274Y-128339375D01*
X134659887Y-128421631D01*
X134731266Y-128478553D01*
X134797742Y-128493726D01*
X134842806Y-128493726D01*
X134909282Y-128478553D01*
X134980661Y-128421631D01*
X135020274Y-128339375D01*
X135020274Y-128248077D01*
X134980661Y-128165821D01*
X134909282Y-128108899D01*
X134842806Y-128093726D01*
X134797742Y-128093726D01*
X134731266Y-128108899D01*
X134659887Y-128165821D01*
X134620274Y-128248077D01*
X134620274Y-128339375D01*
X134421070Y-128339375D01*
X135051210Y-127709234D01*
X135151894Y-127850624D01*
X135303932Y-127995592D01*
X135406222Y-128061330D01*
X134262030Y-129205521D01*
X134262030Y-129205522D01*
X134450414Y-129353112D01*
X134450423Y-129353118D01*
X134729956Y-129522101D01*
X134729958Y-129522102D01*
X135027824Y-129656160D01*
X135027835Y-129656164D01*
X135339658Y-129753332D01*
X135660961Y-129812213D01*
X135987000Y-129831934D01*
X136313038Y-129812213D01*
X136634341Y-129753332D01*
X136946164Y-129656164D01*
X136946175Y-129656160D01*
X137244041Y-129522102D01*
X137244043Y-129522101D01*
X137523576Y-129353118D01*
X137523584Y-129353112D01*
X137711968Y-129205522D01*
X137711968Y-129205521D01*
X136845822Y-128339375D01*
X136953726Y-128339375D01*
X136993339Y-128421631D01*
X137064718Y-128478553D01*
X137131194Y-128493726D01*
X137176258Y-128493726D01*
X137242734Y-128478553D01*
X137314113Y-128421631D01*
X137353726Y-128339375D01*
X137353726Y-128248077D01*
X137314113Y-128165821D01*
X137242734Y-128108899D01*
X137176258Y-128093726D01*
X137131194Y-128093726D01*
X137064718Y-128108899D01*
X136993339Y-128165821D01*
X136953726Y-128248077D01*
X136953726Y-128339375D01*
X136845822Y-128339375D01*
X136570306Y-128063859D01*
X136584410Y-128056589D01*
X136749540Y-127926729D01*
X136887110Y-127767965D01*
X136921665Y-127708112D01*
X138065521Y-128851968D01*
X138065522Y-128851968D01*
X138213112Y-128663584D01*
X138213118Y-128663576D01*
X138382101Y-128384043D01*
X138382102Y-128384041D01*
X138516160Y-128086175D01*
X138516164Y-128086164D01*
X138613332Y-127774341D01*
X138672213Y-127453038D01*
X138691934Y-127127000D01*
X138672213Y-126800961D01*
X138613332Y-126479658D01*
X138516164Y-126167835D01*
X138516160Y-126167824D01*
X138382102Y-125869958D01*
X138382101Y-125869956D01*
X138213118Y-125590423D01*
X138213112Y-125590414D01*
X138065521Y-125402030D01*
X136922788Y-126544763D01*
X136822106Y-126403376D01*
X136670068Y-126258408D01*
X136567777Y-126192669D01*
X136754523Y-126005923D01*
X136953726Y-126005923D01*
X136993339Y-126088179D01*
X137064718Y-126145101D01*
X137131194Y-126160274D01*
X137176258Y-126160274D01*
X137242734Y-126145101D01*
X137314113Y-126088179D01*
X137353726Y-126005923D01*
X137353726Y-125914625D01*
X137314113Y-125832369D01*
X137242734Y-125775447D01*
X137176258Y-125760274D01*
X137131194Y-125760274D01*
X137064718Y-125775447D01*
X136993339Y-125832369D01*
X136953726Y-125914625D01*
X136953726Y-126005923D01*
X136754523Y-126005923D01*
X137711968Y-125048477D01*
X137711968Y-125048476D01*
X137523586Y-124900887D01*
X137244043Y-124731898D01*
X137244041Y-124731897D01*
X136946175Y-124597839D01*
X136946164Y-124597835D01*
X136634341Y-124500667D01*
X136313038Y-124441786D01*
X135987000Y-124422065D01*
X135660961Y-124441786D01*
X135339658Y-124500667D01*
X135027835Y-124597835D01*
X135027824Y-124597839D01*
X134729958Y-124731897D01*
X134729956Y-124731898D01*
X134450423Y-124900881D01*
X134262030Y-125048476D01*
X134262030Y-125048477D01*
X135403693Y-126190140D01*
X135389590Y-126197411D01*
X135224460Y-126327271D01*
X135086890Y-126486035D01*
X135052334Y-126545887D01*
X134512370Y-126005923D01*
X134620274Y-126005923D01*
X134659887Y-126088179D01*
X134731266Y-126145101D01*
X134797742Y-126160274D01*
X134842806Y-126160274D01*
X134909282Y-126145101D01*
X134980661Y-126088179D01*
X135020274Y-126005923D01*
X135020274Y-125914625D01*
X134980661Y-125832369D01*
X134909282Y-125775447D01*
X134842806Y-125760274D01*
X134797742Y-125760274D01*
X134731266Y-125775447D01*
X134659887Y-125832369D01*
X134620274Y-125914625D01*
X134620274Y-126005923D01*
X134512370Y-126005923D01*
X133908477Y-125402030D01*
X133908476Y-125402030D01*
X133760881Y-125590423D01*
X133591898Y-125869956D01*
X133591897Y-125869958D01*
X133457839Y-126167824D01*
X133457835Y-126167835D01*
X133360667Y-126479658D01*
X133301786Y-126800961D01*
X133282065Y-127127000D01*
X132208500Y-127127000D01*
X132208500Y-122477033D01*
X132208528Y-122476890D01*
X132208524Y-122476890D01*
X132208539Y-122452276D01*
X132208541Y-122452274D01*
X132208462Y-122452082D01*
X132208384Y-122451892D01*
X132208382Y-122451890D01*
X132208099Y-122451774D01*
X132208000Y-122451733D01*
X132183446Y-122451733D01*
X132183240Y-122451774D01*
X118897760Y-122451774D01*
X118897554Y-122451733D01*
X118873000Y-122451733D01*
X118872901Y-122451774D01*
X118872617Y-122451890D01*
X118872615Y-122451892D01*
X118872459Y-122452273D01*
X118872476Y-122476890D01*
X118872471Y-122476890D01*
X118872500Y-122477033D01*
X118872500Y-131217774D01*
X118852815Y-131284813D01*
X118800011Y-131330568D01*
X118748500Y-131341774D01*
X100124000Y-131341774D01*
X100056961Y-131322089D01*
X100011206Y-131269285D01*
X100000000Y-131217774D01*
X100000000Y-127127000D01*
X112389065Y-127127000D01*
X112408786Y-127453038D01*
X112467667Y-127774341D01*
X112564835Y-128086164D01*
X112564839Y-128086175D01*
X112698897Y-128384041D01*
X112698898Y-128384043D01*
X112867887Y-128663586D01*
X113015477Y-128851968D01*
X113528070Y-128339375D01*
X113727274Y-128339375D01*
X113766887Y-128421631D01*
X113838266Y-128478553D01*
X113904742Y-128493726D01*
X113949806Y-128493726D01*
X114016282Y-128478553D01*
X114087661Y-128421631D01*
X114127274Y-128339375D01*
X114127274Y-128248077D01*
X114087661Y-128165821D01*
X114016282Y-128108899D01*
X113949806Y-128093726D01*
X113904742Y-128093726D01*
X113838266Y-128108899D01*
X113766887Y-128165821D01*
X113727274Y-128248077D01*
X113727274Y-128339375D01*
X113528070Y-128339375D01*
X114158210Y-127709234D01*
X114258894Y-127850624D01*
X114410932Y-127995592D01*
X114513222Y-128061330D01*
X113369030Y-129205521D01*
X113369030Y-129205522D01*
X113557414Y-129353112D01*
X113557423Y-129353118D01*
X113836956Y-129522101D01*
X113836958Y-129522102D01*
X114134824Y-129656160D01*
X114134835Y-129656164D01*
X114446658Y-129753332D01*
X114767961Y-129812213D01*
X115094000Y-129831934D01*
X115420038Y-129812213D01*
X115741341Y-129753332D01*
X116053164Y-129656164D01*
X116053175Y-129656160D01*
X116351041Y-129522102D01*
X116351043Y-129522101D01*
X116630576Y-129353118D01*
X116630584Y-129353112D01*
X116818968Y-129205522D01*
X116818968Y-129205521D01*
X115952822Y-128339375D01*
X116060726Y-128339375D01*
X116100339Y-128421631D01*
X116171718Y-128478553D01*
X116238194Y-128493726D01*
X116283258Y-128493726D01*
X116349734Y-128478553D01*
X116421113Y-128421631D01*
X116460726Y-128339375D01*
X116460726Y-128248077D01*
X116421113Y-128165821D01*
X116349734Y-128108899D01*
X116283258Y-128093726D01*
X116238194Y-128093726D01*
X116171718Y-128108899D01*
X116100339Y-128165821D01*
X116060726Y-128248077D01*
X116060726Y-128339375D01*
X115952822Y-128339375D01*
X115677306Y-128063859D01*
X115691410Y-128056589D01*
X115856540Y-127926729D01*
X115994110Y-127767965D01*
X116028665Y-127708112D01*
X117172521Y-128851968D01*
X117172522Y-128851968D01*
X117320112Y-128663584D01*
X117320118Y-128663576D01*
X117489101Y-128384043D01*
X117489102Y-128384041D01*
X117623160Y-128086175D01*
X117623164Y-128086164D01*
X117720332Y-127774341D01*
X117779213Y-127453038D01*
X117798934Y-127127000D01*
X117779213Y-126800961D01*
X117720332Y-126479658D01*
X117623164Y-126167835D01*
X117623160Y-126167824D01*
X117489102Y-125869958D01*
X117489101Y-125869956D01*
X117320118Y-125590423D01*
X117320112Y-125590414D01*
X117172521Y-125402030D01*
X116029788Y-126544763D01*
X115929106Y-126403376D01*
X115777068Y-126258408D01*
X115674777Y-126192669D01*
X115861523Y-126005923D01*
X116060726Y-126005923D01*
X116100339Y-126088179D01*
X116171718Y-126145101D01*
X116238194Y-126160274D01*
X116283258Y-126160274D01*
X116349734Y-126145101D01*
X116421113Y-126088179D01*
X116460726Y-126005923D01*
X116460726Y-125914625D01*
X116421113Y-125832369D01*
X116349734Y-125775447D01*
X116283258Y-125760274D01*
X116238194Y-125760274D01*
X116171718Y-125775447D01*
X116100339Y-125832369D01*
X116060726Y-125914625D01*
X116060726Y-126005923D01*
X115861523Y-126005923D01*
X116818968Y-125048477D01*
X116818968Y-125048476D01*
X116630586Y-124900887D01*
X116351043Y-124731898D01*
X116351041Y-124731897D01*
X116053175Y-124597839D01*
X116053164Y-124597835D01*
X115741341Y-124500667D01*
X115420038Y-124441786D01*
X115094000Y-124422065D01*
X114767961Y-124441786D01*
X114446658Y-124500667D01*
X114134835Y-124597835D01*
X114134824Y-124597839D01*
X113836958Y-124731897D01*
X113836956Y-124731898D01*
X113557423Y-124900881D01*
X113369030Y-125048476D01*
X113369030Y-125048477D01*
X114510693Y-126190140D01*
X114496590Y-126197411D01*
X114331460Y-126327271D01*
X114193890Y-126486035D01*
X114159334Y-126545887D01*
X113619370Y-126005923D01*
X113727274Y-126005923D01*
X113766887Y-126088179D01*
X113838266Y-126145101D01*
X113904742Y-126160274D01*
X113949806Y-126160274D01*
X114016282Y-126145101D01*
X114087661Y-126088179D01*
X114127274Y-126005923D01*
X114127274Y-125914625D01*
X114087661Y-125832369D01*
X114016282Y-125775447D01*
X113949806Y-125760274D01*
X113904742Y-125760274D01*
X113838266Y-125775447D01*
X113766887Y-125832369D01*
X113727274Y-125914625D01*
X113727274Y-126005923D01*
X113619370Y-126005923D01*
X113015477Y-125402030D01*
X113015476Y-125402030D01*
X112867881Y-125590423D01*
X112698898Y-125869956D01*
X112698897Y-125869958D01*
X112564839Y-126167824D01*
X112564835Y-126167835D01*
X112467667Y-126479658D01*
X112408786Y-126800961D01*
X112389065Y-127127000D01*
X100000000Y-127127000D01*
X100000000Y-123000000D01*
X103294357Y-123000000D01*
X103314884Y-123221535D01*
X103314885Y-123221537D01*
X103375769Y-123435523D01*
X103375775Y-123435538D01*
X103474938Y-123634683D01*
X103474943Y-123634691D01*
X103609020Y-123812238D01*
X103773437Y-123962123D01*
X103773439Y-123962125D01*
X103962595Y-124079245D01*
X103962596Y-124079245D01*
X103962599Y-124079247D01*
X104170060Y-124159618D01*
X104388757Y-124200500D01*
X104388759Y-124200500D01*
X104611241Y-124200500D01*
X104611243Y-124200500D01*
X104829940Y-124159618D01*
X105037401Y-124079247D01*
X105226562Y-123962124D01*
X105390981Y-123812236D01*
X105525058Y-123634689D01*
X105624229Y-123435528D01*
X105685115Y-123221536D01*
X105705643Y-123000000D01*
X105685115Y-122778464D01*
X105674720Y-122741929D01*
X105632742Y-122594390D01*
X105633329Y-122524523D01*
X105664325Y-122472777D01*
X107437102Y-120700000D01*
X135159828Y-120700000D01*
X135178469Y-120889269D01*
X135187943Y-120920499D01*
X135233678Y-121071269D01*
X135307831Y-121210000D01*
X135323332Y-121239000D01*
X135443984Y-121386015D01*
X135461442Y-121400342D01*
X135591001Y-121506669D01*
X135758731Y-121596322D01*
X135940729Y-121651530D01*
X135940728Y-121651530D01*
X135957698Y-121653201D01*
X136130000Y-121670172D01*
X136319271Y-121651530D01*
X136501269Y-121596322D01*
X136668999Y-121506669D01*
X136816015Y-121386015D01*
X136936669Y-121238999D01*
X137026322Y-121071269D01*
X137081530Y-120889271D01*
X137100172Y-120700000D01*
X137699828Y-120700000D01*
X137718469Y-120889269D01*
X137727943Y-120920499D01*
X137773678Y-121071269D01*
X137847831Y-121210000D01*
X137863332Y-121239000D01*
X137983984Y-121386015D01*
X138001442Y-121400342D01*
X138131001Y-121506669D01*
X138298731Y-121596322D01*
X138480729Y-121651530D01*
X138480728Y-121651530D01*
X138497698Y-121653201D01*
X138670000Y-121670172D01*
X138859271Y-121651530D01*
X139041269Y-121596322D01*
X139208999Y-121506669D01*
X139356015Y-121386015D01*
X139476669Y-121238999D01*
X139566322Y-121071269D01*
X139621530Y-120889271D01*
X139640172Y-120700000D01*
X140239828Y-120700000D01*
X140258469Y-120889269D01*
X140267943Y-120920499D01*
X140313678Y-121071269D01*
X140387831Y-121210000D01*
X140403332Y-121239000D01*
X140523984Y-121386015D01*
X140541442Y-121400342D01*
X140671001Y-121506669D01*
X140838731Y-121596322D01*
X141020729Y-121651530D01*
X141020728Y-121651530D01*
X141037698Y-121653201D01*
X141210000Y-121670172D01*
X141399271Y-121651530D01*
X141581269Y-121596322D01*
X141748999Y-121506669D01*
X141896015Y-121386015D01*
X142016669Y-121238999D01*
X142106322Y-121071269D01*
X142161530Y-120889271D01*
X142180172Y-120700000D01*
X142779828Y-120700000D01*
X142798469Y-120889269D01*
X142807943Y-120920499D01*
X142853678Y-121071269D01*
X142927831Y-121210000D01*
X142943332Y-121239000D01*
X143063984Y-121386015D01*
X143081442Y-121400342D01*
X143211001Y-121506669D01*
X143378731Y-121596322D01*
X143560729Y-121651530D01*
X143560728Y-121651530D01*
X143577698Y-121653201D01*
X143750000Y-121670172D01*
X143939271Y-121651530D01*
X144121269Y-121596322D01*
X144288999Y-121506669D01*
X144436015Y-121386015D01*
X144556669Y-121238999D01*
X144646322Y-121071269D01*
X144701530Y-120889271D01*
X144720172Y-120700000D01*
X145319828Y-120700000D01*
X145338469Y-120889269D01*
X145347943Y-120920499D01*
X145393678Y-121071269D01*
X145467831Y-121210000D01*
X145483332Y-121239000D01*
X145603984Y-121386015D01*
X145621442Y-121400342D01*
X145751001Y-121506669D01*
X145918731Y-121596322D01*
X146100729Y-121651530D01*
X146100728Y-121651530D01*
X146117698Y-121653201D01*
X146290000Y-121670172D01*
X146479271Y-121651530D01*
X146661269Y-121596322D01*
X146828999Y-121506669D01*
X146976015Y-121386015D01*
X147096669Y-121238999D01*
X147186322Y-121071269D01*
X147241530Y-120889271D01*
X147260172Y-120700000D01*
X147859828Y-120700000D01*
X147878469Y-120889269D01*
X147887943Y-120920499D01*
X147933678Y-121071269D01*
X148007831Y-121210000D01*
X148023332Y-121239000D01*
X148143984Y-121386015D01*
X148161442Y-121400342D01*
X148291001Y-121506669D01*
X148458731Y-121596322D01*
X148640729Y-121651530D01*
X148640728Y-121651530D01*
X148657698Y-121653201D01*
X148830000Y-121670172D01*
X149019271Y-121651530D01*
X149201269Y-121596322D01*
X149368999Y-121506669D01*
X149516015Y-121386015D01*
X149636669Y-121238999D01*
X149726322Y-121071269D01*
X149781530Y-120889271D01*
X149800172Y-120700000D01*
X149781530Y-120510729D01*
X149726322Y-120328731D01*
X149636669Y-120161001D01*
X149557952Y-120065085D01*
X149516015Y-120013984D01*
X149369000Y-119893332D01*
X149368999Y-119893331D01*
X149201269Y-119803678D01*
X149019271Y-119748470D01*
X149019269Y-119748469D01*
X149019271Y-119748469D01*
X148830000Y-119729828D01*
X148640730Y-119748469D01*
X148458731Y-119803678D01*
X148290999Y-119893332D01*
X148143984Y-120013984D01*
X148023332Y-120160999D01*
X147933678Y-120328731D01*
X147878469Y-120510730D01*
X147859828Y-120700000D01*
X147260172Y-120700000D01*
X147241530Y-120510729D01*
X147186322Y-120328731D01*
X147096669Y-120161001D01*
X147017952Y-120065085D01*
X146976015Y-120013984D01*
X146829000Y-119893332D01*
X146828999Y-119893331D01*
X146661269Y-119803678D01*
X146479271Y-119748470D01*
X146479269Y-119748469D01*
X146479271Y-119748469D01*
X146290000Y-119729828D01*
X146100730Y-119748469D01*
X145918731Y-119803678D01*
X145750999Y-119893332D01*
X145603984Y-120013984D01*
X145483332Y-120160999D01*
X145393678Y-120328731D01*
X145338469Y-120510730D01*
X145319828Y-120700000D01*
X144720172Y-120700000D01*
X144701530Y-120510729D01*
X144646322Y-120328731D01*
X144556669Y-120161001D01*
X144477952Y-120065085D01*
X144436015Y-120013984D01*
X144289000Y-119893332D01*
X144288999Y-119893331D01*
X144121269Y-119803678D01*
X143939271Y-119748470D01*
X143939269Y-119748469D01*
X143939271Y-119748469D01*
X143750000Y-119729828D01*
X143560730Y-119748469D01*
X143378731Y-119803678D01*
X143210999Y-119893332D01*
X143063984Y-120013984D01*
X142943332Y-120160999D01*
X142853678Y-120328731D01*
X142798469Y-120510730D01*
X142779828Y-120700000D01*
X142180172Y-120700000D01*
X142161530Y-120510729D01*
X142106322Y-120328731D01*
X142016669Y-120161001D01*
X141937952Y-120065085D01*
X141896015Y-120013984D01*
X141749000Y-119893332D01*
X141748999Y-119893331D01*
X141581269Y-119803678D01*
X141399271Y-119748470D01*
X141399269Y-119748469D01*
X141399271Y-119748469D01*
X141210000Y-119729828D01*
X141020730Y-119748469D01*
X140838731Y-119803678D01*
X140670999Y-119893332D01*
X140523984Y-120013984D01*
X140403332Y-120160999D01*
X140313678Y-120328731D01*
X140258469Y-120510730D01*
X140239828Y-120700000D01*
X139640172Y-120700000D01*
X139621530Y-120510729D01*
X139566322Y-120328731D01*
X139476669Y-120161001D01*
X139397952Y-120065085D01*
X139356015Y-120013984D01*
X139209000Y-119893332D01*
X139208999Y-119893331D01*
X139041269Y-119803678D01*
X138859271Y-119748470D01*
X138859269Y-119748469D01*
X138859271Y-119748469D01*
X138670000Y-119729828D01*
X138480730Y-119748469D01*
X138298731Y-119803678D01*
X138130999Y-119893332D01*
X137983984Y-120013984D01*
X137863332Y-120160999D01*
X137773678Y-120328731D01*
X137718469Y-120510730D01*
X137699828Y-120700000D01*
X137100172Y-120700000D01*
X137081530Y-120510729D01*
X137026322Y-120328731D01*
X136936669Y-120161001D01*
X136857952Y-120065085D01*
X136816015Y-120013984D01*
X136669000Y-119893332D01*
X136668999Y-119893331D01*
X136501269Y-119803678D01*
X136319271Y-119748470D01*
X136319269Y-119748469D01*
X136319271Y-119748469D01*
X136130000Y-119729828D01*
X135940730Y-119748469D01*
X135758731Y-119803678D01*
X135590999Y-119893332D01*
X135443984Y-120013984D01*
X135323332Y-120160999D01*
X135233678Y-120328731D01*
X135178469Y-120510730D01*
X135159828Y-120700000D01*
X107437102Y-120700000D01*
X113150284Y-114986819D01*
X113211607Y-114953334D01*
X113237965Y-114950500D01*
X123971217Y-114950500D01*
X123978155Y-114950889D01*
X124010050Y-114954483D01*
X124017034Y-114955270D01*
X124017034Y-114955269D01*
X124017035Y-114955270D01*
X124075479Y-114944211D01*
X124134287Y-114935348D01*
X124134290Y-114935346D01*
X124142447Y-114932830D01*
X124150469Y-114930023D01*
X124150472Y-114930023D01*
X124203072Y-114902222D01*
X124256642Y-114876425D01*
X124256642Y-114876424D01*
X124256644Y-114876424D01*
X124263695Y-114871616D01*
X124270538Y-114866566D01*
X124312600Y-114824503D01*
X124356194Y-114784055D01*
X124356196Y-114784050D01*
X124361987Y-114776790D01*
X124362643Y-114777313D01*
X124372032Y-114765070D01*
X127798210Y-111338892D01*
X127803378Y-111334273D01*
X127833970Y-111309879D01*
X127867476Y-111260734D01*
X127902792Y-111212883D01*
X127902793Y-111212880D01*
X127906786Y-111205325D01*
X127910467Y-111197680D01*
X127910472Y-111197673D01*
X127928008Y-111140820D01*
X127947646Y-111084700D01*
X127947646Y-111084694D01*
X127949228Y-111076336D01*
X127950500Y-111067899D01*
X127950500Y-111008426D01*
X127952724Y-110948990D01*
X127951684Y-110939756D01*
X127952513Y-110939662D01*
X127950500Y-110924364D01*
X127950500Y-99237965D01*
X127970185Y-99170926D01*
X127986819Y-99150284D01*
X135467819Y-91669284D01*
X135529142Y-91635799D01*
X135598834Y-91640783D01*
X135654767Y-91682655D01*
X135679184Y-91748119D01*
X135679500Y-91756965D01*
X135679500Y-94371704D01*
X135659815Y-94438743D01*
X135613956Y-94481061D01*
X135590997Y-94493333D01*
X135443984Y-94613984D01*
X135323332Y-94760999D01*
X135233678Y-94928731D01*
X135178469Y-95110730D01*
X135159828Y-95300000D01*
X135178469Y-95489269D01*
X135187943Y-95520499D01*
X135233678Y-95671269D01*
X135307831Y-95810000D01*
X135323332Y-95839000D01*
X135443984Y-95986015D01*
X135461442Y-96000342D01*
X135591001Y-96106669D01*
X135758731Y-96196322D01*
X135940729Y-96251530D01*
X135940728Y-96251530D01*
X135957698Y-96253201D01*
X136130000Y-96270172D01*
X136319271Y-96251530D01*
X136501269Y-96196322D01*
X136668999Y-96106669D01*
X136816015Y-95986015D01*
X136936669Y-95838999D01*
X137026322Y-95671269D01*
X137081530Y-95489271D01*
X137100172Y-95300000D01*
X137699828Y-95300000D01*
X137718469Y-95489269D01*
X137727943Y-95520499D01*
X137773678Y-95671269D01*
X137847831Y-95810000D01*
X137863332Y-95839000D01*
X137983984Y-95986015D01*
X138001442Y-96000342D01*
X138131001Y-96106669D01*
X138298731Y-96196322D01*
X138480729Y-96251530D01*
X138480728Y-96251530D01*
X138497698Y-96253201D01*
X138670000Y-96270172D01*
X138859271Y-96251530D01*
X139041269Y-96196322D01*
X139208999Y-96106669D01*
X139356015Y-95986015D01*
X139476669Y-95838999D01*
X139566322Y-95671269D01*
X139621530Y-95489271D01*
X139640172Y-95300000D01*
X140239828Y-95300000D01*
X140258469Y-95489269D01*
X140267943Y-95520499D01*
X140313678Y-95671269D01*
X140387831Y-95810000D01*
X140403332Y-95839000D01*
X140523984Y-95986015D01*
X140541442Y-96000342D01*
X140671001Y-96106669D01*
X140838731Y-96196322D01*
X141020729Y-96251530D01*
X141020728Y-96251530D01*
X141037698Y-96253201D01*
X141210000Y-96270172D01*
X141399271Y-96251530D01*
X141581269Y-96196322D01*
X141748999Y-96106669D01*
X141896015Y-95986015D01*
X142016669Y-95838999D01*
X142106322Y-95671269D01*
X142161530Y-95489271D01*
X142180172Y-95300000D01*
X142779828Y-95300000D01*
X142798469Y-95489269D01*
X142807943Y-95520499D01*
X142853678Y-95671269D01*
X142927831Y-95810000D01*
X142943332Y-95839000D01*
X143063984Y-95986015D01*
X143081442Y-96000342D01*
X143211001Y-96106669D01*
X143378731Y-96196322D01*
X143560729Y-96251530D01*
X143560728Y-96251530D01*
X143577698Y-96253201D01*
X143750000Y-96270172D01*
X143939271Y-96251530D01*
X144121269Y-96196322D01*
X144288999Y-96106669D01*
X144436015Y-95986015D01*
X144556669Y-95838999D01*
X144646322Y-95671269D01*
X144701530Y-95489271D01*
X144720172Y-95300000D01*
X145319828Y-95300000D01*
X145338469Y-95489269D01*
X145347943Y-95520499D01*
X145393678Y-95671269D01*
X145467831Y-95810000D01*
X145483332Y-95839000D01*
X145603984Y-95986015D01*
X145621442Y-96000342D01*
X145751001Y-96106669D01*
X145918731Y-96196322D01*
X146100729Y-96251530D01*
X146100728Y-96251530D01*
X146117698Y-96253201D01*
X146290000Y-96270172D01*
X146479271Y-96251530D01*
X146661269Y-96196322D01*
X146828999Y-96106669D01*
X146976015Y-95986015D01*
X147096669Y-95838999D01*
X147186322Y-95671269D01*
X147241530Y-95489271D01*
X147260172Y-95300000D01*
X147560168Y-95300000D01*
X147579459Y-95520499D01*
X147579461Y-95520509D01*
X147636745Y-95734300D01*
X147636749Y-95734309D01*
X147730295Y-95934919D01*
X147776103Y-96000341D01*
X147776105Y-96000342D01*
X148338866Y-95437580D01*
X148361318Y-95514040D01*
X148440605Y-95637413D01*
X148551438Y-95733451D01*
X148684839Y-95794373D01*
X148688633Y-95794918D01*
X148129656Y-96353894D01*
X148195083Y-96399706D01*
X148195085Y-96399707D01*
X148395690Y-96493250D01*
X148395699Y-96493254D01*
X148609490Y-96550538D01*
X148609500Y-96550540D01*
X148829999Y-96569832D01*
X148830001Y-96569832D01*
X149050499Y-96550540D01*
X149050509Y-96550538D01*
X149264300Y-96493254D01*
X149264309Y-96493250D01*
X149464915Y-96399706D01*
X149530342Y-96353894D01*
X148971366Y-95794918D01*
X148975161Y-95794373D01*
X149108562Y-95733451D01*
X149219395Y-95637413D01*
X149298682Y-95514040D01*
X149321133Y-95437580D01*
X149883894Y-96000342D01*
X149929706Y-95934915D01*
X150023250Y-95734309D01*
X150023254Y-95734300D01*
X150080538Y-95520509D01*
X150080540Y-95520499D01*
X150099832Y-95300000D01*
X150399828Y-95300000D01*
X150418469Y-95489269D01*
X150427943Y-95520499D01*
X150473678Y-95671269D01*
X150547831Y-95810000D01*
X150563332Y-95839000D01*
X150683984Y-95986015D01*
X150701442Y-96000342D01*
X150831001Y-96106669D01*
X150998731Y-96196322D01*
X151180729Y-96251530D01*
X151180728Y-96251530D01*
X151197698Y-96253201D01*
X151370000Y-96270172D01*
X151559271Y-96251530D01*
X151741269Y-96196322D01*
X151908999Y-96106669D01*
X152056015Y-95986015D01*
X152176669Y-95838999D01*
X152266322Y-95671269D01*
X152321530Y-95489271D01*
X152340172Y-95300000D01*
X152939828Y-95300000D01*
X152958469Y-95489269D01*
X152967943Y-95520499D01*
X153013678Y-95671269D01*
X153087831Y-95810000D01*
X153103332Y-95839000D01*
X153223984Y-95986015D01*
X153241442Y-96000342D01*
X153371001Y-96106669D01*
X153538731Y-96196322D01*
X153720729Y-96251530D01*
X153720728Y-96251530D01*
X153737698Y-96253201D01*
X153910000Y-96270172D01*
X154099271Y-96251530D01*
X154281269Y-96196322D01*
X154448999Y-96106669D01*
X154596015Y-95986015D01*
X154716669Y-95838999D01*
X154806322Y-95671269D01*
X154861530Y-95489271D01*
X154880172Y-95300000D01*
X155479828Y-95300000D01*
X155498469Y-95489269D01*
X155507943Y-95520499D01*
X155553678Y-95671269D01*
X155627831Y-95810000D01*
X155643332Y-95839000D01*
X155763984Y-95986015D01*
X155781442Y-96000342D01*
X155911001Y-96106669D01*
X156078731Y-96196322D01*
X156260729Y-96251530D01*
X156260728Y-96251530D01*
X156277698Y-96253201D01*
X156450000Y-96270172D01*
X156639271Y-96251530D01*
X156821269Y-96196322D01*
X156988999Y-96106669D01*
X157136015Y-95986015D01*
X157256669Y-95838999D01*
X157346322Y-95671269D01*
X157401530Y-95489271D01*
X157420172Y-95300000D01*
X158019828Y-95300000D01*
X158038469Y-95489269D01*
X158047943Y-95520499D01*
X158093678Y-95671269D01*
X158167831Y-95810000D01*
X158183332Y-95839000D01*
X158303984Y-95986015D01*
X158321442Y-96000342D01*
X158451001Y-96106669D01*
X158618731Y-96196322D01*
X158800729Y-96251530D01*
X158800728Y-96251530D01*
X158817698Y-96253201D01*
X158990000Y-96270172D01*
X159179271Y-96251530D01*
X159361269Y-96196322D01*
X159528999Y-96106669D01*
X159676015Y-95986015D01*
X159796669Y-95838999D01*
X159886322Y-95671269D01*
X159941530Y-95489271D01*
X159960172Y-95300000D01*
X160559828Y-95300000D01*
X160578469Y-95489269D01*
X160587943Y-95520499D01*
X160633678Y-95671269D01*
X160707831Y-95810000D01*
X160723332Y-95839000D01*
X160843984Y-95986015D01*
X160861442Y-96000342D01*
X160991001Y-96106669D01*
X161158731Y-96196322D01*
X161340729Y-96251530D01*
X161340728Y-96251530D01*
X161357698Y-96253201D01*
X161530000Y-96270172D01*
X161719271Y-96251530D01*
X161901269Y-96196322D01*
X162068999Y-96106669D01*
X162216015Y-95986015D01*
X162336669Y-95838999D01*
X162426322Y-95671269D01*
X162481530Y-95489271D01*
X162500172Y-95300000D01*
X163099828Y-95300000D01*
X163118469Y-95489269D01*
X163127943Y-95520499D01*
X163173678Y-95671269D01*
X163247831Y-95810000D01*
X163263332Y-95839000D01*
X163383984Y-95986015D01*
X163401442Y-96000342D01*
X163531001Y-96106669D01*
X163698731Y-96196322D01*
X163880729Y-96251530D01*
X163880728Y-96251530D01*
X163897698Y-96253201D01*
X164070000Y-96270172D01*
X164259271Y-96251530D01*
X164441269Y-96196322D01*
X164608999Y-96106669D01*
X164756015Y-95986015D01*
X164876669Y-95838999D01*
X164966322Y-95671269D01*
X165021530Y-95489271D01*
X165040172Y-95300000D01*
X165639828Y-95300000D01*
X165658469Y-95489269D01*
X165667943Y-95520499D01*
X165713678Y-95671269D01*
X165787831Y-95810000D01*
X165803332Y-95839000D01*
X165923984Y-95986015D01*
X165941442Y-96000342D01*
X166071001Y-96106669D01*
X166238731Y-96196322D01*
X166420729Y-96251530D01*
X166420728Y-96251530D01*
X166437698Y-96253201D01*
X166610000Y-96270172D01*
X166799271Y-96251530D01*
X166981269Y-96196322D01*
X167148999Y-96106669D01*
X167296015Y-95986015D01*
X167416669Y-95838999D01*
X167506322Y-95671269D01*
X167561530Y-95489271D01*
X167580172Y-95300000D01*
X168179828Y-95300000D01*
X168198469Y-95489269D01*
X168207943Y-95520499D01*
X168253678Y-95671269D01*
X168327831Y-95810000D01*
X168343332Y-95839000D01*
X168463984Y-95986015D01*
X168481442Y-96000342D01*
X168611001Y-96106669D01*
X168778731Y-96196322D01*
X168960729Y-96251530D01*
X168960728Y-96251530D01*
X168977698Y-96253201D01*
X169150000Y-96270172D01*
X169339271Y-96251530D01*
X169521269Y-96196322D01*
X169688999Y-96106669D01*
X169836015Y-95986015D01*
X169956669Y-95838999D01*
X170046322Y-95671269D01*
X170101530Y-95489271D01*
X170120172Y-95300000D01*
X170719828Y-95300000D01*
X170738469Y-95489269D01*
X170747943Y-95520499D01*
X170793678Y-95671269D01*
X170867831Y-95810000D01*
X170883332Y-95839000D01*
X171003984Y-95986015D01*
X171021442Y-96000342D01*
X171151001Y-96106669D01*
X171318731Y-96196322D01*
X171500729Y-96251530D01*
X171500728Y-96251530D01*
X171517698Y-96253201D01*
X171690000Y-96270172D01*
X171879271Y-96251530D01*
X172061269Y-96196322D01*
X172228999Y-96106669D01*
X172376015Y-95986015D01*
X172496669Y-95838999D01*
X172586322Y-95671269D01*
X172641530Y-95489271D01*
X172660172Y-95300000D01*
X173259828Y-95300000D01*
X173278469Y-95489269D01*
X173287943Y-95520499D01*
X173333678Y-95671269D01*
X173407831Y-95810000D01*
X173423332Y-95839000D01*
X173543984Y-95986015D01*
X173561442Y-96000342D01*
X173691001Y-96106669D01*
X173858731Y-96196322D01*
X174040729Y-96251530D01*
X174040728Y-96251530D01*
X174057698Y-96253201D01*
X174230000Y-96270172D01*
X174419271Y-96251530D01*
X174601269Y-96196322D01*
X174768999Y-96106669D01*
X174916015Y-95986015D01*
X175036669Y-95838999D01*
X175126322Y-95671269D01*
X175181530Y-95489271D01*
X175200172Y-95300000D01*
X175799828Y-95300000D01*
X175818469Y-95489269D01*
X175827943Y-95520499D01*
X175873678Y-95671269D01*
X175947831Y-95810000D01*
X175963332Y-95839000D01*
X176083984Y-95986015D01*
X176101442Y-96000342D01*
X176231001Y-96106669D01*
X176398731Y-96196322D01*
X176580729Y-96251530D01*
X176580728Y-96251530D01*
X176597698Y-96253201D01*
X176770000Y-96270172D01*
X176959271Y-96251530D01*
X177141269Y-96196322D01*
X177308999Y-96106669D01*
X177456015Y-95986015D01*
X177576669Y-95838999D01*
X177666322Y-95671269D01*
X177721530Y-95489271D01*
X177740172Y-95300000D01*
X178339828Y-95300000D01*
X178358469Y-95489269D01*
X178367943Y-95520499D01*
X178413678Y-95671269D01*
X178487831Y-95810000D01*
X178503332Y-95839000D01*
X178623984Y-95986015D01*
X178641442Y-96000342D01*
X178771001Y-96106669D01*
X178938731Y-96196322D01*
X179120729Y-96251530D01*
X179120728Y-96251530D01*
X179137698Y-96253201D01*
X179310000Y-96270172D01*
X179499271Y-96251530D01*
X179681269Y-96196322D01*
X179848999Y-96106669D01*
X179875705Y-96084752D01*
X180884500Y-96084752D01*
X180896131Y-96143229D01*
X180896132Y-96143230D01*
X180940447Y-96209552D01*
X181006769Y-96253867D01*
X181006770Y-96253868D01*
X181065247Y-96265499D01*
X181065250Y-96265500D01*
X181065252Y-96265500D01*
X182634750Y-96265500D01*
X182634751Y-96265499D01*
X182649568Y-96262552D01*
X182693229Y-96253868D01*
X182693229Y-96253867D01*
X182693231Y-96253867D01*
X182759552Y-96209552D01*
X182803867Y-96143231D01*
X182803867Y-96143229D01*
X182803868Y-96143229D01*
X182815499Y-96084752D01*
X182815500Y-96084750D01*
X182815500Y-94515249D01*
X182815499Y-94515247D01*
X182803868Y-94456770D01*
X182803867Y-94456769D01*
X182759552Y-94390447D01*
X182693230Y-94346132D01*
X182693229Y-94346131D01*
X182634752Y-94334500D01*
X182634748Y-94334500D01*
X181065252Y-94334500D01*
X181065247Y-94334500D01*
X181006770Y-94346131D01*
X181006769Y-94346132D01*
X180940447Y-94390447D01*
X180896132Y-94456769D01*
X180896131Y-94456770D01*
X180884500Y-94515247D01*
X180884500Y-96084752D01*
X179875705Y-96084752D01*
X179996015Y-95986015D01*
X180116669Y-95838999D01*
X180206322Y-95671269D01*
X180261530Y-95489271D01*
X180280172Y-95300000D01*
X180261530Y-95110729D01*
X180206322Y-94928731D01*
X180116669Y-94761001D01*
X180037952Y-94665085D01*
X179996015Y-94613984D01*
X179849000Y-94493332D01*
X179848999Y-94493331D01*
X179681269Y-94403678D01*
X179499271Y-94348470D01*
X179499269Y-94348469D01*
X179499271Y-94348469D01*
X179310000Y-94329828D01*
X179120730Y-94348469D01*
X178938731Y-94403678D01*
X178770999Y-94493332D01*
X178623984Y-94613984D01*
X178503332Y-94760999D01*
X178413678Y-94928731D01*
X178358469Y-95110730D01*
X178339828Y-95300000D01*
X177740172Y-95300000D01*
X177721530Y-95110729D01*
X177666322Y-94928731D01*
X177576669Y-94761001D01*
X177497952Y-94665085D01*
X177456015Y-94613984D01*
X177309000Y-94493332D01*
X177308999Y-94493331D01*
X177141269Y-94403678D01*
X176959271Y-94348470D01*
X176959269Y-94348469D01*
X176959271Y-94348469D01*
X176770000Y-94329828D01*
X176580730Y-94348469D01*
X176398731Y-94403678D01*
X176230999Y-94493332D01*
X176083984Y-94613984D01*
X175963332Y-94760999D01*
X175873678Y-94928731D01*
X175818469Y-95110730D01*
X175799828Y-95300000D01*
X175200172Y-95300000D01*
X175181530Y-95110729D01*
X175126322Y-94928731D01*
X175036669Y-94761001D01*
X174957952Y-94665085D01*
X174916015Y-94613984D01*
X174769000Y-94493332D01*
X174768999Y-94493331D01*
X174601269Y-94403678D01*
X174419271Y-94348470D01*
X174419269Y-94348469D01*
X174419271Y-94348469D01*
X174230000Y-94329828D01*
X174040730Y-94348469D01*
X173858731Y-94403678D01*
X173690999Y-94493332D01*
X173543984Y-94613984D01*
X173423332Y-94760999D01*
X173333678Y-94928731D01*
X173278469Y-95110730D01*
X173259828Y-95300000D01*
X172660172Y-95300000D01*
X172641530Y-95110729D01*
X172586322Y-94928731D01*
X172496669Y-94761001D01*
X172417952Y-94665085D01*
X172376015Y-94613984D01*
X172229000Y-94493332D01*
X172228999Y-94493331D01*
X172061269Y-94403678D01*
X171879271Y-94348470D01*
X171879269Y-94348469D01*
X171879271Y-94348469D01*
X171690000Y-94329828D01*
X171500730Y-94348469D01*
X171318731Y-94403678D01*
X171150999Y-94493332D01*
X171003984Y-94613984D01*
X170883332Y-94760999D01*
X170793678Y-94928731D01*
X170738469Y-95110730D01*
X170719828Y-95300000D01*
X170120172Y-95300000D01*
X170101530Y-95110729D01*
X170046322Y-94928731D01*
X169956669Y-94761001D01*
X169877952Y-94665085D01*
X169836015Y-94613984D01*
X169689000Y-94493332D01*
X169688999Y-94493331D01*
X169521269Y-94403678D01*
X169339271Y-94348470D01*
X169339269Y-94348469D01*
X169339271Y-94348469D01*
X169150000Y-94329828D01*
X168960730Y-94348469D01*
X168778731Y-94403678D01*
X168610999Y-94493332D01*
X168463984Y-94613984D01*
X168343332Y-94760999D01*
X168253678Y-94928731D01*
X168198469Y-95110730D01*
X168179828Y-95300000D01*
X167580172Y-95300000D01*
X167561530Y-95110729D01*
X167506322Y-94928731D01*
X167416669Y-94761001D01*
X167337952Y-94665085D01*
X167296015Y-94613984D01*
X167149000Y-94493332D01*
X167148999Y-94493331D01*
X166981269Y-94403678D01*
X166799271Y-94348470D01*
X166799269Y-94348469D01*
X166799271Y-94348469D01*
X166610000Y-94329828D01*
X166420730Y-94348469D01*
X166238731Y-94403678D01*
X166070999Y-94493332D01*
X165923984Y-94613984D01*
X165803332Y-94760999D01*
X165713678Y-94928731D01*
X165658469Y-95110730D01*
X165639828Y-95300000D01*
X165040172Y-95300000D01*
X165021530Y-95110729D01*
X164966322Y-94928731D01*
X164876669Y-94761001D01*
X164797952Y-94665085D01*
X164756015Y-94613984D01*
X164609000Y-94493332D01*
X164608999Y-94493331D01*
X164441269Y-94403678D01*
X164259271Y-94348470D01*
X164259269Y-94348469D01*
X164259271Y-94348469D01*
X164070000Y-94329828D01*
X163880730Y-94348469D01*
X163698731Y-94403678D01*
X163530999Y-94493332D01*
X163383984Y-94613984D01*
X163263332Y-94760999D01*
X163173678Y-94928731D01*
X163118469Y-95110730D01*
X163099828Y-95300000D01*
X162500172Y-95300000D01*
X162481530Y-95110729D01*
X162426322Y-94928731D01*
X162336669Y-94761001D01*
X162257952Y-94665085D01*
X162216015Y-94613984D01*
X162069000Y-94493331D01*
X162068993Y-94493327D01*
X161946047Y-94427611D01*
X161896203Y-94378649D01*
X161880500Y-94318253D01*
X161880500Y-93416543D01*
X161900185Y-93349504D01*
X161916814Y-93328867D01*
X172813046Y-82432634D01*
X172832902Y-82416511D01*
X172840669Y-82411437D01*
X172860873Y-82385477D01*
X172865941Y-82379739D01*
X172868375Y-82377307D01*
X172881044Y-82359561D01*
X172912517Y-82319126D01*
X172912518Y-82319120D01*
X172916017Y-82312655D01*
X172919235Y-82306072D01*
X172919240Y-82306066D01*
X172933861Y-82256954D01*
X172936767Y-82248491D01*
X172947589Y-82216966D01*
X172950500Y-82208488D01*
X172950500Y-82208479D01*
X172951706Y-82201256D01*
X172952617Y-82193952D01*
X172950500Y-82142770D01*
X172950500Y-76431431D01*
X172970185Y-76364392D01*
X173016044Y-76322074D01*
X173158538Y-76245910D01*
X173310883Y-76120883D01*
X173435910Y-75968538D01*
X173506238Y-75836963D01*
X173528811Y-75794733D01*
X173528811Y-75794732D01*
X173528814Y-75794727D01*
X173586024Y-75606132D01*
X173605341Y-75410000D01*
X173586024Y-75213868D01*
X173528814Y-75025273D01*
X173528811Y-75025269D01*
X173528811Y-75025266D01*
X173435913Y-74851467D01*
X173435909Y-74851460D01*
X173310883Y-74699116D01*
X173158539Y-74574090D01*
X173158532Y-74574086D01*
X172984733Y-74481188D01*
X172984727Y-74481186D01*
X172796132Y-74423976D01*
X172796129Y-74423975D01*
X172600000Y-74404659D01*
X172403870Y-74423975D01*
X172215266Y-74481188D01*
X172041467Y-74574086D01*
X172041460Y-74574090D01*
X171889116Y-74699116D01*
X171764090Y-74851460D01*
X171764086Y-74851467D01*
X171671188Y-75025266D01*
X171613975Y-75213870D01*
X171594659Y-75410000D01*
X171613975Y-75606129D01*
X171613976Y-75606132D01*
X171671006Y-75794135D01*
X171671188Y-75794733D01*
X171764086Y-75968532D01*
X171764090Y-75968539D01*
X171889116Y-76120883D01*
X171995131Y-76207887D01*
X172041462Y-76245910D01*
X172183955Y-76322074D01*
X172233797Y-76371035D01*
X172249500Y-76431431D01*
X172249500Y-81953455D01*
X172229815Y-82020494D01*
X172213181Y-82041136D01*
X161316955Y-92937361D01*
X161297106Y-92953482D01*
X161289331Y-92958562D01*
X161269143Y-92984498D01*
X161264067Y-92990248D01*
X161261634Y-92992681D01*
X161261623Y-92992694D01*
X161248954Y-93010438D01*
X161217483Y-93050872D01*
X161213975Y-93057353D01*
X161210760Y-93063932D01*
X161196138Y-93113045D01*
X161179498Y-93161516D01*
X161178294Y-93168733D01*
X161177382Y-93176046D01*
X161179500Y-93227230D01*
X161179500Y-94318253D01*
X161159815Y-94385292D01*
X161113953Y-94427611D01*
X160991006Y-94493327D01*
X160990999Y-94493331D01*
X160843984Y-94613984D01*
X160723332Y-94760999D01*
X160633678Y-94928731D01*
X160578469Y-95110730D01*
X160559828Y-95300000D01*
X159960172Y-95300000D01*
X159941530Y-95110729D01*
X159886322Y-94928731D01*
X159796669Y-94761001D01*
X159717952Y-94665085D01*
X159676015Y-94613984D01*
X159529000Y-94493331D01*
X159528993Y-94493327D01*
X159406047Y-94427611D01*
X159356203Y-94378649D01*
X159340500Y-94318253D01*
X159340500Y-90956543D01*
X159360185Y-90889504D01*
X159376814Y-90868867D01*
X167853046Y-82392634D01*
X167872902Y-82376511D01*
X167880669Y-82371437D01*
X167900873Y-82345477D01*
X167905941Y-82339739D01*
X167908375Y-82337307D01*
X167921040Y-82319567D01*
X167935441Y-82301064D01*
X167952517Y-82279126D01*
X167952520Y-82279116D01*
X167956006Y-82272675D01*
X167959235Y-82266070D01*
X167959239Y-82266066D01*
X167973856Y-82216966D01*
X167990500Y-82168488D01*
X167990500Y-82168482D01*
X167991692Y-82161342D01*
X167991701Y-82161272D01*
X167991714Y-82161191D01*
X167992617Y-82153952D01*
X167990500Y-82102770D01*
X167990500Y-76459431D01*
X168010185Y-76392392D01*
X168056044Y-76350074D01*
X168198538Y-76273910D01*
X168350883Y-76148883D01*
X168475910Y-75996538D01*
X168568814Y-75822727D01*
X168626024Y-75634132D01*
X168645341Y-75438000D01*
X168626024Y-75241868D01*
X168568814Y-75053273D01*
X168568811Y-75053269D01*
X168568811Y-75053266D01*
X168475913Y-74879467D01*
X168475909Y-74879460D01*
X168350883Y-74727116D01*
X168198539Y-74602090D01*
X168198532Y-74602086D01*
X168024733Y-74509188D01*
X168024727Y-74509186D01*
X167893492Y-74469376D01*
X167836129Y-74451975D01*
X167640000Y-74432659D01*
X167443870Y-74451975D01*
X167255266Y-74509188D01*
X167081467Y-74602086D01*
X167081460Y-74602090D01*
X166929116Y-74727116D01*
X166804090Y-74879460D01*
X166804086Y-74879467D01*
X166711188Y-75053266D01*
X166653975Y-75241870D01*
X166634659Y-75438000D01*
X166653975Y-75634129D01*
X166653976Y-75634132D01*
X166704876Y-75801927D01*
X166711188Y-75822733D01*
X166804086Y-75996532D01*
X166804090Y-75996539D01*
X166929116Y-76148883D01*
X167035131Y-76235887D01*
X167081462Y-76273910D01*
X167223955Y-76350074D01*
X167273797Y-76399035D01*
X167289500Y-76459431D01*
X167289500Y-81913455D01*
X167269815Y-81980494D01*
X167253181Y-82001136D01*
X158776955Y-90477361D01*
X158757106Y-90493482D01*
X158749331Y-90498562D01*
X158729143Y-90524498D01*
X158724067Y-90530248D01*
X158721634Y-90532681D01*
X158721623Y-90532694D01*
X158708954Y-90550438D01*
X158677483Y-90590872D01*
X158673975Y-90597353D01*
X158670760Y-90603932D01*
X158656138Y-90653045D01*
X158639498Y-90701516D01*
X158638294Y-90708733D01*
X158637382Y-90716046D01*
X158639500Y-90767230D01*
X158639500Y-94318253D01*
X158619815Y-94385292D01*
X158573953Y-94427611D01*
X158451006Y-94493327D01*
X158450999Y-94493331D01*
X158303984Y-94613984D01*
X158183332Y-94760999D01*
X158093678Y-94928731D01*
X158038469Y-95110730D01*
X158019828Y-95300000D01*
X157420172Y-95300000D01*
X157401530Y-95110729D01*
X157346322Y-94928731D01*
X157256669Y-94761001D01*
X157177952Y-94665085D01*
X157136015Y-94613984D01*
X156989000Y-94493331D01*
X156988993Y-94493327D01*
X156866047Y-94427611D01*
X156816203Y-94378649D01*
X156800500Y-94318253D01*
X156800500Y-88496542D01*
X156820185Y-88429503D01*
X156836814Y-88408866D01*
X162773043Y-82472636D01*
X162792894Y-82456516D01*
X162800669Y-82451437D01*
X162820864Y-82425488D01*
X162825942Y-82419737D01*
X162828375Y-82417306D01*
X162841038Y-82399569D01*
X162872517Y-82359126D01*
X162872519Y-82359119D01*
X162876017Y-82352655D01*
X162879235Y-82346072D01*
X162879240Y-82346066D01*
X162892580Y-82301256D01*
X162893861Y-82296955D01*
X162898209Y-82284286D01*
X162910500Y-82248488D01*
X162910500Y-82248479D01*
X162911706Y-82241256D01*
X162912617Y-82233952D01*
X162910500Y-82182768D01*
X162910500Y-76459431D01*
X162930185Y-76392392D01*
X162976044Y-76350074D01*
X163118538Y-76273910D01*
X163270883Y-76148883D01*
X163395910Y-75996538D01*
X163488814Y-75822727D01*
X163546024Y-75634132D01*
X163565341Y-75438000D01*
X163546024Y-75241868D01*
X163488814Y-75053273D01*
X163488811Y-75053269D01*
X163488811Y-75053266D01*
X163395913Y-74879467D01*
X163395909Y-74879460D01*
X163270883Y-74727116D01*
X163118539Y-74602090D01*
X163118532Y-74602086D01*
X162944733Y-74509188D01*
X162944727Y-74509186D01*
X162813492Y-74469376D01*
X162756129Y-74451975D01*
X162560000Y-74432659D01*
X162363870Y-74451975D01*
X162175266Y-74509188D01*
X162001467Y-74602086D01*
X162001460Y-74602090D01*
X161849116Y-74727116D01*
X161724090Y-74879460D01*
X161724086Y-74879467D01*
X161631188Y-75053266D01*
X161573975Y-75241870D01*
X161554659Y-75438000D01*
X161573975Y-75634129D01*
X161573976Y-75634132D01*
X161624876Y-75801927D01*
X161631188Y-75822733D01*
X161724086Y-75996532D01*
X161724090Y-75996539D01*
X161849116Y-76148883D01*
X161955131Y-76235887D01*
X162001462Y-76273910D01*
X162143955Y-76350074D01*
X162193797Y-76399035D01*
X162209500Y-76459431D01*
X162209500Y-81993455D01*
X162189815Y-82060494D01*
X162173181Y-82081136D01*
X156236955Y-88017361D01*
X156217106Y-88033482D01*
X156209331Y-88038562D01*
X156189143Y-88064498D01*
X156184067Y-88070248D01*
X156181634Y-88072681D01*
X156181623Y-88072694D01*
X156168954Y-88090438D01*
X156137483Y-88130872D01*
X156133975Y-88137353D01*
X156130760Y-88143932D01*
X156116138Y-88193045D01*
X156099498Y-88241516D01*
X156098294Y-88248733D01*
X156097382Y-88256046D01*
X156099500Y-88307230D01*
X156099500Y-94318253D01*
X156079815Y-94385292D01*
X156033953Y-94427611D01*
X155911006Y-94493327D01*
X155910999Y-94493331D01*
X155763984Y-94613984D01*
X155643332Y-94760999D01*
X155553678Y-94928731D01*
X155498469Y-95110730D01*
X155479828Y-95300000D01*
X154880172Y-95300000D01*
X154861530Y-95110729D01*
X154806322Y-94928731D01*
X154716669Y-94761001D01*
X154637952Y-94665085D01*
X154596015Y-94613984D01*
X154449000Y-94493332D01*
X154448999Y-94493331D01*
X154281269Y-94403678D01*
X154099271Y-94348470D01*
X154099269Y-94348469D01*
X154099271Y-94348469D01*
X153910000Y-94329828D01*
X153720730Y-94348469D01*
X153538731Y-94403678D01*
X153370999Y-94493332D01*
X153223984Y-94613984D01*
X153103332Y-94760999D01*
X153013678Y-94928731D01*
X152958469Y-95110730D01*
X152939828Y-95300000D01*
X152340172Y-95300000D01*
X152321530Y-95110729D01*
X152266322Y-94928731D01*
X152176669Y-94761001D01*
X152097952Y-94665085D01*
X152056015Y-94613984D01*
X151909000Y-94493332D01*
X151908999Y-94493331D01*
X151741269Y-94403678D01*
X151559271Y-94348470D01*
X151559269Y-94348469D01*
X151559271Y-94348469D01*
X151370000Y-94329828D01*
X151180730Y-94348469D01*
X150998731Y-94403678D01*
X150830999Y-94493332D01*
X150683984Y-94613984D01*
X150563332Y-94760999D01*
X150473678Y-94928731D01*
X150418469Y-95110730D01*
X150399828Y-95300000D01*
X150099832Y-95300000D01*
X150099832Y-95299999D01*
X150080540Y-95079500D01*
X150080538Y-95079490D01*
X150023254Y-94865699D01*
X150023250Y-94865690D01*
X149929707Y-94665085D01*
X149929706Y-94665083D01*
X149883894Y-94599657D01*
X149883894Y-94599656D01*
X149321132Y-95162418D01*
X149298682Y-95085960D01*
X149219395Y-94962587D01*
X149108562Y-94866549D01*
X148975161Y-94805627D01*
X148971366Y-94805081D01*
X149530342Y-94246105D01*
X149530341Y-94246103D01*
X149464919Y-94200295D01*
X149264309Y-94106749D01*
X149264300Y-94106745D01*
X149050509Y-94049461D01*
X149050499Y-94049459D01*
X148830001Y-94030168D01*
X148829999Y-94030168D01*
X148609500Y-94049459D01*
X148609490Y-94049461D01*
X148395699Y-94106745D01*
X148395690Y-94106749D01*
X148195084Y-94200293D01*
X148129657Y-94246104D01*
X148688634Y-94805081D01*
X148684839Y-94805627D01*
X148551438Y-94866549D01*
X148440605Y-94962587D01*
X148361318Y-95085960D01*
X148338866Y-95162419D01*
X147776104Y-94599657D01*
X147730293Y-94665084D01*
X147636749Y-94865690D01*
X147636745Y-94865699D01*
X147579461Y-95079490D01*
X147579459Y-95079500D01*
X147560168Y-95299999D01*
X147560168Y-95300000D01*
X147260172Y-95300000D01*
X147241530Y-95110729D01*
X147186322Y-94928731D01*
X147096669Y-94761001D01*
X147017952Y-94665085D01*
X146976015Y-94613984D01*
X146829000Y-94493331D01*
X146828993Y-94493327D01*
X146706047Y-94427611D01*
X146656203Y-94378649D01*
X146640500Y-94318253D01*
X146640500Y-92656543D01*
X146660185Y-92589504D01*
X146676814Y-92568867D01*
X156713046Y-82532634D01*
X156732902Y-82516511D01*
X156740669Y-82511437D01*
X156760873Y-82485477D01*
X156765941Y-82479739D01*
X156768375Y-82477307D01*
X156781044Y-82459562D01*
X156812517Y-82419126D01*
X156812518Y-82419120D01*
X156816017Y-82412656D01*
X156819235Y-82406071D01*
X156819239Y-82406067D01*
X156833858Y-82356962D01*
X156850500Y-82308488D01*
X156850500Y-82308481D01*
X156851706Y-82301256D01*
X156852617Y-82293952D01*
X156850500Y-82242770D01*
X156850500Y-76431431D01*
X156870185Y-76364392D01*
X156916044Y-76322074D01*
X157058538Y-76245910D01*
X157210883Y-76120883D01*
X157335910Y-75968538D01*
X157406238Y-75836963D01*
X157428811Y-75794733D01*
X157428811Y-75794732D01*
X157428814Y-75794727D01*
X157486024Y-75606132D01*
X157505341Y-75410000D01*
X157486024Y-75213868D01*
X157428814Y-75025273D01*
X157428811Y-75025269D01*
X157428811Y-75025266D01*
X157335913Y-74851467D01*
X157335909Y-74851460D01*
X157210883Y-74699116D01*
X157058539Y-74574090D01*
X157058532Y-74574086D01*
X156884733Y-74481188D01*
X156884727Y-74481186D01*
X156696132Y-74423976D01*
X156696129Y-74423975D01*
X156500000Y-74404659D01*
X156303870Y-74423975D01*
X156115266Y-74481188D01*
X155941467Y-74574086D01*
X155941460Y-74574090D01*
X155789116Y-74699116D01*
X155664090Y-74851460D01*
X155664086Y-74851467D01*
X155571188Y-75025266D01*
X155513975Y-75213870D01*
X155494659Y-75410000D01*
X155513975Y-75606129D01*
X155513976Y-75606132D01*
X155571006Y-75794135D01*
X155571188Y-75794733D01*
X155664086Y-75968532D01*
X155664090Y-75968539D01*
X155789116Y-76120883D01*
X155895131Y-76207887D01*
X155941462Y-76245910D01*
X156083955Y-76322074D01*
X156133797Y-76371035D01*
X156149500Y-76431431D01*
X156149500Y-82053455D01*
X156129815Y-82120494D01*
X156113181Y-82141136D01*
X146076955Y-92177361D01*
X146057106Y-92193482D01*
X146049331Y-92198562D01*
X146029143Y-92224498D01*
X146024067Y-92230248D01*
X146021634Y-92232681D01*
X146021623Y-92232694D01*
X146008954Y-92250438D01*
X145977483Y-92290872D01*
X145973975Y-92297353D01*
X145970760Y-92303932D01*
X145956138Y-92353045D01*
X145939498Y-92401516D01*
X145938294Y-92408733D01*
X145937382Y-92416046D01*
X145939500Y-92467230D01*
X145939500Y-94318253D01*
X145919815Y-94385292D01*
X145873953Y-94427611D01*
X145751006Y-94493327D01*
X145750999Y-94493331D01*
X145603984Y-94613984D01*
X145483332Y-94760999D01*
X145393678Y-94928731D01*
X145338469Y-95110730D01*
X145319828Y-95300000D01*
X144720172Y-95300000D01*
X144701530Y-95110729D01*
X144646322Y-94928731D01*
X144556669Y-94761001D01*
X144477952Y-94665085D01*
X144436015Y-94613984D01*
X144289000Y-94493332D01*
X144288999Y-94493331D01*
X144121269Y-94403678D01*
X143939271Y-94348470D01*
X143939269Y-94348469D01*
X143939271Y-94348469D01*
X143750000Y-94329828D01*
X143560730Y-94348469D01*
X143378731Y-94403678D01*
X143210999Y-94493332D01*
X143063984Y-94613984D01*
X142943332Y-94760999D01*
X142853678Y-94928731D01*
X142798469Y-95110730D01*
X142779828Y-95300000D01*
X142180172Y-95300000D01*
X142161530Y-95110729D01*
X142106322Y-94928731D01*
X142016669Y-94761001D01*
X141937952Y-94665085D01*
X141896015Y-94613984D01*
X141749000Y-94493332D01*
X141748999Y-94493331D01*
X141581269Y-94403678D01*
X141399271Y-94348470D01*
X141399269Y-94348469D01*
X141399271Y-94348469D01*
X141210000Y-94329828D01*
X141020730Y-94348469D01*
X140838731Y-94403678D01*
X140670999Y-94493332D01*
X140523984Y-94613984D01*
X140403332Y-94760999D01*
X140313678Y-94928731D01*
X140258469Y-95110730D01*
X140239828Y-95300000D01*
X139640172Y-95300000D01*
X139621530Y-95110729D01*
X139566322Y-94928731D01*
X139476669Y-94761001D01*
X139397952Y-94665085D01*
X139356015Y-94613984D01*
X139209000Y-94493332D01*
X139208999Y-94493331D01*
X139041269Y-94403678D01*
X138859271Y-94348470D01*
X138859269Y-94348469D01*
X138859271Y-94348469D01*
X138670000Y-94329828D01*
X138480730Y-94348469D01*
X138298731Y-94403678D01*
X138130999Y-94493332D01*
X137983984Y-94613984D01*
X137863332Y-94760999D01*
X137773678Y-94928731D01*
X137718469Y-95110730D01*
X137699828Y-95300000D01*
X137100172Y-95300000D01*
X137081530Y-95110729D01*
X137026322Y-94928731D01*
X136936669Y-94761001D01*
X136857952Y-94665085D01*
X136816015Y-94613984D01*
X136669002Y-94493333D01*
X136669000Y-94493332D01*
X136668999Y-94493331D01*
X136646044Y-94481061D01*
X136596201Y-94432097D01*
X136580500Y-94371704D01*
X136580500Y-90607965D01*
X136600185Y-90540926D01*
X136616819Y-90520284D01*
X141400284Y-85736819D01*
X141461607Y-85703334D01*
X141487965Y-85700500D01*
X143019750Y-85700500D01*
X143019751Y-85700499D01*
X143034568Y-85697552D01*
X143078229Y-85688868D01*
X143078229Y-85688867D01*
X143078231Y-85688867D01*
X143144552Y-85644552D01*
X143188867Y-85578231D01*
X143188867Y-85578229D01*
X143188868Y-85578229D01*
X143200499Y-85519752D01*
X143200500Y-85519750D01*
X143200500Y-84500005D01*
X145494859Y-84500005D01*
X145515385Y-84747729D01*
X145515387Y-84747738D01*
X145576412Y-84988717D01*
X145676266Y-85216364D01*
X145776564Y-85369882D01*
X146516923Y-84629523D01*
X146540507Y-84709844D01*
X146618239Y-84830798D01*
X146726900Y-84924952D01*
X146857685Y-84984680D01*
X146867466Y-84986086D01*
X146129942Y-85723609D01*
X146176768Y-85760055D01*
X146176770Y-85760056D01*
X146395385Y-85878364D01*
X146395396Y-85878369D01*
X146630506Y-85959083D01*
X146875707Y-86000000D01*
X147124293Y-86000000D01*
X147369493Y-85959083D01*
X147604603Y-85878369D01*
X147604614Y-85878364D01*
X147823228Y-85760057D01*
X147823231Y-85760055D01*
X147870056Y-85723609D01*
X147132533Y-84986086D01*
X147142315Y-84984680D01*
X147273100Y-84924952D01*
X147381761Y-84830798D01*
X147459493Y-84709844D01*
X147483076Y-84629524D01*
X148223434Y-85369882D01*
X148323731Y-85216369D01*
X148423587Y-84988717D01*
X148484612Y-84747738D01*
X148484614Y-84747729D01*
X148505141Y-84500005D01*
X148505141Y-84499994D01*
X148484614Y-84252270D01*
X148484612Y-84252261D01*
X148423587Y-84011282D01*
X148323731Y-83783630D01*
X148223434Y-83630116D01*
X147483076Y-84370475D01*
X147459493Y-84290156D01*
X147381761Y-84169202D01*
X147273100Y-84075048D01*
X147142315Y-84015320D01*
X147132534Y-84013913D01*
X147870057Y-83276390D01*
X147870056Y-83276389D01*
X147823229Y-83239943D01*
X147604614Y-83121635D01*
X147604603Y-83121630D01*
X147369493Y-83040916D01*
X147124293Y-83000000D01*
X146875707Y-83000000D01*
X146630506Y-83040916D01*
X146395396Y-83121630D01*
X146395390Y-83121632D01*
X146176761Y-83239949D01*
X146129942Y-83276388D01*
X146129942Y-83276390D01*
X146867466Y-84013913D01*
X146857685Y-84015320D01*
X146726900Y-84075048D01*
X146618239Y-84169202D01*
X146540507Y-84290156D01*
X146516923Y-84370475D01*
X145776564Y-83630116D01*
X145676267Y-83783632D01*
X145576412Y-84011282D01*
X145515387Y-84252261D01*
X145515385Y-84252270D01*
X145494859Y-84499994D01*
X145494859Y-84500005D01*
X143200500Y-84500005D01*
X143200500Y-83480249D01*
X143200499Y-83480247D01*
X143188868Y-83421770D01*
X143188867Y-83421769D01*
X143144552Y-83355447D01*
X143078230Y-83311132D01*
X143078229Y-83311131D01*
X143019752Y-83299500D01*
X143019748Y-83299500D01*
X142574500Y-83299500D01*
X142507461Y-83279815D01*
X142461706Y-83227011D01*
X142450500Y-83175500D01*
X142450500Y-79237965D01*
X142470185Y-79170926D01*
X142486819Y-79150284D01*
X149150284Y-72486819D01*
X149211607Y-72453334D01*
X149237965Y-72450500D01*
X176762034Y-72450500D01*
X176829073Y-72470185D01*
X176849715Y-72486819D01*
X183536181Y-79173284D01*
X183569666Y-79234607D01*
X183572500Y-79260965D01*
X183572500Y-80015417D01*
X183552815Y-80082456D01*
X183500011Y-80128211D01*
X183495951Y-80129979D01*
X183494045Y-80130768D01*
X183389263Y-80186775D01*
X183311550Y-80228315D01*
X183311548Y-80228316D01*
X183311547Y-80228317D01*
X183151589Y-80359589D01*
X183020317Y-80519547D01*
X182922769Y-80702043D01*
X182862699Y-80900067D01*
X182842417Y-81106000D01*
X182862699Y-81311932D01*
X182862700Y-81311934D01*
X182922768Y-81509954D01*
X183020315Y-81692450D01*
X183020317Y-81692452D01*
X183151589Y-81852410D01*
X183225974Y-81913455D01*
X183311550Y-81983685D01*
X183494046Y-82081232D01*
X183494048Y-82081232D01*
X183494051Y-82081234D01*
X183499670Y-82083562D01*
X183498825Y-82085601D01*
X183548968Y-82118458D01*
X183577428Y-82182268D01*
X183566872Y-82251336D01*
X183520651Y-82303732D01*
X183486633Y-82318602D01*
X183434514Y-82332567D01*
X183434507Y-82332570D01*
X183220422Y-82432399D01*
X183220420Y-82432400D01*
X183026926Y-82567886D01*
X183026920Y-82567891D01*
X182859894Y-82734917D01*
X182724399Y-82928421D01*
X182624570Y-83142507D01*
X182624567Y-83142513D01*
X182567364Y-83355999D01*
X182567364Y-83356000D01*
X183619031Y-83356000D01*
X183586481Y-83406649D01*
X183548000Y-83537705D01*
X183548000Y-83674295D01*
X183586481Y-83805351D01*
X183619031Y-83856000D01*
X182567364Y-83856000D01*
X182624567Y-84069486D01*
X182624570Y-84069492D01*
X182724399Y-84283577D01*
X182724400Y-84283579D01*
X182859886Y-84477073D01*
X182859891Y-84477079D01*
X183026920Y-84644108D01*
X183026926Y-84644113D01*
X183220420Y-84779599D01*
X183220422Y-84779600D01*
X183305168Y-84819118D01*
X183357607Y-84865290D01*
X183376759Y-84932484D01*
X183356543Y-84999365D01*
X183303378Y-85044700D01*
X183252763Y-85055500D01*
X183243730Y-85055500D01*
X183213300Y-85058353D01*
X183213298Y-85058353D01*
X183085119Y-85103206D01*
X183085117Y-85103207D01*
X182975850Y-85183850D01*
X182895207Y-85293117D01*
X182895206Y-85293119D01*
X182850353Y-85421298D01*
X182850353Y-85421300D01*
X182847500Y-85451730D01*
X182847500Y-86760269D01*
X182850353Y-86790699D01*
X182850353Y-86790701D01*
X182895206Y-86918880D01*
X182895207Y-86918882D01*
X182975850Y-87028150D01*
X183085118Y-87108793D01*
X183127845Y-87123744D01*
X183213299Y-87153646D01*
X183243730Y-87156500D01*
X183243734Y-87156500D01*
X184526456Y-87156500D01*
X184593495Y-87176185D01*
X184614137Y-87192819D01*
X186113181Y-88691863D01*
X186146666Y-88753186D01*
X186149500Y-88779544D01*
X186149500Y-103803456D01*
X186129815Y-103870495D01*
X186113181Y-103891137D01*
X179891137Y-110113181D01*
X179829814Y-110146666D01*
X179803456Y-110149500D01*
X161517061Y-110149500D01*
X161511940Y-110149288D01*
X161470656Y-110145868D01*
X161430493Y-110156037D01*
X161425489Y-110157086D01*
X161406689Y-110160224D01*
X161384616Y-110163908D01*
X161382799Y-110164532D01*
X161359050Y-110173797D01*
X161357258Y-110174584D01*
X161322574Y-110197243D01*
X161318173Y-110199865D01*
X161281741Y-110219582D01*
X161280200Y-110220781D01*
X161260747Y-110237258D01*
X161259331Y-110238562D01*
X161233889Y-110271249D01*
X161230578Y-110275159D01*
X161202516Y-110305643D01*
X161201460Y-110307258D01*
X161188409Y-110329160D01*
X161187482Y-110330873D01*
X161174037Y-110370039D01*
X161172174Y-110374814D01*
X161160194Y-110402125D01*
X161134319Y-110439997D01*
X151816357Y-119757959D01*
X151755034Y-119791444D01*
X151692681Y-119788939D01*
X151590552Y-119757959D01*
X151559271Y-119748470D01*
X151559269Y-119748469D01*
X151559271Y-119748469D01*
X151370000Y-119729828D01*
X151180730Y-119748469D01*
X150998731Y-119803678D01*
X150830999Y-119893332D01*
X150683984Y-120013984D01*
X150563332Y-120160999D01*
X150473678Y-120328731D01*
X150418469Y-120510730D01*
X150399828Y-120700000D01*
X150418469Y-120889269D01*
X150427943Y-120920499D01*
X150473678Y-121071269D01*
X150547831Y-121210000D01*
X150563332Y-121239000D01*
X150683984Y-121386015D01*
X150701442Y-121400342D01*
X150831001Y-121506669D01*
X150998731Y-121596322D01*
X151180729Y-121651530D01*
X151180728Y-121651530D01*
X151197698Y-121653201D01*
X151370000Y-121670172D01*
X151559271Y-121651530D01*
X151741269Y-121596322D01*
X151908999Y-121506669D01*
X152056015Y-121386015D01*
X152176669Y-121238999D01*
X152266322Y-121071269D01*
X152321530Y-120889271D01*
X152340172Y-120700000D01*
X152939828Y-120700000D01*
X152958469Y-120889269D01*
X152967943Y-120920499D01*
X153013678Y-121071269D01*
X153087831Y-121210000D01*
X153103332Y-121239000D01*
X153223984Y-121386015D01*
X153241442Y-121400342D01*
X153371001Y-121506669D01*
X153538731Y-121596322D01*
X153720729Y-121651530D01*
X153720728Y-121651530D01*
X153737698Y-121653201D01*
X153910000Y-121670172D01*
X154099271Y-121651530D01*
X154281269Y-121596322D01*
X154448999Y-121506669D01*
X154596015Y-121386015D01*
X154716669Y-121238999D01*
X154806322Y-121071269D01*
X154861530Y-120889271D01*
X154880172Y-120700000D01*
X155479828Y-120700000D01*
X155498469Y-120889269D01*
X155507943Y-120920499D01*
X155553678Y-121071269D01*
X155627831Y-121210000D01*
X155643332Y-121239000D01*
X155763984Y-121386015D01*
X155781442Y-121400342D01*
X155911001Y-121506669D01*
X156078731Y-121596322D01*
X156260729Y-121651530D01*
X156260728Y-121651530D01*
X156277698Y-121653201D01*
X156450000Y-121670172D01*
X156639271Y-121651530D01*
X156821269Y-121596322D01*
X156988999Y-121506669D01*
X157136015Y-121386015D01*
X157256669Y-121238999D01*
X157346322Y-121071269D01*
X157401530Y-120889271D01*
X157420172Y-120700000D01*
X158019828Y-120700000D01*
X158038469Y-120889269D01*
X158047943Y-120920499D01*
X158093678Y-121071269D01*
X158167831Y-121210000D01*
X158183332Y-121239000D01*
X158303984Y-121386015D01*
X158321442Y-121400342D01*
X158451001Y-121506669D01*
X158618731Y-121596322D01*
X158800729Y-121651530D01*
X158800728Y-121651530D01*
X158817698Y-121653201D01*
X158990000Y-121670172D01*
X159179271Y-121651530D01*
X159361269Y-121596322D01*
X159528999Y-121506669D01*
X159676015Y-121386015D01*
X159796669Y-121238999D01*
X159886322Y-121071269D01*
X159941530Y-120889271D01*
X159960172Y-120700000D01*
X160559828Y-120700000D01*
X160578469Y-120889269D01*
X160587943Y-120920499D01*
X160633678Y-121071269D01*
X160707831Y-121210000D01*
X160723332Y-121239000D01*
X160843984Y-121386015D01*
X160861442Y-121400342D01*
X160991001Y-121506669D01*
X161158731Y-121596322D01*
X161340729Y-121651530D01*
X161340728Y-121651530D01*
X161357698Y-121653201D01*
X161530000Y-121670172D01*
X161719271Y-121651530D01*
X161901269Y-121596322D01*
X162068999Y-121506669D01*
X162216015Y-121386015D01*
X162336669Y-121238999D01*
X162426322Y-121071269D01*
X162481530Y-120889271D01*
X162500172Y-120700000D01*
X163099828Y-120700000D01*
X163118469Y-120889269D01*
X163127943Y-120920499D01*
X163173678Y-121071269D01*
X163247831Y-121210000D01*
X163263332Y-121239000D01*
X163383984Y-121386015D01*
X163401442Y-121400342D01*
X163531001Y-121506669D01*
X163698731Y-121596322D01*
X163880729Y-121651530D01*
X163880728Y-121651530D01*
X163897698Y-121653201D01*
X164070000Y-121670172D01*
X164259271Y-121651530D01*
X164441269Y-121596322D01*
X164608999Y-121506669D01*
X164756015Y-121386015D01*
X164876669Y-121238999D01*
X164966322Y-121071269D01*
X165021530Y-120889271D01*
X165040172Y-120700000D01*
X165340168Y-120700000D01*
X165359459Y-120920499D01*
X165359461Y-120920509D01*
X165416745Y-121134300D01*
X165416749Y-121134309D01*
X165510295Y-121334919D01*
X165556103Y-121400341D01*
X165556105Y-121400342D01*
X166118866Y-120837580D01*
X166141318Y-120914040D01*
X166220605Y-121037413D01*
X166331438Y-121133451D01*
X166464839Y-121194373D01*
X166468633Y-121194918D01*
X165909656Y-121753894D01*
X165975083Y-121799706D01*
X165975085Y-121799707D01*
X166175690Y-121893250D01*
X166175699Y-121893254D01*
X166389490Y-121950538D01*
X166389500Y-121950540D01*
X166609999Y-121969832D01*
X166610001Y-121969832D01*
X166830499Y-121950540D01*
X166830509Y-121950538D01*
X167044300Y-121893254D01*
X167044309Y-121893250D01*
X167244915Y-121799706D01*
X167310342Y-121753894D01*
X166751366Y-121194918D01*
X166755161Y-121194373D01*
X166888562Y-121133451D01*
X166999395Y-121037413D01*
X167078682Y-120914040D01*
X167101133Y-120837580D01*
X167663894Y-121400342D01*
X167709706Y-121334915D01*
X167803250Y-121134309D01*
X167803254Y-121134300D01*
X167860538Y-120920509D01*
X167860540Y-120920499D01*
X167879832Y-120700000D01*
X168179828Y-120700000D01*
X168198469Y-120889269D01*
X168207943Y-120920499D01*
X168253678Y-121071269D01*
X168327831Y-121210000D01*
X168343332Y-121239000D01*
X168463984Y-121386015D01*
X168481442Y-121400342D01*
X168611001Y-121506669D01*
X168778731Y-121596322D01*
X168960729Y-121651530D01*
X168960728Y-121651530D01*
X168977698Y-121653201D01*
X169150000Y-121670172D01*
X169339271Y-121651530D01*
X169521269Y-121596322D01*
X169688999Y-121506669D01*
X169836015Y-121386015D01*
X169956669Y-121238999D01*
X170046322Y-121071269D01*
X170101530Y-120889271D01*
X170120172Y-120700000D01*
X170719828Y-120700000D01*
X170738469Y-120889269D01*
X170747943Y-120920499D01*
X170793678Y-121071269D01*
X170867831Y-121210000D01*
X170883332Y-121239000D01*
X171003984Y-121386015D01*
X171021442Y-121400342D01*
X171151001Y-121506669D01*
X171318731Y-121596322D01*
X171500729Y-121651530D01*
X171500728Y-121651530D01*
X171517698Y-121653201D01*
X171690000Y-121670172D01*
X171879271Y-121651530D01*
X172061269Y-121596322D01*
X172228999Y-121506669D01*
X172376015Y-121386015D01*
X172496669Y-121238999D01*
X172586322Y-121071269D01*
X172641530Y-120889271D01*
X172660172Y-120700000D01*
X173259828Y-120700000D01*
X173278469Y-120889269D01*
X173287943Y-120920499D01*
X173333678Y-121071269D01*
X173407831Y-121210000D01*
X173423332Y-121239000D01*
X173543984Y-121386015D01*
X173561442Y-121400342D01*
X173691001Y-121506669D01*
X173858731Y-121596322D01*
X174040729Y-121651530D01*
X174040728Y-121651530D01*
X174057698Y-121653201D01*
X174230000Y-121670172D01*
X174419271Y-121651530D01*
X174601269Y-121596322D01*
X174768999Y-121506669D01*
X174916015Y-121386015D01*
X175036669Y-121238999D01*
X175126322Y-121071269D01*
X175181530Y-120889271D01*
X175200172Y-120700000D01*
X175799828Y-120700000D01*
X175818469Y-120889269D01*
X175827943Y-120920499D01*
X175873678Y-121071269D01*
X175947831Y-121210000D01*
X175963332Y-121239000D01*
X176083984Y-121386015D01*
X176101442Y-121400342D01*
X176231001Y-121506669D01*
X176398731Y-121596322D01*
X176580729Y-121651530D01*
X176580728Y-121651530D01*
X176597698Y-121653201D01*
X176770000Y-121670172D01*
X176959271Y-121651530D01*
X177141269Y-121596322D01*
X177308999Y-121506669D01*
X177456015Y-121386015D01*
X177576669Y-121238999D01*
X177666322Y-121071269D01*
X177721530Y-120889271D01*
X177740172Y-120700000D01*
X178339828Y-120700000D01*
X178358469Y-120889269D01*
X178367943Y-120920499D01*
X178413678Y-121071269D01*
X178487831Y-121210000D01*
X178503332Y-121239000D01*
X178623984Y-121386015D01*
X178641442Y-121400342D01*
X178771001Y-121506669D01*
X178938731Y-121596322D01*
X179120729Y-121651530D01*
X179120728Y-121651530D01*
X179137698Y-121653201D01*
X179310000Y-121670172D01*
X179499271Y-121651530D01*
X179681269Y-121596322D01*
X179848999Y-121506669D01*
X179996015Y-121386015D01*
X180116669Y-121238999D01*
X180206322Y-121071269D01*
X180261530Y-120889271D01*
X180280172Y-120700000D01*
X180580168Y-120700000D01*
X180599459Y-120920499D01*
X180599461Y-120920509D01*
X180656745Y-121134300D01*
X180656749Y-121134309D01*
X180750295Y-121334919D01*
X180796103Y-121400341D01*
X180796105Y-121400342D01*
X181358866Y-120837580D01*
X181381318Y-120914040D01*
X181460605Y-121037413D01*
X181571438Y-121133451D01*
X181704839Y-121194373D01*
X181708633Y-121194918D01*
X181149656Y-121753894D01*
X181215083Y-121799706D01*
X181215085Y-121799707D01*
X181415690Y-121893250D01*
X181415699Y-121893254D01*
X181629490Y-121950538D01*
X181629500Y-121950540D01*
X181849999Y-121969832D01*
X181850001Y-121969832D01*
X182070499Y-121950540D01*
X182070509Y-121950538D01*
X182284300Y-121893254D01*
X182284309Y-121893250D01*
X182484915Y-121799706D01*
X182550342Y-121753894D01*
X181991366Y-121194918D01*
X181995161Y-121194373D01*
X182128562Y-121133451D01*
X182239395Y-121037413D01*
X182318682Y-120914040D01*
X182341133Y-120837580D01*
X182903894Y-121400342D01*
X182949706Y-121334915D01*
X183043250Y-121134309D01*
X183043254Y-121134300D01*
X183100538Y-120920509D01*
X183100540Y-120920499D01*
X183119832Y-120700000D01*
X183119832Y-120699999D01*
X183100540Y-120479500D01*
X183100538Y-120479490D01*
X183043254Y-120265699D01*
X183043250Y-120265690D01*
X182949707Y-120065085D01*
X182949706Y-120065083D01*
X182903894Y-119999657D01*
X182903894Y-119999656D01*
X182341132Y-120562418D01*
X182318682Y-120485960D01*
X182239395Y-120362587D01*
X182128562Y-120266549D01*
X181995161Y-120205627D01*
X181991366Y-120205081D01*
X182550342Y-119646105D01*
X182550341Y-119646103D01*
X182484919Y-119600295D01*
X182284309Y-119506749D01*
X182284300Y-119506745D01*
X182070509Y-119449461D01*
X182070499Y-119449459D01*
X181850001Y-119430168D01*
X181849999Y-119430168D01*
X181629500Y-119449459D01*
X181629490Y-119449461D01*
X181415699Y-119506745D01*
X181415690Y-119506749D01*
X181215084Y-119600293D01*
X181149657Y-119646104D01*
X181708634Y-120205081D01*
X181704839Y-120205627D01*
X181571438Y-120266549D01*
X181460605Y-120362587D01*
X181381318Y-120485960D01*
X181358866Y-120562419D01*
X180796104Y-119999657D01*
X180750293Y-120065084D01*
X180656749Y-120265690D01*
X180656745Y-120265699D01*
X180599461Y-120479490D01*
X180599459Y-120479500D01*
X180580168Y-120699999D01*
X180580168Y-120700000D01*
X180280172Y-120700000D01*
X180261530Y-120510729D01*
X180206322Y-120328731D01*
X180116669Y-120161001D01*
X180037952Y-120065085D01*
X179996015Y-120013984D01*
X179849000Y-119893332D01*
X179848999Y-119893331D01*
X179681269Y-119803678D01*
X179499271Y-119748470D01*
X179499269Y-119748469D01*
X179499271Y-119748469D01*
X179310000Y-119729828D01*
X179120730Y-119748469D01*
X178938731Y-119803678D01*
X178770999Y-119893332D01*
X178623984Y-120013984D01*
X178503332Y-120160999D01*
X178413678Y-120328731D01*
X178358469Y-120510730D01*
X178339828Y-120700000D01*
X177740172Y-120700000D01*
X177721530Y-120510729D01*
X177666322Y-120328731D01*
X177576669Y-120161001D01*
X177497952Y-120065085D01*
X177456015Y-120013984D01*
X177309000Y-119893332D01*
X177308999Y-119893331D01*
X177141269Y-119803678D01*
X176959271Y-119748470D01*
X176959269Y-119748469D01*
X176959271Y-119748469D01*
X176770000Y-119729828D01*
X176580730Y-119748469D01*
X176398731Y-119803678D01*
X176230999Y-119893332D01*
X176083984Y-120013984D01*
X175963332Y-120160999D01*
X175873678Y-120328731D01*
X175818469Y-120510730D01*
X175799828Y-120700000D01*
X175200172Y-120700000D01*
X175181530Y-120510729D01*
X175126322Y-120328731D01*
X175036669Y-120161001D01*
X174957952Y-120065085D01*
X174916015Y-120013984D01*
X174769000Y-119893332D01*
X174768999Y-119893331D01*
X174601269Y-119803678D01*
X174419271Y-119748470D01*
X174419269Y-119748469D01*
X174419271Y-119748469D01*
X174230000Y-119729828D01*
X174040730Y-119748469D01*
X173858731Y-119803678D01*
X173690999Y-119893332D01*
X173543984Y-120013984D01*
X173423332Y-120160999D01*
X173333678Y-120328731D01*
X173278469Y-120510730D01*
X173259828Y-120700000D01*
X172660172Y-120700000D01*
X172641530Y-120510729D01*
X172586322Y-120328731D01*
X172496669Y-120161001D01*
X172417952Y-120065085D01*
X172376015Y-120013984D01*
X172229000Y-119893332D01*
X172228999Y-119893331D01*
X172061269Y-119803678D01*
X171879271Y-119748470D01*
X171879269Y-119748469D01*
X171879271Y-119748469D01*
X171690000Y-119729828D01*
X171500730Y-119748469D01*
X171318731Y-119803678D01*
X171150999Y-119893332D01*
X171003984Y-120013984D01*
X170883332Y-120160999D01*
X170793678Y-120328731D01*
X170738469Y-120510730D01*
X170719828Y-120700000D01*
X170120172Y-120700000D01*
X170101530Y-120510729D01*
X170046322Y-120328731D01*
X169956669Y-120161001D01*
X169877952Y-120065085D01*
X169836015Y-120013984D01*
X169689000Y-119893332D01*
X169688999Y-119893331D01*
X169521269Y-119803678D01*
X169339271Y-119748470D01*
X169339269Y-119748469D01*
X169339271Y-119748469D01*
X169150000Y-119729828D01*
X168960730Y-119748469D01*
X168778731Y-119803678D01*
X168610999Y-119893332D01*
X168463984Y-120013984D01*
X168343332Y-120160999D01*
X168253678Y-120328731D01*
X168198469Y-120510730D01*
X168179828Y-120700000D01*
X167879832Y-120700000D01*
X167879832Y-120699999D01*
X167860540Y-120479500D01*
X167860538Y-120479490D01*
X167803254Y-120265699D01*
X167803250Y-120265690D01*
X167709707Y-120065085D01*
X167709706Y-120065083D01*
X167663894Y-119999657D01*
X167663894Y-119999656D01*
X167101132Y-120562418D01*
X167078682Y-120485960D01*
X166999395Y-120362587D01*
X166888562Y-120266549D01*
X166755161Y-120205627D01*
X166751366Y-120205081D01*
X167310342Y-119646105D01*
X167310341Y-119646103D01*
X167244919Y-119600295D01*
X167044309Y-119506749D01*
X167044300Y-119506745D01*
X166830509Y-119449461D01*
X166830499Y-119449459D01*
X166610001Y-119430168D01*
X166609999Y-119430168D01*
X166389500Y-119449459D01*
X166389490Y-119449461D01*
X166175699Y-119506745D01*
X166175690Y-119506749D01*
X165975084Y-119600293D01*
X165909657Y-119646104D01*
X166468634Y-120205081D01*
X166464839Y-120205627D01*
X166331438Y-120266549D01*
X166220605Y-120362587D01*
X166141318Y-120485960D01*
X166118866Y-120562419D01*
X165556104Y-119999657D01*
X165510293Y-120065084D01*
X165416749Y-120265690D01*
X165416745Y-120265699D01*
X165359461Y-120479490D01*
X165359459Y-120479500D01*
X165340168Y-120699999D01*
X165340168Y-120700000D01*
X165040172Y-120700000D01*
X165021530Y-120510729D01*
X164966322Y-120328731D01*
X164876669Y-120161001D01*
X164797952Y-120065085D01*
X164756015Y-120013984D01*
X164609000Y-119893332D01*
X164608999Y-119893331D01*
X164441269Y-119803678D01*
X164259271Y-119748470D01*
X164259269Y-119748469D01*
X164259271Y-119748469D01*
X164070000Y-119729828D01*
X163880730Y-119748469D01*
X163698731Y-119803678D01*
X163530999Y-119893332D01*
X163383984Y-120013984D01*
X163263332Y-120160999D01*
X163173678Y-120328731D01*
X163118469Y-120510730D01*
X163099828Y-120700000D01*
X162500172Y-120700000D01*
X162481530Y-120510729D01*
X162426322Y-120328731D01*
X162336669Y-120161001D01*
X162257952Y-120065085D01*
X162216015Y-120013984D01*
X162069000Y-119893332D01*
X162068999Y-119893331D01*
X161901269Y-119803678D01*
X161719271Y-119748470D01*
X161719269Y-119748469D01*
X161719271Y-119748469D01*
X161530000Y-119729828D01*
X161340730Y-119748469D01*
X161158731Y-119803678D01*
X160990999Y-119893332D01*
X160843984Y-120013984D01*
X160723332Y-120160999D01*
X160633678Y-120328731D01*
X160578469Y-120510730D01*
X160559828Y-120700000D01*
X159960172Y-120700000D01*
X159941530Y-120510729D01*
X159886322Y-120328731D01*
X159796669Y-120161001D01*
X159717952Y-120065085D01*
X159676015Y-120013984D01*
X159529000Y-119893332D01*
X159528999Y-119893331D01*
X159361269Y-119803678D01*
X159179271Y-119748470D01*
X159179269Y-119748469D01*
X159179271Y-119748469D01*
X158990000Y-119729828D01*
X158800730Y-119748469D01*
X158618731Y-119803678D01*
X158450999Y-119893332D01*
X158303984Y-120013984D01*
X158183332Y-120160999D01*
X158093678Y-120328731D01*
X158038469Y-120510730D01*
X158019828Y-120700000D01*
X157420172Y-120700000D01*
X157401530Y-120510729D01*
X157346322Y-120328731D01*
X157256669Y-120161001D01*
X157177952Y-120065085D01*
X157136015Y-120013984D01*
X156989000Y-119893332D01*
X156988999Y-119893331D01*
X156821269Y-119803678D01*
X156639271Y-119748470D01*
X156639269Y-119748469D01*
X156639271Y-119748469D01*
X156450000Y-119729828D01*
X156260730Y-119748469D01*
X156078731Y-119803678D01*
X155910999Y-119893332D01*
X155763984Y-120013984D01*
X155643332Y-120160999D01*
X155553678Y-120328731D01*
X155498469Y-120510730D01*
X155479828Y-120700000D01*
X154880172Y-120700000D01*
X154861530Y-120510729D01*
X154806322Y-120328731D01*
X154716669Y-120161001D01*
X154637952Y-120065085D01*
X154596015Y-120013984D01*
X154449000Y-119893332D01*
X154448999Y-119893331D01*
X154281269Y-119803678D01*
X154099271Y-119748470D01*
X154099269Y-119748469D01*
X154099271Y-119748469D01*
X153910000Y-119729828D01*
X153720730Y-119748469D01*
X153538731Y-119803678D01*
X153370999Y-119893332D01*
X153223984Y-120013984D01*
X153103332Y-120160999D01*
X153013678Y-120328731D01*
X152958469Y-120510730D01*
X152939828Y-120700000D01*
X152340172Y-120700000D01*
X152321530Y-120510729D01*
X152281059Y-120377316D01*
X152280436Y-120307451D01*
X152312037Y-120253643D01*
X161678863Y-110886819D01*
X161740186Y-110853334D01*
X161766544Y-110850500D01*
X179950789Y-110850500D01*
X179976234Y-110853138D01*
X179985315Y-110855043D01*
X180001005Y-110853087D01*
X180017939Y-110850977D01*
X180025615Y-110850500D01*
X180029035Y-110850500D01*
X180029040Y-110850500D01*
X180033738Y-110849716D01*
X180050539Y-110846913D01*
X180077958Y-110843494D01*
X180101393Y-110840573D01*
X180101402Y-110840568D01*
X180108451Y-110838470D01*
X180115377Y-110836092D01*
X180115381Y-110836092D01*
X180160444Y-110811704D01*
X180206484Y-110789198D01*
X180206487Y-110789194D01*
X180212453Y-110784935D01*
X180218254Y-110780419D01*
X180218258Y-110780418D01*
X180252957Y-110742724D01*
X186713046Y-104282634D01*
X186732902Y-104266511D01*
X186740669Y-104261437D01*
X186760873Y-104235477D01*
X186765941Y-104229739D01*
X186768375Y-104227307D01*
X186781044Y-104209561D01*
X186812517Y-104169126D01*
X186812518Y-104169120D01*
X186816017Y-104162655D01*
X186819235Y-104156072D01*
X186819240Y-104156066D01*
X186833861Y-104106954D01*
X186850500Y-104058488D01*
X186850500Y-104058479D01*
X186851706Y-104051256D01*
X186852617Y-104043952D01*
X186850500Y-103992770D01*
X186850500Y-88517061D01*
X186850712Y-88511940D01*
X186851987Y-88496542D01*
X186854132Y-88470656D01*
X186843958Y-88430480D01*
X186842910Y-88425480D01*
X186841211Y-88415299D01*
X186836092Y-88384619D01*
X186835455Y-88382763D01*
X186826215Y-88359079D01*
X186825417Y-88357260D01*
X186802755Y-88322573D01*
X186800131Y-88318169D01*
X186780418Y-88281741D01*
X186779203Y-88280180D01*
X186762787Y-88260798D01*
X186761436Y-88259330D01*
X186728748Y-88233888D01*
X186724836Y-88230575D01*
X186694356Y-88202516D01*
X186694351Y-88202513D01*
X186692717Y-88201445D01*
X186670860Y-88188421D01*
X186669127Y-88187483D01*
X186629947Y-88174032D01*
X186625174Y-88172169D01*
X186601844Y-88161936D01*
X186587232Y-88155527D01*
X186587230Y-88155526D01*
X186577824Y-88151401D01*
X186579093Y-88148506D01*
X186537615Y-88124933D01*
X185234819Y-86822137D01*
X185201334Y-86760814D01*
X185198500Y-86734456D01*
X185198500Y-85451730D01*
X185195646Y-85421300D01*
X185195646Y-85421298D01*
X185150793Y-85293119D01*
X185150792Y-85293117D01*
X185070150Y-85183850D01*
X184960882Y-85103207D01*
X184960880Y-85103206D01*
X184832700Y-85058353D01*
X184802270Y-85055500D01*
X184802266Y-85055500D01*
X184793237Y-85055500D01*
X184726198Y-85035815D01*
X184680443Y-84983011D01*
X184670499Y-84913853D01*
X184699524Y-84850297D01*
X184740832Y-84819118D01*
X184825577Y-84779600D01*
X184825579Y-84779599D01*
X185019073Y-84644113D01*
X185019079Y-84644108D01*
X185186105Y-84477082D01*
X185321600Y-84283578D01*
X185421429Y-84069492D01*
X185421432Y-84069486D01*
X185478636Y-83856000D01*
X184426969Y-83856000D01*
X184459519Y-83805351D01*
X184498000Y-83674295D01*
X184498000Y-83537705D01*
X184459519Y-83406649D01*
X184426969Y-83356000D01*
X185478636Y-83356000D01*
X185478635Y-83355999D01*
X185421432Y-83142513D01*
X185421429Y-83142507D01*
X185321600Y-82928422D01*
X185321599Y-82928420D01*
X185186113Y-82734926D01*
X185186108Y-82734920D01*
X185019079Y-82567891D01*
X185019073Y-82567886D01*
X184825579Y-82432400D01*
X184825577Y-82432399D01*
X184611492Y-82332570D01*
X184611486Y-82332567D01*
X184559366Y-82318602D01*
X184499706Y-82282237D01*
X184469177Y-82219390D01*
X184477472Y-82150014D01*
X184521957Y-82096136D01*
X184546662Y-82084364D01*
X184546330Y-82083562D01*
X184551948Y-82081234D01*
X184551948Y-82081233D01*
X184551954Y-82081232D01*
X184734450Y-81983685D01*
X184894410Y-81852410D01*
X185025685Y-81692450D01*
X185123232Y-81509954D01*
X185183300Y-81311934D01*
X185203583Y-81106000D01*
X185183300Y-80900066D01*
X185123232Y-80702046D01*
X185025685Y-80519550D01*
X184973702Y-80456209D01*
X184894410Y-80359589D01*
X184734452Y-80228317D01*
X184734453Y-80228317D01*
X184734450Y-80228315D01*
X184551954Y-80130768D01*
X184550049Y-80129979D01*
X184549203Y-80129298D01*
X184546581Y-80127896D01*
X184546846Y-80127398D01*
X184495645Y-80086138D01*
X184473579Y-80019844D01*
X184473500Y-80015417D01*
X184473500Y-79051781D01*
X184473889Y-79044844D01*
X184478270Y-79005965D01*
X184467210Y-78947508D01*
X184458348Y-78888713D01*
X184458347Y-78888711D01*
X184458347Y-78888709D01*
X184455829Y-78880545D01*
X184453024Y-78872532D01*
X184453024Y-78872528D01*
X184425216Y-78819915D01*
X184399425Y-78766358D01*
X184394620Y-78759310D01*
X184389567Y-78752465D01*
X184389566Y-78752462D01*
X184347503Y-78710399D01*
X184307055Y-78666806D01*
X184307054Y-78666805D01*
X184307053Y-78666804D01*
X184299790Y-78661012D01*
X184300310Y-78660359D01*
X184288070Y-78650966D01*
X177338908Y-71701805D01*
X177334271Y-71696617D01*
X177309878Y-71666029D01*
X177260728Y-71632519D01*
X177212882Y-71597207D01*
X177205297Y-71593198D01*
X177197677Y-71589529D01*
X177173161Y-71581967D01*
X177140822Y-71571992D01*
X177119842Y-71564651D01*
X177084695Y-71552352D01*
X177076326Y-71550768D01*
X177067904Y-71549500D01*
X177067902Y-71549500D01*
X177008426Y-71549500D01*
X176948990Y-71547275D01*
X176939756Y-71548316D01*
X176939662Y-71547486D01*
X176924364Y-71549500D01*
X149028783Y-71549500D01*
X149021844Y-71549110D01*
X149007426Y-71547486D01*
X148982964Y-71544729D01*
X148932543Y-71554270D01*
X148924520Y-71555788D01*
X148911832Y-71557700D01*
X148865716Y-71564651D01*
X148857558Y-71567167D01*
X148849522Y-71569979D01*
X148796927Y-71597777D01*
X148743356Y-71623576D01*
X148736310Y-71628379D01*
X148729459Y-71633435D01*
X148701419Y-71661475D01*
X148687399Y-71675496D01*
X148664636Y-71696617D01*
X148643803Y-71715947D01*
X148638012Y-71723209D01*
X148637360Y-71722689D01*
X148627968Y-71734926D01*
X142087680Y-78275215D01*
X142026357Y-78308700D01*
X141956665Y-78303716D01*
X141912318Y-78275215D01*
X140486819Y-76849716D01*
X140453334Y-76788393D01*
X140450500Y-76762035D01*
X140450500Y-75911286D01*
X140470185Y-75844247D01*
X140516049Y-75801927D01*
X140517225Y-75801297D01*
X140530625Y-75794136D01*
X140675357Y-75675357D01*
X140794136Y-75530625D01*
X140882396Y-75365501D01*
X140936747Y-75186331D01*
X140955099Y-75000000D01*
X140936747Y-74813669D01*
X140882396Y-74634499D01*
X140850105Y-74574086D01*
X140794137Y-74469376D01*
X140794135Y-74469373D01*
X140675357Y-74324642D01*
X140530626Y-74205864D01*
X140530623Y-74205862D01*
X140365502Y-74117604D01*
X140186333Y-74063253D01*
X140186331Y-74063252D01*
X140000000Y-74044901D01*
X139813668Y-74063252D01*
X139813666Y-74063253D01*
X139634497Y-74117604D01*
X139469376Y-74205862D01*
X139469373Y-74205864D01*
X139324642Y-74324642D01*
X139205864Y-74469373D01*
X139205862Y-74469376D01*
X139117604Y-74634497D01*
X139063253Y-74813666D01*
X139063252Y-74813668D01*
X139044901Y-75000000D01*
X139063252Y-75186331D01*
X139063253Y-75186333D01*
X139117604Y-75365502D01*
X139205862Y-75530623D01*
X139205864Y-75530626D01*
X139324642Y-75675357D01*
X139469373Y-75794135D01*
X139469374Y-75794135D01*
X139469375Y-75794136D01*
X139481773Y-75800762D01*
X139483951Y-75801927D01*
X139533796Y-75850888D01*
X139549500Y-75911286D01*
X139549500Y-76971217D01*
X139549110Y-76978155D01*
X139547724Y-76990454D01*
X139544729Y-77017034D01*
X139555788Y-77075479D01*
X139564652Y-77134290D01*
X139567162Y-77142427D01*
X139569978Y-77150475D01*
X139597777Y-77203072D01*
X139623576Y-77256644D01*
X139628362Y-77263665D01*
X139633431Y-77270532D01*
X139633434Y-77270538D01*
X139633438Y-77270542D01*
X139675495Y-77312599D01*
X139715947Y-77356196D01*
X139723210Y-77361988D01*
X139722689Y-77362641D01*
X139734930Y-77372034D01*
X141513181Y-79150284D01*
X141546666Y-79211607D01*
X141549500Y-79237965D01*
X141549500Y-83175500D01*
X141529815Y-83242539D01*
X141477011Y-83288294D01*
X141425500Y-83299500D01*
X140980247Y-83299500D01*
X140921770Y-83311131D01*
X140921769Y-83311132D01*
X140855447Y-83355447D01*
X140811132Y-83421769D01*
X140811131Y-83421770D01*
X140799500Y-83480247D01*
X140799500Y-85012034D01*
X140779815Y-85079073D01*
X140763180Y-85099715D01*
X135979463Y-89883434D01*
X135947553Y-89915344D01*
X135831799Y-90031095D01*
X135826613Y-90035730D01*
X135796031Y-90060118D01*
X135796028Y-90060122D01*
X135788122Y-90071718D01*
X135773353Y-90089542D01*
X127201804Y-98661092D01*
X127196617Y-98665727D01*
X127166033Y-98690117D01*
X127166029Y-98690121D01*
X127132519Y-98739271D01*
X127097206Y-98787118D01*
X127093216Y-98794667D01*
X127089528Y-98802326D01*
X127071992Y-98859177D01*
X127052353Y-98915301D01*
X127050771Y-98923659D01*
X127049500Y-98932100D01*
X127049500Y-98991573D01*
X127047275Y-99051009D01*
X127048316Y-99060243D01*
X127047485Y-99060336D01*
X127049500Y-99075635D01*
X127049500Y-110762035D01*
X127029815Y-110829074D01*
X127013181Y-110849716D01*
X123849716Y-114013181D01*
X123788393Y-114046666D01*
X123762035Y-114049500D01*
X113028783Y-114049500D01*
X113021844Y-114049110D01*
X113007569Y-114047502D01*
X112982964Y-114044729D01*
X112932543Y-114054270D01*
X112924520Y-114055788D01*
X112911832Y-114057700D01*
X112865716Y-114064651D01*
X112857532Y-114067175D01*
X112849528Y-114069976D01*
X112796936Y-114097773D01*
X112743357Y-114123574D01*
X112736338Y-114128359D01*
X112729461Y-114133435D01*
X112687413Y-114175483D01*
X112643803Y-114215947D01*
X112638013Y-114223208D01*
X112637362Y-114222688D01*
X112627967Y-114234928D01*
X105025875Y-121837020D01*
X104964552Y-121870505D01*
X104894860Y-121865521D01*
X104893401Y-121864966D01*
X104829944Y-121840383D01*
X104829941Y-121840382D01*
X104829940Y-121840382D01*
X104611243Y-121799500D01*
X104388757Y-121799500D01*
X104170060Y-121840382D01*
X104106602Y-121864966D01*
X103962601Y-121920752D01*
X103962595Y-121920754D01*
X103773439Y-122037874D01*
X103773437Y-122037876D01*
X103609020Y-122187761D01*
X103474943Y-122365308D01*
X103474938Y-122365316D01*
X103375775Y-122564461D01*
X103375769Y-122564476D01*
X103314885Y-122778462D01*
X103314884Y-122778464D01*
X103294357Y-122999999D01*
X103294357Y-123000000D01*
X100000000Y-123000000D01*
X100000000Y-105000005D01*
X102994859Y-105000005D01*
X103015385Y-105247729D01*
X103015387Y-105247738D01*
X103076412Y-105488717D01*
X103176266Y-105716364D01*
X103276564Y-105869882D01*
X104016923Y-105129523D01*
X104040507Y-105209844D01*
X104118239Y-105330798D01*
X104226900Y-105424952D01*
X104357685Y-105484680D01*
X104367466Y-105486086D01*
X103629942Y-106223609D01*
X103676768Y-106260055D01*
X103676770Y-106260056D01*
X103895385Y-106378364D01*
X103895396Y-106378369D01*
X104130506Y-106459083D01*
X104375707Y-106500000D01*
X104624293Y-106500000D01*
X104869493Y-106459083D01*
X105104603Y-106378369D01*
X105104614Y-106378364D01*
X105323228Y-106260057D01*
X105323231Y-106260055D01*
X105370056Y-106223609D01*
X104632533Y-105486086D01*
X104642315Y-105484680D01*
X104773100Y-105424952D01*
X104881761Y-105330798D01*
X104959493Y-105209844D01*
X104983076Y-105129524D01*
X105723434Y-105869882D01*
X105823731Y-105716369D01*
X105923587Y-105488717D01*
X105984612Y-105247738D01*
X105984614Y-105247729D01*
X106005141Y-105000005D01*
X106005141Y-104999994D01*
X105984614Y-104752270D01*
X105984612Y-104752261D01*
X105923587Y-104511282D01*
X105823731Y-104283630D01*
X105723434Y-104130116D01*
X104983076Y-104870475D01*
X104959493Y-104790156D01*
X104881761Y-104669202D01*
X104773100Y-104575048D01*
X104642315Y-104515320D01*
X104632534Y-104513913D01*
X105370057Y-103776390D01*
X105370056Y-103776389D01*
X105323229Y-103739943D01*
X105104614Y-103621635D01*
X105104603Y-103621630D01*
X104869493Y-103540916D01*
X104624293Y-103500000D01*
X104375707Y-103500000D01*
X104130506Y-103540916D01*
X103895396Y-103621630D01*
X103895390Y-103621632D01*
X103676761Y-103739949D01*
X103629942Y-103776388D01*
X103629942Y-103776390D01*
X104367466Y-104513913D01*
X104357685Y-104515320D01*
X104226900Y-104575048D01*
X104118239Y-104669202D01*
X104040507Y-104790156D01*
X104016923Y-104870475D01*
X103276564Y-104130116D01*
X103176267Y-104283632D01*
X103076412Y-104511282D01*
X103015387Y-104752261D01*
X103015385Y-104752270D01*
X102994859Y-104999994D01*
X102994859Y-105000005D01*
X100000000Y-105000005D01*
X100000000Y-101874000D01*
X100019685Y-101806961D01*
X100072489Y-101761206D01*
X100124000Y-101750000D01*
X122000000Y-101750000D01*
X122000000Y-69043124D01*
X139310426Y-69043124D01*
X139372611Y-69086666D01*
X139372613Y-69086667D01*
X139570840Y-69179101D01*
X139570849Y-69179105D01*
X139782105Y-69235710D01*
X139782115Y-69235712D01*
X139999999Y-69254775D01*
X140000001Y-69254775D01*
X140217884Y-69235712D01*
X140217894Y-69235710D01*
X140429150Y-69179105D01*
X140429159Y-69179101D01*
X140627387Y-69086666D01*
X140689572Y-69043124D01*
X140000001Y-68353553D01*
X140000000Y-68353553D01*
X139310426Y-69043124D01*
X122000000Y-69043124D01*
X122000000Y-68000000D01*
X138745225Y-68000000D01*
X138764287Y-68217884D01*
X138764289Y-68217894D01*
X138820894Y-68429150D01*
X138820898Y-68429159D01*
X138913335Y-68627391D01*
X138956873Y-68689571D01*
X138956875Y-68689572D01*
X139646447Y-68000000D01*
X140353553Y-68000000D01*
X141043124Y-68689572D01*
X141086666Y-68627387D01*
X141179101Y-68429159D01*
X141179105Y-68429150D01*
X141235710Y-68217894D01*
X141235712Y-68217884D01*
X141254775Y-68000000D01*
X141254775Y-67999999D01*
X141235712Y-67782115D01*
X141235710Y-67782105D01*
X141179105Y-67570849D01*
X141179101Y-67570840D01*
X141086668Y-67372615D01*
X141043123Y-67310428D01*
X140353553Y-67999999D01*
X140353553Y-68000000D01*
X139646447Y-68000000D01*
X139646447Y-67999999D01*
X138956875Y-67310427D01*
X138956875Y-67310428D01*
X138913333Y-67372612D01*
X138913332Y-67372614D01*
X138820898Y-67570840D01*
X138820894Y-67570849D01*
X138764289Y-67782105D01*
X138764287Y-67782115D01*
X138745225Y-67999999D01*
X138745225Y-68000000D01*
X122000000Y-68000000D01*
X122000000Y-66956875D01*
X139310427Y-66956875D01*
X140000000Y-67646447D01*
X140000001Y-67646447D01*
X140689572Y-66956875D01*
X140689571Y-66956873D01*
X140627391Y-66913335D01*
X140429159Y-66820898D01*
X140429150Y-66820894D01*
X140217894Y-66764289D01*
X140217884Y-66764287D01*
X140000001Y-66745225D01*
X139999999Y-66745225D01*
X139782115Y-66764287D01*
X139782105Y-66764289D01*
X139570849Y-66820894D01*
X139570840Y-66820898D01*
X139372614Y-66913332D01*
X139372612Y-66913333D01*
X139310428Y-66956875D01*
X139310427Y-66956875D01*
X122000000Y-66956875D01*
X122000000Y-61870774D01*
X122019685Y-61803735D01*
X122072489Y-61757980D01*
X122124000Y-61746774D01*
X132183240Y-61746774D01*
X132183383Y-61746802D01*
X132183384Y-61746798D01*
X132207997Y-61746813D01*
X132208000Y-61746815D01*
X132208383Y-61746657D01*
X132208500Y-61746373D01*
X132208541Y-61746274D01*
X132208540Y-61746271D01*
X132208583Y-61722163D01*
X132208500Y-61721741D01*
X132208500Y-57071000D01*
X133282065Y-57071000D01*
X133301786Y-57397038D01*
X133360667Y-57718341D01*
X133457835Y-58030164D01*
X133457839Y-58030175D01*
X133591897Y-58328041D01*
X133591898Y-58328043D01*
X133760887Y-58607586D01*
X133908477Y-58795968D01*
X134421070Y-58283375D01*
X134620274Y-58283375D01*
X134659887Y-58365631D01*
X134731266Y-58422553D01*
X134797742Y-58437726D01*
X134842806Y-58437726D01*
X134909282Y-58422553D01*
X134980661Y-58365631D01*
X135020274Y-58283375D01*
X135020274Y-58192077D01*
X134980661Y-58109821D01*
X134909282Y-58052899D01*
X134842806Y-58037726D01*
X134797742Y-58037726D01*
X134731266Y-58052899D01*
X134659887Y-58109821D01*
X134620274Y-58192077D01*
X134620274Y-58283375D01*
X134421070Y-58283375D01*
X135051210Y-57653234D01*
X135151894Y-57794624D01*
X135303932Y-57939592D01*
X135406222Y-58005330D01*
X134262030Y-59149521D01*
X134262030Y-59149522D01*
X134450414Y-59297112D01*
X134450423Y-59297118D01*
X134729956Y-59466101D01*
X134729958Y-59466102D01*
X135027824Y-59600160D01*
X135027835Y-59600164D01*
X135339658Y-59697332D01*
X135660961Y-59756213D01*
X135987000Y-59775934D01*
X136313038Y-59756213D01*
X136634341Y-59697332D01*
X136946164Y-59600164D01*
X136946175Y-59600160D01*
X137244041Y-59466102D01*
X137244043Y-59466101D01*
X137523576Y-59297118D01*
X137523584Y-59297112D01*
X137645485Y-59201608D01*
X152449500Y-59201608D01*
X152454266Y-59250000D01*
X152464699Y-59355932D01*
X152464700Y-59355934D01*
X152524768Y-59553954D01*
X152622315Y-59736450D01*
X152656969Y-59778677D01*
X152753589Y-59896410D01*
X152804124Y-59937882D01*
X152913550Y-60027685D01*
X153083955Y-60118769D01*
X153133798Y-60167731D01*
X153149500Y-60228126D01*
X153149500Y-64740788D01*
X153146861Y-64766232D01*
X153144957Y-64775311D01*
X153144957Y-64775317D01*
X153149023Y-64807937D01*
X153149500Y-64815614D01*
X153149500Y-64819038D01*
X153153087Y-64840541D01*
X153159427Y-64891393D01*
X153161520Y-64898426D01*
X153163908Y-64905381D01*
X153188295Y-64950444D01*
X153210801Y-64996483D01*
X153215065Y-65002455D01*
X153219580Y-65008256D01*
X153257275Y-65042958D01*
X155529897Y-67315580D01*
X155563382Y-67376903D01*
X155560877Y-67439256D01*
X155513975Y-67593869D01*
X155494659Y-67790000D01*
X155513975Y-67986129D01*
X155571188Y-68174733D01*
X155664086Y-68348532D01*
X155664090Y-68348539D01*
X155789116Y-68500883D01*
X155941460Y-68625909D01*
X155941467Y-68625913D01*
X156115266Y-68718811D01*
X156115269Y-68718811D01*
X156115273Y-68718814D01*
X156303868Y-68776024D01*
X156500000Y-68795341D01*
X156696132Y-68776024D01*
X156884727Y-68718814D01*
X157058538Y-68625910D01*
X157210883Y-68500883D01*
X157335910Y-68348538D01*
X157405746Y-68217884D01*
X157428811Y-68174733D01*
X157428811Y-68174732D01*
X157428814Y-68174727D01*
X157486024Y-67986132D01*
X157502583Y-67818000D01*
X161554659Y-67818000D01*
X161573975Y-68014129D01*
X161631188Y-68202733D01*
X161724086Y-68376532D01*
X161724090Y-68376539D01*
X161849116Y-68528883D01*
X162001460Y-68653909D01*
X162001467Y-68653913D01*
X162175266Y-68746811D01*
X162175269Y-68746811D01*
X162175273Y-68746814D01*
X162363868Y-68804024D01*
X162560000Y-68823341D01*
X162756132Y-68804024D01*
X162944727Y-68746814D01*
X163118538Y-68653910D01*
X163270883Y-68528883D01*
X163395910Y-68376538D01*
X163480707Y-68217894D01*
X163488811Y-68202733D01*
X163488811Y-68202732D01*
X163488814Y-68202727D01*
X163546024Y-68014132D01*
X163565341Y-67818000D01*
X163546024Y-67621868D01*
X163488814Y-67433273D01*
X163488811Y-67433269D01*
X163488811Y-67433266D01*
X163395913Y-67259467D01*
X163395909Y-67259460D01*
X163270883Y-67107116D01*
X163118539Y-66982090D01*
X163118532Y-66982086D01*
X162976047Y-66905926D01*
X162926203Y-66856964D01*
X162910500Y-66796568D01*
X162910500Y-64136543D01*
X162930185Y-64069504D01*
X162946819Y-64048862D01*
X163255586Y-63740095D01*
X164213046Y-62782634D01*
X164232902Y-62766511D01*
X164240669Y-62761437D01*
X164260873Y-62735477D01*
X164265941Y-62729739D01*
X164268375Y-62727307D01*
X164281040Y-62709567D01*
X164295589Y-62690874D01*
X164312517Y-62669126D01*
X164312520Y-62669116D01*
X164316006Y-62662675D01*
X164319235Y-62656070D01*
X164319239Y-62656066D01*
X164333856Y-62606966D01*
X164350500Y-62558488D01*
X164350500Y-62558482D01*
X164351692Y-62551342D01*
X164351701Y-62551272D01*
X164351714Y-62551191D01*
X164352617Y-62543952D01*
X164350500Y-62492770D01*
X164350500Y-60203126D01*
X164370185Y-60136087D01*
X164416044Y-60093769D01*
X164586450Y-60002685D01*
X164746410Y-59871410D01*
X164877685Y-59711450D01*
X164975232Y-59528954D01*
X164975234Y-59528948D01*
X164977562Y-59523330D01*
X164979603Y-59524175D01*
X165012447Y-59474041D01*
X165076254Y-59445573D01*
X165145323Y-59456120D01*
X165197725Y-59502335D01*
X165212602Y-59536366D01*
X165226567Y-59588486D01*
X165226570Y-59588492D01*
X165326399Y-59802577D01*
X165461886Y-59996073D01*
X165461891Y-59996079D01*
X165628917Y-60163105D01*
X165822421Y-60298600D01*
X166036507Y-60398429D01*
X166036516Y-60398433D01*
X166250000Y-60455634D01*
X166250000Y-59408018D01*
X166364801Y-59460446D01*
X166466025Y-59475000D01*
X166533975Y-59475000D01*
X166635199Y-59460446D01*
X166750000Y-59408018D01*
X166750000Y-60455633D01*
X166963483Y-60398433D01*
X166963492Y-60398429D01*
X167177577Y-60298600D01*
X167177579Y-60298599D01*
X167371073Y-60163113D01*
X167371079Y-60163108D01*
X167538108Y-59996079D01*
X167538113Y-59996073D01*
X167673601Y-59802577D01*
X167773429Y-59588492D01*
X167773434Y-59588481D01*
X167787397Y-59536368D01*
X167823761Y-59476707D01*
X167886607Y-59446177D01*
X167955983Y-59454471D01*
X168009861Y-59498955D01*
X168021639Y-59523660D01*
X168022438Y-59523330D01*
X168024765Y-59528948D01*
X168024767Y-59528953D01*
X168024768Y-59528954D01*
X168122315Y-59711450D01*
X168142834Y-59736453D01*
X168253589Y-59871410D01*
X168334584Y-59937880D01*
X168413550Y-60002685D01*
X168583955Y-60093769D01*
X168633798Y-60142731D01*
X168649500Y-60203126D01*
X168649500Y-61303455D01*
X168629815Y-61370494D01*
X168613181Y-61391136D01*
X167426955Y-62577361D01*
X167407106Y-62593482D01*
X167399331Y-62598562D01*
X167379143Y-62624498D01*
X167374067Y-62630248D01*
X167371634Y-62632681D01*
X167371623Y-62632694D01*
X167358954Y-62650438D01*
X167327483Y-62690872D01*
X167323975Y-62697353D01*
X167320760Y-62703932D01*
X167306138Y-62753045D01*
X167289498Y-62801516D01*
X167288294Y-62808733D01*
X167287382Y-62816046D01*
X167289500Y-62867230D01*
X167289500Y-66796568D01*
X167269815Y-66863607D01*
X167223953Y-66905926D01*
X167081467Y-66982086D01*
X167081460Y-66982090D01*
X166929116Y-67107116D01*
X166804090Y-67259460D01*
X166804086Y-67259467D01*
X166711188Y-67433266D01*
X166653975Y-67621870D01*
X166634659Y-67818000D01*
X166653975Y-68014129D01*
X166711188Y-68202733D01*
X166804086Y-68376532D01*
X166804090Y-68376539D01*
X166929116Y-68528883D01*
X167081460Y-68653909D01*
X167081467Y-68653913D01*
X167255266Y-68746811D01*
X167255269Y-68746811D01*
X167255273Y-68746814D01*
X167443868Y-68804024D01*
X167640000Y-68823341D01*
X167836132Y-68804024D01*
X168024727Y-68746814D01*
X168198538Y-68653910D01*
X168350883Y-68528883D01*
X168475910Y-68376538D01*
X168560707Y-68217894D01*
X168568811Y-68202733D01*
X168568811Y-68202732D01*
X168568814Y-68202727D01*
X168626024Y-68014132D01*
X168645341Y-67818000D01*
X168626024Y-67621868D01*
X168568814Y-67433273D01*
X168568811Y-67433269D01*
X168568811Y-67433266D01*
X168475913Y-67259467D01*
X168475909Y-67259460D01*
X168350883Y-67107116D01*
X168198539Y-66982090D01*
X168198532Y-66982086D01*
X168056047Y-66905926D01*
X168006203Y-66856964D01*
X167990500Y-66796568D01*
X167990500Y-63056543D01*
X168010185Y-62989504D01*
X168026814Y-62968866D01*
X169213046Y-61782634D01*
X169232902Y-61766511D01*
X169240669Y-61761437D01*
X169260873Y-61735477D01*
X169265941Y-61729739D01*
X169268375Y-61727307D01*
X169281044Y-61709562D01*
X169312517Y-61669126D01*
X169312518Y-61669120D01*
X169316017Y-61662656D01*
X169319235Y-61656071D01*
X169319239Y-61656067D01*
X169333858Y-61606962D01*
X169350500Y-61558488D01*
X169350500Y-61558481D01*
X169351706Y-61551256D01*
X169352617Y-61543952D01*
X169350500Y-61492770D01*
X169350500Y-60203126D01*
X169370185Y-60136087D01*
X169416044Y-60093769D01*
X169586450Y-60002685D01*
X169746410Y-59871410D01*
X169822028Y-59779269D01*
X170449500Y-59779269D01*
X170452353Y-59809699D01*
X170452353Y-59809701D01*
X170484895Y-59902697D01*
X170497207Y-59937882D01*
X170577850Y-60047150D01*
X170687118Y-60127793D01*
X170710821Y-60136087D01*
X170815299Y-60172646D01*
X170845730Y-60175500D01*
X170845734Y-60175500D01*
X171025500Y-60175500D01*
X171092539Y-60195185D01*
X171138294Y-60247989D01*
X171149500Y-60299500D01*
X171149500Y-61450788D01*
X171146861Y-61476232D01*
X171144957Y-61485311D01*
X171144957Y-61485317D01*
X171149023Y-61517937D01*
X171149500Y-61525614D01*
X171149500Y-61529038D01*
X171153087Y-61550541D01*
X171159427Y-61601393D01*
X171161520Y-61608426D01*
X171163908Y-61615381D01*
X171188295Y-61660444D01*
X171210801Y-61706483D01*
X171215065Y-61712455D01*
X171219580Y-61718256D01*
X171257275Y-61752958D01*
X172213181Y-62708862D01*
X172246666Y-62770185D01*
X172249500Y-62796543D01*
X172249500Y-66768568D01*
X172229815Y-66835607D01*
X172183953Y-66877926D01*
X172041467Y-66954086D01*
X172041460Y-66954090D01*
X171889116Y-67079116D01*
X171764090Y-67231460D01*
X171764086Y-67231467D01*
X171671188Y-67405266D01*
X171613975Y-67593870D01*
X171594659Y-67790000D01*
X171613975Y-67986129D01*
X171671188Y-68174733D01*
X171764086Y-68348532D01*
X171764090Y-68348539D01*
X171889116Y-68500883D01*
X172041460Y-68625909D01*
X172041467Y-68625913D01*
X172215266Y-68718811D01*
X172215269Y-68718811D01*
X172215273Y-68718814D01*
X172403868Y-68776024D01*
X172600000Y-68795341D01*
X172796132Y-68776024D01*
X172984727Y-68718814D01*
X173158538Y-68625910D01*
X173310883Y-68500883D01*
X173435910Y-68348538D01*
X173505746Y-68217884D01*
X173528811Y-68174733D01*
X173528811Y-68174732D01*
X173528814Y-68174727D01*
X173586024Y-67986132D01*
X173605341Y-67790000D01*
X173586024Y-67593868D01*
X173528814Y-67405273D01*
X173528811Y-67405269D01*
X173528811Y-67405266D01*
X173435913Y-67231467D01*
X173435909Y-67231460D01*
X173310883Y-67079116D01*
X173158539Y-66954090D01*
X173158532Y-66954086D01*
X173016047Y-66877926D01*
X172966203Y-66828964D01*
X172950500Y-66768568D01*
X172950500Y-62649211D01*
X172953139Y-62623764D01*
X172955043Y-62614685D01*
X172952400Y-62593482D01*
X172950977Y-62582061D01*
X172950500Y-62574385D01*
X172950500Y-62570960D01*
X172946912Y-62549458D01*
X172946121Y-62543119D01*
X172940573Y-62498607D01*
X172940571Y-62498603D01*
X172938502Y-62491653D01*
X172938470Y-62491559D01*
X172938444Y-62491472D01*
X172936091Y-62484617D01*
X172911704Y-62439555D01*
X172889199Y-62393518D01*
X172884919Y-62387524D01*
X172880419Y-62381743D01*
X172842724Y-62347041D01*
X171886819Y-61391136D01*
X171853334Y-61329813D01*
X171850500Y-61303455D01*
X171850500Y-60299500D01*
X171870185Y-60232461D01*
X171922989Y-60186706D01*
X171974500Y-60175500D01*
X172154270Y-60175500D01*
X172184699Y-60172646D01*
X172184701Y-60172646D01*
X172270191Y-60142731D01*
X172312882Y-60127793D01*
X172422150Y-60047150D01*
X172502793Y-59937882D01*
X172526052Y-59871410D01*
X172547646Y-59809701D01*
X172547646Y-59809699D01*
X172550500Y-59779269D01*
X172550500Y-58220730D01*
X172547646Y-58190300D01*
X172547646Y-58190298D01*
X172502793Y-58062119D01*
X172502792Y-58062117D01*
X172479210Y-58030164D01*
X172422150Y-57952850D01*
X172312882Y-57872207D01*
X172312880Y-57872206D01*
X172184700Y-57827353D01*
X172154270Y-57824500D01*
X172154266Y-57824500D01*
X170845734Y-57824500D01*
X170845730Y-57824500D01*
X170815300Y-57827353D01*
X170815298Y-57827353D01*
X170687119Y-57872206D01*
X170687117Y-57872207D01*
X170577850Y-57952850D01*
X170497207Y-58062117D01*
X170497206Y-58062119D01*
X170452353Y-58190298D01*
X170452353Y-58190300D01*
X170449500Y-58220730D01*
X170449500Y-59779269D01*
X169822028Y-59779269D01*
X169877685Y-59711450D01*
X169975232Y-59528954D01*
X170035300Y-59330934D01*
X170050500Y-59176608D01*
X170050500Y-58823392D01*
X170035300Y-58669066D01*
X169975232Y-58471046D01*
X169877685Y-58288550D01*
X169822027Y-58220730D01*
X169746410Y-58128589D01*
X169626477Y-58030164D01*
X169586450Y-57997315D01*
X169403954Y-57899768D01*
X169205934Y-57839700D01*
X169205932Y-57839699D01*
X169205934Y-57839699D01*
X169000000Y-57819417D01*
X168794067Y-57839699D01*
X168596043Y-57899769D01*
X168537849Y-57930875D01*
X168413550Y-57997315D01*
X168413548Y-57997316D01*
X168413547Y-57997317D01*
X168253589Y-58128589D01*
X168122317Y-58288547D01*
X168122315Y-58288550D01*
X168092132Y-58345018D01*
X168024765Y-58471051D01*
X168022438Y-58476670D01*
X168020407Y-58475828D01*
X167987504Y-58526000D01*
X167923682Y-58554435D01*
X167854619Y-58543852D01*
X167802240Y-58497610D01*
X167787397Y-58463631D01*
X167773434Y-58411518D01*
X167773429Y-58411507D01*
X167673600Y-58197422D01*
X167673599Y-58197420D01*
X167538113Y-58003926D01*
X167538108Y-58003920D01*
X167371082Y-57836894D01*
X167177578Y-57701399D01*
X166963492Y-57601570D01*
X166963486Y-57601567D01*
X166750000Y-57544364D01*
X166750000Y-58591981D01*
X166635199Y-58539554D01*
X166533975Y-58525000D01*
X166466025Y-58525000D01*
X166364801Y-58539554D01*
X166250000Y-58591981D01*
X166250000Y-57544364D01*
X166249999Y-57544364D01*
X166036513Y-57601567D01*
X166036507Y-57601570D01*
X165822422Y-57701399D01*
X165822420Y-57701400D01*
X165628926Y-57836886D01*
X165628920Y-57836891D01*
X165461891Y-58003920D01*
X165461886Y-58003926D01*
X165326400Y-58197420D01*
X165326399Y-58197422D01*
X165226570Y-58411507D01*
X165226567Y-58411514D01*
X165212602Y-58463633D01*
X165176236Y-58523293D01*
X165113389Y-58553822D01*
X165044014Y-58545527D01*
X164990136Y-58501041D01*
X164978363Y-58476338D01*
X164977562Y-58476670D01*
X164975234Y-58471051D01*
X164975232Y-58471048D01*
X164975232Y-58471046D01*
X164877685Y-58288550D01*
X164822027Y-58220730D01*
X164746410Y-58128589D01*
X164626477Y-58030164D01*
X164586450Y-57997315D01*
X164403954Y-57899768D01*
X164205934Y-57839700D01*
X164205932Y-57839699D01*
X164205934Y-57839699D01*
X164000000Y-57819417D01*
X163794067Y-57839699D01*
X163596043Y-57899769D01*
X163537849Y-57930875D01*
X163413550Y-57997315D01*
X163413548Y-57997316D01*
X163413547Y-57997317D01*
X163253589Y-58128589D01*
X163122317Y-58288547D01*
X163122315Y-58288550D01*
X163092132Y-58345018D01*
X163024769Y-58471043D01*
X163024768Y-58471045D01*
X163024768Y-58471046D01*
X163023317Y-58475828D01*
X162964699Y-58669067D01*
X162955089Y-58766649D01*
X162949500Y-58823392D01*
X162949500Y-59176608D01*
X162952774Y-59209844D01*
X162964699Y-59330932D01*
X162993220Y-59424952D01*
X163024768Y-59528954D01*
X163122315Y-59711450D01*
X163142834Y-59736453D01*
X163253589Y-59871410D01*
X163334584Y-59937880D01*
X163413550Y-60002685D01*
X163583955Y-60093769D01*
X163633798Y-60142731D01*
X163649500Y-60203126D01*
X163649500Y-62303455D01*
X163629815Y-62370494D01*
X163613181Y-62391136D01*
X162264222Y-63740095D01*
X162260452Y-63743565D01*
X162228840Y-63770341D01*
X162207635Y-63805927D01*
X162204832Y-63810216D01*
X162180761Y-63843930D01*
X162179901Y-63845689D01*
X162169670Y-63869015D01*
X162168962Y-63870831D01*
X162160460Y-63911371D01*
X162159203Y-63916337D01*
X162147383Y-63956042D01*
X162147141Y-63957982D01*
X162145036Y-63983387D01*
X162144956Y-63985313D01*
X162150082Y-64026430D01*
X162150505Y-64031538D01*
X162152217Y-64072923D01*
X162152218Y-64072926D01*
X162152617Y-64074830D01*
X162158871Y-64099526D01*
X162159427Y-64101395D01*
X162177617Y-64138603D01*
X162179675Y-64143296D01*
X162198472Y-64191467D01*
X162196159Y-64192369D01*
X162209500Y-64240813D01*
X162209500Y-66796568D01*
X162189815Y-66863607D01*
X162143953Y-66905926D01*
X162001467Y-66982086D01*
X162001460Y-66982090D01*
X161849116Y-67107116D01*
X161724090Y-67259460D01*
X161724086Y-67259467D01*
X161631188Y-67433266D01*
X161573975Y-67621870D01*
X161554659Y-67818000D01*
X157502583Y-67818000D01*
X157505341Y-67790000D01*
X157486024Y-67593868D01*
X157428814Y-67405273D01*
X157428811Y-67405269D01*
X157428811Y-67405266D01*
X157335913Y-67231467D01*
X157335909Y-67231460D01*
X157210883Y-67079116D01*
X157058539Y-66954090D01*
X157058532Y-66954086D01*
X156884733Y-66861188D01*
X156884727Y-66861186D01*
X156751903Y-66820894D01*
X156696129Y-66803975D01*
X156500000Y-66784659D01*
X156303870Y-66803975D01*
X156248097Y-66820894D01*
X156149253Y-66850878D01*
X156079389Y-66851501D01*
X156025579Y-66819898D01*
X153886819Y-64681137D01*
X153853334Y-64619814D01*
X153850500Y-64593456D01*
X153850500Y-60228126D01*
X153870185Y-60161087D01*
X153916044Y-60118769D01*
X154086450Y-60027685D01*
X154246410Y-59896410D01*
X154377685Y-59736450D01*
X154416644Y-59663562D01*
X154465603Y-59613721D01*
X154533741Y-59598260D01*
X154599421Y-59622091D01*
X154641790Y-59677648D01*
X154650000Y-59722016D01*
X154650000Y-59799970D01*
X154650001Y-59799987D01*
X154660494Y-59902697D01*
X154715641Y-60069119D01*
X154715643Y-60069124D01*
X154807684Y-60218345D01*
X154931654Y-60342315D01*
X155080875Y-60434356D01*
X155080880Y-60434358D01*
X155247302Y-60489505D01*
X155247309Y-60489506D01*
X155350019Y-60499999D01*
X155749999Y-60499999D01*
X155750000Y-60499998D01*
X155750000Y-59435501D01*
X155857685Y-59484680D01*
X155964237Y-59500000D01*
X156035763Y-59500000D01*
X156142315Y-59484680D01*
X156250000Y-59435501D01*
X156250000Y-60499999D01*
X156649972Y-60499999D01*
X156649986Y-60499998D01*
X156752697Y-60489505D01*
X156919119Y-60434358D01*
X156919124Y-60434356D01*
X157068345Y-60342315D01*
X157192315Y-60218345D01*
X157284356Y-60069124D01*
X157284358Y-60069119D01*
X157339505Y-59902697D01*
X157339506Y-59902690D01*
X157349999Y-59799986D01*
X157350000Y-59799973D01*
X157350000Y-59250000D01*
X156433686Y-59250000D01*
X156459493Y-59209844D01*
X156500000Y-59071889D01*
X156500000Y-58928111D01*
X156459493Y-58790156D01*
X156433686Y-58750000D01*
X157349999Y-58750000D01*
X157349999Y-58200028D01*
X157349998Y-58200013D01*
X157339505Y-58097302D01*
X157284358Y-57930880D01*
X157284356Y-57930875D01*
X157192315Y-57781654D01*
X157068345Y-57657684D01*
X156919124Y-57565643D01*
X156919119Y-57565641D01*
X156752697Y-57510494D01*
X156752690Y-57510493D01*
X156649986Y-57500000D01*
X156250000Y-57500000D01*
X156250000Y-58564498D01*
X156142315Y-58515320D01*
X156035763Y-58500000D01*
X155964237Y-58500000D01*
X155857685Y-58515320D01*
X155750000Y-58564498D01*
X155750000Y-57500000D01*
X155350028Y-57500000D01*
X155350012Y-57500001D01*
X155247302Y-57510494D01*
X155080880Y-57565641D01*
X155080875Y-57565643D01*
X154931654Y-57657684D01*
X154807684Y-57781654D01*
X154715643Y-57930875D01*
X154715641Y-57930880D01*
X154660494Y-58097302D01*
X154660493Y-58097309D01*
X154650000Y-58200013D01*
X154650000Y-58277979D01*
X154630315Y-58345018D01*
X154577511Y-58390773D01*
X154508353Y-58400717D01*
X154444797Y-58371692D01*
X154416642Y-58336433D01*
X154377685Y-58263550D01*
X154319029Y-58192077D01*
X154246410Y-58103589D01*
X154086452Y-57972317D01*
X154086453Y-57972317D01*
X154086450Y-57972315D01*
X153903954Y-57874768D01*
X153705934Y-57814700D01*
X153705932Y-57814699D01*
X153705934Y-57814699D01*
X153500000Y-57794417D01*
X153294067Y-57814699D01*
X153096043Y-57874769D01*
X152991078Y-57930875D01*
X152913550Y-57972315D01*
X152913548Y-57972316D01*
X152913547Y-57972317D01*
X152753589Y-58103589D01*
X152622317Y-58263547D01*
X152622315Y-58263550D01*
X152583643Y-58335898D01*
X152524769Y-58446043D01*
X152464699Y-58644067D01*
X152460595Y-58685742D01*
X152449500Y-58798392D01*
X152449500Y-59201608D01*
X137645485Y-59201608D01*
X137711968Y-59149522D01*
X137711968Y-59149521D01*
X136845822Y-58283375D01*
X136953726Y-58283375D01*
X136993339Y-58365631D01*
X137064718Y-58422553D01*
X137131194Y-58437726D01*
X137176258Y-58437726D01*
X137242734Y-58422553D01*
X137314113Y-58365631D01*
X137353726Y-58283375D01*
X137353726Y-58192077D01*
X137314113Y-58109821D01*
X137242734Y-58052899D01*
X137176258Y-58037726D01*
X137131194Y-58037726D01*
X137064718Y-58052899D01*
X136993339Y-58109821D01*
X136953726Y-58192077D01*
X136953726Y-58283375D01*
X136845822Y-58283375D01*
X136570306Y-58007859D01*
X136584410Y-58000589D01*
X136749540Y-57870729D01*
X136887110Y-57711965D01*
X136921665Y-57652112D01*
X138065521Y-58795968D01*
X138065522Y-58795968D01*
X138213112Y-58607584D01*
X138213118Y-58607576D01*
X138382101Y-58328043D01*
X138382102Y-58328041D01*
X138516160Y-58030175D01*
X138516164Y-58030164D01*
X138613332Y-57718341D01*
X138672213Y-57397038D01*
X138691934Y-57071000D01*
X138672213Y-56744961D01*
X138613332Y-56423658D01*
X138516164Y-56111835D01*
X138516160Y-56111824D01*
X138382102Y-55813958D01*
X138382101Y-55813956D01*
X138213118Y-55534423D01*
X138213112Y-55534414D01*
X138065521Y-55346030D01*
X136922788Y-56488763D01*
X136822106Y-56347376D01*
X136670068Y-56202408D01*
X136567777Y-56136669D01*
X136754523Y-55949923D01*
X136953726Y-55949923D01*
X136993339Y-56032179D01*
X137064718Y-56089101D01*
X137131194Y-56104274D01*
X137176258Y-56104274D01*
X137242734Y-56089101D01*
X137314113Y-56032179D01*
X137353726Y-55949923D01*
X137353726Y-55858625D01*
X137314113Y-55776369D01*
X137242734Y-55719447D01*
X137176258Y-55704274D01*
X137131194Y-55704274D01*
X137064718Y-55719447D01*
X136993339Y-55776369D01*
X136953726Y-55858625D01*
X136953726Y-55949923D01*
X136754523Y-55949923D01*
X137711968Y-54992477D01*
X137711968Y-54992476D01*
X137523586Y-54844887D01*
X137244043Y-54675898D01*
X137244041Y-54675897D01*
X136946175Y-54541839D01*
X136946164Y-54541835D01*
X136634341Y-54444667D01*
X136313038Y-54385786D01*
X135987000Y-54366065D01*
X135660961Y-54385786D01*
X135339658Y-54444667D01*
X135027835Y-54541835D01*
X135027824Y-54541839D01*
X134729958Y-54675897D01*
X134729956Y-54675898D01*
X134450423Y-54844881D01*
X134262030Y-54992476D01*
X134262030Y-54992477D01*
X135403693Y-56134140D01*
X135389590Y-56141411D01*
X135224460Y-56271271D01*
X135086890Y-56430035D01*
X135052334Y-56489887D01*
X134512370Y-55949923D01*
X134620274Y-55949923D01*
X134659887Y-56032179D01*
X134731266Y-56089101D01*
X134797742Y-56104274D01*
X134842806Y-56104274D01*
X134909282Y-56089101D01*
X134980661Y-56032179D01*
X135020274Y-55949923D01*
X135020274Y-55858625D01*
X134980661Y-55776369D01*
X134909282Y-55719447D01*
X134842806Y-55704274D01*
X134797742Y-55704274D01*
X134731266Y-55719447D01*
X134659887Y-55776369D01*
X134620274Y-55858625D01*
X134620274Y-55949923D01*
X134512370Y-55949923D01*
X133908477Y-55346030D01*
X133908476Y-55346030D01*
X133760881Y-55534423D01*
X133591898Y-55813956D01*
X133591897Y-55813958D01*
X133457839Y-56111824D01*
X133457835Y-56111835D01*
X133360667Y-56423658D01*
X133301786Y-56744961D01*
X133282065Y-57071000D01*
X132208500Y-57071000D01*
X132208500Y-52980774D01*
X132228185Y-52913735D01*
X132280989Y-52867980D01*
X132332500Y-52856774D01*
X190503500Y-52856774D01*
X190570539Y-52876459D01*
G37*
%TD.AperFunction*%
%TD*%
M02*
