%TF.GenerationSoftware,KiCad,Pcbnew,7.0.9*%
%TF.CreationDate,2024-01-02T09:01:56+07:00*%
%TF.ProjectId,Waterbox 2.1,57617465-7262-46f7-9820-322e312e6b69,rev?*%
%TF.SameCoordinates,Original*%
%TF.FileFunction,Copper,L2,Bot*%
%TF.FilePolarity,Positive*%
%FSLAX46Y46*%
G04 Gerber Fmt 4.6, Leading zero omitted, Abs format (unit mm)*
G04 Created by KiCad (PCBNEW 7.0.9) date 2024-01-02 09:01:56*
%MOMM*%
%LPD*%
G01*
G04 APERTURE LIST*
G04 Aperture macros list*
%AMRoundRect*
0 Rectangle with rounded corners*
0 $1 Rounding radius*
0 $2 $3 $4 $5 $6 $7 $8 $9 X,Y pos of 4 corners*
0 Add a 4 corners polygon primitive as box body*
4,1,4,$2,$3,$4,$5,$6,$7,$8,$9,$2,$3,0*
0 Add four circle primitives for the rounded corners*
1,1,$1+$1,$2,$3*
1,1,$1+$1,$4,$5*
1,1,$1+$1,$6,$7*
1,1,$1+$1,$8,$9*
0 Add four rect primitives between the rounded corners*
20,1,$1+$1,$2,$3,$4,$5,0*
20,1,$1+$1,$4,$5,$6,$7,0*
20,1,$1+$1,$6,$7,$8,$9,0*
20,1,$1+$1,$8,$9,$2,$3,0*%
G04 Aperture macros list end*
%TA.AperFunction,ComponentPad*%
%ADD10C,1.600000*%
%TD*%
%TA.AperFunction,ComponentPad*%
%ADD11O,1.600000X1.600000*%
%TD*%
%TA.AperFunction,ComponentPad*%
%ADD12RoundRect,0.250000X0.600000X0.725000X-0.600000X0.725000X-0.600000X-0.725000X0.600000X-0.725000X0*%
%TD*%
%TA.AperFunction,ComponentPad*%
%ADD13O,1.700000X1.950000*%
%TD*%
%TA.AperFunction,ComponentPad*%
%ADD14RoundRect,0.250000X0.725000X-0.600000X0.725000X0.600000X-0.725000X0.600000X-0.725000X-0.600000X0*%
%TD*%
%TA.AperFunction,ComponentPad*%
%ADD15O,1.950000X1.700000*%
%TD*%
%TA.AperFunction,ComponentPad*%
%ADD16C,0.700000*%
%TD*%
%TA.AperFunction,ComponentPad*%
%ADD17C,4.400000*%
%TD*%
%TA.AperFunction,ComponentPad*%
%ADD18R,2.000000X2.000000*%
%TD*%
%TA.AperFunction,ComponentPad*%
%ADD19C,2.000000*%
%TD*%
%TA.AperFunction,ComponentPad*%
%ADD20C,1.800000*%
%TD*%
%TA.AperFunction,ComponentPad*%
%ADD21R,1.530000X1.530000*%
%TD*%
%TA.AperFunction,ComponentPad*%
%ADD22C,1.530000*%
%TD*%
%TA.AperFunction,ComponentPad*%
%ADD23R,2.600000X2.600000*%
%TD*%
%TA.AperFunction,ComponentPad*%
%ADD24C,2.600000*%
%TD*%
%TA.AperFunction,ComponentPad*%
%ADD25R,3.000000X3.000000*%
%TD*%
%TA.AperFunction,ComponentPad*%
%ADD26C,3.000000*%
%TD*%
%TA.AperFunction,ComponentPad*%
%ADD27RoundRect,0.250000X0.600000X0.750000X-0.600000X0.750000X-0.600000X-0.750000X0.600000X-0.750000X0*%
%TD*%
%TA.AperFunction,ComponentPad*%
%ADD28O,1.700000X2.000000*%
%TD*%
%TA.AperFunction,ComponentPad*%
%ADD29C,2.400000*%
%TD*%
G04 APERTURE END LIST*
D10*
%TO.P,R4,1*%
%TO.N,Net-(D2-A)*%
X156500000Y-67790000D03*
D11*
%TO.P,R4,2*%
%TO.N,/LED_TEL*%
X156500000Y-75410000D03*
%TD*%
D12*
%TO.P,LED2,1,BA*%
%TO.N,Net-(D1-BA)*%
X171500000Y-59000000D03*
D13*
%TO.P,LED2,2,GA*%
%TO.N,Net-(D1-GA)*%
X169000000Y-59000000D03*
%TO.P,LED2,3,K*%
%TO.N,GND*%
X166500000Y-59000000D03*
%TO.P,LED2,4,RA*%
%TO.N,Net-(D1-RA)*%
X164000000Y-59000000D03*
%TD*%
D14*
%TO.P,SENSOR,1,Pin_1*%
%TO.N,/Sensor_Data*%
X184023000Y-86106000D03*
D15*
%TO.P,SENSOR,2,Pin_2*%
%TO.N,GND*%
X184023000Y-83606000D03*
%TO.P,SENSOR,3,Pin_3*%
%TO.N,+5V*%
X184023000Y-81106000D03*
%TD*%
D16*
%TO.P,H7,1,1*%
%TO.N,GND*%
X134337000Y-127127000D03*
X134820274Y-125960274D03*
X134820274Y-128293726D03*
X135987000Y-125477000D03*
D17*
X135987000Y-127127000D03*
D16*
X135987000Y-128777000D03*
X137153726Y-125960274D03*
X137153726Y-128293726D03*
X137637000Y-127127000D03*
%TD*%
D18*
%TO.P,PS1,1,AC/L*%
%TO.N,Net-(PS1-AC{slash}L)*%
X70900000Y-111000000D03*
D19*
%TO.P,PS1,2,AC/N*%
%TO.N,Net-(PS1-AC{slash}N)*%
X70900000Y-117000000D03*
%TO.P,PS1,3,-Vout*%
%TO.N,GND*%
X104500000Y-105000000D03*
%TO.P,PS1,4,+Vout*%
%TO.N,+5V*%
X104500000Y-123000000D03*
%TD*%
D20*
%TO.P,RV1,1*%
%TO.N,Net-(VAC_IN1-Pin_2)*%
X105400000Y-83000000D03*
%TO.P,RV1,2*%
%TO.N,Net-(VAC_IN1-Pin_1)*%
X104000000Y-90500000D03*
%TD*%
D16*
%TO.P,H5,1,1*%
%TO.N,GND*%
X134337000Y-57071000D03*
X134820274Y-55904274D03*
X134820274Y-58237726D03*
X135987000Y-55421000D03*
D17*
X135987000Y-57071000D03*
D16*
X135987000Y-58721000D03*
X137153726Y-55904274D03*
X137153726Y-58237726D03*
X137637000Y-57071000D03*
%TD*%
D21*
%TO.P,ESP32-DEVKITC-32U,1,3V3*%
%TO.N,unconnected-(ESP32-DEVKITC-32U1-3V3-Pad1)*%
X181850000Y-95300000D03*
D22*
%TO.P,ESP32-DEVKITC-32U,2,EN*%
%TO.N,unconnected-(ESP32-DEVKITC-32U1-EN-Pad2)*%
X179310000Y-95300000D03*
%TO.P,ESP32-DEVKITC-32U,3,SENSOR_VP*%
%TO.N,unconnected-(ESP32-DEVKITC-32U1-SENSOR_VP-Pad3)*%
X176770000Y-95300000D03*
%TO.P,ESP32-DEVKITC-32U,4,SENSOR_VN*%
%TO.N,unconnected-(ESP32-DEVKITC-32U1-SENSOR_VN-Pad4)*%
X174230000Y-95300000D03*
%TO.P,ESP32-DEVKITC-32U,5,IO34*%
%TO.N,unconnected-(ESP32-DEVKITC-32U1-IO34-Pad5)*%
X171690000Y-95300000D03*
%TO.P,ESP32-DEVKITC-32U,6,IO35*%
%TO.N,unconnected-(ESP32-DEVKITC-32U1-IO35-Pad6)*%
X169150000Y-95300000D03*
%TO.P,ESP32-DEVKITC-32U,7,IO32*%
%TO.N,unconnected-(ESP32-DEVKITC-32U1-IO32-Pad7)*%
X166610000Y-95300000D03*
%TO.P,ESP32-DEVKITC-32U,8,IO33*%
%TO.N,unconnected-(ESP32-DEVKITC-32U1-IO33-Pad8)*%
X164070000Y-95300000D03*
%TO.P,ESP32-DEVKITC-32U,9,IO25*%
%TO.N,/RGBLED_B*%
X161530000Y-95300000D03*
%TO.P,ESP32-DEVKITC-32U,10,IO26*%
%TO.N,/RGBLED_G*%
X158990000Y-95300000D03*
%TO.P,ESP32-DEVKITC-32U,11,IO27*%
%TO.N,/RGBLED_R*%
X156450000Y-95300000D03*
%TO.P,ESP32-DEVKITC-32U,12,IO14*%
%TO.N,unconnected-(ESP32-DEVKITC-32U1-IO14-Pad12)*%
X153910000Y-95300000D03*
%TO.P,ESP32-DEVKITC-32U,13,IO12*%
%TO.N,unconnected-(ESP32-DEVKITC-32U1-IO12-Pad13)*%
X151370000Y-95300000D03*
%TO.P,ESP32-DEVKITC-32U,14,GND1*%
%TO.N,GND*%
X148830000Y-95300000D03*
%TO.P,ESP32-DEVKITC-32U,15,IO13*%
%TO.N,/LED_TEL*%
X146290000Y-95300000D03*
%TO.P,ESP32-DEVKITC-32U,16,SD2*%
%TO.N,unconnected-(ESP32-DEVKITC-32U1-SD2-Pad16)*%
X143750000Y-95300000D03*
%TO.P,ESP32-DEVKITC-32U,17,SD3*%
%TO.N,unconnected-(ESP32-DEVKITC-32U1-SD3-Pad17)*%
X141210000Y-95300000D03*
%TO.P,ESP32-DEVKITC-32U,18,CMD*%
%TO.N,unconnected-(ESP32-DEVKITC-32U1-CMD-Pad18)*%
X138670000Y-95300000D03*
%TO.P,ESP32-DEVKITC-32U,19,EXT_5V*%
%TO.N,+5V*%
X136130000Y-95300000D03*
%TO.P,ESP32-DEVKITC-32U,20,CLK*%
%TO.N,unconnected-(ESP32-DEVKITC-32U1-CLK-Pad20)*%
X136130000Y-120700000D03*
%TO.P,ESP32-DEVKITC-32U,21,SD0*%
%TO.N,unconnected-(ESP32-DEVKITC-32U1-SD0-Pad21)*%
X138670000Y-120700000D03*
%TO.P,ESP32-DEVKITC-32U,22,SD1*%
%TO.N,unconnected-(ESP32-DEVKITC-32U1-SD1-Pad22)*%
X141210000Y-120700000D03*
%TO.P,ESP32-DEVKITC-32U,23,IO15*%
%TO.N,unconnected-(ESP32-DEVKITC-32U1-IO15-Pad23)*%
X143750000Y-120700000D03*
%TO.P,ESP32-DEVKITC-32U,24,IO2*%
%TO.N,unconnected-(ESP32-DEVKITC-32U1-IO2-Pad24)*%
X146290000Y-120700000D03*
%TO.P,ESP32-DEVKITC-32U,25,IO0*%
%TO.N,unconnected-(ESP32-DEVKITC-32U1-IO0-Pad25)*%
X148830000Y-120700000D03*
%TO.P,ESP32-DEVKITC-32U,26,IO4*%
%TO.N,/Sensor_Data*%
X151370000Y-120700000D03*
%TO.P,ESP32-DEVKITC-32U,27,IO16*%
%TO.N,unconnected-(ESP32-DEVKITC-32U1-IO16-Pad27)*%
X153910000Y-120700000D03*
%TO.P,ESP32-DEVKITC-32U,28,IO17*%
%TO.N,unconnected-(ESP32-DEVKITC-32U1-IO17-Pad28)*%
X156450000Y-120700000D03*
%TO.P,ESP32-DEVKITC-32U,29,IO5*%
%TO.N,unconnected-(ESP32-DEVKITC-32U1-IO5-Pad29)*%
X158990000Y-120700000D03*
%TO.P,ESP32-DEVKITC-32U,30,IO18*%
%TO.N,unconnected-(ESP32-DEVKITC-32U1-IO18-Pad30)*%
X161530000Y-120700000D03*
%TO.P,ESP32-DEVKITC-32U,31,IO19*%
%TO.N,unconnected-(ESP32-DEVKITC-32U1-IO19-Pad31)*%
X164070000Y-120700000D03*
%TO.P,ESP32-DEVKITC-32U,32,GND2*%
%TO.N,GND*%
X166610000Y-120700000D03*
%TO.P,ESP32-DEVKITC-32U,33,IO21*%
%TO.N,unconnected-(ESP32-DEVKITC-32U1-IO21-Pad33)*%
X169150000Y-120700000D03*
%TO.P,ESP32-DEVKITC-32U,34,RXD0*%
%TO.N,unconnected-(ESP32-DEVKITC-32U1-RXD0-Pad34)*%
X171690000Y-120700000D03*
%TO.P,ESP32-DEVKITC-32U,35,TXD0*%
%TO.N,unconnected-(ESP32-DEVKITC-32U1-TXD0-Pad35)*%
X174230000Y-120700000D03*
%TO.P,ESP32-DEVKITC-32U,36,IO22*%
%TO.N,unconnected-(ESP32-DEVKITC-32U1-IO22-Pad36)*%
X176770000Y-120700000D03*
%TO.P,ESP32-DEVKITC-32U,37,IO23*%
%TO.N,unconnected-(ESP32-DEVKITC-32U1-IO23-Pad37)*%
X179310000Y-120700000D03*
%TO.P,ESP32-DEVKITC-32U,38,GND3*%
%TO.N,GND*%
X181850000Y-120700000D03*
%TD*%
D23*
%TO.P,VAC_IN,1,Pin_1*%
%TO.N,Net-(VAC_IN1-Pin_1)*%
X91857500Y-61750000D03*
D24*
%TO.P,VAC_IN,2,Pin_2*%
%TO.N,Net-(VAC_IN1-Pin_2)*%
X86857500Y-61750000D03*
%TD*%
D16*
%TO.P,H4,1,1*%
%TO.N,GND*%
X113444000Y-127127000D03*
X113927274Y-125960274D03*
X113927274Y-128293726D03*
X115094000Y-125477000D03*
D17*
X115094000Y-127127000D03*
D16*
X115094000Y-128777000D03*
X116260726Y-125960274D03*
X116260726Y-128293726D03*
X116744000Y-127127000D03*
%TD*%
%TO.P,H6,1,1*%
%TO.N,GND*%
X186437000Y-57071000D03*
X186920274Y-55904274D03*
X186920274Y-58237726D03*
X188087000Y-55421000D03*
D17*
X188087000Y-57071000D03*
D16*
X188087000Y-58721000D03*
X189253726Y-55904274D03*
X189253726Y-58237726D03*
X189737000Y-57071000D03*
%TD*%
D18*
%TO.P,C2,1*%
%TO.N,+5V*%
X142000000Y-84500000D03*
D19*
%TO.P,C2,2*%
%TO.N,GND*%
X147000000Y-84500000D03*
%TD*%
D25*
%TO.P,FL1,1,1*%
%TO.N,Net-(VAC_IN1-Pin_2)*%
X82250000Y-80950000D03*
D26*
%TO.P,FL1,2,2*%
%TO.N,Net-(PS1-AC{slash}L)*%
X72250000Y-80950000D03*
%TO.P,FL1,3,3*%
%TO.N,Net-(PS1-AC{slash}N)*%
X72250000Y-93550000D03*
%TO.P,FL1,4,4*%
%TO.N,Net-(VAC_IN1-Pin_1)*%
X82250000Y-93550000D03*
%TD*%
D10*
%TO.P,R2,1*%
%TO.N,Net-(D1-GA)*%
X167640000Y-67818000D03*
D11*
%TO.P,R2,2*%
%TO.N,/RGBLED_G*%
X167640000Y-75438000D03*
%TD*%
D27*
%TO.P,LED1,1,K*%
%TO.N,GND*%
X156000000Y-59000000D03*
D28*
%TO.P,LED1,2,A*%
%TO.N,Net-(D2-A)*%
X153500000Y-59000000D03*
%TD*%
D29*
%TO.P,C1,1*%
%TO.N,Net-(VAC_IN1-Pin_2)*%
X94000000Y-79500000D03*
%TO.P,C1,2*%
%TO.N,Net-(VAC_IN1-Pin_1)*%
X94000000Y-94500000D03*
%TD*%
D10*
%TO.P,R3,1*%
%TO.N,Net-(D1-RA)*%
X162560000Y-67818000D03*
D11*
%TO.P,R3,2*%
%TO.N,/RGBLED_R*%
X162560000Y-75438000D03*
%TD*%
D16*
%TO.P,H8,1,1*%
%TO.N,GND*%
X186437000Y-127127000D03*
X186920274Y-125960274D03*
X186920274Y-128293726D03*
X188087000Y-125477000D03*
D17*
X188087000Y-127127000D03*
D16*
X188087000Y-128777000D03*
X189253726Y-125960274D03*
X189253726Y-128293726D03*
X189737000Y-127127000D03*
%TD*%
D10*
%TO.P,R1,1*%
%TO.N,Net-(D1-BA)*%
X172600000Y-67790000D03*
D11*
%TO.P,R1,2*%
%TO.N,/RGBLED_B*%
X172600000Y-75410000D03*
%TD*%
M02*
