M48
; DRILL file {KiCad 7.0.9} date 
; FORMAT={-:-/ absolute / metric / decimal}
; #@! TF.CreationDate,2024-01-02T09:02:00+07:00
; #@! TF.GenerationSoftware,Kicad,Pcbnew,7.0.9
; #@! TF.FileFunction,Plated,1,2,PTH
FMAT,2
METRIC
; #@! TA.AperFunction,Plated,PTH,ComponentDrill
T1C0.400
; #@! TA.AperFunction,Plated,PTH,ComponentDrill
T2C0.800
; #@! TA.AperFunction,Plated,PTH,ComponentDrill
T3C0.950
; #@! TA.AperFunction,Plated,PTH,ComponentDrill
T4C1.000
; #@! TA.AperFunction,Plated,PTH,ComponentDrill
T5C1.020
; #@! TA.AperFunction,Plated,PTH,ComponentDrill
T6C1.200
; #@! TA.AperFunction,Plated,PTH,ComponentDrill
T7C1.300
; #@! TA.AperFunction,Plated,PTH,ComponentDrill
T8C1.450
; #@! TA.AperFunction,Plated,PTH,ComponentDrill
T9C2.200
%
G90
G05
T1
X113.444Y-127.127
X113.927Y-125.96
X113.927Y-128.294
X115.094Y-125.477
X115.094Y-128.777
X116.261Y-125.96
X116.261Y-128.294
X116.744Y-127.127
X134.337Y-57.071
X134.337Y-127.127
X134.82Y-55.904
X134.82Y-58.238
X134.82Y-125.96
X134.82Y-128.294
X135.987Y-55.421
X135.987Y-58.721
X135.987Y-125.477
X135.987Y-128.777
X137.154Y-55.904
X137.154Y-58.238
X137.154Y-125.96
X137.154Y-128.294
X137.637Y-57.071
X137.637Y-127.127
X186.437Y-57.071
X186.437Y-127.127
X186.92Y-55.904
X186.92Y-58.238
X186.92Y-125.96
X186.92Y-128.294
X188.087Y-55.421
X188.087Y-58.721
X188.087Y-125.477
X188.087Y-128.777
X189.254Y-55.904
X189.254Y-58.238
X189.254Y-125.96
X189.254Y-128.294
X189.737Y-57.071
X189.737Y-127.127
T2
X104.0Y-90.5
X105.4Y-83.0
X156.5Y-67.79
X156.5Y-75.41
X162.56Y-67.818
X162.56Y-75.438
X167.64Y-67.818
X167.64Y-75.438
X172.6Y-67.79
X172.6Y-75.41
T3
X164.0Y-59.0
X166.5Y-59.0
X169.0Y-59.0
X171.5Y-59.0
X184.023Y-81.106
X184.023Y-83.606
X184.023Y-86.106
T4
X70.9Y-111.0
X70.9Y-117.0
X104.5Y-105.0
X104.5Y-123.0
X142.0Y-84.5
X147.0Y-84.5
X153.5Y-59.0
X156.0Y-59.0
T5
X136.13Y-95.3
X136.13Y-120.7
X138.67Y-95.3
X138.67Y-120.7
X141.21Y-95.3
X141.21Y-120.7
X143.75Y-95.3
X143.75Y-120.7
X146.29Y-95.3
X146.29Y-120.7
X148.83Y-95.3
X148.83Y-120.7
X151.37Y-95.3
X151.37Y-120.7
X153.91Y-95.3
X153.91Y-120.7
X156.45Y-95.3
X156.45Y-120.7
X158.99Y-95.3
X158.99Y-120.7
X161.53Y-95.3
X161.53Y-120.7
X164.07Y-95.3
X164.07Y-120.7
X166.61Y-95.3
X166.61Y-120.7
X169.15Y-95.3
X169.15Y-120.7
X171.69Y-95.3
X171.69Y-120.7
X174.23Y-95.3
X174.23Y-120.7
X176.77Y-95.3
X176.77Y-120.7
X179.31Y-95.3
X179.31Y-120.7
X181.85Y-95.3
X181.85Y-120.7
T6
X94.0Y-79.5
X94.0Y-94.5
T7
X86.858Y-61.75
X91.858Y-61.75
T8
X72.25Y-80.95
X72.25Y-93.55
X82.25Y-80.95
X82.25Y-93.55
T9
X115.094Y-127.127
X135.987Y-57.071
X135.987Y-127.127
X188.087Y-57.071
X188.087Y-127.127
T0
M30
